ISO-10303-21;
HEADER;
/* Generated by software containing ST-Developer
 * from STEP Tools, Inc. (www.steptools.com) 
 */

FILE_DESCRIPTION(
/* description */ (''),
/* implementation_level */ '2;1');

FILE_NAME(
/* name */ '',
/* time_stamp */ '2026-08-11T12:53:25+09:00',
/* author */ (''),
/* organization */ (''),
/* preprocessor_version */ 'ST-DEVELOPER v20.1',
/* originating_system */ 'Autodesk Translation Framework v15.8.0.0',
/* authorisation */ '');

FILE_SCHEMA (('AUTOMOTIVE_DESIGN { 1 0 10303 214 3 1 1 }'));
ENDSEC;

DATA;
#10=MECHANICAL_DESIGN_GEOMETRIC_PRESENTATION_REPRESENTATION('',(#13),#1908);
#11=SHAPE_REPRESENTATION_RELATIONSHIP('SRR','None',#1915,#12);
#12=ADVANCED_BREP_SHAPE_REPRESENTATION('',(#14),#1907);
#13=STYLED_ITEM('',(#1924),#14);
#14=MANIFOLD_SOLID_BREP('2\X2\5C42\X0\',#1104);
#15=FACE_BOUND('',#131,.T.);
#16=FACE_BOUND('',#134,.T.);
#17=FACE_BOUND('',#135,.T.);
#18=FACE_BOUND('',#136,.T.);
#19=FACE_BOUND('',#137,.T.);
#20=FACE_BOUND('',#138,.T.);
#21=FACE_BOUND('',#139,.T.);
#22=FACE_BOUND('',#140,.T.);
#23=FACE_BOUND('',#141,.T.);
#24=FACE_BOUND('',#143,.T.);
#25=FACE_BOUND('',#144,.T.);
#26=FACE_BOUND('',#145,.T.);
#27=FACE_BOUND('',#146,.T.);
#28=FACE_BOUND('',#147,.T.);
#29=FACE_BOUND('',#148,.T.);
#30=FACE_BOUND('',#149,.T.);
#31=FACE_BOUND('',#150,.T.);
#32=FACE_BOUND('',#151,.T.);
#33=FACE_BOUND('',#152,.T.);
#34=FACE_BOUND('',#153,.T.);
#35=FACE_BOUND('',#156,.T.);
#36=FACE_BOUND('',#161,.T.);
#37=FACE_BOUND('',#164,.T.);
#38=FACE_BOUND('',#169,.T.);
#39=FACE_BOUND('',#170,.T.);
#40=FACE_BOUND('',#171,.T.);
#41=FACE_BOUND('',#208,.T.);
#42=FACE_BOUND('',#210,.T.);
#43=PLANE('',#1121);
#44=PLANE('',#1125);
#45=PLANE('',#1148);
#46=PLANE('',#1175);
#47=PLANE('',#1184);
#48=PLANE('',#1188);
#49=PLANE('',#1192);
#50=PLANE('',#1195);
#51=PLANE('',#1200);
#52=PLANE('',#1203);
#53=PLANE('',#1204);
#54=PLANE('',#1205);
#55=PLANE('',#1207);
#56=PLANE('',#1209);
#57=PLANE('',#1211);
#58=PLANE('',#1213);
#59=PLANE('',#1215);
#60=PLANE('',#1217);
#61=PLANE('',#1218);
#62=PLANE('',#1220);
#63=PLANE('',#1222);
#64=PLANE('',#1223);
#65=PLANE('',#1229);
#66=PLANE('',#1233);
#67=PLANE('',#1236);
#68=PLANE('',#1239);
#69=PLANE('',#1246);
#70=FACE_OUTER_BOUND('',#129,.T.);
#71=FACE_OUTER_BOUND('',#130,.T.);
#72=FACE_OUTER_BOUND('',#132,.T.);
#73=FACE_OUTER_BOUND('',#133,.T.);
#74=FACE_OUTER_BOUND('',#142,.T.);
#75=FACE_OUTER_BOUND('',#154,.T.);
#76=FACE_OUTER_BOUND('',#155,.T.);
#77=FACE_OUTER_BOUND('',#157,.T.);
#78=FACE_OUTER_BOUND('',#158,.T.);
#79=FACE_OUTER_BOUND('',#159,.T.);
#80=FACE_OUTER_BOUND('',#160,.T.);
#81=FACE_OUTER_BOUND('',#162,.T.);
#82=FACE_OUTER_BOUND('',#163,.T.);
#83=FACE_OUTER_BOUND('',#165,.T.);
#84=FACE_OUTER_BOUND('',#166,.T.);
#85=FACE_OUTER_BOUND('',#167,.T.);
#86=FACE_OUTER_BOUND('',#168,.T.);
#87=FACE_OUTER_BOUND('',#172,.T.);
#88=FACE_OUTER_BOUND('',#173,.T.);
#89=FACE_OUTER_BOUND('',#174,.T.);
#90=FACE_OUTER_BOUND('',#175,.T.);
#91=FACE_OUTER_BOUND('',#176,.T.);
#92=FACE_OUTER_BOUND('',#177,.T.);
#93=FACE_OUTER_BOUND('',#178,.T.);
#94=FACE_OUTER_BOUND('',#179,.T.);
#95=FACE_OUTER_BOUND('',#180,.T.);
#96=FACE_OUTER_BOUND('',#181,.T.);
#97=FACE_OUTER_BOUND('',#182,.T.);
#98=FACE_OUTER_BOUND('',#183,.T.);
#99=FACE_OUTER_BOUND('',#184,.T.);
#100=FACE_OUTER_BOUND('',#185,.T.);
#101=FACE_OUTER_BOUND('',#186,.T.);
#102=FACE_OUTER_BOUND('',#187,.T.);
#103=FACE_OUTER_BOUND('',#188,.T.);
#104=FACE_OUTER_BOUND('',#189,.T.);
#105=FACE_OUTER_BOUND('',#190,.T.);
#106=FACE_OUTER_BOUND('',#191,.T.);
#107=FACE_OUTER_BOUND('',#192,.T.);
#108=FACE_OUTER_BOUND('',#193,.T.);
#109=FACE_OUTER_BOUND('',#194,.T.);
#110=FACE_OUTER_BOUND('',#195,.T.);
#111=FACE_OUTER_BOUND('',#196,.T.);
#112=FACE_OUTER_BOUND('',#197,.T.);
#113=FACE_OUTER_BOUND('',#198,.T.);
#114=FACE_OUTER_BOUND('',#199,.T.);
#115=FACE_OUTER_BOUND('',#200,.T.);
#116=FACE_OUTER_BOUND('',#201,.T.);
#117=FACE_OUTER_BOUND('',#202,.T.);
#118=FACE_OUTER_BOUND('',#203,.T.);
#119=FACE_OUTER_BOUND('',#204,.T.);
#120=FACE_OUTER_BOUND('',#205,.T.);
#121=FACE_OUTER_BOUND('',#206,.T.);
#122=FACE_OUTER_BOUND('',#207,.T.);
#123=FACE_OUTER_BOUND('',#209,.T.);
#124=FACE_OUTER_BOUND('',#211,.T.);
#125=FACE_OUTER_BOUND('',#212,.T.);
#126=FACE_OUTER_BOUND('',#213,.T.);
#127=FACE_OUTER_BOUND('',#214,.T.);
#128=FACE_OUTER_BOUND('',#215,.T.);
#129=EDGE_LOOP('',(#707,#708,#709,#710));
#130=EDGE_LOOP('',(#711));
#131=EDGE_LOOP('',(#712));
#132=EDGE_LOOP('',(#713,#714,#715,#716));
#133=EDGE_LOOP('',(#717,#718,#719,#720,#721,#722,#723,#724,#725,#726,#727,
#728,#729,#730,#731,#732,#733,#734,#735,#736,#737,#738));
#134=EDGE_LOOP('',(#739));
#135=EDGE_LOOP('',(#740));
#136=EDGE_LOOP('',(#741));
#137=EDGE_LOOP('',(#742,#743,#744,#745,#746,#747,#748,#749));
#138=EDGE_LOOP('',(#750));
#139=EDGE_LOOP('',(#751));
#140=EDGE_LOOP('',(#752));
#141=EDGE_LOOP('',(#753));
#142=EDGE_LOOP('',(#754,#755,#756,#757,#758,#759,#760,#761,#762,#763,#764,
#765,#766,#767,#768,#769,#770,#771,#772,#773,#774));
#143=EDGE_LOOP('',(#775));
#144=EDGE_LOOP('',(#776));
#145=EDGE_LOOP('',(#777));
#146=EDGE_LOOP('',(#778,#779,#780,#781,#782,#783,#784,#785));
#147=EDGE_LOOP('',(#786));
#148=EDGE_LOOP('',(#787));
#149=EDGE_LOOP('',(#788));
#150=EDGE_LOOP('',(#789));
#151=EDGE_LOOP('',(#790));
#152=EDGE_LOOP('',(#791));
#153=EDGE_LOOP('',(#792));
#154=EDGE_LOOP('',(#793,#794,#795,#796));
#155=EDGE_LOOP('',(#797));
#156=EDGE_LOOP('',(#798));
#157=EDGE_LOOP('',(#799,#800,#801,#802));
#158=EDGE_LOOP('',(#803,#804,#805,#806,#807,#808,#809,#810,#811,#812,#813,
#814));
#159=EDGE_LOOP('',(#815,#816,#817,#818));
#160=EDGE_LOOP('',(#819));
#161=EDGE_LOOP('',(#820));
#162=EDGE_LOOP('',(#821,#822,#823,#824));
#163=EDGE_LOOP('',(#825));
#164=EDGE_LOOP('',(#826));
#165=EDGE_LOOP('',(#827,#828,#829,#830));
#166=EDGE_LOOP('',(#831,#832,#833,#834));
#167=EDGE_LOOP('',(#835,#836,#837,#838,#839));
#168=EDGE_LOOP('',(#840));
#169=EDGE_LOOP('',(#841));
#170=EDGE_LOOP('',(#842));
#171=EDGE_LOOP('',(#843));
#172=EDGE_LOOP('',(#844,#845,#846,#847));
#173=EDGE_LOOP('',(#848,#849,#850,#851,#852,#853,#854,#855));
#174=EDGE_LOOP('',(#856,#857,#858,#859));
#175=EDGE_LOOP('',(#860,#861,#862,#863,#864));
#176=EDGE_LOOP('',(#865,#866,#867,#868));
#177=EDGE_LOOP('',(#869,#870,#871,#872));
#178=EDGE_LOOP('',(#873,#874,#875,#876));
#179=EDGE_LOOP('',(#877,#878,#879,#880));
#180=EDGE_LOOP('',(#881,#882,#883,#884));
#181=EDGE_LOOP('',(#885,#886,#887,#888));
#182=EDGE_LOOP('',(#889,#890,#891,#892));
#183=EDGE_LOOP('',(#893,#894,#895,#896));
#184=EDGE_LOOP('',(#897,#898,#899,#900));
#185=EDGE_LOOP('',(#901,#902,#903,#904));
#186=EDGE_LOOP('',(#905,#906,#907,#908));
#187=EDGE_LOOP('',(#909,#910,#911,#912));
#188=EDGE_LOOP('',(#913,#914,#915,#916));
#189=EDGE_LOOP('',(#917,#918,#919,#920));
#190=EDGE_LOOP('',(#921,#922,#923,#924));
#191=EDGE_LOOP('',(#925,#926,#927,#928));
#192=EDGE_LOOP('',(#929,#930,#931,#932));
#193=EDGE_LOOP('',(#933,#934,#935,#936));
#194=EDGE_LOOP('',(#937,#938,#939,#940));
#195=EDGE_LOOP('',(#941,#942,#943,#944));
#196=EDGE_LOOP('',(#945,#946,#947,#948));
#197=EDGE_LOOP('',(#949,#950,#951,#952));
#198=EDGE_LOOP('',(#953,#954,#955,#956));
#199=EDGE_LOOP('',(#957,#958,#959,#960));
#200=EDGE_LOOP('',(#961,#962,#963,#964));
#201=EDGE_LOOP('',(#965,#966,#967,#968));
#202=EDGE_LOOP('',(#969,#970,#971,#972));
#203=EDGE_LOOP('',(#973,#974,#975,#976));
#204=EDGE_LOOP('',(#977,#978,#979,#980));
#205=EDGE_LOOP('',(#981,#982,#983,#984));
#206=EDGE_LOOP('',(#985,#986,#987,#988));
#207=EDGE_LOOP('',(#989));
#208=EDGE_LOOP('',(#990));
#209=EDGE_LOOP('',(#991));
#210=EDGE_LOOP('',(#992));
#211=EDGE_LOOP('',(#993,#994,#995,#996));
#212=EDGE_LOOP('',(#997,#998,#999,#1000));
#213=EDGE_LOOP('',(#1001,#1002,#1003,#1004));
#214=EDGE_LOOP('',(#1005,#1006,#1007,#1008));
#215=EDGE_LOOP('',(#1009,#1010,#1011,#1012));
#216=LINE('',#1595,#299);
#217=LINE('',#1602,#300);
#218=LINE('',#1607,#301);
#219=LINE('',#1613,#302);
#220=LINE('',#1619,#303);
#221=LINE('',#1623,#304);
#222=LINE('',#1627,#305);
#223=LINE('',#1631,#306);
#224=LINE('',#1635,#307);
#225=LINE('',#1639,#308);
#226=LINE('',#1643,#309);
#227=LINE('',#1647,#310);
#228=LINE('',#1657,#311);
#229=LINE('',#1661,#312);
#230=LINE('',#1665,#313);
#231=LINE('',#1669,#314);
#232=LINE('',#1682,#315);
#233=LINE('',#1688,#316);
#234=LINE('',#1692,#317);
#235=LINE('',#1696,#318);
#236=LINE('',#1700,#319);
#237=LINE('',#1704,#320);
#238=LINE('',#1708,#321);
#239=LINE('',#1712,#322);
#240=LINE('',#1716,#323);
#241=LINE('',#1719,#324);
#242=LINE('',#1728,#325);
#243=LINE('',#1732,#326);
#244=LINE('',#1736,#327);
#245=LINE('',#1740,#328);
#246=LINE('',#1756,#329);
#247=LINE('',#1762,#330);
#248=LINE('',#1764,#331);
#249=LINE('',#1765,#332);
#250=LINE('',#1767,#333);
#251=LINE('',#1771,#334);
#252=LINE('',#1775,#335);
#253=LINE('',#1779,#336);
#254=LINE('',#1786,#337);
#255=LINE('',#1792,#338);
#256=LINE('',#1794,#339);
#257=LINE('',#1797,#340);
#258=LINE('',#1802,#341);
#259=LINE('',#1814,#342);
#260=LINE('',#1815,#343);
#261=LINE('',#1819,#344);
#262=LINE('',#1820,#345);
#263=LINE('',#1822,#346);
#264=LINE('',#1825,#347);
#265=LINE('',#1827,#348);
#266=LINE('',#1828,#349);
#267=LINE('',#1830,#350);
#268=LINE('',#1832,#351);
#269=LINE('',#1834,#352);
#270=LINE('',#1836,#353);
#271=LINE('',#1838,#354);
#272=LINE('',#1840,#355);
#273=LINE('',#1843,#356);
#274=LINE('',#1844,#357);
#275=LINE('',#1846,#358);
#276=LINE('',#1848,#359);
#277=LINE('',#1850,#360);
#278=LINE('',#1852,#361);
#279=LINE('',#1854,#362);
#280=LINE('',#1855,#363);
#281=LINE('',#1857,#364);
#282=LINE('',#1859,#365);
#283=LINE('',#1861,#366);
#284=LINE('',#1863,#367);
#285=LINE('',#1865,#368);
#286=LINE('',#1867,#369);
#287=LINE('',#1869,#370);
#288=LINE('',#1871,#371);
#289=LINE('',#1873,#372);
#290=LINE('',#1876,#373);
#291=LINE('',#1879,#374);
#292=LINE('',#1880,#375);
#293=LINE('',#1882,#376);
#294=LINE('',#1885,#377);
#295=LINE('',#1897,#378);
#296=LINE('',#1899,#379);
#297=LINE('',#1901,#380);
#298=LINE('',#1903,#381);
#299=VECTOR('',#1253,2.75);
#300=VECTOR('',#1262,1.5);
#301=VECTOR('',#1267,10.);
#302=VECTOR('',#1272,10.);
#303=VECTOR('',#1277,10.);
#304=VECTOR('',#1280,10.);
#305=VECTOR('',#1283,10.);
#306=VECTOR('',#1286,10.);
#307=VECTOR('',#1289,10.);
#308=VECTOR('',#1292,10.);
#309=VECTOR('',#1295,10.);
#310=VECTOR('',#1298,10.);
#311=VECTOR('',#1307,10.);
#312=VECTOR('',#1310,10.);
#313=VECTOR('',#1313,10.);
#314=VECTOR('',#1316,10.);
#315=VECTOR('',#1329,10.);
#316=VECTOR('',#1334,10.);
#317=VECTOR('',#1337,10.);
#318=VECTOR('',#1340,10.);
#319=VECTOR('',#1343,10.);
#320=VECTOR('',#1346,10.);
#321=VECTOR('',#1349,10.);
#322=VECTOR('',#1352,10.);
#323=VECTOR('',#1355,10.);
#324=VECTOR('',#1358,10.);
#325=VECTOR('',#1365,10.);
#326=VECTOR('',#1368,10.);
#327=VECTOR('',#1371,10.);
#328=VECTOR('',#1374,10.);
#329=VECTOR('',#1391,2.75);
#330=VECTOR('',#1400,1.5);
#331=VECTOR('',#1403,10.);
#332=VECTOR('',#1404,10.);
#333=VECTOR('',#1405,37.7049999999721);
#334=VECTOR('',#1408,10.);
#335=VECTOR('',#1411,10.);
#336=VECTOR('',#1416,2.75);
#337=VECTOR('',#1425,2.75);
#338=VECTOR('',#1434,1.49999999999999);
#339=VECTOR('',#1437,1.49999999999999);
#340=VECTOR('',#1440,10.);
#341=VECTOR('',#1445,10.);
#342=VECTOR('',#1458,10.);
#343=VECTOR('',#1459,10.);
#344=VECTOR('',#1464,10.);
#345=VECTOR('',#1465,35.55);
#346=VECTOR('',#1468,10.);
#347=VECTOR('',#1473,2.);
#348=VECTOR('',#1476,10.);
#349=VECTOR('',#1477,10.);
#350=VECTOR('',#1480,10.);
#351=VECTOR('',#1483,10.);
#352=VECTOR('',#1486,10.);
#353=VECTOR('',#1489,10.);
#354=VECTOR('',#1492,10.);
#355=VECTOR('',#1495,10.);
#356=VECTOR('',#1500,10.);
#357=VECTOR('',#1501,10.);
#358=VECTOR('',#1504,10.);
#359=VECTOR('',#1507,10.);
#360=VECTOR('',#1510,10.);
#361=VECTOR('',#1513,10.);
#362=VECTOR('',#1516,10.);
#363=VECTOR('',#1517,10.);
#364=VECTOR('',#1520,10.);
#365=VECTOR('',#1523,10.);
#366=VECTOR('',#1526,10.);
#367=VECTOR('',#1529,10.);
#368=VECTOR('',#1532,1.5);
#369=VECTOR('',#1535,1.5);
#370=VECTOR('',#1538,1.5);
#371=VECTOR('',#1541,10.);
#372=VECTOR('',#1544,10.);
#373=VECTOR('',#1549,2.);
#374=VECTOR('',#1554,10.);
#375=VECTOR('',#1555,10.);
#376=VECTOR('',#1558,10.);
#377=VECTOR('',#1563,22.5);
#378=VECTOR('',#1578,3.1);
#379=VECTOR('',#1581,3.1);
#380=VECTOR('',#1584,1.5);
#381=VECTOR('',#1587,1.5);
#382=CIRCLE('',#1119,2.75);
#383=CIRCLE('',#1120,2.75);
#384=CIRCLE('',#1122,1.5);
#385=CIRCLE('',#1124,1.5);
#386=CIRCLE('',#1126,37.7049999999721);
#387=CIRCLE('',#1127,37.7049999999721);
#388=CIRCLE('',#1128,2.);
#389=CIRCLE('',#1129,2.);
#390=CIRCLE('',#1130,4.);
#391=CIRCLE('',#1131,4.);
#392=CIRCLE('',#1132,1.);
#393=CIRCLE('',#1133,1.);
#394=CIRCLE('',#1134,3.);
#395=CIRCLE('',#1135,3.);
#396=CIRCLE('',#1136,6.);
#397=CIRCLE('',#1137,6.);
#398=CIRCLE('',#1138,1.5);
#399=CIRCLE('',#1139,1.49999999999999);
#400=CIRCLE('',#1140,1.49999999999999);
#401=CIRCLE('',#1141,4.);
#402=CIRCLE('',#1142,4.);
#403=CIRCLE('',#1143,4.);
#404=CIRCLE('',#1144,4.);
#405=CIRCLE('',#1145,1.5);
#406=CIRCLE('',#1146,1.5);
#407=CIRCLE('',#1147,1.5);
#408=CIRCLE('',#1149,4.);
#409=CIRCLE('',#1150,2.);
#410=CIRCLE('',#1151,2.);
#411=CIRCLE('',#1152,37.7049999999721);
#412=CIRCLE('',#1153,6.);
#413=CIRCLE('',#1154,6.);
#414=CIRCLE('',#1155,3.);
#415=CIRCLE('',#1156,3.);
#416=CIRCLE('',#1157,1.);
#417=CIRCLE('',#1158,1.);
#418=CIRCLE('',#1159,4.);
#419=CIRCLE('',#1160,2.75);
#420=CIRCLE('',#1161,2.75);
#421=CIRCLE('',#1162,2.75);
#422=CIRCLE('',#1163,4.);
#423=CIRCLE('',#1164,4.);
#424=CIRCLE('',#1165,4.);
#425=CIRCLE('',#1166,4.);
#426=CIRCLE('',#1167,1.5);
#427=CIRCLE('',#1168,1.5);
#428=CIRCLE('',#1169,22.5);
#429=CIRCLE('',#1170,1.5);
#430=CIRCLE('',#1171,1.5);
#431=CIRCLE('',#1172,1.5);
#432=CIRCLE('',#1174,2.75);
#433=CIRCLE('',#1176,1.5);
#434=CIRCLE('',#1179,37.7049999999721);
#435=CIRCLE('',#1180,37.7049999999721);
#436=CIRCLE('',#1181,37.7049999999721);
#437=CIRCLE('',#1183,2.75);
#438=CIRCLE('',#1185,1.49999999999999);
#439=CIRCLE('',#1187,2.75);
#440=CIRCLE('',#1189,1.49999999999999);
#441=CIRCLE('',#1193,35.55);
#442=CIRCLE('',#1194,35.55);
#443=CIRCLE('',#1196,35.55);
#444=CIRCLE('',#1197,3.1);
#445=CIRCLE('',#1198,3.1);
#446=CIRCLE('',#1199,22.5);
#447=CIRCLE('',#1202,35.55);
#448=CIRCLE('',#1237,3.1);
#449=CIRCLE('',#1238,1.5);
#450=CIRCLE('',#1240,3.1);
#451=CIRCLE('',#1241,1.5);
#452=VERTEX_POINT('',#1592);
#453=VERTEX_POINT('',#1594);
#454=VERTEX_POINT('',#1598);
#455=VERTEX_POINT('',#1601);
#456=VERTEX_POINT('',#1605);
#457=VERTEX_POINT('',#1606);
#458=VERTEX_POINT('',#1608);
#459=VERTEX_POINT('',#1610);
#460=VERTEX_POINT('',#1612);
#461=VERTEX_POINT('',#1614);
#462=VERTEX_POINT('',#1616);
#463=VERTEX_POINT('',#1618);
#464=VERTEX_POINT('',#1620);
#465=VERTEX_POINT('',#1622);
#466=VERTEX_POINT('',#1624);
#467=VERTEX_POINT('',#1626);
#468=VERTEX_POINT('',#1628);
#469=VERTEX_POINT('',#1630);
#470=VERTEX_POINT('',#1632);
#471=VERTEX_POINT('',#1634);
#472=VERTEX_POINT('',#1636);
#473=VERTEX_POINT('',#1638);
#474=VERTEX_POINT('',#1640);
#475=VERTEX_POINT('',#1642);
#476=VERTEX_POINT('',#1644);
#477=VERTEX_POINT('',#1646);
#478=VERTEX_POINT('',#1649);
#479=VERTEX_POINT('',#1651);
#480=VERTEX_POINT('',#1653);
#481=VERTEX_POINT('',#1655);
#482=VERTEX_POINT('',#1656);
#483=VERTEX_POINT('',#1658);
#484=VERTEX_POINT('',#1660);
#485=VERTEX_POINT('',#1662);
#486=VERTEX_POINT('',#1664);
#487=VERTEX_POINT('',#1666);
#488=VERTEX_POINT('',#1668);
#489=VERTEX_POINT('',#1671);
#490=VERTEX_POINT('',#1673);
#491=VERTEX_POINT('',#1675);
#492=VERTEX_POINT('',#1678);
#493=VERTEX_POINT('',#1679);
#494=VERTEX_POINT('',#1681);
#495=VERTEX_POINT('',#1683);
#496=VERTEX_POINT('',#1685);
#497=VERTEX_POINT('',#1687);
#498=VERTEX_POINT('',#1689);
#499=VERTEX_POINT('',#1691);
#500=VERTEX_POINT('',#1693);
#501=VERTEX_POINT('',#1695);
#502=VERTEX_POINT('',#1697);
#503=VERTEX_POINT('',#1699);
#504=VERTEX_POINT('',#1701);
#505=VERTEX_POINT('',#1703);
#506=VERTEX_POINT('',#1705);
#507=VERTEX_POINT('',#1707);
#508=VERTEX_POINT('',#1709);
#509=VERTEX_POINT('',#1711);
#510=VERTEX_POINT('',#1713);
#511=VERTEX_POINT('',#1715);
#512=VERTEX_POINT('',#1717);
#513=VERTEX_POINT('',#1720);
#514=VERTEX_POINT('',#1722);
#515=VERTEX_POINT('',#1724);
#516=VERTEX_POINT('',#1726);
#517=VERTEX_POINT('',#1727);
#518=VERTEX_POINT('',#1729);
#519=VERTEX_POINT('',#1731);
#520=VERTEX_POINT('',#1733);
#521=VERTEX_POINT('',#1735);
#522=VERTEX_POINT('',#1737);
#523=VERTEX_POINT('',#1739);
#524=VERTEX_POINT('',#1742);
#525=VERTEX_POINT('',#1744);
#526=VERTEX_POINT('',#1746);
#527=VERTEX_POINT('',#1748);
#528=VERTEX_POINT('',#1750);
#529=VERTEX_POINT('',#1752);
#530=VERTEX_POINT('',#1755);
#531=VERTEX_POINT('',#1759);
#532=VERTEX_POINT('',#1766);
#533=VERTEX_POINT('',#1768);
#534=VERTEX_POINT('',#1770);
#535=VERTEX_POINT('',#1772);
#536=VERTEX_POINT('',#1774);
#537=VERTEX_POINT('',#1778);
#538=VERTEX_POINT('',#1782);
#539=VERTEX_POINT('',#1785);
#540=VERTEX_POINT('',#1789);
#541=VERTEX_POINT('',#1796);
#542=VERTEX_POINT('',#1798);
#543=VERTEX_POINT('',#1800);
#544=VERTEX_POINT('',#1804);
#545=VERTEX_POINT('',#1806);
#546=VERTEX_POINT('',#1808);
#547=VERTEX_POINT('',#1810);
#548=VERTEX_POINT('',#1813);
#549=VERTEX_POINT('',#1817);
#550=VERTEX_POINT('',#1887);
#551=VERTEX_POINT('',#1889);
#552=VERTEX_POINT('',#1892);
#553=VERTEX_POINT('',#1894);
#554=EDGE_CURVE('',#452,#452,#382,.T.);
#555=EDGE_CURVE('',#452,#453,#216,.T.);
#556=EDGE_CURVE('',#453,#453,#383,.T.);
#557=EDGE_CURVE('',#454,#454,#384,.T.);
#558=EDGE_CURVE('',#454,#455,#217,.T.);
#559=EDGE_CURVE('',#455,#455,#385,.T.);
#560=EDGE_CURVE('',#456,#457,#218,.T.);
#561=EDGE_CURVE('',#457,#458,#386,.T.);
#562=EDGE_CURVE('',#458,#459,#387,.T.);
#563=EDGE_CURVE('',#459,#460,#219,.T.);
#564=EDGE_CURVE('',#461,#460,#388,.T.);
#565=EDGE_CURVE('',#462,#461,#389,.T.);
#566=EDGE_CURVE('',#462,#463,#220,.T.);
#567=EDGE_CURVE('',#464,#463,#390,.T.);
#568=EDGE_CURVE('',#464,#465,#221,.F.);
#569=EDGE_CURVE('',#466,#465,#391,.T.);
#570=EDGE_CURVE('',#466,#467,#222,.T.);
#571=EDGE_CURVE('',#468,#467,#392,.T.);
#572=EDGE_CURVE('',#468,#469,#223,.T.);
#573=EDGE_CURVE('',#470,#469,#393,.T.);
#574=EDGE_CURVE('',#470,#471,#224,.T.);
#575=EDGE_CURVE('',#472,#471,#394,.T.);
#576=EDGE_CURVE('',#472,#473,#225,.T.);
#577=EDGE_CURVE('',#474,#473,#395,.T.);
#578=EDGE_CURVE('',#474,#475,#226,.T.);
#579=EDGE_CURVE('',#476,#475,#396,.T.);
#580=EDGE_CURVE('',#476,#477,#227,.T.);
#581=EDGE_CURVE('',#456,#477,#397,.T.);
#582=EDGE_CURVE('',#478,#478,#398,.T.);
#583=EDGE_CURVE('',#479,#479,#399,.T.);
#584=EDGE_CURVE('',#480,#480,#400,.T.);
#585=EDGE_CURVE('',#481,#482,#228,.T.);
#586=EDGE_CURVE('',#483,#482,#401,.T.);
#587=EDGE_CURVE('',#483,#484,#229,.T.);
#588=EDGE_CURVE('',#485,#484,#402,.T.);
#589=EDGE_CURVE('',#485,#486,#230,.T.);
#590=EDGE_CURVE('',#487,#486,#403,.T.);
#591=EDGE_CURVE('',#487,#488,#231,.T.);
#592=EDGE_CURVE('',#481,#488,#404,.T.);
#593=EDGE_CURVE('',#489,#489,#405,.T.);
#594=EDGE_CURVE('',#490,#490,#406,.T.);
#595=EDGE_CURVE('',#491,#491,#407,.T.);
#596=EDGE_CURVE('',#492,#493,#408,.T.);
#597=EDGE_CURVE('',#492,#494,#232,.T.);
#598=EDGE_CURVE('',#495,#494,#409,.T.);
#599=EDGE_CURVE('',#496,#495,#410,.T.);
#600=EDGE_CURVE('',#496,#497,#233,.T.);
#601=EDGE_CURVE('',#497,#498,#411,.T.);
#602=EDGE_CURVE('',#498,#499,#234,.T.);
#603=EDGE_CURVE('',#500,#499,#412,.T.);
#604=EDGE_CURVE('',#500,#501,#235,.T.);
#605=EDGE_CURVE('',#502,#501,#413,.T.);
#606=EDGE_CURVE('',#502,#503,#236,.T.);
#607=EDGE_CURVE('',#504,#503,#414,.T.);
#608=EDGE_CURVE('',#504,#505,#237,.F.);
#609=EDGE_CURVE('',#506,#505,#415,.T.);
#610=EDGE_CURVE('',#506,#507,#238,.T.);
#611=EDGE_CURVE('',#508,#507,#416,.T.);
#612=EDGE_CURVE('',#508,#509,#239,.T.);
#613=EDGE_CURVE('',#510,#509,#417,.T.);
#614=EDGE_CURVE('',#511,#510,#240,.T.);
#615=EDGE_CURVE('',#512,#511,#418,.T.);
#616=EDGE_CURVE('',#512,#493,#241,.T.);
#617=EDGE_CURVE('',#513,#513,#419,.T.);
#618=EDGE_CURVE('',#514,#514,#420,.T.);
#619=EDGE_CURVE('',#515,#515,#421,.T.);
#620=EDGE_CURVE('',#516,#517,#242,.T.);
#621=EDGE_CURVE('',#518,#517,#422,.T.);
#622=EDGE_CURVE('',#518,#519,#243,.T.);
#623=EDGE_CURVE('',#520,#519,#423,.T.);
#624=EDGE_CURVE('',#520,#521,#244,.T.);
#625=EDGE_CURVE('',#522,#521,#424,.T.);
#626=EDGE_CURVE('',#522,#523,#245,.T.);
#627=EDGE_CURVE('',#516,#523,#425,.T.);
#628=EDGE_CURVE('',#524,#524,#426,.T.);
#629=EDGE_CURVE('',#525,#525,#427,.T.);
#630=EDGE_CURVE('',#526,#526,#428,.T.);
#631=EDGE_CURVE('',#527,#527,#429,.T.);
#632=EDGE_CURVE('',#528,#528,#430,.T.);
#633=EDGE_CURVE('',#529,#529,#431,.T.);
#634=EDGE_CURVE('',#513,#530,#246,.T.);
#635=EDGE_CURVE('',#530,#530,#432,.T.);
#636=EDGE_CURVE('',#531,#531,#433,.T.);
#637=EDGE_CURVE('',#531,#478,#247,.T.);
#638=EDGE_CURVE('',#457,#498,#248,.T.);
#639=EDGE_CURVE('',#459,#497,#249,.T.);
#640=EDGE_CURVE('',#458,#532,#250,.T.);
#641=EDGE_CURVE('',#533,#532,#434,.T.);
#642=EDGE_CURVE('',#534,#533,#251,.T.);
#643=EDGE_CURVE('',#535,#534,#435,.T.);
#644=EDGE_CURVE('',#535,#536,#252,.T.);
#645=EDGE_CURVE('',#532,#536,#436,.T.);
#646=EDGE_CURVE('',#514,#537,#253,.T.);
#647=EDGE_CURVE('',#537,#537,#437,.T.);
#648=EDGE_CURVE('',#538,#538,#438,.T.);
#649=EDGE_CURVE('',#515,#539,#254,.T.);
#650=EDGE_CURVE('',#539,#539,#439,.T.);
#651=EDGE_CURVE('',#540,#540,#440,.T.);
#652=EDGE_CURVE('',#538,#480,#255,.T.);
#653=EDGE_CURVE('',#540,#479,#256,.T.);
#654=EDGE_CURVE('',#541,#534,#257,.T.);
#655=EDGE_CURVE('',#541,#542,#441,.T.);
#656=EDGE_CURVE('',#542,#543,#442,.T.);
#657=EDGE_CURVE('',#535,#543,#258,.T.);
#658=EDGE_CURVE('',#544,#544,#443,.T.);
#659=EDGE_CURVE('',#545,#545,#444,.T.);
#660=EDGE_CURVE('',#546,#546,#445,.T.);
#661=EDGE_CURVE('',#547,#547,#446,.T.);
#662=EDGE_CURVE('',#548,#533,#259,.T.);
#663=EDGE_CURVE('',#541,#548,#260,.T.);
#664=EDGE_CURVE('',#549,#548,#447,.T.);
#665=EDGE_CURVE('',#543,#549,#261,.T.);
#666=EDGE_CURVE('',#542,#544,#262,.T.);
#667=EDGE_CURVE('',#536,#549,#263,.T.);
#668=EDGE_CURVE('',#460,#496,#264,.T.);
#669=EDGE_CURVE('',#488,#518,#265,.T.);
#670=EDGE_CURVE('',#517,#481,#266,.T.);
#671=EDGE_CURVE('',#519,#487,#267,.T.);
#672=EDGE_CURVE('',#486,#520,#268,.T.);
#673=EDGE_CURVE('',#521,#485,#269,.T.);
#674=EDGE_CURVE('',#484,#522,#270,.T.);
#675=EDGE_CURVE('',#523,#483,#271,.T.);
#676=EDGE_CURVE('',#482,#516,#272,.T.);
#677=EDGE_CURVE('',#493,#464,#273,.T.);
#678=EDGE_CURVE('',#463,#492,#274,.T.);
#679=EDGE_CURVE('',#465,#512,#275,.T.);
#680=EDGE_CURVE('',#511,#466,#276,.T.);
#681=EDGE_CURVE('',#467,#510,#277,.T.);
#682=EDGE_CURVE('',#494,#462,#278,.T.);
#683=EDGE_CURVE('',#473,#504,#279,.T.);
#684=EDGE_CURVE('',#503,#474,#280,.T.);
#685=EDGE_CURVE('',#505,#472,#281,.T.);
#686=EDGE_CURVE('',#471,#506,#282,.T.);
#687=EDGE_CURVE('',#507,#470,#283,.T.);
#688=EDGE_CURVE('',#475,#502,#284,.T.);
#689=EDGE_CURVE('',#529,#489,#285,.T.);
#690=EDGE_CURVE('',#528,#490,#286,.T.);
#691=EDGE_CURVE('',#527,#491,#287,.T.);
#692=EDGE_CURVE('',#469,#508,#288,.T.);
#693=EDGE_CURVE('',#509,#468,#289,.T.);
#694=EDGE_CURVE('',#495,#461,#290,.T.);
#695=EDGE_CURVE('',#499,#456,#291,.T.);
#696=EDGE_CURVE('',#477,#500,#292,.T.);
#697=EDGE_CURVE('',#501,#476,#293,.T.);
#698=EDGE_CURVE('',#526,#547,#294,.T.);
#699=EDGE_CURVE('',#550,#550,#448,.T.);
#700=EDGE_CURVE('',#551,#551,#449,.T.);
#701=EDGE_CURVE('',#552,#552,#450,.T.);
#702=EDGE_CURVE('',#553,#553,#451,.T.);
#703=EDGE_CURVE('',#546,#552,#295,.T.);
#704=EDGE_CURVE('',#545,#550,#296,.T.);
#705=EDGE_CURVE('',#553,#524,#297,.T.);
#706=EDGE_CURVE('',#551,#525,#298,.T.);
#707=ORIENTED_EDGE('',*,*,#554,.F.);
#708=ORIENTED_EDGE('',*,*,#555,.T.);
#709=ORIENTED_EDGE('',*,*,#556,.T.);
#710=ORIENTED_EDGE('',*,*,#555,.F.);
#711=ORIENTED_EDGE('',*,*,#556,.F.);
#712=ORIENTED_EDGE('',*,*,#557,.F.);
#713=ORIENTED_EDGE('',*,*,#557,.T.);
#714=ORIENTED_EDGE('',*,*,#558,.T.);
#715=ORIENTED_EDGE('',*,*,#559,.F.);
#716=ORIENTED_EDGE('',*,*,#558,.F.);
#717=ORIENTED_EDGE('',*,*,#560,.T.);
#718=ORIENTED_EDGE('',*,*,#561,.T.);
#719=ORIENTED_EDGE('',*,*,#562,.T.);
#720=ORIENTED_EDGE('',*,*,#563,.T.);
#721=ORIENTED_EDGE('',*,*,#564,.F.);
#722=ORIENTED_EDGE('',*,*,#565,.F.);
#723=ORIENTED_EDGE('',*,*,#566,.T.);
#724=ORIENTED_EDGE('',*,*,#567,.F.);
#725=ORIENTED_EDGE('',*,*,#568,.T.);
#726=ORIENTED_EDGE('',*,*,#569,.F.);
#727=ORIENTED_EDGE('',*,*,#570,.T.);
#728=ORIENTED_EDGE('',*,*,#571,.F.);
#729=ORIENTED_EDGE('',*,*,#572,.T.);
#730=ORIENTED_EDGE('',*,*,#573,.F.);
#731=ORIENTED_EDGE('',*,*,#574,.T.);
#732=ORIENTED_EDGE('',*,*,#575,.F.);
#733=ORIENTED_EDGE('',*,*,#576,.T.);
#734=ORIENTED_EDGE('',*,*,#577,.F.);
#735=ORIENTED_EDGE('',*,*,#578,.T.);
#736=ORIENTED_EDGE('',*,*,#579,.F.);
#737=ORIENTED_EDGE('',*,*,#580,.T.);
#738=ORIENTED_EDGE('',*,*,#581,.F.);
#739=ORIENTED_EDGE('',*,*,#582,.T.);
#740=ORIENTED_EDGE('',*,*,#583,.T.);
#741=ORIENTED_EDGE('',*,*,#584,.T.);
#742=ORIENTED_EDGE('',*,*,#585,.T.);
#743=ORIENTED_EDGE('',*,*,#586,.F.);
#744=ORIENTED_EDGE('',*,*,#587,.T.);
#745=ORIENTED_EDGE('',*,*,#588,.F.);
#746=ORIENTED_EDGE('',*,*,#589,.T.);
#747=ORIENTED_EDGE('',*,*,#590,.F.);
#748=ORIENTED_EDGE('',*,*,#591,.T.);
#749=ORIENTED_EDGE('',*,*,#592,.F.);
#750=ORIENTED_EDGE('',*,*,#593,.T.);
#751=ORIENTED_EDGE('',*,*,#594,.T.);
#752=ORIENTED_EDGE('',*,*,#595,.T.);
#753=ORIENTED_EDGE('',*,*,#559,.T.);
#754=ORIENTED_EDGE('',*,*,#596,.F.);
#755=ORIENTED_EDGE('',*,*,#597,.T.);
#756=ORIENTED_EDGE('',*,*,#598,.F.);
#757=ORIENTED_EDGE('',*,*,#599,.F.);
#758=ORIENTED_EDGE('',*,*,#600,.T.);
#759=ORIENTED_EDGE('',*,*,#601,.T.);
#760=ORIENTED_EDGE('',*,*,#602,.T.);
#761=ORIENTED_EDGE('',*,*,#603,.F.);
#762=ORIENTED_EDGE('',*,*,#604,.T.);
#763=ORIENTED_EDGE('',*,*,#605,.F.);
#764=ORIENTED_EDGE('',*,*,#606,.T.);
#765=ORIENTED_EDGE('',*,*,#607,.F.);
#766=ORIENTED_EDGE('',*,*,#608,.T.);
#767=ORIENTED_EDGE('',*,*,#609,.F.);
#768=ORIENTED_EDGE('',*,*,#610,.T.);
#769=ORIENTED_EDGE('',*,*,#611,.F.);
#770=ORIENTED_EDGE('',*,*,#612,.T.);
#771=ORIENTED_EDGE('',*,*,#613,.F.);
#772=ORIENTED_EDGE('',*,*,#614,.F.);
#773=ORIENTED_EDGE('',*,*,#615,.F.);
#774=ORIENTED_EDGE('',*,*,#616,.T.);
#775=ORIENTED_EDGE('',*,*,#617,.T.);
#776=ORIENTED_EDGE('',*,*,#618,.T.);
#777=ORIENTED_EDGE('',*,*,#619,.T.);
#778=ORIENTED_EDGE('',*,*,#620,.T.);
#779=ORIENTED_EDGE('',*,*,#621,.F.);
#780=ORIENTED_EDGE('',*,*,#622,.T.);
#781=ORIENTED_EDGE('',*,*,#623,.F.);
#782=ORIENTED_EDGE('',*,*,#624,.T.);
#783=ORIENTED_EDGE('',*,*,#625,.F.);
#784=ORIENTED_EDGE('',*,*,#626,.T.);
#785=ORIENTED_EDGE('',*,*,#627,.F.);
#786=ORIENTED_EDGE('',*,*,#628,.T.);
#787=ORIENTED_EDGE('',*,*,#629,.T.);
#788=ORIENTED_EDGE('',*,*,#630,.T.);
#789=ORIENTED_EDGE('',*,*,#631,.T.);
#790=ORIENTED_EDGE('',*,*,#632,.T.);
#791=ORIENTED_EDGE('',*,*,#633,.T.);
#792=ORIENTED_EDGE('',*,*,#554,.T.);
#793=ORIENTED_EDGE('',*,*,#617,.F.);
#794=ORIENTED_EDGE('',*,*,#634,.T.);
#795=ORIENTED_EDGE('',*,*,#635,.T.);
#796=ORIENTED_EDGE('',*,*,#634,.F.);
#797=ORIENTED_EDGE('',*,*,#635,.F.);
#798=ORIENTED_EDGE('',*,*,#636,.F.);
#799=ORIENTED_EDGE('',*,*,#636,.T.);
#800=ORIENTED_EDGE('',*,*,#637,.T.);
#801=ORIENTED_EDGE('',*,*,#582,.F.);
#802=ORIENTED_EDGE('',*,*,#637,.F.);
#803=ORIENTED_EDGE('',*,*,#561,.F.);
#804=ORIENTED_EDGE('',*,*,#638,.T.);
#805=ORIENTED_EDGE('',*,*,#601,.F.);
#806=ORIENTED_EDGE('',*,*,#639,.F.);
#807=ORIENTED_EDGE('',*,*,#562,.F.);
#808=ORIENTED_EDGE('',*,*,#640,.T.);
#809=ORIENTED_EDGE('',*,*,#641,.F.);
#810=ORIENTED_EDGE('',*,*,#642,.F.);
#811=ORIENTED_EDGE('',*,*,#643,.F.);
#812=ORIENTED_EDGE('',*,*,#644,.T.);
#813=ORIENTED_EDGE('',*,*,#645,.F.);
#814=ORIENTED_EDGE('',*,*,#640,.F.);
#815=ORIENTED_EDGE('',*,*,#618,.F.);
#816=ORIENTED_EDGE('',*,*,#646,.T.);
#817=ORIENTED_EDGE('',*,*,#647,.T.);
#818=ORIENTED_EDGE('',*,*,#646,.F.);
#819=ORIENTED_EDGE('',*,*,#647,.F.);
#820=ORIENTED_EDGE('',*,*,#648,.F.);
#821=ORIENTED_EDGE('',*,*,#619,.F.);
#822=ORIENTED_EDGE('',*,*,#649,.T.);
#823=ORIENTED_EDGE('',*,*,#650,.T.);
#824=ORIENTED_EDGE('',*,*,#649,.F.);
#825=ORIENTED_EDGE('',*,*,#650,.F.);
#826=ORIENTED_EDGE('',*,*,#651,.F.);
#827=ORIENTED_EDGE('',*,*,#648,.T.);
#828=ORIENTED_EDGE('',*,*,#652,.T.);
#829=ORIENTED_EDGE('',*,*,#584,.F.);
#830=ORIENTED_EDGE('',*,*,#652,.F.);
#831=ORIENTED_EDGE('',*,*,#651,.T.);
#832=ORIENTED_EDGE('',*,*,#653,.T.);
#833=ORIENTED_EDGE('',*,*,#583,.F.);
#834=ORIENTED_EDGE('',*,*,#653,.F.);
#835=ORIENTED_EDGE('',*,*,#643,.T.);
#836=ORIENTED_EDGE('',*,*,#654,.F.);
#837=ORIENTED_EDGE('',*,*,#655,.T.);
#838=ORIENTED_EDGE('',*,*,#656,.T.);
#839=ORIENTED_EDGE('',*,*,#657,.F.);
#840=ORIENTED_EDGE('',*,*,#658,.T.);
#841=ORIENTED_EDGE('',*,*,#659,.T.);
#842=ORIENTED_EDGE('',*,*,#660,.T.);
#843=ORIENTED_EDGE('',*,*,#661,.T.);
#844=ORIENTED_EDGE('',*,*,#654,.T.);
#845=ORIENTED_EDGE('',*,*,#642,.T.);
#846=ORIENTED_EDGE('',*,*,#662,.F.);
#847=ORIENTED_EDGE('',*,*,#663,.F.);
#848=ORIENTED_EDGE('',*,*,#655,.F.);
#849=ORIENTED_EDGE('',*,*,#663,.T.);
#850=ORIENTED_EDGE('',*,*,#664,.F.);
#851=ORIENTED_EDGE('',*,*,#665,.F.);
#852=ORIENTED_EDGE('',*,*,#656,.F.);
#853=ORIENTED_EDGE('',*,*,#666,.T.);
#854=ORIENTED_EDGE('',*,*,#658,.F.);
#855=ORIENTED_EDGE('',*,*,#666,.F.);
#856=ORIENTED_EDGE('',*,*,#657,.T.);
#857=ORIENTED_EDGE('',*,*,#665,.T.);
#858=ORIENTED_EDGE('',*,*,#667,.F.);
#859=ORIENTED_EDGE('',*,*,#644,.F.);
#860=ORIENTED_EDGE('',*,*,#641,.T.);
#861=ORIENTED_EDGE('',*,*,#645,.T.);
#862=ORIENTED_EDGE('',*,*,#667,.T.);
#863=ORIENTED_EDGE('',*,*,#664,.T.);
#864=ORIENTED_EDGE('',*,*,#662,.T.);
#865=ORIENTED_EDGE('',*,*,#563,.F.);
#866=ORIENTED_EDGE('',*,*,#639,.T.);
#867=ORIENTED_EDGE('',*,*,#600,.F.);
#868=ORIENTED_EDGE('',*,*,#668,.F.);
#869=ORIENTED_EDGE('',*,*,#592,.T.);
#870=ORIENTED_EDGE('',*,*,#669,.T.);
#871=ORIENTED_EDGE('',*,*,#621,.T.);
#872=ORIENTED_EDGE('',*,*,#670,.T.);
#873=ORIENTED_EDGE('',*,*,#669,.F.);
#874=ORIENTED_EDGE('',*,*,#591,.F.);
#875=ORIENTED_EDGE('',*,*,#671,.F.);
#876=ORIENTED_EDGE('',*,*,#622,.F.);
#877=ORIENTED_EDGE('',*,*,#590,.T.);
#878=ORIENTED_EDGE('',*,*,#672,.T.);
#879=ORIENTED_EDGE('',*,*,#623,.T.);
#880=ORIENTED_EDGE('',*,*,#671,.T.);
#881=ORIENTED_EDGE('',*,*,#672,.F.);
#882=ORIENTED_EDGE('',*,*,#589,.F.);
#883=ORIENTED_EDGE('',*,*,#673,.F.);
#884=ORIENTED_EDGE('',*,*,#624,.F.);
#885=ORIENTED_EDGE('',*,*,#588,.T.);
#886=ORIENTED_EDGE('',*,*,#674,.T.);
#887=ORIENTED_EDGE('',*,*,#625,.T.);
#888=ORIENTED_EDGE('',*,*,#673,.T.);
#889=ORIENTED_EDGE('',*,*,#674,.F.);
#890=ORIENTED_EDGE('',*,*,#587,.F.);
#891=ORIENTED_EDGE('',*,*,#675,.F.);
#892=ORIENTED_EDGE('',*,*,#626,.F.);
#893=ORIENTED_EDGE('',*,*,#586,.T.);
#894=ORIENTED_EDGE('',*,*,#676,.T.);
#895=ORIENTED_EDGE('',*,*,#627,.T.);
#896=ORIENTED_EDGE('',*,*,#675,.T.);
#897=ORIENTED_EDGE('',*,*,#670,.F.);
#898=ORIENTED_EDGE('',*,*,#620,.F.);
#899=ORIENTED_EDGE('',*,*,#676,.F.);
#900=ORIENTED_EDGE('',*,*,#585,.F.);
#901=ORIENTED_EDGE('',*,*,#596,.T.);
#902=ORIENTED_EDGE('',*,*,#677,.T.);
#903=ORIENTED_EDGE('',*,*,#567,.T.);
#904=ORIENTED_EDGE('',*,*,#678,.T.);
#905=ORIENTED_EDGE('',*,*,#677,.F.);
#906=ORIENTED_EDGE('',*,*,#616,.F.);
#907=ORIENTED_EDGE('',*,*,#679,.F.);
#908=ORIENTED_EDGE('',*,*,#568,.F.);
#909=ORIENTED_EDGE('',*,*,#569,.T.);
#910=ORIENTED_EDGE('',*,*,#679,.T.);
#911=ORIENTED_EDGE('',*,*,#615,.T.);
#912=ORIENTED_EDGE('',*,*,#680,.T.);
#913=ORIENTED_EDGE('',*,*,#680,.F.);
#914=ORIENTED_EDGE('',*,*,#614,.T.);
#915=ORIENTED_EDGE('',*,*,#681,.F.);
#916=ORIENTED_EDGE('',*,*,#570,.F.);
#917=ORIENTED_EDGE('',*,*,#678,.F.);
#918=ORIENTED_EDGE('',*,*,#566,.F.);
#919=ORIENTED_EDGE('',*,*,#682,.F.);
#920=ORIENTED_EDGE('',*,*,#597,.F.);
#921=ORIENTED_EDGE('',*,*,#577,.T.);
#922=ORIENTED_EDGE('',*,*,#683,.T.);
#923=ORIENTED_EDGE('',*,*,#607,.T.);
#924=ORIENTED_EDGE('',*,*,#684,.T.);
#925=ORIENTED_EDGE('',*,*,#683,.F.);
#926=ORIENTED_EDGE('',*,*,#576,.F.);
#927=ORIENTED_EDGE('',*,*,#685,.F.);
#928=ORIENTED_EDGE('',*,*,#608,.F.);
#929=ORIENTED_EDGE('',*,*,#609,.T.);
#930=ORIENTED_EDGE('',*,*,#685,.T.);
#931=ORIENTED_EDGE('',*,*,#575,.T.);
#932=ORIENTED_EDGE('',*,*,#686,.T.);
#933=ORIENTED_EDGE('',*,*,#686,.F.);
#934=ORIENTED_EDGE('',*,*,#574,.F.);
#935=ORIENTED_EDGE('',*,*,#687,.F.);
#936=ORIENTED_EDGE('',*,*,#610,.F.);
#937=ORIENTED_EDGE('',*,*,#684,.F.);
#938=ORIENTED_EDGE('',*,*,#606,.F.);
#939=ORIENTED_EDGE('',*,*,#688,.F.);
#940=ORIENTED_EDGE('',*,*,#578,.F.);
#941=ORIENTED_EDGE('',*,*,#633,.F.);
#942=ORIENTED_EDGE('',*,*,#689,.T.);
#943=ORIENTED_EDGE('',*,*,#593,.F.);
#944=ORIENTED_EDGE('',*,*,#689,.F.);
#945=ORIENTED_EDGE('',*,*,#632,.F.);
#946=ORIENTED_EDGE('',*,*,#690,.T.);
#947=ORIENTED_EDGE('',*,*,#594,.F.);
#948=ORIENTED_EDGE('',*,*,#690,.F.);
#949=ORIENTED_EDGE('',*,*,#631,.F.);
#950=ORIENTED_EDGE('',*,*,#691,.T.);
#951=ORIENTED_EDGE('',*,*,#595,.F.);
#952=ORIENTED_EDGE('',*,*,#691,.F.);
#953=ORIENTED_EDGE('',*,*,#611,.T.);
#954=ORIENTED_EDGE('',*,*,#687,.T.);
#955=ORIENTED_EDGE('',*,*,#573,.T.);
#956=ORIENTED_EDGE('',*,*,#692,.T.);
#957=ORIENTED_EDGE('',*,*,#613,.T.);
#958=ORIENTED_EDGE('',*,*,#693,.T.);
#959=ORIENTED_EDGE('',*,*,#571,.T.);
#960=ORIENTED_EDGE('',*,*,#681,.T.);
#961=ORIENTED_EDGE('',*,*,#692,.F.);
#962=ORIENTED_EDGE('',*,*,#572,.F.);
#963=ORIENTED_EDGE('',*,*,#693,.F.);
#964=ORIENTED_EDGE('',*,*,#612,.F.);
#965=ORIENTED_EDGE('',*,*,#599,.T.);
#966=ORIENTED_EDGE('',*,*,#694,.T.);
#967=ORIENTED_EDGE('',*,*,#564,.T.);
#968=ORIENTED_EDGE('',*,*,#668,.T.);
#969=ORIENTED_EDGE('',*,*,#694,.F.);
#970=ORIENTED_EDGE('',*,*,#598,.T.);
#971=ORIENTED_EDGE('',*,*,#682,.T.);
#972=ORIENTED_EDGE('',*,*,#565,.T.);
#973=ORIENTED_EDGE('',*,*,#603,.T.);
#974=ORIENTED_EDGE('',*,*,#695,.T.);
#975=ORIENTED_EDGE('',*,*,#581,.T.);
#976=ORIENTED_EDGE('',*,*,#696,.T.);
#977=ORIENTED_EDGE('',*,*,#696,.F.);
#978=ORIENTED_EDGE('',*,*,#580,.F.);
#979=ORIENTED_EDGE('',*,*,#697,.F.);
#980=ORIENTED_EDGE('',*,*,#604,.F.);
#981=ORIENTED_EDGE('',*,*,#579,.T.);
#982=ORIENTED_EDGE('',*,*,#688,.T.);
#983=ORIENTED_EDGE('',*,*,#605,.T.);
#984=ORIENTED_EDGE('',*,*,#697,.T.);
#985=ORIENTED_EDGE('',*,*,#630,.F.);
#986=ORIENTED_EDGE('',*,*,#698,.T.);
#987=ORIENTED_EDGE('',*,*,#661,.F.);
#988=ORIENTED_EDGE('',*,*,#698,.F.);
#989=ORIENTED_EDGE('',*,*,#699,.F.);
#990=ORIENTED_EDGE('',*,*,#700,.T.);
#991=ORIENTED_EDGE('',*,*,#701,.F.);
#992=ORIENTED_EDGE('',*,*,#702,.T.);
#993=ORIENTED_EDGE('',*,*,#660,.F.);
#994=ORIENTED_EDGE('',*,*,#703,.T.);
#995=ORIENTED_EDGE('',*,*,#701,.T.);
#996=ORIENTED_EDGE('',*,*,#703,.F.);
#997=ORIENTED_EDGE('',*,*,#659,.F.);
#998=ORIENTED_EDGE('',*,*,#704,.T.);
#999=ORIENTED_EDGE('',*,*,#699,.T.);
#1000=ORIENTED_EDGE('',*,*,#704,.F.);
#1001=ORIENTED_EDGE('',*,*,#702,.F.);
#1002=ORIENTED_EDGE('',*,*,#705,.T.);
#1003=ORIENTED_EDGE('',*,*,#628,.F.);
#1004=ORIENTED_EDGE('',*,*,#705,.F.);
#1005=ORIENTED_EDGE('',*,*,#700,.F.);
#1006=ORIENTED_EDGE('',*,*,#706,.T.);
#1007=ORIENTED_EDGE('',*,*,#629,.F.);
#1008=ORIENTED_EDGE('',*,*,#706,.F.);
#1009=ORIENTED_EDGE('',*,*,#560,.F.);
#1010=ORIENTED_EDGE('',*,*,#695,.F.);
#1011=ORIENTED_EDGE('',*,*,#602,.F.);
#1012=ORIENTED_EDGE('',*,*,#638,.F.);
#1013=CYLINDRICAL_SURFACE('',#1118,2.75);
#1014=CYLINDRICAL_SURFACE('',#1123,1.5);
#1015=CYLINDRICAL_SURFACE('',#1173,2.75);
#1016=CYLINDRICAL_SURFACE('',#1177,1.5);
#1017=CYLINDRICAL_SURFACE('',#1178,37.7049999999721);
#1018=CYLINDRICAL_SURFACE('',#1182,2.75);
#1019=CYLINDRICAL_SURFACE('',#1186,2.75);
#1020=CYLINDRICAL_SURFACE('',#1190,1.49999999999999);
#1021=CYLINDRICAL_SURFACE('',#1191,1.49999999999999);
#1022=CYLINDRICAL_SURFACE('',#1201,35.55);
#1023=CYLINDRICAL_SURFACE('',#1206,4.);
#1024=CYLINDRICAL_SURFACE('',#1208,4.);
#1025=CYLINDRICAL_SURFACE('',#1210,4.);
#1026=CYLINDRICAL_SURFACE('',#1212,4.);
#1027=CYLINDRICAL_SURFACE('',#1214,4.);
#1028=CYLINDRICAL_SURFACE('',#1216,4.);
#1029=CYLINDRICAL_SURFACE('',#1219,3.);
#1030=CYLINDRICAL_SURFACE('',#1221,3.);
#1031=CYLINDRICAL_SURFACE('',#1224,1.5);
#1032=CYLINDRICAL_SURFACE('',#1225,1.5);
#1033=CYLINDRICAL_SURFACE('',#1226,1.5);
#1034=CYLINDRICAL_SURFACE('',#1227,1.);
#1035=CYLINDRICAL_SURFACE('',#1228,1.);
#1036=CYLINDRICAL_SURFACE('',#1230,2.);
#1037=CYLINDRICAL_SURFACE('',#1231,2.);
#1038=CYLINDRICAL_SURFACE('',#1232,6.);
#1039=CYLINDRICAL_SURFACE('',#1234,6.);
#1040=CYLINDRICAL_SURFACE('',#1235,22.5);
#1041=CYLINDRICAL_SURFACE('',#1242,3.1);
#1042=CYLINDRICAL_SURFACE('',#1243,3.1);
#1043=CYLINDRICAL_SURFACE('',#1244,1.5);
#1044=CYLINDRICAL_SURFACE('',#1245,1.5);
#1045=ADVANCED_FACE('',(#70),#1013,.F.);
#1046=ADVANCED_FACE('',(#71,#15),#43,.T.);
#1047=ADVANCED_FACE('',(#72),#1014,.F.);
#1048=ADVANCED_FACE('',(#73,#16,#17,#18,#19,#20,#21,#22,#23),#44,.F.);
#1049=ADVANCED_FACE('',(#74,#24,#25,#26,#27,#28,#29,#30,#31,#32,#33,#34),
#45,.F.);
#1050=ADVANCED_FACE('',(#75),#1015,.F.);
#1051=ADVANCED_FACE('',(#76,#35),#46,.T.);
#1052=ADVANCED_FACE('',(#77),#1016,.F.);
#1053=ADVANCED_FACE('',(#78),#1017,.T.);
#1054=ADVANCED_FACE('',(#79),#1018,.F.);
#1055=ADVANCED_FACE('',(#80,#36),#47,.T.);
#1056=ADVANCED_FACE('',(#81),#1019,.F.);
#1057=ADVANCED_FACE('',(#82,#37),#48,.T.);
#1058=ADVANCED_FACE('',(#83),#1020,.F.);
#1059=ADVANCED_FACE('',(#84),#1021,.F.);
#1060=ADVANCED_FACE('',(#85),#49,.T.);
#1061=ADVANCED_FACE('',(#86,#38,#39,#40),#50,.F.);
#1062=ADVANCED_FACE('',(#87),#51,.T.);
#1063=ADVANCED_FACE('',(#88),#1022,.F.);
#1064=ADVANCED_FACE('',(#89),#52,.T.);
#1065=ADVANCED_FACE('',(#90),#53,.T.);
#1066=ADVANCED_FACE('',(#91),#54,.T.);
#1067=ADVANCED_FACE('',(#92),#1023,.F.);
#1068=ADVANCED_FACE('',(#93),#55,.F.);
#1069=ADVANCED_FACE('',(#94),#1024,.F.);
#1070=ADVANCED_FACE('',(#95),#56,.F.);
#1071=ADVANCED_FACE('',(#96),#1025,.F.);
#1072=ADVANCED_FACE('',(#97),#57,.F.);
#1073=ADVANCED_FACE('',(#98),#1026,.F.);
#1074=ADVANCED_FACE('',(#99),#58,.F.);
#1075=ADVANCED_FACE('',(#100),#1027,.T.);
#1076=ADVANCED_FACE('',(#101),#59,.F.);
#1077=ADVANCED_FACE('',(#102),#1028,.T.);
#1078=ADVANCED_FACE('',(#103),#60,.F.);
#1079=ADVANCED_FACE('',(#104),#61,.F.);
#1080=ADVANCED_FACE('',(#105),#1029,.T.);
#1081=ADVANCED_FACE('',(#106),#62,.T.);
#1082=ADVANCED_FACE('',(#107),#1030,.T.);
#1083=ADVANCED_FACE('',(#108),#63,.F.);
#1084=ADVANCED_FACE('',(#109),#64,.F.);
#1085=ADVANCED_FACE('',(#110),#1031,.F.);
#1086=ADVANCED_FACE('',(#111),#1032,.F.);
#1087=ADVANCED_FACE('',(#112),#1033,.F.);
#1088=ADVANCED_FACE('',(#113),#1034,.F.);
#1089=ADVANCED_FACE('',(#114),#1035,.F.);
#1090=ADVANCED_FACE('',(#115),#65,.F.);
#1091=ADVANCED_FACE('',(#116),#1036,.T.);
#1092=ADVANCED_FACE('',(#117),#1037,.F.);
#1093=ADVANCED_FACE('',(#118),#1038,.T.);
#1094=ADVANCED_FACE('',(#119),#66,.F.);
#1095=ADVANCED_FACE('',(#120),#1039,.F.);
#1096=ADVANCED_FACE('',(#121),#1040,.F.);
#1097=ADVANCED_FACE('',(#122,#41),#67,.T.);
#1098=ADVANCED_FACE('',(#123,#42),#68,.T.);
#1099=ADVANCED_FACE('',(#124),#1041,.F.);
#1100=ADVANCED_FACE('',(#125),#1042,.F.);
#1101=ADVANCED_FACE('',(#126),#1043,.F.);
#1102=ADVANCED_FACE('',(#127),#1044,.F.);
#1103=ADVANCED_FACE('',(#128),#69,.T.);
#1104=CLOSED_SHELL('',(#1045,#1046,#1047,#1048,#1049,#1050,#1051,#1052,
#1053,#1054,#1055,#1056,#1057,#1058,#1059,#1060,#1061,#1062,#1063,#1064,
#1065,#1066,#1067,#1068,#1069,#1070,#1071,#1072,#1073,#1074,#1075,#1076,
#1077,#1078,#1079,#1080,#1081,#1082,#1083,#1084,#1085,#1086,#1087,#1088,
#1089,#1090,#1091,#1092,#1093,#1094,#1095,#1096,#1097,#1098,#1099,#1100,
#1101,#1102,#1103));
#1105=DERIVED_UNIT_ELEMENT(#1107,1.);
#1106=DERIVED_UNIT_ELEMENT(#1910,-3.);
#1107=(
MASS_UNIT()
NAMED_UNIT(*)
SI_UNIT(.KILO.,.GRAM.)
);
#1108=DERIVED_UNIT((#1105,#1106));
#1109=MEASURE_REPRESENTATION_ITEM('density measure',
POSITIVE_RATIO_MEASURE(7850.),#1108);
#1110=PROPERTY_DEFINITION_REPRESENTATION(#1115,#1112);
#1111=PROPERTY_DEFINITION_REPRESENTATION(#1116,#1113);
#1112=REPRESENTATION('material name',(#1114),#1907);
#1113=REPRESENTATION('density',(#1109),#1907);
#1114=DESCRIPTIVE_REPRESENTATION_ITEM('\X2\94A2\X0\','\X2\94A2\X0\');
#1115=PROPERTY_DEFINITION('material property','material name',#1917);
#1116=PROPERTY_DEFINITION('material property','density of part',#1917);
#1117=AXIS2_PLACEMENT_3D('',#1590,#1247,#1248);
#1118=AXIS2_PLACEMENT_3D('',#1591,#1249,#1250);
#1119=AXIS2_PLACEMENT_3D('',#1593,#1251,#1252);
#1120=AXIS2_PLACEMENT_3D('',#1596,#1254,#1255);
#1121=AXIS2_PLACEMENT_3D('',#1597,#1256,#1257);
#1122=AXIS2_PLACEMENT_3D('',#1599,#1258,#1259);
#1123=AXIS2_PLACEMENT_3D('',#1600,#1260,#1261);
#1124=AXIS2_PLACEMENT_3D('',#1603,#1263,#1264);
#1125=AXIS2_PLACEMENT_3D('',#1604,#1265,#1266);
#1126=AXIS2_PLACEMENT_3D('',#1609,#1268,#1269);
#1127=AXIS2_PLACEMENT_3D('',#1611,#1270,#1271);
#1128=AXIS2_PLACEMENT_3D('',#1615,#1273,#1274);
#1129=AXIS2_PLACEMENT_3D('',#1617,#1275,#1276);
#1130=AXIS2_PLACEMENT_3D('',#1621,#1278,#1279);
#1131=AXIS2_PLACEMENT_3D('',#1625,#1281,#1282);
#1132=AXIS2_PLACEMENT_3D('',#1629,#1284,#1285);
#1133=AXIS2_PLACEMENT_3D('',#1633,#1287,#1288);
#1134=AXIS2_PLACEMENT_3D('',#1637,#1290,#1291);
#1135=AXIS2_PLACEMENT_3D('',#1641,#1293,#1294);
#1136=AXIS2_PLACEMENT_3D('',#1645,#1296,#1297);
#1137=AXIS2_PLACEMENT_3D('',#1648,#1299,#1300);
#1138=AXIS2_PLACEMENT_3D('',#1650,#1301,#1302);
#1139=AXIS2_PLACEMENT_3D('',#1652,#1303,#1304);
#1140=AXIS2_PLACEMENT_3D('',#1654,#1305,#1306);
#1141=AXIS2_PLACEMENT_3D('',#1659,#1308,#1309);
#1142=AXIS2_PLACEMENT_3D('',#1663,#1311,#1312);
#1143=AXIS2_PLACEMENT_3D('',#1667,#1314,#1315);
#1144=AXIS2_PLACEMENT_3D('',#1670,#1317,#1318);
#1145=AXIS2_PLACEMENT_3D('',#1672,#1319,#1320);
#1146=AXIS2_PLACEMENT_3D('',#1674,#1321,#1322);
#1147=AXIS2_PLACEMENT_3D('',#1676,#1323,#1324);
#1148=AXIS2_PLACEMENT_3D('',#1677,#1325,#1326);
#1149=AXIS2_PLACEMENT_3D('',#1680,#1327,#1328);
#1150=AXIS2_PLACEMENT_3D('',#1684,#1330,#1331);
#1151=AXIS2_PLACEMENT_3D('',#1686,#1332,#1333);
#1152=AXIS2_PLACEMENT_3D('',#1690,#1335,#1336);
#1153=AXIS2_PLACEMENT_3D('',#1694,#1338,#1339);
#1154=AXIS2_PLACEMENT_3D('',#1698,#1341,#1342);
#1155=AXIS2_PLACEMENT_3D('',#1702,#1344,#1345);
#1156=AXIS2_PLACEMENT_3D('',#1706,#1347,#1348);
#1157=AXIS2_PLACEMENT_3D('',#1710,#1350,#1351);
#1158=AXIS2_PLACEMENT_3D('',#1714,#1353,#1354);
#1159=AXIS2_PLACEMENT_3D('',#1718,#1356,#1357);
#1160=AXIS2_PLACEMENT_3D('',#1721,#1359,#1360);
#1161=AXIS2_PLACEMENT_3D('',#1723,#1361,#1362);
#1162=AXIS2_PLACEMENT_3D('',#1725,#1363,#1364);
#1163=AXIS2_PLACEMENT_3D('',#1730,#1366,#1367);
#1164=AXIS2_PLACEMENT_3D('',#1734,#1369,#1370);
#1165=AXIS2_PLACEMENT_3D('',#1738,#1372,#1373);
#1166=AXIS2_PLACEMENT_3D('',#1741,#1375,#1376);
#1167=AXIS2_PLACEMENT_3D('',#1743,#1377,#1378);
#1168=AXIS2_PLACEMENT_3D('',#1745,#1379,#1380);
#1169=AXIS2_PLACEMENT_3D('',#1747,#1381,#1382);
#1170=AXIS2_PLACEMENT_3D('',#1749,#1383,#1384);
#1171=AXIS2_PLACEMENT_3D('',#1751,#1385,#1386);
#1172=AXIS2_PLACEMENT_3D('',#1753,#1387,#1388);
#1173=AXIS2_PLACEMENT_3D('',#1754,#1389,#1390);
#1174=AXIS2_PLACEMENT_3D('',#1757,#1392,#1393);
#1175=AXIS2_PLACEMENT_3D('',#1758,#1394,#1395);
#1176=AXIS2_PLACEMENT_3D('',#1760,#1396,#1397);
#1177=AXIS2_PLACEMENT_3D('',#1761,#1398,#1399);
#1178=AXIS2_PLACEMENT_3D('',#1763,#1401,#1402);
#1179=AXIS2_PLACEMENT_3D('',#1769,#1406,#1407);
#1180=AXIS2_PLACEMENT_3D('',#1773,#1409,#1410);
#1181=AXIS2_PLACEMENT_3D('',#1776,#1412,#1413);
#1182=AXIS2_PLACEMENT_3D('',#1777,#1414,#1415);
#1183=AXIS2_PLACEMENT_3D('',#1780,#1417,#1418);
#1184=AXIS2_PLACEMENT_3D('',#1781,#1419,#1420);
#1185=AXIS2_PLACEMENT_3D('',#1783,#1421,#1422);
#1186=AXIS2_PLACEMENT_3D('',#1784,#1423,#1424);
#1187=AXIS2_PLACEMENT_3D('',#1787,#1426,#1427);
#1188=AXIS2_PLACEMENT_3D('',#1788,#1428,#1429);
#1189=AXIS2_PLACEMENT_3D('',#1790,#1430,#1431);
#1190=AXIS2_PLACEMENT_3D('',#1791,#1432,#1433);
#1191=AXIS2_PLACEMENT_3D('',#1793,#1435,#1436);
#1192=AXIS2_PLACEMENT_3D('',#1795,#1438,#1439);
#1193=AXIS2_PLACEMENT_3D('',#1799,#1441,#1442);
#1194=AXIS2_PLACEMENT_3D('',#1801,#1443,#1444);
#1195=AXIS2_PLACEMENT_3D('',#1803,#1446,#1447);
#1196=AXIS2_PLACEMENT_3D('',#1805,#1448,#1449);
#1197=AXIS2_PLACEMENT_3D('',#1807,#1450,#1451);
#1198=AXIS2_PLACEMENT_3D('',#1809,#1452,#1453);
#1199=AXIS2_PLACEMENT_3D('',#1811,#1454,#1455);
#1200=AXIS2_PLACEMENT_3D('',#1812,#1456,#1457);
#1201=AXIS2_PLACEMENT_3D('',#1816,#1460,#1461);
#1202=AXIS2_PLACEMENT_3D('',#1818,#1462,#1463);
#1203=AXIS2_PLACEMENT_3D('',#1821,#1466,#1467);
#1204=AXIS2_PLACEMENT_3D('',#1823,#1469,#1470);
#1205=AXIS2_PLACEMENT_3D('',#1824,#1471,#1472);
#1206=AXIS2_PLACEMENT_3D('',#1826,#1474,#1475);
#1207=AXIS2_PLACEMENT_3D('',#1829,#1478,#1479);
#1208=AXIS2_PLACEMENT_3D('',#1831,#1481,#1482);
#1209=AXIS2_PLACEMENT_3D('',#1833,#1484,#1485);
#1210=AXIS2_PLACEMENT_3D('',#1835,#1487,#1488);
#1211=AXIS2_PLACEMENT_3D('',#1837,#1490,#1491);
#1212=AXIS2_PLACEMENT_3D('',#1839,#1493,#1494);
#1213=AXIS2_PLACEMENT_3D('',#1841,#1496,#1497);
#1214=AXIS2_PLACEMENT_3D('',#1842,#1498,#1499);
#1215=AXIS2_PLACEMENT_3D('',#1845,#1502,#1503);
#1216=AXIS2_PLACEMENT_3D('',#1847,#1505,#1506);
#1217=AXIS2_PLACEMENT_3D('',#1849,#1508,#1509);
#1218=AXIS2_PLACEMENT_3D('',#1851,#1511,#1512);
#1219=AXIS2_PLACEMENT_3D('',#1853,#1514,#1515);
#1220=AXIS2_PLACEMENT_3D('',#1856,#1518,#1519);
#1221=AXIS2_PLACEMENT_3D('',#1858,#1521,#1522);
#1222=AXIS2_PLACEMENT_3D('',#1860,#1524,#1525);
#1223=AXIS2_PLACEMENT_3D('',#1862,#1527,#1528);
#1224=AXIS2_PLACEMENT_3D('',#1864,#1530,#1531);
#1225=AXIS2_PLACEMENT_3D('',#1866,#1533,#1534);
#1226=AXIS2_PLACEMENT_3D('',#1868,#1536,#1537);
#1227=AXIS2_PLACEMENT_3D('',#1870,#1539,#1540);
#1228=AXIS2_PLACEMENT_3D('',#1872,#1542,#1543);
#1229=AXIS2_PLACEMENT_3D('',#1874,#1545,#1546);
#1230=AXIS2_PLACEMENT_3D('',#1875,#1547,#1548);
#1231=AXIS2_PLACEMENT_3D('',#1877,#1550,#1551);
#1232=AXIS2_PLACEMENT_3D('',#1878,#1552,#1553);
#1233=AXIS2_PLACEMENT_3D('',#1881,#1556,#1557);
#1234=AXIS2_PLACEMENT_3D('',#1883,#1559,#1560);
#1235=AXIS2_PLACEMENT_3D('',#1884,#1561,#1562);
#1236=AXIS2_PLACEMENT_3D('',#1886,#1564,#1565);
#1237=AXIS2_PLACEMENT_3D('',#1888,#1566,#1567);
#1238=AXIS2_PLACEMENT_3D('',#1890,#1568,#1569);
#1239=AXIS2_PLACEMENT_3D('',#1891,#1570,#1571);
#1240=AXIS2_PLACEMENT_3D('',#1893,#1572,#1573);
#1241=AXIS2_PLACEMENT_3D('',#1895,#1574,#1575);
#1242=AXIS2_PLACEMENT_3D('',#1896,#1576,#1577);
#1243=AXIS2_PLACEMENT_3D('',#1898,#1579,#1580);
#1244=AXIS2_PLACEMENT_3D('',#1900,#1582,#1583);
#1245=AXIS2_PLACEMENT_3D('',#1902,#1585,#1586);
#1246=AXIS2_PLACEMENT_3D('',#1904,#1588,#1589);
#1247=DIRECTION('axis',(0.,0.,1.));
#1248=DIRECTION('refdir',(1.,0.,0.));
#1249=DIRECTION('center_axis',(0.,0.,1.));
#1250=DIRECTION('ref_axis',(1.,0.,0.));
#1251=DIRECTION('center_axis',(0.,0.,1.));
#1252=DIRECTION('ref_axis',(1.,0.,0.));
#1253=DIRECTION('',(0.,0.,1.));
#1254=DIRECTION('center_axis',(0.,0.,1.));
#1255=DIRECTION('ref_axis',(1.,0.,0.));
#1256=DIRECTION('center_axis',(0.,0.,-1.));
#1257=DIRECTION('ref_axis',(1.,0.,0.));
#1258=DIRECTION('center_axis',(0.,0.,-1.));
#1259=DIRECTION('ref_axis',(1.,0.,0.));
#1260=DIRECTION('center_axis',(0.,0.,1.));
#1261=DIRECTION('ref_axis',(1.,0.,0.));
#1262=DIRECTION('',(0.,0.,1.));
#1263=DIRECTION('center_axis',(9.92065536141244E-75,0.,-1.));
#1264=DIRECTION('ref_axis',(1.,0.,0.));
#1265=DIRECTION('center_axis',(9.92065536141244E-75,0.,-1.));
#1266=DIRECTION('ref_axis',(1.,5.21017715756853E-76,9.92065536141244E-75));
#1267=DIRECTION('',(1.,-6.60614533136093E-15,9.92065536141245E-75));
#1268=DIRECTION('center_axis',(9.92065536141244E-75,0.,-1.));
#1269=DIRECTION('ref_axis',(1.,5.21017715756853E-76,0.));
#1270=DIRECTION('center_axis',(9.92065536141244E-75,0.,-1.));
#1271=DIRECTION('ref_axis',(1.,5.21017715756853E-76,0.));
#1272=DIRECTION('',(-1.,1.13625699699408E-14,-1.70635272216293E-74));
#1273=DIRECTION('center_axis',(9.92065536141244E-75,0.,-1.));
#1274=DIRECTION('ref_axis',(-1.11022302462516E-14,-1.,0.));
#1275=DIRECTION('center_axis',(-9.92065536141244E-75,0.,1.));
#1276=DIRECTION('ref_axis',(0.70710678118651,-0.707106781186585,0.));
#1277=DIRECTION('',(-1.,9.24468442915346E-14,-9.92065536141244E-75));
#1278=DIRECTION('center_axis',(9.92065536141244E-75,0.,-1.));
#1279=DIRECTION('ref_axis',(-0.707106781186515,0.70710678118658,0.));
#1280=DIRECTION('',(0.,1.,0.));
#1281=DIRECTION('center_axis',(9.92065536141244E-75,0.,-1.));
#1282=DIRECTION('ref_axis',(-0.707106781186548,-0.707106781186547,0.));
#1283=DIRECTION('',(1.,0.,9.92065536141244E-75));
#1284=DIRECTION('center_axis',(-9.92065536141244E-75,0.,1.));
#1285=DIRECTION('ref_axis',(0.707106781186545,0.70710678118655,0.));
#1286=DIRECTION('',(0.,-1.,0.));
#1287=DIRECTION('center_axis',(-9.92065536141244E-75,0.,1.));
#1288=DIRECTION('ref_axis',(0.707106781186548,-0.707106781186547,0.));
#1289=DIRECTION('',(-1.,0.,-9.92065536141244E-75));
#1290=DIRECTION('center_axis',(9.92065536141244E-75,0.,-1.));
#1291=DIRECTION('ref_axis',(-0.707106781186548,0.707106781186547,0.));
#1292=DIRECTION('',(-1.47224907124516E-17,-1.,-1.46056756419828E-91));
#1293=DIRECTION('center_axis',(9.92065536141244E-75,0.,-1.));
#1294=DIRECTION('ref_axis',(-0.707106781186547,-0.707106781186548,0.));
#1295=DIRECTION('',(1.,0.,9.92065536141244E-75));
#1296=DIRECTION('center_axis',(-9.92065536141244E-75,0.,1.));
#1297=DIRECTION('ref_axis',(0.707106781186553,0.707106781186543,0.));
#1298=DIRECTION('',(-1.3095994088569E-14,-1.,-1.29920843967787E-88));
#1299=DIRECTION('center_axis',(9.92065536141244E-75,0.,-1.));
#1300=DIRECTION('ref_axis',(-0.707106781186555,-0.70710678118654,0.));
#1301=DIRECTION('center_axis',(9.92065536141244E-75,0.,-1.));
#1302=DIRECTION('ref_axis',(1.,0.,0.));
#1303=DIRECTION('center_axis',(9.92065536141244E-75,0.,-1.));
#1304=DIRECTION('ref_axis',(1.,0.,0.));
#1305=DIRECTION('center_axis',(9.92065536141244E-75,0.,-1.));
#1306=DIRECTION('ref_axis',(1.,0.,0.));
#1307=DIRECTION('',(3.76019275927325E-15,1.,3.73035764572285E-89));
#1308=DIRECTION('center_axis',(-9.92065536141244E-75,0.,1.));
#1309=DIRECTION('ref_axis',(-0.707106781186551,0.707106781186544,0.));
#1310=DIRECTION('',(1.,1.41262040606089E-14,9.92065536141244E-75));
#1311=DIRECTION('center_axis',(-9.92065536141244E-75,0.,1.));
#1312=DIRECTION('ref_axis',(0.707106781186543,0.707106781186552,0.));
#1313=DIRECTION('',(8.35598390949608E-16,-1.,8.28968365716184E-90));
#1314=DIRECTION('center_axis',(-9.92065536141244E-75,0.,1.));
#1315=DIRECTION('ref_axis',(0.707106781186548,-0.707106781186547,0.));
#1316=DIRECTION('',(-1.,-5.65048162424351E-16,-9.92065536141244E-75));
#1317=DIRECTION('center_axis',(-9.92065536141244E-75,0.,1.));
#1318=DIRECTION('ref_axis',(-0.707106781186549,-0.707106781186546,0.));
#1319=DIRECTION('center_axis',(9.92065536141244E-75,0.,-1.));
#1320=DIRECTION('ref_axis',(1.,0.,0.));
#1321=DIRECTION('center_axis',(9.92065536141244E-75,0.,-1.));
#1322=DIRECTION('ref_axis',(1.,0.,0.));
#1323=DIRECTION('center_axis',(9.92065536141244E-75,0.,-1.));
#1324=DIRECTION('ref_axis',(1.,0.,0.));
#1325=DIRECTION('center_axis',(0.,0.,1.));
#1326=DIRECTION('ref_axis',(-1.,0.,0.));
#1327=DIRECTION('center_axis',(-9.92065536141244E-75,0.,1.));
#1328=DIRECTION('ref_axis',(-0.707106781186515,0.70710678118658,0.));
#1329=DIRECTION('',(1.,-9.24468442915346E-14,9.92065536141244E-75));
#1330=DIRECTION('center_axis',(9.92065536141244E-75,0.,-1.));
#1331=DIRECTION('ref_axis',(0.70710678118651,-0.707106781186585,0.));
#1332=DIRECTION('center_axis',(-9.92065536141244E-75,0.,1.));
#1333=DIRECTION('ref_axis',(-1.11022302462516E-14,-1.,0.));
#1334=DIRECTION('',(1.,-1.13625699699408E-14,1.70635272216293E-74));
#1335=DIRECTION('center_axis',(7.82428623039277E-136,-1.50173132194303E-60,
-1.));
#1336=DIRECTION('ref_axis',(1.,5.21017715756853E-76,0.));
#1337=DIRECTION('',(-1.,6.60614533136093E-15,-9.92065536141245E-75));
#1338=DIRECTION('center_axis',(-9.92065536141244E-75,0.,1.));
#1339=DIRECTION('ref_axis',(-0.707106781186555,-0.70710678118654,0.));
#1340=DIRECTION('',(1.3095994088569E-14,1.,1.29920843967787E-88));
#1341=DIRECTION('center_axis',(9.92065536141244E-75,0.,-1.));
#1342=DIRECTION('ref_axis',(0.707106781186553,0.707106781186543,0.));
#1343=DIRECTION('',(-1.,0.,-9.92065536141244E-75));
#1344=DIRECTION('center_axis',(-9.92065536141244E-75,0.,1.));
#1345=DIRECTION('ref_axis',(-0.707106781186547,-0.707106781186548,0.));
#1346=DIRECTION('',(-1.47224907124516E-17,-1.,-1.46056756419828E-91));
#1347=DIRECTION('center_axis',(-9.92065536141244E-75,0.,1.));
#1348=DIRECTION('ref_axis',(-0.707106781186548,0.707106781186547,0.));
#1349=DIRECTION('',(1.,0.,9.92065536141244E-75));
#1350=DIRECTION('center_axis',(9.92065536141244E-75,0.,-1.));
#1351=DIRECTION('ref_axis',(0.707106781186548,-0.707106781186547,0.));
#1352=DIRECTION('',(0.,1.,0.));
#1353=DIRECTION('center_axis',(9.92065536141244E-75,0.,-1.));
#1354=DIRECTION('ref_axis',(0.707106781186545,0.70710678118655,0.));
#1355=DIRECTION('',(1.,0.,9.92065536141244E-75));
#1356=DIRECTION('center_axis',(-9.92065536141244E-75,0.,1.));
#1357=DIRECTION('ref_axis',(-0.707106781186548,-0.707106781186547,0.));
#1358=DIRECTION('',(0.,1.,0.));
#1359=DIRECTION('center_axis',(-9.92065536141244E-75,0.,1.));
#1360=DIRECTION('ref_axis',(1.,0.,0.));
#1361=DIRECTION('center_axis',(-9.92065536141244E-75,0.,1.));
#1362=DIRECTION('ref_axis',(1.,0.,0.));
#1363=DIRECTION('center_axis',(-9.92065536141244E-75,0.,1.));
#1364=DIRECTION('ref_axis',(1.,0.,0.));
#1365=DIRECTION('',(-3.76019275927325E-15,-1.,-3.73035764572285E-89));
#1366=DIRECTION('center_axis',(9.92065536141244E-75,0.,-1.));
#1367=DIRECTION('ref_axis',(-0.707106781186549,-0.707106781186546,0.));
#1368=DIRECTION('',(1.,5.65048162424351E-16,9.92065536141244E-75));
#1369=DIRECTION('center_axis',(9.92065536141244E-75,0.,-1.));
#1370=DIRECTION('ref_axis',(0.707106781186548,-0.707106781186547,0.));
#1371=DIRECTION('',(-8.35598390949608E-16,1.,-8.28968365716184E-90));
#1372=DIRECTION('center_axis',(9.92065536141244E-75,0.,-1.));
#1373=DIRECTION('ref_axis',(0.707106781186543,0.707106781186552,0.));
#1374=DIRECTION('',(-1.,-1.41262040606089E-14,-9.92065536141244E-75));
#1375=DIRECTION('center_axis',(9.92065536141244E-75,0.,-1.));
#1376=DIRECTION('ref_axis',(-0.707106781186551,0.707106781186544,0.));
#1377=DIRECTION('center_axis',(-9.92065536141244E-75,0.,1.));
#1378=DIRECTION('ref_axis',(1.,5.21017715756853E-76,0.));
#1379=DIRECTION('center_axis',(-9.92065536141244E-75,0.,1.));
#1380=DIRECTION('ref_axis',(1.,5.21017715756853E-76,0.));
#1381=DIRECTION('center_axis',(-9.92065536141244E-75,0.,1.));
#1382=DIRECTION('ref_axis',(1.,0.,0.));
#1383=DIRECTION('center_axis',(-9.92065536141244E-75,0.,1.));
#1384=DIRECTION('ref_axis',(1.,0.,0.));
#1385=DIRECTION('center_axis',(-9.92065536141244E-75,0.,1.));
#1386=DIRECTION('ref_axis',(1.,0.,0.));
#1387=DIRECTION('center_axis',(-9.92065536141244E-75,0.,1.));
#1388=DIRECTION('ref_axis',(1.,0.,0.));
#1389=DIRECTION('center_axis',(0.,0.,1.));
#1390=DIRECTION('ref_axis',(1.,0.,0.));
#1391=DIRECTION('',(0.,0.,1.));
#1392=DIRECTION('center_axis',(0.,0.,1.));
#1393=DIRECTION('ref_axis',(1.,0.,0.));
#1394=DIRECTION('center_axis',(0.,0.,-1.));
#1395=DIRECTION('ref_axis',(1.,0.,0.));
#1396=DIRECTION('center_axis',(0.,0.,-1.));
#1397=DIRECTION('ref_axis',(1.,0.,0.));
#1398=DIRECTION('center_axis',(0.,0.,1.));
#1399=DIRECTION('ref_axis',(1.,0.,0.));
#1400=DIRECTION('',(0.,0.,1.));
#1401=DIRECTION('center_axis',(7.82428623039277E-136,-1.50173132194303E-60,
-1.));
#1402=DIRECTION('ref_axis',(1.,5.21017715756853E-76,0.));
#1403=DIRECTION('',(7.82428623039277E-136,-1.50173132194303E-60,-1.));
#1404=DIRECTION('',(7.82428623039277E-136,-1.50173132194303E-60,-1.));
#1405=DIRECTION('',(-7.82428623039277E-136,1.50173132194303E-60,1.));
#1406=DIRECTION('center_axis',(0.,0.,1.));
#1407=DIRECTION('ref_axis',(-1.,0.,0.));
#1408=DIRECTION('',(0.,0.,1.));
#1409=DIRECTION('center_axis',(0.,0.,1.));
#1410=DIRECTION('ref_axis',(-1.,0.,0.));
#1411=DIRECTION('',(0.,0.,1.));
#1412=DIRECTION('center_axis',(0.,0.,1.));
#1413=DIRECTION('ref_axis',(-1.,0.,0.));
#1414=DIRECTION('center_axis',(0.,0.,1.));
#1415=DIRECTION('ref_axis',(1.,0.,0.));
#1416=DIRECTION('',(0.,0.,1.));
#1417=DIRECTION('center_axis',(0.,0.,1.));
#1418=DIRECTION('ref_axis',(1.,0.,0.));
#1419=DIRECTION('center_axis',(0.,0.,-1.));
#1420=DIRECTION('ref_axis',(1.,0.,0.));
#1421=DIRECTION('center_axis',(0.,0.,-1.));
#1422=DIRECTION('ref_axis',(1.,0.,0.));
#1423=DIRECTION('center_axis',(0.,0.,1.));
#1424=DIRECTION('ref_axis',(1.,0.,0.));
#1425=DIRECTION('',(0.,0.,1.));
#1426=DIRECTION('center_axis',(0.,0.,1.));
#1427=DIRECTION('ref_axis',(1.,0.,0.));
#1428=DIRECTION('center_axis',(0.,0.,-1.));
#1429=DIRECTION('ref_axis',(1.,0.,0.));
#1430=DIRECTION('center_axis',(0.,0.,-1.));
#1431=DIRECTION('ref_axis',(1.,0.,0.));
#1432=DIRECTION('center_axis',(0.,0.,1.));
#1433=DIRECTION('ref_axis',(1.,0.,0.));
#1434=DIRECTION('',(0.,0.,1.));
#1435=DIRECTION('center_axis',(0.,0.,1.));
#1436=DIRECTION('ref_axis',(1.,0.,0.));
#1437=DIRECTION('',(0.,0.,1.));
#1438=DIRECTION('center_axis',(0.,0.,1.));
#1439=DIRECTION('ref_axis',(-1.,0.,0.));
#1440=DIRECTION('',(-0.707106781186548,0.707106781186548,0.));
#1441=DIRECTION('center_axis',(0.,0.,-1.));
#1442=DIRECTION('ref_axis',(-1.,0.,0.));
#1443=DIRECTION('center_axis',(0.,0.,-1.));
#1444=DIRECTION('ref_axis',(-1.,0.,0.));
#1445=DIRECTION('',(0.707106781186548,0.707106781186548,0.));
#1446=DIRECTION('center_axis',(9.92065536141244E-75,0.,-1.));
#1447=DIRECTION('ref_axis',(1.,5.21017715756853E-76,9.92065536141244E-75));
#1448=DIRECTION('center_axis',(-9.92065536141244E-75,0.,1.));
#1449=DIRECTION('ref_axis',(-1.,0.,0.));
#1450=DIRECTION('center_axis',(9.92065536141244E-75,0.,-1.));
#1451=DIRECTION('ref_axis',(1.,5.21017715756853E-76,0.));
#1452=DIRECTION('center_axis',(9.92065536141244E-75,0.,-1.));
#1453=DIRECTION('ref_axis',(1.,5.21017715756853E-76,0.));
#1454=DIRECTION('center_axis',(9.92065536141244E-75,0.,-1.));
#1455=DIRECTION('ref_axis',(1.,0.,0.));
#1456=DIRECTION('center_axis',(0.707106781186548,0.707106781186548,0.));
#1457=DIRECTION('ref_axis',(-0.707106781186548,0.707106781186548,0.));
#1458=DIRECTION('',(-0.707106781186548,0.707106781186548,0.));
#1459=DIRECTION('',(0.,0.,1.));
#1460=DIRECTION('center_axis',(0.,0.,1.));
#1461=DIRECTION('ref_axis',(-1.,0.,0.));
#1462=DIRECTION('center_axis',(0.,0.,-1.));
#1463=DIRECTION('ref_axis',(-1.,0.,0.));
#1464=DIRECTION('',(0.,0.,1.));
#1465=DIRECTION('',(0.,0.,-1.));
#1466=DIRECTION('center_axis',(0.707106781186548,-0.707106781186548,0.));
#1467=DIRECTION('ref_axis',(0.707106781186548,0.707106781186548,0.));
#1468=DIRECTION('',(0.707106781186548,0.707106781186548,0.));
#1469=DIRECTION('center_axis',(0.,0.,1.));
#1470=DIRECTION('ref_axis',(-1.,0.,0.));
#1471=DIRECTION('center_axis',(1.13625699699408E-14,1.,-1.50173132194303E-60));
#1472=DIRECTION('ref_axis',(1.,-1.13625699699408E-14,1.70635272216293E-74));
#1473=DIRECTION('',(0.,0.,-1.));
#1474=DIRECTION('center_axis',(0.,0.,-1.));
#1475=DIRECTION('ref_axis',(-0.707106781186549,-0.707106781186546,0.));
#1476=DIRECTION('',(0.,0.,-1.));
#1477=DIRECTION('',(0.,0.,1.));
#1478=DIRECTION('center_axis',(5.65048162424351E-16,-1.,0.));
#1479=DIRECTION('ref_axis',(-1.,-5.65048162424351E-16,0.));
#1480=DIRECTION('',(0.,0.,1.));
#1481=DIRECTION('center_axis',(0.,0.,-1.));
#1482=DIRECTION('ref_axis',(0.707106781186548,-0.707106781186547,0.));
#1483=DIRECTION('',(0.,0.,-1.));
#1484=DIRECTION('center_axis',(1.,8.35598390949608E-16,0.));
#1485=DIRECTION('ref_axis',(8.35598390949608E-16,-1.,0.));
#1486=DIRECTION('',(0.,0.,1.));
#1487=DIRECTION('center_axis',(0.,0.,-1.));
#1488=DIRECTION('ref_axis',(0.707106781186543,0.707106781186552,0.));
#1489=DIRECTION('',(0.,0.,-1.));
#1490=DIRECTION('center_axis',(-1.41262040606089E-14,1.,0.));
#1491=DIRECTION('ref_axis',(1.,1.41262040606089E-14,0.));
#1492=DIRECTION('',(0.,0.,1.));
#1493=DIRECTION('center_axis',(0.,0.,-1.));
#1494=DIRECTION('ref_axis',(-0.707106781186551,0.707106781186544,0.));
#1495=DIRECTION('',(0.,0.,-1.));
#1496=DIRECTION('center_axis',(-1.,3.76019275927325E-15,0.));
#1497=DIRECTION('ref_axis',(3.76019275927325E-15,1.,0.));
#1498=DIRECTION('center_axis',(0.,0.,-1.));
#1499=DIRECTION('ref_axis',(-0.707106781186515,0.70710678118658,0.));
#1500=DIRECTION('',(0.,0.,1.));
#1501=DIRECTION('',(0.,0.,-1.));
#1502=DIRECTION('center_axis',(1.,0.,0.));
#1503=DIRECTION('ref_axis',(0.,-1.,0.));
#1504=DIRECTION('',(0.,0.,-1.));
#1505=DIRECTION('center_axis',(0.,0.,1.));
#1506=DIRECTION('ref_axis',(-0.707106781186548,-0.707106781186547,0.));
#1507=DIRECTION('',(0.,0.,1.));
#1508=DIRECTION('center_axis',(0.,1.,0.));
#1509=DIRECTION('ref_axis',(-1.,0.,0.));
#1510=DIRECTION('',(0.,0.,-1.));
#1511=DIRECTION('center_axis',(-9.24468442915346E-14,-1.,0.));
#1512=DIRECTION('ref_axis',(-1.,9.24468442915346E-14,0.));
#1513=DIRECTION('',(0.,0.,1.));
#1514=DIRECTION('center_axis',(-2.2109225439904E-77,0.,1.));
#1515=DIRECTION('ref_axis',(-0.707106781186547,-0.707106781186548,0.));
#1516=DIRECTION('',(2.2109225439904E-77,0.,-1.));
#1517=DIRECTION('',(-2.2109225439904E-77,0.,1.));
#1518=DIRECTION('center_axis',(-1.,1.47224907124516E-17,-2.2109225439904E-77));
#1519=DIRECTION('ref_axis',(1.47224907124516E-17,1.,-1.50173132194303E-60));
#1520=DIRECTION('',(-2.2109225439904E-77,0.,1.));
#1521=DIRECTION('center_axis',(2.2109225439904E-77,0.,-1.));
#1522=DIRECTION('ref_axis',(-0.707106781186548,0.707106781186547,0.));
#1523=DIRECTION('',(2.2109225439904E-77,0.,-1.));
#1524=DIRECTION('center_axis',(0.,-1.,0.));
#1525=DIRECTION('ref_axis',(1.,0.,-9.92065536141244E-75));
#1526=DIRECTION('',(0.,0.,1.));
#1527=DIRECTION('center_axis',(0.,1.,0.));
#1528=DIRECTION('ref_axis',(1.,0.,0.));
#1529=DIRECTION('',(0.,0.,-1.));
#1530=DIRECTION('center_axis',(0.,0.,1.));
#1531=DIRECTION('ref_axis',(1.,0.,0.));
#1532=DIRECTION('',(0.,0.,1.));
#1533=DIRECTION('center_axis',(0.,0.,1.));
#1534=DIRECTION('ref_axis',(1.,0.,0.));
#1535=DIRECTION('',(0.,0.,1.));
#1536=DIRECTION('center_axis',(0.,0.,1.));
#1537=DIRECTION('ref_axis',(1.,0.,0.));
#1538=DIRECTION('',(0.,0.,1.));
#1539=DIRECTION('center_axis',(0.,0.,1.));
#1540=DIRECTION('ref_axis',(0.707106781186548,-0.707106781186547,0.));
#1541=DIRECTION('',(0.,0.,-1.));
#1542=DIRECTION('center_axis',(0.,0.,1.));
#1543=DIRECTION('ref_axis',(0.707106781186545,0.70710678118655,0.));
#1544=DIRECTION('',(0.,0.,1.));
#1545=DIRECTION('center_axis',(1.,0.,0.));
#1546=DIRECTION('ref_axis',(0.,1.,0.));
#1547=DIRECTION('center_axis',(0.,0.,1.));
#1548=DIRECTION('ref_axis',(-1.11022302462516E-14,-1.,0.));
#1549=DIRECTION('',(0.,0.,1.));
#1550=DIRECTION('center_axis',(0.,0.,-1.));
#1551=DIRECTION('ref_axis',(0.70710678118651,-0.707106781186585,0.));
#1552=DIRECTION('center_axis',(-1.96666645147848E-74,-1.50173132194303E-60,
-1.));
#1553=DIRECTION('ref_axis',(-0.707106781186555,-0.70710678118654,0.));
#1554=DIRECTION('',(1.96666645147848E-74,1.50173132194303E-60,1.));
#1555=DIRECTION('',(-1.96666645147848E-74,-1.50173132194303E-60,-1.));
#1556=DIRECTION('center_axis',(1.,-1.3095994088569E-14,0.));
#1557=DIRECTION('ref_axis',(-1.3095994088569E-14,-1.,0.));
#1558=DIRECTION('',(0.,0.,1.));
#1559=DIRECTION('center_axis',(0.,0.,-1.));
#1560=DIRECTION('ref_axis',(0.707106781186553,0.707106781186543,0.));
#1561=DIRECTION('center_axis',(0.,0.,1.));
#1562=DIRECTION('ref_axis',(1.,0.,0.));
#1563=DIRECTION('',(0.,0.,1.));
#1564=DIRECTION('center_axis',(0.,0.,1.));
#1565=DIRECTION('ref_axis',(-1.,0.,0.));
#1566=DIRECTION('center_axis',(0.,0.,-1.));
#1567=DIRECTION('ref_axis',(1.,5.21017715756853E-76,0.));
#1568=DIRECTION('center_axis',(0.,0.,-1.));
#1569=DIRECTION('ref_axis',(-1.,0.,0.));
#1570=DIRECTION('center_axis',(0.,0.,1.));
#1571=DIRECTION('ref_axis',(-1.,0.,0.));
#1572=DIRECTION('center_axis',(0.,0.,-1.));
#1573=DIRECTION('ref_axis',(1.,5.21017715756853E-76,0.));
#1574=DIRECTION('center_axis',(0.,0.,-1.));
#1575=DIRECTION('ref_axis',(-1.,0.,0.));
#1576=DIRECTION('center_axis',(7.82428623039277E-136,-1.50173132194303E-60,
-1.));
#1577=DIRECTION('ref_axis',(1.,5.21017715756853E-76,0.));
#1578=DIRECTION('',(7.82428623039277E-136,-1.50173132194303E-60,-1.));
#1579=DIRECTION('center_axis',(7.82428623039277E-136,-1.50173132194303E-60,
-1.));
#1580=DIRECTION('ref_axis',(1.,5.21017715756853E-76,0.));
#1581=DIRECTION('',(7.82428623039277E-136,-1.50173132194303E-60,-1.));
#1582=DIRECTION('center_axis',(7.82428623039277E-136,-1.50173132194303E-60,
-1.));
#1583=DIRECTION('ref_axis',(1.,5.21017715756853E-76,0.));
#1584=DIRECTION('',(7.82428623039277E-136,-1.50173132194303E-60,-1.));
#1585=DIRECTION('center_axis',(7.82428623039277E-136,-1.50173132194303E-60,
-1.));
#1586=DIRECTION('ref_axis',(1.,5.21017715756853E-76,0.));
#1587=DIRECTION('',(7.82428623039277E-136,-1.50173132194303E-60,-1.));
#1588=DIRECTION('center_axis',(-6.60614533136093E-15,-1.,1.50173132194303E-60));
#1589=DIRECTION('ref_axis',(-1.,6.60614533136093E-15,-9.92065536141245E-75));
#1590=CARTESIAN_POINT('',(0.,0.,0.));
#1591=CARTESIAN_POINT('Origin',(39.2311654948817,33.0318424270549,46.8));
#1592=CARTESIAN_POINT('',(36.4811654948817,33.0318424270549,46.8));
#1593=CARTESIAN_POINT('Origin',(39.2311654948817,33.0318424270549,46.8));
#1594=CARTESIAN_POINT('',(36.4811654948817,33.0318424270549,47.8));
#1595=CARTESIAN_POINT('',(36.4811654948817,33.0318424270549,46.8));
#1596=CARTESIAN_POINT('Origin',(39.2311654948817,33.0318424270549,47.8));
#1597=CARTESIAN_POINT('Origin',(39.2311654948817,33.0318424270549,47.8));
#1598=CARTESIAN_POINT('',(37.7311654948817,33.0318424270549,47.8));
#1599=CARTESIAN_POINT('Origin',(39.2311654948817,33.0318424270549,47.8));
#1600=CARTESIAN_POINT('Origin',(39.2311654948817,33.0318424270549,46.8));
#1601=CARTESIAN_POINT('',(37.7311654948817,33.0318424270549,49.8));
#1602=CARTESIAN_POINT('',(37.7311654948817,33.0318424270549,46.8));
#1603=CARTESIAN_POINT('Origin',(39.2311654948817,33.0318424270549,49.8));
#1604=CARTESIAN_POINT('Origin',(62.6764039309598,2.33684242702628,49.8));
#1605=CARTESIAN_POINT('',(13.9311654948816,-35.3681575729453,49.8));
#1606=CARTESIAN_POINT('',(94.2416423670932,-35.3681575729465,49.8));
#1607=CARTESIAN_POINT('',(-6.59383450514566,-35.3681575729452,49.8));
#1608=CARTESIAN_POINT('',(56.536642367121,2.33684242702569,49.8));
#1609=CARTESIAN_POINT('Origin',(94.2416423670932,2.33684242702568,49.8));
#1610=CARTESIAN_POINT('',(94.2416423670932,40.0418424269978,49.8));
#1611=CARTESIAN_POINT('Origin',(94.2416423670932,2.33684242702568,49.8));
#1612=CARTESIAN_POINT('',(13.4552463617639,40.0418424269988,49.8));
#1613=CARTESIAN_POINT('',(94.2416423670936,40.0418424269979,49.8));
#1614=CARTESIAN_POINT('',(11.6807059283062,38.9643424270118,49.8));
#1615=CARTESIAN_POINT('Origin',(13.4552463617639,38.0418424269988,49.8));
#1616=CARTESIAN_POINT('',(9.90616549484836,37.8868424270247,49.8));
#1617=CARTESIAN_POINT('Origin',(9.90616549484855,39.8868424270247,49.8));
#1618=CARTESIAN_POINT('',(5.93816753099989,37.8868424270251,49.8));
#1619=CARTESIAN_POINT('',(37.2912847129058,37.8868424270222,49.8));
#1620=CARTESIAN_POINT('',(1.93816753099952,33.8868424270251,49.8));
#1621=CARTESIAN_POINT('Origin',(5.93816753099953,33.8868424270251,49.8));
#1622=CARTESIAN_POINT('',(1.93816753099952,30.6868424270266,49.8));
#1623=CARTESIAN_POINT('',(1.93816753099952,17.1118424270259,49.8));
#1624=CARTESIAN_POINT('',(5.93816753099953,26.6868424270266,49.8));
#1625=CARTESIAN_POINT('Origin',(5.93816753099953,30.6868424270266,49.8));
#1626=CARTESIAN_POINT('',(9.90616549485434,26.6868424270266,49.8));
#1627=CARTESIAN_POINT('',(36.7912847129071,26.6868424270266,49.8));
#1628=CARTESIAN_POINT('',(10.9061654948543,25.6868424270266,49.8));
#1629=CARTESIAN_POINT('Origin',(9.90616549485434,25.6868424270266,49.8));
#1630=CARTESIAN_POINT('',(10.9061654948543,8.68684242702656,49.8));
#1631=CARTESIAN_POINT('',(10.9061654948543,5.01184242702642,49.8));
#1632=CARTESIAN_POINT('',(9.90616549485434,7.68684242702656,49.8));
#1633=CARTESIAN_POINT('Origin',(9.90616549485434,8.68684242702656,49.8));
#1634=CARTESIAN_POINT('',(-3.09383450514566,7.68684242702656,49.8));
#1635=CARTESIAN_POINT('',(28.0412847129071,7.68684242702656,49.8));
#1636=CARTESIAN_POINT('',(-6.09383450514566,4.68684242702657,49.8));
#1637=CARTESIAN_POINT('Origin',(-3.09383450514566,4.68684242702656,49.8));
#1638=CARTESIAN_POINT('',(-6.09383450514566,-15.9216575729735,49.8));
#1639=CARTESIAN_POINT('',(-6.09383450514566,-16.5156575729594,49.8));
#1640=CARTESIAN_POINT('',(-3.09383450514566,-18.9216575729735,49.8));
#1641=CARTESIAN_POINT('Origin',(-3.09383450514566,-15.9216575729735,49.8));
#1642=CARTESIAN_POINT('',(1.93116549488174,-18.9216575729735,49.8));
#1643=CARTESIAN_POINT('',(28.0412847129071,-18.9216575729735,49.8));
#1644=CARTESIAN_POINT('',(7.93116549488174,-24.9216575729736,49.8));
#1645=CARTESIAN_POINT('Origin',(1.93116549488174,-24.9216575729735,49.8));
#1646=CARTESIAN_POINT('',(7.93116549488168,-29.3681575729452,49.8));
#1647=CARTESIAN_POINT('',(7.93116549488195,-8.29240757297326,49.8));
#1648=CARTESIAN_POINT('Origin',(13.9311654948817,-29.3681575729453,49.8));
#1649=CARTESIAN_POINT('',(14.7311654948817,-28.6681575729451,49.8));
#1650=CARTESIAN_POINT('Origin',(16.2311654948817,-28.6681575729451,49.8));
#1651=CARTESIAN_POINT('',(58.0911654948822,37.0418424269987,49.8));
#1652=CARTESIAN_POINT('Origin',(59.5911654948822,37.0418424269987,49.8));
#1653=CARTESIAN_POINT('',(58.0911654948817,-32.368157572946,49.8));
#1654=CARTESIAN_POINT('Origin',(59.5911654948817,-32.368157572946,49.8));
#1655=CARTESIAN_POINT('',(23.2975333717201,-14.9216575729735,49.8));
#1656=CARTESIAN_POINT('',(23.2975333717202,19.595342427027,49.8));
#1657=CARTESIAN_POINT('',(23.2975333717201,-8.29240757297354,49.8));
#1658=CARTESIAN_POINT('',(27.2975333717202,23.595342427027,49.8));
#1659=CARTESIAN_POINT('Origin',(27.2975333717202,19.595342427027,49.8));
#1660=CARTESIAN_POINT('',(35.016165494854,23.5953424270271,49.8));
#1661=CARTESIAN_POINT('',(42.9869686513399,23.5953424270272,49.8));
#1662=CARTESIAN_POINT('',(39.0161654948541,19.5953424270271,49.8));
#1663=CARTESIAN_POINT('Origin',(35.0161654948541,19.5953424270271,49.8));
#1664=CARTESIAN_POINT('',(39.0161654948541,-14.9216575729735,49.8));
#1665=CARTESIAN_POINT('',(39.0161654948541,12.9660924270267,49.8));
#1666=CARTESIAN_POINT('',(35.0161654948541,-18.9216575729735,49.8));
#1667=CARTESIAN_POINT('Origin',(35.0161654948541,-14.9216575729735,49.8));
#1668=CARTESIAN_POINT('',(27.2975333717201,-18.9216575729735,49.8));
#1669=CARTESIAN_POINT('',(50.846284712907,-18.9216575729735,49.8));
#1670=CARTESIAN_POINT('Origin',(27.2975333717201,-14.9216575729735,49.8));
#1671=CARTESIAN_POINT('',(4.43933363637331,32.2868424270254,49.8));
#1672=CARTESIAN_POINT('Origin',(5.93933363637331,32.2868424270254,49.8));
#1673=CARTESIAN_POINT('',(0.656082747421671,1.03471742702742,49.8));
#1674=CARTESIAN_POINT('Origin',(2.15608274742167,1.03471742702742,49.8));
#1675=CARTESIAN_POINT('',(0.656082747421671,-12.2695325729706,49.8));
#1676=CARTESIAN_POINT('Origin',(2.15608274742167,-12.2695325729706,49.8));
#1677=CARTESIAN_POINT('Origin',(39.2311654948817,31.5318424270549,46.8));
#1678=CARTESIAN_POINT('',(5.93816753099989,37.8868424270251,46.8));
#1679=CARTESIAN_POINT('',(1.93816753099952,33.8868424270251,46.8));
#1680=CARTESIAN_POINT('Origin',(5.93816753099953,33.8868424270251,46.8));
#1681=CARTESIAN_POINT('',(9.90616549484836,37.8868424270247,46.8));
#1682=CARTESIAN_POINT('',(37.2912847129058,37.8868424270222,46.8));
#1683=CARTESIAN_POINT('',(11.6807059283062,38.9643424270118,46.8));
#1684=CARTESIAN_POINT('Origin',(9.90616549484855,39.8868424270247,46.8));
#1685=CARTESIAN_POINT('',(13.4552463617639,40.0418424269988,46.8));
#1686=CARTESIAN_POINT('Origin',(13.4552463617639,38.0418424269988,46.8));
#1687=CARTESIAN_POINT('',(94.2416423670932,40.0418424269978,46.8));
#1688=CARTESIAN_POINT('',(94.2416423670936,40.0418424269979,46.8));
#1689=CARTESIAN_POINT('',(94.2416423670932,-35.3681575729465,46.8));
#1690=CARTESIAN_POINT('Origin',(94.2416423670932,2.33684242702568,46.8));
#1691=CARTESIAN_POINT('',(13.9311654948816,-35.3681575729453,46.8));
#1692=CARTESIAN_POINT('',(-6.59383450514566,-35.3681575729452,46.8));
#1693=CARTESIAN_POINT('',(7.93116549488168,-29.3681575729452,46.8));
#1694=CARTESIAN_POINT('Origin',(13.9311654948817,-29.3681575729453,46.8));
#1695=CARTESIAN_POINT('',(7.93116549488174,-24.9216575729736,46.8));
#1696=CARTESIAN_POINT('',(7.93116549488195,-8.29240757297326,46.8));
#1697=CARTESIAN_POINT('',(1.93116549488174,-18.9216575729735,46.8));
#1698=CARTESIAN_POINT('Origin',(1.93116549488174,-24.9216575729735,46.8));
#1699=CARTESIAN_POINT('',(-3.09383450514566,-18.9216575729735,46.8));
#1700=CARTESIAN_POINT('',(28.0412847129071,-18.9216575729735,46.8));
#1701=CARTESIAN_POINT('',(-6.09383450514566,-15.9216575729735,46.8));
#1702=CARTESIAN_POINT('Origin',(-3.09383450514566,-15.9216575729735,46.8));
#1703=CARTESIAN_POINT('',(-6.09383450514566,4.68684242702657,46.8));
#1704=CARTESIAN_POINT('',(-6.09383450514566,-16.5156575729594,46.8));
#1705=CARTESIAN_POINT('',(-3.09383450514566,7.68684242702656,46.8));
#1706=CARTESIAN_POINT('Origin',(-3.09383450514566,4.68684242702656,46.8));
#1707=CARTESIAN_POINT('',(9.90616549485434,7.68684242702656,46.8));
#1708=CARTESIAN_POINT('',(28.0412847129071,7.68684242702656,46.8));
#1709=CARTESIAN_POINT('',(10.9061654948543,8.68684242702656,46.8));
#1710=CARTESIAN_POINT('Origin',(9.90616549485434,8.68684242702656,46.8));
#1711=CARTESIAN_POINT('',(10.9061654948543,25.6868424270266,46.8));
#1712=CARTESIAN_POINT('',(10.9061654948543,5.01184242702642,46.8));
#1713=CARTESIAN_POINT('',(9.90616549485434,26.6868424270266,46.8));
#1714=CARTESIAN_POINT('Origin',(9.90616549485434,25.6868424270266,46.8));
#1715=CARTESIAN_POINT('',(5.93816753099953,26.6868424270266,46.8));
#1716=CARTESIAN_POINT('',(3.18816753099953,26.6868424270266,46.8));
#1717=CARTESIAN_POINT('',(1.93816753099952,30.6868424270266,46.8));
#1718=CARTESIAN_POINT('Origin',(5.93816753099953,30.6868424270266,46.8));
#1719=CARTESIAN_POINT('',(1.93816753099952,17.1118424270259,46.8));
#1720=CARTESIAN_POINT('',(13.4811654948817,-28.6681575729451,46.8));
#1721=CARTESIAN_POINT('Origin',(16.2311654948817,-28.6681575729451,46.8));
#1722=CARTESIAN_POINT('',(56.8411654948817,-32.368157572946,46.8));
#1723=CARTESIAN_POINT('Origin',(59.5911654948817,-32.368157572946,46.8));
#1724=CARTESIAN_POINT('',(56.8411654948822,37.0418424269987,46.8));
#1725=CARTESIAN_POINT('Origin',(59.5911654948822,37.0418424269987,46.8));
#1726=CARTESIAN_POINT('',(23.2975333717202,19.595342427027,46.8));
#1727=CARTESIAN_POINT('',(23.2975333717201,-14.9216575729735,46.8));
#1728=CARTESIAN_POINT('',(23.2975333717201,-8.29240757297354,46.8));
#1729=CARTESIAN_POINT('',(27.2975333717201,-18.9216575729735,46.8));
#1730=CARTESIAN_POINT('Origin',(27.2975333717201,-14.9216575729735,46.8));
#1731=CARTESIAN_POINT('',(35.0161654948541,-18.9216575729735,46.8));
#1732=CARTESIAN_POINT('',(50.846284712907,-18.9216575729735,46.8));
#1733=CARTESIAN_POINT('',(39.0161654948541,-14.9216575729735,46.8));
#1734=CARTESIAN_POINT('Origin',(35.0161654948541,-14.9216575729735,46.8));
#1735=CARTESIAN_POINT('',(39.0161654948541,19.5953424270271,46.8));
#1736=CARTESIAN_POINT('',(39.0161654948541,12.9660924270267,46.8));
#1737=CARTESIAN_POINT('',(35.016165494854,23.5953424270271,46.8));
#1738=CARTESIAN_POINT('Origin',(35.0161654948541,19.5953424270271,46.8));
#1739=CARTESIAN_POINT('',(27.2975333717202,23.595342427027,46.8));
#1740=CARTESIAN_POINT('',(42.9869686513399,23.5953424270272,46.8));
#1741=CARTESIAN_POINT('Origin',(27.2975333717202,19.595342427027,46.8));
#1742=CARTESIAN_POINT('',(67.806165549374,10.078342427068,46.8));
#1743=CARTESIAN_POINT('Origin',(69.306165549374,10.078342427068,46.8));
#1744=CARTESIAN_POINT('',(67.8061655493742,-5.92165757293117,46.8));
#1745=CARTESIAN_POINT('Origin',(69.3061655493742,-5.92165757293117,46.8));
#1746=CARTESIAN_POINT('',(76.1682015314134,2.33684242702569,46.8));
#1747=CARTESIAN_POINT('Origin',(98.6682015314134,2.33684242702568,46.8));
#1748=CARTESIAN_POINT('',(0.656082747421671,-12.2695325729706,46.8));
#1749=CARTESIAN_POINT('Origin',(2.15608274742167,-12.2695325729706,46.8));
#1750=CARTESIAN_POINT('',(0.656082747421671,1.03471742702742,46.8));
#1751=CARTESIAN_POINT('Origin',(2.15608274742167,1.03471742702742,46.8));
#1752=CARTESIAN_POINT('',(4.43933363637331,32.2868424270254,46.8));
#1753=CARTESIAN_POINT('Origin',(5.93933363637331,32.2868424270254,46.8));
#1754=CARTESIAN_POINT('Origin',(16.2311654948817,-28.6681575729451,46.8));
#1755=CARTESIAN_POINT('',(13.4811654948817,-28.6681575729451,47.8));
#1756=CARTESIAN_POINT('',(13.4811654948817,-28.6681575729451,46.8));
#1757=CARTESIAN_POINT('Origin',(16.2311654948817,-28.6681575729451,47.8));
#1758=CARTESIAN_POINT('Origin',(16.2311654948817,-28.6681575729451,47.8));
#1759=CARTESIAN_POINT('',(14.7311654948817,-28.6681575729451,47.8));
#1760=CARTESIAN_POINT('Origin',(16.2311654948817,-28.6681575729451,47.8));
#1761=CARTESIAN_POINT('Origin',(16.2311654948817,-28.6681575729451,46.8));
#1762=CARTESIAN_POINT('',(14.7311654948817,-28.6681575729451,46.8));
#1763=CARTESIAN_POINT('Origin',(94.2416423670932,2.33684242702568,49.8));
#1764=CARTESIAN_POINT('',(94.2416423670932,-35.3681575729465,49.8));
#1765=CARTESIAN_POINT('',(94.2416423670932,40.0418424269978,49.8));
#1766=CARTESIAN_POINT('',(56.536642367121,2.33684242702569,60.498));
#1767=CARTESIAN_POINT('',(56.536642367121,2.33684242702569,49.8));
#1768=CARTESIAN_POINT('',(67.5801811824741,28.9983036116448,60.498));
#1769=CARTESIAN_POINT('Origin',(94.2416423670932,2.33684242702568,60.498));
#1770=CARTESIAN_POINT('',(67.5801811824741,28.9983036116448,56.498));
#1771=CARTESIAN_POINT('',(67.5801811824741,28.9983036116448,51.498));
#1772=CARTESIAN_POINT('',(67.5801811824741,-24.3246187575934,56.498));
#1773=CARTESIAN_POINT('Origin',(94.2416423670932,2.33684242702568,56.498));
#1774=CARTESIAN_POINT('',(67.5801811824741,-24.3246187575934,60.498));
#1775=CARTESIAN_POINT('',(67.5801811824741,-24.3246187575934,51.498));
#1776=CARTESIAN_POINT('Origin',(94.2416423670932,2.33684242702568,60.498));
#1777=CARTESIAN_POINT('Origin',(59.5911654948817,-32.368157572946,46.8));
#1778=CARTESIAN_POINT('',(56.8411654948817,-32.368157572946,47.8));
#1779=CARTESIAN_POINT('',(56.8411654948817,-32.368157572946,46.8));
#1780=CARTESIAN_POINT('Origin',(59.5911654948817,-32.368157572946,47.8));
#1781=CARTESIAN_POINT('Origin',(59.5911654948817,-32.368157572946,47.8));
#1782=CARTESIAN_POINT('',(58.0911654948817,-32.368157572946,47.8));
#1783=CARTESIAN_POINT('Origin',(59.5911654948817,-32.368157572946,47.8));
#1784=CARTESIAN_POINT('Origin',(59.5911654948822,37.0418424269987,46.8));
#1785=CARTESIAN_POINT('',(56.8411654948822,37.0418424269987,47.8));
#1786=CARTESIAN_POINT('',(56.8411654948822,37.0418424269987,46.8));
#1787=CARTESIAN_POINT('Origin',(59.5911654948822,37.0418424269987,47.8));
#1788=CARTESIAN_POINT('Origin',(59.5911654948822,37.0418424269987,47.8));
#1789=CARTESIAN_POINT('',(58.0911654948822,37.0418424269987,47.8));
#1790=CARTESIAN_POINT('Origin',(59.5911654948822,37.0418424269987,47.8));
#1791=CARTESIAN_POINT('Origin',(59.5911654948817,-32.368157572946,46.8));
#1792=CARTESIAN_POINT('',(58.0911654948817,-32.368157572946,46.8));
#1793=CARTESIAN_POINT('Origin',(59.5911654948822,37.0418424269987,46.8));
#1794=CARTESIAN_POINT('',(58.0911654948822,37.0418424269987,46.8));
#1795=CARTESIAN_POINT('Origin',(99.7634117747697,2.33684242702568,56.498));
#1796=CARTESIAN_POINT('',(69.1039962959114,27.4744884982074,56.498));
#1797=CARTESIAN_POINT('',(83.0532616834215,13.5252231106974,56.498));
#1798=CARTESIAN_POINT('',(129.791642367093,2.33684242702569,56.498));
#1799=CARTESIAN_POINT('Origin',(94.2416423670932,2.33684242702568,56.498));
#1800=CARTESIAN_POINT('',(69.1039962959114,-22.8008036441561,56.498));
#1801=CARTESIAN_POINT('Origin',(94.2416423670932,2.33684242702568,56.498));
#1802=CARTESIAN_POINT('',(82.2913541267028,-9.61344581336472,56.498));
#1803=CARTESIAN_POINT('Origin',(62.6764039309598,2.33684242702628,51.498));
#1804=CARTESIAN_POINT('',(129.791642367093,2.33684242702569,51.498));
#1805=CARTESIAN_POINT('Origin',(94.2416423670932,2.33684242702568,51.498));
#1806=CARTESIAN_POINT('',(66.2061655493741,-5.92165757293117,51.498));
#1807=CARTESIAN_POINT('Origin',(69.3061655493742,-5.92165757293117,51.498));
#1808=CARTESIAN_POINT('',(66.206165549374,10.078342427068,51.498));
#1809=CARTESIAN_POINT('Origin',(69.306165549374,10.078342427068,51.498));
#1810=CARTESIAN_POINT('',(76.1682015314134,2.33684242702569,51.498));
#1811=CARTESIAN_POINT('Origin',(98.6682015314134,2.33684242702568,51.498));
#1812=CARTESIAN_POINT('Origin',(69.1039962959114,27.4744884982075,51.498));
#1813=CARTESIAN_POINT('',(69.1039962959114,27.4744884982074,60.498));
#1814=CARTESIAN_POINT('',(94.2416423670932,2.33684242702568,60.498));
#1815=CARTESIAN_POINT('',(69.1039962959114,27.4744884982074,51.498));
#1816=CARTESIAN_POINT('Origin',(94.2416423670932,2.33684242702568,51.498));
#1817=CARTESIAN_POINT('',(69.1039962959114,-22.8008036441561,60.498));
#1818=CARTESIAN_POINT('Origin',(94.2416423670932,2.33684242702568,60.498));
#1819=CARTESIAN_POINT('',(69.1039962959114,-22.8008036441561,51.498));
#1820=CARTESIAN_POINT('',(129.791642367093,2.33684242702569,51.498));
#1821=CARTESIAN_POINT('Origin',(67.5801811824741,-24.3246187575934,51.498));
#1822=CARTESIAN_POINT('',(94.2416423670932,2.33684242702568,60.498));
#1823=CARTESIAN_POINT('Origin',(62.8203193315162,2.33684242702568,60.498));
#1824=CARTESIAN_POINT('Origin',(-6.59383450514566,40.041842426999,49.8));
#1825=CARTESIAN_POINT('',(13.4552463617639,40.0418424269988,49.8));
#1826=CARTESIAN_POINT('Origin',(27.2975333717201,-14.9216575729735,49.8));
#1827=CARTESIAN_POINT('',(27.2975333717201,-18.9216575729735,49.8));
#1828=CARTESIAN_POINT('',(23.2975333717201,-14.9216575729735,49.8));
#1829=CARTESIAN_POINT('Origin',(39.0161654948541,-18.9216575729735,49.8));
#1830=CARTESIAN_POINT('',(35.0161654948541,-18.9216575729735,49.8));
#1831=CARTESIAN_POINT('Origin',(35.0161654948541,-14.9216575729735,49.8));
#1832=CARTESIAN_POINT('',(39.0161654948541,-14.9216575729735,49.8));
#1833=CARTESIAN_POINT('Origin',(39.0161654948541,23.5953424270271,49.8));
#1834=CARTESIAN_POINT('',(39.0161654948541,19.5953424270271,49.8));
#1835=CARTESIAN_POINT('Origin',(35.0161654948541,19.5953424270271,49.8));
#1836=CARTESIAN_POINT('',(35.016165494854,23.5953424270271,49.8));
#1837=CARTESIAN_POINT('Origin',(23.2975333717202,23.5953424270269,49.8));
#1838=CARTESIAN_POINT('',(27.2975333717202,23.595342427027,49.8));
#1839=CARTESIAN_POINT('Origin',(27.2975333717202,19.595342427027,49.8));
#1840=CARTESIAN_POINT('',(23.2975333717202,19.595342427027,49.8));
#1841=CARTESIAN_POINT('Origin',(23.2975333717201,-18.9216575729735,49.8));
#1842=CARTESIAN_POINT('Origin',(5.93816753099953,33.8868424270251,49.8));
#1843=CARTESIAN_POINT('',(1.93816753099952,33.8868424270251,49.8));
#1844=CARTESIAN_POINT('',(5.93816753099989,37.8868424270251,49.8));
#1845=CARTESIAN_POINT('Origin',(1.93816753099952,31.8868424270255,49.8));
#1846=CARTESIAN_POINT('',(1.93816753099952,30.6868424270266,48.3));
#1847=CARTESIAN_POINT('Origin',(5.93816753099953,30.6868424270266,48.3));
#1848=CARTESIAN_POINT('',(5.93816753099953,26.6868424270266,48.3));
#1849=CARTESIAN_POINT('Origin',(10.9061654948543,26.6868424270266,46.8));
#1850=CARTESIAN_POINT('',(9.90616549485434,26.6868424270266,46.8));
#1851=CARTESIAN_POINT('Origin',(11.9061654948485,37.8868424270245,49.8));
#1852=CARTESIAN_POINT('',(9.90616549484837,37.8868424270247,49.8));
#1853=CARTESIAN_POINT('Origin',(-3.09383450514566,-15.9216575729735,49.8));
#1854=CARTESIAN_POINT('',(-6.09383450514566,-15.9216575729735,49.8));
#1855=CARTESIAN_POINT('',(-3.09383450514566,-18.9216575729735,49.8));
#1856=CARTESIAN_POINT('Origin',(-6.09383450514566,-35.3681575729452,49.8));
#1857=CARTESIAN_POINT('',(-6.09383450514566,4.68684242702656,48.3));
#1858=CARTESIAN_POINT('Origin',(-3.09383450514566,4.68684242702656,48.3));
#1859=CARTESIAN_POINT('',(-3.09383450514566,7.68684242702656,48.3));
#1860=CARTESIAN_POINT('Origin',(-6.59383450514566,7.68684242702656,46.8));
#1861=CARTESIAN_POINT('',(9.90616549485434,7.68684242702656,46.8));
#1862=CARTESIAN_POINT('Origin',(-6.59383450514566,-18.9216575729735,49.8));
#1863=CARTESIAN_POINT('',(1.93116549488174,-18.9216575729735,49.8));
#1864=CARTESIAN_POINT('Origin',(5.93933363637331,32.2868424270254,43.6979929072226));
#1865=CARTESIAN_POINT('',(4.43933363637331,32.2868424270254,43.6979929072226));
#1866=CARTESIAN_POINT('Origin',(2.15608274742167,1.03471742702742,43.6979929072226));
#1867=CARTESIAN_POINT('',(0.656082747421671,1.03471742702742,43.6979929072226));
#1868=CARTESIAN_POINT('Origin',(2.15608274742167,-12.2695325729706,43.6979929072226));
#1869=CARTESIAN_POINT('',(0.656082747421671,-12.2695325729706,43.6979929072226));
#1870=CARTESIAN_POINT('Origin',(9.90616549485434,8.68684242702656,46.8));
#1871=CARTESIAN_POINT('',(10.9061654948543,8.68684242702656,46.8));
#1872=CARTESIAN_POINT('Origin',(9.90616549485434,25.6868424270266,46.8));
#1873=CARTESIAN_POINT('',(10.9061654948543,25.6868424270266,46.8));
#1874=CARTESIAN_POINT('Origin',(10.9061654948543,7.68684242702656,46.8));
#1875=CARTESIAN_POINT('Origin',(13.4552463617639,38.0418424269988,49.8));
#1876=CARTESIAN_POINT('',(11.6807059283062,38.9643424270117,49.8));
#1877=CARTESIAN_POINT('Origin',(9.90616549484855,39.8868424270247,49.8));
#1878=CARTESIAN_POINT('Origin',(13.9311654948817,-29.3681575729453,49.8));
#1879=CARTESIAN_POINT('',(13.9311654948816,-35.3681575729453,49.8));
#1880=CARTESIAN_POINT('',(7.93116549488168,-29.3681575729452,49.8));
#1881=CARTESIAN_POINT('Origin',(7.93116549488182,-18.9216575729735,49.8));
#1882=CARTESIAN_POINT('',(7.93116549488174,-24.9216575729736,49.8));
#1883=CARTESIAN_POINT('Origin',(1.93116549488174,-24.9216575729735,49.8));
#1884=CARTESIAN_POINT('Origin',(98.6682015314134,2.33684242702568,46.8));
#1885=CARTESIAN_POINT('',(76.1682015314134,2.33684242702568,46.8));
#1886=CARTESIAN_POINT('Origin',(69.3061655493742,-5.92165757293117,50.498));
#1887=CARTESIAN_POINT('',(66.2061655493741,-5.92165757293117,50.498));
#1888=CARTESIAN_POINT('Origin',(69.3061655493742,-5.92165757293117,50.498));
#1889=CARTESIAN_POINT('',(67.8061655493742,-5.92165757293117,50.498));
#1890=CARTESIAN_POINT('Origin',(69.3061655493742,-5.92165757293117,50.498));
#1891=CARTESIAN_POINT('Origin',(69.306165549374,10.078342427068,50.498));
#1892=CARTESIAN_POINT('',(66.206165549374,10.078342427068,50.498));
#1893=CARTESIAN_POINT('Origin',(69.306165549374,10.078342427068,50.498));
#1894=CARTESIAN_POINT('',(67.806165549374,10.078342427068,50.498));
#1895=CARTESIAN_POINT('Origin',(69.306165549374,10.078342427068,50.498));
#1896=CARTESIAN_POINT('Origin',(69.306165549374,10.078342427068,49.8));
#1897=CARTESIAN_POINT('',(66.206165549374,10.078342427068,49.8));
#1898=CARTESIAN_POINT('Origin',(69.3061655493742,-5.92165757293117,49.8));
#1899=CARTESIAN_POINT('',(66.2061655493741,-5.92165757293117,49.8));
#1900=CARTESIAN_POINT('Origin',(69.306165549374,10.078342427068,49.8));
#1901=CARTESIAN_POINT('',(67.806165549374,10.078342427068,49.8));
#1902=CARTESIAN_POINT('Origin',(69.3061655493742,-5.92165757293117,49.8));
#1903=CARTESIAN_POINT('',(67.8061655493742,-5.92165757293117,49.8));
#1904=CARTESIAN_POINT('Origin',(94.2416423670932,-35.3681575729458,49.8));
#1905=UNCERTAINTY_MEASURE_WITH_UNIT(LENGTH_MEASURE(0.01),#1909,
'DISTANCE_ACCURACY_VALUE',
'Maximum model space distance between geometric entities at asserted c
onnectivities');
#1906=UNCERTAINTY_MEASURE_WITH_UNIT(LENGTH_MEASURE(0.01),#1909,
'DISTANCE_ACCURACY_VALUE',
'Maximum model space distance between geometric entities at asserted c
onnectivities');
#1907=(
GEOMETRIC_REPRESENTATION_CONTEXT(3)
GLOBAL_UNCERTAINTY_ASSIGNED_CONTEXT((#1905))
GLOBAL_UNIT_ASSIGNED_CONTEXT((#1909,#1911,#1912))
REPRESENTATION_CONTEXT('','3D')
);
#1908=(
GEOMETRIC_REPRESENTATION_CONTEXT(3)
GLOBAL_UNCERTAINTY_ASSIGNED_CONTEXT((#1906))
GLOBAL_UNIT_ASSIGNED_CONTEXT((#1909,#1911,#1912))
REPRESENTATION_CONTEXT('','3D')
);
#1909=(
LENGTH_UNIT()
NAMED_UNIT(*)
SI_UNIT(.MILLI.,.METRE.)
);
#1910=(
LENGTH_UNIT()
NAMED_UNIT(*)
SI_UNIT($,.METRE.)
);
#1911=(
NAMED_UNIT(*)
PLANE_ANGLE_UNIT()
SI_UNIT($,.RADIAN.)
);
#1912=(
NAMED_UNIT(*)
SI_UNIT($,.STERADIAN.)
SOLID_ANGLE_UNIT()
);
#1913=SHAPE_DEFINITION_REPRESENTATION(#1914,#1915);
#1914=PRODUCT_DEFINITION_SHAPE('',$,#1917);
#1915=SHAPE_REPRESENTATION('',(#1117),#1907);
#1916=PRODUCT_DEFINITION_CONTEXT('part definition',#1921,'design');
#1917=PRODUCT_DEFINITION('2026-08-11-12-53-25-781','2\X2\5C42\X0\',#1918,
#1916);
#1918=PRODUCT_DEFINITION_FORMATION('',$,#1923);
#1919=PRODUCT_RELATED_PRODUCT_CATEGORY('2\X2\5C42\X0\','2\X2\5C42\X0\',
(#1923));
#1920=APPLICATION_PROTOCOL_DEFINITION('international standard',
'automotive_design',2009,#1921);
#1921=APPLICATION_CONTEXT(
'Core Data for Automotive Mechanical Design Process');
#1922=PRODUCT_CONTEXT('part definition',#1921,'mechanical');
#1923=PRODUCT('2026-08-11-12-53-25-781','2\X2\5C42\X0\',$,(#1922));
#1924=PRESENTATION_STYLE_ASSIGNMENT((#1925));
#1925=SURFACE_STYLE_USAGE(.BOTH.,#1926);
#1926=SURFACE_SIDE_STYLE('',(#1927));
#1927=SURFACE_STYLE_FILL_AREA(#1928);
#1928=FILL_AREA_STYLE('\X2\94A2\X0\ - \X2\7F0E5149\X0\',(#1929));
#1929=FILL_AREA_STYLE_COLOUR('\X2\94A2\X0\ - \X2\7F0E5149\X0\',#1930);
#1930=COLOUR_RGB('\X2\94A2\X0\ - \X2\7F0E5149\X0\',0.627450980392157,0.627450980392157,
0.627450980392157);
ENDSEC;
END-ISO-10303-21;
