ISO-10303-21;
HEADER;
/* Generated by software containing ST-Developer
 * from STEP Tools, Inc. (www.steptools.com) 
 */

FILE_DESCRIPTION(
/* description */ (''),
/* implementation_level */ '2;1');

FILE_NAME(
/* name */ '',
/* time_stamp */ '2026-08-11T12:15:21+09:00',
/* author */ (''),
/* organization */ (''),
/* preprocessor_version */ 'ST-DEVELOPER v20.1',
/* originating_system */ 'Autodesk Translation Framework v15.8.0.0',
/* authorisation */ '');

FILE_SCHEMA (('AUTOMOTIVE_DESIGN { 1 0 10303 214 3 1 1 }'));
ENDSEC;

DATA;
#10=MECHANICAL_DESIGN_GEOMETRIC_PRESENTATION_REPRESENTATION('',(#13,#14),
#994);
#11=SHAPE_REPRESENTATION_RELATIONSHIP('SRR','None',#1001,#12);
#12=ADVANCED_BREP_SHAPE_REPRESENTATION('',(#15,#16),#993);
#13=STYLED_ITEM('',(#1010),#15);
#14=STYLED_ITEM('',(#1010),#16);
#15=MANIFOLD_SOLID_BREP('\X2\5B9E4F53\X0\1',#581);
#16=MANIFOLD_SOLID_BREP('\X2\5B9E4F53\X0\2',#582);
#17=FACE_BOUND('',#97,.T.);
#18=FACE_BOUND('',#99,.T.);
#19=FACE_BOUND('',#102,.T.);
#20=FACE_BOUND('',#116,.T.);
#21=FACE_BOUND('',#118,.T.);
#22=FACE_BOUND('',#122,.T.);
#23=FACE_BOUND('',#124,.T.);
#24=FACE_BOUND('',#126,.T.);
#25=FACE_BOUND('',#129,.T.);
#26=FACE_BOUND('',#132,.T.);
#27=FACE_BOUND('',#136,.T.);
#28=FACE_BOUND('',#139,.T.);
#29=FACE_BOUND('',#142,.T.);
#30=FACE_BOUND('',#146,.T.);
#31=PLANE('',#599);
#32=PLANE('',#601);
#33=PLANE('',#605);
#34=PLANE('',#606);
#35=PLANE('',#607);
#36=PLANE('',#608);
#37=PLANE('',#609);
#38=PLANE('',#610);
#39=PLANE('',#611);
#40=PLANE('',#612);
#41=PLANE('',#613);
#42=PLANE('',#614);
#43=PLANE('',#615);
#44=PLANE('',#616);
#45=PLANE('',#617);
#46=PLANE('',#618);
#47=PLANE('',#619);
#48=PLANE('',#625);
#49=PLANE('',#626);
#50=PLANE('',#629);
#51=PLANE('',#633);
#52=PLANE('',#638);
#53=PLANE('',#643);
#54=PLANE('',#648);
#55=PLANE('',#652);
#56=PLANE('',#657);
#57=FACE_OUTER_BOUND('',#95,.T.);
#58=FACE_OUTER_BOUND('',#96,.T.);
#59=FACE_OUTER_BOUND('',#98,.T.);
#60=FACE_OUTER_BOUND('',#100,.T.);
#61=FACE_OUTER_BOUND('',#101,.T.);
#62=FACE_OUTER_BOUND('',#103,.T.);
#63=FACE_OUTER_BOUND('',#104,.T.);
#64=FACE_OUTER_BOUND('',#105,.T.);
#65=FACE_OUTER_BOUND('',#106,.T.);
#66=FACE_OUTER_BOUND('',#107,.T.);
#67=FACE_OUTER_BOUND('',#108,.T.);
#68=FACE_OUTER_BOUND('',#109,.T.);
#69=FACE_OUTER_BOUND('',#110,.T.);
#70=FACE_OUTER_BOUND('',#111,.T.);
#71=FACE_OUTER_BOUND('',#112,.T.);
#72=FACE_OUTER_BOUND('',#113,.T.);
#73=FACE_OUTER_BOUND('',#114,.T.);
#74=FACE_OUTER_BOUND('',#115,.T.);
#75=FACE_OUTER_BOUND('',#117,.T.);
#76=FACE_OUTER_BOUND('',#119,.T.);
#77=FACE_OUTER_BOUND('',#120,.T.);
#78=FACE_OUTER_BOUND('',#121,.T.);
#79=FACE_OUTER_BOUND('',#123,.T.);
#80=FACE_OUTER_BOUND('',#125,.T.);
#81=FACE_OUTER_BOUND('',#127,.T.);
#82=FACE_OUTER_BOUND('',#128,.T.);
#83=FACE_OUTER_BOUND('',#130,.T.);
#84=FACE_OUTER_BOUND('',#131,.T.);
#85=FACE_OUTER_BOUND('',#133,.T.);
#86=FACE_OUTER_BOUND('',#134,.T.);
#87=FACE_OUTER_BOUND('',#135,.T.);
#88=FACE_OUTER_BOUND('',#137,.T.);
#89=FACE_OUTER_BOUND('',#138,.T.);
#90=FACE_OUTER_BOUND('',#140,.T.);
#91=FACE_OUTER_BOUND('',#141,.T.);
#92=FACE_OUTER_BOUND('',#143,.T.);
#93=FACE_OUTER_BOUND('',#144,.T.);
#94=FACE_OUTER_BOUND('',#145,.T.);
#95=EDGE_LOOP('',(#387,#388,#389,#390));
#96=EDGE_LOOP('',(#391));
#97=EDGE_LOOP('',(#392));
#98=EDGE_LOOP('',(#393));
#99=EDGE_LOOP('',(#394));
#100=EDGE_LOOP('',(#395,#396,#397,#398));
#101=EDGE_LOOP('',(#399,#400,#401,#402,#403,#404));
#102=EDGE_LOOP('',(#405));
#103=EDGE_LOOP('',(#406,#407,#408,#409));
#104=EDGE_LOOP('',(#410,#411,#412,#413));
#105=EDGE_LOOP('',(#414,#415,#416,#417));
#106=EDGE_LOOP('',(#418,#419,#420,#421));
#107=EDGE_LOOP('',(#422,#423,#424,#425));
#108=EDGE_LOOP('',(#426,#427,#428,#429));
#109=EDGE_LOOP('',(#430,#431,#432,#433));
#110=EDGE_LOOP('',(#434,#435,#436,#437));
#111=EDGE_LOOP('',(#438,#439,#440,#441));
#112=EDGE_LOOP('',(#442,#443,#444,#445));
#113=EDGE_LOOP('',(#446,#447,#448,#449));
#114=EDGE_LOOP('',(#450,#451,#452,#453));
#115=EDGE_LOOP('',(#454,#455,#456,#457,#458,#459));
#116=EDGE_LOOP('',(#460,#461,#462,#463,#464,#465));
#117=EDGE_LOOP('',(#466));
#118=EDGE_LOOP('',(#467,#468,#469,#470,#471,#472));
#119=EDGE_LOOP('',(#473,#474,#475,#476));
#120=EDGE_LOOP('',(#477,#478,#479,#480));
#121=EDGE_LOOP('',(#481));
#122=EDGE_LOOP('',(#482));
#123=EDGE_LOOP('',(#483));
#124=EDGE_LOOP('',(#484));
#125=EDGE_LOOP('',(#485));
#126=EDGE_LOOP('',(#486));
#127=EDGE_LOOP('',(#487,#488,#489,#490));
#128=EDGE_LOOP('',(#491));
#129=EDGE_LOOP('',(#492));
#130=EDGE_LOOP('',(#493,#494,#495,#496));
#131=EDGE_LOOP('',(#497));
#132=EDGE_LOOP('',(#498));
#133=EDGE_LOOP('',(#499,#500,#501,#502));
#134=EDGE_LOOP('',(#503,#504,#505,#506));
#135=EDGE_LOOP('',(#507));
#136=EDGE_LOOP('',(#508));
#137=EDGE_LOOP('',(#509,#510,#511,#512));
#138=EDGE_LOOP('',(#513));
#139=EDGE_LOOP('',(#514));
#140=EDGE_LOOP('',(#515,#516,#517,#518));
#141=EDGE_LOOP('',(#519));
#142=EDGE_LOOP('',(#520));
#143=EDGE_LOOP('',(#521,#522,#523,#524));
#144=EDGE_LOOP('',(#525,#526,#527,#528));
#145=EDGE_LOOP('',(#529));
#146=EDGE_LOOP('',(#530));
#147=LINE('',#837,#195);
#148=LINE('',#848,#196);
#149=LINE('',#852,#197);
#150=LINE('',#854,#198);
#151=LINE('',#856,#199);
#152=LINE('',#858,#200);
#153=LINE('',#860,#201);
#154=LINE('',#861,#202);
#155=LINE('',#864,#203);
#156=LINE('',#866,#204);
#157=LINE('',#867,#205);
#158=LINE('',#870,#206);
#159=LINE('',#871,#207);
#160=LINE('',#874,#208);
#161=LINE('',#875,#209);
#162=LINE('',#879,#210);
#163=LINE('',#881,#211);
#164=LINE('',#883,#212);
#165=LINE('',#884,#213);
#166=LINE('',#887,#214);
#167=LINE('',#889,#215);
#168=LINE('',#890,#216);
#169=LINE('',#893,#217);
#170=LINE('',#895,#218);
#171=LINE('',#896,#219);
#172=LINE('',#899,#220);
#173=LINE('',#900,#221);
#174=LINE('',#903,#222);
#175=LINE('',#904,#223);
#176=LINE('',#906,#224);
#177=LINE('',#909,#225);
#178=LINE('',#911,#226);
#179=LINE('',#912,#227);
#180=LINE('',#915,#228);
#181=LINE('',#917,#229);
#182=LINE('',#918,#230);
#183=LINE('',#920,#231);
#184=LINE('',#921,#232);
#185=LINE('',#928,#233);
#186=LINE('',#933,#234);
#187=LINE('',#946,#235);
#188=LINE('',#955,#236);
#189=LINE('',#960,#237);
#190=LINE('',#963,#238);
#191=LINE('',#973,#239);
#192=LINE('',#980,#240);
#193=LINE('',#987,#241);
#194=LINE('',#989,#242);
#195=VECTOR('',#664,5.);
#196=VECTOR('',#679,2.);
#197=VECTOR('',#682,10.);
#198=VECTOR('',#683,10.);
#199=VECTOR('',#684,10.);
#200=VECTOR('',#685,10.);
#201=VECTOR('',#686,10.);
#202=VECTOR('',#687,10.);
#203=VECTOR('',#690,10.);
#204=VECTOR('',#691,10.);
#205=VECTOR('',#692,10.);
#206=VECTOR('',#695,10.);
#207=VECTOR('',#696,10.);
#208=VECTOR('',#699,10.);
#209=VECTOR('',#700,10.);
#210=VECTOR('',#703,10.);
#211=VECTOR('',#704,10.);
#212=VECTOR('',#705,10.);
#213=VECTOR('',#706,10.);
#214=VECTOR('',#709,10.);
#215=VECTOR('',#710,10.);
#216=VECTOR('',#711,10.);
#217=VECTOR('',#714,10.);
#218=VECTOR('',#715,10.);
#219=VECTOR('',#716,10.);
#220=VECTOR('',#719,10.);
#221=VECTOR('',#720,10.);
#222=VECTOR('',#723,10.);
#223=VECTOR('',#724,10.);
#224=VECTOR('',#727,10.);
#225=VECTOR('',#730,10.);
#226=VECTOR('',#731,10.);
#227=VECTOR('',#732,10.);
#228=VECTOR('',#735,10.);
#229=VECTOR('',#736,10.);
#230=VECTOR('',#737,10.);
#231=VECTOR('',#740,10.);
#232=VECTOR('',#741,10.);
#233=VECTOR('',#750,21.);
#234=VECTOR('',#757,21.);
#235=VECTOR('',#774,28.3);
#236=VECTOR('',#785,28.3);
#237=VECTOR('',#792,29.5);
#238=VECTOR('',#795,29.5);
#239=VECTOR('',#808,28.3);
#240=VECTOR('',#817,29.5);
#241=VECTOR('',#826,21.);
#242=VECTOR('',#829,29.5);
#243=CIRCLE('',#597,5.);
#244=CIRCLE('',#598,5.);
#245=CIRCLE('',#600,2.);
#246=CIRCLE('',#602,21.);
#247=CIRCLE('',#604,2.);
#248=CIRCLE('',#620,18.5);
#249=CIRCLE('',#622,18.5);
#250=CIRCLE('',#624,21.);
#251=CIRCLE('',#627,29.5);
#252=CIRCLE('',#628,28.3);
#253=CIRCLE('',#630,29.5);
#254=CIRCLE('',#631,28.3);
#255=CIRCLE('',#634,29.5);
#256=CIRCLE('',#635,28.3);
#257=CIRCLE('',#637,28.3);
#258=CIRCLE('',#639,29.5);
#259=CIRCLE('',#642,29.5);
#260=CIRCLE('',#644,29.5);
#261=CIRCLE('',#645,28.3);
#262=CIRCLE('',#647,28.3);
#263=CIRCLE('',#649,29.5);
#264=CIRCLE('',#651,29.5);
#265=CIRCLE('',#653,21.);
#266=CIRCLE('',#655,21.);
#267=VERTEX_POINT('',#834);
#268=VERTEX_POINT('',#836);
#269=VERTEX_POINT('',#840);
#270=VERTEX_POINT('',#843);
#271=VERTEX_POINT('',#846);
#272=VERTEX_POINT('',#850);
#273=VERTEX_POINT('',#851);
#274=VERTEX_POINT('',#853);
#275=VERTEX_POINT('',#855);
#276=VERTEX_POINT('',#857);
#277=VERTEX_POINT('',#859);
#278=VERTEX_POINT('',#863);
#279=VERTEX_POINT('',#865);
#280=VERTEX_POINT('',#869);
#281=VERTEX_POINT('',#873);
#282=VERTEX_POINT('',#877);
#283=VERTEX_POINT('',#878);
#284=VERTEX_POINT('',#880);
#285=VERTEX_POINT('',#882);
#286=VERTEX_POINT('',#886);
#287=VERTEX_POINT('',#888);
#288=VERTEX_POINT('',#892);
#289=VERTEX_POINT('',#894);
#290=VERTEX_POINT('',#898);
#291=VERTEX_POINT('',#902);
#292=VERTEX_POINT('',#908);
#293=VERTEX_POINT('',#910);
#294=VERTEX_POINT('',#914);
#295=VERTEX_POINT('',#916);
#296=VERTEX_POINT('',#924);
#297=VERTEX_POINT('',#927);
#298=VERTEX_POINT('',#931);
#299=VERTEX_POINT('',#936);
#300=VERTEX_POINT('',#938);
#301=VERTEX_POINT('',#941);
#302=VERTEX_POINT('',#943);
#303=VERTEX_POINT('',#948);
#304=VERTEX_POINT('',#950);
#305=VERTEX_POINT('',#953);
#306=VERTEX_POINT('',#957);
#307=VERTEX_POINT('',#962);
#308=VERTEX_POINT('',#966);
#309=VERTEX_POINT('',#968);
#310=VERTEX_POINT('',#971);
#311=VERTEX_POINT('',#975);
#312=VERTEX_POINT('',#978);
#313=VERTEX_POINT('',#982);
#314=VERTEX_POINT('',#985);
#315=EDGE_CURVE('',#267,#267,#243,.T.);
#316=EDGE_CURVE('',#267,#268,#147,.T.);
#317=EDGE_CURVE('',#268,#268,#244,.T.);
#318=EDGE_CURVE('',#269,#269,#245,.T.);
#319=EDGE_CURVE('',#270,#270,#246,.T.);
#320=EDGE_CURVE('',#271,#271,#247,.T.);
#321=EDGE_CURVE('',#271,#269,#148,.T.);
#322=EDGE_CURVE('',#272,#273,#149,.T.);
#323=EDGE_CURVE('',#274,#272,#150,.T.);
#324=EDGE_CURVE('',#275,#274,#151,.T.);
#325=EDGE_CURVE('',#276,#275,#152,.T.);
#326=EDGE_CURVE('',#277,#276,#153,.T.);
#327=EDGE_CURVE('',#273,#277,#154,.T.);
#328=EDGE_CURVE('',#275,#278,#155,.T.);
#329=EDGE_CURVE('',#279,#278,#156,.T.);
#330=EDGE_CURVE('',#276,#279,#157,.T.);
#331=EDGE_CURVE('',#274,#280,#158,.T.);
#332=EDGE_CURVE('',#278,#280,#159,.T.);
#333=EDGE_CURVE('',#272,#281,#160,.T.);
#334=EDGE_CURVE('',#280,#281,#161,.T.);
#335=EDGE_CURVE('',#282,#283,#162,.T.);
#336=EDGE_CURVE('',#282,#284,#163,.T.);
#337=EDGE_CURVE('',#285,#284,#164,.T.);
#338=EDGE_CURVE('',#283,#285,#165,.T.);
#339=EDGE_CURVE('',#286,#282,#166,.T.);
#340=EDGE_CURVE('',#286,#287,#167,.T.);
#341=EDGE_CURVE('',#284,#287,#168,.T.);
#342=EDGE_CURVE('',#288,#286,#169,.T.);
#343=EDGE_CURVE('',#288,#289,#170,.T.);
#344=EDGE_CURVE('',#287,#289,#171,.T.);
#345=EDGE_CURVE('',#290,#279,#172,.T.);
#346=EDGE_CURVE('',#277,#290,#173,.T.);
#347=EDGE_CURVE('',#291,#290,#174,.T.);
#348=EDGE_CURVE('',#273,#291,#175,.T.);
#349=EDGE_CURVE('',#281,#291,#176,.T.);
#350=EDGE_CURVE('',#283,#292,#177,.T.);
#351=EDGE_CURVE('',#293,#285,#178,.T.);
#352=EDGE_CURVE('',#292,#293,#179,.T.);
#353=EDGE_CURVE('',#292,#294,#180,.T.);
#354=EDGE_CURVE('',#295,#293,#181,.T.);
#355=EDGE_CURVE('',#294,#295,#182,.T.);
#356=EDGE_CURVE('',#294,#288,#183,.T.);
#357=EDGE_CURVE('',#289,#295,#184,.T.);
#358=EDGE_CURVE('',#296,#296,#248,.F.);
#359=EDGE_CURVE('',#296,#297,#185,.T.);
#360=EDGE_CURVE('',#297,#297,#249,.T.);
#361=EDGE_CURVE('',#298,#298,#250,.T.);
#362=EDGE_CURVE('',#298,#270,#186,.T.);
#363=EDGE_CURVE('',#299,#299,#251,.T.);
#364=EDGE_CURVE('',#300,#300,#252,.T.);
#365=EDGE_CURVE('',#301,#301,#253,.T.);
#366=EDGE_CURVE('',#302,#302,#254,.T.);
#367=EDGE_CURVE('',#300,#302,#187,.T.);
#368=EDGE_CURVE('',#303,#303,#255,.T.);
#369=EDGE_CURVE('',#304,#304,#256,.T.);
#370=EDGE_CURVE('',#305,#305,#257,.T.);
#371=EDGE_CURVE('',#305,#304,#188,.T.);
#372=EDGE_CURVE('',#306,#306,#258,.T.);
#373=EDGE_CURVE('',#301,#306,#189,.T.);
#374=EDGE_CURVE('',#303,#307,#190,.T.);
#375=EDGE_CURVE('',#307,#307,#259,.T.);
#376=EDGE_CURVE('',#308,#308,#260,.T.);
#377=EDGE_CURVE('',#309,#309,#261,.T.);
#378=EDGE_CURVE('',#310,#310,#262,.T.);
#379=EDGE_CURVE('',#310,#309,#191,.T.);
#380=EDGE_CURVE('',#311,#311,#263,.T.);
#381=EDGE_CURVE('',#312,#312,#264,.T.);
#382=EDGE_CURVE('',#312,#311,#192,.T.);
#383=EDGE_CURVE('',#313,#313,#265,.T.);
#384=EDGE_CURVE('',#314,#314,#266,.T.);
#385=EDGE_CURVE('',#314,#313,#193,.T.);
#386=EDGE_CURVE('',#308,#299,#194,.T.);
#387=ORIENTED_EDGE('',*,*,#315,.F.);
#388=ORIENTED_EDGE('',*,*,#316,.T.);
#389=ORIENTED_EDGE('',*,*,#317,.T.);
#390=ORIENTED_EDGE('',*,*,#316,.F.);
#391=ORIENTED_EDGE('',*,*,#317,.F.);
#392=ORIENTED_EDGE('',*,*,#318,.T.);
#393=ORIENTED_EDGE('',*,*,#319,.F.);
#394=ORIENTED_EDGE('',*,*,#315,.T.);
#395=ORIENTED_EDGE('',*,*,#320,.F.);
#396=ORIENTED_EDGE('',*,*,#321,.T.);
#397=ORIENTED_EDGE('',*,*,#318,.F.);
#398=ORIENTED_EDGE('',*,*,#321,.F.);
#399=ORIENTED_EDGE('',*,*,#322,.F.);
#400=ORIENTED_EDGE('',*,*,#323,.F.);
#401=ORIENTED_EDGE('',*,*,#324,.F.);
#402=ORIENTED_EDGE('',*,*,#325,.F.);
#403=ORIENTED_EDGE('',*,*,#326,.F.);
#404=ORIENTED_EDGE('',*,*,#327,.F.);
#405=ORIENTED_EDGE('',*,*,#320,.T.);
#406=ORIENTED_EDGE('',*,*,#325,.T.);
#407=ORIENTED_EDGE('',*,*,#328,.T.);
#408=ORIENTED_EDGE('',*,*,#329,.F.);
#409=ORIENTED_EDGE('',*,*,#330,.F.);
#410=ORIENTED_EDGE('',*,*,#324,.T.);
#411=ORIENTED_EDGE('',*,*,#331,.T.);
#412=ORIENTED_EDGE('',*,*,#332,.F.);
#413=ORIENTED_EDGE('',*,*,#328,.F.);
#414=ORIENTED_EDGE('',*,*,#323,.T.);
#415=ORIENTED_EDGE('',*,*,#333,.T.);
#416=ORIENTED_EDGE('',*,*,#334,.F.);
#417=ORIENTED_EDGE('',*,*,#331,.F.);
#418=ORIENTED_EDGE('',*,*,#335,.F.);
#419=ORIENTED_EDGE('',*,*,#336,.T.);
#420=ORIENTED_EDGE('',*,*,#337,.F.);
#421=ORIENTED_EDGE('',*,*,#338,.F.);
#422=ORIENTED_EDGE('',*,*,#339,.F.);
#423=ORIENTED_EDGE('',*,*,#340,.T.);
#424=ORIENTED_EDGE('',*,*,#341,.F.);
#425=ORIENTED_EDGE('',*,*,#336,.F.);
#426=ORIENTED_EDGE('',*,*,#342,.F.);
#427=ORIENTED_EDGE('',*,*,#343,.T.);
#428=ORIENTED_EDGE('',*,*,#344,.F.);
#429=ORIENTED_EDGE('',*,*,#340,.F.);
#430=ORIENTED_EDGE('',*,*,#326,.T.);
#431=ORIENTED_EDGE('',*,*,#330,.T.);
#432=ORIENTED_EDGE('',*,*,#345,.F.);
#433=ORIENTED_EDGE('',*,*,#346,.F.);
#434=ORIENTED_EDGE('',*,*,#327,.T.);
#435=ORIENTED_EDGE('',*,*,#346,.T.);
#436=ORIENTED_EDGE('',*,*,#347,.F.);
#437=ORIENTED_EDGE('',*,*,#348,.F.);
#438=ORIENTED_EDGE('',*,*,#322,.T.);
#439=ORIENTED_EDGE('',*,*,#348,.T.);
#440=ORIENTED_EDGE('',*,*,#349,.F.);
#441=ORIENTED_EDGE('',*,*,#333,.F.);
#442=ORIENTED_EDGE('',*,*,#350,.F.);
#443=ORIENTED_EDGE('',*,*,#338,.T.);
#444=ORIENTED_EDGE('',*,*,#351,.F.);
#445=ORIENTED_EDGE('',*,*,#352,.F.);
#446=ORIENTED_EDGE('',*,*,#353,.F.);
#447=ORIENTED_EDGE('',*,*,#352,.T.);
#448=ORIENTED_EDGE('',*,*,#354,.F.);
#449=ORIENTED_EDGE('',*,*,#355,.F.);
#450=ORIENTED_EDGE('',*,*,#356,.F.);
#451=ORIENTED_EDGE('',*,*,#355,.T.);
#452=ORIENTED_EDGE('',*,*,#357,.F.);
#453=ORIENTED_EDGE('',*,*,#343,.F.);
#454=ORIENTED_EDGE('',*,*,#357,.T.);
#455=ORIENTED_EDGE('',*,*,#354,.T.);
#456=ORIENTED_EDGE('',*,*,#351,.T.);
#457=ORIENTED_EDGE('',*,*,#337,.T.);
#458=ORIENTED_EDGE('',*,*,#341,.T.);
#459=ORIENTED_EDGE('',*,*,#344,.T.);
#460=ORIENTED_EDGE('',*,*,#349,.T.);
#461=ORIENTED_EDGE('',*,*,#347,.T.);
#462=ORIENTED_EDGE('',*,*,#345,.T.);
#463=ORIENTED_EDGE('',*,*,#329,.T.);
#464=ORIENTED_EDGE('',*,*,#332,.T.);
#465=ORIENTED_EDGE('',*,*,#334,.T.);
#466=ORIENTED_EDGE('',*,*,#358,.T.);
#467=ORIENTED_EDGE('',*,*,#342,.T.);
#468=ORIENTED_EDGE('',*,*,#339,.T.);
#469=ORIENTED_EDGE('',*,*,#335,.T.);
#470=ORIENTED_EDGE('',*,*,#350,.T.);
#471=ORIENTED_EDGE('',*,*,#353,.T.);
#472=ORIENTED_EDGE('',*,*,#356,.T.);
#473=ORIENTED_EDGE('',*,*,#358,.F.);
#474=ORIENTED_EDGE('',*,*,#359,.T.);
#475=ORIENTED_EDGE('',*,*,#360,.F.);
#476=ORIENTED_EDGE('',*,*,#359,.F.);
#477=ORIENTED_EDGE('',*,*,#361,.F.);
#478=ORIENTED_EDGE('',*,*,#362,.T.);
#479=ORIENTED_EDGE('',*,*,#319,.T.);
#480=ORIENTED_EDGE('',*,*,#362,.F.);
#481=ORIENTED_EDGE('',*,*,#361,.T.);
#482=ORIENTED_EDGE('',*,*,#360,.T.);
#483=ORIENTED_EDGE('',*,*,#363,.F.);
#484=ORIENTED_EDGE('',*,*,#364,.F.);
#485=ORIENTED_EDGE('',*,*,#365,.F.);
#486=ORIENTED_EDGE('',*,*,#366,.T.);
#487=ORIENTED_EDGE('',*,*,#364,.T.);
#488=ORIENTED_EDGE('',*,*,#367,.T.);
#489=ORIENTED_EDGE('',*,*,#366,.F.);
#490=ORIENTED_EDGE('',*,*,#367,.F.);
#491=ORIENTED_EDGE('',*,*,#368,.F.);
#492=ORIENTED_EDGE('',*,*,#369,.T.);
#493=ORIENTED_EDGE('',*,*,#370,.T.);
#494=ORIENTED_EDGE('',*,*,#371,.T.);
#495=ORIENTED_EDGE('',*,*,#369,.F.);
#496=ORIENTED_EDGE('',*,*,#371,.F.);
#497=ORIENTED_EDGE('',*,*,#372,.F.);
#498=ORIENTED_EDGE('',*,*,#370,.F.);
#499=ORIENTED_EDGE('',*,*,#365,.T.);
#500=ORIENTED_EDGE('',*,*,#373,.T.);
#501=ORIENTED_EDGE('',*,*,#372,.T.);
#502=ORIENTED_EDGE('',*,*,#373,.F.);
#503=ORIENTED_EDGE('',*,*,#368,.T.);
#504=ORIENTED_EDGE('',*,*,#374,.T.);
#505=ORIENTED_EDGE('',*,*,#375,.F.);
#506=ORIENTED_EDGE('',*,*,#374,.F.);
#507=ORIENTED_EDGE('',*,*,#376,.F.);
#508=ORIENTED_EDGE('',*,*,#377,.T.);
#509=ORIENTED_EDGE('',*,*,#378,.T.);
#510=ORIENTED_EDGE('',*,*,#379,.T.);
#511=ORIENTED_EDGE('',*,*,#377,.F.);
#512=ORIENTED_EDGE('',*,*,#379,.F.);
#513=ORIENTED_EDGE('',*,*,#380,.F.);
#514=ORIENTED_EDGE('',*,*,#378,.F.);
#515=ORIENTED_EDGE('',*,*,#381,.F.);
#516=ORIENTED_EDGE('',*,*,#382,.T.);
#517=ORIENTED_EDGE('',*,*,#380,.T.);
#518=ORIENTED_EDGE('',*,*,#382,.F.);
#519=ORIENTED_EDGE('',*,*,#375,.T.);
#520=ORIENTED_EDGE('',*,*,#383,.T.);
#521=ORIENTED_EDGE('',*,*,#384,.F.);
#522=ORIENTED_EDGE('',*,*,#385,.T.);
#523=ORIENTED_EDGE('',*,*,#383,.F.);
#524=ORIENTED_EDGE('',*,*,#385,.F.);
#525=ORIENTED_EDGE('',*,*,#376,.T.);
#526=ORIENTED_EDGE('',*,*,#386,.T.);
#527=ORIENTED_EDGE('',*,*,#363,.T.);
#528=ORIENTED_EDGE('',*,*,#386,.F.);
#529=ORIENTED_EDGE('',*,*,#381,.T.);
#530=ORIENTED_EDGE('',*,*,#384,.T.);
#531=CYLINDRICAL_SURFACE('',#596,5.);
#532=CYLINDRICAL_SURFACE('',#603,2.);
#533=CYLINDRICAL_SURFACE('',#621,18.5);
#534=CYLINDRICAL_SURFACE('',#623,21.);
#535=CYLINDRICAL_SURFACE('',#632,28.3);
#536=CYLINDRICAL_SURFACE('',#636,28.3);
#537=CYLINDRICAL_SURFACE('',#640,29.5);
#538=CYLINDRICAL_SURFACE('',#641,29.5);
#539=CYLINDRICAL_SURFACE('',#646,28.3);
#540=CYLINDRICAL_SURFACE('',#650,29.5);
#541=CYLINDRICAL_SURFACE('',#654,21.);
#542=CYLINDRICAL_SURFACE('',#656,29.5);
#543=ADVANCED_FACE('',(#57),#531,.F.);
#544=ADVANCED_FACE('',(#58,#17),#31,.F.);
#545=ADVANCED_FACE('',(#59,#18),#32,.F.);
#546=ADVANCED_FACE('',(#60),#532,.F.);
#547=ADVANCED_FACE('',(#61,#19),#33,.T.);
#548=ADVANCED_FACE('',(#62),#34,.T.);
#549=ADVANCED_FACE('',(#63),#35,.T.);
#550=ADVANCED_FACE('',(#64),#36,.T.);
#551=ADVANCED_FACE('',(#65),#37,.T.);
#552=ADVANCED_FACE('',(#66),#38,.T.);
#553=ADVANCED_FACE('',(#67),#39,.T.);
#554=ADVANCED_FACE('',(#68),#40,.T.);
#555=ADVANCED_FACE('',(#69),#41,.T.);
#556=ADVANCED_FACE('',(#70),#42,.T.);
#557=ADVANCED_FACE('',(#71),#43,.T.);
#558=ADVANCED_FACE('',(#72),#44,.T.);
#559=ADVANCED_FACE('',(#73),#45,.T.);
#560=ADVANCED_FACE('',(#74,#20),#46,.T.);
#561=ADVANCED_FACE('',(#75,#21),#47,.T.);
#562=ADVANCED_FACE('',(#76),#533,.F.);
#563=ADVANCED_FACE('',(#77),#534,.T.);
#564=ADVANCED_FACE('',(#78,#22),#48,.T.);
#565=ADVANCED_FACE('',(#79,#23),#49,.F.);
#566=ADVANCED_FACE('',(#80,#24),#50,.F.);
#567=ADVANCED_FACE('',(#81),#535,.T.);
#568=ADVANCED_FACE('',(#82,#25),#51,.F.);
#569=ADVANCED_FACE('',(#83),#536,.T.);
#570=ADVANCED_FACE('',(#84,#26),#52,.F.);
#571=ADVANCED_FACE('',(#85),#537,.T.);
#572=ADVANCED_FACE('',(#86),#538,.T.);
#573=ADVANCED_FACE('',(#87,#27),#53,.F.);
#574=ADVANCED_FACE('',(#88),#539,.T.);
#575=ADVANCED_FACE('',(#89,#28),#54,.F.);
#576=ADVANCED_FACE('',(#90),#540,.T.);
#577=ADVANCED_FACE('',(#91,#29),#55,.F.);
#578=ADVANCED_FACE('',(#92),#541,.F.);
#579=ADVANCED_FACE('',(#93),#542,.T.);
#580=ADVANCED_FACE('',(#94,#30),#56,.T.);
#581=CLOSED_SHELL('',(#543,#544,#545,#546,#547,#548,#549,#550,#551,#552,
#553,#554,#555,#556,#557,#558,#559,#560,#561,#562,#563,#564));
#582=CLOSED_SHELL('',(#565,#566,#567,#568,#569,#570,#571,#572,#573,#574,
#575,#576,#577,#578,#579,#580));
#583=DERIVED_UNIT_ELEMENT(#585,1.);
#584=DERIVED_UNIT_ELEMENT(#996,-3.);
#585=(
MASS_UNIT()
NAMED_UNIT(*)
SI_UNIT(.KILO.,.GRAM.)
);
#586=DERIVED_UNIT((#583,#584));
#587=MEASURE_REPRESENTATION_ITEM('density measure',
POSITIVE_RATIO_MEASURE(7850.),#586);
#588=PROPERTY_DEFINITION_REPRESENTATION(#593,#590);
#589=PROPERTY_DEFINITION_REPRESENTATION(#594,#591);
#590=REPRESENTATION('material name',(#592),#993);
#591=REPRESENTATION('density',(#587),#993);
#592=DESCRIPTIVE_REPRESENTATION_ITEM('\X2\94A2\X0\','\X2\94A2\X0\');
#593=PROPERTY_DEFINITION('material property','material name',#1003);
#594=PROPERTY_DEFINITION('material property','density of part',#1003);
#595=AXIS2_PLACEMENT_3D('',#832,#658,#659);
#596=AXIS2_PLACEMENT_3D('',#833,#660,#661);
#597=AXIS2_PLACEMENT_3D('',#835,#662,#663);
#598=AXIS2_PLACEMENT_3D('',#838,#665,#666);
#599=AXIS2_PLACEMENT_3D('',#839,#667,#668);
#600=AXIS2_PLACEMENT_3D('',#841,#669,#670);
#601=AXIS2_PLACEMENT_3D('',#842,#671,#672);
#602=AXIS2_PLACEMENT_3D('',#844,#673,#674);
#603=AXIS2_PLACEMENT_3D('',#845,#675,#676);
#604=AXIS2_PLACEMENT_3D('',#847,#677,#678);
#605=AXIS2_PLACEMENT_3D('',#849,#680,#681);
#606=AXIS2_PLACEMENT_3D('',#862,#688,#689);
#607=AXIS2_PLACEMENT_3D('',#868,#693,#694);
#608=AXIS2_PLACEMENT_3D('',#872,#697,#698);
#609=AXIS2_PLACEMENT_3D('',#876,#701,#702);
#610=AXIS2_PLACEMENT_3D('',#885,#707,#708);
#611=AXIS2_PLACEMENT_3D('',#891,#712,#713);
#612=AXIS2_PLACEMENT_3D('',#897,#717,#718);
#613=AXIS2_PLACEMENT_3D('',#901,#721,#722);
#614=AXIS2_PLACEMENT_3D('',#905,#725,#726);
#615=AXIS2_PLACEMENT_3D('',#907,#728,#729);
#616=AXIS2_PLACEMENT_3D('',#913,#733,#734);
#617=AXIS2_PLACEMENT_3D('',#919,#738,#739);
#618=AXIS2_PLACEMENT_3D('',#922,#742,#743);
#619=AXIS2_PLACEMENT_3D('',#923,#744,#745);
#620=AXIS2_PLACEMENT_3D('',#925,#746,#747);
#621=AXIS2_PLACEMENT_3D('',#926,#748,#749);
#622=AXIS2_PLACEMENT_3D('',#929,#751,#752);
#623=AXIS2_PLACEMENT_3D('',#930,#753,#754);
#624=AXIS2_PLACEMENT_3D('',#932,#755,#756);
#625=AXIS2_PLACEMENT_3D('',#934,#758,#759);
#626=AXIS2_PLACEMENT_3D('',#935,#760,#761);
#627=AXIS2_PLACEMENT_3D('',#937,#762,#763);
#628=AXIS2_PLACEMENT_3D('',#939,#764,#765);
#629=AXIS2_PLACEMENT_3D('',#940,#766,#767);
#630=AXIS2_PLACEMENT_3D('',#942,#768,#769);
#631=AXIS2_PLACEMENT_3D('',#944,#770,#771);
#632=AXIS2_PLACEMENT_3D('',#945,#772,#773);
#633=AXIS2_PLACEMENT_3D('',#947,#775,#776);
#634=AXIS2_PLACEMENT_3D('',#949,#777,#778);
#635=AXIS2_PLACEMENT_3D('',#951,#779,#780);
#636=AXIS2_PLACEMENT_3D('',#952,#781,#782);
#637=AXIS2_PLACEMENT_3D('',#954,#783,#784);
#638=AXIS2_PLACEMENT_3D('',#956,#786,#787);
#639=AXIS2_PLACEMENT_3D('',#958,#788,#789);
#640=AXIS2_PLACEMENT_3D('',#959,#790,#791);
#641=AXIS2_PLACEMENT_3D('',#961,#793,#794);
#642=AXIS2_PLACEMENT_3D('',#964,#796,#797);
#643=AXIS2_PLACEMENT_3D('',#965,#798,#799);
#644=AXIS2_PLACEMENT_3D('',#967,#800,#801);
#645=AXIS2_PLACEMENT_3D('',#969,#802,#803);
#646=AXIS2_PLACEMENT_3D('',#970,#804,#805);
#647=AXIS2_PLACEMENT_3D('',#972,#806,#807);
#648=AXIS2_PLACEMENT_3D('',#974,#809,#810);
#649=AXIS2_PLACEMENT_3D('',#976,#811,#812);
#650=AXIS2_PLACEMENT_3D('',#977,#813,#814);
#651=AXIS2_PLACEMENT_3D('',#979,#815,#816);
#652=AXIS2_PLACEMENT_3D('',#981,#818,#819);
#653=AXIS2_PLACEMENT_3D('',#983,#820,#821);
#654=AXIS2_PLACEMENT_3D('',#984,#822,#823);
#655=AXIS2_PLACEMENT_3D('',#986,#824,#825);
#656=AXIS2_PLACEMENT_3D('',#988,#827,#828);
#657=AXIS2_PLACEMENT_3D('',#990,#830,#831);
#658=DIRECTION('axis',(0.,0.,1.));
#659=DIRECTION('refdir',(1.,0.,0.));
#660=DIRECTION('center_axis',(0.,0.,1.));
#661=DIRECTION('ref_axis',(1.,0.,0.));
#662=DIRECTION('center_axis',(0.,0.,1.));
#663=DIRECTION('ref_axis',(1.,0.,0.));
#664=DIRECTION('',(0.,0.,1.));
#665=DIRECTION('center_axis',(0.,0.,1.));
#666=DIRECTION('ref_axis',(1.,0.,0.));
#667=DIRECTION('center_axis',(0.,0.,1.));
#668=DIRECTION('ref_axis',(1.,0.,0.));
#669=DIRECTION('center_axis',(0.,0.,1.));
#670=DIRECTION('ref_axis',(1.,0.,0.));
#671=DIRECTION('center_axis',(0.,0.,1.));
#672=DIRECTION('ref_axis',(1.,0.,0.));
#673=DIRECTION('center_axis',(0.,0.,1.));
#674=DIRECTION('ref_axis',(1.,0.,0.));
#675=DIRECTION('center_axis',(0.,0.,1.));
#676=DIRECTION('ref_axis',(1.,0.,0.));
#677=DIRECTION('center_axis',(0.,0.,-1.));
#678=DIRECTION('ref_axis',(1.,0.,0.));
#679=DIRECTION('',(0.,0.,-1.));
#680=DIRECTION('center_axis',(0.,0.,1.));
#681=DIRECTION('ref_axis',(1.,0.,0.));
#682=DIRECTION('',(-0.5,-0.866025403784438,0.));
#683=DIRECTION('',(0.5,-0.866025403784439,0.));
#684=DIRECTION('',(1.,-2.46716227694479E-16,0.));
#685=DIRECTION('',(0.5,0.866025403784439,0.));
#686=DIRECTION('',(-0.5,0.866025403784439,0.));
#687=DIRECTION('',(-1.,1.11022302462516E-15,0.));
#688=DIRECTION('center_axis',(0.866025403784439,-0.5,0.));
#689=DIRECTION('ref_axis',(0.5,0.866025403784439,0.));
#690=DIRECTION('',(0.,0.,1.));
#691=DIRECTION('',(0.5,0.866025403784439,0.));
#692=DIRECTION('',(0.,0.,1.));
#693=DIRECTION('center_axis',(-2.46716227694479E-16,-1.,0.));
#694=DIRECTION('ref_axis',(1.,-2.46716227694479E-16,0.));
#695=DIRECTION('',(0.,0.,1.));
#696=DIRECTION('',(1.,-2.46716227694479E-16,0.));
#697=DIRECTION('center_axis',(-0.866025403784439,-0.5,0.));
#698=DIRECTION('ref_axis',(0.5,-0.866025403784439,0.));
#699=DIRECTION('',(0.,0.,1.));
#700=DIRECTION('',(0.5,-0.866025403784439,0.));
#701=DIRECTION('center_axis',(-0.866025403784439,0.5,0.));
#702=DIRECTION('ref_axis',(-0.5,-0.866025403784439,0.));
#703=DIRECTION('',(0.5,0.866025403784439,0.));
#704=DIRECTION('',(0.,0.,1.));
#705=DIRECTION('',(-0.5,-0.866025403784439,0.));
#706=DIRECTION('',(0.,0.,1.));
#707=DIRECTION('center_axis',(-0.866025403784439,-0.5,0.));
#708=DIRECTION('ref_axis',(0.5,-0.866025403784439,0.));
#709=DIRECTION('',(-0.5,0.866025403784439,0.));
#710=DIRECTION('',(0.,0.,1.));
#711=DIRECTION('',(0.5,-0.866025403784439,0.));
#712=DIRECTION('center_axis',(-3.41607084500048E-16,-1.,0.));
#713=DIRECTION('ref_axis',(1.,-3.41607084500048E-16,0.));
#714=DIRECTION('',(-1.,3.41607084500048E-16,0.));
#715=DIRECTION('',(0.,0.,1.));
#716=DIRECTION('',(1.,-3.41607084500048E-16,0.));
#717=DIRECTION('center_axis',(0.866025403784439,0.5,0.));
#718=DIRECTION('ref_axis',(-0.5,0.866025403784439,0.));
#719=DIRECTION('',(-0.5,0.866025403784439,0.));
#720=DIRECTION('',(0.,0.,1.));
#721=DIRECTION('center_axis',(1.11022302462516E-15,1.,0.));
#722=DIRECTION('ref_axis',(-1.,1.11022302462516E-15,0.));
#723=DIRECTION('',(-1.,1.11022302462516E-15,0.));
#724=DIRECTION('',(0.,0.,1.));
#725=DIRECTION('center_axis',(-0.866025403784438,0.5,0.));
#726=DIRECTION('ref_axis',(-0.5,-0.866025403784438,0.));
#727=DIRECTION('',(-0.5,-0.866025403784438,0.));
#728=DIRECTION('center_axis',(0.,1.,0.));
#729=DIRECTION('ref_axis',(-1.,0.,0.));
#730=DIRECTION('',(1.,0.,0.));
#731=DIRECTION('',(-1.,0.,0.));
#732=DIRECTION('',(0.,0.,1.));
#733=DIRECTION('center_axis',(0.866025403784439,0.5,0.));
#734=DIRECTION('ref_axis',(-0.5,0.866025403784439,0.));
#735=DIRECTION('',(0.5,-0.866025403784439,0.));
#736=DIRECTION('',(-0.5,0.866025403784439,0.));
#737=DIRECTION('',(0.,0.,1.));
#738=DIRECTION('center_axis',(0.866025403784439,-0.5,0.));
#739=DIRECTION('ref_axis',(0.5,0.866025403784439,0.));
#740=DIRECTION('',(-0.5,-0.866025403784439,0.));
#741=DIRECTION('',(0.5,0.866025403784439,0.));
#742=DIRECTION('center_axis',(0.,0.,1.));
#743=DIRECTION('ref_axis',(1.,0.,0.));
#744=DIRECTION('center_axis',(0.,0.,1.));
#745=DIRECTION('ref_axis',(1.,0.,0.));
#746=DIRECTION('center_axis',(0.,0.,-1.));
#747=DIRECTION('ref_axis',(1.,0.,0.));
#748=DIRECTION('center_axis',(0.,0.,1.));
#749=DIRECTION('ref_axis',(1.,0.,0.));
#750=DIRECTION('',(0.,0.,1.));
#751=DIRECTION('center_axis',(0.,0.,-1.));
#752=DIRECTION('ref_axis',(1.,0.,0.));
#753=DIRECTION('center_axis',(0.,0.,1.));
#754=DIRECTION('ref_axis',(1.,0.,0.));
#755=DIRECTION('center_axis',(0.,0.,1.));
#756=DIRECTION('ref_axis',(1.,0.,0.));
#757=DIRECTION('',(0.,0.,-1.));
#758=DIRECTION('center_axis',(0.,0.,1.));
#759=DIRECTION('ref_axis',(1.,0.,0.));
#760=DIRECTION('center_axis',(0.,0.,1.));
#761=DIRECTION('ref_axis',(1.,0.,0.));
#762=DIRECTION('center_axis',(0.,0.,1.));
#763=DIRECTION('ref_axis',(1.,0.,0.));
#764=DIRECTION('center_axis',(0.,0.,-1.));
#765=DIRECTION('ref_axis',(1.,0.,0.));
#766=DIRECTION('center_axis',(0.,0.,-1.));
#767=DIRECTION('ref_axis',(-1.,0.,0.));
#768=DIRECTION('center_axis',(0.,0.,-1.));
#769=DIRECTION('ref_axis',(1.,0.,0.));
#770=DIRECTION('center_axis',(0.,0.,-1.));
#771=DIRECTION('ref_axis',(1.,0.,0.));
#772=DIRECTION('center_axis',(0.,0.,-1.));
#773=DIRECTION('ref_axis',(-1.,0.,0.));
#774=DIRECTION('',(0.,0.,-1.));
#775=DIRECTION('center_axis',(0.,0.,-1.));
#776=DIRECTION('ref_axis',(-1.,0.,0.));
#777=DIRECTION('center_axis',(0.,0.,-1.));
#778=DIRECTION('ref_axis',(1.,0.,0.));
#779=DIRECTION('center_axis',(0.,0.,-1.));
#780=DIRECTION('ref_axis',(1.,0.,0.));
#781=DIRECTION('center_axis',(0.,0.,-1.));
#782=DIRECTION('ref_axis',(-1.,0.,0.));
#783=DIRECTION('center_axis',(0.,0.,-1.));
#784=DIRECTION('ref_axis',(1.,0.,0.));
#785=DIRECTION('',(0.,0.,-1.));
#786=DIRECTION('center_axis',(0.,0.,1.));
#787=DIRECTION('ref_axis',(1.,0.,0.));
#788=DIRECTION('center_axis',(0.,0.,1.));
#789=DIRECTION('ref_axis',(1.,0.,0.));
#790=DIRECTION('center_axis',(0.,0.,1.));
#791=DIRECTION('ref_axis',(1.,0.,0.));
#792=DIRECTION('',(0.,0.,-1.));
#793=DIRECTION('center_axis',(0.,0.,1.));
#794=DIRECTION('ref_axis',(1.,0.,0.));
#795=DIRECTION('',(0.,0.,-1.));
#796=DIRECTION('center_axis',(0.,0.,-1.));
#797=DIRECTION('ref_axis',(1.,0.,0.));
#798=DIRECTION('center_axis',(0.,0.,-1.));
#799=DIRECTION('ref_axis',(-1.,0.,0.));
#800=DIRECTION('center_axis',(0.,0.,-1.));
#801=DIRECTION('ref_axis',(1.,0.,0.));
#802=DIRECTION('center_axis',(0.,0.,-1.));
#803=DIRECTION('ref_axis',(1.,0.,0.));
#804=DIRECTION('center_axis',(0.,0.,-1.));
#805=DIRECTION('ref_axis',(-1.,0.,0.));
#806=DIRECTION('center_axis',(0.,0.,-1.));
#807=DIRECTION('ref_axis',(1.,0.,0.));
#808=DIRECTION('',(0.,0.,-1.));
#809=DIRECTION('center_axis',(0.,0.,1.));
#810=DIRECTION('ref_axis',(1.,0.,0.));
#811=DIRECTION('center_axis',(0.,0.,1.));
#812=DIRECTION('ref_axis',(1.,0.,0.));
#813=DIRECTION('center_axis',(0.,0.,1.));
#814=DIRECTION('ref_axis',(1.,0.,0.));
#815=DIRECTION('center_axis',(0.,0.,1.));
#816=DIRECTION('ref_axis',(1.,0.,0.));
#817=DIRECTION('',(0.,0.,-1.));
#818=DIRECTION('center_axis',(0.,0.,1.));
#819=DIRECTION('ref_axis',(1.,0.,0.));
#820=DIRECTION('center_axis',(0.,0.,1.));
#821=DIRECTION('ref_axis',(1.,0.,0.));
#822=DIRECTION('center_axis',(0.,0.,1.));
#823=DIRECTION('ref_axis',(1.,0.,0.));
#824=DIRECTION('center_axis',(0.,0.,-1.));
#825=DIRECTION('ref_axis',(1.,0.,0.));
#826=DIRECTION('',(0.,0.,-1.));
#827=DIRECTION('center_axis',(0.,0.,1.));
#828=DIRECTION('ref_axis',(1.,0.,0.));
#829=DIRECTION('',(0.,0.,-1.));
#830=DIRECTION('center_axis',(0.,0.,1.));
#831=DIRECTION('ref_axis',(1.,0.,0.));
#832=CARTESIAN_POINT('',(0.,0.,0.));
#833=CARTESIAN_POINT('Origin',(0.,0.,0.));
#834=CARTESIAN_POINT('',(-5.,-6.12323399573677E-16,0.));
#835=CARTESIAN_POINT('Origin',(0.,0.,0.));
#836=CARTESIAN_POINT('',(-5.,-6.12323399573677E-16,2.5));
#837=CARTESIAN_POINT('',(-5.,-6.12323399573677E-16,0.));
#838=CARTESIAN_POINT('Origin',(0.,0.,2.5));
#839=CARTESIAN_POINT('Origin',(0.,0.,2.5));
#840=CARTESIAN_POINT('',(-2.,-2.44929359829471E-16,2.5));
#841=CARTESIAN_POINT('Origin',(0.,0.,2.5));
#842=CARTESIAN_POINT('Origin',(0.,0.,0.));
#843=CARTESIAN_POINT('',(-21.,-2.57175827820944E-15,0.));
#844=CARTESIAN_POINT('Origin',(0.,0.,0.));
#845=CARTESIAN_POINT('Origin',(0.,0.,0.));
#846=CARTESIAN_POINT('',(-2.,-2.44929359829471E-16,9.));
#847=CARTESIAN_POINT('Origin',(0.,0.,9.));
#848=CARTESIAN_POINT('',(-2.,-2.44929359829471E-16,0.));
#849=CARTESIAN_POINT('Origin',(0.,0.,9.));
#850=CARTESIAN_POINT('',(4.5,1.11022302462516E-15,9.));
#851=CARTESIAN_POINT('',(2.25,-3.89711431702998,9.));
#852=CARTESIAN_POINT('',(3.9375,-0.974278579257494,9.));
#853=CARTESIAN_POINT('',(2.25,3.89711431702997,9.));
#854=CARTESIAN_POINT('',(2.8125,2.92283573777248,9.));
#855=CARTESIAN_POINT('',(-2.25,3.89711431702998,9.));
#856=CARTESIAN_POINT('',(-1.125,3.89711431702998,9.));
#857=CARTESIAN_POINT('',(-4.5,1.2490009027033E-15,9.));
#858=CARTESIAN_POINT('',(-3.9375,0.974278579257495,9.));
#859=CARTESIAN_POINT('',(-2.25,-3.89711431702997,9.));
#860=CARTESIAN_POINT('',(-2.8125,-2.92283573777248,9.));
#861=CARTESIAN_POINT('',(1.125,-3.89711431702997,9.));
#862=CARTESIAN_POINT('Origin',(-4.5,1.11022302462516E-15,0.));
#863=CARTESIAN_POINT('',(-2.25,3.89711431702998,11.4));
#864=CARTESIAN_POINT('',(-2.25,3.89711431702998,0.));
#865=CARTESIAN_POINT('',(-4.5,1.2490009027033E-15,11.4));
#866=CARTESIAN_POINT('',(-2.25,3.89711431702998,11.4));
#867=CARTESIAN_POINT('',(-4.5,1.2490009027033E-15,0.));
#868=CARTESIAN_POINT('Origin',(-2.25,3.89711431702998,0.));
#869=CARTESIAN_POINT('',(2.25,3.89711431702997,11.4));
#870=CARTESIAN_POINT('',(2.25,3.89711431702997,0.));
#871=CARTESIAN_POINT('',(2.25,3.89711431702997,11.4));
#872=CARTESIAN_POINT('Origin',(2.25,3.89711431702997,0.));
#873=CARTESIAN_POINT('',(4.5,1.11022302462516E-15,11.4));
#874=CARTESIAN_POINT('',(4.5,1.11022302462516E-15,0.));
#875=CARTESIAN_POINT('',(4.5,1.11022302462516E-15,11.4));
#876=CARTESIAN_POINT('Origin',(-3.25,5.62916512459885,0.));
#877=CARTESIAN_POINT('',(-6.5,1.11022302462516E-15,2.5));
#878=CARTESIAN_POINT('',(-3.25,5.62916512459885,2.5));
#879=CARTESIAN_POINT('',(-4.0625,4.22187384344914,2.5));
#880=CARTESIAN_POINT('',(-6.5,1.11022302462516E-15,11.4));
#881=CARTESIAN_POINT('',(-6.5,1.11022302462516E-15,0.));
#882=CARTESIAN_POINT('',(-3.25,5.62916512459885,11.4));
#883=CARTESIAN_POINT('',(-3.25,5.62916512459885,11.4));
#884=CARTESIAN_POINT('',(-3.25,5.62916512459885,0.));
#885=CARTESIAN_POINT('Origin',(-6.5,1.11022302462516E-15,0.));
#886=CARTESIAN_POINT('',(-3.25,-5.62916512459885,2.5));
#887=CARTESIAN_POINT('',(-5.6875,-1.40729128114971,2.5));
#888=CARTESIAN_POINT('',(-3.25,-5.62916512459885,11.4));
#889=CARTESIAN_POINT('',(-3.25,-5.62916512459885,0.));
#890=CARTESIAN_POINT('',(-6.5,1.11022302462516E-15,11.4));
#891=CARTESIAN_POINT('Origin',(-3.25,-5.62916512459885,0.));
#892=CARTESIAN_POINT('',(3.25,-5.62916512459885,2.5));
#893=CARTESIAN_POINT('',(-1.625,-5.62916512459885,2.5));
#894=CARTESIAN_POINT('',(3.25,-5.62916512459885,11.4));
#895=CARTESIAN_POINT('',(3.25,-5.62916512459885,0.));
#896=CARTESIAN_POINT('',(-3.25,-5.62916512459885,11.4));
#897=CARTESIAN_POINT('Origin',(-2.25,-3.89711431702997,0.));
#898=CARTESIAN_POINT('',(-2.25,-3.89711431702997,11.4));
#899=CARTESIAN_POINT('',(-4.5,1.2490009027033E-15,11.4));
#900=CARTESIAN_POINT('',(-2.25,-3.89711431702997,0.));
#901=CARTESIAN_POINT('Origin',(2.25,-3.89711431702998,0.));
#902=CARTESIAN_POINT('',(2.25,-3.89711431702998,11.4));
#903=CARTESIAN_POINT('',(-2.25,-3.89711431702997,11.4));
#904=CARTESIAN_POINT('',(2.25,-3.89711431702998,0.));
#905=CARTESIAN_POINT('Origin',(4.5,5.55111512312578E-16,0.));
#906=CARTESIAN_POINT('',(2.25,-3.89711431702998,11.4));
#907=CARTESIAN_POINT('Origin',(3.25,5.62916512459885,0.));
#908=CARTESIAN_POINT('',(3.25,5.62916512459885,2.5));
#909=CARTESIAN_POINT('',(1.625,5.62916512459885,2.5));
#910=CARTESIAN_POINT('',(3.25,5.62916512459885,11.4));
#911=CARTESIAN_POINT('',(3.25,5.62916512459885,11.4));
#912=CARTESIAN_POINT('',(3.25,5.62916512459885,0.));
#913=CARTESIAN_POINT('Origin',(6.5,1.11022302462516E-15,0.));
#914=CARTESIAN_POINT('',(6.5,1.11022302462516E-15,2.5));
#915=CARTESIAN_POINT('',(5.6875,1.40729128114971,2.5));
#916=CARTESIAN_POINT('',(6.5,1.11022302462516E-15,11.4));
#917=CARTESIAN_POINT('',(6.5,1.11022302462516E-15,11.4));
#918=CARTESIAN_POINT('',(6.5,1.11022302462516E-15,0.));
#919=CARTESIAN_POINT('Origin',(3.25,-5.62916512459885,0.));
#920=CARTESIAN_POINT('',(4.0625,-4.22187384344914,2.5));
#921=CARTESIAN_POINT('',(3.25,-5.62916512459885,11.4));
#922=CARTESIAN_POINT('Origin',(0.,0.,11.4));
#923=CARTESIAN_POINT('Origin',(0.,0.,2.5));
#924=CARTESIAN_POINT('',(-18.5,2.2655965784226E-15,2.5));
#925=CARTESIAN_POINT('Origin',(0.,0.,2.5));
#926=CARTESIAN_POINT('Origin',(0.,0.,0.));
#927=CARTESIAN_POINT('',(-18.5,2.2655965784226E-15,18.));
#928=CARTESIAN_POINT('',(-18.5,-2.2655965784226E-15,0.));
#929=CARTESIAN_POINT('Origin',(0.,0.,18.));
#930=CARTESIAN_POINT('Origin',(0.,0.,0.));
#931=CARTESIAN_POINT('',(-21.,-2.57175827820944E-15,18.));
#932=CARTESIAN_POINT('Origin',(0.,0.,18.));
#933=CARTESIAN_POINT('',(-21.,-2.57175827820944E-15,0.));
#934=CARTESIAN_POINT('Origin',(0.,0.,18.));
#935=CARTESIAN_POINT('Origin',(-29.5,0.,10.2));
#936=CARTESIAN_POINT('',(-29.5,0.,10.2));
#937=CARTESIAN_POINT('Origin',(0.,0.,10.2));
#938=CARTESIAN_POINT('',(28.3,-3.46575044158701E-15,10.2));
#939=CARTESIAN_POINT('Origin',(0.,0.,10.2));
#940=CARTESIAN_POINT('Origin',(-28.3,0.,7.8000002682209));
#941=CARTESIAN_POINT('',(-29.5,0.,7.8000002682209));
#942=CARTESIAN_POINT('Origin',(0.,0.,7.8000002682209));
#943=CARTESIAN_POINT('',(28.3,-3.46575044158701E-15,7.8000002682209));
#944=CARTESIAN_POINT('Origin',(0.,0.,7.8000002682209));
#945=CARTESIAN_POINT('Origin',(0.,0.,9.00000013411045));
#946=CARTESIAN_POINT('',(28.3,-3.46575044158701E-15,9.00000013411045));
#947=CARTESIAN_POINT('Origin',(-28.3,0.,2.9000002682209));
#948=CARTESIAN_POINT('',(-29.5,0.,2.9000002682209));
#949=CARTESIAN_POINT('Origin',(0.,0.,2.9000002682209));
#950=CARTESIAN_POINT('',(28.3,-3.46575044158701E-15,2.9000002682209));
#951=CARTESIAN_POINT('Origin',(0.,0.,2.9000002682209));
#952=CARTESIAN_POINT('Origin',(0.,0.,4.1000002682209));
#953=CARTESIAN_POINT('',(28.3,-3.46575044158701E-15,5.3000002682209));
#954=CARTESIAN_POINT('Origin',(0.,0.,5.3000002682209));
#955=CARTESIAN_POINT('',(28.3,-3.46575044158701E-15,4.1000002682209));
#956=CARTESIAN_POINT('Origin',(-29.5,0.,5.3000002682209));
#957=CARTESIAN_POINT('',(-29.5,0.,5.3000002682209));
#958=CARTESIAN_POINT('Origin',(0.,0.,5.3000002682209));
#959=CARTESIAN_POINT('Origin',(0.,0.,0.));
#960=CARTESIAN_POINT('',(-29.5,-3.61270805748469E-15,0.));
#961=CARTESIAN_POINT('Origin',(0.,0.,0.));
#962=CARTESIAN_POINT('',(-29.5,-3.61270805748469E-15,-0.5));
#963=CARTESIAN_POINT('',(-29.5,-3.61270805748469E-15,0.));
#964=CARTESIAN_POINT('Origin',(0.,0.,-0.5));
#965=CARTESIAN_POINT('Origin',(-28.3,0.,12.7));
#966=CARTESIAN_POINT('',(-29.5,0.,12.7));
#967=CARTESIAN_POINT('Origin',(0.,0.,12.7));
#968=CARTESIAN_POINT('',(28.3,-3.46575044158701E-15,12.7));
#969=CARTESIAN_POINT('Origin',(0.,0.,12.7));
#970=CARTESIAN_POINT('Origin',(0.,0.,13.9));
#971=CARTESIAN_POINT('',(28.3,-3.46575044158701E-15,15.1));
#972=CARTESIAN_POINT('Origin',(0.,0.,15.1));
#973=CARTESIAN_POINT('',(28.3,-3.46575044158701E-15,13.9));
#974=CARTESIAN_POINT('Origin',(-29.5,0.,15.1));
#975=CARTESIAN_POINT('',(-29.5,0.,15.1));
#976=CARTESIAN_POINT('Origin',(0.,0.,15.1));
#977=CARTESIAN_POINT('Origin',(0.,0.,0.));
#978=CARTESIAN_POINT('',(-29.5,-3.61270805748469E-15,18.5));
#979=CARTESIAN_POINT('Origin',(0.,0.,18.5));
#980=CARTESIAN_POINT('',(-29.5,-3.61270805748469E-15,0.));
#981=CARTESIAN_POINT('Origin',(0.,0.,-0.5));
#982=CARTESIAN_POINT('',(-21.,-2.57175827820944E-15,-0.5));
#983=CARTESIAN_POINT('Origin',(0.,0.,-0.5));
#984=CARTESIAN_POINT('Origin',(0.,0.,0.));
#985=CARTESIAN_POINT('',(-21.,-2.57175827820944E-15,18.5));
#986=CARTESIAN_POINT('Origin',(0.,0.,18.5));
#987=CARTESIAN_POINT('',(-21.,-2.57175827820944E-15,0.));
#988=CARTESIAN_POINT('Origin',(0.,0.,0.));
#989=CARTESIAN_POINT('',(-29.5,-3.61270805748469E-15,0.));
#990=CARTESIAN_POINT('Origin',(0.,0.,18.5));
#991=UNCERTAINTY_MEASURE_WITH_UNIT(LENGTH_MEASURE(0.01),#995,
'DISTANCE_ACCURACY_VALUE',
'Maximum model space distance between geometric entities at asserted c
onnectivities');
#992=UNCERTAINTY_MEASURE_WITH_UNIT(LENGTH_MEASURE(0.01),#995,
'DISTANCE_ACCURACY_VALUE',
'Maximum model space distance between geometric entities at asserted c
onnectivities');
#993=(
GEOMETRIC_REPRESENTATION_CONTEXT(3)
GLOBAL_UNCERTAINTY_ASSIGNED_CONTEXT((#991))
GLOBAL_UNIT_ASSIGNED_CONTEXT((#995,#997,#998))
REPRESENTATION_CONTEXT('','3D')
);
#994=(
GEOMETRIC_REPRESENTATION_CONTEXT(3)
GLOBAL_UNCERTAINTY_ASSIGNED_CONTEXT((#992))
GLOBAL_UNIT_ASSIGNED_CONTEXT((#995,#997,#998))
REPRESENTATION_CONTEXT('','3D')
);
#995=(
LENGTH_UNIT()
NAMED_UNIT(*)
SI_UNIT(.MILLI.,.METRE.)
);
#996=(
LENGTH_UNIT()
NAMED_UNIT(*)
SI_UNIT($,.METRE.)
);
#997=(
NAMED_UNIT(*)
PLANE_ANGLE_UNIT()
SI_UNIT($,.RADIAN.)
);
#998=(
NAMED_UNIT(*)
SI_UNIT($,.STERADIAN.)
SOLID_ANGLE_UNIT()
);
#999=SHAPE_DEFINITION_REPRESENTATION(#1000,#1001);
#1000=PRODUCT_DEFINITION_SHAPE('',$,#1003);
#1001=SHAPE_REPRESENTATION('',(#595),#993);
#1002=PRODUCT_DEFINITION_CONTEXT('part definition',#1007,'design');
#1003=PRODUCT_DEFINITION('2026-05-09-03-37-30-859','\X2\524D8F6EFF08\X0\L
OS\X2\FF09\X0\',#1004,#1002);
#1004=PRODUCT_DEFINITION_FORMATION('',$,#1009);
#1005=PRODUCT_RELATED_PRODUCT_CATEGORY('\X2\524D8F6EFF08\X0\LOS\X2\FF09\X0\',
'\X2\524D8F6EFF08\X0\LOS\X2\FF09\X0\',(#1009));
#1006=APPLICATION_PROTOCOL_DEFINITION('international standard',
'automotive_design',2009,#1007);
#1007=APPLICATION_CONTEXT(
'Core Data for Automotive Mechanical Design Process');
#1008=PRODUCT_CONTEXT('part definition',#1007,'mechanical');
#1009=PRODUCT('2026-05-09-03-37-30-859','\X2\524D8F6EFF08\X0\LOS\X2\FF09\X0\',
$,(#1008));
#1010=PRESENTATION_STYLE_ASSIGNMENT((#1011));
#1011=SURFACE_STYLE_USAGE(.BOTH.,#1012);
#1012=SURFACE_SIDE_STYLE('',(#1013));
#1013=SURFACE_STYLE_FILL_AREA(#1014);
#1014=FILL_AREA_STYLE('\X2\94A2\X0\ - \X2\7F0E5149\X0\',(#1015));
#1015=FILL_AREA_STYLE_COLOUR('\X2\94A2\X0\ - \X2\7F0E5149\X0\',#1016);
#1016=COLOUR_RGB('\X2\94A2\X0\ - \X2\7F0E5149\X0\',0.627450980392157,0.627450980392157,
0.627450980392157);
ENDSEC;
END-ISO-10303-21;
