ISO-10303-21;
HEADER;
/* Generated by software containing ST-Developer
 * from STEP Tools, Inc. (www.steptools.com) 
 */

FILE_DESCRIPTION(
/* description */ (''),
/* implementation_level */ '2;1');

FILE_NAME(
/* name */ '',
/* time_stamp */ '2026-08-11T12:34:17+09:00',
/* author */ (''),
/* organization */ (''),
/* preprocessor_version */ 'ST-DEVELOPER v20.1',
/* originating_system */ 'Autodesk Translation Framework v15.8.0.0',
/* authorisation */ '');

FILE_SCHEMA (('AUTOMOTIVE_DESIGN { 1 0 10303 214 3 1 1 }'));
ENDSEC;

DATA;
#10=MECHANICAL_DESIGN_GEOMETRIC_PRESENTATION_REPRESENTATION('',(#13,#14),
#1189);
#11=SHAPE_REPRESENTATION_RELATIONSHIP('SRR','None',#1196,#12);
#12=ADVANCED_BREP_SHAPE_REPRESENTATION('',(#15,#16),#1188);
#13=STYLED_ITEM('',(#1205),#15);
#14=STYLED_ITEM('',(#1205),#16);
#15=MANIFOLD_SOLID_BREP('\X2\5B9E4F53\X0\1',#730);
#16=MANIFOLD_SOLID_BREP('\X2\5B9E4F53\X0\2',#731);
#17=FACE_BOUND('',#103,.T.);
#18=FACE_BOUND('',#111,.T.);
#19=FACE_BOUND('',#112,.T.);
#20=FACE_BOUND('',#114,.T.);
#21=FACE_BOUND('',#115,.T.);
#22=FACE_BOUND('',#117,.T.);
#23=FACE_BOUND('',#118,.T.);
#24=FACE_BOUND('',#130,.T.);
#25=FACE_BOUND('',#131,.T.);
#26=FACE_BOUND('',#146,.T.);
#27=PLANE('',#748);
#28=PLANE('',#752);
#29=PLANE('',#753);
#30=PLANE('',#754);
#31=PLANE('',#755);
#32=PLANE('',#756);
#33=PLANE('',#757);
#34=PLANE('',#758);
#35=PLANE('',#759);
#36=PLANE('',#762);
#37=PLANE('',#765);
#38=PLANE('',#774);
#39=PLANE('',#775);
#40=PLANE('',#776);
#41=PLANE('',#777);
#42=PLANE('',#778);
#43=PLANE('',#779);
#44=PLANE('',#780);
#45=PLANE('',#781);
#46=PLANE('',#782);
#47=PLANE('',#783);
#48=PLANE('',#784);
#49=PLANE('',#785);
#50=PLANE('',#786);
#51=PLANE('',#787);
#52=PLANE('',#788);
#53=PLANE('',#789);
#54=PLANE('',#790);
#55=PLANE('',#791);
#56=PLANE('',#792);
#57=PLANE('',#793);
#58=PLANE('',#794);
#59=PLANE('',#795);
#60=FACE_OUTER_BOUND('',#99,.T.);
#61=FACE_OUTER_BOUND('',#100,.T.);
#62=FACE_OUTER_BOUND('',#101,.T.);
#63=FACE_OUTER_BOUND('',#102,.T.);
#64=FACE_OUTER_BOUND('',#104,.T.);
#65=FACE_OUTER_BOUND('',#105,.T.);
#66=FACE_OUTER_BOUND('',#106,.T.);
#67=FACE_OUTER_BOUND('',#107,.T.);
#68=FACE_OUTER_BOUND('',#108,.T.);
#69=FACE_OUTER_BOUND('',#109,.T.);
#70=FACE_OUTER_BOUND('',#110,.T.);
#71=FACE_OUTER_BOUND('',#113,.T.);
#72=FACE_OUTER_BOUND('',#116,.T.);
#73=FACE_OUTER_BOUND('',#119,.T.);
#74=FACE_OUTER_BOUND('',#120,.T.);
#75=FACE_OUTER_BOUND('',#121,.T.);
#76=FACE_OUTER_BOUND('',#122,.T.);
#77=FACE_OUTER_BOUND('',#123,.T.);
#78=FACE_OUTER_BOUND('',#124,.T.);
#79=FACE_OUTER_BOUND('',#125,.T.);
#80=FACE_OUTER_BOUND('',#126,.T.);
#81=FACE_OUTER_BOUND('',#127,.T.);
#82=FACE_OUTER_BOUND('',#128,.T.);
#83=FACE_OUTER_BOUND('',#129,.T.);
#84=FACE_OUTER_BOUND('',#132,.T.);
#85=FACE_OUTER_BOUND('',#133,.T.);
#86=FACE_OUTER_BOUND('',#134,.T.);
#87=FACE_OUTER_BOUND('',#135,.T.);
#88=FACE_OUTER_BOUND('',#136,.T.);
#89=FACE_OUTER_BOUND('',#137,.T.);
#90=FACE_OUTER_BOUND('',#138,.T.);
#91=FACE_OUTER_BOUND('',#139,.T.);
#92=FACE_OUTER_BOUND('',#140,.T.);
#93=FACE_OUTER_BOUND('',#141,.T.);
#94=FACE_OUTER_BOUND('',#142,.T.);
#95=FACE_OUTER_BOUND('',#143,.T.);
#96=FACE_OUTER_BOUND('',#144,.T.);
#97=FACE_OUTER_BOUND('',#145,.T.);
#98=FACE_OUTER_BOUND('',#147,.T.);
#99=EDGE_LOOP('',(#491,#492,#493,#494));
#100=EDGE_LOOP('',(#495));
#101=EDGE_LOOP('',(#496,#497,#498,#499));
#102=EDGE_LOOP('',(#500));
#103=EDGE_LOOP('',(#501));
#104=EDGE_LOOP('',(#502,#503,#504,#505,#506,#507));
#105=EDGE_LOOP('',(#508,#509,#510,#511));
#106=EDGE_LOOP('',(#512,#513,#514,#515,#516,#517,#518,#519,#520,#521,#522,
#523,#524,#525));
#107=EDGE_LOOP('',(#526,#527,#528,#529,#530));
#108=EDGE_LOOP('',(#531,#532,#533,#534));
#109=EDGE_LOOP('',(#535,#536,#537,#538));
#110=EDGE_LOOP('',(#539,#540,#541,#542,#543,#544));
#111=EDGE_LOOP('',(#545));
#112=EDGE_LOOP('',(#546));
#113=EDGE_LOOP('',(#547,#548,#549,#550,#551,#552));
#114=EDGE_LOOP('',(#553));
#115=EDGE_LOOP('',(#554));
#116=EDGE_LOOP('',(#555,#556,#557,#558,#559,#560));
#117=EDGE_LOOP('',(#561));
#118=EDGE_LOOP('',(#562));
#119=EDGE_LOOP('',(#563,#564,#565,#566));
#120=EDGE_LOOP('',(#567,#568,#569,#570));
#121=EDGE_LOOP('',(#571,#572,#573,#574));
#122=EDGE_LOOP('',(#575,#576,#577,#578));
#123=EDGE_LOOP('',(#579,#580,#581,#582));
#124=EDGE_LOOP('',(#583,#584,#585,#586));
#125=EDGE_LOOP('',(#587,#588,#589,#590));
#126=EDGE_LOOP('',(#591,#592,#593,#594));
#127=EDGE_LOOP('',(#595,#596,#597,#598));
#128=EDGE_LOOP('',(#599,#600,#601,#602));
#129=EDGE_LOOP('',(#603,#604,#605,#606,#607,#608));
#130=EDGE_LOOP('',(#609));
#131=EDGE_LOOP('',(#610));
#132=EDGE_LOOP('',(#611,#612,#613,#614));
#133=EDGE_LOOP('',(#615,#616,#617,#618,#619,#620,#621,#622,#623,#624,#625,
#626,#627,#628));
#134=EDGE_LOOP('',(#629,#630,#631,#632));
#135=EDGE_LOOP('',(#633,#634,#635,#636));
#136=EDGE_LOOP('',(#637,#638,#639,#640));
#137=EDGE_LOOP('',(#641,#642,#643,#644));
#138=EDGE_LOOP('',(#645,#646,#647,#648));
#139=EDGE_LOOP('',(#649,#650,#651,#652));
#140=EDGE_LOOP('',(#653,#654,#655,#656));
#141=EDGE_LOOP('',(#657,#658,#659,#660));
#142=EDGE_LOOP('',(#661,#662,#663,#664));
#143=EDGE_LOOP('',(#665,#666,#667,#668));
#144=EDGE_LOOP('',(#669,#670,#671,#672));
#145=EDGE_LOOP('',(#673,#674,#675,#676));
#146=EDGE_LOOP('',(#677,#678,#679,#680));
#147=EDGE_LOOP('',(#681,#682,#683,#684));
#148=LINE('',#990,#233);
#149=LINE('',#997,#234);
#150=LINE('',#1003,#235);
#151=LINE('',#1005,#236);
#152=LINE('',#1006,#237);
#153=LINE('',#1008,#238);
#154=LINE('',#1009,#239);
#155=LINE('',#1012,#240);
#156=LINE('',#1014,#241);
#157=LINE('',#1015,#242);
#158=LINE('',#1018,#243);
#159=LINE('',#1020,#244);
#160=LINE('',#1022,#245);
#161=LINE('',#1024,#246);
#162=LINE('',#1026,#247);
#163=LINE('',#1028,#248);
#164=LINE('',#1030,#249);
#165=LINE('',#1032,#250);
#166=LINE('',#1034,#251);
#167=LINE('',#1036,#252);
#168=LINE('',#1038,#253);
#169=LINE('',#1039,#254);
#170=LINE('',#1042,#255);
#171=LINE('',#1043,#256);
#172=LINE('',#1046,#257);
#173=LINE('',#1047,#258);
#174=LINE('',#1050,#259);
#175=LINE('',#1051,#260);
#176=LINE('',#1054,#261);
#177=LINE('',#1056,#262);
#178=LINE('',#1058,#263);
#179=LINE('',#1059,#264);
#180=LINE('',#1066,#265);
#181=LINE('',#1068,#266);
#182=LINE('',#1070,#267);
#183=LINE('',#1072,#268);
#184=LINE('',#1073,#269);
#185=LINE('',#1080,#270);
#186=LINE('',#1082,#271);
#187=LINE('',#1084,#272);
#188=LINE('',#1086,#273);
#189=LINE('',#1087,#274);
#190=LINE('',#1093,#275);
#191=LINE('',#1095,#276);
#192=LINE('',#1099,#277);
#193=LINE('',#1103,#278);
#194=LINE('',#1106,#279);
#195=LINE('',#1108,#280);
#196=LINE('',#1109,#281);
#197=LINE('',#1112,#282);
#198=LINE('',#1113,#283);
#199=LINE('',#1115,#284);
#200=LINE('',#1117,#285);
#201=LINE('',#1119,#286);
#202=LINE('',#1121,#287);
#203=LINE('',#1123,#288);
#204=LINE('',#1126,#289);
#205=LINE('',#1127,#290);
#206=LINE('',#1130,#291);
#207=LINE('',#1131,#292);
#208=LINE('',#1133,#293);
#209=LINE('',#1138,#294);
#210=LINE('',#1140,#295);
#211=LINE('',#1142,#296);
#212=LINE('',#1143,#297);
#213=LINE('',#1146,#298);
#214=LINE('',#1148,#299);
#215=LINE('',#1149,#300);
#216=LINE('',#1152,#301);
#217=LINE('',#1154,#302);
#218=LINE('',#1155,#303);
#219=LINE('',#1157,#304);
#220=LINE('',#1158,#305);
#221=LINE('',#1163,#306);
#222=LINE('',#1165,#307);
#223=LINE('',#1167,#308);
#224=LINE('',#1168,#309);
#225=LINE('',#1171,#310);
#226=LINE('',#1173,#311);
#227=LINE('',#1174,#312);
#228=LINE('',#1177,#313);
#229=LINE('',#1179,#314);
#230=LINE('',#1180,#315);
#231=LINE('',#1182,#316);
#232=LINE('',#1183,#317);
#233=VECTOR('',#802,2.9);
#234=VECTOR('',#811,5.15);
#235=VECTOR('',#818,10.);
#236=VECTOR('',#819,10.);
#237=VECTOR('',#820,10.);
#238=VECTOR('',#821,10.);
#239=VECTOR('',#822,10.);
#240=VECTOR('',#825,10.);
#241=VECTOR('',#826,10.);
#242=VECTOR('',#827,10.);
#243=VECTOR('',#830,10.);
#244=VECTOR('',#831,10.);
#245=VECTOR('',#832,10.);
#246=VECTOR('',#833,10.);
#247=VECTOR('',#834,10.);
#248=VECTOR('',#835,10.);
#249=VECTOR('',#836,10.);
#250=VECTOR('',#837,10.);
#251=VECTOR('',#838,10.);
#252=VECTOR('',#839,10.);
#253=VECTOR('',#840,10.);
#254=VECTOR('',#841,10.);
#255=VECTOR('',#844,10.);
#256=VECTOR('',#845,10.);
#257=VECTOR('',#848,10.);
#258=VECTOR('',#849,10.);
#259=VECTOR('',#852,10.);
#260=VECTOR('',#853,10.);
#261=VECTOR('',#856,10.);
#262=VECTOR('',#857,10.);
#263=VECTOR('',#858,10.);
#264=VECTOR('',#859,10.);
#265=VECTOR('',#866,10.);
#266=VECTOR('',#867,10.);
#267=VECTOR('',#868,10.);
#268=VECTOR('',#869,10.);
#269=VECTOR('',#870,10.);
#270=VECTOR('',#877,10.);
#271=VECTOR('',#878,10.);
#272=VECTOR('',#879,10.);
#273=VECTOR('',#880,10.);
#274=VECTOR('',#881,10.);
#275=VECTOR('',#888,2.1);
#276=VECTOR('',#891,2.1);
#277=VECTOR('',#896,2.1);
#278=VECTOR('',#901,2.1);
#279=VECTOR('',#904,10.);
#280=VECTOR('',#905,10.);
#281=VECTOR('',#906,10.);
#282=VECTOR('',#909,10.);
#283=VECTOR('',#910,10.);
#284=VECTOR('',#913,10.);
#285=VECTOR('',#916,10.);
#286=VECTOR('',#919,10.);
#287=VECTOR('',#922,10.);
#288=VECTOR('',#925,10.);
#289=VECTOR('',#928,10.);
#290=VECTOR('',#929,10.);
#291=VECTOR('',#932,10.);
#292=VECTOR('',#933,10.);
#293=VECTOR('',#936,10.);
#294=VECTOR('',#941,10.);
#295=VECTOR('',#942,10.);
#296=VECTOR('',#943,10.);
#297=VECTOR('',#944,10.);
#298=VECTOR('',#947,10.);
#299=VECTOR('',#948,10.);
#300=VECTOR('',#949,10.);
#301=VECTOR('',#952,10.);
#302=VECTOR('',#953,10.);
#303=VECTOR('',#954,10.);
#304=VECTOR('',#957,10.);
#305=VECTOR('',#958,10.);
#306=VECTOR('',#963,10.);
#307=VECTOR('',#964,10.);
#308=VECTOR('',#965,10.);
#309=VECTOR('',#966,10.);
#310=VECTOR('',#969,10.);
#311=VECTOR('',#970,10.);
#312=VECTOR('',#971,10.);
#313=VECTOR('',#974,10.);
#314=VECTOR('',#975,10.);
#315=VECTOR('',#976,10.);
#316=VECTOR('',#979,10.);
#317=VECTOR('',#980,10.);
#318=CIRCLE('',#746,2.9);
#319=CIRCLE('',#747,2.9);
#320=CIRCLE('',#750,5.15);
#321=CIRCLE('',#751,5.15);
#322=CIRCLE('',#760,2.1);
#323=CIRCLE('',#761,2.1);
#324=CIRCLE('',#763,2.1);
#325=CIRCLE('',#764,2.1);
#326=CIRCLE('',#766,2.1);
#327=CIRCLE('',#767,2.1);
#328=CIRCLE('',#771,2.1);
#329=CIRCLE('',#773,2.1);
#330=VERTEX_POINT('',#987);
#331=VERTEX_POINT('',#989);
#332=VERTEX_POINT('',#994);
#333=VERTEX_POINT('',#996);
#334=VERTEX_POINT('',#1001);
#335=VERTEX_POINT('',#1002);
#336=VERTEX_POINT('',#1004);
#337=VERTEX_POINT('',#1007);
#338=VERTEX_POINT('',#1011);
#339=VERTEX_POINT('',#1013);
#340=VERTEX_POINT('',#1017);
#341=VERTEX_POINT('',#1019);
#342=VERTEX_POINT('',#1021);
#343=VERTEX_POINT('',#1023);
#344=VERTEX_POINT('',#1025);
#345=VERTEX_POINT('',#1027);
#346=VERTEX_POINT('',#1029);
#347=VERTEX_POINT('',#1031);
#348=VERTEX_POINT('',#1033);
#349=VERTEX_POINT('',#1035);
#350=VERTEX_POINT('',#1037);
#351=VERTEX_POINT('',#1041);
#352=VERTEX_POINT('',#1045);
#353=VERTEX_POINT('',#1049);
#354=VERTEX_POINT('',#1053);
#355=VERTEX_POINT('',#1055);
#356=VERTEX_POINT('',#1057);
#357=VERTEX_POINT('',#1060);
#358=VERTEX_POINT('',#1062);
#359=VERTEX_POINT('',#1065);
#360=VERTEX_POINT('',#1067);
#361=VERTEX_POINT('',#1069);
#362=VERTEX_POINT('',#1071);
#363=VERTEX_POINT('',#1074);
#364=VERTEX_POINT('',#1076);
#365=VERTEX_POINT('',#1079);
#366=VERTEX_POINT('',#1081);
#367=VERTEX_POINT('',#1083);
#368=VERTEX_POINT('',#1085);
#369=VERTEX_POINT('',#1088);
#370=VERTEX_POINT('',#1090);
#371=VERTEX_POINT('',#1097);
#372=VERTEX_POINT('',#1101);
#373=VERTEX_POINT('',#1105);
#374=VERTEX_POINT('',#1107);
#375=VERTEX_POINT('',#1111);
#376=VERTEX_POINT('',#1125);
#377=VERTEX_POINT('',#1129);
#378=VERTEX_POINT('',#1136);
#379=VERTEX_POINT('',#1137);
#380=VERTEX_POINT('',#1139);
#381=VERTEX_POINT('',#1141);
#382=VERTEX_POINT('',#1145);
#383=VERTEX_POINT('',#1147);
#384=VERTEX_POINT('',#1151);
#385=VERTEX_POINT('',#1153);
#386=VERTEX_POINT('',#1161);
#387=VERTEX_POINT('',#1162);
#388=VERTEX_POINT('',#1164);
#389=VERTEX_POINT('',#1166);
#390=VERTEX_POINT('',#1170);
#391=VERTEX_POINT('',#1172);
#392=VERTEX_POINT('',#1176);
#393=VERTEX_POINT('',#1178);
#394=EDGE_CURVE('',#330,#330,#318,.T.);
#395=EDGE_CURVE('',#330,#331,#148,.T.);
#396=EDGE_CURVE('',#331,#331,#319,.T.);
#397=EDGE_CURVE('',#332,#332,#320,.T.);
#398=EDGE_CURVE('',#332,#333,#149,.T.);
#399=EDGE_CURVE('',#333,#333,#321,.T.);
#400=EDGE_CURVE('',#334,#335,#150,.T.);
#401=EDGE_CURVE('',#334,#336,#151,.T.);
#402=EDGE_CURVE('',#333,#336,#152,.T.);
#403=EDGE_CURVE('',#337,#333,#153,.T.);
#404=EDGE_CURVE('',#337,#335,#154,.T.);
#405=EDGE_CURVE('',#338,#334,#155,.T.);
#406=EDGE_CURVE('',#335,#339,#156,.T.);
#407=EDGE_CURVE('',#339,#338,#157,.T.);
#408=EDGE_CURVE('',#340,#338,#158,.T.);
#409=EDGE_CURVE('',#341,#340,#159,.T.);
#410=EDGE_CURVE('',#342,#341,#160,.T.);
#411=EDGE_CURVE('',#343,#342,#161,.T.);
#412=EDGE_CURVE('',#344,#343,#162,.T.);
#413=EDGE_CURVE('',#344,#345,#163,.T.);
#414=EDGE_CURVE('',#345,#346,#164,.T.);
#415=EDGE_CURVE('',#347,#346,#165,.T.);
#416=EDGE_CURVE('',#347,#348,#166,.T.);
#417=EDGE_CURVE('',#349,#348,#167,.T.);
#418=EDGE_CURVE('',#349,#350,#168,.T.);
#419=EDGE_CURVE('',#336,#350,#169,.T.);
#420=EDGE_CURVE('',#351,#337,#170,.T.);
#421=EDGE_CURVE('',#350,#351,#171,.T.);
#422=EDGE_CURVE('',#352,#349,#172,.T.);
#423=EDGE_CURVE('',#352,#351,#173,.T.);
#424=EDGE_CURVE('',#353,#339,#174,.T.);
#425=EDGE_CURVE('',#340,#353,#175,.T.);
#426=EDGE_CURVE('',#353,#354,#176,.T.);
#427=EDGE_CURVE('',#354,#355,#177,.T.);
#428=EDGE_CURVE('',#355,#356,#178,.T.);
#429=EDGE_CURVE('',#356,#341,#179,.T.);
#430=EDGE_CURVE('',#357,#357,#322,.T.);
#431=EDGE_CURVE('',#358,#358,#323,.T.);
#432=EDGE_CURVE('',#359,#343,#180,.T.);
#433=EDGE_CURVE('',#342,#360,#181,.T.);
#434=EDGE_CURVE('',#360,#361,#182,.T.);
#435=EDGE_CURVE('',#362,#361,#183,.T.);
#436=EDGE_CURVE('',#362,#359,#184,.T.);
#437=EDGE_CURVE('',#363,#363,#324,.T.);
#438=EDGE_CURVE('',#364,#364,#325,.T.);
#439=EDGE_CURVE('',#346,#365,#185,.T.);
#440=EDGE_CURVE('',#365,#366,#186,.T.);
#441=EDGE_CURVE('',#367,#366,#187,.T.);
#442=EDGE_CURVE('',#367,#368,#188,.T.);
#443=EDGE_CURVE('',#347,#368,#189,.T.);
#444=EDGE_CURVE('',#369,#369,#326,.T.);
#445=EDGE_CURVE('',#370,#370,#327,.T.);
#446=EDGE_CURVE('',#358,#364,#190,.T.);
#447=EDGE_CURVE('',#357,#363,#191,.T.);
#448=EDGE_CURVE('',#371,#371,#328,.T.);
#449=EDGE_CURVE('',#371,#369,#192,.T.);
#450=EDGE_CURVE('',#372,#372,#329,.T.);
#451=EDGE_CURVE('',#372,#370,#193,.T.);
#452=EDGE_CURVE('',#366,#373,#194,.T.);
#453=EDGE_CURVE('',#374,#373,#195,.T.);
#454=EDGE_CURVE('',#367,#374,#196,.T.);
#455=EDGE_CURVE('',#375,#374,#197,.T.);
#456=EDGE_CURVE('',#368,#375,#198,.T.);
#457=EDGE_CURVE('',#348,#375,#199,.T.);
#458=EDGE_CURVE('',#360,#356,#200,.T.);
#459=EDGE_CURVE('',#361,#355,#201,.T.);
#460=EDGE_CURVE('',#362,#354,#202,.T.);
#461=EDGE_CURVE('',#373,#352,#203,.T.);
#462=EDGE_CURVE('',#376,#344,#204,.T.);
#463=EDGE_CURVE('',#376,#359,#205,.T.);
#464=EDGE_CURVE('',#377,#365,#206,.T.);
#465=EDGE_CURVE('',#377,#376,#207,.T.);
#466=EDGE_CURVE('',#345,#377,#208,.T.);
#467=EDGE_CURVE('',#378,#379,#209,.T.);
#468=EDGE_CURVE('',#378,#380,#210,.T.);
#469=EDGE_CURVE('',#381,#380,#211,.T.);
#470=EDGE_CURVE('',#379,#381,#212,.T.);
#471=EDGE_CURVE('',#379,#382,#213,.T.);
#472=EDGE_CURVE('',#383,#381,#214,.T.);
#473=EDGE_CURVE('',#382,#383,#215,.T.);
#474=EDGE_CURVE('',#382,#384,#216,.T.);
#475=EDGE_CURVE('',#385,#383,#217,.T.);
#476=EDGE_CURVE('',#384,#385,#218,.T.);
#477=EDGE_CURVE('',#384,#378,#219,.T.);
#478=EDGE_CURVE('',#380,#385,#220,.T.);
#479=EDGE_CURVE('',#386,#387,#221,.T.);
#480=EDGE_CURVE('',#387,#388,#222,.T.);
#481=EDGE_CURVE('',#389,#388,#223,.T.);
#482=EDGE_CURVE('',#386,#389,#224,.T.);
#483=EDGE_CURVE('',#390,#386,#225,.T.);
#484=EDGE_CURVE('',#391,#389,#226,.T.);
#485=EDGE_CURVE('',#390,#391,#227,.T.);
#486=EDGE_CURVE('',#392,#390,#228,.T.);
#487=EDGE_CURVE('',#393,#391,#229,.T.);
#488=EDGE_CURVE('',#392,#393,#230,.T.);
#489=EDGE_CURVE('',#387,#392,#231,.T.);
#490=EDGE_CURVE('',#388,#393,#232,.T.);
#491=ORIENTED_EDGE('',*,*,#394,.F.);
#492=ORIENTED_EDGE('',*,*,#395,.T.);
#493=ORIENTED_EDGE('',*,*,#396,.F.);
#494=ORIENTED_EDGE('',*,*,#395,.F.);
#495=ORIENTED_EDGE('',*,*,#394,.T.);
#496=ORIENTED_EDGE('',*,*,#397,.F.);
#497=ORIENTED_EDGE('',*,*,#398,.T.);
#498=ORIENTED_EDGE('',*,*,#399,.F.);
#499=ORIENTED_EDGE('',*,*,#398,.F.);
#500=ORIENTED_EDGE('',*,*,#397,.T.);
#501=ORIENTED_EDGE('',*,*,#396,.T.);
#502=ORIENTED_EDGE('',*,*,#400,.F.);
#503=ORIENTED_EDGE('',*,*,#401,.T.);
#504=ORIENTED_EDGE('',*,*,#402,.F.);
#505=ORIENTED_EDGE('',*,*,#399,.T.);
#506=ORIENTED_EDGE('',*,*,#403,.F.);
#507=ORIENTED_EDGE('',*,*,#404,.T.);
#508=ORIENTED_EDGE('',*,*,#405,.T.);
#509=ORIENTED_EDGE('',*,*,#400,.T.);
#510=ORIENTED_EDGE('',*,*,#406,.T.);
#511=ORIENTED_EDGE('',*,*,#407,.T.);
#512=ORIENTED_EDGE('',*,*,#405,.F.);
#513=ORIENTED_EDGE('',*,*,#408,.F.);
#514=ORIENTED_EDGE('',*,*,#409,.F.);
#515=ORIENTED_EDGE('',*,*,#410,.F.);
#516=ORIENTED_EDGE('',*,*,#411,.F.);
#517=ORIENTED_EDGE('',*,*,#412,.F.);
#518=ORIENTED_EDGE('',*,*,#413,.T.);
#519=ORIENTED_EDGE('',*,*,#414,.T.);
#520=ORIENTED_EDGE('',*,*,#415,.F.);
#521=ORIENTED_EDGE('',*,*,#416,.T.);
#522=ORIENTED_EDGE('',*,*,#417,.F.);
#523=ORIENTED_EDGE('',*,*,#418,.T.);
#524=ORIENTED_EDGE('',*,*,#419,.F.);
#525=ORIENTED_EDGE('',*,*,#401,.F.);
#526=ORIENTED_EDGE('',*,*,#420,.T.);
#527=ORIENTED_EDGE('',*,*,#403,.T.);
#528=ORIENTED_EDGE('',*,*,#402,.T.);
#529=ORIENTED_EDGE('',*,*,#419,.T.);
#530=ORIENTED_EDGE('',*,*,#421,.T.);
#531=ORIENTED_EDGE('',*,*,#421,.F.);
#532=ORIENTED_EDGE('',*,*,#418,.F.);
#533=ORIENTED_EDGE('',*,*,#422,.F.);
#534=ORIENTED_EDGE('',*,*,#423,.T.);
#535=ORIENTED_EDGE('',*,*,#407,.F.);
#536=ORIENTED_EDGE('',*,*,#424,.F.);
#537=ORIENTED_EDGE('',*,*,#425,.F.);
#538=ORIENTED_EDGE('',*,*,#408,.T.);
#539=ORIENTED_EDGE('',*,*,#425,.T.);
#540=ORIENTED_EDGE('',*,*,#426,.T.);
#541=ORIENTED_EDGE('',*,*,#427,.T.);
#542=ORIENTED_EDGE('',*,*,#428,.T.);
#543=ORIENTED_EDGE('',*,*,#429,.T.);
#544=ORIENTED_EDGE('',*,*,#409,.T.);
#545=ORIENTED_EDGE('',*,*,#430,.T.);
#546=ORIENTED_EDGE('',*,*,#431,.T.);
#547=ORIENTED_EDGE('',*,*,#432,.T.);
#548=ORIENTED_EDGE('',*,*,#411,.T.);
#549=ORIENTED_EDGE('',*,*,#433,.T.);
#550=ORIENTED_EDGE('',*,*,#434,.T.);
#551=ORIENTED_EDGE('',*,*,#435,.F.);
#552=ORIENTED_EDGE('',*,*,#436,.T.);
#553=ORIENTED_EDGE('',*,*,#437,.F.);
#554=ORIENTED_EDGE('',*,*,#438,.F.);
#555=ORIENTED_EDGE('',*,*,#439,.T.);
#556=ORIENTED_EDGE('',*,*,#440,.T.);
#557=ORIENTED_EDGE('',*,*,#441,.F.);
#558=ORIENTED_EDGE('',*,*,#442,.T.);
#559=ORIENTED_EDGE('',*,*,#443,.F.);
#560=ORIENTED_EDGE('',*,*,#415,.T.);
#561=ORIENTED_EDGE('',*,*,#444,.F.);
#562=ORIENTED_EDGE('',*,*,#445,.F.);
#563=ORIENTED_EDGE('',*,*,#431,.F.);
#564=ORIENTED_EDGE('',*,*,#446,.T.);
#565=ORIENTED_EDGE('',*,*,#438,.T.);
#566=ORIENTED_EDGE('',*,*,#446,.F.);
#567=ORIENTED_EDGE('',*,*,#430,.F.);
#568=ORIENTED_EDGE('',*,*,#447,.T.);
#569=ORIENTED_EDGE('',*,*,#437,.T.);
#570=ORIENTED_EDGE('',*,*,#447,.F.);
#571=ORIENTED_EDGE('',*,*,#448,.F.);
#572=ORIENTED_EDGE('',*,*,#449,.T.);
#573=ORIENTED_EDGE('',*,*,#444,.T.);
#574=ORIENTED_EDGE('',*,*,#449,.F.);
#575=ORIENTED_EDGE('',*,*,#450,.F.);
#576=ORIENTED_EDGE('',*,*,#451,.T.);
#577=ORIENTED_EDGE('',*,*,#445,.T.);
#578=ORIENTED_EDGE('',*,*,#451,.F.);
#579=ORIENTED_EDGE('',*,*,#441,.T.);
#580=ORIENTED_EDGE('',*,*,#452,.T.);
#581=ORIENTED_EDGE('',*,*,#453,.F.);
#582=ORIENTED_EDGE('',*,*,#454,.F.);
#583=ORIENTED_EDGE('',*,*,#442,.F.);
#584=ORIENTED_EDGE('',*,*,#454,.T.);
#585=ORIENTED_EDGE('',*,*,#455,.F.);
#586=ORIENTED_EDGE('',*,*,#456,.F.);
#587=ORIENTED_EDGE('',*,*,#443,.T.);
#588=ORIENTED_EDGE('',*,*,#456,.T.);
#589=ORIENTED_EDGE('',*,*,#457,.F.);
#590=ORIENTED_EDGE('',*,*,#416,.F.);
#591=ORIENTED_EDGE('',*,*,#433,.F.);
#592=ORIENTED_EDGE('',*,*,#410,.T.);
#593=ORIENTED_EDGE('',*,*,#429,.F.);
#594=ORIENTED_EDGE('',*,*,#458,.F.);
#595=ORIENTED_EDGE('',*,*,#434,.F.);
#596=ORIENTED_EDGE('',*,*,#458,.T.);
#597=ORIENTED_EDGE('',*,*,#428,.F.);
#598=ORIENTED_EDGE('',*,*,#459,.F.);
#599=ORIENTED_EDGE('',*,*,#435,.T.);
#600=ORIENTED_EDGE('',*,*,#459,.T.);
#601=ORIENTED_EDGE('',*,*,#427,.F.);
#602=ORIENTED_EDGE('',*,*,#460,.F.);
#603=ORIENTED_EDGE('',*,*,#422,.T.);
#604=ORIENTED_EDGE('',*,*,#417,.T.);
#605=ORIENTED_EDGE('',*,*,#457,.T.);
#606=ORIENTED_EDGE('',*,*,#455,.T.);
#607=ORIENTED_EDGE('',*,*,#453,.T.);
#608=ORIENTED_EDGE('',*,*,#461,.T.);
#609=ORIENTED_EDGE('',*,*,#450,.T.);
#610=ORIENTED_EDGE('',*,*,#448,.T.);
#611=ORIENTED_EDGE('',*,*,#462,.T.);
#612=ORIENTED_EDGE('',*,*,#412,.T.);
#613=ORIENTED_EDGE('',*,*,#432,.F.);
#614=ORIENTED_EDGE('',*,*,#463,.F.);
#615=ORIENTED_EDGE('',*,*,#406,.F.);
#616=ORIENTED_EDGE('',*,*,#404,.F.);
#617=ORIENTED_EDGE('',*,*,#420,.F.);
#618=ORIENTED_EDGE('',*,*,#423,.F.);
#619=ORIENTED_EDGE('',*,*,#461,.F.);
#620=ORIENTED_EDGE('',*,*,#452,.F.);
#621=ORIENTED_EDGE('',*,*,#440,.F.);
#622=ORIENTED_EDGE('',*,*,#464,.F.);
#623=ORIENTED_EDGE('',*,*,#465,.T.);
#624=ORIENTED_EDGE('',*,*,#463,.T.);
#625=ORIENTED_EDGE('',*,*,#436,.F.);
#626=ORIENTED_EDGE('',*,*,#460,.T.);
#627=ORIENTED_EDGE('',*,*,#426,.F.);
#628=ORIENTED_EDGE('',*,*,#424,.T.);
#629=ORIENTED_EDGE('',*,*,#466,.T.);
#630=ORIENTED_EDGE('',*,*,#464,.T.);
#631=ORIENTED_EDGE('',*,*,#439,.F.);
#632=ORIENTED_EDGE('',*,*,#414,.F.);
#633=ORIENTED_EDGE('',*,*,#466,.F.);
#634=ORIENTED_EDGE('',*,*,#413,.F.);
#635=ORIENTED_EDGE('',*,*,#462,.F.);
#636=ORIENTED_EDGE('',*,*,#465,.F.);
#637=ORIENTED_EDGE('',*,*,#467,.F.);
#638=ORIENTED_EDGE('',*,*,#468,.T.);
#639=ORIENTED_EDGE('',*,*,#469,.F.);
#640=ORIENTED_EDGE('',*,*,#470,.F.);
#641=ORIENTED_EDGE('',*,*,#471,.F.);
#642=ORIENTED_EDGE('',*,*,#470,.T.);
#643=ORIENTED_EDGE('',*,*,#472,.F.);
#644=ORIENTED_EDGE('',*,*,#473,.F.);
#645=ORIENTED_EDGE('',*,*,#474,.F.);
#646=ORIENTED_EDGE('',*,*,#473,.T.);
#647=ORIENTED_EDGE('',*,*,#475,.F.);
#648=ORIENTED_EDGE('',*,*,#476,.F.);
#649=ORIENTED_EDGE('',*,*,#477,.F.);
#650=ORIENTED_EDGE('',*,*,#476,.T.);
#651=ORIENTED_EDGE('',*,*,#478,.F.);
#652=ORIENTED_EDGE('',*,*,#468,.F.);
#653=ORIENTED_EDGE('',*,*,#478,.T.);
#654=ORIENTED_EDGE('',*,*,#475,.T.);
#655=ORIENTED_EDGE('',*,*,#472,.T.);
#656=ORIENTED_EDGE('',*,*,#469,.T.);
#657=ORIENTED_EDGE('',*,*,#479,.T.);
#658=ORIENTED_EDGE('',*,*,#480,.T.);
#659=ORIENTED_EDGE('',*,*,#481,.F.);
#660=ORIENTED_EDGE('',*,*,#482,.F.);
#661=ORIENTED_EDGE('',*,*,#483,.T.);
#662=ORIENTED_EDGE('',*,*,#482,.T.);
#663=ORIENTED_EDGE('',*,*,#484,.F.);
#664=ORIENTED_EDGE('',*,*,#485,.F.);
#665=ORIENTED_EDGE('',*,*,#486,.T.);
#666=ORIENTED_EDGE('',*,*,#485,.T.);
#667=ORIENTED_EDGE('',*,*,#487,.F.);
#668=ORIENTED_EDGE('',*,*,#488,.F.);
#669=ORIENTED_EDGE('',*,*,#489,.T.);
#670=ORIENTED_EDGE('',*,*,#488,.T.);
#671=ORIENTED_EDGE('',*,*,#490,.F.);
#672=ORIENTED_EDGE('',*,*,#480,.F.);
#673=ORIENTED_EDGE('',*,*,#490,.T.);
#674=ORIENTED_EDGE('',*,*,#487,.T.);
#675=ORIENTED_EDGE('',*,*,#484,.T.);
#676=ORIENTED_EDGE('',*,*,#481,.T.);
#677=ORIENTED_EDGE('',*,*,#467,.T.);
#678=ORIENTED_EDGE('',*,*,#471,.T.);
#679=ORIENTED_EDGE('',*,*,#474,.T.);
#680=ORIENTED_EDGE('',*,*,#477,.T.);
#681=ORIENTED_EDGE('',*,*,#489,.F.);
#682=ORIENTED_EDGE('',*,*,#479,.F.);
#683=ORIENTED_EDGE('',*,*,#483,.F.);
#684=ORIENTED_EDGE('',*,*,#486,.F.);
#685=CYLINDRICAL_SURFACE('',#745,2.9);
#686=CYLINDRICAL_SURFACE('',#749,5.15);
#687=CYLINDRICAL_SURFACE('',#768,2.1);
#688=CYLINDRICAL_SURFACE('',#769,2.1);
#689=CYLINDRICAL_SURFACE('',#770,2.1);
#690=CYLINDRICAL_SURFACE('',#772,2.1);
#691=ADVANCED_FACE('',(#60),#685,.T.);
#692=ADVANCED_FACE('',(#61),#27,.T.);
#693=ADVANCED_FACE('',(#62),#686,.T.);
#694=ADVANCED_FACE('',(#63,#17),#28,.T.);
#695=ADVANCED_FACE('',(#64),#29,.T.);
#696=ADVANCED_FACE('',(#65),#30,.T.);
#697=ADVANCED_FACE('',(#66),#31,.T.);
#698=ADVANCED_FACE('',(#67),#32,.T.);
#699=ADVANCED_FACE('',(#68),#33,.T.);
#700=ADVANCED_FACE('',(#69),#34,.T.);
#701=ADVANCED_FACE('',(#70,#18,#19),#35,.T.);
#702=ADVANCED_FACE('',(#71,#20,#21),#36,.F.);
#703=ADVANCED_FACE('',(#72,#22,#23),#37,.F.);
#704=ADVANCED_FACE('',(#73),#687,.F.);
#705=ADVANCED_FACE('',(#74),#688,.F.);
#706=ADVANCED_FACE('',(#75),#689,.F.);
#707=ADVANCED_FACE('',(#76),#690,.F.);
#708=ADVANCED_FACE('',(#77),#38,.T.);
#709=ADVANCED_FACE('',(#78),#39,.T.);
#710=ADVANCED_FACE('',(#79),#40,.T.);
#711=ADVANCED_FACE('',(#80),#41,.T.);
#712=ADVANCED_FACE('',(#81),#42,.T.);
#713=ADVANCED_FACE('',(#82),#43,.T.);
#714=ADVANCED_FACE('',(#83,#24,#25),#44,.T.);
#715=ADVANCED_FACE('',(#84),#45,.T.);
#716=ADVANCED_FACE('',(#85),#46,.T.);
#717=ADVANCED_FACE('',(#86),#47,.T.);
#718=ADVANCED_FACE('',(#87),#48,.F.);
#719=ADVANCED_FACE('',(#88),#49,.T.);
#720=ADVANCED_FACE('',(#89),#50,.T.);
#721=ADVANCED_FACE('',(#90),#51,.T.);
#722=ADVANCED_FACE('',(#91),#52,.T.);
#723=ADVANCED_FACE('',(#92),#53,.T.);
#724=ADVANCED_FACE('',(#93),#54,.T.);
#725=ADVANCED_FACE('',(#94),#55,.T.);
#726=ADVANCED_FACE('',(#95),#56,.T.);
#727=ADVANCED_FACE('',(#96),#57,.T.);
#728=ADVANCED_FACE('',(#97,#26),#58,.T.);
#729=ADVANCED_FACE('',(#98),#59,.F.);
#730=CLOSED_SHELL('',(#691,#692,#693,#694,#695,#696,#697,#698,#699,#700,
#701,#702,#703,#704,#705,#706,#707,#708,#709,#710,#711,#712,#713,#714,#715,
#716,#717,#718));
#731=CLOSED_SHELL('',(#719,#720,#721,#722,#723,#724,#725,#726,#727,#728,
#729));
#732=DERIVED_UNIT_ELEMENT(#734,1.);
#733=DERIVED_UNIT_ELEMENT(#1191,-3.);
#734=(
MASS_UNIT()
NAMED_UNIT(*)
SI_UNIT(.KILO.,.GRAM.)
);
#735=DERIVED_UNIT((#732,#733));
#736=MEASURE_REPRESENTATION_ITEM('density measure',
POSITIVE_RATIO_MEASURE(7850.),#735);
#737=PROPERTY_DEFINITION_REPRESENTATION(#742,#739);
#738=PROPERTY_DEFINITION_REPRESENTATION(#743,#740);
#739=REPRESENTATION('material name',(#741),#1188);
#740=REPRESENTATION('density',(#736),#1188);
#741=DESCRIPTIVE_REPRESENTATION_ITEM('\X2\94A2\X0\','\X2\94A2\X0\');
#742=PROPERTY_DEFINITION('material property','material name',#1198);
#743=PROPERTY_DEFINITION('material property','density of part',#1198);
#744=AXIS2_PLACEMENT_3D('',#985,#796,#797);
#745=AXIS2_PLACEMENT_3D('',#986,#798,#799);
#746=AXIS2_PLACEMENT_3D('',#988,#800,#801);
#747=AXIS2_PLACEMENT_3D('',#991,#803,#804);
#748=AXIS2_PLACEMENT_3D('',#992,#805,#806);
#749=AXIS2_PLACEMENT_3D('',#993,#807,#808);
#750=AXIS2_PLACEMENT_3D('',#995,#809,#810);
#751=AXIS2_PLACEMENT_3D('',#998,#812,#813);
#752=AXIS2_PLACEMENT_3D('',#999,#814,#815);
#753=AXIS2_PLACEMENT_3D('',#1000,#816,#817);
#754=AXIS2_PLACEMENT_3D('',#1010,#823,#824);
#755=AXIS2_PLACEMENT_3D('',#1016,#828,#829);
#756=AXIS2_PLACEMENT_3D('',#1040,#842,#843);
#757=AXIS2_PLACEMENT_3D('',#1044,#846,#847);
#758=AXIS2_PLACEMENT_3D('',#1048,#850,#851);
#759=AXIS2_PLACEMENT_3D('',#1052,#854,#855);
#760=AXIS2_PLACEMENT_3D('',#1061,#860,#861);
#761=AXIS2_PLACEMENT_3D('',#1063,#862,#863);
#762=AXIS2_PLACEMENT_3D('',#1064,#864,#865);
#763=AXIS2_PLACEMENT_3D('',#1075,#871,#872);
#764=AXIS2_PLACEMENT_3D('',#1077,#873,#874);
#765=AXIS2_PLACEMENT_3D('',#1078,#875,#876);
#766=AXIS2_PLACEMENT_3D('',#1089,#882,#883);
#767=AXIS2_PLACEMENT_3D('',#1091,#884,#885);
#768=AXIS2_PLACEMENT_3D('',#1092,#886,#887);
#769=AXIS2_PLACEMENT_3D('',#1094,#889,#890);
#770=AXIS2_PLACEMENT_3D('',#1096,#892,#893);
#771=AXIS2_PLACEMENT_3D('',#1098,#894,#895);
#772=AXIS2_PLACEMENT_3D('',#1100,#897,#898);
#773=AXIS2_PLACEMENT_3D('',#1102,#899,#900);
#774=AXIS2_PLACEMENT_3D('',#1104,#902,#903);
#775=AXIS2_PLACEMENT_3D('',#1110,#907,#908);
#776=AXIS2_PLACEMENT_3D('',#1114,#911,#912);
#777=AXIS2_PLACEMENT_3D('',#1116,#914,#915);
#778=AXIS2_PLACEMENT_3D('',#1118,#917,#918);
#779=AXIS2_PLACEMENT_3D('',#1120,#920,#921);
#780=AXIS2_PLACEMENT_3D('',#1122,#923,#924);
#781=AXIS2_PLACEMENT_3D('',#1124,#926,#927);
#782=AXIS2_PLACEMENT_3D('',#1128,#930,#931);
#783=AXIS2_PLACEMENT_3D('',#1132,#934,#935);
#784=AXIS2_PLACEMENT_3D('',#1134,#937,#938);
#785=AXIS2_PLACEMENT_3D('',#1135,#939,#940);
#786=AXIS2_PLACEMENT_3D('',#1144,#945,#946);
#787=AXIS2_PLACEMENT_3D('',#1150,#950,#951);
#788=AXIS2_PLACEMENT_3D('',#1156,#955,#956);
#789=AXIS2_PLACEMENT_3D('',#1159,#959,#960);
#790=AXIS2_PLACEMENT_3D('',#1160,#961,#962);
#791=AXIS2_PLACEMENT_3D('',#1169,#967,#968);
#792=AXIS2_PLACEMENT_3D('',#1175,#972,#973);
#793=AXIS2_PLACEMENT_3D('',#1181,#977,#978);
#794=AXIS2_PLACEMENT_3D('',#1184,#981,#982);
#795=AXIS2_PLACEMENT_3D('',#1185,#983,#984);
#796=DIRECTION('axis',(0.,0.,1.));
#797=DIRECTION('refdir',(1.,0.,0.));
#798=DIRECTION('center_axis',(0.,0.,1.));
#799=DIRECTION('ref_axis',(-1.,0.,0.));
#800=DIRECTION('center_axis',(0.,0.,1.));
#801=DIRECTION('ref_axis',(-1.,0.,0.));
#802=DIRECTION('',(0.,0.,-1.));
#803=DIRECTION('center_axis',(0.,0.,-1.));
#804=DIRECTION('ref_axis',(-1.,0.,0.));
#805=DIRECTION('center_axis',(0.,0.,1.));
#806=DIRECTION('ref_axis',(-1.,0.,0.));
#807=DIRECTION('center_axis',(0.,0.,1.));
#808=DIRECTION('ref_axis',(-1.,0.,0.));
#809=DIRECTION('center_axis',(0.,0.,1.));
#810=DIRECTION('ref_axis',(-1.,0.,0.));
#811=DIRECTION('',(0.,0.,-1.));
#812=DIRECTION('center_axis',(0.,0.,-1.));
#813=DIRECTION('ref_axis',(-1.,0.,0.));
#814=DIRECTION('center_axis',(0.,0.,1.));
#815=DIRECTION('ref_axis',(-1.,0.,0.));
#816=DIRECTION('center_axis',(0.,0.,1.));
#817=DIRECTION('ref_axis',(1.,0.,0.));
#818=DIRECTION('',(0.,1.,0.));
#819=DIRECTION('',(1.,0.,0.));
#820=DIRECTION('',(0.,-1.,0.));
#821=DIRECTION('',(0.,-1.,0.));
#822=DIRECTION('',(-1.,0.,0.));
#823=DIRECTION('center_axis',(-0.198359507495232,0.,0.980129331152909));
#824=DIRECTION('ref_axis',(0.980129331152909,0.,0.198359507495232));
#825=DIRECTION('',(0.980129331152909,0.,0.198359507495232));
#826=DIRECTION('',(-0.980129331152909,0.,-0.198359507495232));
#827=DIRECTION('',(0.,-1.,0.));
#828=DIRECTION('center_axis',(0.,-1.,0.));
#829=DIRECTION('ref_axis',(1.,0.,0.));
#830=DIRECTION('',(0.,0.,1.));
#831=DIRECTION('',(1.,0.,0.));
#832=DIRECTION('',(0.,0.,1.));
#833=DIRECTION('',(-1.,0.,0.));
#834=DIRECTION('',(0.,0.,1.));
#835=DIRECTION('',(1.,0.,0.));
#836=DIRECTION('',(0.,0.,1.));
#837=DIRECTION('',(-1.,0.,0.));
#838=DIRECTION('',(0.,0.,1.));
#839=DIRECTION('',(1.,0.,0.));
#840=DIRECTION('',(0.,0.,1.));
#841=DIRECTION('',(0.883115719457411,0.,-0.469155225961749));
#842=DIRECTION('center_axis',(0.469155225961749,0.,0.883115719457411));
#843=DIRECTION('ref_axis',(0.883115719457411,0.,-0.469155225961749));
#844=DIRECTION('',(-0.883115719457411,0.,0.469155225961749));
#845=DIRECTION('',(0.,1.,0.));
#846=DIRECTION('center_axis',(1.,0.,0.));
#847=DIRECTION('ref_axis',(0.,1.,0.));
#848=DIRECTION('',(0.,-1.,0.));
#849=DIRECTION('',(0.,0.,1.));
#850=DIRECTION('center_axis',(-1.,0.,0.));
#851=DIRECTION('ref_axis',(0.,-1.,0.));
#852=DIRECTION('',(0.,0.,1.));
#853=DIRECTION('',(0.,1.,0.));
#854=DIRECTION('center_axis',(0.,0.,1.));
#855=DIRECTION('ref_axis',(-1.,0.,0.));
#856=DIRECTION('',(-1.,0.,0.));
#857=DIRECTION('',(-0.707106781186548,-0.707106781186547,0.));
#858=DIRECTION('',(0.,-1.,0.));
#859=DIRECTION('',(0.707106781186548,-0.707106781186547,0.));
#860=DIRECTION('center_axis',(0.,0.,-1.));
#861=DIRECTION('ref_axis',(-1.,0.,0.));
#862=DIRECTION('center_axis',(0.,0.,-1.));
#863=DIRECTION('ref_axis',(-1.,0.,0.));
#864=DIRECTION('center_axis',(0.,0.,1.));
#865=DIRECTION('ref_axis',(-1.,0.,0.));
#866=DIRECTION('',(0.,-1.,0.));
#867=DIRECTION('',(-0.707106781186548,0.707106781186547,0.));
#868=DIRECTION('',(0.,1.,0.));
#869=DIRECTION('',(-0.707106781186548,-0.707106781186547,0.));
#870=DIRECTION('',(1.,0.,0.));
#871=DIRECTION('center_axis',(0.,0.,-1.));
#872=DIRECTION('ref_axis',(-1.,0.,0.));
#873=DIRECTION('center_axis',(0.,0.,-1.));
#874=DIRECTION('ref_axis',(-1.,0.,0.));
#875=DIRECTION('center_axis',(0.,0.,1.));
#876=DIRECTION('ref_axis',(-1.,0.,0.));
#877=DIRECTION('',(0.,1.,0.));
#878=DIRECTION('',(1.,0.,0.));
#879=DIRECTION('',(-0.707106781186548,0.707106781186547,0.));
#880=DIRECTION('',(0.,-1.,0.));
#881=DIRECTION('',(0.707106781186548,0.707106781186547,0.));
#882=DIRECTION('center_axis',(0.,0.,-1.));
#883=DIRECTION('ref_axis',(-1.,0.,0.));
#884=DIRECTION('center_axis',(0.,0.,-1.));
#885=DIRECTION('ref_axis',(-1.,0.,0.));
#886=DIRECTION('center_axis',(0.,0.,1.));
#887=DIRECTION('ref_axis',(-1.,0.,0.));
#888=DIRECTION('',(0.,0.,-1.));
#889=DIRECTION('center_axis',(0.,0.,1.));
#890=DIRECTION('ref_axis',(-1.,0.,0.));
#891=DIRECTION('',(0.,0.,-1.));
#892=DIRECTION('center_axis',(0.,0.,1.));
#893=DIRECTION('ref_axis',(-1.,0.,0.));
#894=DIRECTION('center_axis',(0.,0.,-1.));
#895=DIRECTION('ref_axis',(-1.,0.,0.));
#896=DIRECTION('',(0.,0.,-1.));
#897=DIRECTION('center_axis',(0.,0.,1.));
#898=DIRECTION('ref_axis',(-1.,0.,0.));
#899=DIRECTION('center_axis',(0.,0.,-1.));
#900=DIRECTION('ref_axis',(-1.,0.,0.));
#901=DIRECTION('',(0.,0.,-1.));
#902=DIRECTION('center_axis',(0.707106781186547,0.707106781186548,0.));
#903=DIRECTION('ref_axis',(-0.707106781186548,0.707106781186547,0.));
#904=DIRECTION('',(0.,0.,1.));
#905=DIRECTION('',(-0.707106781186548,0.707106781186547,0.));
#906=DIRECTION('',(0.,0.,1.));
#907=DIRECTION('center_axis',(1.,0.,0.));
#908=DIRECTION('ref_axis',(0.,1.,0.));
#909=DIRECTION('',(0.,1.,0.));
#910=DIRECTION('',(0.,0.,1.));
#911=DIRECTION('center_axis',(0.707106781186547,-0.707106781186548,0.));
#912=DIRECTION('ref_axis',(0.707106781186548,0.707106781186547,0.));
#913=DIRECTION('',(0.707106781186548,0.707106781186547,0.));
#914=DIRECTION('center_axis',(-0.707106781186547,-0.707106781186548,0.));
#915=DIRECTION('ref_axis',(0.707106781186548,-0.707106781186547,0.));
#916=DIRECTION('',(0.,0.,1.));
#917=DIRECTION('center_axis',(-1.,0.,0.));
#918=DIRECTION('ref_axis',(0.,-1.,0.));
#919=DIRECTION('',(0.,0.,1.));
#920=DIRECTION('center_axis',(-0.707106781186547,0.707106781186548,0.));
#921=DIRECTION('ref_axis',(-0.707106781186548,-0.707106781186547,0.));
#922=DIRECTION('',(0.,0.,1.));
#923=DIRECTION('center_axis',(0.,0.,1.));
#924=DIRECTION('ref_axis',(-1.,0.,0.));
#925=DIRECTION('',(-1.,0.,0.));
#926=DIRECTION('center_axis',(-1.,0.,0.));
#927=DIRECTION('ref_axis',(0.,-1.,0.));
#928=DIRECTION('',(0.,-1.,0.));
#929=DIRECTION('',(0.,0.,1.));
#930=DIRECTION('center_axis',(0.,1.,0.));
#931=DIRECTION('ref_axis',(-1.,0.,0.));
#932=DIRECTION('',(0.,0.,1.));
#933=DIRECTION('',(-1.,0.,0.));
#934=DIRECTION('center_axis',(1.,0.,0.));
#935=DIRECTION('ref_axis',(0.,1.,0.));
#936=DIRECTION('',(0.,1.,0.));
#937=DIRECTION('center_axis',(0.,0.,1.));
#938=DIRECTION('ref_axis',(1.,0.,0.));
#939=DIRECTION('center_axis',(0.,0.,-1.));
#940=DIRECTION('ref_axis',(0.,1.,0.));
#941=DIRECTION('',(0.,-1.,0.));
#942=DIRECTION('',(1.,0.,0.));
#943=DIRECTION('',(0.,1.,0.));
#944=DIRECTION('',(1.,0.,0.));
#945=DIRECTION('center_axis',(0.,-1.,0.));
#946=DIRECTION('ref_axis',(0.,0.,-1.));
#947=DIRECTION('',(0.,0.,1.));
#948=DIRECTION('',(0.,0.,-1.));
#949=DIRECTION('',(1.,0.,0.));
#950=DIRECTION('center_axis',(0.,0.,1.));
#951=DIRECTION('ref_axis',(0.,-1.,0.));
#952=DIRECTION('',(0.,1.,0.));
#953=DIRECTION('',(0.,-1.,0.));
#954=DIRECTION('',(1.,0.,0.));
#955=DIRECTION('center_axis',(0.,1.,0.));
#956=DIRECTION('ref_axis',(0.,0.,1.));
#957=DIRECTION('',(0.,0.,-1.));
#958=DIRECTION('',(0.,0.,1.));
#959=DIRECTION('center_axis',(1.,0.,0.));
#960=DIRECTION('ref_axis',(0.,0.,-1.));
#961=DIRECTION('center_axis',(0.,0.,-1.));
#962=DIRECTION('ref_axis',(0.,1.,0.));
#963=DIRECTION('',(0.,1.,0.));
#964=DIRECTION('',(1.,0.,0.));
#965=DIRECTION('',(0.,1.,0.));
#966=DIRECTION('',(1.,0.,0.));
#967=DIRECTION('center_axis',(0.,-1.,0.));
#968=DIRECTION('ref_axis',(0.,0.,-1.));
#969=DIRECTION('',(0.,0.,-1.));
#970=DIRECTION('',(0.,0.,-1.));
#971=DIRECTION('',(1.,0.,0.));
#972=DIRECTION('center_axis',(0.,0.,1.));
#973=DIRECTION('ref_axis',(0.,-1.,0.));
#974=DIRECTION('',(0.,-1.,0.));
#975=DIRECTION('',(0.,-1.,0.));
#976=DIRECTION('',(1.,0.,0.));
#977=DIRECTION('center_axis',(0.,1.,0.));
#978=DIRECTION('ref_axis',(0.,0.,1.));
#979=DIRECTION('',(0.,0.,1.));
#980=DIRECTION('',(0.,0.,1.));
#981=DIRECTION('center_axis',(1.,0.,0.));
#982=DIRECTION('ref_axis',(0.,0.,-1.));
#983=DIRECTION('center_axis',(1.,0.,0.));
#984=DIRECTION('ref_axis',(0.,1.,0.));
#985=CARTESIAN_POINT('',(0.,0.,0.));
#986=CARTESIAN_POINT('Origin',(11.6,-9.0818597244072E-16,29.9));
#987=CARTESIAN_POINT('',(14.5,-5.53038400687988E-16,33.7));
#988=CARTESIAN_POINT('Origin',(11.6,-9.0818597244072E-16,33.7));
#989=CARTESIAN_POINT('',(14.5,-5.53038400687988E-16,29.9));
#990=CARTESIAN_POINT('',(14.5,-5.53038400687988E-16,29.9));
#991=CARTESIAN_POINT('Origin',(11.6,-9.0818597244072E-16,29.9));
#992=CARTESIAN_POINT('Origin',(11.6,-1.11022302462516E-15,33.7));
#993=CARTESIAN_POINT('Origin',(11.6,-9.0818597244072E-16,29.3));
#994=CARTESIAN_POINT('',(16.75,-2.77492870879833E-16,29.9));
#995=CARTESIAN_POINT('Origin',(11.6,-9.0818597244072E-16,29.9));
#996=CARTESIAN_POINT('',(16.75,-2.77492870879833E-16,29.3));
#997=CARTESIAN_POINT('',(16.75,-2.77492870879833E-16,29.3));
#998=CARTESIAN_POINT('Origin',(11.6,-9.0818597244072E-16,29.3));
#999=CARTESIAN_POINT('Origin',(11.6,-1.11022302462516E-15,29.9));
#1000=CARTESIAN_POINT('Origin',(0.,0.,29.3));
#1001=CARTESIAN_POINT('',(-11.55,-9.95,29.3));
#1002=CARTESIAN_POINT('',(-11.55,9.95,29.3));
#1003=CARTESIAN_POINT('',(-11.55,4.975,29.3));
#1004=CARTESIAN_POINT('',(16.75,-9.95,29.3));
#1005=CARTESIAN_POINT('',(-25.35,-9.95,29.3));
#1006=CARTESIAN_POINT('',(16.75,-4.975,29.3));
#1007=CARTESIAN_POINT('',(16.75,9.95,29.3));
#1008=CARTESIAN_POINT('',(16.75,-4.975,29.3));
#1009=CARTESIAN_POINT('',(25.35,9.95,29.3));
#1010=CARTESIAN_POINT('Origin',(-15.75,4.975,28.45));
#1011=CARTESIAN_POINT('',(-19.95,-9.95,27.6));
#1012=CARTESIAN_POINT('',(-20.5329680054459,-9.95,27.4820183798502));
#1013=CARTESIAN_POINT('',(-19.95,9.95,27.6));
#1014=CARTESIAN_POINT('',(-1.36793056501021,9.95,31.3606569094622));
#1015=CARTESIAN_POINT('',(-19.95,4.975,27.6));
#1016=CARTESIAN_POINT('Origin',(-19.95,-9.95,0.));
#1017=CARTESIAN_POINT('',(-19.95,-9.95,21.4));
#1018=CARTESIAN_POINT('',(-19.95,-9.95,21.4));
#1019=CARTESIAN_POINT('',(-25.35,-9.95,21.4));
#1020=CARTESIAN_POINT('',(27.15,-9.95,21.4));
#1021=CARTESIAN_POINT('',(-25.35,-9.95,18.9));
#1022=CARTESIAN_POINT('',(-25.35,-9.95,18.9));
#1023=CARTESIAN_POINT('',(-19.95,-9.95,18.9));
#1024=CARTESIAN_POINT('',(27.15,-9.95,18.9));
#1025=CARTESIAN_POINT('',(-19.95,-9.95,0.));
#1026=CARTESIAN_POINT('',(-19.95,-9.95,0.));
#1027=CARTESIAN_POINT('',(19.95,-9.95,0.));
#1028=CARTESIAN_POINT('',(-19.95,-9.95,0.));
#1029=CARTESIAN_POINT('',(19.95,-9.95,18.9));
#1030=CARTESIAN_POINT('',(19.95,-9.95,0.));
#1031=CARTESIAN_POINT('',(25.35,-9.95,18.9));
#1032=CARTESIAN_POINT('',(27.15,-9.95,18.9));
#1033=CARTESIAN_POINT('',(25.35,-9.95,21.4));
#1034=CARTESIAN_POINT('',(25.35,-9.95,18.9));
#1035=CARTESIAN_POINT('',(19.95,-9.95,21.4));
#1036=CARTESIAN_POINT('',(27.15,-9.95,21.4));
#1037=CARTESIAN_POINT('',(19.95,-9.95,27.6));
#1038=CARTESIAN_POINT('',(19.95,-9.95,21.4));
#1039=CARTESIAN_POINT('',(9.30872048743335,-9.95,33.253179741051));
#1040=CARTESIAN_POINT('Origin',(18.35,-4.975,28.45));
#1041=CARTESIAN_POINT('',(19.95,9.95,27.6));
#1042=CARTESIAN_POINT('',(24.8675932977913,9.95,24.9875285605484));
#1043=CARTESIAN_POINT('',(19.95,-4.975,27.6));
#1044=CARTESIAN_POINT('Origin',(19.95,-9.95,21.4));
#1045=CARTESIAN_POINT('',(19.95,9.95,21.4));
#1046=CARTESIAN_POINT('',(19.95,-4.975,21.4));
#1047=CARTESIAN_POINT('',(19.95,9.95,21.4));
#1048=CARTESIAN_POINT('Origin',(-19.95,9.95,21.4));
#1049=CARTESIAN_POINT('',(-19.95,9.95,21.4));
#1050=CARTESIAN_POINT('',(-19.95,9.95,21.4));
#1051=CARTESIAN_POINT('',(-19.95,4.975,21.4));
#1052=CARTESIAN_POINT('Origin',(0.,0.,21.4));
#1053=CARTESIAN_POINT('',(-25.35,9.95,21.4));
#1054=CARTESIAN_POINT('',(-27.15,9.95,21.4));
#1055=CARTESIAN_POINT('',(-27.15,8.15,21.4));
#1056=CARTESIAN_POINT('',(-25.35,9.95,21.4));
#1057=CARTESIAN_POINT('',(-27.15,-8.15,21.4));
#1058=CARTESIAN_POINT('',(-27.15,-9.95,21.4));
#1059=CARTESIAN_POINT('',(-25.35,-9.95,21.4));
#1060=CARTESIAN_POINT('',(-21.5,-4.95,21.4));
#1061=CARTESIAN_POINT('Origin',(-23.6,-4.95,21.4));
#1062=CARTESIAN_POINT('',(-21.5,4.95,21.4));
#1063=CARTESIAN_POINT('Origin',(-23.6,4.95,21.4));
#1064=CARTESIAN_POINT('Origin',(0.,0.,18.9));
#1065=CARTESIAN_POINT('',(-19.95,9.95,18.9));
#1066=CARTESIAN_POINT('',(-19.95,9.95,18.9));
#1067=CARTESIAN_POINT('',(-27.15,-8.15,18.9));
#1068=CARTESIAN_POINT('',(-25.35,-9.95,18.9));
#1069=CARTESIAN_POINT('',(-27.15,8.15,18.9));
#1070=CARTESIAN_POINT('',(-27.15,-9.95,18.9));
#1071=CARTESIAN_POINT('',(-25.35,9.95,18.9));
#1072=CARTESIAN_POINT('',(-25.35,9.95,18.9));
#1073=CARTESIAN_POINT('',(-27.15,9.95,18.9));
#1074=CARTESIAN_POINT('',(-21.5,-4.95,18.9));
#1075=CARTESIAN_POINT('Origin',(-23.6,-4.95,18.9));
#1076=CARTESIAN_POINT('',(-21.5,4.95,18.9));
#1077=CARTESIAN_POINT('Origin',(-23.6,4.95,18.9));
#1078=CARTESIAN_POINT('Origin',(0.,0.,18.9));
#1079=CARTESIAN_POINT('',(19.95,9.95,18.9));
#1080=CARTESIAN_POINT('',(19.95,-9.95,18.9));
#1081=CARTESIAN_POINT('',(25.35,9.95,18.9));
#1082=CARTESIAN_POINT('',(-27.15,9.95,18.9));
#1083=CARTESIAN_POINT('',(27.15,8.15,18.9));
#1084=CARTESIAN_POINT('',(27.15,8.15,18.9));
#1085=CARTESIAN_POINT('',(27.15,-8.15,18.9));
#1086=CARTESIAN_POINT('',(27.15,9.95,18.9));
#1087=CARTESIAN_POINT('',(25.35,-9.95,18.9));
#1088=CARTESIAN_POINT('',(25.7,4.95,18.9));
#1089=CARTESIAN_POINT('Origin',(23.6,4.95,18.9));
#1090=CARTESIAN_POINT('',(25.7,-4.95,18.9));
#1091=CARTESIAN_POINT('Origin',(23.6,-4.95,18.9));
#1092=CARTESIAN_POINT('Origin',(-23.6,4.95,18.9));
#1093=CARTESIAN_POINT('',(-21.5,4.95,18.9));
#1094=CARTESIAN_POINT('Origin',(-23.6,-4.95,18.9));
#1095=CARTESIAN_POINT('',(-21.5,-4.95,18.9));
#1096=CARTESIAN_POINT('Origin',(23.6,4.95,18.9));
#1097=CARTESIAN_POINT('',(25.7,4.95,21.4));
#1098=CARTESIAN_POINT('Origin',(23.6,4.95,21.4));
#1099=CARTESIAN_POINT('',(25.7,4.95,18.9));
#1100=CARTESIAN_POINT('Origin',(23.6,-4.95,18.9));
#1101=CARTESIAN_POINT('',(25.7,-4.95,21.4));
#1102=CARTESIAN_POINT('Origin',(23.6,-4.95,21.4));
#1103=CARTESIAN_POINT('',(25.7,-4.95,18.9));
#1104=CARTESIAN_POINT('Origin',(27.15,8.15,18.9));
#1105=CARTESIAN_POINT('',(25.35,9.95,21.4));
#1106=CARTESIAN_POINT('',(25.35,9.95,18.9));
#1107=CARTESIAN_POINT('',(27.15,8.15,21.4));
#1108=CARTESIAN_POINT('',(27.15,8.15,21.4));
#1109=CARTESIAN_POINT('',(27.15,8.15,18.9));
#1110=CARTESIAN_POINT('Origin',(27.15,-8.15,18.9));
#1111=CARTESIAN_POINT('',(27.15,-8.15,21.4));
#1112=CARTESIAN_POINT('',(27.15,9.95,21.4));
#1113=CARTESIAN_POINT('',(27.15,-8.15,18.9));
#1114=CARTESIAN_POINT('Origin',(25.35,-9.95,18.9));
#1115=CARTESIAN_POINT('',(25.35,-9.95,21.4));
#1116=CARTESIAN_POINT('Origin',(-27.15,-8.15,18.9));
#1117=CARTESIAN_POINT('',(-27.15,-8.15,18.9));
#1118=CARTESIAN_POINT('Origin',(-27.15,8.15,18.9));
#1119=CARTESIAN_POINT('',(-27.15,8.15,18.9));
#1120=CARTESIAN_POINT('Origin',(-25.35,9.95,18.9));
#1121=CARTESIAN_POINT('',(-25.35,9.95,18.9));
#1122=CARTESIAN_POINT('Origin',(0.,0.,21.4));
#1123=CARTESIAN_POINT('',(-27.15,9.95,21.4));
#1124=CARTESIAN_POINT('Origin',(-19.95,9.95,0.));
#1125=CARTESIAN_POINT('',(-19.95,9.95,0.));
#1126=CARTESIAN_POINT('',(-19.95,9.95,0.));
#1127=CARTESIAN_POINT('',(-19.95,9.95,0.));
#1128=CARTESIAN_POINT('Origin',(19.95,9.95,0.));
#1129=CARTESIAN_POINT('',(19.95,9.95,0.));
#1130=CARTESIAN_POINT('',(19.95,9.95,0.));
#1131=CARTESIAN_POINT('',(19.95,9.95,0.));
#1132=CARTESIAN_POINT('Origin',(19.95,-9.95,0.));
#1133=CARTESIAN_POINT('',(19.95,-9.95,0.));
#1134=CARTESIAN_POINT('Origin',(0.,0.,0.));
#1135=CARTESIAN_POINT('Origin',(21.25,-2.95,4.65));
#1136=CARTESIAN_POINT('',(21.25,2.95,4.65));
#1137=CARTESIAN_POINT('',(21.25,-2.95,4.65));
#1138=CARTESIAN_POINT('',(21.25,-1.475,4.65));
#1139=CARTESIAN_POINT('',(25.35,2.95,4.65));
#1140=CARTESIAN_POINT('',(21.25,2.95,4.65));
#1141=CARTESIAN_POINT('',(25.35,-2.95,4.65));
#1142=CARTESIAN_POINT('',(25.35,-2.95,4.65));
#1143=CARTESIAN_POINT('',(21.25,-2.95,4.65));
#1144=CARTESIAN_POINT('Origin',(21.25,-2.95,7.95));
#1145=CARTESIAN_POINT('',(21.25,-2.95,7.95));
#1146=CARTESIAN_POINT('',(21.25,-2.95,7.125));
#1147=CARTESIAN_POINT('',(25.35,-2.95,7.95));
#1148=CARTESIAN_POINT('',(25.35,-2.95,7.95));
#1149=CARTESIAN_POINT('',(21.25,-2.95,7.95));
#1150=CARTESIAN_POINT('Origin',(21.25,2.95,7.95));
#1151=CARTESIAN_POINT('',(21.25,2.95,7.95));
#1152=CARTESIAN_POINT('',(21.25,1.475,7.95));
#1153=CARTESIAN_POINT('',(25.35,2.95,7.95));
#1154=CARTESIAN_POINT('',(25.35,2.95,7.95));
#1155=CARTESIAN_POINT('',(21.25,2.95,7.95));
#1156=CARTESIAN_POINT('Origin',(21.25,2.95,4.65));
#1157=CARTESIAN_POINT('',(21.25,2.95,5.475));
#1158=CARTESIAN_POINT('',(25.35,2.95,4.65));
#1159=CARTESIAN_POINT('Origin',(25.35,0.,6.3));
#1160=CARTESIAN_POINT('Origin',(19.95,-3.4,4.2));
#1161=CARTESIAN_POINT('',(19.95,-3.4,4.2));
#1162=CARTESIAN_POINT('',(19.95,3.4,4.2));
#1163=CARTESIAN_POINT('',(19.95,-3.4,4.2));
#1164=CARTESIAN_POINT('',(21.25,3.4,4.2));
#1165=CARTESIAN_POINT('',(19.95,3.4,4.2));
#1166=CARTESIAN_POINT('',(21.25,-3.4,4.2));
#1167=CARTESIAN_POINT('',(21.25,-3.4,4.2));
#1168=CARTESIAN_POINT('',(19.95,-3.4,4.2));
#1169=CARTESIAN_POINT('Origin',(19.95,-3.4,8.4));
#1170=CARTESIAN_POINT('',(19.95,-3.4,8.4));
#1171=CARTESIAN_POINT('',(19.95,-3.4,8.4));
#1172=CARTESIAN_POINT('',(21.25,-3.4,8.4));
#1173=CARTESIAN_POINT('',(21.25,-3.4,8.4));
#1174=CARTESIAN_POINT('',(19.95,-3.4,8.4));
#1175=CARTESIAN_POINT('Origin',(19.95,3.4,8.4));
#1176=CARTESIAN_POINT('',(19.95,3.4,8.4));
#1177=CARTESIAN_POINT('',(19.95,3.4,8.4));
#1178=CARTESIAN_POINT('',(21.25,3.4,8.4));
#1179=CARTESIAN_POINT('',(21.25,3.4,8.4));
#1180=CARTESIAN_POINT('',(19.95,3.4,8.4));
#1181=CARTESIAN_POINT('Origin',(19.95,3.4,4.2));
#1182=CARTESIAN_POINT('',(19.95,3.4,4.2));
#1183=CARTESIAN_POINT('',(21.25,3.4,4.2));
#1184=CARTESIAN_POINT('Origin',(21.25,0.,6.3));
#1185=CARTESIAN_POINT('Origin',(19.95,0.,6.3));
#1186=UNCERTAINTY_MEASURE_WITH_UNIT(LENGTH_MEASURE(0.01),#1190,
'DISTANCE_ACCURACY_VALUE',
'Maximum model space distance between geometric entities at asserted c
onnectivities');
#1187=UNCERTAINTY_MEASURE_WITH_UNIT(LENGTH_MEASURE(0.01),#1190,
'DISTANCE_ACCURACY_VALUE',
'Maximum model space distance between geometric entities at asserted c
onnectivities');
#1188=(
GEOMETRIC_REPRESENTATION_CONTEXT(3)
GLOBAL_UNCERTAINTY_ASSIGNED_CONTEXT((#1186))
GLOBAL_UNIT_ASSIGNED_CONTEXT((#1190,#1192,#1193))
REPRESENTATION_CONTEXT('','3D')
);
#1189=(
GEOMETRIC_REPRESENTATION_CONTEXT(3)
GLOBAL_UNCERTAINTY_ASSIGNED_CONTEXT((#1187))
GLOBAL_UNIT_ASSIGNED_CONTEXT((#1190,#1192,#1193))
REPRESENTATION_CONTEXT('','3D')
);
#1190=(
LENGTH_UNIT()
NAMED_UNIT(*)
SI_UNIT(.MILLI.,.METRE.)
);
#1191=(
LENGTH_UNIT()
NAMED_UNIT(*)
SI_UNIT($,.METRE.)
);
#1192=(
NAMED_UNIT(*)
PLANE_ANGLE_UNIT()
SI_UNIT($,.RADIAN.)
);
#1193=(
NAMED_UNIT(*)
SI_UNIT($,.STERADIAN.)
SOLID_ANGLE_UNIT()
);
#1194=SHAPE_DEFINITION_REPRESENTATION(#1195,#1196);
#1195=PRODUCT_DEFINITION_SHAPE('',$,#1198);
#1196=SHAPE_REPRESENTATION('',(#744),#1188);
#1197=PRODUCT_DEFINITION_CONTEXT('part definition',#1202,'design');
#1198=PRODUCT_DEFINITION('2026-06-16-17-03-46-249',
'\X2\8235673AFF08\X0\YANTRS 0750AS-MGX-E\X2\FF09\X0\',#1199,#1197);
#1199=PRODUCT_DEFINITION_FORMATION('',$,#1204);
#1200=PRODUCT_RELATED_PRODUCT_CATEGORY(
'\X2\8235673AFF08\X0\YANTRS 0750AS-MGX-E\X2\FF09\X0\',
'\X2\8235673AFF08\X0\YANTRS 0750AS-MGX-E\X2\FF09\X0\',(#1204));
#1201=APPLICATION_PROTOCOL_DEFINITION('international standard',
'automotive_design',2009,#1202);
#1202=APPLICATION_CONTEXT(
'Core Data for Automotive Mechanical Design Process');
#1203=PRODUCT_CONTEXT('part definition',#1202,'mechanical');
#1204=PRODUCT('2026-06-16-17-03-46-249',
'\X2\8235673AFF08\X0\YANTRS 0750AS-MGX-E\X2\FF09\X0\',$,(#1203));
#1205=PRESENTATION_STYLE_ASSIGNMENT((#1206));
#1206=SURFACE_STYLE_USAGE(.BOTH.,#1207);
#1207=SURFACE_SIDE_STYLE('',(#1208));
#1208=SURFACE_STYLE_FILL_AREA(#1209);
#1209=FILL_AREA_STYLE('\X2\94A2\X0\ - \X2\7F0E5149\X0\',(#1210));
#1210=FILL_AREA_STYLE_COLOUR('\X2\94A2\X0\ - \X2\7F0E5149\X0\',#1211);
#1211=COLOUR_RGB('\X2\94A2\X0\ - \X2\7F0E5149\X0\',0.627450980392157,0.627450980392157,
0.627450980392157);
ENDSEC;
END-ISO-10303-21;
