ISO-10303-21;
HEADER;
/* Generated by software containing ST-Developer
 * from STEP Tools, Inc. (www.steptools.com) 
 */

FILE_DESCRIPTION(
/* description */ (''),
/* implementation_level */ '2;1');

FILE_NAME(
/* name */ '',
/* time_stamp */ '2026-08-11T12:34:36+09:00',
/* author */ (''),
/* organization */ (''),
/* preprocessor_version */ 'ST-DEVELOPER v20.1',
/* originating_system */ 'Autodesk Translation Framework v15.8.0.0',
/* authorisation */ '');

FILE_SCHEMA (('AUTOMOTIVE_DESIGN { 1 0 10303 214 3 1 1 }'));
ENDSEC;

DATA;
#10=MECHANICAL_DESIGN_GEOMETRIC_PRESENTATION_REPRESENTATION('',(#13),#1212);
#11=SHAPE_REPRESENTATION_RELATIONSHIP('SRR','None',#1219,#12);
#12=ADVANCED_BREP_SHAPE_REPRESENTATION('',(#14),#1211);
#13=STYLED_ITEM('',(#1228),#14);
#14=MANIFOLD_SOLID_BREP('\X2\5B9E4F53\X0\1',#756);
#15=CIRCLE('',#803,3.3);
#16=CIRCLE('',#804,3.3);
#17=CYLINDRICAL_SURFACE('',#802,3.3);
#18=FACE_BOUND('',#92,.T.);
#19=FACE_BOUND('',#100,.T.);
#20=FACE_BOUND('',#108,.T.);
#21=FACE_BOUND('',#109,.T.);
#22=FACE_BOUND('',#110,.T.);
#23=FACE_BOUND('',#112,.T.);
#24=FACE_BOUND('',#114,.T.);
#25=FACE_OUTER_BOUND('',#67,.T.);
#26=FACE_OUTER_BOUND('',#68,.T.);
#27=FACE_OUTER_BOUND('',#69,.T.);
#28=FACE_OUTER_BOUND('',#70,.T.);
#29=FACE_OUTER_BOUND('',#71,.T.);
#30=FACE_OUTER_BOUND('',#72,.T.);
#31=FACE_OUTER_BOUND('',#73,.T.);
#32=FACE_OUTER_BOUND('',#74,.T.);
#33=FACE_OUTER_BOUND('',#75,.T.);
#34=FACE_OUTER_BOUND('',#76,.T.);
#35=FACE_OUTER_BOUND('',#77,.T.);
#36=FACE_OUTER_BOUND('',#78,.T.);
#37=FACE_OUTER_BOUND('',#79,.T.);
#38=FACE_OUTER_BOUND('',#80,.T.);
#39=FACE_OUTER_BOUND('',#81,.T.);
#40=FACE_OUTER_BOUND('',#82,.T.);
#41=FACE_OUTER_BOUND('',#83,.T.);
#42=FACE_OUTER_BOUND('',#84,.T.);
#43=FACE_OUTER_BOUND('',#85,.T.);
#44=FACE_OUTER_BOUND('',#86,.T.);
#45=FACE_OUTER_BOUND('',#87,.T.);
#46=FACE_OUTER_BOUND('',#88,.T.);
#47=FACE_OUTER_BOUND('',#89,.T.);
#48=FACE_OUTER_BOUND('',#90,.T.);
#49=FACE_OUTER_BOUND('',#91,.T.);
#50=FACE_OUTER_BOUND('',#93,.T.);
#51=FACE_OUTER_BOUND('',#94,.T.);
#52=FACE_OUTER_BOUND('',#95,.T.);
#53=FACE_OUTER_BOUND('',#96,.T.);
#54=FACE_OUTER_BOUND('',#97,.T.);
#55=FACE_OUTER_BOUND('',#98,.T.);
#56=FACE_OUTER_BOUND('',#99,.T.);
#57=FACE_OUTER_BOUND('',#101,.T.);
#58=FACE_OUTER_BOUND('',#102,.T.);
#59=FACE_OUTER_BOUND('',#103,.T.);
#60=FACE_OUTER_BOUND('',#104,.T.);
#61=FACE_OUTER_BOUND('',#105,.T.);
#62=FACE_OUTER_BOUND('',#106,.T.);
#63=FACE_OUTER_BOUND('',#107,.T.);
#64=FACE_OUTER_BOUND('',#111,.T.);
#65=FACE_OUTER_BOUND('',#113,.T.);
#66=FACE_OUTER_BOUND('',#115,.T.);
#67=EDGE_LOOP('',(#475,#476,#477,#478));
#68=EDGE_LOOP('',(#479,#480,#481,#482));
#69=EDGE_LOOP('',(#483,#484,#485,#486));
#70=EDGE_LOOP('',(#487,#488,#489,#490));
#71=EDGE_LOOP('',(#491,#492,#493,#494));
#72=EDGE_LOOP('',(#495,#496,#497,#498));
#73=EDGE_LOOP('',(#499,#500,#501,#502));
#74=EDGE_LOOP('',(#503,#504,#505,#506));
#75=EDGE_LOOP('',(#507,#508,#509,#510));
#76=EDGE_LOOP('',(#511,#512,#513,#514));
#77=EDGE_LOOP('',(#515,#516,#517,#518));
#78=EDGE_LOOP('',(#519,#520,#521,#522));
#79=EDGE_LOOP('',(#523,#524,#525,#526));
#80=EDGE_LOOP('',(#527,#528,#529,#530));
#81=EDGE_LOOP('',(#531,#532,#533,#534));
#82=EDGE_LOOP('',(#535,#536,#537,#538));
#83=EDGE_LOOP('',(#539,#540,#541,#542));
#84=EDGE_LOOP('',(#543,#544,#545,#546));
#85=EDGE_LOOP('',(#547,#548,#549,#550));
#86=EDGE_LOOP('',(#551,#552,#553,#554));
#87=EDGE_LOOP('',(#555,#556,#557,#558));
#88=EDGE_LOOP('',(#559,#560,#561,#562));
#89=EDGE_LOOP('',(#563,#564,#565,#566));
#90=EDGE_LOOP('',(#567,#568,#569,#570));
#91=EDGE_LOOP('',(#571,#572,#573,#574));
#92=EDGE_LOOP('',(#575,#576,#577,#578));
#93=EDGE_LOOP('',(#579,#580,#581,#582));
#94=EDGE_LOOP('',(#583,#584,#585,#586));
#95=EDGE_LOOP('',(#587,#588,#589,#590));
#96=EDGE_LOOP('',(#591,#592,#593,#594));
#97=EDGE_LOOP('',(#595,#596,#597,#598));
#98=EDGE_LOOP('',(#599,#600,#601,#602));
#99=EDGE_LOOP('',(#603,#604,#605,#606));
#100=EDGE_LOOP('',(#607,#608,#609,#610));
#101=EDGE_LOOP('',(#611,#612,#613,#614));
#102=EDGE_LOOP('',(#615));
#103=EDGE_LOOP('',(#616,#617,#618,#619));
#104=EDGE_LOOP('',(#620,#621,#622,#623));
#105=EDGE_LOOP('',(#624,#625,#626,#627));
#106=EDGE_LOOP('',(#628,#629,#630,#631));
#107=EDGE_LOOP('',(#632,#633,#634,#635));
#108=EDGE_LOOP('',(#636,#637,#638,#639));
#109=EDGE_LOOP('',(#640,#641,#642,#643));
#110=EDGE_LOOP('',(#644,#645,#646,#647));
#111=EDGE_LOOP('',(#648,#649,#650,#651));
#112=EDGE_LOOP('',(#652,#653,#654,#655));
#113=EDGE_LOOP('',(#656,#657,#658,#659,#660,#661,#662,#663));
#114=EDGE_LOOP('',(#664));
#115=EDGE_LOOP('',(#665,#666,#667,#668,#669,#670,#671,#672));
#116=LINE('',#1005,#213);
#117=LINE('',#1007,#214);
#118=LINE('',#1009,#215);
#119=LINE('',#1010,#216);
#120=LINE('',#1013,#217);
#121=LINE('',#1015,#218);
#122=LINE('',#1016,#219);
#123=LINE('',#1019,#220);
#124=LINE('',#1021,#221);
#125=LINE('',#1022,#222);
#126=LINE('',#1024,#223);
#127=LINE('',#1025,#224);
#128=LINE('',#1030,#225);
#129=LINE('',#1032,#226);
#130=LINE('',#1034,#227);
#131=LINE('',#1035,#228);
#132=LINE('',#1038,#229);
#133=LINE('',#1040,#230);
#134=LINE('',#1041,#231);
#135=LINE('',#1044,#232);
#136=LINE('',#1046,#233);
#137=LINE('',#1047,#234);
#138=LINE('',#1049,#235);
#139=LINE('',#1050,#236);
#140=LINE('',#1055,#237);
#141=LINE('',#1057,#238);
#142=LINE('',#1059,#239);
#143=LINE('',#1060,#240);
#144=LINE('',#1063,#241);
#145=LINE('',#1065,#242);
#146=LINE('',#1066,#243);
#147=LINE('',#1069,#244);
#148=LINE('',#1071,#245);
#149=LINE('',#1072,#246);
#150=LINE('',#1074,#247);
#151=LINE('',#1075,#248);
#152=LINE('',#1080,#249);
#153=LINE('',#1082,#250);
#154=LINE('',#1084,#251);
#155=LINE('',#1085,#252);
#156=LINE('',#1088,#253);
#157=LINE('',#1090,#254);
#158=LINE('',#1091,#255);
#159=LINE('',#1094,#256);
#160=LINE('',#1096,#257);
#161=LINE('',#1097,#258);
#162=LINE('',#1099,#259);
#163=LINE('',#1100,#260);
#164=LINE('',#1105,#261);
#165=LINE('',#1107,#262);
#166=LINE('',#1109,#263);
#167=LINE('',#1110,#264);
#168=LINE('',#1113,#265);
#169=LINE('',#1115,#266);
#170=LINE('',#1116,#267);
#171=LINE('',#1119,#268);
#172=LINE('',#1121,#269);
#173=LINE('',#1122,#270);
#174=LINE('',#1124,#271);
#175=LINE('',#1125,#272);
#176=LINE('',#1130,#273);
#177=LINE('',#1132,#274);
#178=LINE('',#1134,#275);
#179=LINE('',#1135,#276);
#180=LINE('',#1138,#277);
#181=LINE('',#1140,#278);
#182=LINE('',#1141,#279);
#183=LINE('',#1145,#280);
#184=LINE('',#1147,#281);
#185=LINE('',#1149,#282);
#186=LINE('',#1150,#283);
#187=LINE('',#1153,#284);
#188=LINE('',#1155,#285);
#189=LINE('',#1156,#286);
#190=LINE('',#1159,#287);
#191=LINE('',#1161,#288);
#192=LINE('',#1162,#289);
#193=LINE('',#1165,#290);
#194=LINE('',#1167,#291);
#195=LINE('',#1168,#292);
#196=LINE('',#1170,#293);
#197=LINE('',#1171,#294);
#198=LINE('',#1176,#295);
#199=LINE('',#1182,#296);
#200=LINE('',#1184,#297);
#201=LINE('',#1186,#298);
#202=LINE('',#1187,#299);
#203=LINE('',#1190,#300);
#204=LINE('',#1192,#301);
#205=LINE('',#1193,#302);
#206=LINE('',#1196,#303);
#207=LINE('',#1198,#304);
#208=LINE('',#1199,#305);
#209=LINE('',#1201,#306);
#210=LINE('',#1202,#307);
#211=LINE('',#1205,#308);
#212=LINE('',#1206,#309);
#213=VECTOR('',#818,10.);
#214=VECTOR('',#819,10.);
#215=VECTOR('',#820,10.);
#216=VECTOR('',#821,10.);
#217=VECTOR('',#824,10.);
#218=VECTOR('',#825,10.);
#219=VECTOR('',#826,10.);
#220=VECTOR('',#829,10.);
#221=VECTOR('',#830,10.);
#222=VECTOR('',#831,10.);
#223=VECTOR('',#834,10.);
#224=VECTOR('',#835,10.);
#225=VECTOR('',#840,10.);
#226=VECTOR('',#841,10.);
#227=VECTOR('',#842,10.);
#228=VECTOR('',#843,10.);
#229=VECTOR('',#846,10.);
#230=VECTOR('',#847,10.);
#231=VECTOR('',#848,10.);
#232=VECTOR('',#851,10.);
#233=VECTOR('',#852,10.);
#234=VECTOR('',#853,10.);
#235=VECTOR('',#856,10.);
#236=VECTOR('',#857,10.);
#237=VECTOR('',#862,10.);
#238=VECTOR('',#863,10.);
#239=VECTOR('',#864,10.);
#240=VECTOR('',#865,10.);
#241=VECTOR('',#868,10.);
#242=VECTOR('',#869,10.);
#243=VECTOR('',#870,10.);
#244=VECTOR('',#873,10.);
#245=VECTOR('',#874,10.);
#246=VECTOR('',#875,10.);
#247=VECTOR('',#878,10.);
#248=VECTOR('',#879,10.);
#249=VECTOR('',#884,10.);
#250=VECTOR('',#885,10.);
#251=VECTOR('',#886,10.);
#252=VECTOR('',#887,10.);
#253=VECTOR('',#890,10.);
#254=VECTOR('',#891,10.);
#255=VECTOR('',#892,10.);
#256=VECTOR('',#895,10.);
#257=VECTOR('',#896,10.);
#258=VECTOR('',#897,10.);
#259=VECTOR('',#900,10.);
#260=VECTOR('',#901,10.);
#261=VECTOR('',#906,10.);
#262=VECTOR('',#907,10.);
#263=VECTOR('',#908,10.);
#264=VECTOR('',#909,10.);
#265=VECTOR('',#912,10.);
#266=VECTOR('',#913,10.);
#267=VECTOR('',#914,10.);
#268=VECTOR('',#917,10.);
#269=VECTOR('',#918,10.);
#270=VECTOR('',#919,10.);
#271=VECTOR('',#922,10.);
#272=VECTOR('',#923,10.);
#273=VECTOR('',#928,10.);
#274=VECTOR('',#929,10.);
#275=VECTOR('',#930,10.);
#276=VECTOR('',#931,10.);
#277=VECTOR('',#934,10.);
#278=VECTOR('',#935,10.);
#279=VECTOR('',#936,10.);
#280=VECTOR('',#939,10.);
#281=VECTOR('',#940,10.);
#282=VECTOR('',#941,10.);
#283=VECTOR('',#942,10.);
#284=VECTOR('',#945,10.);
#285=VECTOR('',#946,10.);
#286=VECTOR('',#947,10.);
#287=VECTOR('',#950,10.);
#288=VECTOR('',#951,10.);
#289=VECTOR('',#952,10.);
#290=VECTOR('',#955,10.);
#291=VECTOR('',#956,10.);
#292=VECTOR('',#957,10.);
#293=VECTOR('',#960,10.);
#294=VECTOR('',#961,10.);
#295=VECTOR('',#966,3.3);
#296=VECTOR('',#973,10.);
#297=VECTOR('',#974,10.);
#298=VECTOR('',#975,10.);
#299=VECTOR('',#976,10.);
#300=VECTOR('',#979,10.);
#301=VECTOR('',#980,10.);
#302=VECTOR('',#981,10.);
#303=VECTOR('',#984,10.);
#304=VECTOR('',#985,10.);
#305=VECTOR('',#986,10.);
#306=VECTOR('',#989,10.);
#307=VECTOR('',#990,10.);
#308=VECTOR('',#995,10.);
#309=VECTOR('',#996,10.);
#310=VERTEX_POINT('',#1003);
#311=VERTEX_POINT('',#1004);
#312=VERTEX_POINT('',#1006);
#313=VERTEX_POINT('',#1008);
#314=VERTEX_POINT('',#1012);
#315=VERTEX_POINT('',#1014);
#316=VERTEX_POINT('',#1018);
#317=VERTEX_POINT('',#1020);
#318=VERTEX_POINT('',#1028);
#319=VERTEX_POINT('',#1029);
#320=VERTEX_POINT('',#1031);
#321=VERTEX_POINT('',#1033);
#322=VERTEX_POINT('',#1037);
#323=VERTEX_POINT('',#1039);
#324=VERTEX_POINT('',#1043);
#325=VERTEX_POINT('',#1045);
#326=VERTEX_POINT('',#1053);
#327=VERTEX_POINT('',#1054);
#328=VERTEX_POINT('',#1056);
#329=VERTEX_POINT('',#1058);
#330=VERTEX_POINT('',#1062);
#331=VERTEX_POINT('',#1064);
#332=VERTEX_POINT('',#1068);
#333=VERTEX_POINT('',#1070);
#334=VERTEX_POINT('',#1078);
#335=VERTEX_POINT('',#1079);
#336=VERTEX_POINT('',#1081);
#337=VERTEX_POINT('',#1083);
#338=VERTEX_POINT('',#1087);
#339=VERTEX_POINT('',#1089);
#340=VERTEX_POINT('',#1093);
#341=VERTEX_POINT('',#1095);
#342=VERTEX_POINT('',#1103);
#343=VERTEX_POINT('',#1104);
#344=VERTEX_POINT('',#1106);
#345=VERTEX_POINT('',#1108);
#346=VERTEX_POINT('',#1112);
#347=VERTEX_POINT('',#1114);
#348=VERTEX_POINT('',#1118);
#349=VERTEX_POINT('',#1120);
#350=VERTEX_POINT('',#1128);
#351=VERTEX_POINT('',#1129);
#352=VERTEX_POINT('',#1131);
#353=VERTEX_POINT('',#1133);
#354=VERTEX_POINT('',#1137);
#355=VERTEX_POINT('',#1139);
#356=VERTEX_POINT('',#1143);
#357=VERTEX_POINT('',#1144);
#358=VERTEX_POINT('',#1146);
#359=VERTEX_POINT('',#1148);
#360=VERTEX_POINT('',#1152);
#361=VERTEX_POINT('',#1154);
#362=VERTEX_POINT('',#1158);
#363=VERTEX_POINT('',#1160);
#364=VERTEX_POINT('',#1164);
#365=VERTEX_POINT('',#1166);
#366=VERTEX_POINT('',#1173);
#367=VERTEX_POINT('',#1175);
#368=VERTEX_POINT('',#1180);
#369=VERTEX_POINT('',#1181);
#370=VERTEX_POINT('',#1183);
#371=VERTEX_POINT('',#1185);
#372=VERTEX_POINT('',#1189);
#373=VERTEX_POINT('',#1191);
#374=VERTEX_POINT('',#1195);
#375=VERTEX_POINT('',#1197);
#376=EDGE_CURVE('',#310,#311,#116,.T.);
#377=EDGE_CURVE('',#310,#312,#117,.T.);
#378=EDGE_CURVE('',#313,#312,#118,.T.);
#379=EDGE_CURVE('',#311,#313,#119,.T.);
#380=EDGE_CURVE('',#311,#314,#120,.T.);
#381=EDGE_CURVE('',#315,#313,#121,.T.);
#382=EDGE_CURVE('',#314,#315,#122,.T.);
#383=EDGE_CURVE('',#314,#316,#123,.T.);
#384=EDGE_CURVE('',#317,#315,#124,.T.);
#385=EDGE_CURVE('',#316,#317,#125,.T.);
#386=EDGE_CURVE('',#316,#310,#126,.T.);
#387=EDGE_CURVE('',#312,#317,#127,.T.);
#388=EDGE_CURVE('',#318,#319,#128,.T.);
#389=EDGE_CURVE('',#318,#320,#129,.T.);
#390=EDGE_CURVE('',#321,#320,#130,.T.);
#391=EDGE_CURVE('',#319,#321,#131,.T.);
#392=EDGE_CURVE('',#319,#322,#132,.T.);
#393=EDGE_CURVE('',#323,#321,#133,.T.);
#394=EDGE_CURVE('',#322,#323,#134,.T.);
#395=EDGE_CURVE('',#322,#324,#135,.T.);
#396=EDGE_CURVE('',#325,#323,#136,.T.);
#397=EDGE_CURVE('',#324,#325,#137,.T.);
#398=EDGE_CURVE('',#324,#318,#138,.T.);
#399=EDGE_CURVE('',#320,#325,#139,.T.);
#400=EDGE_CURVE('',#326,#327,#140,.T.);
#401=EDGE_CURVE('',#326,#328,#141,.T.);
#402=EDGE_CURVE('',#329,#328,#142,.T.);
#403=EDGE_CURVE('',#327,#329,#143,.T.);
#404=EDGE_CURVE('',#327,#330,#144,.T.);
#405=EDGE_CURVE('',#331,#329,#145,.T.);
#406=EDGE_CURVE('',#330,#331,#146,.T.);
#407=EDGE_CURVE('',#330,#332,#147,.T.);
#408=EDGE_CURVE('',#333,#331,#148,.T.);
#409=EDGE_CURVE('',#332,#333,#149,.T.);
#410=EDGE_CURVE('',#332,#326,#150,.T.);
#411=EDGE_CURVE('',#328,#333,#151,.T.);
#412=EDGE_CURVE('',#334,#335,#152,.T.);
#413=EDGE_CURVE('',#334,#336,#153,.T.);
#414=EDGE_CURVE('',#337,#336,#154,.T.);
#415=EDGE_CURVE('',#335,#337,#155,.T.);
#416=EDGE_CURVE('',#335,#338,#156,.T.);
#417=EDGE_CURVE('',#339,#337,#157,.T.);
#418=EDGE_CURVE('',#338,#339,#158,.T.);
#419=EDGE_CURVE('',#338,#340,#159,.T.);
#420=EDGE_CURVE('',#341,#339,#160,.T.);
#421=EDGE_CURVE('',#340,#341,#161,.T.);
#422=EDGE_CURVE('',#340,#334,#162,.T.);
#423=EDGE_CURVE('',#336,#341,#163,.T.);
#424=EDGE_CURVE('',#342,#343,#164,.T.);
#425=EDGE_CURVE('',#342,#344,#165,.T.);
#426=EDGE_CURVE('',#344,#345,#166,.T.);
#427=EDGE_CURVE('',#343,#345,#167,.T.);
#428=EDGE_CURVE('',#346,#342,#168,.T.);
#429=EDGE_CURVE('',#346,#347,#169,.T.);
#430=EDGE_CURVE('',#347,#344,#170,.T.);
#431=EDGE_CURVE('',#348,#346,#171,.T.);
#432=EDGE_CURVE('',#348,#349,#172,.T.);
#433=EDGE_CURVE('',#349,#347,#173,.T.);
#434=EDGE_CURVE('',#343,#348,#174,.T.);
#435=EDGE_CURVE('',#345,#349,#175,.T.);
#436=EDGE_CURVE('',#350,#351,#176,.T.);
#437=EDGE_CURVE('',#352,#350,#177,.T.);
#438=EDGE_CURVE('',#353,#352,#178,.T.);
#439=EDGE_CURVE('',#351,#353,#179,.T.);
#440=EDGE_CURVE('',#354,#350,#180,.T.);
#441=EDGE_CURVE('',#355,#354,#181,.T.);
#442=EDGE_CURVE('',#352,#355,#182,.T.);
#443=EDGE_CURVE('',#356,#357,#183,.T.);
#444=EDGE_CURVE('',#358,#356,#184,.T.);
#445=EDGE_CURVE('',#359,#358,#185,.T.);
#446=EDGE_CURVE('',#359,#357,#186,.T.);
#447=EDGE_CURVE('',#357,#360,#187,.T.);
#448=EDGE_CURVE('',#361,#359,#188,.T.);
#449=EDGE_CURVE('',#360,#361,#189,.T.);
#450=EDGE_CURVE('',#362,#353,#190,.T.);
#451=EDGE_CURVE('',#363,#362,#191,.T.);
#452=EDGE_CURVE('',#363,#351,#192,.T.);
#453=EDGE_CURVE('',#356,#364,#193,.T.);
#454=EDGE_CURVE('',#364,#365,#194,.T.);
#455=EDGE_CURVE('',#358,#365,#195,.T.);
#456=EDGE_CURVE('',#354,#360,#196,.T.);
#457=EDGE_CURVE('',#355,#361,#197,.T.);
#458=EDGE_CURVE('',#366,#366,#15,.T.);
#459=EDGE_CURVE('',#366,#367,#198,.T.);
#460=EDGE_CURVE('',#367,#367,#16,.T.);
#461=EDGE_CURVE('',#368,#369,#199,.T.);
#462=EDGE_CURVE('',#368,#370,#200,.T.);
#463=EDGE_CURVE('',#370,#371,#201,.T.);
#464=EDGE_CURVE('',#369,#371,#202,.T.);
#465=EDGE_CURVE('',#372,#368,#203,.T.);
#466=EDGE_CURVE('',#372,#373,#204,.T.);
#467=EDGE_CURVE('',#373,#370,#205,.T.);
#468=EDGE_CURVE('',#374,#372,#206,.T.);
#469=EDGE_CURVE('',#374,#375,#207,.T.);
#470=EDGE_CURVE('',#375,#373,#208,.T.);
#471=EDGE_CURVE('',#369,#374,#209,.T.);
#472=EDGE_CURVE('',#371,#375,#210,.T.);
#473=EDGE_CURVE('',#364,#363,#211,.T.);
#474=EDGE_CURVE('',#365,#362,#212,.T.);
#475=ORIENTED_EDGE('',*,*,#376,.F.);
#476=ORIENTED_EDGE('',*,*,#377,.T.);
#477=ORIENTED_EDGE('',*,*,#378,.F.);
#478=ORIENTED_EDGE('',*,*,#379,.F.);
#479=ORIENTED_EDGE('',*,*,#380,.F.);
#480=ORIENTED_EDGE('',*,*,#379,.T.);
#481=ORIENTED_EDGE('',*,*,#381,.F.);
#482=ORIENTED_EDGE('',*,*,#382,.F.);
#483=ORIENTED_EDGE('',*,*,#383,.F.);
#484=ORIENTED_EDGE('',*,*,#382,.T.);
#485=ORIENTED_EDGE('',*,*,#384,.F.);
#486=ORIENTED_EDGE('',*,*,#385,.F.);
#487=ORIENTED_EDGE('',*,*,#386,.F.);
#488=ORIENTED_EDGE('',*,*,#385,.T.);
#489=ORIENTED_EDGE('',*,*,#387,.F.);
#490=ORIENTED_EDGE('',*,*,#377,.F.);
#491=ORIENTED_EDGE('',*,*,#387,.T.);
#492=ORIENTED_EDGE('',*,*,#384,.T.);
#493=ORIENTED_EDGE('',*,*,#381,.T.);
#494=ORIENTED_EDGE('',*,*,#378,.T.);
#495=ORIENTED_EDGE('',*,*,#388,.F.);
#496=ORIENTED_EDGE('',*,*,#389,.T.);
#497=ORIENTED_EDGE('',*,*,#390,.F.);
#498=ORIENTED_EDGE('',*,*,#391,.F.);
#499=ORIENTED_EDGE('',*,*,#392,.F.);
#500=ORIENTED_EDGE('',*,*,#391,.T.);
#501=ORIENTED_EDGE('',*,*,#393,.F.);
#502=ORIENTED_EDGE('',*,*,#394,.F.);
#503=ORIENTED_EDGE('',*,*,#395,.F.);
#504=ORIENTED_EDGE('',*,*,#394,.T.);
#505=ORIENTED_EDGE('',*,*,#396,.F.);
#506=ORIENTED_EDGE('',*,*,#397,.F.);
#507=ORIENTED_EDGE('',*,*,#398,.F.);
#508=ORIENTED_EDGE('',*,*,#397,.T.);
#509=ORIENTED_EDGE('',*,*,#399,.F.);
#510=ORIENTED_EDGE('',*,*,#389,.F.);
#511=ORIENTED_EDGE('',*,*,#399,.T.);
#512=ORIENTED_EDGE('',*,*,#396,.T.);
#513=ORIENTED_EDGE('',*,*,#393,.T.);
#514=ORIENTED_EDGE('',*,*,#390,.T.);
#515=ORIENTED_EDGE('',*,*,#400,.F.);
#516=ORIENTED_EDGE('',*,*,#401,.T.);
#517=ORIENTED_EDGE('',*,*,#402,.F.);
#518=ORIENTED_EDGE('',*,*,#403,.F.);
#519=ORIENTED_EDGE('',*,*,#404,.F.);
#520=ORIENTED_EDGE('',*,*,#403,.T.);
#521=ORIENTED_EDGE('',*,*,#405,.F.);
#522=ORIENTED_EDGE('',*,*,#406,.F.);
#523=ORIENTED_EDGE('',*,*,#407,.F.);
#524=ORIENTED_EDGE('',*,*,#406,.T.);
#525=ORIENTED_EDGE('',*,*,#408,.F.);
#526=ORIENTED_EDGE('',*,*,#409,.F.);
#527=ORIENTED_EDGE('',*,*,#410,.F.);
#528=ORIENTED_EDGE('',*,*,#409,.T.);
#529=ORIENTED_EDGE('',*,*,#411,.F.);
#530=ORIENTED_EDGE('',*,*,#401,.F.);
#531=ORIENTED_EDGE('',*,*,#411,.T.);
#532=ORIENTED_EDGE('',*,*,#408,.T.);
#533=ORIENTED_EDGE('',*,*,#405,.T.);
#534=ORIENTED_EDGE('',*,*,#402,.T.);
#535=ORIENTED_EDGE('',*,*,#412,.F.);
#536=ORIENTED_EDGE('',*,*,#413,.T.);
#537=ORIENTED_EDGE('',*,*,#414,.F.);
#538=ORIENTED_EDGE('',*,*,#415,.F.);
#539=ORIENTED_EDGE('',*,*,#416,.F.);
#540=ORIENTED_EDGE('',*,*,#415,.T.);
#541=ORIENTED_EDGE('',*,*,#417,.F.);
#542=ORIENTED_EDGE('',*,*,#418,.F.);
#543=ORIENTED_EDGE('',*,*,#419,.F.);
#544=ORIENTED_EDGE('',*,*,#418,.T.);
#545=ORIENTED_EDGE('',*,*,#420,.F.);
#546=ORIENTED_EDGE('',*,*,#421,.F.);
#547=ORIENTED_EDGE('',*,*,#422,.F.);
#548=ORIENTED_EDGE('',*,*,#421,.T.);
#549=ORIENTED_EDGE('',*,*,#423,.F.);
#550=ORIENTED_EDGE('',*,*,#413,.F.);
#551=ORIENTED_EDGE('',*,*,#423,.T.);
#552=ORIENTED_EDGE('',*,*,#420,.T.);
#553=ORIENTED_EDGE('',*,*,#417,.T.);
#554=ORIENTED_EDGE('',*,*,#414,.T.);
#555=ORIENTED_EDGE('',*,*,#424,.F.);
#556=ORIENTED_EDGE('',*,*,#425,.T.);
#557=ORIENTED_EDGE('',*,*,#426,.T.);
#558=ORIENTED_EDGE('',*,*,#427,.F.);
#559=ORIENTED_EDGE('',*,*,#428,.F.);
#560=ORIENTED_EDGE('',*,*,#429,.T.);
#561=ORIENTED_EDGE('',*,*,#430,.T.);
#562=ORIENTED_EDGE('',*,*,#425,.F.);
#563=ORIENTED_EDGE('',*,*,#431,.F.);
#564=ORIENTED_EDGE('',*,*,#432,.T.);
#565=ORIENTED_EDGE('',*,*,#433,.T.);
#566=ORIENTED_EDGE('',*,*,#429,.F.);
#567=ORIENTED_EDGE('',*,*,#434,.F.);
#568=ORIENTED_EDGE('',*,*,#427,.T.);
#569=ORIENTED_EDGE('',*,*,#435,.T.);
#570=ORIENTED_EDGE('',*,*,#432,.F.);
#571=ORIENTED_EDGE('',*,*,#435,.F.);
#572=ORIENTED_EDGE('',*,*,#426,.F.);
#573=ORIENTED_EDGE('',*,*,#430,.F.);
#574=ORIENTED_EDGE('',*,*,#433,.F.);
#575=ORIENTED_EDGE('',*,*,#412,.T.);
#576=ORIENTED_EDGE('',*,*,#416,.T.);
#577=ORIENTED_EDGE('',*,*,#419,.T.);
#578=ORIENTED_EDGE('',*,*,#422,.T.);
#579=ORIENTED_EDGE('',*,*,#436,.F.);
#580=ORIENTED_EDGE('',*,*,#437,.F.);
#581=ORIENTED_EDGE('',*,*,#438,.F.);
#582=ORIENTED_EDGE('',*,*,#439,.F.);
#583=ORIENTED_EDGE('',*,*,#440,.F.);
#584=ORIENTED_EDGE('',*,*,#441,.F.);
#585=ORIENTED_EDGE('',*,*,#442,.F.);
#586=ORIENTED_EDGE('',*,*,#437,.T.);
#587=ORIENTED_EDGE('',*,*,#443,.F.);
#588=ORIENTED_EDGE('',*,*,#444,.F.);
#589=ORIENTED_EDGE('',*,*,#445,.F.);
#590=ORIENTED_EDGE('',*,*,#446,.T.);
#591=ORIENTED_EDGE('',*,*,#447,.F.);
#592=ORIENTED_EDGE('',*,*,#446,.F.);
#593=ORIENTED_EDGE('',*,*,#448,.F.);
#594=ORIENTED_EDGE('',*,*,#449,.F.);
#595=ORIENTED_EDGE('',*,*,#439,.T.);
#596=ORIENTED_EDGE('',*,*,#450,.F.);
#597=ORIENTED_EDGE('',*,*,#451,.F.);
#598=ORIENTED_EDGE('',*,*,#452,.T.);
#599=ORIENTED_EDGE('',*,*,#444,.T.);
#600=ORIENTED_EDGE('',*,*,#453,.T.);
#601=ORIENTED_EDGE('',*,*,#454,.T.);
#602=ORIENTED_EDGE('',*,*,#455,.F.);
#603=ORIENTED_EDGE('',*,*,#441,.T.);
#604=ORIENTED_EDGE('',*,*,#456,.T.);
#605=ORIENTED_EDGE('',*,*,#449,.T.);
#606=ORIENTED_EDGE('',*,*,#457,.F.);
#607=ORIENTED_EDGE('',*,*,#424,.T.);
#608=ORIENTED_EDGE('',*,*,#434,.T.);
#609=ORIENTED_EDGE('',*,*,#431,.T.);
#610=ORIENTED_EDGE('',*,*,#428,.T.);
#611=ORIENTED_EDGE('',*,*,#458,.F.);
#612=ORIENTED_EDGE('',*,*,#459,.T.);
#613=ORIENTED_EDGE('',*,*,#460,.F.);
#614=ORIENTED_EDGE('',*,*,#459,.F.);
#615=ORIENTED_EDGE('',*,*,#458,.T.);
#616=ORIENTED_EDGE('',*,*,#461,.F.);
#617=ORIENTED_EDGE('',*,*,#462,.T.);
#618=ORIENTED_EDGE('',*,*,#463,.T.);
#619=ORIENTED_EDGE('',*,*,#464,.F.);
#620=ORIENTED_EDGE('',*,*,#465,.F.);
#621=ORIENTED_EDGE('',*,*,#466,.T.);
#622=ORIENTED_EDGE('',*,*,#467,.T.);
#623=ORIENTED_EDGE('',*,*,#462,.F.);
#624=ORIENTED_EDGE('',*,*,#468,.F.);
#625=ORIENTED_EDGE('',*,*,#469,.T.);
#626=ORIENTED_EDGE('',*,*,#470,.T.);
#627=ORIENTED_EDGE('',*,*,#466,.F.);
#628=ORIENTED_EDGE('',*,*,#471,.F.);
#629=ORIENTED_EDGE('',*,*,#464,.T.);
#630=ORIENTED_EDGE('',*,*,#472,.T.);
#631=ORIENTED_EDGE('',*,*,#469,.F.);
#632=ORIENTED_EDGE('',*,*,#472,.F.);
#633=ORIENTED_EDGE('',*,*,#463,.F.);
#634=ORIENTED_EDGE('',*,*,#467,.F.);
#635=ORIENTED_EDGE('',*,*,#470,.F.);
#636=ORIENTED_EDGE('',*,*,#376,.T.);
#637=ORIENTED_EDGE('',*,*,#380,.T.);
#638=ORIENTED_EDGE('',*,*,#383,.T.);
#639=ORIENTED_EDGE('',*,*,#386,.T.);
#640=ORIENTED_EDGE('',*,*,#388,.T.);
#641=ORIENTED_EDGE('',*,*,#392,.T.);
#642=ORIENTED_EDGE('',*,*,#395,.T.);
#643=ORIENTED_EDGE('',*,*,#398,.T.);
#644=ORIENTED_EDGE('',*,*,#400,.T.);
#645=ORIENTED_EDGE('',*,*,#404,.T.);
#646=ORIENTED_EDGE('',*,*,#407,.T.);
#647=ORIENTED_EDGE('',*,*,#410,.T.);
#648=ORIENTED_EDGE('',*,*,#473,.T.);
#649=ORIENTED_EDGE('',*,*,#451,.T.);
#650=ORIENTED_EDGE('',*,*,#474,.F.);
#651=ORIENTED_EDGE('',*,*,#454,.F.);
#652=ORIENTED_EDGE('',*,*,#461,.T.);
#653=ORIENTED_EDGE('',*,*,#471,.T.);
#654=ORIENTED_EDGE('',*,*,#468,.T.);
#655=ORIENTED_EDGE('',*,*,#465,.T.);
#656=ORIENTED_EDGE('',*,*,#442,.T.);
#657=ORIENTED_EDGE('',*,*,#457,.T.);
#658=ORIENTED_EDGE('',*,*,#448,.T.);
#659=ORIENTED_EDGE('',*,*,#445,.T.);
#660=ORIENTED_EDGE('',*,*,#455,.T.);
#661=ORIENTED_EDGE('',*,*,#474,.T.);
#662=ORIENTED_EDGE('',*,*,#450,.T.);
#663=ORIENTED_EDGE('',*,*,#438,.T.);
#664=ORIENTED_EDGE('',*,*,#460,.T.);
#665=ORIENTED_EDGE('',*,*,#436,.T.);
#666=ORIENTED_EDGE('',*,*,#452,.F.);
#667=ORIENTED_EDGE('',*,*,#473,.F.);
#668=ORIENTED_EDGE('',*,*,#453,.F.);
#669=ORIENTED_EDGE('',*,*,#443,.T.);
#670=ORIENTED_EDGE('',*,*,#447,.T.);
#671=ORIENTED_EDGE('',*,*,#456,.F.);
#672=ORIENTED_EDGE('',*,*,#440,.T.);
#673=PLANE('',#770);
#674=PLANE('',#771);
#675=PLANE('',#772);
#676=PLANE('',#773);
#677=PLANE('',#774);
#678=PLANE('',#775);
#679=PLANE('',#776);
#680=PLANE('',#777);
#681=PLANE('',#778);
#682=PLANE('',#779);
#683=PLANE('',#780);
#684=PLANE('',#781);
#685=PLANE('',#782);
#686=PLANE('',#783);
#687=PLANE('',#784);
#688=PLANE('',#785);
#689=PLANE('',#786);
#690=PLANE('',#787);
#691=PLANE('',#788);
#692=PLANE('',#789);
#693=PLANE('',#790);
#694=PLANE('',#791);
#695=PLANE('',#792);
#696=PLANE('',#793);
#697=PLANE('',#794);
#698=PLANE('',#795);
#699=PLANE('',#796);
#700=PLANE('',#797);
#701=PLANE('',#798);
#702=PLANE('',#799);
#703=PLANE('',#800);
#704=PLANE('',#801);
#705=PLANE('',#805);
#706=PLANE('',#806);
#707=PLANE('',#807);
#708=PLANE('',#808);
#709=PLANE('',#809);
#710=PLANE('',#810);
#711=PLANE('',#811);
#712=PLANE('',#812);
#713=PLANE('',#813);
#714=ADVANCED_FACE('',(#25),#673,.T.);
#715=ADVANCED_FACE('',(#26),#674,.T.);
#716=ADVANCED_FACE('',(#27),#675,.T.);
#717=ADVANCED_FACE('',(#28),#676,.T.);
#718=ADVANCED_FACE('',(#29),#677,.T.);
#719=ADVANCED_FACE('',(#30),#678,.T.);
#720=ADVANCED_FACE('',(#31),#679,.T.);
#721=ADVANCED_FACE('',(#32),#680,.T.);
#722=ADVANCED_FACE('',(#33),#681,.T.);
#723=ADVANCED_FACE('',(#34),#682,.T.);
#724=ADVANCED_FACE('',(#35),#683,.T.);
#725=ADVANCED_FACE('',(#36),#684,.T.);
#726=ADVANCED_FACE('',(#37),#685,.T.);
#727=ADVANCED_FACE('',(#38),#686,.T.);
#728=ADVANCED_FACE('',(#39),#687,.T.);
#729=ADVANCED_FACE('',(#40),#688,.T.);
#730=ADVANCED_FACE('',(#41),#689,.T.);
#731=ADVANCED_FACE('',(#42),#690,.T.);
#732=ADVANCED_FACE('',(#43),#691,.T.);
#733=ADVANCED_FACE('',(#44),#692,.T.);
#734=ADVANCED_FACE('',(#45),#693,.F.);
#735=ADVANCED_FACE('',(#46),#694,.F.);
#736=ADVANCED_FACE('',(#47),#695,.F.);
#737=ADVANCED_FACE('',(#48),#696,.F.);
#738=ADVANCED_FACE('',(#49,#18),#697,.F.);
#739=ADVANCED_FACE('',(#50),#698,.F.);
#740=ADVANCED_FACE('',(#51),#699,.F.);
#741=ADVANCED_FACE('',(#52),#700,.F.);
#742=ADVANCED_FACE('',(#53),#701,.F.);
#743=ADVANCED_FACE('',(#54),#702,.T.);
#744=ADVANCED_FACE('',(#55),#703,.T.);
#745=ADVANCED_FACE('',(#56,#19),#704,.T.);
#746=ADVANCED_FACE('',(#57),#17,.T.);
#747=ADVANCED_FACE('',(#58),#705,.T.);
#748=ADVANCED_FACE('',(#59),#706,.F.);
#749=ADVANCED_FACE('',(#60),#707,.F.);
#750=ADVANCED_FACE('',(#61),#708,.F.);
#751=ADVANCED_FACE('',(#62),#709,.F.);
#752=ADVANCED_FACE('',(#63,#20,#21,#22),#710,.F.);
#753=ADVANCED_FACE('',(#64,#23),#711,.T.);
#754=ADVANCED_FACE('',(#65,#24),#712,.T.);
#755=ADVANCED_FACE('',(#66),#713,.F.);
#756=CLOSED_SHELL('',(#714,#715,#716,#717,#718,#719,#720,#721,#722,#723,
#724,#725,#726,#727,#728,#729,#730,#731,#732,#733,#734,#735,#736,#737,#738,
#739,#740,#741,#742,#743,#744,#745,#746,#747,#748,#749,#750,#751,#752,#753,
#754,#755));
#757=DERIVED_UNIT_ELEMENT(#759,1.);
#758=DERIVED_UNIT_ELEMENT(#1214,-3.);
#759=(
MASS_UNIT()
NAMED_UNIT(*)
SI_UNIT(.KILO.,.GRAM.)
);
#760=DERIVED_UNIT((#757,#758));
#761=MEASURE_REPRESENTATION_ITEM('density measure',
POSITIVE_RATIO_MEASURE(7850.),#760);
#762=PROPERTY_DEFINITION_REPRESENTATION(#767,#764);
#763=PROPERTY_DEFINITION_REPRESENTATION(#768,#765);
#764=REPRESENTATION('material name',(#766),#1211);
#765=REPRESENTATION('density',(#761),#1211);
#766=DESCRIPTIVE_REPRESENTATION_ITEM('\X2\94A2\X0\','\X2\94A2\X0\');
#767=PROPERTY_DEFINITION('material property','material name',#1221);
#768=PROPERTY_DEFINITION('material property','density of part',#1221);
#769=AXIS2_PLACEMENT_3D('',#1001,#814,#815);
#770=AXIS2_PLACEMENT_3D('',#1002,#816,#817);
#771=AXIS2_PLACEMENT_3D('',#1011,#822,#823);
#772=AXIS2_PLACEMENT_3D('',#1017,#827,#828);
#773=AXIS2_PLACEMENT_3D('',#1023,#832,#833);
#774=AXIS2_PLACEMENT_3D('',#1026,#836,#837);
#775=AXIS2_PLACEMENT_3D('',#1027,#838,#839);
#776=AXIS2_PLACEMENT_3D('',#1036,#844,#845);
#777=AXIS2_PLACEMENT_3D('',#1042,#849,#850);
#778=AXIS2_PLACEMENT_3D('',#1048,#854,#855);
#779=AXIS2_PLACEMENT_3D('',#1051,#858,#859);
#780=AXIS2_PLACEMENT_3D('',#1052,#860,#861);
#781=AXIS2_PLACEMENT_3D('',#1061,#866,#867);
#782=AXIS2_PLACEMENT_3D('',#1067,#871,#872);
#783=AXIS2_PLACEMENT_3D('',#1073,#876,#877);
#784=AXIS2_PLACEMENT_3D('',#1076,#880,#881);
#785=AXIS2_PLACEMENT_3D('',#1077,#882,#883);
#786=AXIS2_PLACEMENT_3D('',#1086,#888,#889);
#787=AXIS2_PLACEMENT_3D('',#1092,#893,#894);
#788=AXIS2_PLACEMENT_3D('',#1098,#898,#899);
#789=AXIS2_PLACEMENT_3D('',#1101,#902,#903);
#790=AXIS2_PLACEMENT_3D('',#1102,#904,#905);
#791=AXIS2_PLACEMENT_3D('',#1111,#910,#911);
#792=AXIS2_PLACEMENT_3D('',#1117,#915,#916);
#793=AXIS2_PLACEMENT_3D('',#1123,#920,#921);
#794=AXIS2_PLACEMENT_3D('',#1126,#924,#925);
#795=AXIS2_PLACEMENT_3D('',#1127,#926,#927);
#796=AXIS2_PLACEMENT_3D('',#1136,#932,#933);
#797=AXIS2_PLACEMENT_3D('',#1142,#937,#938);
#798=AXIS2_PLACEMENT_3D('',#1151,#943,#944);
#799=AXIS2_PLACEMENT_3D('',#1157,#948,#949);
#800=AXIS2_PLACEMENT_3D('',#1163,#953,#954);
#801=AXIS2_PLACEMENT_3D('',#1169,#958,#959);
#802=AXIS2_PLACEMENT_3D('',#1172,#962,#963);
#803=AXIS2_PLACEMENT_3D('',#1174,#964,#965);
#804=AXIS2_PLACEMENT_3D('',#1177,#967,#968);
#805=AXIS2_PLACEMENT_3D('',#1178,#969,#970);
#806=AXIS2_PLACEMENT_3D('',#1179,#971,#972);
#807=AXIS2_PLACEMENT_3D('',#1188,#977,#978);
#808=AXIS2_PLACEMENT_3D('',#1194,#982,#983);
#809=AXIS2_PLACEMENT_3D('',#1200,#987,#988);
#810=AXIS2_PLACEMENT_3D('',#1203,#991,#992);
#811=AXIS2_PLACEMENT_3D('',#1204,#993,#994);
#812=AXIS2_PLACEMENT_3D('',#1207,#997,#998);
#813=AXIS2_PLACEMENT_3D('',#1208,#999,#1000);
#814=DIRECTION('axis',(0.,0.,1.));
#815=DIRECTION('refdir',(1.,0.,0.));
#816=DIRECTION('center_axis',(0.,0.,-1.));
#817=DIRECTION('ref_axis',(0.,1.,0.));
#818=DIRECTION('',(0.,-1.,0.));
#819=DIRECTION('',(1.,0.,0.));
#820=DIRECTION('',(0.,1.,0.));
#821=DIRECTION('',(1.,0.,0.));
#822=DIRECTION('center_axis',(0.,-1.,0.));
#823=DIRECTION('ref_axis',(0.,0.,-1.));
#824=DIRECTION('',(0.,0.,1.));
#825=DIRECTION('',(0.,0.,-1.));
#826=DIRECTION('',(1.,0.,0.));
#827=DIRECTION('center_axis',(0.,0.,1.));
#828=DIRECTION('ref_axis',(0.,-1.,0.));
#829=DIRECTION('',(0.,1.,0.));
#830=DIRECTION('',(0.,-1.,0.));
#831=DIRECTION('',(1.,0.,0.));
#832=DIRECTION('center_axis',(0.,1.,0.));
#833=DIRECTION('ref_axis',(0.,0.,1.));
#834=DIRECTION('',(0.,0.,-1.));
#835=DIRECTION('',(0.,0.,1.));
#836=DIRECTION('center_axis',(1.,0.,0.));
#837=DIRECTION('ref_axis',(0.,0.,-1.));
#838=DIRECTION('center_axis',(0.,0.,-1.));
#839=DIRECTION('ref_axis',(0.,1.,0.));
#840=DIRECTION('',(0.,-1.,0.));
#841=DIRECTION('',(1.,0.,0.));
#842=DIRECTION('',(0.,1.,0.));
#843=DIRECTION('',(1.,0.,0.));
#844=DIRECTION('center_axis',(0.,-1.,0.));
#845=DIRECTION('ref_axis',(0.,0.,-1.));
#846=DIRECTION('',(0.,0.,1.));
#847=DIRECTION('',(0.,0.,-1.));
#848=DIRECTION('',(1.,0.,0.));
#849=DIRECTION('center_axis',(0.,0.,1.));
#850=DIRECTION('ref_axis',(0.,-1.,0.));
#851=DIRECTION('',(0.,1.,0.));
#852=DIRECTION('',(0.,-1.,0.));
#853=DIRECTION('',(1.,0.,0.));
#854=DIRECTION('center_axis',(0.,1.,0.));
#855=DIRECTION('ref_axis',(0.,0.,1.));
#856=DIRECTION('',(0.,0.,-1.));
#857=DIRECTION('',(0.,0.,1.));
#858=DIRECTION('center_axis',(1.,0.,0.));
#859=DIRECTION('ref_axis',(0.,0.,-1.));
#860=DIRECTION('center_axis',(0.,0.,-1.));
#861=DIRECTION('ref_axis',(0.,1.,0.));
#862=DIRECTION('',(0.,-1.,0.));
#863=DIRECTION('',(1.,0.,0.));
#864=DIRECTION('',(0.,1.,0.));
#865=DIRECTION('',(1.,0.,0.));
#866=DIRECTION('center_axis',(0.,-1.,0.));
#867=DIRECTION('ref_axis',(0.,0.,-1.));
#868=DIRECTION('',(0.,0.,1.));
#869=DIRECTION('',(0.,0.,-1.));
#870=DIRECTION('',(1.,0.,0.));
#871=DIRECTION('center_axis',(0.,0.,1.));
#872=DIRECTION('ref_axis',(0.,-1.,0.));
#873=DIRECTION('',(0.,1.,0.));
#874=DIRECTION('',(0.,-1.,0.));
#875=DIRECTION('',(1.,0.,0.));
#876=DIRECTION('center_axis',(0.,1.,0.));
#877=DIRECTION('ref_axis',(0.,0.,1.));
#878=DIRECTION('',(0.,0.,-1.));
#879=DIRECTION('',(0.,0.,1.));
#880=DIRECTION('center_axis',(1.,0.,0.));
#881=DIRECTION('ref_axis',(0.,0.,-1.));
#882=DIRECTION('center_axis',(0.,0.,-1.));
#883=DIRECTION('ref_axis',(0.,-1.,0.));
#884=DIRECTION('',(0.,1.,0.));
#885=DIRECTION('',(-1.,0.,0.));
#886=DIRECTION('',(0.,-1.,0.));
#887=DIRECTION('',(-1.,0.,0.));
#888=DIRECTION('center_axis',(0.,1.,0.));
#889=DIRECTION('ref_axis',(0.,0.,-1.));
#890=DIRECTION('',(0.,0.,1.));
#891=DIRECTION('',(0.,0.,-1.));
#892=DIRECTION('',(-1.,0.,0.));
#893=DIRECTION('center_axis',(0.,0.,1.));
#894=DIRECTION('ref_axis',(0.,1.,0.));
#895=DIRECTION('',(0.,-1.,0.));
#896=DIRECTION('',(0.,1.,0.));
#897=DIRECTION('',(-1.,0.,0.));
#898=DIRECTION('center_axis',(0.,-1.,5.55111512312578E-16));
#899=DIRECTION('ref_axis',(0.,5.55111512312578E-16,1.));
#900=DIRECTION('',(0.,-5.55111512312578E-16,-1.));
#901=DIRECTION('',(0.,5.55111512312578E-16,1.));
#902=DIRECTION('center_axis',(-1.,0.,0.));
#903=DIRECTION('ref_axis',(0.,0.,1.));
#904=DIRECTION('center_axis',(0.,0.,-1.));
#905=DIRECTION('ref_axis',(0.,1.,0.));
#906=DIRECTION('',(0.,1.,0.));
#907=DIRECTION('',(1.,0.,0.));
#908=DIRECTION('',(0.,1.,0.));
#909=DIRECTION('',(1.,0.,0.));
#910=DIRECTION('center_axis',(0.,-1.,0.));
#911=DIRECTION('ref_axis',(0.,0.,-1.));
#912=DIRECTION('',(0.,0.,-1.));
#913=DIRECTION('',(1.,0.,0.));
#914=DIRECTION('',(0.,0.,-1.));
#915=DIRECTION('center_axis',(0.,0.,1.));
#916=DIRECTION('ref_axis',(0.,-1.,0.));
#917=DIRECTION('',(0.,-1.,0.));
#918=DIRECTION('',(1.,0.,0.));
#919=DIRECTION('',(0.,-1.,0.));
#920=DIRECTION('center_axis',(0.,1.,0.));
#921=DIRECTION('ref_axis',(0.,0.,1.));
#922=DIRECTION('',(0.,0.,1.));
#923=DIRECTION('',(0.,0.,1.));
#924=DIRECTION('center_axis',(1.,0.,0.));
#925=DIRECTION('ref_axis',(0.,0.,-1.));
#926=DIRECTION('center_axis',(1.,0.,0.));
#927=DIRECTION('ref_axis',(0.,-1.,0.));
#928=DIRECTION('',(0.,1.,0.));
#929=DIRECTION('',(0.,0.,-1.));
#930=DIRECTION('',(0.,-1.,0.));
#931=DIRECTION('',(0.,0.,1.));
#932=DIRECTION('center_axis',(0.,-1.,0.));
#933=DIRECTION('ref_axis',(-1.,0.,0.));
#934=DIRECTION('',(1.,0.,0.));
#935=DIRECTION('',(0.,0.,-1.));
#936=DIRECTION('',(-1.,0.,0.));
#937=DIRECTION('center_axis',(1.,0.,0.));
#938=DIRECTION('ref_axis',(0.,-1.,0.));
#939=DIRECTION('',(0.,1.,0.));
#940=DIRECTION('',(0.,0.,-1.));
#941=DIRECTION('',(0.,-1.,0.));
#942=DIRECTION('',(0.,0.,-1.));
#943=DIRECTION('center_axis',(0.,1.,0.));
#944=DIRECTION('ref_axis',(1.,0.,0.));
#945=DIRECTION('',(-1.,0.,0.));
#946=DIRECTION('',(1.,0.,0.));
#947=DIRECTION('',(0.,0.,1.));
#948=DIRECTION('center_axis',(0.,1.,0.));
#949=DIRECTION('ref_axis',(-1.,0.,0.));
#950=DIRECTION('',(-1.,0.,0.));
#951=DIRECTION('',(0.,0.,1.));
#952=DIRECTION('',(-1.,0.,0.));
#953=DIRECTION('center_axis',(0.,-1.,0.));
#954=DIRECTION('ref_axis',(1.,0.,0.));
#955=DIRECTION('',(1.,0.,0.));
#956=DIRECTION('',(0.,0.,1.));
#957=DIRECTION('',(1.,0.,0.));
#958=DIRECTION('center_axis',(-1.,0.,0.));
#959=DIRECTION('ref_axis',(0.,-1.,0.));
#960=DIRECTION('',(0.,-1.,0.));
#961=DIRECTION('',(0.,-1.,0.));
#962=DIRECTION('center_axis',(0.,0.,1.));
#963=DIRECTION('ref_axis',(-1.,0.,0.));
#964=DIRECTION('center_axis',(0.,0.,1.));
#965=DIRECTION('ref_axis',(-1.,0.,0.));
#966=DIRECTION('',(0.,0.,-1.));
#967=DIRECTION('center_axis',(0.,0.,-1.));
#968=DIRECTION('ref_axis',(-1.,0.,0.));
#969=DIRECTION('center_axis',(0.,0.,1.));
#970=DIRECTION('ref_axis',(-1.,0.,0.));
#971=DIRECTION('center_axis',(0.,-1.,0.));
#972=DIRECTION('ref_axis',(0.,0.,1.));
#973=DIRECTION('',(0.,0.,1.));
#974=DIRECTION('',(-1.,0.,0.));
#975=DIRECTION('',(0.,0.,1.));
#976=DIRECTION('',(-1.,0.,0.));
#977=DIRECTION('center_axis',(0.,0.,-1.));
#978=DIRECTION('ref_axis',(0.,-1.,0.));
#979=DIRECTION('',(0.,-1.,0.));
#980=DIRECTION('',(-1.,0.,0.));
#981=DIRECTION('',(0.,-1.,0.));
#982=DIRECTION('center_axis',(0.,1.,0.));
#983=DIRECTION('ref_axis',(0.,0.,-1.));
#984=DIRECTION('',(0.,0.,-1.));
#985=DIRECTION('',(-1.,0.,0.));
#986=DIRECTION('',(0.,0.,-1.));
#987=DIRECTION('center_axis',(0.,0.,1.));
#988=DIRECTION('ref_axis',(0.,1.,0.));
#989=DIRECTION('',(0.,1.,0.));
#990=DIRECTION('',(0.,1.,0.));
#991=DIRECTION('center_axis',(-1.,0.,0.));
#992=DIRECTION('ref_axis',(0.,0.,1.));
#993=DIRECTION('center_axis',(1.,0.,0.));
#994=DIRECTION('ref_axis',(0.,1.,0.));
#995=DIRECTION('',(0.,1.,0.));
#996=DIRECTION('',(0.,1.,0.));
#997=DIRECTION('center_axis',(0.,0.,1.));
#998=DIRECTION('ref_axis',(1.,0.,0.));
#999=DIRECTION('center_axis',(0.,0.,1.));
#1000=DIRECTION('ref_axis',(1.,0.,0.));
#1001=CARTESIAN_POINT('',(0.,0.,0.));
#1002=CARTESIAN_POINT('Origin',(7.25,-3.25,7.6));
#1003=CARTESIAN_POINT('',(7.25,-2.75,7.6));
#1004=CARTESIAN_POINT('',(7.25,-3.25,7.6));
#1005=CARTESIAN_POINT('',(7.25,-1.625,7.6));
#1006=CARTESIAN_POINT('',(12.25,-2.75,7.6));
#1007=CARTESIAN_POINT('',(7.25,-2.75,7.6));
#1008=CARTESIAN_POINT('',(12.25,-3.25,7.6));
#1009=CARTESIAN_POINT('',(12.25,-3.25,7.6));
#1010=CARTESIAN_POINT('',(7.25,-3.25,7.6));
#1011=CARTESIAN_POINT('Origin',(7.25,-3.25,8.1));
#1012=CARTESIAN_POINT('',(7.25,-3.25,8.1));
#1013=CARTESIAN_POINT('',(7.25,-3.25,7.975));
#1014=CARTESIAN_POINT('',(12.25,-3.25,8.1));
#1015=CARTESIAN_POINT('',(12.25,-3.25,8.1));
#1016=CARTESIAN_POINT('',(7.25,-3.25,8.1));
#1017=CARTESIAN_POINT('Origin',(7.25,-2.75,8.1));
#1018=CARTESIAN_POINT('',(7.25,-2.75,8.1));
#1019=CARTESIAN_POINT('',(7.25,-1.375,8.1));
#1020=CARTESIAN_POINT('',(12.25,-2.75,8.1));
#1021=CARTESIAN_POINT('',(12.25,-2.75,8.1));
#1022=CARTESIAN_POINT('',(7.25,-2.75,8.1));
#1023=CARTESIAN_POINT('Origin',(7.25,-2.75,7.6));
#1024=CARTESIAN_POINT('',(7.25,-2.75,7.725));
#1025=CARTESIAN_POINT('',(12.25,-2.75,7.6));
#1026=CARTESIAN_POINT('Origin',(12.25,-3.,7.85));
#1027=CARTESIAN_POINT('Origin',(7.25,-0.25,7.6));
#1028=CARTESIAN_POINT('',(7.25,0.25,7.6));
#1029=CARTESIAN_POINT('',(7.25,-0.25,7.6));
#1030=CARTESIAN_POINT('',(7.25,-0.125,7.6));
#1031=CARTESIAN_POINT('',(12.25,0.25,7.6));
#1032=CARTESIAN_POINT('',(7.25,0.25,7.6));
#1033=CARTESIAN_POINT('',(12.25,-0.25,7.6));
#1034=CARTESIAN_POINT('',(12.25,-0.25,7.6));
#1035=CARTESIAN_POINT('',(7.25,-0.25,7.6));
#1036=CARTESIAN_POINT('Origin',(7.25,-0.25,8.1));
#1037=CARTESIAN_POINT('',(7.25,-0.25,8.1));
#1038=CARTESIAN_POINT('',(7.25,-0.25,7.975));
#1039=CARTESIAN_POINT('',(12.25,-0.25,8.1));
#1040=CARTESIAN_POINT('',(12.25,-0.25,8.1));
#1041=CARTESIAN_POINT('',(7.25,-0.25,8.1));
#1042=CARTESIAN_POINT('Origin',(7.25,0.25,8.1));
#1043=CARTESIAN_POINT('',(7.25,0.25,8.1));
#1044=CARTESIAN_POINT('',(7.25,0.125,8.1));
#1045=CARTESIAN_POINT('',(12.25,0.25,8.1));
#1046=CARTESIAN_POINT('',(12.25,0.25,8.1));
#1047=CARTESIAN_POINT('',(7.25,0.25,8.1));
#1048=CARTESIAN_POINT('Origin',(7.25,0.25,7.6));
#1049=CARTESIAN_POINT('',(7.25,0.25,7.725));
#1050=CARTESIAN_POINT('',(12.25,0.25,7.6));
#1051=CARTESIAN_POINT('Origin',(12.25,0.,7.85));
#1052=CARTESIAN_POINT('Origin',(7.25,2.75,7.6));
#1053=CARTESIAN_POINT('',(7.25,3.25,7.6));
#1054=CARTESIAN_POINT('',(7.25,2.75,7.6));
#1055=CARTESIAN_POINT('',(7.25,1.375,7.6));
#1056=CARTESIAN_POINT('',(12.25,3.25,7.6));
#1057=CARTESIAN_POINT('',(7.25,3.25,7.6));
#1058=CARTESIAN_POINT('',(12.25,2.75,7.6));
#1059=CARTESIAN_POINT('',(12.25,2.75,7.6));
#1060=CARTESIAN_POINT('',(7.25,2.75,7.6));
#1061=CARTESIAN_POINT('Origin',(7.25,2.75,8.1));
#1062=CARTESIAN_POINT('',(7.25,2.75,8.1));
#1063=CARTESIAN_POINT('',(7.25,2.75,7.975));
#1064=CARTESIAN_POINT('',(12.25,2.75,8.1));
#1065=CARTESIAN_POINT('',(12.25,2.75,8.1));
#1066=CARTESIAN_POINT('',(7.25,2.75,8.1));
#1067=CARTESIAN_POINT('Origin',(7.25,3.25,8.1));
#1068=CARTESIAN_POINT('',(7.25,3.25,8.1));
#1069=CARTESIAN_POINT('',(7.25,1.625,8.1));
#1070=CARTESIAN_POINT('',(12.25,3.25,8.1));
#1071=CARTESIAN_POINT('',(12.25,3.25,8.1));
#1072=CARTESIAN_POINT('',(7.25,3.25,8.1));
#1073=CARTESIAN_POINT('Origin',(7.25,3.25,7.6));
#1074=CARTESIAN_POINT('',(7.25,3.25,7.725));
#1075=CARTESIAN_POINT('',(12.25,3.25,7.6));
#1076=CARTESIAN_POINT('Origin',(12.25,3.,7.85));
#1077=CARTESIAN_POINT('Origin',(-7.25,2.74679982802294,6.65));
#1078=CARTESIAN_POINT('',(-7.25,-2.75320017197706,6.65));
#1079=CARTESIAN_POINT('',(-7.25,2.74679982802294,6.65));
#1080=CARTESIAN_POINT('',(-7.25,1.37339991401147,6.65));
#1081=CARTESIAN_POINT('',(-15.75,-2.75320017197706,6.65));
#1082=CARTESIAN_POINT('',(-7.25,-2.75320017197706,6.65));
#1083=CARTESIAN_POINT('',(-15.75,2.74679982802294,6.65));
#1084=CARTESIAN_POINT('',(-15.75,2.74679982802294,6.65));
#1085=CARTESIAN_POINT('',(-7.25,2.74679982802294,6.65));
#1086=CARTESIAN_POINT('Origin',(-7.25,2.74679982802294,8.65));
#1087=CARTESIAN_POINT('',(-7.25,2.74679982802294,8.65));
#1088=CARTESIAN_POINT('',(-7.25,2.74679982802294,8.15));
#1089=CARTESIAN_POINT('',(-15.75,2.74679982802294,8.65));
#1090=CARTESIAN_POINT('',(-15.75,2.74679982802294,8.65));
#1091=CARTESIAN_POINT('',(-7.25,2.74679982802294,8.65));
#1092=CARTESIAN_POINT('Origin',(-7.25,-2.75320017197706,8.65));
#1093=CARTESIAN_POINT('',(-7.25,-2.75320017197706,8.65));
#1094=CARTESIAN_POINT('',(-7.25,-1.37660008598853,8.65));
#1095=CARTESIAN_POINT('',(-15.75,-2.75320017197706,8.65));
#1096=CARTESIAN_POINT('',(-15.75,-2.75320017197706,8.65));
#1097=CARTESIAN_POINT('',(-7.25,-2.75320017197706,8.65));
#1098=CARTESIAN_POINT('Origin',(-7.25,-2.75320017197706,6.65));
#1099=CARTESIAN_POINT('',(-7.25,-2.75320017197706,7.15));
#1100=CARTESIAN_POINT('',(-15.75,-2.75320017197706,6.65));
#1101=CARTESIAN_POINT('Origin',(-15.75,-0.00320017197706357,7.65));
#1102=CARTESIAN_POINT('Origin',(-12.75,-3.75,6.4));
#1103=CARTESIAN_POINT('',(-12.75,-3.75,6.4));
#1104=CARTESIAN_POINT('',(-12.75,3.75,6.4));
#1105=CARTESIAN_POINT('',(-12.75,2.375,6.4));
#1106=CARTESIAN_POINT('',(-7.25,-3.75,6.4));
#1107=CARTESIAN_POINT('',(-12.75,-3.75,6.4));
#1108=CARTESIAN_POINT('',(-7.25,3.75,6.4));
#1109=CARTESIAN_POINT('',(-7.25,3.75,6.4));
#1110=CARTESIAN_POINT('',(-12.75,3.75,6.4));
#1111=CARTESIAN_POINT('Origin',(-12.75,-3.75,8.9));
#1112=CARTESIAN_POINT('',(-12.75,-3.75,8.9));
#1113=CARTESIAN_POINT('',(-12.75,-3.75,4.45));
#1114=CARTESIAN_POINT('',(-7.25,-3.75,8.9));
#1115=CARTESIAN_POINT('',(-12.75,-3.75,8.9));
#1116=CARTESIAN_POINT('',(-7.25,-3.75,6.4));
#1117=CARTESIAN_POINT('Origin',(-12.75,3.75,8.9));
#1118=CARTESIAN_POINT('',(-12.75,3.75,8.9));
#1119=CARTESIAN_POINT('',(-12.75,6.125,8.9));
#1120=CARTESIAN_POINT('',(-7.25,3.75,8.9));
#1121=CARTESIAN_POINT('',(-12.75,3.75,8.9));
#1122=CARTESIAN_POINT('',(-7.25,-3.75,8.9));
#1123=CARTESIAN_POINT('Origin',(-12.75,3.75,6.4));
#1124=CARTESIAN_POINT('',(-12.75,3.75,3.2));
#1125=CARTESIAN_POINT('',(-7.25,3.75,8.9));
#1126=CARTESIAN_POINT('Origin',(-7.25,0.,7.65));
#1127=CARTESIAN_POINT('Origin',(-11.45,8.5,11.7));
#1128=CARTESIAN_POINT('',(-11.45,4.9,0.));
#1129=CARTESIAN_POINT('',(-11.45,8.5,0.));
#1130=CARTESIAN_POINT('',(-11.45,4.25,0.));
#1131=CARTESIAN_POINT('',(-11.45,4.9,11.7));
#1132=CARTESIAN_POINT('',(-11.45,4.9,11.7));
#1133=CARTESIAN_POINT('',(-11.45,8.5,11.7));
#1134=CARTESIAN_POINT('',(-11.45,4.25,11.7));
#1135=CARTESIAN_POINT('',(-11.45,8.5,5.85));
#1136=CARTESIAN_POINT('Origin',(-11.45,4.9,11.7));
#1137=CARTESIAN_POINT('',(-12.75,4.9,0.));
#1138=CARTESIAN_POINT('',(-5.725,4.9,0.));
#1139=CARTESIAN_POINT('',(-12.75,4.9,11.7));
#1140=CARTESIAN_POINT('',(-12.75,4.9,5.85));
#1141=CARTESIAN_POINT('',(-5.725,4.9,11.7));
#1142=CARTESIAN_POINT('Origin',(-11.45,-4.9,11.7));
#1143=CARTESIAN_POINT('',(-11.45,-8.5,0.));
#1144=CARTESIAN_POINT('',(-11.45,-4.9,0.));
#1145=CARTESIAN_POINT('',(-11.45,-2.45,0.));
#1146=CARTESIAN_POINT('',(-11.45,-8.5,11.7));
#1147=CARTESIAN_POINT('',(-11.45,-8.5,5.85));
#1148=CARTESIAN_POINT('',(-11.45,-4.9,11.7));
#1149=CARTESIAN_POINT('',(-11.45,-2.45,11.7));
#1150=CARTESIAN_POINT('',(-11.45,-4.9,11.7));
#1151=CARTESIAN_POINT('Origin',(-12.75,-4.9,11.7));
#1152=CARTESIAN_POINT('',(-12.75,-4.9,0.));
#1153=CARTESIAN_POINT('',(-6.375,-4.9,0.));
#1154=CARTESIAN_POINT('',(-12.75,-4.9,11.7));
#1155=CARTESIAN_POINT('',(-6.375,-4.9,11.7));
#1156=CARTESIAN_POINT('',(-12.75,-4.9,5.85));
#1157=CARTESIAN_POINT('Origin',(12.75,8.5,0.));
#1158=CARTESIAN_POINT('',(12.75,8.5,11.7));
#1159=CARTESIAN_POINT('',(12.75,8.5,11.7));
#1160=CARTESIAN_POINT('',(12.75,8.5,0.));
#1161=CARTESIAN_POINT('',(12.75,8.5,0.));
#1162=CARTESIAN_POINT('',(12.75,8.5,0.));
#1163=CARTESIAN_POINT('Origin',(-12.75,-8.5,0.));
#1164=CARTESIAN_POINT('',(12.75,-8.5,0.));
#1165=CARTESIAN_POINT('',(-12.75,-8.5,0.));
#1166=CARTESIAN_POINT('',(12.75,-8.5,11.7));
#1167=CARTESIAN_POINT('',(12.75,-8.5,0.));
#1168=CARTESIAN_POINT('',(-12.75,-8.5,11.7));
#1169=CARTESIAN_POINT('Origin',(-12.75,8.5,0.));
#1170=CARTESIAN_POINT('',(-12.75,8.5,0.));
#1171=CARTESIAN_POINT('',(-12.75,8.5,11.7));
#1172=CARTESIAN_POINT('Origin',(-5.45,0.,11.7));
#1173=CARTESIAN_POINT('',(-2.15,4.04133443718627E-16,13.5));
#1174=CARTESIAN_POINT('Origin',(-5.45,0.,13.5));
#1175=CARTESIAN_POINT('',(-2.15,4.04133443718627E-16,11.7));
#1176=CARTESIAN_POINT('',(-2.15,4.04133443718627E-16,11.7));
#1177=CARTESIAN_POINT('Origin',(-5.45,0.,11.7));
#1178=CARTESIAN_POINT('Origin',(-5.45,0.,13.5));
#1179=CARTESIAN_POINT('Origin',(12.75,-4.25,6.4));
#1180=CARTESIAN_POINT('',(12.75,-4.25,6.4));
#1181=CARTESIAN_POINT('',(12.75,-4.25,9.3));
#1182=CARTESIAN_POINT('',(12.75,-4.25,3.2));
#1183=CARTESIAN_POINT('',(7.25,-4.25,6.4));
#1184=CARTESIAN_POINT('',(12.75,-4.25,6.4));
#1185=CARTESIAN_POINT('',(7.25,-4.25,9.3));
#1186=CARTESIAN_POINT('',(7.25,-4.25,6.4));
#1187=CARTESIAN_POINT('',(12.75,-4.25,9.3));
#1188=CARTESIAN_POINT('Origin',(12.75,4.25,6.4));
#1189=CARTESIAN_POINT('',(12.75,4.25,6.4));
#1190=CARTESIAN_POINT('',(12.75,-2.125,6.4));
#1191=CARTESIAN_POINT('',(7.25,4.25,6.4));
#1192=CARTESIAN_POINT('',(12.75,4.25,6.4));
#1193=CARTESIAN_POINT('',(7.25,4.25,6.4));
#1194=CARTESIAN_POINT('Origin',(12.75,4.25,9.3));
#1195=CARTESIAN_POINT('',(12.75,4.25,9.3));
#1196=CARTESIAN_POINT('',(12.75,4.25,4.65));
#1197=CARTESIAN_POINT('',(7.25,4.25,9.3));
#1198=CARTESIAN_POINT('',(12.75,4.25,9.3));
#1199=CARTESIAN_POINT('',(7.25,4.25,9.3));
#1200=CARTESIAN_POINT('Origin',(12.75,-4.25,9.3));
#1201=CARTESIAN_POINT('',(12.75,-6.375,9.3));
#1202=CARTESIAN_POINT('',(7.25,-4.25,9.3));
#1203=CARTESIAN_POINT('Origin',(7.25,0.,7.85));
#1204=CARTESIAN_POINT('Origin',(12.75,-8.5,0.));
#1205=CARTESIAN_POINT('',(12.75,-8.5,0.));
#1206=CARTESIAN_POINT('',(12.75,-8.5,11.7));
#1207=CARTESIAN_POINT('Origin',(0.,0.,11.7));
#1208=CARTESIAN_POINT('Origin',(0.,0.,0.));
#1209=UNCERTAINTY_MEASURE_WITH_UNIT(LENGTH_MEASURE(0.01),#1213,
'DISTANCE_ACCURACY_VALUE',
'Maximum model space distance between geometric entities at asserted c
onnectivities');
#1210=UNCERTAINTY_MEASURE_WITH_UNIT(LENGTH_MEASURE(0.01),#1213,
'DISTANCE_ACCURACY_VALUE',
'Maximum model space distance between geometric entities at asserted c
onnectivities');
#1211=(
GEOMETRIC_REPRESENTATION_CONTEXT(3)
GLOBAL_UNCERTAINTY_ASSIGNED_CONTEXT((#1209))
GLOBAL_UNIT_ASSIGNED_CONTEXT((#1213,#1215,#1216))
REPRESENTATION_CONTEXT('','3D')
);
#1212=(
GEOMETRIC_REPRESENTATION_CONTEXT(3)
GLOBAL_UNCERTAINTY_ASSIGNED_CONTEXT((#1210))
GLOBAL_UNIT_ASSIGNED_CONTEXT((#1213,#1215,#1216))
REPRESENTATION_CONTEXT('','3D')
);
#1213=(
LENGTH_UNIT()
NAMED_UNIT(*)
SI_UNIT(.MILLI.,.METRE.)
);
#1214=(
LENGTH_UNIT()
NAMED_UNIT(*)
SI_UNIT($,.METRE.)
);
#1215=(
NAMED_UNIT(*)
PLANE_ANGLE_UNIT()
SI_UNIT($,.RADIAN.)
);
#1216=(
NAMED_UNIT(*)
SI_UNIT($,.STERADIAN.)
SOLID_ANGLE_UNIT()
);
#1217=SHAPE_DEFINITION_REPRESENTATION(#1218,#1219);
#1218=PRODUCT_DEFINITION_SHAPE('',$,#1221);
#1219=SHAPE_REPRESENTATION('',(#769),#1211);
#1220=PRODUCT_DEFINITION_CONTEXT('part definition',#1225,'design');
#1221=PRODUCT_DEFINITION('2026-04-27-18-46-46-583',
'\X2\9A6C8FBE630994AEFF08\X0\HOBBYWING QuicRun Fusion Pro Elite\X2\FF09\X0\',
#1222,#1220);
#1222=PRODUCT_DEFINITION_FORMATION('',$,#1227);
#1223=PRODUCT_RELATED_PRODUCT_CATEGORY(
'\X2\9A6C8FBE630994AEFF08\X0\HOBBYWING QuicRun Fusion Pro Elite\X2\FF09\X0\',
'\X2\9A6C8FBE630994AEFF08\X0\HOBBYWING QuicRun Fusion Pro Elite\X2\FF09\X0\',
(#1227));
#1224=APPLICATION_PROTOCOL_DEFINITION('international standard',
'automotive_design',2009,#1225);
#1225=APPLICATION_CONTEXT(
'Core Data for Automotive Mechanical Design Process');
#1226=PRODUCT_CONTEXT('part definition',#1225,'mechanical');
#1227=PRODUCT('2026-04-27-18-46-46-583',
'\X2\9A6C8FBE630994AEFF08\X0\HOBBYWING QuicRun Fusion Pro Elite\X2\FF09\X0\',
$,(#1226));
#1228=PRESENTATION_STYLE_ASSIGNMENT((#1229));
#1229=SURFACE_STYLE_USAGE(.BOTH.,#1230);
#1230=SURFACE_SIDE_STYLE('',(#1231));
#1231=SURFACE_STYLE_FILL_AREA(#1232);
#1232=FILL_AREA_STYLE('\X2\94A2\X0\ - \X2\7F0E5149\X0\',(#1233));
#1233=FILL_AREA_STYLE_COLOUR('\X2\94A2\X0\ - \X2\7F0E5149\X0\',#1234);
#1234=COLOUR_RGB('\X2\94A2\X0\ - \X2\7F0E5149\X0\',0.627450980392157,0.627450980392157,
0.627450980392157);
ENDSEC;
END-ISO-10303-21;
