ISO-10303-21;
HEADER;
/* Generated by software containing ST-Developer
 * from STEP Tools, Inc. (www.steptools.com) 
 */

FILE_DESCRIPTION(
/* description */ (''),
/* implementation_level */ '2;1');

FILE_NAME(
/* name */ '',
/* time_stamp */ '2026-08-11T12:24:49+09:00',
/* author */ (''),
/* organization */ (''),
/* preprocessor_version */ 'ST-DEVELOPER v20.1',
/* originating_system */ 'Autodesk Translation Framework v15.8.0.0',
/* authorisation */ '');

FILE_SCHEMA (('AUTOMOTIVE_DESIGN { 1 0 10303 214 3 1 1 }'));
ENDSEC;

DATA;
#10=MECHANICAL_DESIGN_GEOMETRIC_PRESENTATION_REPRESENTATION('',(#13),#896);
#11=SHAPE_REPRESENTATION_RELATIONSHIP('SRR','None',#903,#12);
#12=ADVANCED_BREP_SHAPE_REPRESENTATION('',(#14),#895);
#13=STYLED_ITEM('',(#912),#14);
#14=MANIFOLD_SOLID_BREP('\X2\5B9E4F53\X0\8',#544);
#15=FACE_BOUND('',#76,.T.);
#16=FACE_BOUND('',#77,.T.);
#17=FACE_BOUND('',#89,.T.);
#18=FACE_BOUND('',#90,.T.);
#19=CYLINDRICAL_SURFACE('',#566,4.74999999999033);
#20=CYLINDRICAL_SURFACE('',#571,4.74999999999979);
#21=CYLINDRICAL_SURFACE('',#581,1.);
#22=CYLINDRICAL_SURFACE('',#584,1.);
#23=CYLINDRICAL_SURFACE('',#593,2.9);
#24=CYLINDRICAL_SURFACE('',#594,2.9);
#25=CIRCLE('',#564,1.);
#26=CIRCLE('',#565,1.);
#27=CIRCLE('',#567,4.74999999999033);
#28=CIRCLE('',#568,4.74999999999033);
#29=CIRCLE('',#572,4.74999999999979);
#30=CIRCLE('',#573,4.74999999999979);
#31=CIRCLE('',#576,2.9);
#32=CIRCLE('',#577,2.9);
#33=CIRCLE('',#582,1.);
#34=CIRCLE('',#585,1.);
#35=CIRCLE('',#591,2.9);
#36=CIRCLE('',#592,2.9);
#37=FACE_OUTER_BOUND('',#64,.T.);
#38=FACE_OUTER_BOUND('',#65,.T.);
#39=FACE_OUTER_BOUND('',#66,.T.);
#40=FACE_OUTER_BOUND('',#67,.T.);
#41=FACE_OUTER_BOUND('',#68,.T.);
#42=FACE_OUTER_BOUND('',#69,.T.);
#43=FACE_OUTER_BOUND('',#70,.T.);
#44=FACE_OUTER_BOUND('',#71,.T.);
#45=FACE_OUTER_BOUND('',#72,.T.);
#46=FACE_OUTER_BOUND('',#73,.T.);
#47=FACE_OUTER_BOUND('',#74,.T.);
#48=FACE_OUTER_BOUND('',#75,.T.);
#49=FACE_OUTER_BOUND('',#78,.T.);
#50=FACE_OUTER_BOUND('',#79,.T.);
#51=FACE_OUTER_BOUND('',#80,.T.);
#52=FACE_OUTER_BOUND('',#81,.T.);
#53=FACE_OUTER_BOUND('',#82,.T.);
#54=FACE_OUTER_BOUND('',#83,.T.);
#55=FACE_OUTER_BOUND('',#84,.T.);
#56=FACE_OUTER_BOUND('',#85,.T.);
#57=FACE_OUTER_BOUND('',#86,.T.);
#58=FACE_OUTER_BOUND('',#87,.T.);
#59=FACE_OUTER_BOUND('',#88,.T.);
#60=FACE_OUTER_BOUND('',#91,.T.);
#61=FACE_OUTER_BOUND('',#92,.T.);
#62=FACE_OUTER_BOUND('',#93,.T.);
#63=FACE_OUTER_BOUND('',#94,.T.);
#64=EDGE_LOOP('',(#346,#347,#348,#349));
#65=EDGE_LOOP('',(#350,#351,#352,#353));
#66=EDGE_LOOP('',(#354,#355,#356,#357));
#67=EDGE_LOOP('',(#358,#359,#360,#361));
#68=EDGE_LOOP('',(#362,#363,#364,#365));
#69=EDGE_LOOP('',(#366,#367,#368,#369,#370,#371,#372,#373,#374,#375));
#70=EDGE_LOOP('',(#376,#377,#378,#379));
#71=EDGE_LOOP('',(#380,#381,#382,#383));
#72=EDGE_LOOP('',(#384,#385,#386,#387,#388,#389,#390,#391,#392,#393,#394,
#395,#396,#397));
#73=EDGE_LOOP('',(#398,#399,#400,#401));
#74=EDGE_LOOP('',(#402,#403,#404,#405));
#75=EDGE_LOOP('',(#406,#407,#408,#409,#410,#411,#412));
#76=EDGE_LOOP('',(#413));
#77=EDGE_LOOP('',(#414));
#78=EDGE_LOOP('',(#415,#416,#417,#418));
#79=EDGE_LOOP('',(#419,#420,#421,#422));
#80=EDGE_LOOP('',(#423,#424,#425,#426));
#81=EDGE_LOOP('',(#427,#428,#429,#430));
#82=EDGE_LOOP('',(#431,#432,#433,#434));
#83=EDGE_LOOP('',(#435,#436,#437,#438));
#84=EDGE_LOOP('',(#439,#440,#441,#442));
#85=EDGE_LOOP('',(#443,#444,#445,#446,#447,#448,#449,#450,#451,#452,#453,
#454,#455,#456,#457,#458,#459,#460));
#86=EDGE_LOOP('',(#461,#462,#463,#464));
#87=EDGE_LOOP('',(#465,#466,#467,#468,#469,#470));
#88=EDGE_LOOP('',(#471,#472,#473,#474,#475,#476,#477));
#89=EDGE_LOOP('',(#478));
#90=EDGE_LOOP('',(#479));
#91=EDGE_LOOP('',(#480,#481,#482,#483));
#92=EDGE_LOOP('',(#484,#485,#486,#487));
#93=EDGE_LOOP('',(#488,#489,#490,#491));
#94=EDGE_LOOP('',(#492,#493,#494,#495));
#95=LINE('',#744,#158);
#96=LINE('',#746,#159);
#97=LINE('',#748,#160);
#98=LINE('',#749,#161);
#99=LINE('',#752,#162);
#100=LINE('',#754,#163);
#101=LINE('',#755,#164);
#102=LINE('',#758,#165);
#103=LINE('',#760,#166);
#104=LINE('',#761,#167);
#105=LINE('',#764,#168);
#106=LINE('',#766,#169);
#107=LINE('',#767,#170);
#108=LINE('',#770,#171);
#109=LINE('',#772,#172);
#110=LINE('',#773,#173);
#111=LINE('',#776,#174);
#112=LINE('',#778,#175);
#113=LINE('',#780,#176);
#114=LINE('',#782,#177);
#115=LINE('',#786,#178);
#116=LINE('',#790,#179);
#117=LINE('',#791,#180);
#118=LINE('',#797,#181);
#119=LINE('',#800,#182);
#120=LINE('',#803,#183);
#121=LINE('',#805,#184);
#122=LINE('',#806,#185);
#123=LINE('',#810,#186);
#124=LINE('',#812,#187);
#125=LINE('',#814,#188);
#126=LINE('',#816,#189);
#127=LINE('',#818,#190);
#128=LINE('',#820,#191);
#129=LINE('',#821,#192);
#130=LINE('',#822,#193);
#131=LINE('',#828,#194);
#132=LINE('',#830,#195);
#133=LINE('',#831,#196);
#134=LINE('',#834,#197);
#135=LINE('',#835,#198);
#136=LINE('',#842,#199);
#137=LINE('',#844,#200);
#138=LINE('',#845,#201);
#139=LINE('',#848,#202);
#140=LINE('',#849,#203);
#141=LINE('',#851,#204);
#142=LINE('',#856,#205);
#143=LINE('',#857,#206);
#144=LINE('',#860,#207);
#145=LINE('',#861,#208);
#146=LINE('',#866,#209);
#147=LINE('',#867,#210);
#148=LINE('',#869,#211);
#149=LINE('',#872,#212);
#150=LINE('',#873,#213);
#151=LINE('',#875,#214);
#152=LINE('',#876,#215);
#153=LINE('',#877,#216);
#154=LINE('',#879,#217);
#155=LINE('',#887,#218);
#156=LINE('',#889,#219);
#157=LINE('',#891,#220);
#158=VECTOR('',#601,10.);
#159=VECTOR('',#602,10.);
#160=VECTOR('',#603,10.);
#161=VECTOR('',#604,10.);
#162=VECTOR('',#607,10.);
#163=VECTOR('',#608,10.);
#164=VECTOR('',#609,10.);
#165=VECTOR('',#612,10.);
#166=VECTOR('',#613,10.);
#167=VECTOR('',#614,10.);
#168=VECTOR('',#617,10.);
#169=VECTOR('',#618,10.);
#170=VECTOR('',#619,10.);
#171=VECTOR('',#622,10.);
#172=VECTOR('',#623,10.);
#173=VECTOR('',#624,10.);
#174=VECTOR('',#627,10.);
#175=VECTOR('',#628,10.);
#176=VECTOR('',#629,10.);
#177=VECTOR('',#630,10.);
#178=VECTOR('',#633,10.);
#179=VECTOR('',#636,10.);
#180=VECTOR('',#637,10.);
#181=VECTOR('',#642,10.);
#182=VECTOR('',#645,10.);
#183=VECTOR('',#648,10.);
#184=VECTOR('',#649,10.);
#185=VECTOR('',#650,10.);
#186=VECTOR('',#653,10.);
#187=VECTOR('',#654,10.);
#188=VECTOR('',#655,10.);
#189=VECTOR('',#656,10.);
#190=VECTOR('',#657,10.);
#191=VECTOR('',#658,10.);
#192=VECTOR('',#659,10.);
#193=VECTOR('',#660,10.);
#194=VECTOR('',#667,10.);
#195=VECTOR('',#670,10.);
#196=VECTOR('',#671,10.);
#197=VECTOR('',#674,10.);
#198=VECTOR('',#675,10.);
#199=VECTOR('',#682,10.);
#200=VECTOR('',#683,10.);
#201=VECTOR('',#684,10.);
#202=VECTOR('',#687,10.);
#203=VECTOR('',#688,10.);
#204=VECTOR('',#691,10.);
#205=VECTOR('',#696,10.);
#206=VECTOR('',#697,10.);
#207=VECTOR('',#700,10.);
#208=VECTOR('',#701,10.);
#209=VECTOR('',#706,10.);
#210=VECTOR('',#707,10.);
#211=VECTOR('',#710,10.);
#212=VECTOR('',#713,10.);
#213=VECTOR('',#714,10.);
#214=VECTOR('',#715,10.);
#215=VECTOR('',#716,10.);
#216=VECTOR('',#717,10.);
#217=VECTOR('',#720,10.);
#218=VECTOR('',#731,2.9);
#219=VECTOR('',#734,2.9);
#220=VECTOR('',#737,10.);
#221=VERTEX_POINT('',#742);
#222=VERTEX_POINT('',#743);
#223=VERTEX_POINT('',#745);
#224=VERTEX_POINT('',#747);
#225=VERTEX_POINT('',#751);
#226=VERTEX_POINT('',#753);
#227=VERTEX_POINT('',#757);
#228=VERTEX_POINT('',#759);
#229=VERTEX_POINT('',#763);
#230=VERTEX_POINT('',#765);
#231=VERTEX_POINT('',#769);
#232=VERTEX_POINT('',#771);
#233=VERTEX_POINT('',#775);
#234=VERTEX_POINT('',#777);
#235=VERTEX_POINT('',#779);
#236=VERTEX_POINT('',#781);
#237=VERTEX_POINT('',#783);
#238=VERTEX_POINT('',#785);
#239=VERTEX_POINT('',#787);
#240=VERTEX_POINT('',#789);
#241=VERTEX_POINT('',#793);
#242=VERTEX_POINT('',#794);
#243=VERTEX_POINT('',#796);
#244=VERTEX_POINT('',#798);
#245=VERTEX_POINT('',#802);
#246=VERTEX_POINT('',#804);
#247=VERTEX_POINT('',#808);
#248=VERTEX_POINT('',#809);
#249=VERTEX_POINT('',#811);
#250=VERTEX_POINT('',#813);
#251=VERTEX_POINT('',#815);
#252=VERTEX_POINT('',#817);
#253=VERTEX_POINT('',#819);
#254=VERTEX_POINT('',#824);
#255=VERTEX_POINT('',#826);
#256=VERTEX_POINT('',#833);
#257=VERTEX_POINT('',#836);
#258=VERTEX_POINT('',#838);
#259=VERTEX_POINT('',#841);
#260=VERTEX_POINT('',#843);
#261=VERTEX_POINT('',#847);
#262=VERTEX_POINT('',#853);
#263=VERTEX_POINT('',#854);
#264=VERTEX_POINT('',#859);
#265=VERTEX_POINT('',#863);
#266=VERTEX_POINT('',#864);
#267=VERTEX_POINT('',#871);
#268=VERTEX_POINT('',#874);
#269=VERTEX_POINT('',#882);
#270=VERTEX_POINT('',#884);
#271=EDGE_CURVE('',#221,#222,#95,.T.);
#272=EDGE_CURVE('',#223,#222,#96,.T.);
#273=EDGE_CURVE('',#223,#224,#97,.T.);
#274=EDGE_CURVE('',#221,#224,#98,.T.);
#275=EDGE_CURVE('',#222,#225,#99,.T.);
#276=EDGE_CURVE('',#225,#226,#100,.T.);
#277=EDGE_CURVE('',#226,#223,#101,.T.);
#278=EDGE_CURVE('',#225,#227,#102,.T.);
#279=EDGE_CURVE('',#228,#227,#103,.F.);
#280=EDGE_CURVE('',#228,#226,#104,.T.);
#281=EDGE_CURVE('',#227,#229,#105,.T.);
#282=EDGE_CURVE('',#229,#230,#106,.F.);
#283=EDGE_CURVE('',#230,#228,#107,.F.);
#284=EDGE_CURVE('',#229,#231,#108,.T.);
#285=EDGE_CURVE('',#232,#231,#109,.F.);
#286=EDGE_CURVE('',#232,#230,#110,.T.);
#287=EDGE_CURVE('',#231,#233,#111,.T.);
#288=EDGE_CURVE('',#233,#234,#112,.F.);
#289=EDGE_CURVE('',#235,#234,#113,.T.);
#290=EDGE_CURVE('',#235,#236,#114,.T.);
#291=EDGE_CURVE('',#237,#236,#25,.T.);
#292=EDGE_CURVE('',#237,#238,#115,.T.);
#293=EDGE_CURVE('',#239,#238,#26,.T.);
#294=EDGE_CURVE('',#239,#240,#116,.T.);
#295=EDGE_CURVE('',#232,#240,#117,.T.);
#296=EDGE_CURVE('',#241,#242,#27,.T.);
#297=EDGE_CURVE('',#243,#241,#118,.T.);
#298=EDGE_CURVE('',#244,#243,#28,.T.);
#299=EDGE_CURVE('',#244,#242,#119,.T.);
#300=EDGE_CURVE('',#242,#245,#120,.T.);
#301=EDGE_CURVE('',#246,#244,#121,.T.);
#302=EDGE_CURVE('',#246,#245,#122,.T.);
#303=EDGE_CURVE('',#247,#248,#123,.T.);
#304=EDGE_CURVE('',#247,#249,#124,.T.);
#305=EDGE_CURVE('',#250,#249,#125,.T.);
#306=EDGE_CURVE('',#251,#250,#126,.T.);
#307=EDGE_CURVE('',#252,#251,#127,.T.);
#308=EDGE_CURVE('',#253,#252,#128,.T.);
#309=EDGE_CURVE('',#233,#253,#129,.T.);
#310=EDGE_CURVE('',#248,#221,#130,.T.);
#311=EDGE_CURVE('',#249,#254,#29,.T.);
#312=EDGE_CURVE('',#255,#247,#30,.T.);
#313=EDGE_CURVE('',#255,#254,#131,.T.);
#314=EDGE_CURVE('',#254,#241,#132,.T.);
#315=EDGE_CURVE('',#243,#255,#133,.T.);
#316=EDGE_CURVE('',#256,#246,#134,.T.);
#317=EDGE_CURVE('',#248,#256,#135,.T.);
#318=EDGE_CURVE('',#257,#257,#31,.T.);
#319=EDGE_CURVE('',#258,#258,#32,.T.);
#320=EDGE_CURVE('',#250,#259,#136,.T.);
#321=EDGE_CURVE('',#259,#260,#137,.T.);
#322=EDGE_CURVE('',#260,#251,#138,.T.);
#323=EDGE_CURVE('',#260,#261,#139,.T.);
#324=EDGE_CURVE('',#252,#261,#140,.F.);
#325=EDGE_CURVE('',#256,#224,#141,.F.);
#326=EDGE_CURVE('',#262,#263,#33,.T.);
#327=EDGE_CURVE('',#262,#237,#142,.T.);
#328=EDGE_CURVE('',#236,#263,#143,.T.);
#329=EDGE_CURVE('',#264,#235,#144,.T.);
#330=EDGE_CURVE('',#264,#263,#145,.T.);
#331=EDGE_CURVE('',#265,#266,#34,.T.);
#332=EDGE_CURVE('',#265,#239,#146,.T.);
#333=EDGE_CURVE('',#238,#266,#147,.T.);
#334=EDGE_CURVE('',#262,#266,#148,.T.);
#335=EDGE_CURVE('',#240,#267,#149,.T.);
#336=EDGE_CURVE('',#267,#264,#150,.T.);
#337=EDGE_CURVE('',#234,#268,#151,.F.);
#338=EDGE_CURVE('',#261,#268,#152,.F.);
#339=EDGE_CURVE('',#245,#259,#153,.T.);
#340=EDGE_CURVE('',#265,#267,#154,.T.);
#341=EDGE_CURVE('',#269,#269,#35,.T.);
#342=EDGE_CURVE('',#270,#270,#36,.T.);
#343=EDGE_CURVE('',#269,#257,#155,.T.);
#344=EDGE_CURVE('',#270,#258,#156,.T.);
#345=EDGE_CURVE('',#268,#253,#157,.F.);
#346=ORIENTED_EDGE('',*,*,#271,.T.);
#347=ORIENTED_EDGE('',*,*,#272,.F.);
#348=ORIENTED_EDGE('',*,*,#273,.T.);
#349=ORIENTED_EDGE('',*,*,#274,.F.);
#350=ORIENTED_EDGE('',*,*,#275,.T.);
#351=ORIENTED_EDGE('',*,*,#276,.T.);
#352=ORIENTED_EDGE('',*,*,#277,.T.);
#353=ORIENTED_EDGE('',*,*,#272,.T.);
#354=ORIENTED_EDGE('',*,*,#278,.T.);
#355=ORIENTED_EDGE('',*,*,#279,.F.);
#356=ORIENTED_EDGE('',*,*,#280,.T.);
#357=ORIENTED_EDGE('',*,*,#276,.F.);
#358=ORIENTED_EDGE('',*,*,#281,.T.);
#359=ORIENTED_EDGE('',*,*,#282,.T.);
#360=ORIENTED_EDGE('',*,*,#283,.T.);
#361=ORIENTED_EDGE('',*,*,#279,.T.);
#362=ORIENTED_EDGE('',*,*,#284,.T.);
#363=ORIENTED_EDGE('',*,*,#285,.F.);
#364=ORIENTED_EDGE('',*,*,#286,.T.);
#365=ORIENTED_EDGE('',*,*,#282,.F.);
#366=ORIENTED_EDGE('',*,*,#287,.T.);
#367=ORIENTED_EDGE('',*,*,#288,.T.);
#368=ORIENTED_EDGE('',*,*,#289,.F.);
#369=ORIENTED_EDGE('',*,*,#290,.T.);
#370=ORIENTED_EDGE('',*,*,#291,.F.);
#371=ORIENTED_EDGE('',*,*,#292,.T.);
#372=ORIENTED_EDGE('',*,*,#293,.F.);
#373=ORIENTED_EDGE('',*,*,#294,.T.);
#374=ORIENTED_EDGE('',*,*,#295,.F.);
#375=ORIENTED_EDGE('',*,*,#285,.T.);
#376=ORIENTED_EDGE('',*,*,#296,.F.);
#377=ORIENTED_EDGE('',*,*,#297,.F.);
#378=ORIENTED_EDGE('',*,*,#298,.F.);
#379=ORIENTED_EDGE('',*,*,#299,.T.);
#380=ORIENTED_EDGE('',*,*,#300,.F.);
#381=ORIENTED_EDGE('',*,*,#299,.F.);
#382=ORIENTED_EDGE('',*,*,#301,.F.);
#383=ORIENTED_EDGE('',*,*,#302,.T.);
#384=ORIENTED_EDGE('',*,*,#303,.F.);
#385=ORIENTED_EDGE('',*,*,#304,.T.);
#386=ORIENTED_EDGE('',*,*,#305,.F.);
#387=ORIENTED_EDGE('',*,*,#306,.F.);
#388=ORIENTED_EDGE('',*,*,#307,.F.);
#389=ORIENTED_EDGE('',*,*,#308,.F.);
#390=ORIENTED_EDGE('',*,*,#309,.F.);
#391=ORIENTED_EDGE('',*,*,#287,.F.);
#392=ORIENTED_EDGE('',*,*,#284,.F.);
#393=ORIENTED_EDGE('',*,*,#281,.F.);
#394=ORIENTED_EDGE('',*,*,#278,.F.);
#395=ORIENTED_EDGE('',*,*,#275,.F.);
#396=ORIENTED_EDGE('',*,*,#271,.F.);
#397=ORIENTED_EDGE('',*,*,#310,.F.);
#398=ORIENTED_EDGE('',*,*,#311,.F.);
#399=ORIENTED_EDGE('',*,*,#304,.F.);
#400=ORIENTED_EDGE('',*,*,#312,.F.);
#401=ORIENTED_EDGE('',*,*,#313,.T.);
#402=ORIENTED_EDGE('',*,*,#314,.F.);
#403=ORIENTED_EDGE('',*,*,#313,.F.);
#404=ORIENTED_EDGE('',*,*,#315,.F.);
#405=ORIENTED_EDGE('',*,*,#297,.T.);
#406=ORIENTED_EDGE('',*,*,#316,.T.);
#407=ORIENTED_EDGE('',*,*,#301,.T.);
#408=ORIENTED_EDGE('',*,*,#298,.T.);
#409=ORIENTED_EDGE('',*,*,#315,.T.);
#410=ORIENTED_EDGE('',*,*,#312,.T.);
#411=ORIENTED_EDGE('',*,*,#303,.T.);
#412=ORIENTED_EDGE('',*,*,#317,.T.);
#413=ORIENTED_EDGE('',*,*,#318,.T.);
#414=ORIENTED_EDGE('',*,*,#319,.T.);
#415=ORIENTED_EDGE('',*,*,#306,.T.);
#416=ORIENTED_EDGE('',*,*,#320,.T.);
#417=ORIENTED_EDGE('',*,*,#321,.T.);
#418=ORIENTED_EDGE('',*,*,#322,.T.);
#419=ORIENTED_EDGE('',*,*,#307,.T.);
#420=ORIENTED_EDGE('',*,*,#322,.F.);
#421=ORIENTED_EDGE('',*,*,#323,.T.);
#422=ORIENTED_EDGE('',*,*,#324,.F.);
#423=ORIENTED_EDGE('',*,*,#310,.T.);
#424=ORIENTED_EDGE('',*,*,#274,.T.);
#425=ORIENTED_EDGE('',*,*,#325,.F.);
#426=ORIENTED_EDGE('',*,*,#317,.F.);
#427=ORIENTED_EDGE('',*,*,#326,.F.);
#428=ORIENTED_EDGE('',*,*,#327,.T.);
#429=ORIENTED_EDGE('',*,*,#291,.T.);
#430=ORIENTED_EDGE('',*,*,#328,.T.);
#431=ORIENTED_EDGE('',*,*,#328,.F.);
#432=ORIENTED_EDGE('',*,*,#290,.F.);
#433=ORIENTED_EDGE('',*,*,#329,.F.);
#434=ORIENTED_EDGE('',*,*,#330,.T.);
#435=ORIENTED_EDGE('',*,*,#331,.F.);
#436=ORIENTED_EDGE('',*,*,#332,.T.);
#437=ORIENTED_EDGE('',*,*,#293,.T.);
#438=ORIENTED_EDGE('',*,*,#333,.T.);
#439=ORIENTED_EDGE('',*,*,#327,.F.);
#440=ORIENTED_EDGE('',*,*,#334,.T.);
#441=ORIENTED_EDGE('',*,*,#333,.F.);
#442=ORIENTED_EDGE('',*,*,#292,.F.);
#443=ORIENTED_EDGE('',*,*,#277,.F.);
#444=ORIENTED_EDGE('',*,*,#280,.F.);
#445=ORIENTED_EDGE('',*,*,#283,.F.);
#446=ORIENTED_EDGE('',*,*,#286,.F.);
#447=ORIENTED_EDGE('',*,*,#295,.T.);
#448=ORIENTED_EDGE('',*,*,#335,.T.);
#449=ORIENTED_EDGE('',*,*,#336,.T.);
#450=ORIENTED_EDGE('',*,*,#329,.T.);
#451=ORIENTED_EDGE('',*,*,#289,.T.);
#452=ORIENTED_EDGE('',*,*,#337,.T.);
#453=ORIENTED_EDGE('',*,*,#338,.F.);
#454=ORIENTED_EDGE('',*,*,#323,.F.);
#455=ORIENTED_EDGE('',*,*,#321,.F.);
#456=ORIENTED_EDGE('',*,*,#339,.F.);
#457=ORIENTED_EDGE('',*,*,#302,.F.);
#458=ORIENTED_EDGE('',*,*,#316,.F.);
#459=ORIENTED_EDGE('',*,*,#325,.T.);
#460=ORIENTED_EDGE('',*,*,#273,.F.);
#461=ORIENTED_EDGE('',*,*,#332,.F.);
#462=ORIENTED_EDGE('',*,*,#340,.T.);
#463=ORIENTED_EDGE('',*,*,#335,.F.);
#464=ORIENTED_EDGE('',*,*,#294,.F.);
#465=ORIENTED_EDGE('',*,*,#326,.T.);
#466=ORIENTED_EDGE('',*,*,#330,.F.);
#467=ORIENTED_EDGE('',*,*,#336,.F.);
#468=ORIENTED_EDGE('',*,*,#340,.F.);
#469=ORIENTED_EDGE('',*,*,#331,.T.);
#470=ORIENTED_EDGE('',*,*,#334,.F.);
#471=ORIENTED_EDGE('',*,*,#300,.T.);
#472=ORIENTED_EDGE('',*,*,#339,.T.);
#473=ORIENTED_EDGE('',*,*,#320,.F.);
#474=ORIENTED_EDGE('',*,*,#305,.T.);
#475=ORIENTED_EDGE('',*,*,#311,.T.);
#476=ORIENTED_EDGE('',*,*,#314,.T.);
#477=ORIENTED_EDGE('',*,*,#296,.T.);
#478=ORIENTED_EDGE('',*,*,#341,.T.);
#479=ORIENTED_EDGE('',*,*,#342,.T.);
#480=ORIENTED_EDGE('',*,*,#341,.F.);
#481=ORIENTED_EDGE('',*,*,#343,.T.);
#482=ORIENTED_EDGE('',*,*,#318,.F.);
#483=ORIENTED_EDGE('',*,*,#343,.F.);
#484=ORIENTED_EDGE('',*,*,#342,.F.);
#485=ORIENTED_EDGE('',*,*,#344,.T.);
#486=ORIENTED_EDGE('',*,*,#319,.F.);
#487=ORIENTED_EDGE('',*,*,#344,.F.);
#488=ORIENTED_EDGE('',*,*,#309,.T.);
#489=ORIENTED_EDGE('',*,*,#345,.F.);
#490=ORIENTED_EDGE('',*,*,#337,.F.);
#491=ORIENTED_EDGE('',*,*,#288,.F.);
#492=ORIENTED_EDGE('',*,*,#308,.T.);
#493=ORIENTED_EDGE('',*,*,#324,.T.);
#494=ORIENTED_EDGE('',*,*,#338,.T.);
#495=ORIENTED_EDGE('',*,*,#345,.T.);
#496=PLANE('',#558);
#497=PLANE('',#559);
#498=PLANE('',#560);
#499=PLANE('',#561);
#500=PLANE('',#562);
#501=PLANE('',#563);
#502=PLANE('',#569);
#503=PLANE('',#570);
#504=PLANE('',#574);
#505=PLANE('',#575);
#506=PLANE('',#578);
#507=PLANE('',#579);
#508=PLANE('',#580);
#509=PLANE('',#583);
#510=PLANE('',#586);
#511=PLANE('',#587);
#512=PLANE('',#588);
#513=PLANE('',#589);
#514=PLANE('',#590);
#515=PLANE('',#595);
#516=PLANE('',#596);
#517=ADVANCED_FACE('',(#37),#496,.T.);
#518=ADVANCED_FACE('',(#38),#497,.T.);
#519=ADVANCED_FACE('',(#39),#498,.T.);
#520=ADVANCED_FACE('',(#40),#499,.F.);
#521=ADVANCED_FACE('',(#41),#500,.T.);
#522=ADVANCED_FACE('',(#42),#501,.F.);
#523=ADVANCED_FACE('',(#43),#19,.T.);
#524=ADVANCED_FACE('',(#44),#502,.F.);
#525=ADVANCED_FACE('',(#45),#503,.F.);
#526=ADVANCED_FACE('',(#46),#20,.T.);
#527=ADVANCED_FACE('',(#47),#504,.F.);
#528=ADVANCED_FACE('',(#48,#15,#16),#505,.T.);
#529=ADVANCED_FACE('',(#49),#506,.T.);
#530=ADVANCED_FACE('',(#50),#507,.T.);
#531=ADVANCED_FACE('',(#51),#508,.T.);
#532=ADVANCED_FACE('',(#52),#21,.F.);
#533=ADVANCED_FACE('',(#53),#509,.F.);
#534=ADVANCED_FACE('',(#54),#22,.F.);
#535=ADVANCED_FACE('',(#55),#510,.F.);
#536=ADVANCED_FACE('',(#56),#511,.T.);
#537=ADVANCED_FACE('',(#57),#512,.F.);
#538=ADVANCED_FACE('',(#58),#513,.F.);
#539=ADVANCED_FACE('',(#59,#17,#18),#514,.F.);
#540=ADVANCED_FACE('',(#60),#23,.F.);
#541=ADVANCED_FACE('',(#61),#24,.F.);
#542=ADVANCED_FACE('',(#62),#515,.T.);
#543=ADVANCED_FACE('',(#63),#516,.F.);
#544=CLOSED_SHELL('',(#517,#518,#519,#520,#521,#522,#523,#524,#525,#526,
#527,#528,#529,#530,#531,#532,#533,#534,#535,#536,#537,#538,#539,#540,#541,
#542,#543));
#545=DERIVED_UNIT_ELEMENT(#547,1.);
#546=DERIVED_UNIT_ELEMENT(#898,-3.);
#547=(
MASS_UNIT()
NAMED_UNIT(*)
SI_UNIT(.KILO.,.GRAM.)
);
#548=DERIVED_UNIT((#545,#546));
#549=MEASURE_REPRESENTATION_ITEM('density measure',
POSITIVE_RATIO_MEASURE(7850.),#548);
#550=PROPERTY_DEFINITION_REPRESENTATION(#555,#552);
#551=PROPERTY_DEFINITION_REPRESENTATION(#556,#553);
#552=REPRESENTATION('material name',(#554),#895);
#553=REPRESENTATION('density',(#549),#895);
#554=DESCRIPTIVE_REPRESENTATION_ITEM('\X2\94A2\X0\','\X2\94A2\X0\');
#555=PROPERTY_DEFINITION('material property','material name',#905);
#556=PROPERTY_DEFINITION('material property','density of part',#905);
#557=AXIS2_PLACEMENT_3D('',#740,#597,#598);
#558=AXIS2_PLACEMENT_3D('',#741,#599,#600);
#559=AXIS2_PLACEMENT_3D('',#750,#605,#606);
#560=AXIS2_PLACEMENT_3D('',#756,#610,#611);
#561=AXIS2_PLACEMENT_3D('',#762,#615,#616);
#562=AXIS2_PLACEMENT_3D('',#768,#620,#621);
#563=AXIS2_PLACEMENT_3D('',#774,#625,#626);
#564=AXIS2_PLACEMENT_3D('',#784,#631,#632);
#565=AXIS2_PLACEMENT_3D('',#788,#634,#635);
#566=AXIS2_PLACEMENT_3D('',#792,#638,#639);
#567=AXIS2_PLACEMENT_3D('',#795,#640,#641);
#568=AXIS2_PLACEMENT_3D('',#799,#643,#644);
#569=AXIS2_PLACEMENT_3D('',#801,#646,#647);
#570=AXIS2_PLACEMENT_3D('',#807,#651,#652);
#571=AXIS2_PLACEMENT_3D('',#823,#661,#662);
#572=AXIS2_PLACEMENT_3D('',#825,#663,#664);
#573=AXIS2_PLACEMENT_3D('',#827,#665,#666);
#574=AXIS2_PLACEMENT_3D('',#829,#668,#669);
#575=AXIS2_PLACEMENT_3D('',#832,#672,#673);
#576=AXIS2_PLACEMENT_3D('',#837,#676,#677);
#577=AXIS2_PLACEMENT_3D('',#839,#678,#679);
#578=AXIS2_PLACEMENT_3D('',#840,#680,#681);
#579=AXIS2_PLACEMENT_3D('',#846,#685,#686);
#580=AXIS2_PLACEMENT_3D('',#850,#689,#690);
#581=AXIS2_PLACEMENT_3D('',#852,#692,#693);
#582=AXIS2_PLACEMENT_3D('',#855,#694,#695);
#583=AXIS2_PLACEMENT_3D('',#858,#698,#699);
#584=AXIS2_PLACEMENT_3D('',#862,#702,#703);
#585=AXIS2_PLACEMENT_3D('',#865,#704,#705);
#586=AXIS2_PLACEMENT_3D('',#868,#708,#709);
#587=AXIS2_PLACEMENT_3D('',#870,#711,#712);
#588=AXIS2_PLACEMENT_3D('',#878,#718,#719);
#589=AXIS2_PLACEMENT_3D('',#880,#721,#722);
#590=AXIS2_PLACEMENT_3D('',#881,#723,#724);
#591=AXIS2_PLACEMENT_3D('',#883,#725,#726);
#592=AXIS2_PLACEMENT_3D('',#885,#727,#728);
#593=AXIS2_PLACEMENT_3D('',#886,#729,#730);
#594=AXIS2_PLACEMENT_3D('',#888,#732,#733);
#595=AXIS2_PLACEMENT_3D('',#890,#735,#736);
#596=AXIS2_PLACEMENT_3D('',#892,#738,#739);
#597=DIRECTION('axis',(0.,0.,1.));
#598=DIRECTION('refdir',(1.,0.,0.));
#599=DIRECTION('center_axis',(0.,0.,1.));
#600=DIRECTION('ref_axis',(1.,0.,0.));
#601=DIRECTION('',(1.,-1.4778415350378E-16,0.));
#602=DIRECTION('',(0.,-1.,0.));
#603=DIRECTION('',(-1.,-8.77651756838989E-17,0.));
#604=DIRECTION('',(0.,1.,0.));
#605=DIRECTION('center_axis',(0.707106781186547,0.,0.707106781186549));
#606=DIRECTION('ref_axis',(0.707106781186548,0.,-0.707106781186546));
#607=DIRECTION('',(0.707106781186548,-1.04499177094437E-16,-0.707106781186546));
#608=DIRECTION('',(0.,1.,0.));
#609=DIRECTION('',(-0.707106781186548,-6.20593508781137E-17,0.707106781186546));
#610=DIRECTION('center_axis',(1.,0.,0.));
#611=DIRECTION('ref_axis',(0.,1.,0.));
#612=DIRECTION('',(0.,0.,-1.));
#613=DIRECTION('',(0.,1.,-5.34790375441192E-62));
#614=DIRECTION('',(0.,0.,1.));
#615=DIRECTION('center_axis',(-1.23259516440783E-31,5.34790375441192E-62,
1.));
#616=DIRECTION('ref_axis',(1.,0.,1.23259516440783E-31));
#617=DIRECTION('',(-1.,1.4778415350378E-16,-1.23259516440783E-31));
#618=DIRECTION('',(4.45202215388534E-16,-1.,5.48754097871562E-47));
#619=DIRECTION('',(-1.,-8.77651756838989E-17,-1.23259516440783E-31));
#620=DIRECTION('center_axis',(-1.,-4.45202215388534E-16,0.));
#621=DIRECTION('ref_axis',(-4.45202215388534E-16,1.,0.));
#622=DIRECTION('',(0.,0.,1.));
#623=DIRECTION('',(-4.45202215388534E-16,1.,0.));
#624=DIRECTION('',(0.,0.,-1.));
#625=DIRECTION('center_axis',(0.,0.,1.));
#626=DIRECTION('ref_axis',(-1.,0.,0.));
#627=DIRECTION('',(-1.,1.4778415350378E-16,0.));
#628=DIRECTION('',(4.45202215388534E-16,-1.,0.));
#629=DIRECTION('',(-1.,-8.77651756838989E-17,0.));
#630=DIRECTION('',(0.,-1.,0.));
#631=DIRECTION('center_axis',(0.,0.,-1.));
#632=DIRECTION('ref_axis',(-0.707106781186549,-0.707106781186546,0.));
#633=DIRECTION('',(1.,0.,0.));
#634=DIRECTION('center_axis',(0.,0.,-1.));
#635=DIRECTION('ref_axis',(0.707106781186546,-0.707106781186549,0.));
#636=DIRECTION('',(0.,1.,0.));
#637=DIRECTION('',(-1.,-8.77651756838989E-17,0.));
#638=DIRECTION('center_axis',(0.,0.,-1.));
#639=DIRECTION('ref_axis',(1.67097119490494E-6,0.999999999998604,0.));
#640=DIRECTION('center_axis',(0.,0.,-1.));
#641=DIRECTION('ref_axis',(-1.,0.,0.));
#642=DIRECTION('',(0.,0.,-1.));
#643=DIRECTION('center_axis',(0.,0.,1.));
#644=DIRECTION('ref_axis',(-1.,0.,0.));
#645=DIRECTION('',(0.,0.,-1.));
#646=DIRECTION('center_axis',(-1.,-3.19883354887242E-13,0.));
#647=DIRECTION('ref_axis',(-3.19883354887242E-13,1.,0.));
#648=DIRECTION('',(3.19883354887242E-13,-1.,0.));
#649=DIRECTION('',(-3.19883354887242E-13,1.,0.));
#650=DIRECTION('',(0.,0.,-1.));
#651=DIRECTION('center_axis',(1.4778415350378E-16,1.,0.));
#652=DIRECTION('ref_axis',(1.,-1.4778415350378E-16,0.));
#653=DIRECTION('',(1.,-1.4778415350378E-16,0.));
#654=DIRECTION('',(0.,0.,-1.));
#655=DIRECTION('',(-1.,1.4778415350378E-16,0.));
#656=DIRECTION('',(-0.707106781186549,1.04499177094437E-16,0.707106781186546));
#657=DIRECTION('',(0.,0.,1.));
#658=DIRECTION('',(-1.,1.4778415350378E-16,-1.23259516440783E-31));
#659=DIRECTION('',(0.,0.,-1.));
#660=DIRECTION('',(0.707106781186548,-1.04499177094437E-16,-0.707106781186548));
#661=DIRECTION('center_axis',(0.,0.,-1.));
#662=DIRECTION('ref_axis',(-1.,0.,0.));
#663=DIRECTION('center_axis',(0.,0.,-1.));
#664=DIRECTION('ref_axis',(-1.,0.,0.));
#665=DIRECTION('center_axis',(0.,0.,1.));
#666=DIRECTION('ref_axis',(-1.,0.,0.));
#667=DIRECTION('',(0.,0.,-1.));
#668=DIRECTION('center_axis',(1.,-8.61706539457446E-13,0.));
#669=DIRECTION('ref_axis',(-8.61706539457446E-13,-1.,0.));
#670=DIRECTION('',(8.61706539457446E-13,1.,0.));
#671=DIRECTION('',(-8.61706539457446E-13,-1.,0.));
#672=DIRECTION('center_axis',(0.,0.,1.));
#673=DIRECTION('ref_axis',(1.,0.,0.));
#674=DIRECTION('',(-1.,0.,0.));
#675=DIRECTION('',(0.,1.,0.));
#676=DIRECTION('center_axis',(0.,0.,-1.));
#677=DIRECTION('ref_axis',(1.,0.,0.));
#678=DIRECTION('center_axis',(0.,0.,-1.));
#679=DIRECTION('ref_axis',(1.,0.,0.));
#680=DIRECTION('center_axis',(-0.707106781186546,0.,-0.707106781186549));
#681=DIRECTION('ref_axis',(-0.707106781186549,0.,0.707106781186546));
#682=DIRECTION('',(0.,1.,0.));
#683=DIRECTION('',(0.707106781186549,6.20593508781137E-17,-0.707106781186546));
#684=DIRECTION('',(0.,-1.,0.));
#685=DIRECTION('center_axis',(-1.,0.,0.));
#686=DIRECTION('ref_axis',(0.,-1.,0.));
#687=DIRECTION('',(0.,0.,-1.));
#688=DIRECTION('',(0.,-1.,5.34790375441192E-62));
#689=DIRECTION('center_axis',(0.707106781186548,0.,0.707106781186548));
#690=DIRECTION('ref_axis',(0.707106781186548,0.,-0.707106781186548));
#691=DIRECTION('',(-0.707106781186548,-6.20593508781136E-17,0.707106781186548));
#692=DIRECTION('center_axis',(0.,0.,1.));
#693=DIRECTION('ref_axis',(-0.707106781186549,-0.707106781186546,0.));
#694=DIRECTION('center_axis',(0.,0.,-1.));
#695=DIRECTION('ref_axis',(-0.707106781186549,-0.707106781186546,0.));
#696=DIRECTION('',(0.,0.,-1.));
#697=DIRECTION('',(0.,0.,1.));
#698=DIRECTION('center_axis',(-1.,0.,0.));
#699=DIRECTION('ref_axis',(0.,-1.,0.));
#700=DIRECTION('',(0.,0.,-1.));
#701=DIRECTION('',(0.,-1.,0.));
#702=DIRECTION('center_axis',(0.,0.,1.));
#703=DIRECTION('ref_axis',(0.707106781186546,-0.707106781186549,0.));
#704=DIRECTION('center_axis',(0.,0.,-1.));
#705=DIRECTION('ref_axis',(0.707106781186546,-0.707106781186549,0.));
#706=DIRECTION('',(0.,0.,-1.));
#707=DIRECTION('',(0.,0.,1.));
#708=DIRECTION('center_axis',(0.,-1.,0.));
#709=DIRECTION('ref_axis',(1.,0.,0.));
#710=DIRECTION('',(1.,0.,0.));
#711=DIRECTION('center_axis',(-8.77651756838989E-17,1.,0.));
#712=DIRECTION('ref_axis',(-1.,-8.77651756838989E-17,0.));
#713=DIRECTION('',(0.,0.,1.));
#714=DIRECTION('',(-1.,-8.77651756838989E-17,0.));
#715=DIRECTION('',(0.,0.,1.));
#716=DIRECTION('',(-1.,-8.77651756838989E-17,-1.23259516440783E-31));
#717=DIRECTION('',(-1.,-8.77651756838989E-17,0.));
#718=DIRECTION('center_axis',(1.,0.,0.));
#719=DIRECTION('ref_axis',(0.,1.,0.));
#720=DIRECTION('',(0.,1.,0.));
#721=DIRECTION('center_axis',(0.,0.,1.));
#722=DIRECTION('ref_axis',(1.,0.,0.));
#723=DIRECTION('center_axis',(0.,0.,1.));
#724=DIRECTION('ref_axis',(1.,0.,0.));
#725=DIRECTION('center_axis',(0.,0.,1.));
#726=DIRECTION('ref_axis',(1.,0.,0.));
#727=DIRECTION('center_axis',(0.,0.,1.));
#728=DIRECTION('ref_axis',(1.,0.,0.));
#729=DIRECTION('center_axis',(0.,0.,-1.));
#730=DIRECTION('ref_axis',(1.,0.,0.));
#731=DIRECTION('',(0.,0.,1.));
#732=DIRECTION('center_axis',(0.,0.,-1.));
#733=DIRECTION('ref_axis',(1.,0.,0.));
#734=DIRECTION('',(0.,0.,1.));
#735=DIRECTION('center_axis',(1.,4.45202215388534E-16,0.));
#736=DIRECTION('ref_axis',(4.45202215388534E-16,-1.,0.));
#737=DIRECTION('',(-4.45202215388534E-16,1.,-5.48754097871562E-47));
#738=DIRECTION('center_axis',(-1.23259516440783E-31,5.34790375441192E-62,
1.));
#739=DIRECTION('ref_axis',(1.,0.,1.23259516440783E-31));
#740=CARTESIAN_POINT('',(0.,0.,0.));
#741=CARTESIAN_POINT('Origin',(26.149926533757,-7.00000361157592,28.6));
#742=CARTESIAN_POINT('',(18.7499999999878,-12.7499999999967,28.6));
#743=CARTESIAN_POINT('',(37.2998530675318,-12.7499999999967,28.6));
#744=CARTESIAN_POINT('',(18.3018034251497,-12.7499999999967,28.6));
#745=CARTESIAN_POINT('',(37.2998530675318,-7.22315122394354E-6,28.6));
#746=CARTESIAN_POINT('',(37.2998530675318,-10.5000018057883,28.6));
#747=CARTESIAN_POINT('',(18.7499999999878,-7.22315122557158E-6,28.6));
#748=CARTESIAN_POINT('',(38.7998530675318,-7.2231512238119E-6,28.6));
#749=CARTESIAN_POINT('',(18.7499999999878,3.49999819420989,28.6));
#750=CARTESIAN_POINT('Origin',(38.0498530675318,-10.5000018057883,27.85));
#751=CARTESIAN_POINT('',(38.7998530675318,-12.7499999999967,27.1));
#752=CARTESIAN_POINT('',(29.9633098797844,-12.7499999999967,35.9365431877474));
#753=CARTESIAN_POINT('',(38.7998530675318,-7.2231512238119E-6,27.1));
#754=CARTESIAN_POINT('',(38.7998530675318,-10.5000018057883,27.1));
#755=CARTESIAN_POINT('',(38.7998530675318,-7.22315122270167E-6,27.1));
#756=CARTESIAN_POINT('Origin',(38.7998530675318,-14.0000000000006,25.6));
#757=CARTESIAN_POINT('',(38.7998530675318,-12.7499999999967,17.8));
#758=CARTESIAN_POINT('',(38.7998530675318,-12.7499999999967,29.1));
#759=CARTESIAN_POINT('',(38.7998530675318,-7.2231512238119E-6,17.8));
#760=CARTESIAN_POINT('',(38.7998530675318,-10.5000018057883,17.8));
#761=CARTESIAN_POINT('',(38.7998530675318,-7.2231512238119E-6,25.6));
#762=CARTESIAN_POINT('Origin',(26.149926533757,-7.00000361157592,17.8));
#763=CARTESIAN_POINT('',(36.199926533757,-12.7499999999967,17.8));
#764=CARTESIAN_POINT('',(18.3018034251497,-12.7499999999967,17.8));
#765=CARTESIAN_POINT('',(36.199926533757,-7.2231512238119E-6,17.8));
#766=CARTESIAN_POINT('',(36.199926533757,-10.5000018057883,17.8));
#767=CARTESIAN_POINT('',(32.4748898006444,-7.22315122436701E-6,17.8));
#768=CARTESIAN_POINT('Origin',(36.199926533757,-14.0000000000006,25.6));
#769=CARTESIAN_POINT('',(36.199926533757,-12.7499999999967,25.7));
#770=CARTESIAN_POINT('',(36.199926533757,-12.7499999999967,29.1));
#771=CARTESIAN_POINT('',(36.199926533757,-7.22315122392599E-6,25.7));
#772=CARTESIAN_POINT('',(36.199926533757,-10.5000018057883,25.7));
#773=CARTESIAN_POINT('',(36.199926533757,-7.2231512238119E-6,25.6));
#774=CARTESIAN_POINT('Origin',(26.149926533757,-7.00000361157592,25.7));
#775=CARTESIAN_POINT('',(16.099926533757,-12.7499999999967,25.7));
#776=CARTESIAN_POINT('',(18.3018034251497,-12.7499999999967,25.7));
#777=CARTESIAN_POINT('',(16.099926533757,-7.22315122580416E-6,25.7));
#778=CARTESIAN_POINT('',(16.099926533757,-3.50000541736357,25.7));
#779=CARTESIAN_POINT('',(20.649926533757,-7.22315122561601E-6,25.7));
#780=CARTESIAN_POINT('',(32.4748898006444,-7.22315122436701E-6,25.7));
#781=CARTESIAN_POINT('',(20.649926533757,-7.00000722315123,25.7));
#782=CARTESIAN_POINT('',(20.649926533757,-3.50000541736357,25.7));
#783=CARTESIAN_POINT('',(21.649926533757,-8.00000722315123,25.7));
#784=CARTESIAN_POINT('Origin',(21.649926533757,-7.00000722315123,25.7));
#785=CARTESIAN_POINT('',(30.649926533757,-8.00000722315123,25.7));
#786=CARTESIAN_POINT('',(23.399926533757,-8.00000722315123,25.7));
#787=CARTESIAN_POINT('',(31.649926533757,-7.00000722315123,25.7));
#788=CARTESIAN_POINT('Origin',(30.649926533757,-7.00000722315123,25.7));
#789=CARTESIAN_POINT('',(31.649926533757,-7.22315122603234E-6,25.7));
#790=CARTESIAN_POINT('',(31.649926533757,-7.50000541736357,25.7));
#791=CARTESIAN_POINT('',(32.4748898006444,-7.22315122436701E-6,25.7));
#792=CARTESIAN_POINT('Origin',(8.74999999998765,7.99999999998958,32.6));
#793=CARTESIAN_POINT('',(3.99999999999732,7.99999999999368,28.6));
#794=CARTESIAN_POINT('',(13.4999999999515,7.99998412576732,28.6));
#795=CARTESIAN_POINT('Origin',(8.74999999998765,7.99999999998958,28.6));
#796=CARTESIAN_POINT('',(3.99999999999732,7.99999999999368,32.6));
#797=CARTESIAN_POINT('',(3.99999999999732,7.99999999999368,32.6));
#798=CARTESIAN_POINT('',(13.4999999999515,7.99998412576732,32.6));
#799=CARTESIAN_POINT('Origin',(8.74999999998765,7.99999999998958,32.6));
#800=CARTESIAN_POINT('',(13.4999999999515,7.99998412576732,32.6));
#801=CARTESIAN_POINT('Origin',(13.4999999999805,-7.22315122603234E-6,32.6));
#802=CARTESIAN_POINT('',(13.4999999999823,-7.22315122603234E-6,28.6));
#803=CARTESIAN_POINT('',(13.4999999999805,-3.61157608231009E-6,28.6));
#804=CARTESIAN_POINT('',(13.4999999999823,-7.22315122603234E-6,32.6));
#805=CARTESIAN_POINT('',(13.4999999999805,-3.61157608231009E-6,32.6));
#806=CARTESIAN_POINT('',(13.4999999999823,-7.22315122603234E-6,32.6));
#807=CARTESIAN_POINT('Origin',(8.74999999998332,-12.7499999999967,32.6));
#808=CARTESIAN_POINT('',(8.74999999998332,-12.7499999999967,32.6));
#809=CARTESIAN_POINT('',(14.7499999999878,-12.7499999999967,32.6));
#810=CARTESIAN_POINT('',(8.74999999998539,-12.7499999999967,32.6));
#811=CARTESIAN_POINT('',(8.74999999998332,-12.7499999999967,28.6));
#812=CARTESIAN_POINT('',(8.74999999998332,-12.7499999999967,32.6));
#813=CARTESIAN_POINT('',(11.9999999999823,-12.7499999999967,28.6));
#814=CARTESIAN_POINT('',(8.74999999998539,-12.7499999999967,28.6));
#815=CARTESIAN_POINT('',(13.4999999999823,-12.7499999999967,27.1));
#816=CARTESIAN_POINT('',(10.9884200791223,-12.7499999999967,29.61157992086));
#817=CARTESIAN_POINT('',(13.4999999999823,-12.7499999999967,17.8));
#818=CARTESIAN_POINT('',(13.4999999999823,-12.7499999999967,29.1));
#819=CARTESIAN_POINT('',(16.099926533757,-12.7499999999967,17.8));
#820=CARTESIAN_POINT('',(18.3018034251497,-12.7499999999967,17.8));
#821=CARTESIAN_POINT('',(16.099926533757,-12.7499999999967,29.1));
#822=CARTESIAN_POINT('',(14.6759200791264,-12.7499999999967,32.6740799208614));
#823=CARTESIAN_POINT('Origin',(8.74999999998332,-7.99999999999692,32.6));
#824=CARTESIAN_POINT('',(3.99999999998353,-7.99999999999283,28.6));
#825=CARTESIAN_POINT('Origin',(8.74999999998332,-7.99999999999692,28.6));
#826=CARTESIAN_POINT('',(3.99999999998353,-7.99999999999283,32.6));
#827=CARTESIAN_POINT('Origin',(8.74999999998332,-7.99999999999692,32.6));
#828=CARTESIAN_POINT('',(3.99999999998353,-7.99999999999283,32.6));
#829=CARTESIAN_POINT('Origin',(3.99999999999732,7.99999999999368,32.6));
#830=CARTESIAN_POINT('',(3.99999999999387,3.99999999999766,28.6));
#831=CARTESIAN_POINT('',(3.99999999999387,3.99999999999766,32.6));
#832=CARTESIAN_POINT('Origin',(8.74999999998746,-2.4580337765201E-12,32.6));
#833=CARTESIAN_POINT('',(14.7499999999878,-7.22315122603234E-6,32.6));
#834=CARTESIAN_POINT('',(11.7499999999876,-7.22315122603234E-6,32.6));
#835=CARTESIAN_POINT('',(14.7499999999878,-14.0000000000006,32.6));
#836=CARTESIAN_POINT('',(5.84999999998714,-8.00000000000064,32.6));
#837=CARTESIAN_POINT('Origin',(8.74999999998714,-8.00000000000064,32.6));
#838=CARTESIAN_POINT('',(5.84999999998778,7.99999999999569,32.6));
#839=CARTESIAN_POINT('Origin',(8.74999999998778,7.99999999999569,32.6));
#840=CARTESIAN_POINT('Origin',(12.7499999999823,-3.61157684203306E-6,27.85));
#841=CARTESIAN_POINT('',(11.9999999999823,-7.22315122616399E-6,28.6));
#842=CARTESIAN_POINT('',(11.9999999999823,-3.61157684203306E-6,28.6));
#843=CARTESIAN_POINT('',(13.4999999999823,-7.22315122603234E-6,27.1));
#844=CARTESIAN_POINT('',(19.8249632668697,-7.22315122547723E-6,20.7750367331126));
#845=CARTESIAN_POINT('',(13.4999999999823,-3.61157684203306E-6,27.1));
#846=CARTESIAN_POINT('Origin',(13.4999999999823,-7.22315122603234E-6,25.6));
#847=CARTESIAN_POINT('',(13.4999999999823,-7.22315122603234E-6,17.8));
#848=CARTESIAN_POINT('',(13.4999999999823,-7.22315122603234E-6,25.6));
#849=CARTESIAN_POINT('',(13.4999999999823,-3.50000541736357,17.8));
#850=CARTESIAN_POINT('Origin',(16.7499999999878,3.49999819420989,30.6));
#851=CARTESIAN_POINT('',(23.5124632668738,-7.22315122519968E-6,23.837536733114));
#852=CARTESIAN_POINT('Origin',(21.649926533757,-7.00000722315123,25.7));
#853=CARTESIAN_POINT('',(21.649926533757,-8.00000722315123,26.7));
#854=CARTESIAN_POINT('',(20.649926533757,-7.00000722315123,26.7));
#855=CARTESIAN_POINT('Origin',(21.649926533757,-7.00000722315123,26.7));
#856=CARTESIAN_POINT('',(21.649926533757,-8.00000722315123,25.7));
#857=CARTESIAN_POINT('',(20.649926533757,-7.00000722315123,25.7));
#858=CARTESIAN_POINT('Origin',(20.649926533757,-7.22315122561601E-6,25.7));
#859=CARTESIAN_POINT('',(20.649926533757,-7.22315122603234E-6,26.7));
#860=CARTESIAN_POINT('',(20.649926533757,-7.22315122540483E-6,25.65));
#861=CARTESIAN_POINT('',(20.649926533757,-7.22315122561601E-6,26.7));
#862=CARTESIAN_POINT('Origin',(30.649926533757,-7.00000722315123,25.7));
#863=CARTESIAN_POINT('',(31.649926533757,-7.00000722315123,26.7));
#864=CARTESIAN_POINT('',(30.649926533757,-8.00000722315123,26.7));
#865=CARTESIAN_POINT('Origin',(30.649926533757,-7.00000722315123,26.7));
#866=CARTESIAN_POINT('',(31.649926533757,-7.00000722315123,25.7));
#867=CARTESIAN_POINT('',(30.649926533757,-8.00000722315123,25.7));
#868=CARTESIAN_POINT('Origin',(20.649926533757,-8.00000722315123,25.7));
#869=CARTESIAN_POINT('',(20.649926533757,-8.00000722315123,26.7));
#870=CARTESIAN_POINT('Origin',(38.7998530675318,-7.2231512238119E-6,25.6));
#871=CARTESIAN_POINT('',(31.649926533757,-7.22315122603234E-6,26.7));
#872=CARTESIAN_POINT('',(31.649926533757,-7.22315122436701E-6,25.65));
#873=CARTESIAN_POINT('',(32.4748898006444,-7.22315122436701E-6,26.7));
#874=CARTESIAN_POINT('',(16.099926533757,-7.22315122591825E-6,17.8));
#875=CARTESIAN_POINT('',(16.099926533757,-7.22315122580416E-6,25.6));
#876=CARTESIAN_POINT('',(32.4748898006444,-7.22315122436701E-6,17.8));
#877=CARTESIAN_POINT('',(38.7998530675318,-7.2231512238119E-6,28.6));
#878=CARTESIAN_POINT('Origin',(31.649926533757,-8.00000722315123,25.7));
#879=CARTESIAN_POINT('',(31.649926533757,-8.00000722315123,26.7));
#880=CARTESIAN_POINT('Origin',(26.149926533757,-4.00000722315123,26.7));
#881=CARTESIAN_POINT('Origin',(8.74999999998746,-2.4580337765201E-12,28.6));
#882=CARTESIAN_POINT('',(5.84999999998714,-8.00000000000064,28.6));
#883=CARTESIAN_POINT('Origin',(8.74999999998714,-8.00000000000064,28.6));
#884=CARTESIAN_POINT('',(5.84999999998778,7.99999999999569,28.6));
#885=CARTESIAN_POINT('Origin',(8.74999999998778,7.99999999999569,28.6));
#886=CARTESIAN_POINT('Origin',(8.74999999998714,-8.00000000000064,32.6));
#887=CARTESIAN_POINT('',(5.84999999998714,-8.00000000000064,32.6));
#888=CARTESIAN_POINT('Origin',(8.74999999998778,7.99999999999569,32.6));
#889=CARTESIAN_POINT('',(5.84999999998778,7.99999999999569,32.6));
#890=CARTESIAN_POINT('Origin',(16.099926533757,-7.22315122607686E-6,25.6));
#891=CARTESIAN_POINT('',(16.099926533757,-3.50000541736357,17.8));
#892=CARTESIAN_POINT('Origin',(26.149926533757,-7.00000361157592,17.8));
#893=UNCERTAINTY_MEASURE_WITH_UNIT(LENGTH_MEASURE(0.01),#897,
'DISTANCE_ACCURACY_VALUE',
'Maximum model space distance between geometric entities at asserted c
onnectivities');
#894=UNCERTAINTY_MEASURE_WITH_UNIT(LENGTH_MEASURE(0.01),#897,
'DISTANCE_ACCURACY_VALUE',
'Maximum model space distance between geometric entities at asserted c
onnectivities');
#895=(
GEOMETRIC_REPRESENTATION_CONTEXT(3)
GLOBAL_UNCERTAINTY_ASSIGNED_CONTEXT((#893))
GLOBAL_UNIT_ASSIGNED_CONTEXT((#897,#899,#900))
REPRESENTATION_CONTEXT('','3D')
);
#896=(
GEOMETRIC_REPRESENTATION_CONTEXT(3)
GLOBAL_UNCERTAINTY_ASSIGNED_CONTEXT((#894))
GLOBAL_UNIT_ASSIGNED_CONTEXT((#897,#899,#900))
REPRESENTATION_CONTEXT('','3D')
);
#897=(
LENGTH_UNIT()
NAMED_UNIT(*)
SI_UNIT(.MILLI.,.METRE.)
);
#898=(
LENGTH_UNIT()
NAMED_UNIT(*)
SI_UNIT($,.METRE.)
);
#899=(
NAMED_UNIT(*)
PLANE_ANGLE_UNIT()
SI_UNIT($,.RADIAN.)
);
#900=(
NAMED_UNIT(*)
SI_UNIT($,.STERADIAN.)
SOLID_ANGLE_UNIT()
);
#901=SHAPE_DEFINITION_REPRESENTATION(#902,#903);
#902=PRODUCT_DEFINITION_SHAPE('',$,#905);
#903=SHAPE_REPRESENTATION('',(#557),#895);
#904=PRODUCT_DEFINITION_CONTEXT('part definition',#909,'design');
#905=PRODUCT_DEFINITION('2026-07-20-15-39-45-970','\X2\8235673A56FA5B9A652F67B6\X0\',
#906,#904);
#906=PRODUCT_DEFINITION_FORMATION('',$,#911);
#907=PRODUCT_RELATED_PRODUCT_CATEGORY('\X2\8235673A56FA5B9A652F67B6\X0\',
'\X2\8235673A56FA5B9A652F67B6\X0\',(#911));
#908=APPLICATION_PROTOCOL_DEFINITION('international standard',
'automotive_design',2009,#909);
#909=APPLICATION_CONTEXT(
'Core Data for Automotive Mechanical Design Process');
#910=PRODUCT_CONTEXT('part definition',#909,'mechanical');
#911=PRODUCT('2026-07-20-15-39-45-970','\X2\8235673A56FA5B9A652F67B6\X0\',
$,(#910));
#912=PRESENTATION_STYLE_ASSIGNMENT((#913));
#913=SURFACE_STYLE_USAGE(.BOTH.,#914);
#914=SURFACE_SIDE_STYLE('',(#915));
#915=SURFACE_STYLE_FILL_AREA(#916);
#916=FILL_AREA_STYLE('\X2\94A2\X0\ - \X2\7F0E5149\X0\',(#917));
#917=FILL_AREA_STYLE_COLOUR('\X2\94A2\X0\ - \X2\7F0E5149\X0\',#918);
#918=COLOUR_RGB('\X2\94A2\X0\ - \X2\7F0E5149\X0\',0.627450980392157,0.627450980392157,
0.627450980392157);
ENDSEC;
END-ISO-10303-21;
