ISO-10303-21;
HEADER;
/* Generated by software containing ST-Developer
 * from STEP Tools, Inc. (www.steptools.com) 
 */

FILE_DESCRIPTION(
/* description */ (''),
/* implementation_level */ '2;1');

FILE_NAME(
/* name */ '',
/* time_stamp */ '2026-08-11T12:23:17+09:00',
/* author */ (''),
/* organization */ (''),
/* preprocessor_version */ 'ST-DEVELOPER v20.1',
/* originating_system */ 'Autodesk Translation Framework v15.8.0.0',
/* authorisation */ '');

FILE_SCHEMA (('AUTOMOTIVE_DESIGN { 1 0 10303 214 3 1 1 }'));
ENDSEC;

DATA;
#10=MECHANICAL_DESIGN_GEOMETRIC_PRESENTATION_REPRESENTATION('',(#13),#674);
#11=SHAPE_REPRESENTATION_RELATIONSHIP('SRR','None',#681,#12);
#12=ADVANCED_BREP_SHAPE_REPRESENTATION('',(#14),#673);
#13=STYLED_ITEM('',(#690),#14);
#14=MANIFOLD_SOLID_BREP('\X2\5B9E4F53\X0\1',#360);
#15=SPHERICAL_SURFACE('',#394,2.55);
#16=SPHERICAL_SURFACE('',#415,2.55);
#17=CONICAL_SURFACE('',#392,2.3,0.486899231811);
#18=CONICAL_SURFACE('',#413,2.3,0.486899231811);
#19=B_SPLINE_CURVE_WITH_KNOTS('',3,(#571,#572,#573,#574,#575,#576,#577,
#578,#579,#580),.UNSPECIFIED.,.F.,.F.,(4,3,3,4),(203.786145584951,212.089496920392,
220.84895190328,223.774709529845),.UNSPECIFIED.);
#20=B_SPLINE_CURVE_WITH_KNOTS('',3,(#587,#588,#589,#590,#591,#592,#593,
#594,#595,#596),.UNSPECIFIED.,.F.,.F.,(4,3,3,4),(203.786145584951,212.089496920392,
220.84895190328,223.774709529845),.UNSPECIFIED.);
#21=B_SPLINE_CURVE_WITH_KNOTS('',3,(#641,#642,#643,#644,#645,#646,#647,
#648,#649,#650),.UNSPECIFIED.,.F.,.F.,(4,3,3,4),(203.786145584951,212.089496920392,
220.84895190328,223.774709529845),.UNSPECIFIED.);
#22=B_SPLINE_CURVE_WITH_KNOTS('',3,(#655,#656,#657,#658,#659,#660,#661,
#662,#663,#664),.UNSPECIFIED.,.F.,.F.,(4,3,3,4),(203.786145584951,212.089496920392,
220.84895190328,223.774709529845),.UNSPECIFIED.);
#23=CYLINDRICAL_SURFACE('',#378,4.5);
#24=CYLINDRICAL_SURFACE('',#389,4.5);
#25=CYLINDRICAL_SURFACE('',#399,4.5);
#26=CYLINDRICAL_SURFACE('',#410,4.5);
#27=CYLINDRICAL_SURFACE('',#416,1.9);
#28=FACE_OUTER_BOUND('',#49,.T.);
#29=FACE_OUTER_BOUND('',#50,.T.);
#30=FACE_OUTER_BOUND('',#51,.T.);
#31=FACE_OUTER_BOUND('',#52,.T.);
#32=FACE_OUTER_BOUND('',#53,.T.);
#33=FACE_OUTER_BOUND('',#54,.T.);
#34=FACE_OUTER_BOUND('',#55,.T.);
#35=FACE_OUTER_BOUND('',#56,.T.);
#36=FACE_OUTER_BOUND('',#57,.T.);
#37=FACE_OUTER_BOUND('',#58,.T.);
#38=FACE_OUTER_BOUND('',#59,.T.);
#39=FACE_OUTER_BOUND('',#60,.T.);
#40=FACE_OUTER_BOUND('',#61,.T.);
#41=FACE_OUTER_BOUND('',#62,.T.);
#42=FACE_OUTER_BOUND('',#63,.T.);
#43=FACE_OUTER_BOUND('',#64,.T.);
#44=FACE_OUTER_BOUND('',#65,.T.);
#45=FACE_OUTER_BOUND('',#66,.T.);
#46=FACE_OUTER_BOUND('',#67,.T.);
#47=FACE_OUTER_BOUND('',#68,.T.);
#48=FACE_OUTER_BOUND('',#69,.T.);
#49=EDGE_LOOP('',(#225,#226,#227,#228));
#50=EDGE_LOOP('',(#229,#230,#231,#232));
#51=EDGE_LOOP('',(#233,#234,#235,#236));
#52=EDGE_LOOP('',(#237,#238,#239,#240,#241,#242,#243));
#53=EDGE_LOOP('',(#244,#245,#246,#247,#248,#249,#250));
#54=EDGE_LOOP('',(#251,#252,#253,#254,#255));
#55=EDGE_LOOP('',(#256,#257,#258,#259));
#56=EDGE_LOOP('',(#260,#261,#262,#263,#264));
#57=EDGE_LOOP('',(#265,#266,#267,#268));
#58=EDGE_LOOP('',(#269,#270,#271,#272));
#59=EDGE_LOOP('',(#273,#274,#275,#276));
#60=EDGE_LOOP('',(#277,#278,#279,#280));
#61=EDGE_LOOP('',(#281,#282,#283,#284));
#62=EDGE_LOOP('',(#285,#286,#287,#288,#289,#290,#291));
#63=EDGE_LOOP('',(#292,#293,#294,#295,#296,#297,#298));
#64=EDGE_LOOP('',(#299,#300,#301,#302,#303));
#65=EDGE_LOOP('',(#304,#305,#306,#307));
#66=EDGE_LOOP('',(#308,#309,#310,#311,#312));
#67=EDGE_LOOP('',(#313,#314,#315,#316));
#68=EDGE_LOOP('',(#317,#318,#319,#320));
#69=EDGE_LOOP('',(#321,#322,#323,#324,#325,#326));
#70=CIRCLE('',#375,1.9);
#71=CIRCLE('',#377,1.9);
#72=CIRCLE('',#379,4.5);
#73=CIRCLE('',#380,4.5);
#74=CIRCLE('',#382,4.5);
#75=CIRCLE('',#383,2.294705882353);
#76=CIRCLE('',#385,1.700735135169);
#77=CIRCLE('',#386,4.5);
#78=CIRCLE('',#388,2.509980079602);
#79=CIRCLE('',#391,2.509980079602);
#80=CIRCLE('',#393,2.074144124376);
#81=CIRCLE('',#396,1.9);
#82=CIRCLE('',#398,1.9);
#83=CIRCLE('',#400,4.5);
#84=CIRCLE('',#401,4.5);
#85=CIRCLE('',#403,2.294705882353);
#86=CIRCLE('',#404,4.5);
#87=CIRCLE('',#406,4.5);
#88=CIRCLE('',#407,1.700735135169);
#89=CIRCLE('',#409,2.509980079602);
#90=CIRCLE('',#412,2.509980079602);
#91=CIRCLE('',#414,2.074144124376);
#92=LINE('',#534,#117);
#93=LINE('',#536,#118);
#94=LINE('',#539,#119);
#95=LINE('',#543,#120);
#96=LINE('',#544,#121);
#97=LINE('',#546,#122);
#98=LINE('',#552,#123);
#99=LINE('',#557,#124);
#100=LINE('',#560,#125);
#101=LINE('',#563,#126);
#102=LINE('',#567,#127);
#103=LINE('',#583,#128);
#104=LINE('',#603,#129);
#105=LINE('',#605,#130);
#106=LINE('',#608,#131);
#107=LINE('',#612,#132);
#108=LINE('',#613,#133);
#109=LINE('',#615,#134);
#110=LINE('',#620,#135);
#111=LINE('',#624,#136);
#112=LINE('',#628,#137);
#113=LINE('',#634,#138);
#114=LINE('',#637,#139);
#115=LINE('',#652,#140);
#116=LINE('',#670,#141);
#117=VECTOR('',#421,1.);
#118=VECTOR('',#422,1.);
#119=VECTOR('',#425,1.);
#120=VECTOR('',#428,1.);
#121=VECTOR('',#429,1.);
#122=VECTOR('',#432,1.);
#123=VECTOR('',#439,1.);
#124=VECTOR('',#444,1.);
#125=VECTOR('',#447,1.);
#126=VECTOR('',#450,1.);
#127=VECTOR('',#453,1.);
#128=VECTOR('',#462,1.);
#129=VECTOR('',#475,1.);
#130=VECTOR('',#476,1.);
#131=VECTOR('',#479,1.);
#132=VECTOR('',#482,1.);
#133=VECTOR('',#483,1.);
#134=VECTOR('',#486,1.);
#135=VECTOR('',#491,1.);
#136=VECTOR('',#496,1.);
#137=VECTOR('',#499,1.);
#138=VECTOR('',#506,1.);
#139=VECTOR('',#509,1.);
#140=VECTOR('',#516,1.);
#141=VECTOR('',#529,1.9);
#142=VERTEX_POINT('',#532);
#143=VERTEX_POINT('',#533);
#144=VERTEX_POINT('',#535);
#145=VERTEX_POINT('',#537);
#146=VERTEX_POINT('',#541);
#147=VERTEX_POINT('',#542);
#148=VERTEX_POINT('',#548);
#149=VERTEX_POINT('',#550);
#150=VERTEX_POINT('',#554);
#151=VERTEX_POINT('',#556);
#152=VERTEX_POINT('',#558);
#153=VERTEX_POINT('',#562);
#154=VERTEX_POINT('',#564);
#155=VERTEX_POINT('',#566);
#156=VERTEX_POINT('',#570);
#157=VERTEX_POINT('',#585);
#158=VERTEX_POINT('',#601);
#159=VERTEX_POINT('',#602);
#160=VERTEX_POINT('',#604);
#161=VERTEX_POINT('',#606);
#162=VERTEX_POINT('',#610);
#163=VERTEX_POINT('',#611);
#164=VERTEX_POINT('',#617);
#165=VERTEX_POINT('',#619);
#166=VERTEX_POINT('',#623);
#167=VERTEX_POINT('',#625);
#168=VERTEX_POINT('',#627);
#169=VERTEX_POINT('',#631);
#170=VERTEX_POINT('',#633);
#171=VERTEX_POINT('',#635);
#172=VERTEX_POINT('',#639);
#173=VERTEX_POINT('',#654);
#174=EDGE_CURVE('',#142,#143,#92,.T.);
#175=EDGE_CURVE('',#144,#143,#93,.T.);
#176=EDGE_CURVE('',#144,#145,#70,.T.);
#177=EDGE_CURVE('',#145,#142,#94,.T.);
#178=EDGE_CURVE('',#146,#147,#95,.T.);
#179=EDGE_CURVE('',#146,#145,#96,.T.);
#180=EDGE_CURVE('',#145,#144,#71,.T.);
#181=EDGE_CURVE('',#147,#144,#97,.T.);
#182=EDGE_CURVE('',#143,#148,#72,.T.);
#183=EDGE_CURVE('',#142,#149,#73,.T.);
#184=EDGE_CURVE('',#149,#148,#98,.T.);
#185=EDGE_CURVE('',#150,#146,#74,.T.);
#186=EDGE_CURVE('',#151,#150,#99,.T.);
#187=EDGE_CURVE('',#151,#152,#75,.T.);
#188=EDGE_CURVE('',#152,#149,#100,.T.);
#189=EDGE_CURVE('',#153,#148,#101,.T.);
#190=EDGE_CURVE('',#154,#153,#76,.T.);
#191=EDGE_CURVE('',#154,#155,#102,.T.);
#192=EDGE_CURVE('',#155,#147,#77,.T.);
#193=EDGE_CURVE('',#156,#152,#19,.F.);
#194=EDGE_CURVE('',#156,#153,#78,.T.);
#195=EDGE_CURVE('',#150,#155,#103,.T.);
#196=EDGE_CURVE('',#157,#154,#79,.T.);
#197=EDGE_CURVE('',#157,#151,#20,.F.);
#198=EDGE_CURVE('',#156,#157,#80,.T.);
#199=EDGE_CURVE('',#158,#159,#104,.T.);
#200=EDGE_CURVE('',#160,#158,#105,.T.);
#201=EDGE_CURVE('',#161,#160,#81,.T.);
#202=EDGE_CURVE('',#161,#159,#106,.T.);
#203=EDGE_CURVE('',#162,#163,#107,.T.);
#204=EDGE_CURVE('',#163,#161,#108,.T.);
#205=EDGE_CURVE('',#160,#161,#82,.T.);
#206=EDGE_CURVE('',#162,#160,#109,.T.);
#207=EDGE_CURVE('',#159,#164,#83,.T.);
#208=EDGE_CURVE('',#165,#164,#110,.T.);
#209=EDGE_CURVE('',#158,#165,#84,.T.);
#210=EDGE_CURVE('',#166,#165,#111,.T.);
#211=EDGE_CURVE('',#167,#166,#85,.T.);
#212=EDGE_CURVE('',#167,#168,#112,.T.);
#213=EDGE_CURVE('',#168,#162,#86,.T.);
#214=EDGE_CURVE('',#169,#163,#87,.T.);
#215=EDGE_CURVE('',#170,#169,#113,.T.);
#216=EDGE_CURVE('',#170,#171,#88,.T.);
#217=EDGE_CURVE('',#171,#164,#114,.T.);
#218=EDGE_CURVE('',#172,#171,#89,.T.);
#219=EDGE_CURVE('',#172,#166,#21,.F.);
#220=EDGE_CURVE('',#168,#169,#115,.T.);
#221=EDGE_CURVE('',#173,#167,#22,.F.);
#222=EDGE_CURVE('',#173,#170,#90,.T.);
#223=EDGE_CURVE('',#172,#173,#91,.T.);
#224=EDGE_CURVE('',#144,#161,#116,.T.);
#225=ORIENTED_EDGE('',*,*,#174,.T.);
#226=ORIENTED_EDGE('',*,*,#175,.F.);
#227=ORIENTED_EDGE('',*,*,#176,.T.);
#228=ORIENTED_EDGE('',*,*,#177,.T.);
#229=ORIENTED_EDGE('',*,*,#178,.F.);
#230=ORIENTED_EDGE('',*,*,#179,.T.);
#231=ORIENTED_EDGE('',*,*,#180,.T.);
#232=ORIENTED_EDGE('',*,*,#181,.F.);
#233=ORIENTED_EDGE('',*,*,#182,.F.);
#234=ORIENTED_EDGE('',*,*,#174,.F.);
#235=ORIENTED_EDGE('',*,*,#183,.T.);
#236=ORIENTED_EDGE('',*,*,#184,.T.);
#237=ORIENTED_EDGE('',*,*,#179,.F.);
#238=ORIENTED_EDGE('',*,*,#185,.F.);
#239=ORIENTED_EDGE('',*,*,#186,.F.);
#240=ORIENTED_EDGE('',*,*,#187,.T.);
#241=ORIENTED_EDGE('',*,*,#188,.T.);
#242=ORIENTED_EDGE('',*,*,#183,.F.);
#243=ORIENTED_EDGE('',*,*,#177,.F.);
#244=ORIENTED_EDGE('',*,*,#181,.T.);
#245=ORIENTED_EDGE('',*,*,#175,.T.);
#246=ORIENTED_EDGE('',*,*,#182,.T.);
#247=ORIENTED_EDGE('',*,*,#189,.F.);
#248=ORIENTED_EDGE('',*,*,#190,.F.);
#249=ORIENTED_EDGE('',*,*,#191,.T.);
#250=ORIENTED_EDGE('',*,*,#192,.T.);
#251=ORIENTED_EDGE('',*,*,#188,.F.);
#252=ORIENTED_EDGE('',*,*,#193,.F.);
#253=ORIENTED_EDGE('',*,*,#194,.T.);
#254=ORIENTED_EDGE('',*,*,#189,.T.);
#255=ORIENTED_EDGE('',*,*,#184,.F.);
#256=ORIENTED_EDGE('',*,*,#192,.F.);
#257=ORIENTED_EDGE('',*,*,#195,.F.);
#258=ORIENTED_EDGE('',*,*,#185,.T.);
#259=ORIENTED_EDGE('',*,*,#178,.T.);
#260=ORIENTED_EDGE('',*,*,#186,.T.);
#261=ORIENTED_EDGE('',*,*,#195,.T.);
#262=ORIENTED_EDGE('',*,*,#191,.F.);
#263=ORIENTED_EDGE('',*,*,#196,.F.);
#264=ORIENTED_EDGE('',*,*,#197,.T.);
#265=ORIENTED_EDGE('',*,*,#187,.F.);
#266=ORIENTED_EDGE('',*,*,#197,.F.);
#267=ORIENTED_EDGE('',*,*,#198,.F.);
#268=ORIENTED_EDGE('',*,*,#193,.T.);
#269=ORIENTED_EDGE('',*,*,#198,.T.);
#270=ORIENTED_EDGE('',*,*,#196,.T.);
#271=ORIENTED_EDGE('',*,*,#190,.T.);
#272=ORIENTED_EDGE('',*,*,#194,.F.);
#273=ORIENTED_EDGE('',*,*,#199,.F.);
#274=ORIENTED_EDGE('',*,*,#200,.F.);
#275=ORIENTED_EDGE('',*,*,#201,.F.);
#276=ORIENTED_EDGE('',*,*,#202,.T.);
#277=ORIENTED_EDGE('',*,*,#203,.T.);
#278=ORIENTED_EDGE('',*,*,#204,.T.);
#279=ORIENTED_EDGE('',*,*,#205,.F.);
#280=ORIENTED_EDGE('',*,*,#206,.F.);
#281=ORIENTED_EDGE('',*,*,#207,.T.);
#282=ORIENTED_EDGE('',*,*,#208,.F.);
#283=ORIENTED_EDGE('',*,*,#209,.F.);
#284=ORIENTED_EDGE('',*,*,#199,.T.);
#285=ORIENTED_EDGE('',*,*,#206,.T.);
#286=ORIENTED_EDGE('',*,*,#200,.T.);
#287=ORIENTED_EDGE('',*,*,#209,.T.);
#288=ORIENTED_EDGE('',*,*,#210,.F.);
#289=ORIENTED_EDGE('',*,*,#211,.F.);
#290=ORIENTED_EDGE('',*,*,#212,.T.);
#291=ORIENTED_EDGE('',*,*,#213,.T.);
#292=ORIENTED_EDGE('',*,*,#204,.F.);
#293=ORIENTED_EDGE('',*,*,#214,.F.);
#294=ORIENTED_EDGE('',*,*,#215,.F.);
#295=ORIENTED_EDGE('',*,*,#216,.T.);
#296=ORIENTED_EDGE('',*,*,#217,.T.);
#297=ORIENTED_EDGE('',*,*,#207,.F.);
#298=ORIENTED_EDGE('',*,*,#202,.F.);
#299=ORIENTED_EDGE('',*,*,#210,.T.);
#300=ORIENTED_EDGE('',*,*,#208,.T.);
#301=ORIENTED_EDGE('',*,*,#217,.F.);
#302=ORIENTED_EDGE('',*,*,#218,.F.);
#303=ORIENTED_EDGE('',*,*,#219,.T.);
#304=ORIENTED_EDGE('',*,*,#214,.T.);
#305=ORIENTED_EDGE('',*,*,#203,.F.);
#306=ORIENTED_EDGE('',*,*,#213,.F.);
#307=ORIENTED_EDGE('',*,*,#220,.T.);
#308=ORIENTED_EDGE('',*,*,#212,.F.);
#309=ORIENTED_EDGE('',*,*,#221,.F.);
#310=ORIENTED_EDGE('',*,*,#222,.T.);
#311=ORIENTED_EDGE('',*,*,#215,.T.);
#312=ORIENTED_EDGE('',*,*,#220,.F.);
#313=ORIENTED_EDGE('',*,*,#211,.T.);
#314=ORIENTED_EDGE('',*,*,#219,.F.);
#315=ORIENTED_EDGE('',*,*,#223,.T.);
#316=ORIENTED_EDGE('',*,*,#221,.T.);
#317=ORIENTED_EDGE('',*,*,#223,.F.);
#318=ORIENTED_EDGE('',*,*,#218,.T.);
#319=ORIENTED_EDGE('',*,*,#216,.F.);
#320=ORIENTED_EDGE('',*,*,#222,.F.);
#321=ORIENTED_EDGE('',*,*,#176,.F.);
#322=ORIENTED_EDGE('',*,*,#224,.T.);
#323=ORIENTED_EDGE('',*,*,#201,.T.);
#324=ORIENTED_EDGE('',*,*,#205,.T.);
#325=ORIENTED_EDGE('',*,*,#224,.F.);
#326=ORIENTED_EDGE('',*,*,#180,.F.);
#327=PLANE('',#374);
#328=PLANE('',#376);
#329=PLANE('',#381);
#330=PLANE('',#384);
#331=PLANE('',#387);
#332=PLANE('',#390);
#333=PLANE('',#395);
#334=PLANE('',#397);
#335=PLANE('',#402);
#336=PLANE('',#405);
#337=PLANE('',#408);
#338=PLANE('',#411);
#339=ADVANCED_FACE('',(#28),#327,.F.);
#340=ADVANCED_FACE('',(#29),#328,.F.);
#341=ADVANCED_FACE('',(#30),#23,.T.);
#342=ADVANCED_FACE('',(#31),#329,.F.);
#343=ADVANCED_FACE('',(#32),#330,.T.);
#344=ADVANCED_FACE('',(#33),#331,.F.);
#345=ADVANCED_FACE('',(#34),#24,.T.);
#346=ADVANCED_FACE('',(#35),#332,.T.);
#347=ADVANCED_FACE('',(#36),#17,.F.);
#348=ADVANCED_FACE('',(#37),#15,.F.);
#349=ADVANCED_FACE('',(#38),#333,.F.);
#350=ADVANCED_FACE('',(#39),#334,.F.);
#351=ADVANCED_FACE('',(#40),#25,.T.);
#352=ADVANCED_FACE('',(#41),#335,.T.);
#353=ADVANCED_FACE('',(#42),#336,.F.);
#354=ADVANCED_FACE('',(#43),#337,.T.);
#355=ADVANCED_FACE('',(#44),#26,.T.);
#356=ADVANCED_FACE('',(#45),#338,.F.);
#357=ADVANCED_FACE('',(#46),#18,.F.);
#358=ADVANCED_FACE('',(#47),#16,.F.);
#359=ADVANCED_FACE('',(#48),#27,.T.);
#360=CLOSED_SHELL('',(#339,#340,#341,#342,#343,#344,#345,#346,#347,#348,
#349,#350,#351,#352,#353,#354,#355,#356,#357,#358,#359));
#361=DERIVED_UNIT_ELEMENT(#363,1.);
#362=DERIVED_UNIT_ELEMENT(#676,-3.);
#363=(
MASS_UNIT()
NAMED_UNIT(*)
SI_UNIT(.KILO.,.GRAM.)
);
#364=DERIVED_UNIT((#361,#362));
#365=MEASURE_REPRESENTATION_ITEM('density measure',
POSITIVE_RATIO_MEASURE(7850.),#364);
#366=PROPERTY_DEFINITION_REPRESENTATION(#371,#368);
#367=PROPERTY_DEFINITION_REPRESENTATION(#372,#369);
#368=REPRESENTATION('material name',(#370),#673);
#369=REPRESENTATION('density',(#365),#673);
#370=DESCRIPTIVE_REPRESENTATION_ITEM('\X2\94A2\X0\','\X2\94A2\X0\');
#371=PROPERTY_DEFINITION('material property','material name',#683);
#372=PROPERTY_DEFINITION('material property','density of part',#683);
#373=AXIS2_PLACEMENT_3D('',#530,#417,#418);
#374=AXIS2_PLACEMENT_3D('',#531,#419,#420);
#375=AXIS2_PLACEMENT_3D('',#538,#423,#424);
#376=AXIS2_PLACEMENT_3D('',#540,#426,#427);
#377=AXIS2_PLACEMENT_3D('',#545,#430,#431);
#378=AXIS2_PLACEMENT_3D('',#547,#433,#434);
#379=AXIS2_PLACEMENT_3D('',#549,#435,#436);
#380=AXIS2_PLACEMENT_3D('',#551,#437,#438);
#381=AXIS2_PLACEMENT_3D('',#553,#440,#441);
#382=AXIS2_PLACEMENT_3D('',#555,#442,#443);
#383=AXIS2_PLACEMENT_3D('',#559,#445,#446);
#384=AXIS2_PLACEMENT_3D('',#561,#448,#449);
#385=AXIS2_PLACEMENT_3D('',#565,#451,#452);
#386=AXIS2_PLACEMENT_3D('',#568,#454,#455);
#387=AXIS2_PLACEMENT_3D('',#569,#456,#457);
#388=AXIS2_PLACEMENT_3D('',#581,#458,#459);
#389=AXIS2_PLACEMENT_3D('',#582,#460,#461);
#390=AXIS2_PLACEMENT_3D('',#584,#463,#464);
#391=AXIS2_PLACEMENT_3D('',#586,#465,#466);
#392=AXIS2_PLACEMENT_3D('',#597,#467,#468);
#393=AXIS2_PLACEMENT_3D('',#598,#469,#470);
#394=AXIS2_PLACEMENT_3D('',#599,#471,#472);
#395=AXIS2_PLACEMENT_3D('',#600,#473,#474);
#396=AXIS2_PLACEMENT_3D('',#607,#477,#478);
#397=AXIS2_PLACEMENT_3D('',#609,#480,#481);
#398=AXIS2_PLACEMENT_3D('',#614,#484,#485);
#399=AXIS2_PLACEMENT_3D('',#616,#487,#488);
#400=AXIS2_PLACEMENT_3D('',#618,#489,#490);
#401=AXIS2_PLACEMENT_3D('',#621,#492,#493);
#402=AXIS2_PLACEMENT_3D('',#622,#494,#495);
#403=AXIS2_PLACEMENT_3D('',#626,#497,#498);
#404=AXIS2_PLACEMENT_3D('',#629,#500,#501);
#405=AXIS2_PLACEMENT_3D('',#630,#502,#503);
#406=AXIS2_PLACEMENT_3D('',#632,#504,#505);
#407=AXIS2_PLACEMENT_3D('',#636,#507,#508);
#408=AXIS2_PLACEMENT_3D('',#638,#510,#511);
#409=AXIS2_PLACEMENT_3D('',#640,#512,#513);
#410=AXIS2_PLACEMENT_3D('',#651,#514,#515);
#411=AXIS2_PLACEMENT_3D('',#653,#517,#518);
#412=AXIS2_PLACEMENT_3D('',#665,#519,#520);
#413=AXIS2_PLACEMENT_3D('',#666,#521,#522);
#414=AXIS2_PLACEMENT_3D('',#667,#523,#524);
#415=AXIS2_PLACEMENT_3D('',#668,#525,#526);
#416=AXIS2_PLACEMENT_3D('',#669,#527,#528);
#417=DIRECTION('axis',(0.,0.,1.));
#418=DIRECTION('refdir',(1.,0.,0.));
#419=DIRECTION('center_axis',(1.,0.,0.));
#420=DIRECTION('ref_axis',(0.,0.,-1.));
#421=DIRECTION('',(0.,-1.,-1.22464679914735E-16));
#422=DIRECTION('',(0.,1.22464679914735E-16,-1.));
#423=DIRECTION('center_axis',(1.,0.,0.));
#424=DIRECTION('ref_axis',(0.,1.,0.));
#425=DIRECTION('',(0.,1.22464679914735E-16,-1.));
#426=DIRECTION('center_axis',(1.,0.,0.));
#427=DIRECTION('ref_axis',(0.,0.,-1.));
#428=DIRECTION('',(0.,-1.,-1.22464679914735E-16));
#429=DIRECTION('',(0.,1.22464679914735E-16,-1.));
#430=DIRECTION('center_axis',(1.,0.,0.));
#431=DIRECTION('ref_axis',(0.,1.,0.));
#432=DIRECTION('',(0.,1.22464679914735E-16,-1.));
#433=DIRECTION('center_axis',(0.,-1.,-1.22464679914735E-16));
#434=DIRECTION('ref_axis',(0.,1.22464679914735E-16,-1.));
#435=DIRECTION('center_axis',(0.,-1.,-1.22464679914735E-16));
#436=DIRECTION('ref_axis',(0.,1.22464679914735E-16,-1.));
#437=DIRECTION('center_axis',(0.,-1.,-1.22464679914735E-16));
#438=DIRECTION('ref_axis',(0.,1.22464679914735E-16,-1.));
#439=DIRECTION('',(0.,-1.,-1.22464679914735E-16));
#440=DIRECTION('center_axis',(0.,-1.,-1.22464679914735E-16));
#441=DIRECTION('ref_axis',(0.,1.22464679914735E-16,-1.));
#442=DIRECTION('center_axis',(0.,-1.,-1.22464679914735E-16));
#443=DIRECTION('ref_axis',(0.,1.22464679914735E-16,-1.));
#444=DIRECTION('',(1.,0.,0.));
#445=DIRECTION('center_axis',(0.,-1.,-1.22464679914735E-16));
#446=DIRECTION('ref_axis',(0.,1.22464679914735E-16,-1.));
#447=DIRECTION('',(1.,0.,0.));
#448=DIRECTION('center_axis',(0.,-1.,-1.22464679914735E-16));
#449=DIRECTION('ref_axis',(0.,1.22464679914735E-16,-1.));
#450=DIRECTION('',(1.,0.,0.));
#451=DIRECTION('center_axis',(0.,-1.,-1.22464679914735E-16));
#452=DIRECTION('ref_axis',(0.,1.22464679914735E-16,-1.));
#453=DIRECTION('',(1.,0.,0.));
#454=DIRECTION('center_axis',(0.,-1.,-1.22464679914735E-16));
#455=DIRECTION('ref_axis',(0.,1.22464679914735E-16,-1.));
#456=DIRECTION('center_axis',(0.,1.22464679914735E-16,-1.));
#457=DIRECTION('ref_axis',(0.,-1.,-1.22464679914735E-16));
#458=DIRECTION('center_axis',(0.,1.22464679914735E-16,-1.));
#459=DIRECTION('ref_axis',(0.,-1.,-1.22464679914735E-16));
#460=DIRECTION('center_axis',(0.,-1.,-1.22464679914735E-16));
#461=DIRECTION('ref_axis',(0.186754434810559,-1.20310113140685E-16,0.982406627155267));
#462=DIRECTION('',(0.,-1.,-1.22464679914735E-16));
#463=DIRECTION('center_axis',(0.,1.22464679914735E-16,-1.));
#464=DIRECTION('ref_axis',(0.,-1.,-1.22464679914735E-16));
#465=DIRECTION('center_axis',(0.,1.22464679914735E-16,-1.));
#466=DIRECTION('ref_axis',(0.,-1.,-1.22464679914735E-16));
#467=DIRECTION('center_axis',(0.,1.,1.22464679914735E-16));
#468=DIRECTION('ref_axis',(-1.,-1.33977735261721E-31,1.04899068466779E-15));
#469=DIRECTION('center_axis',(0.,1.,1.22464679914735E-16));
#470=DIRECTION('ref_axis',(1.,0.,0.));
#471=DIRECTION('center_axis',(0.,-1.,-1.2227252965258E-16));
#472=DIRECTION('ref_axis',(-0.999995076302943,-3.84300524311503E-19,0.00313805192304472));
#473=DIRECTION('center_axis',(-1.,0.,0.));
#474=DIRECTION('ref_axis',(0.,0.,1.));
#475=DIRECTION('',(0.,-1.,-1.22464679914735E-16));
#476=DIRECTION('',(0.,1.22464679914735E-16,-1.));
#477=DIRECTION('center_axis',(1.,0.,0.));
#478=DIRECTION('ref_axis',(0.,1.,0.));
#479=DIRECTION('',(0.,1.22464679914735E-16,-1.));
#480=DIRECTION('center_axis',(-1.,0.,0.));
#481=DIRECTION('ref_axis',(0.,0.,1.));
#482=DIRECTION('',(0.,-1.,-1.22464679914735E-16));
#483=DIRECTION('',(0.,1.22464679914735E-16,-1.));
#484=DIRECTION('center_axis',(1.,0.,0.));
#485=DIRECTION('ref_axis',(0.,1.,0.));
#486=DIRECTION('',(0.,1.22464679914735E-16,-1.));
#487=DIRECTION('center_axis',(0.,1.,1.22464679914735E-16));
#488=DIRECTION('ref_axis',(0.,1.22464679914735E-16,-1.));
#489=DIRECTION('center_axis',(0.,1.,1.22464679914735E-16));
#490=DIRECTION('ref_axis',(0.,1.22464679914735E-16,-1.));
#491=DIRECTION('',(0.,-1.,-1.22464679914735E-16));
#492=DIRECTION('center_axis',(0.,1.,1.22464679914735E-16));
#493=DIRECTION('ref_axis',(0.,1.22464679914735E-16,-1.));
#494=DIRECTION('center_axis',(0.,1.,1.22464679914735E-16));
#495=DIRECTION('ref_axis',(0.,1.22464679914735E-16,-1.));
#496=DIRECTION('',(-1.,0.,0.));
#497=DIRECTION('center_axis',(0.,1.,1.22464679914735E-16));
#498=DIRECTION('ref_axis',(0.,1.22464679914735E-16,-1.));
#499=DIRECTION('',(-1.,0.,0.));
#500=DIRECTION('center_axis',(0.,1.,1.22464679914735E-16));
#501=DIRECTION('ref_axis',(0.,1.22464679914735E-16,-1.));
#502=DIRECTION('center_axis',(0.,1.,1.22464679914735E-16));
#503=DIRECTION('ref_axis',(0.,1.22464679914735E-16,-1.));
#504=DIRECTION('center_axis',(0.,1.,1.22464679914735E-16));
#505=DIRECTION('ref_axis',(0.,1.22464679914735E-16,-1.));
#506=DIRECTION('',(-1.,0.,0.));
#507=DIRECTION('center_axis',(0.,1.,1.22464679914735E-16));
#508=DIRECTION('ref_axis',(0.,1.22464679914735E-16,-1.));
#509=DIRECTION('',(-1.,0.,0.));
#510=DIRECTION('center_axis',(0.,-1.22464679914735E-16,1.));
#511=DIRECTION('ref_axis',(0.,-1.,-1.22464679914735E-16));
#512=DIRECTION('center_axis',(0.,-1.22464679914735E-16,1.));
#513=DIRECTION('ref_axis',(0.,-1.,-1.22464679914735E-16));
#514=DIRECTION('center_axis',(0.,1.,1.22464679914735E-16));
#515=DIRECTION('ref_axis',(-0.186754434810559,-1.20310113140685E-16,0.982406627155267));
#516=DIRECTION('',(0.,-1.,-1.22464679914735E-16));
#517=DIRECTION('center_axis',(0.,-1.22464679914735E-16,1.));
#518=DIRECTION('ref_axis',(0.,-1.,-1.22464679914735E-16));
#519=DIRECTION('center_axis',(0.,-1.22464679914735E-16,1.));
#520=DIRECTION('ref_axis',(0.,-1.,-1.22464679914735E-16));
#521=DIRECTION('center_axis',(0.,1.,1.22464679914735E-16));
#522=DIRECTION('ref_axis',(1.,-1.33977735261721E-31,1.04899068466779E-15));
#523=DIRECTION('center_axis',(0.,-1.,-1.22464679914735E-16));
#524=DIRECTION('ref_axis',(-1.,0.,0.));
#525=DIRECTION('center_axis',(0.,-1.,-1.22656830176891E-16));
#526=DIRECTION('ref_axis',(-0.999995076302943,3.84300524311158E-19,-0.00313805192304193));
#527=DIRECTION('center_axis',(1.,0.,0.));
#528=DIRECTION('ref_axis',(0.,1.,0.));
#529=DIRECTION('',(-1.,0.,0.));
#530=CARTESIAN_POINT('',(0.,0.,0.));
#531=CARTESIAN_POINT('Origin',(11.5,2.77555756156289E-16,0.));
#532=CARTESIAN_POINT('',(11.5,1.9,-2.061552812809));
#533=CARTESIAN_POINT('',(11.5,-1.9,-2.061552812809));
#534=CARTESIAN_POINT('',(11.5,1.9,-2.061552812809));
#535=CARTESIAN_POINT('',(11.5,-1.9,-2.32682891837997E-16));
#536=CARTESIAN_POINT('',(11.5,-1.9,2.5));
#537=CARTESIAN_POINT('',(11.5,1.9,0.));
#538=CARTESIAN_POINT('Origin',(11.5,0.,0.));
#539=CARTESIAN_POINT('',(11.5,1.9,2.5));
#540=CARTESIAN_POINT('Origin',(11.5,2.77555756156289E-16,0.));
#541=CARTESIAN_POINT('',(11.5,1.9,2.061552812809));
#542=CARTESIAN_POINT('',(11.5,-1.9,2.061552812809));
#543=CARTESIAN_POINT('',(11.5,1.9,2.061552812809));
#544=CARTESIAN_POINT('',(11.5,1.9,2.5));
#545=CARTESIAN_POINT('Origin',(11.5,0.,0.));
#546=CARTESIAN_POINT('',(11.5,-1.9,2.5));
#547=CARTESIAN_POINT('Origin',(15.5,1.9,0.));
#548=CARTESIAN_POINT('',(19.97744346698,-1.9,-0.450000000000004));
#549=CARTESIAN_POINT('Origin',(15.5,-1.9,0.));
#550=CARTESIAN_POINT('',(19.97744346698,1.9,-0.450000000000004));
#551=CARTESIAN_POINT('Origin',(15.5,1.9,0.));
#552=CARTESIAN_POINT('',(19.97744346698,1.9,-0.450000000000004));
#553=CARTESIAN_POINT('Origin',(15.5,1.9,0.));
#554=CARTESIAN_POINT('',(19.97744346698,1.9,0.449999999999999));
#555=CARTESIAN_POINT('Origin',(15.5,1.9,0.));
#556=CARTESIAN_POINT('',(17.750150014222,1.9,0.449999999999999));
#557=CARTESIAN_POINT('',(15.5,1.9,0.449999999999999));
#558=CARTESIAN_POINT('',(17.750150014222,1.9,-0.450000000000004));
#559=CARTESIAN_POINT('Origin',(15.5,1.9,0.));
#560=CARTESIAN_POINT('',(15.5,1.9,-0.450000000000004));
#561=CARTESIAN_POINT('Origin',(15.5,-1.9,0.));
#562=CARTESIAN_POINT('',(17.140121946686,-1.9,-0.450000000000004));
#563=CARTESIAN_POINT('',(15.5,-1.9,-0.450000000000004));
#564=CARTESIAN_POINT('',(17.140121946686,-1.9,0.449999999999999));
#565=CARTESIAN_POINT('Origin',(15.5,-1.9,0.));
#566=CARTESIAN_POINT('',(19.97744346698,-1.9,0.449999999999999));
#567=CARTESIAN_POINT('',(15.5,-1.9,0.449999999999999));
#568=CARTESIAN_POINT('Origin',(15.5,-1.9,0.));
#569=CARTESIAN_POINT('Origin',(15.5,2.,-0.450000000000004));
#570=CARTESIAN_POINT('',(17.52474043983,1.483383346043,-0.450000000000004));
#571=CARTESIAN_POINT('Ctrl Pts',(17.7501500142217,1.90000000000015,-0.450000000000004));
#572=CARTESIAN_POINT('Ctrl Pts',(17.7159140576433,1.8365877266954,-0.450000000000004));
#573=CARTESIAN_POINT('Ctrl Pts',(17.6830554102159,1.77578210055205,-0.450000000000004));
#574=CARTESIAN_POINT('Ctrl Pts',(17.6514183007596,1.71728894886788,-0.450000000000004));
#575=CARTESIAN_POINT('Ctrl Pts',(17.6180433627525,1.6555827644267,-0.450000000000004));
#576=CARTESIAN_POINT('Ctrl Pts',(17.5860279652227,1.59645030432532,-0.450000000000004));
#577=CARTESIAN_POINT('Ctrl Pts',(17.5552163835614,1.53959749579119,-0.450000000000004));
#578=CARTESIAN_POINT('Ctrl Pts',(17.5449249647223,1.52060801088769,-0.450000000000004));
#579=CARTESIAN_POINT('Ctrl Pts',(17.5347680544663,1.50187324228255,-0.450000000000004));
#580=CARTESIAN_POINT('Ctrl Pts',(17.5247404398293,1.4833833460434,-0.450000000000004));
#581=CARTESIAN_POINT('Origin',(15.5,0.,-0.450000000000004));
#582=CARTESIAN_POINT('Origin',(15.5,1.9,0.));
#583=CARTESIAN_POINT('',(19.97744346698,1.9,0.449999999999999));
#584=CARTESIAN_POINT('Origin',(15.5,2.,0.449999999999999));
#585=CARTESIAN_POINT('',(17.52474043983,1.483383346043,0.449999999999999));
#586=CARTESIAN_POINT('Origin',(15.5,0.,0.449999999999999));
#587=CARTESIAN_POINT('Ctrl Pts',(17.7501500142217,1.90000000000015,0.449999999999999));
#588=CARTESIAN_POINT('Ctrl Pts',(17.7159140576433,1.8365877266954,0.449999999999999));
#589=CARTESIAN_POINT('Ctrl Pts',(17.6830554102159,1.77578210055205,0.449999999999999));
#590=CARTESIAN_POINT('Ctrl Pts',(17.6514183007596,1.71728894886788,0.449999999999999));
#591=CARTESIAN_POINT('Ctrl Pts',(17.6180433627525,1.6555827644267,0.449999999999999));
#592=CARTESIAN_POINT('Ctrl Pts',(17.5860279652227,1.59645030432532,0.449999999999999));
#593=CARTESIAN_POINT('Ctrl Pts',(17.5552163835614,1.53959749579119,0.449999999999999));
#594=CARTESIAN_POINT('Ctrl Pts',(17.5449249647223,1.52060801088769,0.449999999999999));
#595=CARTESIAN_POINT('Ctrl Pts',(17.5347680544663,1.50187324228255,0.449999999999999));
#596=CARTESIAN_POINT('Ctrl Pts',(17.5247404398293,1.4833833460434,0.449999999999999));
#597=CARTESIAN_POINT('Origin',(15.5,1.91,0.));
#598=CARTESIAN_POINT('Origin',(15.5,1.483383346043,0.));
#599=CARTESIAN_POINT('Origin',(15.5,0.,0.));
#600=CARTESIAN_POINT('Origin',(-11.5,2.77555756156289E-16,0.));
#601=CARTESIAN_POINT('',(-11.5,1.9,-2.061552812809));
#602=CARTESIAN_POINT('',(-11.5,-1.9,-2.061552812809));
#603=CARTESIAN_POINT('',(-11.5,1.9,-2.061552812809));
#604=CARTESIAN_POINT('',(-11.5,1.9,0.));
#605=CARTESIAN_POINT('',(-11.5,1.9,2.5));
#606=CARTESIAN_POINT('',(-11.5,-1.9,-2.32682891837997E-16));
#607=CARTESIAN_POINT('Origin',(-11.5,0.,0.));
#608=CARTESIAN_POINT('',(-11.5,-1.9,2.5));
#609=CARTESIAN_POINT('Origin',(-11.5,2.77555756156289E-16,0.));
#610=CARTESIAN_POINT('',(-11.5,1.9,2.061552812809));
#611=CARTESIAN_POINT('',(-11.5,-1.9,2.061552812809));
#612=CARTESIAN_POINT('',(-11.5,1.9,2.061552812809));
#613=CARTESIAN_POINT('',(-11.5,-1.9,2.5));
#614=CARTESIAN_POINT('Origin',(-11.5,0.,0.));
#615=CARTESIAN_POINT('',(-11.5,1.9,2.5));
#616=CARTESIAN_POINT('Origin',(-15.5,1.9,0.));
#617=CARTESIAN_POINT('',(-19.97744346698,-1.9,-0.450000000000004));
#618=CARTESIAN_POINT('Origin',(-15.5,-1.9,0.));
#619=CARTESIAN_POINT('',(-19.97744346698,1.9,-0.450000000000004));
#620=CARTESIAN_POINT('',(-19.97744346698,1.9,-0.450000000000004));
#621=CARTESIAN_POINT('Origin',(-15.5,1.9,0.));
#622=CARTESIAN_POINT('Origin',(-15.5,1.9,0.));
#623=CARTESIAN_POINT('',(-17.750150014222,1.9,-0.450000000000004));
#624=CARTESIAN_POINT('',(-15.5,1.9,-0.450000000000004));
#625=CARTESIAN_POINT('',(-17.750150014222,1.9,0.449999999999999));
#626=CARTESIAN_POINT('Origin',(-15.5,1.9,0.));
#627=CARTESIAN_POINT('',(-19.97744346698,1.9,0.449999999999999));
#628=CARTESIAN_POINT('',(-15.5,1.9,0.449999999999999));
#629=CARTESIAN_POINT('Origin',(-15.5,1.9,0.));
#630=CARTESIAN_POINT('Origin',(-15.5,-1.9,0.));
#631=CARTESIAN_POINT('',(-19.97744346698,-1.9,0.449999999999999));
#632=CARTESIAN_POINT('Origin',(-15.5,-1.9,0.));
#633=CARTESIAN_POINT('',(-17.140121946686,-1.9,0.449999999999999));
#634=CARTESIAN_POINT('',(-15.5,-1.9,0.449999999999999));
#635=CARTESIAN_POINT('',(-17.140121946686,-1.9,-0.450000000000004));
#636=CARTESIAN_POINT('Origin',(-15.5,-1.9,0.));
#637=CARTESIAN_POINT('',(-15.5,-1.9,-0.450000000000004));
#638=CARTESIAN_POINT('Origin',(-15.5,2.,-0.450000000000004));
#639=CARTESIAN_POINT('',(-17.52474043983,1.483383346043,-0.450000000000004));
#640=CARTESIAN_POINT('Origin',(-15.5,0.,-0.450000000000004));
#641=CARTESIAN_POINT('Ctrl Pts',(-17.7501500142217,1.90000000000015,-0.450000000000004));
#642=CARTESIAN_POINT('Ctrl Pts',(-17.7159140576433,1.8365877266954,-0.450000000000004));
#643=CARTESIAN_POINT('Ctrl Pts',(-17.6830554102159,1.77578210055205,-0.450000000000004));
#644=CARTESIAN_POINT('Ctrl Pts',(-17.6514183007596,1.71728894886788,-0.450000000000004));
#645=CARTESIAN_POINT('Ctrl Pts',(-17.6180433627525,1.6555827644267,-0.450000000000004));
#646=CARTESIAN_POINT('Ctrl Pts',(-17.5860279652227,1.59645030432532,-0.450000000000004));
#647=CARTESIAN_POINT('Ctrl Pts',(-17.5552163835614,1.53959749579119,-0.450000000000004));
#648=CARTESIAN_POINT('Ctrl Pts',(-17.5449249647223,1.52060801088769,-0.450000000000004));
#649=CARTESIAN_POINT('Ctrl Pts',(-17.5347680544663,1.50187324228255,-0.450000000000004));
#650=CARTESIAN_POINT('Ctrl Pts',(-17.5247404398293,1.4833833460434,-0.450000000000004));
#651=CARTESIAN_POINT('Origin',(-15.5,1.9,0.));
#652=CARTESIAN_POINT('',(-19.97744346698,1.9,0.449999999999999));
#653=CARTESIAN_POINT('Origin',(-15.5,2.,0.449999999999999));
#654=CARTESIAN_POINT('',(-17.52474043983,1.483383346043,0.449999999999999));
#655=CARTESIAN_POINT('Ctrl Pts',(-17.7501500142217,1.90000000000015,0.449999999999999));
#656=CARTESIAN_POINT('Ctrl Pts',(-17.7159140576433,1.8365877266954,0.449999999999999));
#657=CARTESIAN_POINT('Ctrl Pts',(-17.6830554102159,1.77578210055205,0.449999999999999));
#658=CARTESIAN_POINT('Ctrl Pts',(-17.6514183007596,1.71728894886788,0.449999999999999));
#659=CARTESIAN_POINT('Ctrl Pts',(-17.6180433627525,1.6555827644267,0.449999999999999));
#660=CARTESIAN_POINT('Ctrl Pts',(-17.5860279652227,1.59645030432532,0.449999999999999));
#661=CARTESIAN_POINT('Ctrl Pts',(-17.5552163835614,1.53959749579119,0.449999999999999));
#662=CARTESIAN_POINT('Ctrl Pts',(-17.5449249647223,1.52060801088769,0.449999999999999));
#663=CARTESIAN_POINT('Ctrl Pts',(-17.5347680544663,1.50187324228255,0.449999999999999));
#664=CARTESIAN_POINT('Ctrl Pts',(-17.5247404398293,1.4833833460434,0.449999999999999));
#665=CARTESIAN_POINT('Origin',(-15.5,0.,0.449999999999999));
#666=CARTESIAN_POINT('Origin',(-15.5,1.91,0.));
#667=CARTESIAN_POINT('Origin',(-15.5,1.483383346043,0.));
#668=CARTESIAN_POINT('Origin',(-15.5,0.,0.));
#669=CARTESIAN_POINT('Origin',(-11.5,0.,0.));
#670=CARTESIAN_POINT('',(-11.5,-1.9,-2.32682891837997E-16));
#671=UNCERTAINTY_MEASURE_WITH_UNIT(LENGTH_MEASURE(0.01),#675,
'DISTANCE_ACCURACY_VALUE',
'Maximum model space distance between geometric entities at asserted c
onnectivities');
#672=UNCERTAINTY_MEASURE_WITH_UNIT(LENGTH_MEASURE(0.01),#675,
'DISTANCE_ACCURACY_VALUE',
'Maximum model space distance between geometric entities at asserted c
onnectivities');
#673=(
GEOMETRIC_REPRESENTATION_CONTEXT(3)
GLOBAL_UNCERTAINTY_ASSIGNED_CONTEXT((#671))
GLOBAL_UNIT_ASSIGNED_CONTEXT((#675,#677,#678))
REPRESENTATION_CONTEXT('','3D')
);
#674=(
GEOMETRIC_REPRESENTATION_CONTEXT(3)
GLOBAL_UNCERTAINTY_ASSIGNED_CONTEXT((#672))
GLOBAL_UNIT_ASSIGNED_CONTEXT((#675,#677,#678))
REPRESENTATION_CONTEXT('','3D')
);
#675=(
LENGTH_UNIT()
NAMED_UNIT(*)
SI_UNIT(.MILLI.,.METRE.)
);
#676=(
LENGTH_UNIT()
NAMED_UNIT(*)
SI_UNIT($,.METRE.)
);
#677=(
NAMED_UNIT(*)
PLANE_ANGLE_UNIT()
SI_UNIT($,.RADIAN.)
);
#678=(
NAMED_UNIT(*)
SI_UNIT($,.STERADIAN.)
SOLID_ANGLE_UNIT()
);
#679=SHAPE_DEFINITION_REPRESENTATION(#680,#681);
#680=PRODUCT_DEFINITION_SHAPE('',$,#683);
#681=SHAPE_REPRESENTATION('',(#373),#673);
#682=PRODUCT_DEFINITION_CONTEXT('part definition',#687,'design');
#683=PRODUCT_DEFINITION('2026-07-14-19-01-29-728',
'\X2\221A\X0\beta\X2\8235673A62C96746FF08\X0\Phi3.8 L23\X2\FF09\X0\',#684,
#682);
#684=PRODUCT_DEFINITION_FORMATION('',$,#689);
#685=PRODUCT_RELATED_PRODUCT_CATEGORY(
'\X2\221A\X0\beta\X2\8235673A62C96746FF08\X0\Phi3.8 L23\X2\FF09\X0\',
'\X2\221A\X0\beta\X2\8235673A62C96746FF08\X0\Phi3.8 L23\X2\FF09\X0\',(#689));
#686=APPLICATION_PROTOCOL_DEFINITION('international standard',
'automotive_design',2009,#687);
#687=APPLICATION_CONTEXT(
'Core Data for Automotive Mechanical Design Process');
#688=PRODUCT_CONTEXT('part definition',#687,'mechanical');
#689=PRODUCT('2026-07-14-19-01-29-728',
'\X2\221A\X0\beta\X2\8235673A62C96746FF08\X0\Phi3.8 L23\X2\FF09\X0\',$,
(#688));
#690=PRESENTATION_STYLE_ASSIGNMENT((#691));
#691=SURFACE_STYLE_USAGE(.BOTH.,#692);
#692=SURFACE_SIDE_STYLE('',(#693));
#693=SURFACE_STYLE_FILL_AREA(#694);
#694=FILL_AREA_STYLE('\X2\94A2\X0\ - \X2\7F0E5149\X0\',(#695));
#695=FILL_AREA_STYLE_COLOUR('\X2\94A2\X0\ - \X2\7F0E5149\X0\',#696);
#696=COLOUR_RGB('\X2\94A2\X0\ - \X2\7F0E5149\X0\',0.627450980392157,0.627450980392157,
0.627450980392157);
ENDSEC;
END-ISO-10303-21;
