ISO-10303-21;
HEADER;
/* Generated by software containing ST-Developer
 * from STEP Tools, Inc. (www.steptools.com) 
 */

FILE_DESCRIPTION(
/* description */ (''),
/* implementation_level */ '2;1');

FILE_NAME(
/* name */ '',
/* time_stamp */ '2026-08-11T12:24:15+09:00',
/* author */ (''),
/* organization */ (''),
/* preprocessor_version */ 'ST-DEVELOPER v20.1',
/* originating_system */ 'Autodesk Translation Framework v15.8.0.0',
/* authorisation */ '');

FILE_SCHEMA (('AUTOMOTIVE_DESIGN { 1 0 10303 214 3 1 1 }'));
ENDSEC;

DATA;
#10=MECHANICAL_DESIGN_GEOMETRIC_PRESENTATION_REPRESENTATION('',(#13),#757);
#11=SHAPE_REPRESENTATION_RELATIONSHIP('SRR','None',#764,#12);
#12=ADVANCED_BREP_SHAPE_REPRESENTATION('',(#403),#756);
#13=STYLED_ITEM('',(#773),#403);
#14=ORIENTED_CLOSED_SHELL('',*,#402,.F.);
#15=ELLIPSE('',#456,3.5257029107882,3.);
#16=ELLIPSE('',#457,3.5257029107882,3.);
#17=ELLIPSE('',#458,3.5257029107882,3.);
#18=ELLIPSE('',#462,1.46904287949508,1.25);
#19=ELLIPSE('',#463,1.46904287949508,1.25);
#20=ELLIPSE('',#464,1.46904287949508,1.25);
#21=SPHERICAL_SURFACE('',#435,2.55);
#22=SPHERICAL_SURFACE('',#452,2.55);
#23=CONICAL_SURFACE('',#433,2.3,0.486899231811);
#24=CONICAL_SURFACE('',#450,2.3,0.486899231811);
#25=B_SPLINE_CURVE_WITH_KNOTS('',3,(#635,#636,#637,#638,#639,#640,#641,
#642,#643,#644),.UNSPECIFIED.,.F.,.F.,(4,3,3,4),(203.786145584951,212.089496920392,
220.848951903279,223.774709529845),.UNSPECIFIED.);
#26=B_SPLINE_CURVE_WITH_KNOTS('',3,(#651,#652,#653,#654,#655,#656,#657,
#658,#659,#660),.UNSPECIFIED.,.F.,.F.,(4,3,3,4),(203.786145584951,212.089496920392,
220.848951903279,223.774709529845),.UNSPECIFIED.);
#27=B_SPLINE_CURVE_WITH_KNOTS('',3,(#696,#697,#698,#699,#700,#701,#702,
#703,#704,#705),.UNSPECIFIED.,.F.,.F.,(4,3,3,4),(203.786145584951,212.089496920392,
220.848951903279,223.774709529845),.UNSPECIFIED.);
#28=B_SPLINE_CURVE_WITH_KNOTS('',3,(#711,#712,#713,#714,#715,#716,#717,
#718,#719,#720),.UNSPECIFIED.,.F.,.F.,(4,3,3,4),(203.786145584951,212.089496920392,
220.848951903279,223.774709529845),.UNSPECIFIED.);
#29=CYLINDRICAL_SURFACE('',#419,4.5);
#30=CYLINDRICAL_SURFACE('',#430,4.5);
#31=CYLINDRICAL_SURFACE('',#436,4.5);
#32=CYLINDRICAL_SURFACE('',#447,4.5);
#33=CYLINDRICAL_SURFACE('',#455,3.);
#34=CYLINDRICAL_SURFACE('',#459,3.);
#35=CYLINDRICAL_SURFACE('',#460,1.25);
#36=CYLINDRICAL_SURFACE('',#465,1.25);
#37=FACE_BOUND('',#112,.T.);
#38=FACE_BOUND('',#130,.T.);
#39=LINE('',#605,#63);
#40=LINE('',#607,#64);
#41=LINE('',#609,#65);
#42=LINE('',#610,#66);
#43=LINE('',#616,#67);
#44=LINE('',#621,#68);
#45=LINE('',#624,#69);
#46=LINE('',#627,#70);
#47=LINE('',#631,#71);
#48=LINE('',#647,#72);
#49=LINE('',#669,#73);
#50=LINE('',#672,#74);
#51=LINE('',#675,#75);
#52=LINE('',#677,#76);
#53=LINE('',#681,#77);
#54=LINE('',#685,#78);
#55=LINE('',#689,#79);
#56=LINE('',#692,#80);
#57=LINE('',#707,#81);
#58=LINE('',#708,#82);
#59=LINE('',#730,#83);
#60=LINE('',#737,#84);
#61=LINE('',#742,#85);
#62=LINE('',#750,#86);
#63=VECTOR('',#475,10.);
#64=VECTOR('',#476,10.);
#65=VECTOR('',#477,10.);
#66=VECTOR('',#478,10.);
#67=VECTOR('',#485,1.);
#68=VECTOR('',#490,1.);
#69=VECTOR('',#493,1.);
#70=VECTOR('',#496,1.);
#71=VECTOR('',#499,1.);
#72=VECTOR('',#508,1.);
#73=VECTOR('',#523,1.);
#74=VECTOR('',#526,10.);
#75=VECTOR('',#529,10.);
#76=VECTOR('',#530,1.);
#77=VECTOR('',#533,1.);
#78=VECTOR('',#538,10.);
#79=VECTOR('',#541,1.);
#80=VECTOR('',#544,1.);
#81=VECTOR('',#551,10.);
#82=VECTOR('',#552,1.);
#83=VECTOR('',#569,3.);
#84=VECTOR('',#578,3.);
#85=VECTOR('',#583,1.25);
#86=VECTOR('',#592,1.25);
#87=FACE_OUTER_BOUND('',#111,.T.);
#88=FACE_OUTER_BOUND('',#113,.T.);
#89=FACE_OUTER_BOUND('',#114,.T.);
#90=FACE_OUTER_BOUND('',#115,.T.);
#91=FACE_OUTER_BOUND('',#116,.T.);
#92=FACE_OUTER_BOUND('',#117,.T.);
#93=FACE_OUTER_BOUND('',#118,.T.);
#94=FACE_OUTER_BOUND('',#119,.T.);
#95=FACE_OUTER_BOUND('',#120,.T.);
#96=FACE_OUTER_BOUND('',#121,.T.);
#97=FACE_OUTER_BOUND('',#122,.T.);
#98=FACE_OUTER_BOUND('',#123,.T.);
#99=FACE_OUTER_BOUND('',#124,.T.);
#100=FACE_OUTER_BOUND('',#125,.T.);
#101=FACE_OUTER_BOUND('',#126,.T.);
#102=FACE_OUTER_BOUND('',#127,.T.);
#103=FACE_OUTER_BOUND('',#128,.T.);
#104=FACE_OUTER_BOUND('',#129,.T.);
#105=FACE_OUTER_BOUND('',#131,.T.);
#106=FACE_OUTER_BOUND('',#132,.T.);
#107=FACE_OUTER_BOUND('',#133,.T.);
#108=FACE_OUTER_BOUND('',#134,.T.);
#109=FACE_OUTER_BOUND('',#135,.T.);
#110=FACE_OUTER_BOUND('',#136,.T.);
#111=EDGE_LOOP('',(#253));
#112=EDGE_LOOP('',(#254,#255,#256,#257));
#113=EDGE_LOOP('',(#258,#259,#260,#261));
#114=EDGE_LOOP('',(#262,#263,#264,#265,#266,#267));
#115=EDGE_LOOP('',(#268,#269,#270,#271,#272,#273));
#116=EDGE_LOOP('',(#274,#275,#276,#277,#278));
#117=EDGE_LOOP('',(#279,#280,#281,#282));
#118=EDGE_LOOP('',(#283,#284,#285,#286,#287));
#119=EDGE_LOOP('',(#288,#289,#290,#291));
#120=EDGE_LOOP('',(#292,#293,#294,#295));
#121=EDGE_LOOP('',(#296,#297,#298,#299));
#122=EDGE_LOOP('',(#300,#301,#302,#303,#304,#305));
#123=EDGE_LOOP('',(#306,#307,#308,#309,#310,#311));
#124=EDGE_LOOP('',(#312,#313,#314,#315,#316));
#125=EDGE_LOOP('',(#317,#318,#319,#320));
#126=EDGE_LOOP('',(#321,#322,#323,#324,#325));
#127=EDGE_LOOP('',(#326,#327,#328,#329));
#128=EDGE_LOOP('',(#330,#331,#332,#333));
#129=EDGE_LOOP('',(#334));
#130=EDGE_LOOP('',(#335,#336,#337,#338));
#131=EDGE_LOOP('',(#339,#340,#341,#342,#343,#344));
#132=EDGE_LOOP('',(#345,#346,#347,#348,#349,#350));
#133=EDGE_LOOP('',(#351,#352,#353,#354,#355,#356));
#134=EDGE_LOOP('',(#357,#358,#359,#360,#361,#362));
#135=EDGE_LOOP('',(#363));
#136=EDGE_LOOP('',(#364));
#137=CIRCLE('',#418,3.);
#138=CIRCLE('',#420,4.5);
#139=CIRCLE('',#421,4.5);
#140=CIRCLE('',#423,4.5);
#141=CIRCLE('',#424,2.294705882353);
#142=CIRCLE('',#426,1.700735135169);
#143=CIRCLE('',#427,4.5);
#144=CIRCLE('',#429,2.509980079602);
#145=CIRCLE('',#432,2.509980079602);
#146=CIRCLE('',#434,2.074144124376);
#147=CIRCLE('',#437,4.5);
#148=CIRCLE('',#438,4.5);
#149=CIRCLE('',#440,2.294705882353);
#150=CIRCLE('',#441,4.5);
#151=CIRCLE('',#443,4.5);
#152=CIRCLE('',#444,1.700735135169);
#153=CIRCLE('',#446,2.509980079602);
#154=CIRCLE('',#449,2.509980079602);
#155=CIRCLE('',#451,2.074144124376);
#156=CIRCLE('',#454,3.);
#157=CIRCLE('',#461,1.25);
#158=CIRCLE('',#466,1.25);
#159=VERTEX_POINT('',#601);
#160=VERTEX_POINT('',#603);
#161=VERTEX_POINT('',#604);
#162=VERTEX_POINT('',#606);
#163=VERTEX_POINT('',#608);
#164=VERTEX_POINT('',#612);
#165=VERTEX_POINT('',#614);
#166=VERTEX_POINT('',#618);
#167=VERTEX_POINT('',#620);
#168=VERTEX_POINT('',#622);
#169=VERTEX_POINT('',#626);
#170=VERTEX_POINT('',#628);
#171=VERTEX_POINT('',#630);
#172=VERTEX_POINT('',#634);
#173=VERTEX_POINT('',#649);
#174=VERTEX_POINT('',#665);
#175=VERTEX_POINT('',#666);
#176=VERTEX_POINT('',#668);
#177=VERTEX_POINT('',#670);
#178=VERTEX_POINT('',#674);
#179=VERTEX_POINT('',#676);
#180=VERTEX_POINT('',#678);
#181=VERTEX_POINT('',#680);
#182=VERTEX_POINT('',#684);
#183=VERTEX_POINT('',#686);
#184=VERTEX_POINT('',#688);
#185=VERTEX_POINT('',#690);
#186=VERTEX_POINT('',#694);
#187=VERTEX_POINT('',#710);
#188=VERTEX_POINT('',#726);
#189=VERTEX_POINT('',#729);
#190=VERTEX_POINT('',#731);
#191=VERTEX_POINT('',#733);
#192=VERTEX_POINT('',#739);
#193=VERTEX_POINT('',#741);
#194=VERTEX_POINT('',#743);
#195=VERTEX_POINT('',#745);
#196=VERTEX_POINT('',#749);
#197=EDGE_CURVE('',#159,#159,#137,.T.);
#198=EDGE_CURVE('',#160,#161,#39,.T.);
#199=EDGE_CURVE('',#161,#162,#40,.T.);
#200=EDGE_CURVE('',#162,#163,#41,.T.);
#201=EDGE_CURVE('',#163,#160,#42,.T.);
#202=EDGE_CURVE('',#161,#164,#138,.T.);
#203=EDGE_CURVE('',#160,#165,#139,.T.);
#204=EDGE_CURVE('',#165,#164,#43,.T.);
#205=EDGE_CURVE('',#166,#163,#140,.T.);
#206=EDGE_CURVE('',#167,#166,#44,.T.);
#207=EDGE_CURVE('',#167,#168,#141,.T.);
#208=EDGE_CURVE('',#168,#165,#45,.T.);
#209=EDGE_CURVE('',#169,#164,#46,.T.);
#210=EDGE_CURVE('',#170,#169,#142,.T.);
#211=EDGE_CURVE('',#170,#171,#47,.T.);
#212=EDGE_CURVE('',#171,#162,#143,.T.);
#213=EDGE_CURVE('',#172,#168,#25,.F.);
#214=EDGE_CURVE('',#172,#169,#144,.T.);
#215=EDGE_CURVE('',#166,#171,#48,.T.);
#216=EDGE_CURVE('',#173,#170,#145,.T.);
#217=EDGE_CURVE('',#173,#167,#26,.F.);
#218=EDGE_CURVE('',#172,#173,#146,.T.);
#219=EDGE_CURVE('',#174,#175,#147,.T.);
#220=EDGE_CURVE('',#176,#175,#49,.T.);
#221=EDGE_CURVE('',#177,#176,#148,.T.);
#222=EDGE_CURVE('',#174,#177,#50,.T.);
#223=EDGE_CURVE('',#177,#178,#51,.T.);
#224=EDGE_CURVE('',#179,#176,#52,.T.);
#225=EDGE_CURVE('',#180,#179,#149,.T.);
#226=EDGE_CURVE('',#180,#181,#53,.T.);
#227=EDGE_CURVE('',#181,#178,#150,.T.);
#228=EDGE_CURVE('',#182,#174,#54,.T.);
#229=EDGE_CURVE('',#183,#182,#151,.T.);
#230=EDGE_CURVE('',#184,#183,#55,.T.);
#231=EDGE_CURVE('',#184,#185,#152,.T.);
#232=EDGE_CURVE('',#185,#175,#56,.T.);
#233=EDGE_CURVE('',#186,#185,#153,.T.);
#234=EDGE_CURVE('',#186,#179,#27,.F.);
#235=EDGE_CURVE('',#178,#182,#57,.T.);
#236=EDGE_CURVE('',#181,#183,#58,.T.);
#237=EDGE_CURVE('',#187,#180,#28,.F.);
#238=EDGE_CURVE('',#187,#184,#154,.T.);
#239=EDGE_CURVE('',#186,#187,#155,.T.);
#240=EDGE_CURVE('',#188,#188,#156,.T.);
#241=EDGE_CURVE('',#188,#189,#59,.T.);
#242=EDGE_CURVE('',#190,#189,#15,.T.);
#243=EDGE_CURVE('',#191,#190,#16,.T.);
#244=EDGE_CURVE('',#189,#191,#17,.T.);
#245=EDGE_CURVE('',#189,#159,#60,.T.);
#246=EDGE_CURVE('',#192,#192,#157,.T.);
#247=EDGE_CURVE('',#192,#193,#61,.T.);
#248=EDGE_CURVE('',#194,#193,#18,.T.);
#249=EDGE_CURVE('',#195,#194,#19,.T.);
#250=EDGE_CURVE('',#193,#195,#20,.T.);
#251=EDGE_CURVE('',#193,#196,#62,.T.);
#252=EDGE_CURVE('',#196,#196,#158,.T.);
#253=ORIENTED_EDGE('',*,*,#197,.F.);
#254=ORIENTED_EDGE('',*,*,#198,.T.);
#255=ORIENTED_EDGE('',*,*,#199,.T.);
#256=ORIENTED_EDGE('',*,*,#200,.T.);
#257=ORIENTED_EDGE('',*,*,#201,.T.);
#258=ORIENTED_EDGE('',*,*,#202,.F.);
#259=ORIENTED_EDGE('',*,*,#198,.F.);
#260=ORIENTED_EDGE('',*,*,#203,.T.);
#261=ORIENTED_EDGE('',*,*,#204,.T.);
#262=ORIENTED_EDGE('',*,*,#201,.F.);
#263=ORIENTED_EDGE('',*,*,#205,.F.);
#264=ORIENTED_EDGE('',*,*,#206,.F.);
#265=ORIENTED_EDGE('',*,*,#207,.T.);
#266=ORIENTED_EDGE('',*,*,#208,.T.);
#267=ORIENTED_EDGE('',*,*,#203,.F.);
#268=ORIENTED_EDGE('',*,*,#199,.F.);
#269=ORIENTED_EDGE('',*,*,#202,.T.);
#270=ORIENTED_EDGE('',*,*,#209,.F.);
#271=ORIENTED_EDGE('',*,*,#210,.F.);
#272=ORIENTED_EDGE('',*,*,#211,.T.);
#273=ORIENTED_EDGE('',*,*,#212,.T.);
#274=ORIENTED_EDGE('',*,*,#208,.F.);
#275=ORIENTED_EDGE('',*,*,#213,.F.);
#276=ORIENTED_EDGE('',*,*,#214,.T.);
#277=ORIENTED_EDGE('',*,*,#209,.T.);
#278=ORIENTED_EDGE('',*,*,#204,.F.);
#279=ORIENTED_EDGE('',*,*,#212,.F.);
#280=ORIENTED_EDGE('',*,*,#215,.F.);
#281=ORIENTED_EDGE('',*,*,#205,.T.);
#282=ORIENTED_EDGE('',*,*,#200,.F.);
#283=ORIENTED_EDGE('',*,*,#206,.T.);
#284=ORIENTED_EDGE('',*,*,#215,.T.);
#285=ORIENTED_EDGE('',*,*,#211,.F.);
#286=ORIENTED_EDGE('',*,*,#216,.F.);
#287=ORIENTED_EDGE('',*,*,#217,.T.);
#288=ORIENTED_EDGE('',*,*,#207,.F.);
#289=ORIENTED_EDGE('',*,*,#217,.F.);
#290=ORIENTED_EDGE('',*,*,#218,.F.);
#291=ORIENTED_EDGE('',*,*,#213,.T.);
#292=ORIENTED_EDGE('',*,*,#218,.T.);
#293=ORIENTED_EDGE('',*,*,#216,.T.);
#294=ORIENTED_EDGE('',*,*,#210,.T.);
#295=ORIENTED_EDGE('',*,*,#214,.F.);
#296=ORIENTED_EDGE('',*,*,#219,.T.);
#297=ORIENTED_EDGE('',*,*,#220,.F.);
#298=ORIENTED_EDGE('',*,*,#221,.F.);
#299=ORIENTED_EDGE('',*,*,#222,.F.);
#300=ORIENTED_EDGE('',*,*,#223,.F.);
#301=ORIENTED_EDGE('',*,*,#221,.T.);
#302=ORIENTED_EDGE('',*,*,#224,.F.);
#303=ORIENTED_EDGE('',*,*,#225,.F.);
#304=ORIENTED_EDGE('',*,*,#226,.T.);
#305=ORIENTED_EDGE('',*,*,#227,.T.);
#306=ORIENTED_EDGE('',*,*,#228,.F.);
#307=ORIENTED_EDGE('',*,*,#229,.F.);
#308=ORIENTED_EDGE('',*,*,#230,.F.);
#309=ORIENTED_EDGE('',*,*,#231,.T.);
#310=ORIENTED_EDGE('',*,*,#232,.T.);
#311=ORIENTED_EDGE('',*,*,#219,.F.);
#312=ORIENTED_EDGE('',*,*,#224,.T.);
#313=ORIENTED_EDGE('',*,*,#220,.T.);
#314=ORIENTED_EDGE('',*,*,#232,.F.);
#315=ORIENTED_EDGE('',*,*,#233,.F.);
#316=ORIENTED_EDGE('',*,*,#234,.T.);
#317=ORIENTED_EDGE('',*,*,#229,.T.);
#318=ORIENTED_EDGE('',*,*,#235,.F.);
#319=ORIENTED_EDGE('',*,*,#227,.F.);
#320=ORIENTED_EDGE('',*,*,#236,.T.);
#321=ORIENTED_EDGE('',*,*,#226,.F.);
#322=ORIENTED_EDGE('',*,*,#237,.F.);
#323=ORIENTED_EDGE('',*,*,#238,.T.);
#324=ORIENTED_EDGE('',*,*,#230,.T.);
#325=ORIENTED_EDGE('',*,*,#236,.F.);
#326=ORIENTED_EDGE('',*,*,#225,.T.);
#327=ORIENTED_EDGE('',*,*,#234,.F.);
#328=ORIENTED_EDGE('',*,*,#239,.T.);
#329=ORIENTED_EDGE('',*,*,#237,.T.);
#330=ORIENTED_EDGE('',*,*,#239,.F.);
#331=ORIENTED_EDGE('',*,*,#233,.T.);
#332=ORIENTED_EDGE('',*,*,#231,.F.);
#333=ORIENTED_EDGE('',*,*,#238,.F.);
#334=ORIENTED_EDGE('',*,*,#240,.T.);
#335=ORIENTED_EDGE('',*,*,#223,.T.);
#336=ORIENTED_EDGE('',*,*,#235,.T.);
#337=ORIENTED_EDGE('',*,*,#228,.T.);
#338=ORIENTED_EDGE('',*,*,#222,.T.);
#339=ORIENTED_EDGE('',*,*,#240,.F.);
#340=ORIENTED_EDGE('',*,*,#241,.T.);
#341=ORIENTED_EDGE('',*,*,#242,.F.);
#342=ORIENTED_EDGE('',*,*,#243,.F.);
#343=ORIENTED_EDGE('',*,*,#244,.F.);
#344=ORIENTED_EDGE('',*,*,#241,.F.);
#345=ORIENTED_EDGE('',*,*,#242,.T.);
#346=ORIENTED_EDGE('',*,*,#245,.T.);
#347=ORIENTED_EDGE('',*,*,#197,.T.);
#348=ORIENTED_EDGE('',*,*,#245,.F.);
#349=ORIENTED_EDGE('',*,*,#244,.T.);
#350=ORIENTED_EDGE('',*,*,#243,.T.);
#351=ORIENTED_EDGE('',*,*,#246,.T.);
#352=ORIENTED_EDGE('',*,*,#247,.T.);
#353=ORIENTED_EDGE('',*,*,#248,.F.);
#354=ORIENTED_EDGE('',*,*,#249,.F.);
#355=ORIENTED_EDGE('',*,*,#250,.F.);
#356=ORIENTED_EDGE('',*,*,#247,.F.);
#357=ORIENTED_EDGE('',*,*,#248,.T.);
#358=ORIENTED_EDGE('',*,*,#251,.T.);
#359=ORIENTED_EDGE('',*,*,#252,.T.);
#360=ORIENTED_EDGE('',*,*,#251,.F.);
#361=ORIENTED_EDGE('',*,*,#250,.T.);
#362=ORIENTED_EDGE('',*,*,#249,.T.);
#363=ORIENTED_EDGE('',*,*,#246,.F.);
#364=ORIENTED_EDGE('',*,*,#252,.F.);
#365=PLANE('',#417);
#366=PLANE('',#422);
#367=PLANE('',#425);
#368=PLANE('',#428);
#369=PLANE('',#431);
#370=PLANE('',#439);
#371=PLANE('',#442);
#372=PLANE('',#445);
#373=PLANE('',#448);
#374=PLANE('',#453);
#375=PLANE('',#467);
#376=PLANE('',#468);
#377=ADVANCED_FACE('',(#87,#37),#365,.F.);
#378=ADVANCED_FACE('',(#88),#29,.T.);
#379=ADVANCED_FACE('',(#89),#366,.F.);
#380=ADVANCED_FACE('',(#90),#367,.T.);
#381=ADVANCED_FACE('',(#91),#368,.F.);
#382=ADVANCED_FACE('',(#92),#30,.T.);
#383=ADVANCED_FACE('',(#93),#369,.T.);
#384=ADVANCED_FACE('',(#94),#23,.F.);
#385=ADVANCED_FACE('',(#95),#21,.F.);
#386=ADVANCED_FACE('',(#96),#31,.T.);
#387=ADVANCED_FACE('',(#97),#370,.T.);
#388=ADVANCED_FACE('',(#98),#371,.F.);
#389=ADVANCED_FACE('',(#99),#372,.T.);
#390=ADVANCED_FACE('',(#100),#32,.T.);
#391=ADVANCED_FACE('',(#101),#373,.F.);
#392=ADVANCED_FACE('',(#102),#24,.F.);
#393=ADVANCED_FACE('',(#103),#22,.F.);
#394=ADVANCED_FACE('',(#104,#38),#374,.T.);
#395=ADVANCED_FACE('',(#105),#33,.T.);
#396=ADVANCED_FACE('',(#106),#34,.T.);
#397=ADVANCED_FACE('',(#107),#35,.F.);
#398=ADVANCED_FACE('',(#108),#36,.F.);
#399=ADVANCED_FACE('',(#109),#375,.T.);
#400=ADVANCED_FACE('',(#110),#376,.F.);
#401=CLOSED_SHELL('',(#377,#378,#379,#380,#381,#382,#383,#384,#385,#386,
#387,#388,#389,#390,#391,#392,#393,#394,#395,#396));
#402=CLOSED_SHELL('',(#397,#398,#399,#400));
#403=BREP_WITH_VOIDS('\X2\5B9E4F53\X0\2',#401,(#14));
#404=DERIVED_UNIT_ELEMENT(#406,1.);
#405=DERIVED_UNIT_ELEMENT(#759,-3.);
#406=(
MASS_UNIT()
NAMED_UNIT(*)
SI_UNIT(.KILO.,.GRAM.)
);
#407=DERIVED_UNIT((#404,#405));
#408=MEASURE_REPRESENTATION_ITEM('density measure',
POSITIVE_RATIO_MEASURE(7850.),#407);
#409=PROPERTY_DEFINITION_REPRESENTATION(#414,#411);
#410=PROPERTY_DEFINITION_REPRESENTATION(#415,#412);
#411=REPRESENTATION('material name',(#413),#756);
#412=REPRESENTATION('density',(#408),#756);
#413=DESCRIPTIVE_REPRESENTATION_ITEM('\X2\94A2\X0\','\X2\94A2\X0\');
#414=PROPERTY_DEFINITION('material property','material name',#766);
#415=PROPERTY_DEFINITION('material property','density of part',#766);
#416=AXIS2_PLACEMENT_3D('',#599,#469,#470);
#417=AXIS2_PLACEMENT_3D('',#600,#471,#472);
#418=AXIS2_PLACEMENT_3D('',#602,#473,#474);
#419=AXIS2_PLACEMENT_3D('',#611,#479,#480);
#420=AXIS2_PLACEMENT_3D('',#613,#481,#482);
#421=AXIS2_PLACEMENT_3D('',#615,#483,#484);
#422=AXIS2_PLACEMENT_3D('',#617,#486,#487);
#423=AXIS2_PLACEMENT_3D('',#619,#488,#489);
#424=AXIS2_PLACEMENT_3D('',#623,#491,#492);
#425=AXIS2_PLACEMENT_3D('',#625,#494,#495);
#426=AXIS2_PLACEMENT_3D('',#629,#497,#498);
#427=AXIS2_PLACEMENT_3D('',#632,#500,#501);
#428=AXIS2_PLACEMENT_3D('',#633,#502,#503);
#429=AXIS2_PLACEMENT_3D('',#645,#504,#505);
#430=AXIS2_PLACEMENT_3D('',#646,#506,#507);
#431=AXIS2_PLACEMENT_3D('',#648,#509,#510);
#432=AXIS2_PLACEMENT_3D('',#650,#511,#512);
#433=AXIS2_PLACEMENT_3D('',#661,#513,#514);
#434=AXIS2_PLACEMENT_3D('',#662,#515,#516);
#435=AXIS2_PLACEMENT_3D('',#663,#517,#518);
#436=AXIS2_PLACEMENT_3D('',#664,#519,#520);
#437=AXIS2_PLACEMENT_3D('',#667,#521,#522);
#438=AXIS2_PLACEMENT_3D('',#671,#524,#525);
#439=AXIS2_PLACEMENT_3D('',#673,#527,#528);
#440=AXIS2_PLACEMENT_3D('',#679,#531,#532);
#441=AXIS2_PLACEMENT_3D('',#682,#534,#535);
#442=AXIS2_PLACEMENT_3D('',#683,#536,#537);
#443=AXIS2_PLACEMENT_3D('',#687,#539,#540);
#444=AXIS2_PLACEMENT_3D('',#691,#542,#543);
#445=AXIS2_PLACEMENT_3D('',#693,#545,#546);
#446=AXIS2_PLACEMENT_3D('',#695,#547,#548);
#447=AXIS2_PLACEMENT_3D('',#706,#549,#550);
#448=AXIS2_PLACEMENT_3D('',#709,#553,#554);
#449=AXIS2_PLACEMENT_3D('',#721,#555,#556);
#450=AXIS2_PLACEMENT_3D('',#722,#557,#558);
#451=AXIS2_PLACEMENT_3D('',#723,#559,#560);
#452=AXIS2_PLACEMENT_3D('',#724,#561,#562);
#453=AXIS2_PLACEMENT_3D('',#725,#563,#564);
#454=AXIS2_PLACEMENT_3D('',#727,#565,#566);
#455=AXIS2_PLACEMENT_3D('',#728,#567,#568);
#456=AXIS2_PLACEMENT_3D('',#732,#570,#571);
#457=AXIS2_PLACEMENT_3D('',#734,#572,#573);
#458=AXIS2_PLACEMENT_3D('',#735,#574,#575);
#459=AXIS2_PLACEMENT_3D('',#736,#576,#577);
#460=AXIS2_PLACEMENT_3D('',#738,#579,#580);
#461=AXIS2_PLACEMENT_3D('',#740,#581,#582);
#462=AXIS2_PLACEMENT_3D('',#744,#584,#585);
#463=AXIS2_PLACEMENT_3D('',#746,#586,#587);
#464=AXIS2_PLACEMENT_3D('',#747,#588,#589);
#465=AXIS2_PLACEMENT_3D('',#748,#590,#591);
#466=AXIS2_PLACEMENT_3D('',#751,#593,#594);
#467=AXIS2_PLACEMENT_3D('',#752,#595,#596);
#468=AXIS2_PLACEMENT_3D('',#753,#597,#598);
#469=DIRECTION('axis',(0.,0.,1.));
#470=DIRECTION('refdir',(1.,0.,0.));
#471=DIRECTION('center_axis',(-0.99768369268154,-0.0680238881373784,0.));
#472=DIRECTION('ref_axis',(0.,0.,1.));
#473=DIRECTION('center_axis',(-0.99768369268154,-0.0680238881373784,0.));
#474=DIRECTION('ref_axis',(0.0680238881373777,-0.99768369268154,0.));
#475=DIRECTION('',(-8.33052368729982E-18,1.22181014080396E-16,-1.));
#476=DIRECTION('',(0.0680238881373785,-0.99768369268154,-1.22464679914735E-16));
#477=DIRECTION('',(8.33052368729982E-18,-1.22181014080396E-16,1.));
#478=DIRECTION('',(-0.0680238881373785,0.99768369268154,1.22464679914735E-16));
#479=DIRECTION('center_axis',(-8.33052368729982E-18,1.22181014080396E-16,
-1.));
#480=DIRECTION('ref_axis',(-0.0680238881373785,0.99768369268154,1.22464679914735E-16));
#481=DIRECTION('center_axis',(-8.33052368729982E-18,1.22181014080396E-16,
-1.));
#482=DIRECTION('ref_axis',(-0.0680238881373785,0.99768369268154,1.22464679914735E-16));
#483=DIRECTION('center_axis',(-8.33052368729982E-18,1.22181014080396E-16,
-1.));
#484=DIRECTION('ref_axis',(-0.0680238881373785,0.99768369268154,1.22464679914735E-16));
#485=DIRECTION('',(-8.33052368729982E-18,1.22181014080396E-16,-1.));
#486=DIRECTION('center_axis',(-8.33052368729982E-18,1.22181014080396E-16,
-1.));
#487=DIRECTION('ref_axis',(-0.0680238881373785,0.99768369268154,1.22464679914735E-16));
#488=DIRECTION('center_axis',(-8.33052368729982E-18,1.22181014080396E-16,
-1.));
#489=DIRECTION('ref_axis',(-0.0680238881373785,0.99768369268154,1.22464679914735E-16));
#490=DIRECTION('',(0.99768369268154,0.0680238881373785,0.));
#491=DIRECTION('center_axis',(-8.33052368729982E-18,1.22181014080396E-16,
-1.));
#492=DIRECTION('ref_axis',(-0.0680238881373785,0.99768369268154,1.22464679914735E-16));
#493=DIRECTION('',(0.99768369268154,0.0680238881373785,0.));
#494=DIRECTION('center_axis',(-8.33052368729982E-18,1.22181014080396E-16,
-1.));
#495=DIRECTION('ref_axis',(-0.0680238881373785,0.99768369268154,1.22464679914735E-16));
#496=DIRECTION('',(0.99768369268154,0.0680238881373785,0.));
#497=DIRECTION('center_axis',(-8.33052368729982E-18,1.22181014080396E-16,
-1.));
#498=DIRECTION('ref_axis',(-0.0680238881373785,0.99768369268154,1.22464679914735E-16));
#499=DIRECTION('',(0.99768369268154,0.0680238881373785,0.));
#500=DIRECTION('center_axis',(-8.33052368729982E-18,1.22181014080396E-16,
-1.));
#501=DIRECTION('ref_axis',(-0.0680238881373785,0.99768369268154,1.22464679914735E-16));
#502=DIRECTION('center_axis',(-0.0680238881373785,0.99768369268154,1.22464679914735E-16));
#503=DIRECTION('ref_axis',(-8.33052368729982E-18,1.22181014080396E-16,-1.));
#504=DIRECTION('center_axis',(-0.0680238881373785,0.99768369268154,1.22464679914735E-16));
#505=DIRECTION('ref_axis',(-8.33052368729982E-18,1.22181014080396E-16,-1.));
#506=DIRECTION('center_axis',(-8.33052368729982E-18,1.22181014080396E-16,
-1.));
#507=DIRECTION('ref_axis',(0.253148972657465,-0.967427308712376,-1.20310113140685E-16));
#508=DIRECTION('',(-8.33052368729982E-18,1.22181014080396E-16,-1.));
#509=DIRECTION('center_axis',(-0.0680238881373785,0.99768369268154,1.22464679914735E-16));
#510=DIRECTION('ref_axis',(-8.33052368729982E-18,1.22181014080396E-16,-1.));
#511=DIRECTION('center_axis',(-0.0680238881373785,0.99768369268154,1.22464679914735E-16));
#512=DIRECTION('ref_axis',(-8.33052368729982E-18,1.22181014080396E-16,-1.));
#513=DIRECTION('center_axis',(8.33052368729982E-18,-1.22181014080396E-16,
1.));
#514=DIRECTION('ref_axis',(-0.99768369268154,-0.0680238881373798,-1.60773282314065E-31));
#515=DIRECTION('center_axis',(8.33052368729982E-18,-1.22181014080396E-16,
1.));
#516=DIRECTION('ref_axis',(0.99768369268154,0.0680238881373785,0.));
#517=DIRECTION('center_axis',(0.,1.08845394571094E-16,-1.));
#518=DIRECTION('ref_axis',(-0.997465317896296,-0.0711543364387713,-3.84300524311577E-19));
#519=DIRECTION('center_axis',(-1.0549894945035E-16,-6.21897860704727E-17,
1.));
#520=DIRECTION('ref_axis',(0.861464297492159,0.507818140820452,1.22464679914735E-16));
#521=DIRECTION('center_axis',(-1.0549894945035E-16,-6.21897860704727E-17,
1.));
#522=DIRECTION('ref_axis',(0.861464297492159,0.507818140820452,1.22464679914735E-16));
#523=DIRECTION('',(1.0549894945035E-16,6.21897860704727E-17,-1.));
#524=DIRECTION('center_axis',(-1.0549894945035E-16,-6.21897860704727E-17,
1.));
#525=DIRECTION('ref_axis',(0.861464297492159,0.507818140820452,1.22464679914735E-16));
#526=DIRECTION('',(-1.0549894945035E-16,-6.21897860704727E-17,1.));
#527=DIRECTION('center_axis',(-1.0549894945035E-16,-6.21897860704727E-17,
1.));
#528=DIRECTION('ref_axis',(0.861464297492159,0.507818140820452,1.22464679914735E-16));
#529=DIRECTION('',(-0.861464297492159,-0.507818140820452,-1.22464679914735E-16));
#530=DIRECTION('',(-0.507818140820452,0.861464297492159,0.));
#531=DIRECTION('center_axis',(-1.0549894945035E-16,-6.21897860704727E-17,
1.));
#532=DIRECTION('ref_axis',(0.861464297492159,0.507818140820452,1.22464679914735E-16));
#533=DIRECTION('',(-0.507818140820452,0.861464297492159,0.));
#534=DIRECTION('center_axis',(-1.0549894945035E-16,-6.21897860704727E-17,
1.));
#535=DIRECTION('ref_axis',(0.861464297492159,0.507818140820452,1.22464679914735E-16));
#536=DIRECTION('center_axis',(-1.0549894945035E-16,-6.21897860704727E-17,
1.));
#537=DIRECTION('ref_axis',(0.861464297492159,0.507818140820452,1.22464679914735E-16));
#538=DIRECTION('',(0.861464297492159,0.507818140820452,1.22464679914735E-16));
#539=DIRECTION('center_axis',(-1.0549894945035E-16,-6.21897860704727E-17,
1.));
#540=DIRECTION('ref_axis',(0.861464297492159,0.507818140820452,1.22464679914735E-16));
#541=DIRECTION('',(-0.507818140820452,0.861464297492159,0.));
#542=DIRECTION('center_axis',(-1.0549894945035E-16,-6.21897860704727E-17,
1.));
#543=DIRECTION('ref_axis',(0.861464297492159,0.507818140820452,1.22464679914735E-16));
#544=DIRECTION('',(-0.507818140820452,0.861464297492159,0.));
#545=DIRECTION('center_axis',(-0.861464297492159,-0.507818140820452,-1.22464679914735E-16));
#546=DIRECTION('ref_axis',(1.0549894945035E-16,6.21897860704727E-17,-1.));
#547=DIRECTION('center_axis',(-0.861464297492159,-0.507818140820452,-1.22464679914735E-16));
#548=DIRECTION('ref_axis',(1.0549894945035E-16,6.21897860704727E-17,-1.));
#549=DIRECTION('center_axis',(-1.0549894945035E-16,-6.21897860704727E-17,
1.));
#550=DIRECTION('ref_axis',(-0.941145524789421,-0.338001628944072,-1.20310113140685E-16));
#551=DIRECTION('',(1.0549894945035E-16,6.21897860704727E-17,-1.));
#552=DIRECTION('',(1.0549894945035E-16,6.21897860704727E-17,-1.));
#553=DIRECTION('center_axis',(-0.861464297492159,-0.507818140820452,-1.22464679914735E-16));
#554=DIRECTION('ref_axis',(1.0549894945035E-16,6.21897860704727E-17,-1.));
#555=DIRECTION('center_axis',(-0.861464297492159,-0.507818140820452,-1.22464679914735E-16));
#556=DIRECTION('ref_axis',(1.0549894945035E-16,6.21897860704727E-17,-1.));
#557=DIRECTION('center_axis',(-1.0549894945035E-16,-6.21897860704727E-17,
1.));
#558=DIRECTION('ref_axis',(0.507818140820451,-0.86146429749216,-1.33977735261721E-31));
#559=DIRECTION('center_axis',(1.0549894945035E-16,6.21897860704727E-17,
-1.));
#560=DIRECTION('ref_axis',(-0.507818140820452,0.861464297492159,0.));
#561=DIRECTION('center_axis',(0.,0.,-1.));
#562=DIRECTION('ref_axis',(-0.505112320782388,0.863053615596291,3.8430052431138E-19));
#563=DIRECTION('center_axis',(-0.507818140820452,0.861464297492159,0.));
#564=DIRECTION('ref_axis',(0.,0.,1.));
#565=DIRECTION('center_axis',(-0.507818140820452,0.861464297492159,0.));
#566=DIRECTION('ref_axis',(-0.861464297492159,-0.507818140820452,0.));
#567=DIRECTION('center_axis',(-0.507818140820452,0.861464297492159,0.));
#568=DIRECTION('ref_axis',(-0.861464297492159,-0.507818140820452,0.));
#569=DIRECTION('',(0.507818140820452,-0.861464297492159,0.));
#570=DIRECTION('center_axis',(0.884658699429157,-0.466239193466521,0.));
#571=DIRECTION('ref_axis',(-0.466239193466521,-0.884658699429157,0.));
#572=DIRECTION('center_axis',(0.884658699429157,-0.466239193466521,0.));
#573=DIRECTION('ref_axis',(-0.466239193466522,-0.884658699429157,0.));
#574=DIRECTION('center_axis',(0.884658699429157,-0.466239193466521,0.));
#575=DIRECTION('ref_axis',(-0.466239193466521,-0.884658699429157,0.));
#576=DIRECTION('center_axis',(-0.99768369268154,-0.0680238881373784,0.));
#577=DIRECTION('ref_axis',(0.0680238881373784,-0.99768369268154,0.));
#578=DIRECTION('',(0.99768369268154,0.0680238881373784,0.));
#579=DIRECTION('center_axis',(0.507818140820452,-0.861464297492159,0.));
#580=DIRECTION('ref_axis',(0.861464297492159,0.507818140820452,0.));
#581=DIRECTION('center_axis',(-0.507818140820452,0.861464297492159,0.));
#582=DIRECTION('ref_axis',(0.861464297492159,0.507818140820452,0.));
#583=DIRECTION('',(0.507818140820452,-0.861464297492159,0.));
#584=DIRECTION('center_axis',(-0.884658699429157,0.466239193466521,0.));
#585=DIRECTION('ref_axis',(0.466239193466521,0.884658699429157,0.));
#586=DIRECTION('center_axis',(-0.884658699429157,0.466239193466521,0.));
#587=DIRECTION('ref_axis',(0.466239193466521,0.884658699429157,0.));
#588=DIRECTION('center_axis',(-0.884658699429157,0.466239193466521,0.));
#589=DIRECTION('ref_axis',(0.466239193466521,0.884658699429157,0.));
#590=DIRECTION('center_axis',(0.99768369268154,0.0680238881373785,0.));
#591=DIRECTION('ref_axis',(-0.0680238881373785,0.99768369268154,0.));
#592=DIRECTION('',(0.99768369268154,0.0680238881373785,0.));
#593=DIRECTION('center_axis',(0.99768369268154,0.0680238881373785,0.));
#594=DIRECTION('ref_axis',(-0.0680238881373785,0.99768369268154,0.));
#595=DIRECTION('center_axis',(0.507818140820452,-0.861464297492159,0.));
#596=DIRECTION('ref_axis',(1.0549894945035E-16,6.21897860704727E-17,-1.));
#597=DIRECTION('center_axis',(0.99768369268154,0.0680238881373785,0.));
#598=DIRECTION('ref_axis',(-8.33052368729982E-18,1.22181014080396E-16,-1.));
#599=CARTESIAN_POINT('',(0.,0.,0.));
#600=CARTESIAN_POINT('Origin',(23.5,2.91433543964104E-15,0.));
#601=CARTESIAN_POINT('',(23.2959283355879,2.99305107804462,-3.67394039744206E-16));
#602=CARTESIAN_POINT('Origin',(23.5,2.91433543964104E-15,0.));
#603=CARTESIAN_POINT('',(23.3597651620722,2.05677762294131,1.9));
#604=CARTESIAN_POINT('',(23.3597651620722,2.05677762294131,-1.9));
#605=CARTESIAN_POINT('',(23.3597651620722,2.05677762294114,1.9));
#606=CARTESIAN_POINT('',(23.6402348379278,-2.05677762294129,-1.9));
#607=CARTESIAN_POINT('',(23.5,7.12971348626468E-15,-1.9));
#608=CARTESIAN_POINT('',(23.6402348379278,-2.05677762294129,1.9));
#609=CARTESIAN_POINT('',(23.6402348379278,-2.05677762294111,1.9));
#610=CARTESIAN_POINT('',(23.5,6.88685219962792E-15,1.9));
#611=CARTESIAN_POINT('Origin',(27.4907347707262,0.272095552549525,1.9));
#612=CARTESIAN_POINT('',(31.9271963529738,1.0256263277955,-1.9));
#613=CARTESIAN_POINT('Origin',(27.4907347707262,0.272095552549525,-1.9));
#614=CARTESIAN_POINT('',(31.9271963529738,1.0256263277955,1.9));
#615=CARTESIAN_POINT('Origin',(27.4907347707262,0.272095552549525,1.9));
#616=CARTESIAN_POINT('',(31.9271963529738,1.0256263277955,1.9));
#617=CARTESIAN_POINT('Origin',(27.4907347707262,0.272095552549525,1.9));
#618=CARTESIAN_POINT('',(31.9884178522974,0.127711004382116,1.9));
#619=CARTESIAN_POINT('Origin',(27.4907347707262,0.272095552549525,1.9));
#620=CARTESIAN_POINT('',(29.7662834956644,-0.0237981562974074,1.9));
#621=CARTESIAN_POINT('',(27.521345520388,-0.176862109157165,1.9));
#622=CARTESIAN_POINT('',(29.7050619963408,0.874117167115978,1.9));
#623=CARTESIAN_POINT('Origin',(27.4907347707262,0.272095552549525,1.9));
#624=CARTESIAN_POINT('',(27.4601240210643,0.72105321425622,1.9));
#625=CARTESIAN_POINT('Origin',(27.4907347707262,0.272095552549525,-1.9));
#626=CARTESIAN_POINT('',(29.0964469412821,0.83262068608925,-1.9));
#627=CARTESIAN_POINT('',(27.4601240210643,0.72105321425622,-1.9));
#628=CARTESIAN_POINT('',(29.1576684406057,-0.0652946373241356,-1.9));
#629=CARTESIAN_POINT('Origin',(27.4907347707262,0.272095552549525,-1.9));
#630=CARTESIAN_POINT('',(31.9884178522974,0.127711004382116,-1.9));
#631=CARTESIAN_POINT('',(27.521345520388,-0.176862109157165,-1.9));
#632=CARTESIAN_POINT('Origin',(27.4907347707262,0.272095552549525,-1.9));
#633=CARTESIAN_POINT('Origin',(27.4601240210643,0.72105321425622,2.));
#634=CARTESIAN_POINT('',(29.4801745397956,0.858783931442442,1.483383346043));
#635=CARTESIAN_POINT('Ctrl Pts',(29.7050619963405,0.874117167115959,1.90000000000015));
#636=CARTESIAN_POINT('Ctrl Pts',(29.6709053407588,0.871788304235391,1.8365877266954));
#637=CARTESIAN_POINT('Ctrl Pts',(29.638122804057,0.869553131278448,1.77578210055205));
#638=CARTESIAN_POINT('Ctrl Pts',(29.6065589758688,0.867401052083801,1.71728894886788));
#639=CARTESIAN_POINT('Ctrl Pts',(29.5732613444749,0.865130759034216,1.65558276442671));
#640=CARTESIAN_POINT('Ctrl Pts',(29.5413201044447,0.862952947213972,1.59645030432534));
#641=CARTESIAN_POINT('Ctrl Pts',(29.5105798918755,0.860857023629712,1.53959749579121));
#642=CARTESIAN_POINT('Ctrl Pts',(29.5003123111251,0.86015696130582,1.52060801088771));
#643=CARTESIAN_POINT('Ctrl Pts',(29.4901789273948,0.859466048778751,1.50187324228256));
#644=CARTESIAN_POINT('Ctrl Pts',(29.4801745397948,0.858783931442392,1.4833833460434));
#645=CARTESIAN_POINT('Origin',(27.4601240210643,0.72105321425622,0.));
#646=CARTESIAN_POINT('Origin',(27.4907347707262,0.272095552549525,1.9));
#647=CARTESIAN_POINT('',(31.9884178522974,0.127711004382116,1.9));
#648=CARTESIAN_POINT('Origin',(27.521345520388,-0.176862109157165,2.));
#649=CARTESIAN_POINT('',(29.5413960391192,-0.0391313919709432,1.483383346043));
#650=CARTESIAN_POINT('Origin',(27.521345520388,-0.176862109157165,0.));
#651=CARTESIAN_POINT('Ctrl Pts',(29.7662834956641,-0.0237981562974265,1.90000000000015));
#652=CARTESIAN_POINT('Ctrl Pts',(29.7321268400825,-0.026127019177994,1.8365877266954));
#653=CARTESIAN_POINT('Ctrl Pts',(29.6993443033806,-0.0283621921349374,1.77578210055205));
#654=CARTESIAN_POINT('Ctrl Pts',(29.6677804751925,-0.0305142713295841,1.71728894886788));
#655=CARTESIAN_POINT('Ctrl Pts',(29.6344828437986,-0.0327845643791694,1.65558276442671));
#656=CARTESIAN_POINT('Ctrl Pts',(29.6025416037683,-0.0349623761994135,1.59645030432534));
#657=CARTESIAN_POINT('Ctrl Pts',(29.5718013911992,-0.0370582997836728,1.53959749579121));
#658=CARTESIAN_POINT('Ctrl Pts',(29.5615338104488,-0.0377583621075648,1.52060801088771));
#659=CARTESIAN_POINT('Ctrl Pts',(29.5514004267184,-0.0384492746346347,1.50187324228256));
#660=CARTESIAN_POINT('Ctrl Pts',(29.5413960391185,-0.0391313919709931,1.4833833460434));
#661=CARTESIAN_POINT('Origin',(27.4907347707262,0.272095552549525,1.91));
#662=CARTESIAN_POINT('Origin',(27.4907347707262,0.272095552549525,1.483383346043));
#663=CARTESIAN_POINT('Origin',(27.4907347707262,0.272095552549525,0.));
#664=CARTESIAN_POINT('Origin',(-2.0312725632818,23.9458571899686,1.9));
#665=CARTESIAN_POINT('',(1.7759541456295,21.5468939166038,-1.9));
#666=CARTESIAN_POINT('',(-3.91734064644079,28.0315330441806,-1.9));
#667=CARTESIAN_POINT('Origin',(-2.0312725632818,23.9458571899686,-1.9));
#668=CARTESIAN_POINT('',(-3.91734064644079,28.0315330441806,1.9));
#669=CARTESIAN_POINT('',(-3.91734064644079,28.0315330441806,1.9));
#670=CARTESIAN_POINT('',(1.7759541456295,21.5468939166038,1.9));
#671=CARTESIAN_POINT('Origin',(-2.0312725632818,23.9458571899686,1.9));
#672=CARTESIAN_POINT('',(1.77595414562935,21.5468939166037,1.9));
#673=CARTESIAN_POINT('Origin',(-2.0312725632818,23.9458571899686,1.9));
#674=CARTESIAN_POINT('',(-1.77595414562948,19.4531060833961,1.9));
#675=CARTESIAN_POINT('',(9.57567358739198E-15,20.5,1.9));
#676=CARTESIAN_POINT('',(-2.78628062619966,26.1127992545916,1.9));
#677=CARTESIAN_POINT('',(-1.64361362941032,24.1743753533378,1.9));
#678=CARTESIAN_POINT('',(-3.5615984939426,25.6557629278532,1.9));
#679=CARTESIAN_POINT('Origin',(-2.0312725632818,23.9458571899686,1.9));
#680=CARTESIAN_POINT('',(-4.69265851418373,27.5744967174422,1.9));
#681=CARTESIAN_POINT('',(-2.41893149715327,23.7173390265994,1.9));
#682=CARTESIAN_POINT('Origin',(-2.0312725632818,23.9458571899686,1.9));
#683=CARTESIAN_POINT('Origin',(-2.0312725632818,23.9458571899686,-1.9));
#684=CARTESIAN_POINT('',(-1.77595414562948,19.4531060833961,-1.9));
#685=CARTESIAN_POINT('',(9.85322934354826E-15,20.5,-1.9));
#686=CARTESIAN_POINT('',(-4.69265851418373,27.5744967174422,-1.9));
#687=CARTESIAN_POINT('Origin',(-2.0312725632818,23.9458571899686,-1.9));
#688=CARTESIAN_POINT('',(-3.25181517483817,25.1302455272027,-1.9));
#689=CARTESIAN_POINT('',(-2.41893149715327,23.7173390265994,-1.9));
#690=CARTESIAN_POINT('',(-2.47649730709523,25.5872818539412,-1.9));
#691=CARTESIAN_POINT('Origin',(-2.0312725632818,23.9458571899686,-1.9));
#692=CARTESIAN_POINT('',(-1.64361362941032,24.1743753533378,-1.9));
#693=CARTESIAN_POINT('Origin',(-1.64361362941032,24.1743753533378,2.));
#694=CARTESIAN_POINT('',(-2.67181355520878,25.9186169539399,1.483383346043));
#695=CARTESIAN_POINT('Origin',(-1.64361362941032,24.1743753533378,0.));
#696=CARTESIAN_POINT('Ctrl Pts',(-2.78628062619951,26.1127992545913,1.90000000000015));
#697=CARTESIAN_POINT('Ctrl Pts',(-2.76889498638064,26.0833062003085,1.8365877266954));
#698=CARTESIAN_POINT('Ctrl Pts',(-2.75220876913421,26.054999648686,1.77578210055205));
#699=CARTESIAN_POINT('Ctrl Pts',(-2.73614287102917,26.0277454084135,1.71728894886788));
#700=CARTESIAN_POINT('Ctrl Pts',(-2.71919447206042,25.9989940908894,1.65558276442671));
#701=CARTESIAN_POINT('Ctrl Pts',(-2.70293647240918,25.9714139689474,1.59645030432534));
#702=CARTESIAN_POINT('Ctrl Pts',(-2.68728979229424,25.944870891397,1.53959749579121));
#703=CARTESIAN_POINT('Ctrl Pts',(-2.68206362311292,25.9360052014965,1.52060801088771));
#704=CARTESIAN_POINT('Ctrl Pts',(-2.67690575983028,25.9272553859382,1.50187324228256));
#705=CARTESIAN_POINT('Ctrl Pts',(-2.6718135552084,25.9186169539393,1.4833833460434));
#706=CARTESIAN_POINT('Origin',(-2.0312725632818,23.9458571899686,1.9));
#707=CARTESIAN_POINT('',(-1.77595414562933,19.4531060833962,1.9));
#708=CARTESIAN_POINT('',(-4.69265851418373,27.5744967174422,1.9));
#709=CARTESIAN_POINT('Origin',(-2.41893149715327,23.7173390265994,2.));
#710=CARTESIAN_POINT('',(-3.44713142295173,25.4615806272015,1.483383346043));
#711=CARTESIAN_POINT('Ctrl Pts',(-3.56159849394246,25.6557629278529,1.90000000000015));
#712=CARTESIAN_POINT('Ctrl Pts',(-3.54421285412359,25.6262698735701,1.8365877266954));
#713=CARTESIAN_POINT('Ctrl Pts',(-3.52752663687716,25.5979633219475,1.77578210055205));
#714=CARTESIAN_POINT('Ctrl Pts',(-3.51146073877211,25.5707090816751,1.71728894886788));
#715=CARTESIAN_POINT('Ctrl Pts',(-3.49451233980336,25.541957764151,1.65558276442671));
#716=CARTESIAN_POINT('Ctrl Pts',(-3.47825434015213,25.514377642209,1.59645030432534));
#717=CARTESIAN_POINT('Ctrl Pts',(-3.46260766003718,25.4878345646586,1.53959749579121));
#718=CARTESIAN_POINT('Ctrl Pts',(-3.45738149085586,25.4789688747581,1.52060801088771));
#719=CARTESIAN_POINT('Ctrl Pts',(-3.45222362757322,25.4702190591998,1.50187324228256));
#720=CARTESIAN_POINT('Ctrl Pts',(-3.44713142295135,25.4615806272009,1.4833833460434));
#721=CARTESIAN_POINT('Origin',(-2.41893149715327,23.7173390265994,0.));
#722=CARTESIAN_POINT('Origin',(-2.0312725632818,23.9458571899686,1.91));
#723=CARTESIAN_POINT('Origin',(-2.0312725632818,23.9458571899686,1.483383346043));
#724=CARTESIAN_POINT('Origin',(-2.0312725632818,23.9458571899686,0.));
#725=CARTESIAN_POINT('Origin',(7.49400541621981E-15,20.5,0.));
#726=CARTESIAN_POINT('',(2.58439289247648,22.0234544224613,-3.67394039744206E-16));
#727=CARTESIAN_POINT('Origin',(7.49400541621981E-15,20.5,0.));
#728=CARTESIAN_POINT('Origin',(12.5254793805031,-0.748262769511165,0.));
#729=CARTESIAN_POINT('',(14.1693002620315,2.37078098212032,-3.67394039744206E-16));
#730=CARTESIAN_POINT('',(15.1098722729795,0.775191652950192,-3.67394039744206E-16));
#731=CARTESIAN_POINT('',(12.5254793805031,-0.748262769511167,-3.));
#732=CARTESIAN_POINT('Origin',(12.5254793805031,-0.748262769511161,0.));
#733=CARTESIAN_POINT('',(12.5254793805031,-0.748262769511167,3.));
#734=CARTESIAN_POINT('Origin',(12.5254793805031,-0.748262769511161,0.));
#735=CARTESIAN_POINT('Origin',(12.5254793805031,-0.748262769511161,0.));
#736=CARTESIAN_POINT('Origin',(23.5,2.91433543964104E-15,0.));
#737=CARTESIAN_POINT('',(23.2959283355879,2.99305107804462,-3.67394039744206E-16));
#738=CARTESIAN_POINT('Origin',(-8.47409175530384E-32,20.5,0.));
#739=CARTESIAN_POINT('',(1.20835126182685,15.9886379852597,1.53080849893419E-16));
#740=CARTESIAN_POINT('Origin',(2.28518163369205,16.6234106612853,0.));
#741=CARTESIAN_POINT('',(11.8405540131995,-2.04786433269094,-1.53080849893418E-16));
#742=CARTESIAN_POINT('',(-1.0768303718652,19.8652273239744,-1.53080849893419E-16));
#743=CARTESIAN_POINT('',(12.5254793805031,-0.748262769511157,-1.25));
#744=CARTESIAN_POINT('Origin',(12.5254793805031,-0.748262769511155,0.));
#745=CARTESIAN_POINT('',(12.5254793805031,-0.748262769511157,1.25));
#746=CARTESIAN_POINT('Origin',(12.5254793805031,-0.748262769511155,0.));
#747=CARTESIAN_POINT('Origin',(12.5254793805031,-0.748262769511155,0.));
#748=CARTESIAN_POINT('Origin',(12.5254793805031,-0.748262769511155,0.));
#749=CARTESIAN_POINT('',(19.0954532431048,-1.55321211247012,-1.53080849893419E-16));
#750=CARTESIAN_POINT('',(12.6105092406748,-1.99536738536308,-1.53080849893419E-16));
#751=CARTESIAN_POINT('Origin',(19.0104233829331,-0.306107496618195,0.));
#752=CARTESIAN_POINT('Origin',(0.131520889961648,15.3538653092341,1.9));
#753=CARTESIAN_POINT('Origin',(19.1804831032765,-2.80031672832204,1.9));
#754=UNCERTAINTY_MEASURE_WITH_UNIT(LENGTH_MEASURE(0.01),#758,
'DISTANCE_ACCURACY_VALUE',
'Maximum model space distance between geometric entities at asserted c
onnectivities');
#755=UNCERTAINTY_MEASURE_WITH_UNIT(LENGTH_MEASURE(0.01),#758,
'DISTANCE_ACCURACY_VALUE',
'Maximum model space distance between geometric entities at asserted c
onnectivities');
#756=(
GEOMETRIC_REPRESENTATION_CONTEXT(3)
GLOBAL_UNCERTAINTY_ASSIGNED_CONTEXT((#754))
GLOBAL_UNIT_ASSIGNED_CONTEXT((#758,#760,#761))
REPRESENTATION_CONTEXT('','3D')
);
#757=(
GEOMETRIC_REPRESENTATION_CONTEXT(3)
GLOBAL_UNCERTAINTY_ASSIGNED_CONTEXT((#755))
GLOBAL_UNIT_ASSIGNED_CONTEXT((#758,#760,#761))
REPRESENTATION_CONTEXT('','3D')
);
#758=(
LENGTH_UNIT()
NAMED_UNIT(*)
SI_UNIT(.MILLI.,.METRE.)
);
#759=(
LENGTH_UNIT()
NAMED_UNIT(*)
SI_UNIT($,.METRE.)
);
#760=(
NAMED_UNIT(*)
PLANE_ANGLE_UNIT()
SI_UNIT($,.RADIAN.)
);
#761=(
NAMED_UNIT(*)
SI_UNIT($,.STERADIAN.)
SOLID_ANGLE_UNIT()
);
#762=SHAPE_DEFINITION_REPRESENTATION(#763,#764);
#763=PRODUCT_DEFINITION_SHAPE('',$,#766);
#764=SHAPE_REPRESENTATION('',(#416),#756);
#765=PRODUCT_DEFINITION_CONTEXT('part definition',#770,'design');
#766=PRODUCT_DEFINITION('2026-07-09-19-22-44-277',
'\X2\221A524D8F6E8F6C541162C96746\X0\_\X2\5DE6\X0\(Phi6 L11)',#767,#765);
#767=PRODUCT_DEFINITION_FORMATION('',$,#772);
#768=PRODUCT_RELATED_PRODUCT_CATEGORY(
'\X2\221A524D8F6E8F6C541162C96746\X0\_\X2\5DE6\X0\(Phi6 L11)',
'\X2\221A524D8F6E8F6C541162C96746\X0\_\X2\5DE6\X0\(Phi6 L11)',(#772));
#769=APPLICATION_PROTOCOL_DEFINITION('international standard',
'automotive_design',2009,#770);
#770=APPLICATION_CONTEXT(
'Core Data for Automotive Mechanical Design Process');
#771=PRODUCT_CONTEXT('part definition',#770,'mechanical');
#772=PRODUCT('2026-07-09-19-22-44-277',
'\X2\221A524D8F6E8F6C541162C96746\X0\_\X2\5DE6\X0\(Phi6 L11)',$,(#771));
#773=PRESENTATION_STYLE_ASSIGNMENT((#774));
#774=SURFACE_STYLE_USAGE(.BOTH.,#775);
#775=SURFACE_SIDE_STYLE('',(#776));
#776=SURFACE_STYLE_FILL_AREA(#777);
#777=FILL_AREA_STYLE('\X2\94A2\X0\ - \X2\7F0E5149\X0\',(#778));
#778=FILL_AREA_STYLE_COLOUR('\X2\94A2\X0\ - \X2\7F0E5149\X0\',#779);
#779=COLOUR_RGB('\X2\94A2\X0\ - \X2\7F0E5149\X0\',0.627450980392157,0.627450980392157,
0.627450980392157);
ENDSEC;
END-ISO-10303-21;
