ISO-10303-21;
HEADER;
/* Generated by software containing ST-Developer
 * from STEP Tools, Inc. (www.steptools.com) 
 */

FILE_DESCRIPTION(
/* description */ (''),
/* implementation_level */ '2;1');

FILE_NAME(
/* name */ '',
/* time_stamp */ '2026-08-11T12:23:43+09:00',
/* author */ (''),
/* organization */ (''),
/* preprocessor_version */ 'ST-DEVELOPER v20.1',
/* originating_system */ 'Autodesk Translation Framework v15.8.0.0',
/* authorisation */ '');

FILE_SCHEMA (('AUTOMOTIVE_DESIGN { 1 0 10303 214 3 1 1 }'));
ENDSEC;

DATA;
#10=MECHANICAL_DESIGN_GEOMETRIC_PRESENTATION_REPRESENTATION('',(#13),#757);
#11=SHAPE_REPRESENTATION_RELATIONSHIP('SRR','None',#764,#12);
#12=ADVANCED_BREP_SHAPE_REPRESENTATION('',(#403),#756);
#13=STYLED_ITEM('',(#773),#403);
#14=SPHERICAL_SURFACE('',#444,2.55);
#15=SPHERICAL_SURFACE('',#461,2.55);
#16=CONICAL_SURFACE('',#442,2.3,0.486899231811);
#17=CONICAL_SURFACE('',#459,2.3,0.486899231811);
#18=B_SPLINE_CURVE_WITH_KNOTS('',3,(#652,#653,#654,#655,#656,#657,#658,
#659,#660,#661),.UNSPECIFIED.,.F.,.F.,(4,3,3,4),(203.786145584951,212.089496920392,
220.848951903279,223.774709529845),.UNSPECIFIED.);
#19=B_SPLINE_CURVE_WITH_KNOTS('',3,(#666,#667,#668,#669,#670,#671,#672,
#673,#674,#675),.UNSPECIFIED.,.F.,.F.,(4,3,3,4),(203.786145584951,212.089496920392,
220.848951903279,223.774709529845),.UNSPECIFIED.);
#20=B_SPLINE_CURVE_WITH_KNOTS('',3,(#711,#712,#713,#714,#715,#716,#717,
#718,#719,#720),.UNSPECIFIED.,.F.,.F.,(4,3,3,4),(203.786145584951,212.089496920392,
220.848951903278,223.774709529845),.UNSPECIFIED.);
#21=B_SPLINE_CURVE_WITH_KNOTS('',3,(#728,#729,#730,#731,#732,#733,#734,
#735,#736,#737),.UNSPECIFIED.,.F.,.F.,(4,3,3,4),(203.786145584951,212.089496920392,
220.848951903278,223.774709529845),.UNSPECIFIED.);
#22=FACE_BOUND('',#66,.T.);
#23=FACE_BOUND('',#84,.T.);
#24=ORIENTED_CLOSED_SHELL('',*,#401,.F.);
#25=PLANE('',#424);
#26=PLANE('',#425);
#27=PLANE('',#426);
#28=PLANE('',#431);
#29=PLANE('',#434);
#30=PLANE('',#437);
#31=PLANE('',#440);
#32=PLANE('',#448);
#33=PLANE('',#451);
#34=PLANE('',#454);
#35=PLANE('',#457);
#36=PLANE('',#462);
#37=FACE_OUTER_BOUND('',#61,.T.);
#38=FACE_OUTER_BOUND('',#62,.T.);
#39=FACE_OUTER_BOUND('',#63,.T.);
#40=FACE_OUTER_BOUND('',#64,.T.);
#41=FACE_OUTER_BOUND('',#65,.T.);
#42=FACE_OUTER_BOUND('',#67,.T.);
#43=FACE_OUTER_BOUND('',#68,.T.);
#44=FACE_OUTER_BOUND('',#69,.T.);
#45=FACE_OUTER_BOUND('',#70,.T.);
#46=FACE_OUTER_BOUND('',#71,.T.);
#47=FACE_OUTER_BOUND('',#72,.T.);
#48=FACE_OUTER_BOUND('',#73,.T.);
#49=FACE_OUTER_BOUND('',#74,.T.);
#50=FACE_OUTER_BOUND('',#75,.T.);
#51=FACE_OUTER_BOUND('',#76,.T.);
#52=FACE_OUTER_BOUND('',#77,.T.);
#53=FACE_OUTER_BOUND('',#78,.T.);
#54=FACE_OUTER_BOUND('',#79,.T.);
#55=FACE_OUTER_BOUND('',#80,.T.);
#56=FACE_OUTER_BOUND('',#81,.T.);
#57=FACE_OUTER_BOUND('',#82,.T.);
#58=FACE_OUTER_BOUND('',#83,.T.);
#59=FACE_OUTER_BOUND('',#85,.T.);
#60=FACE_OUTER_BOUND('',#86,.T.);
#61=EDGE_LOOP('',(#257,#258,#259,#260,#261,#262));
#62=EDGE_LOOP('',(#263,#264,#265,#266,#267,#268));
#63=EDGE_LOOP('',(#269));
#64=EDGE_LOOP('',(#270));
#65=EDGE_LOOP('',(#271));
#66=EDGE_LOOP('',(#272,#273,#274,#275));
#67=EDGE_LOOP('',(#276,#277,#278,#279));
#68=EDGE_LOOP('',(#280,#281,#282,#283,#284,#285));
#69=EDGE_LOOP('',(#286,#287,#288,#289,#290,#291));
#70=EDGE_LOOP('',(#292,#293,#294,#295,#296));
#71=EDGE_LOOP('',(#297,#298,#299,#300));
#72=EDGE_LOOP('',(#301,#302,#303,#304,#305));
#73=EDGE_LOOP('',(#306,#307,#308,#309));
#74=EDGE_LOOP('',(#310,#311,#312,#313));
#75=EDGE_LOOP('',(#314,#315,#316,#317));
#76=EDGE_LOOP('',(#318,#319,#320,#321,#322,#323));
#77=EDGE_LOOP('',(#324,#325,#326,#327,#328,#329));
#78=EDGE_LOOP('',(#330,#331,#332,#333,#334));
#79=EDGE_LOOP('',(#335,#336,#337,#338));
#80=EDGE_LOOP('',(#339,#340,#341,#342,#343));
#81=EDGE_LOOP('',(#344,#345,#346,#347));
#82=EDGE_LOOP('',(#348,#349,#350,#351));
#83=EDGE_LOOP('',(#352));
#84=EDGE_LOOP('',(#353,#354,#355,#356));
#85=EDGE_LOOP('',(#357,#358,#359,#360,#361,#362));
#86=EDGE_LOOP('',(#363,#364,#365,#366,#367,#368));
#87=ELLIPSE('',#419,1.46904287949508,1.25);
#88=ELLIPSE('',#420,1.46904287949508,1.25);
#89=ELLIPSE('',#421,1.46904287949508,1.25);
#90=ELLIPSE('',#465,3.5257029107882,3.);
#91=ELLIPSE('',#466,3.5257029107882,3.);
#92=ELLIPSE('',#467,3.5257029107882,3.);
#93=LINE('',#604,#117);
#94=LINE('',#612,#118);
#95=LINE('',#621,#119);
#96=LINE('',#623,#120);
#97=LINE('',#625,#121);
#98=LINE('',#626,#122);
#99=LINE('',#631,#123);
#100=LINE('',#635,#124);
#101=LINE('',#639,#125);
#102=LINE('',#645,#126);
#103=LINE('',#648,#127);
#104=LINE('',#663,#128);
#105=LINE('',#685,#129);
#106=LINE('',#688,#130);
#107=LINE('',#691,#131);
#108=LINE('',#695,#132);
#109=LINE('',#698,#133);
#110=LINE('',#701,#134);
#111=LINE('',#703,#135);
#112=LINE('',#707,#136);
#113=LINE('',#723,#137);
#114=LINE('',#724,#138);
#115=LINE('',#746,#139);
#116=LINE('',#753,#140);
#117=VECTOR('',#475,1.25);
#118=VECTOR('',#484,1.25);
#119=VECTOR('',#495,10.);
#120=VECTOR('',#496,10.);
#121=VECTOR('',#497,10.);
#122=VECTOR('',#498,10.);
#123=VECTOR('',#503,1.);
#124=VECTOR('',#508,1.);
#125=VECTOR('',#511,1.);
#126=VECTOR('',#518,1.);
#127=VECTOR('',#521,1.);
#128=VECTOR('',#528,1.);
#129=VECTOR('',#543,10.);
#130=VECTOR('',#546,1.);
#131=VECTOR('',#549,10.);
#132=VECTOR('',#552,1.);
#133=VECTOR('',#555,1.);
#134=VECTOR('',#558,10.);
#135=VECTOR('',#559,1.);
#136=VECTOR('',#562,1.);
#137=VECTOR('',#571,1.);
#138=VECTOR('',#572,10.);
#139=VECTOR('',#589,3.);
#140=VECTOR('',#598,3.);
#141=CIRCLE('',#418,1.25);
#142=CIRCLE('',#423,1.25);
#143=CIRCLE('',#427,3.);
#144=CIRCLE('',#429,4.5);
#145=CIRCLE('',#430,4.5);
#146=CIRCLE('',#432,2.294705882353);
#147=CIRCLE('',#433,4.5);
#148=CIRCLE('',#435,4.5);
#149=CIRCLE('',#436,1.700735135169);
#150=CIRCLE('',#438,2.509980079602);
#151=CIRCLE('',#441,2.509980079602);
#152=CIRCLE('',#443,2.074144124376);
#153=CIRCLE('',#446,4.5);
#154=CIRCLE('',#447,4.5);
#155=CIRCLE('',#449,4.5);
#156=CIRCLE('',#450,2.294705882353);
#157=CIRCLE('',#452,1.700735135169);
#158=CIRCLE('',#453,4.5);
#159=CIRCLE('',#455,2.509980079602);
#160=CIRCLE('',#458,2.509980079602);
#161=CIRCLE('',#460,2.074144124376);
#162=CIRCLE('',#463,3.);
#163=VERTEX_POINT('',#601);
#164=VERTEX_POINT('',#603);
#165=VERTEX_POINT('',#605);
#166=VERTEX_POINT('',#607);
#167=VERTEX_POINT('',#611);
#168=VERTEX_POINT('',#617);
#169=VERTEX_POINT('',#619);
#170=VERTEX_POINT('',#620);
#171=VERTEX_POINT('',#622);
#172=VERTEX_POINT('',#624);
#173=VERTEX_POINT('',#628);
#174=VERTEX_POINT('',#630);
#175=VERTEX_POINT('',#634);
#176=VERTEX_POINT('',#636);
#177=VERTEX_POINT('',#638);
#178=VERTEX_POINT('',#642);
#179=VERTEX_POINT('',#644);
#180=VERTEX_POINT('',#646);
#181=VERTEX_POINT('',#650);
#182=VERTEX_POINT('',#665);
#183=VERTEX_POINT('',#681);
#184=VERTEX_POINT('',#682);
#185=VERTEX_POINT('',#684);
#186=VERTEX_POINT('',#686);
#187=VERTEX_POINT('',#690);
#188=VERTEX_POINT('',#692);
#189=VERTEX_POINT('',#694);
#190=VERTEX_POINT('',#696);
#191=VERTEX_POINT('',#700);
#192=VERTEX_POINT('',#702);
#193=VERTEX_POINT('',#704);
#194=VERTEX_POINT('',#706);
#195=VERTEX_POINT('',#710);
#196=VERTEX_POINT('',#726);
#197=VERTEX_POINT('',#742);
#198=VERTEX_POINT('',#745);
#199=VERTEX_POINT('',#747);
#200=VERTEX_POINT('',#749);
#201=EDGE_CURVE('',#163,#163,#141,.T.);
#202=EDGE_CURVE('',#163,#164,#93,.T.);
#203=EDGE_CURVE('',#164,#165,#87,.T.);
#204=EDGE_CURVE('',#165,#166,#88,.T.);
#205=EDGE_CURVE('',#166,#164,#89,.T.);
#206=EDGE_CURVE('',#164,#167,#94,.T.);
#207=EDGE_CURVE('',#167,#167,#142,.T.);
#208=EDGE_CURVE('',#168,#168,#143,.T.);
#209=EDGE_CURVE('',#169,#170,#95,.T.);
#210=EDGE_CURVE('',#171,#169,#96,.T.);
#211=EDGE_CURVE('',#172,#171,#97,.T.);
#212=EDGE_CURVE('',#170,#172,#98,.T.);
#213=EDGE_CURVE('',#170,#173,#144,.T.);
#214=EDGE_CURVE('',#174,#173,#99,.T.);
#215=EDGE_CURVE('',#169,#174,#145,.T.);
#216=EDGE_CURVE('',#175,#174,#100,.T.);
#217=EDGE_CURVE('',#176,#175,#146,.T.);
#218=EDGE_CURVE('',#176,#177,#101,.T.);
#219=EDGE_CURVE('',#177,#171,#147,.T.);
#220=EDGE_CURVE('',#178,#172,#148,.T.);
#221=EDGE_CURVE('',#179,#178,#102,.T.);
#222=EDGE_CURVE('',#179,#180,#149,.T.);
#223=EDGE_CURVE('',#180,#173,#103,.T.);
#224=EDGE_CURVE('',#181,#180,#150,.T.);
#225=EDGE_CURVE('',#181,#175,#18,.F.);
#226=EDGE_CURVE('',#177,#178,#104,.T.);
#227=EDGE_CURVE('',#182,#176,#19,.F.);
#228=EDGE_CURVE('',#182,#179,#151,.T.);
#229=EDGE_CURVE('',#181,#182,#152,.T.);
#230=EDGE_CURVE('',#183,#184,#153,.T.);
#231=EDGE_CURVE('',#183,#185,#105,.T.);
#232=EDGE_CURVE('',#185,#186,#154,.T.);
#233=EDGE_CURVE('',#186,#184,#106,.T.);
#234=EDGE_CURVE('',#185,#187,#107,.T.);
#235=EDGE_CURVE('',#188,#187,#155,.T.);
#236=EDGE_CURVE('',#189,#188,#108,.T.);
#237=EDGE_CURVE('',#189,#190,#156,.T.);
#238=EDGE_CURVE('',#190,#186,#109,.T.);
#239=EDGE_CURVE('',#191,#183,#110,.T.);
#240=EDGE_CURVE('',#192,#184,#111,.T.);
#241=EDGE_CURVE('',#193,#192,#157,.T.);
#242=EDGE_CURVE('',#193,#194,#112,.T.);
#243=EDGE_CURVE('',#194,#191,#158,.T.);
#244=EDGE_CURVE('',#195,#190,#20,.F.);
#245=EDGE_CURVE('',#195,#192,#159,.T.);
#246=EDGE_CURVE('',#188,#194,#113,.T.);
#247=EDGE_CURVE('',#187,#191,#114,.T.);
#248=EDGE_CURVE('',#196,#193,#160,.T.);
#249=EDGE_CURVE('',#196,#189,#21,.F.);
#250=EDGE_CURVE('',#195,#196,#161,.T.);
#251=EDGE_CURVE('',#197,#197,#162,.T.);
#252=EDGE_CURVE('',#197,#198,#115,.T.);
#253=EDGE_CURVE('',#198,#199,#90,.T.);
#254=EDGE_CURVE('',#199,#200,#91,.T.);
#255=EDGE_CURVE('',#200,#198,#92,.T.);
#256=EDGE_CURVE('',#198,#168,#116,.T.);
#257=ORIENTED_EDGE('',*,*,#201,.F.);
#258=ORIENTED_EDGE('',*,*,#202,.T.);
#259=ORIENTED_EDGE('',*,*,#203,.T.);
#260=ORIENTED_EDGE('',*,*,#204,.T.);
#261=ORIENTED_EDGE('',*,*,#205,.T.);
#262=ORIENTED_EDGE('',*,*,#202,.F.);
#263=ORIENTED_EDGE('',*,*,#205,.F.);
#264=ORIENTED_EDGE('',*,*,#204,.F.);
#265=ORIENTED_EDGE('',*,*,#203,.F.);
#266=ORIENTED_EDGE('',*,*,#206,.T.);
#267=ORIENTED_EDGE('',*,*,#207,.F.);
#268=ORIENTED_EDGE('',*,*,#206,.F.);
#269=ORIENTED_EDGE('',*,*,#201,.T.);
#270=ORIENTED_EDGE('',*,*,#207,.T.);
#271=ORIENTED_EDGE('',*,*,#208,.T.);
#272=ORIENTED_EDGE('',*,*,#209,.F.);
#273=ORIENTED_EDGE('',*,*,#210,.F.);
#274=ORIENTED_EDGE('',*,*,#211,.F.);
#275=ORIENTED_EDGE('',*,*,#212,.F.);
#276=ORIENTED_EDGE('',*,*,#213,.T.);
#277=ORIENTED_EDGE('',*,*,#214,.F.);
#278=ORIENTED_EDGE('',*,*,#215,.F.);
#279=ORIENTED_EDGE('',*,*,#209,.T.);
#280=ORIENTED_EDGE('',*,*,#210,.T.);
#281=ORIENTED_EDGE('',*,*,#215,.T.);
#282=ORIENTED_EDGE('',*,*,#216,.F.);
#283=ORIENTED_EDGE('',*,*,#217,.F.);
#284=ORIENTED_EDGE('',*,*,#218,.T.);
#285=ORIENTED_EDGE('',*,*,#219,.T.);
#286=ORIENTED_EDGE('',*,*,#212,.T.);
#287=ORIENTED_EDGE('',*,*,#220,.F.);
#288=ORIENTED_EDGE('',*,*,#221,.F.);
#289=ORIENTED_EDGE('',*,*,#222,.T.);
#290=ORIENTED_EDGE('',*,*,#223,.T.);
#291=ORIENTED_EDGE('',*,*,#213,.F.);
#292=ORIENTED_EDGE('',*,*,#216,.T.);
#293=ORIENTED_EDGE('',*,*,#214,.T.);
#294=ORIENTED_EDGE('',*,*,#223,.F.);
#295=ORIENTED_EDGE('',*,*,#224,.F.);
#296=ORIENTED_EDGE('',*,*,#225,.T.);
#297=ORIENTED_EDGE('',*,*,#220,.T.);
#298=ORIENTED_EDGE('',*,*,#211,.T.);
#299=ORIENTED_EDGE('',*,*,#219,.F.);
#300=ORIENTED_EDGE('',*,*,#226,.T.);
#301=ORIENTED_EDGE('',*,*,#218,.F.);
#302=ORIENTED_EDGE('',*,*,#227,.F.);
#303=ORIENTED_EDGE('',*,*,#228,.T.);
#304=ORIENTED_EDGE('',*,*,#221,.T.);
#305=ORIENTED_EDGE('',*,*,#226,.F.);
#306=ORIENTED_EDGE('',*,*,#217,.T.);
#307=ORIENTED_EDGE('',*,*,#225,.F.);
#308=ORIENTED_EDGE('',*,*,#229,.T.);
#309=ORIENTED_EDGE('',*,*,#227,.T.);
#310=ORIENTED_EDGE('',*,*,#229,.F.);
#311=ORIENTED_EDGE('',*,*,#224,.T.);
#312=ORIENTED_EDGE('',*,*,#222,.F.);
#313=ORIENTED_EDGE('',*,*,#228,.F.);
#314=ORIENTED_EDGE('',*,*,#230,.F.);
#315=ORIENTED_EDGE('',*,*,#231,.T.);
#316=ORIENTED_EDGE('',*,*,#232,.T.);
#317=ORIENTED_EDGE('',*,*,#233,.T.);
#318=ORIENTED_EDGE('',*,*,#234,.T.);
#319=ORIENTED_EDGE('',*,*,#235,.F.);
#320=ORIENTED_EDGE('',*,*,#236,.F.);
#321=ORIENTED_EDGE('',*,*,#237,.T.);
#322=ORIENTED_EDGE('',*,*,#238,.T.);
#323=ORIENTED_EDGE('',*,*,#232,.F.);
#324=ORIENTED_EDGE('',*,*,#239,.T.);
#325=ORIENTED_EDGE('',*,*,#230,.T.);
#326=ORIENTED_EDGE('',*,*,#240,.F.);
#327=ORIENTED_EDGE('',*,*,#241,.F.);
#328=ORIENTED_EDGE('',*,*,#242,.T.);
#329=ORIENTED_EDGE('',*,*,#243,.T.);
#330=ORIENTED_EDGE('',*,*,#238,.F.);
#331=ORIENTED_EDGE('',*,*,#244,.F.);
#332=ORIENTED_EDGE('',*,*,#245,.T.);
#333=ORIENTED_EDGE('',*,*,#240,.T.);
#334=ORIENTED_EDGE('',*,*,#233,.F.);
#335=ORIENTED_EDGE('',*,*,#243,.F.);
#336=ORIENTED_EDGE('',*,*,#246,.F.);
#337=ORIENTED_EDGE('',*,*,#235,.T.);
#338=ORIENTED_EDGE('',*,*,#247,.T.);
#339=ORIENTED_EDGE('',*,*,#236,.T.);
#340=ORIENTED_EDGE('',*,*,#246,.T.);
#341=ORIENTED_EDGE('',*,*,#242,.F.);
#342=ORIENTED_EDGE('',*,*,#248,.F.);
#343=ORIENTED_EDGE('',*,*,#249,.T.);
#344=ORIENTED_EDGE('',*,*,#237,.F.);
#345=ORIENTED_EDGE('',*,*,#249,.F.);
#346=ORIENTED_EDGE('',*,*,#250,.F.);
#347=ORIENTED_EDGE('',*,*,#244,.T.);
#348=ORIENTED_EDGE('',*,*,#250,.T.);
#349=ORIENTED_EDGE('',*,*,#248,.T.);
#350=ORIENTED_EDGE('',*,*,#241,.T.);
#351=ORIENTED_EDGE('',*,*,#245,.F.);
#352=ORIENTED_EDGE('',*,*,#251,.F.);
#353=ORIENTED_EDGE('',*,*,#234,.F.);
#354=ORIENTED_EDGE('',*,*,#231,.F.);
#355=ORIENTED_EDGE('',*,*,#239,.F.);
#356=ORIENTED_EDGE('',*,*,#247,.F.);
#357=ORIENTED_EDGE('',*,*,#251,.T.);
#358=ORIENTED_EDGE('',*,*,#252,.T.);
#359=ORIENTED_EDGE('',*,*,#253,.T.);
#360=ORIENTED_EDGE('',*,*,#254,.T.);
#361=ORIENTED_EDGE('',*,*,#255,.T.);
#362=ORIENTED_EDGE('',*,*,#252,.F.);
#363=ORIENTED_EDGE('',*,*,#255,.F.);
#364=ORIENTED_EDGE('',*,*,#254,.F.);
#365=ORIENTED_EDGE('',*,*,#253,.F.);
#366=ORIENTED_EDGE('',*,*,#256,.T.);
#367=ORIENTED_EDGE('',*,*,#208,.F.);
#368=ORIENTED_EDGE('',*,*,#256,.F.);
#369=CYLINDRICAL_SURFACE('',#417,1.25);
#370=CYLINDRICAL_SURFACE('',#422,1.25);
#371=CYLINDRICAL_SURFACE('',#428,4.5);
#372=CYLINDRICAL_SURFACE('',#439,4.5);
#373=CYLINDRICAL_SURFACE('',#445,4.5);
#374=CYLINDRICAL_SURFACE('',#456,4.5);
#375=CYLINDRICAL_SURFACE('',#464,3.);
#376=CYLINDRICAL_SURFACE('',#468,3.);
#377=ADVANCED_FACE('',(#37),#369,.F.);
#378=ADVANCED_FACE('',(#38),#370,.F.);
#379=ADVANCED_FACE('',(#39),#25,.F.);
#380=ADVANCED_FACE('',(#40),#26,.T.);
#381=ADVANCED_FACE('',(#41,#22),#27,.T.);
#382=ADVANCED_FACE('',(#42),#371,.T.);
#383=ADVANCED_FACE('',(#43),#28,.T.);
#384=ADVANCED_FACE('',(#44),#29,.F.);
#385=ADVANCED_FACE('',(#45),#30,.T.);
#386=ADVANCED_FACE('',(#46),#372,.T.);
#387=ADVANCED_FACE('',(#47),#31,.F.);
#388=ADVANCED_FACE('',(#48),#16,.F.);
#389=ADVANCED_FACE('',(#49),#14,.F.);
#390=ADVANCED_FACE('',(#50),#373,.T.);
#391=ADVANCED_FACE('',(#51),#32,.F.);
#392=ADVANCED_FACE('',(#52),#33,.T.);
#393=ADVANCED_FACE('',(#53),#34,.F.);
#394=ADVANCED_FACE('',(#54),#374,.T.);
#395=ADVANCED_FACE('',(#55),#35,.T.);
#396=ADVANCED_FACE('',(#56),#17,.F.);
#397=ADVANCED_FACE('',(#57),#15,.F.);
#398=ADVANCED_FACE('',(#58,#23),#36,.F.);
#399=ADVANCED_FACE('',(#59),#375,.T.);
#400=ADVANCED_FACE('',(#60),#376,.T.);
#401=CLOSED_SHELL('',(#377,#378,#379,#380));
#402=CLOSED_SHELL('',(#381,#382,#383,#384,#385,#386,#387,#388,#389,#390,
#391,#392,#393,#394,#395,#396,#397,#398,#399,#400));
#403=BREP_WITH_VOIDS('\X2\5B9E4F53\X0\10',#402,(#24));
#404=DERIVED_UNIT_ELEMENT(#406,1.);
#405=DERIVED_UNIT_ELEMENT(#759,-3.);
#406=(
MASS_UNIT()
NAMED_UNIT(*)
SI_UNIT(.KILO.,.GRAM.)
);
#407=DERIVED_UNIT((#404,#405));
#408=MEASURE_REPRESENTATION_ITEM('density measure',
POSITIVE_RATIO_MEASURE(7850.),#407);
#409=PROPERTY_DEFINITION_REPRESENTATION(#414,#411);
#410=PROPERTY_DEFINITION_REPRESENTATION(#415,#412);
#411=REPRESENTATION('material name',(#413),#756);
#412=REPRESENTATION('density',(#408),#756);
#413=DESCRIPTIVE_REPRESENTATION_ITEM('\X2\94A2\X0\','\X2\94A2\X0\');
#414=PROPERTY_DEFINITION('material property','material name',#766);
#415=PROPERTY_DEFINITION('material property','density of part',#766);
#416=AXIS2_PLACEMENT_3D('',#599,#469,#470);
#417=AXIS2_PLACEMENT_3D('',#600,#471,#472);
#418=AXIS2_PLACEMENT_3D('',#602,#473,#474);
#419=AXIS2_PLACEMENT_3D('',#606,#476,#477);
#420=AXIS2_PLACEMENT_3D('',#608,#478,#479);
#421=AXIS2_PLACEMENT_3D('',#609,#480,#481);
#422=AXIS2_PLACEMENT_3D('',#610,#482,#483);
#423=AXIS2_PLACEMENT_3D('',#613,#485,#486);
#424=AXIS2_PLACEMENT_3D('',#614,#487,#488);
#425=AXIS2_PLACEMENT_3D('',#615,#489,#490);
#426=AXIS2_PLACEMENT_3D('',#616,#491,#492);
#427=AXIS2_PLACEMENT_3D('',#618,#493,#494);
#428=AXIS2_PLACEMENT_3D('',#627,#499,#500);
#429=AXIS2_PLACEMENT_3D('',#629,#501,#502);
#430=AXIS2_PLACEMENT_3D('',#632,#504,#505);
#431=AXIS2_PLACEMENT_3D('',#633,#506,#507);
#432=AXIS2_PLACEMENT_3D('',#637,#509,#510);
#433=AXIS2_PLACEMENT_3D('',#640,#512,#513);
#434=AXIS2_PLACEMENT_3D('',#641,#514,#515);
#435=AXIS2_PLACEMENT_3D('',#643,#516,#517);
#436=AXIS2_PLACEMENT_3D('',#647,#519,#520);
#437=AXIS2_PLACEMENT_3D('',#649,#522,#523);
#438=AXIS2_PLACEMENT_3D('',#651,#524,#525);
#439=AXIS2_PLACEMENT_3D('',#662,#526,#527);
#440=AXIS2_PLACEMENT_3D('',#664,#529,#530);
#441=AXIS2_PLACEMENT_3D('',#676,#531,#532);
#442=AXIS2_PLACEMENT_3D('',#677,#533,#534);
#443=AXIS2_PLACEMENT_3D('',#678,#535,#536);
#444=AXIS2_PLACEMENT_3D('',#679,#537,#538);
#445=AXIS2_PLACEMENT_3D('',#680,#539,#540);
#446=AXIS2_PLACEMENT_3D('',#683,#541,#542);
#447=AXIS2_PLACEMENT_3D('',#687,#544,#545);
#448=AXIS2_PLACEMENT_3D('',#689,#547,#548);
#449=AXIS2_PLACEMENT_3D('',#693,#550,#551);
#450=AXIS2_PLACEMENT_3D('',#697,#553,#554);
#451=AXIS2_PLACEMENT_3D('',#699,#556,#557);
#452=AXIS2_PLACEMENT_3D('',#705,#560,#561);
#453=AXIS2_PLACEMENT_3D('',#708,#563,#564);
#454=AXIS2_PLACEMENT_3D('',#709,#565,#566);
#455=AXIS2_PLACEMENT_3D('',#721,#567,#568);
#456=AXIS2_PLACEMENT_3D('',#722,#569,#570);
#457=AXIS2_PLACEMENT_3D('',#725,#573,#574);
#458=AXIS2_PLACEMENT_3D('',#727,#575,#576);
#459=AXIS2_PLACEMENT_3D('',#738,#577,#578);
#460=AXIS2_PLACEMENT_3D('',#739,#579,#580);
#461=AXIS2_PLACEMENT_3D('',#740,#581,#582);
#462=AXIS2_PLACEMENT_3D('',#741,#583,#584);
#463=AXIS2_PLACEMENT_3D('',#743,#585,#586);
#464=AXIS2_PLACEMENT_3D('',#744,#587,#588);
#465=AXIS2_PLACEMENT_3D('',#748,#590,#591);
#466=AXIS2_PLACEMENT_3D('',#750,#592,#593);
#467=AXIS2_PLACEMENT_3D('',#751,#594,#595);
#468=AXIS2_PLACEMENT_3D('',#752,#596,#597);
#469=DIRECTION('axis',(0.,0.,1.));
#470=DIRECTION('refdir',(1.,0.,0.));
#471=DIRECTION('center_axis',(-0.507818140820452,-0.861464297492159,0.));
#472=DIRECTION('ref_axis',(0.861464297492159,-0.507818140820453,0.));
#473=DIRECTION('center_axis',(0.507818140820452,0.861464297492159,0.));
#474=DIRECTION('ref_axis',(0.861464297492159,-0.507818140820453,0.));
#475=DIRECTION('',(0.507818140820452,0.861464297492159,0.));
#476=DIRECTION('center_axis',(0.884658699429157,0.466239193466521,0.));
#477=DIRECTION('ref_axis',(0.466239193466521,-0.884658699429157,0.));
#478=DIRECTION('center_axis',(0.884658699429158,0.466239193466519,0.));
#479=DIRECTION('ref_axis',(0.466239193466519,-0.884658699429158,0.));
#480=DIRECTION('center_axis',(0.884658699429157,0.466239193466521,0.));
#481=DIRECTION('ref_axis',(0.466239193466521,-0.884658699429157,0.));
#482=DIRECTION('center_axis',(-0.99768369268154,0.0680238881373784,0.));
#483=DIRECTION('ref_axis',(-0.0680238881373784,-0.99768369268154,0.));
#484=DIRECTION('',(0.99768369268154,-0.0680238881373784,0.));
#485=DIRECTION('center_axis',(-0.99768369268154,0.0680238881373784,0.));
#486=DIRECTION('ref_axis',(-0.0680238881373784,-0.99768369268154,0.));
#487=DIRECTION('center_axis',(-0.507818140820452,-0.861464297492159,0.));
#488=DIRECTION('ref_axis',(1.0549894945035E-16,-6.21897860704727E-17,-1.));
#489=DIRECTION('center_axis',(-0.99768369268154,0.0680238881373784,0.));
#490=DIRECTION('ref_axis',(-8.33052368729981E-18,-1.22181014080396E-16,
-1.));
#491=DIRECTION('center_axis',(0.99768369268154,-0.0680238881373784,0.));
#492=DIRECTION('ref_axis',(0.,0.,1.));
#493=DIRECTION('center_axis',(0.99768369268154,-0.0680238881373784,0.));
#494=DIRECTION('ref_axis',(0.0680238881373777,0.99768369268154,0.));
#495=DIRECTION('',(-8.33052368729981E-18,-1.22181014080396E-16,-1.));
#496=DIRECTION('',(-0.0680238881373784,-0.99768369268154,1.22464679914735E-16));
#497=DIRECTION('',(8.33052368729981E-18,1.22181014080396E-16,1.));
#498=DIRECTION('',(0.0680238881373784,0.99768369268154,-1.22464679914735E-16));
#499=DIRECTION('center_axis',(8.33052368729981E-18,1.22181014080396E-16,
1.));
#500=DIRECTION('ref_axis',(-0.0680238881373784,-0.99768369268154,1.22464679914735E-16));
#501=DIRECTION('center_axis',(8.33052368729981E-18,1.22181014080396E-16,
1.));
#502=DIRECTION('ref_axis',(-0.0680238881373784,-0.99768369268154,1.22464679914735E-16));
#503=DIRECTION('',(-8.33052368729981E-18,-1.22181014080396E-16,-1.));
#504=DIRECTION('center_axis',(8.33052368729981E-18,1.22181014080396E-16,
1.));
#505=DIRECTION('ref_axis',(-0.0680238881373784,-0.99768369268154,1.22464679914735E-16));
#506=DIRECTION('center_axis',(8.33052368729981E-18,1.22181014080396E-16,
1.));
#507=DIRECTION('ref_axis',(-0.0680238881373784,-0.99768369268154,1.22464679914735E-16));
#508=DIRECTION('',(0.99768369268154,-0.0680238881373784,0.));
#509=DIRECTION('center_axis',(8.33052368729981E-18,1.22181014080396E-16,
1.));
#510=DIRECTION('ref_axis',(-0.0680238881373784,-0.99768369268154,1.22464679914735E-16));
#511=DIRECTION('',(0.99768369268154,-0.0680238881373784,0.));
#512=DIRECTION('center_axis',(8.33052368729981E-18,1.22181014080396E-16,
1.));
#513=DIRECTION('ref_axis',(-0.0680238881373784,-0.99768369268154,1.22464679914735E-16));
#514=DIRECTION('center_axis',(8.33052368729981E-18,1.22181014080396E-16,
1.));
#515=DIRECTION('ref_axis',(-0.0680238881373784,-0.99768369268154,1.22464679914735E-16));
#516=DIRECTION('center_axis',(8.33052368729981E-18,1.22181014080396E-16,
1.));
#517=DIRECTION('ref_axis',(-0.0680238881373784,-0.99768369268154,1.22464679914735E-16));
#518=DIRECTION('',(0.99768369268154,-0.0680238881373784,0.));
#519=DIRECTION('center_axis',(8.33052368729981E-18,1.22181014080396E-16,
1.));
#520=DIRECTION('ref_axis',(-0.0680238881373784,-0.99768369268154,1.22464679914735E-16));
#521=DIRECTION('',(0.99768369268154,-0.0680238881373784,0.));
#522=DIRECTION('center_axis',(0.0680238881373784,0.99768369268154,-1.22464679914735E-16));
#523=DIRECTION('ref_axis',(-8.33052368729981E-18,-1.22181014080396E-16,
-1.));
#524=DIRECTION('center_axis',(0.0680238881373784,0.99768369268154,-1.22464679914735E-16));
#525=DIRECTION('ref_axis',(-8.33052368729981E-18,-1.22181014080396E-16,
-1.));
#526=DIRECTION('center_axis',(8.33052368729981E-18,1.22181014080396E-16,
1.));
#527=DIRECTION('ref_axis',(0.253148972657466,0.967427308712375,-1.20310113140685E-16));
#528=DIRECTION('',(-8.33052368729981E-18,-1.22181014080396E-16,-1.));
#529=DIRECTION('center_axis',(0.0680238881373784,0.99768369268154,-1.22464679914735E-16));
#530=DIRECTION('ref_axis',(-8.33052368729981E-18,-1.22181014080396E-16,
-1.));
#531=DIRECTION('center_axis',(0.0680238881373784,0.99768369268154,-1.22464679914735E-16));
#532=DIRECTION('ref_axis',(-8.33052368729981E-18,-1.22181014080396E-16,
-1.));
#533=DIRECTION('center_axis',(8.33052368729981E-18,1.22181014080396E-16,
1.));
#534=DIRECTION('ref_axis',(-0.99768369268154,0.0680238881373797,-1.33977735261721E-31));
#535=DIRECTION('center_axis',(-8.33052368729981E-18,-1.22181014080396E-16,
-1.));
#536=DIRECTION('ref_axis',(0.99768369268154,-0.0680238881373784,0.));
#537=DIRECTION('center_axis',(0.,-1.30614473485313E-16,-1.));
#538=DIRECTION('ref_axis',(0.997465317896296,-0.0711543364387683,3.84300524311286E-19));
#539=DIRECTION('center_axis',(1.0549894945035E-16,-6.21897860704727E-17,
-1.));
#540=DIRECTION('ref_axis',(0.861464297492159,-0.507818140820452,1.22464679914735E-16));
#541=DIRECTION('center_axis',(1.0549894945035E-16,-6.21897860704727E-17,
-1.));
#542=DIRECTION('ref_axis',(0.861464297492159,-0.507818140820452,1.22464679914735E-16));
#543=DIRECTION('',(-1.0549894945035E-16,6.21897860704727E-17,1.));
#544=DIRECTION('center_axis',(1.0549894945035E-16,-6.21897860704727E-17,
-1.));
#545=DIRECTION('ref_axis',(0.861464297492159,-0.507818140820452,1.22464679914735E-16));
#546=DIRECTION('',(1.0549894945035E-16,-6.21897860704727E-17,-1.));
#547=DIRECTION('center_axis',(1.0549894945035E-16,-6.21897860704727E-17,
-1.));
#548=DIRECTION('ref_axis',(0.861464297492159,-0.507818140820452,1.22464679914735E-16));
#549=DIRECTION('',(-0.861464297492159,0.507818140820452,-1.22464679914735E-16));
#550=DIRECTION('center_axis',(1.0549894945035E-16,-6.21897860704727E-17,
-1.));
#551=DIRECTION('ref_axis',(0.861464297492159,-0.507818140820452,1.22464679914735E-16));
#552=DIRECTION('',(-0.507818140820452,-0.861464297492159,0.));
#553=DIRECTION('center_axis',(1.0549894945035E-16,-6.21897860704727E-17,
-1.));
#554=DIRECTION('ref_axis',(0.861464297492159,-0.507818140820452,1.22464679914735E-16));
#555=DIRECTION('',(-0.507818140820452,-0.861464297492159,0.));
#556=DIRECTION('center_axis',(1.0549894945035E-16,-6.21897860704727E-17,
-1.));
#557=DIRECTION('ref_axis',(0.861464297492159,-0.507818140820452,1.22464679914735E-16));
#558=DIRECTION('',(0.861464297492159,-0.507818140820452,1.22464679914735E-16));
#559=DIRECTION('',(-0.507818140820452,-0.861464297492159,0.));
#560=DIRECTION('center_axis',(1.0549894945035E-16,-6.21897860704727E-17,
-1.));
#561=DIRECTION('ref_axis',(0.861464297492159,-0.507818140820452,1.22464679914735E-16));
#562=DIRECTION('',(-0.507818140820452,-0.861464297492159,0.));
#563=DIRECTION('center_axis',(1.0549894945035E-16,-6.21897860704727E-17,
-1.));
#564=DIRECTION('ref_axis',(0.861464297492159,-0.507818140820452,1.22464679914735E-16));
#565=DIRECTION('center_axis',(0.861464297492159,-0.507818140820452,1.22464679914735E-16));
#566=DIRECTION('ref_axis',(1.0549894945035E-16,-6.21897860704727E-17,-1.));
#567=DIRECTION('center_axis',(0.861464297492159,-0.507818140820452,1.22464679914735E-16));
#568=DIRECTION('ref_axis',(1.0549894945035E-16,-6.21897860704727E-17,-1.));
#569=DIRECTION('center_axis',(1.0549894945035E-16,-6.21897860704727E-17,
-1.));
#570=DIRECTION('ref_axis',(-0.941145524789421,0.338001628944072,-1.20310113140685E-16));
#571=DIRECTION('',(1.0549894945035E-16,-6.21897860704727E-17,-1.));
#572=DIRECTION('',(1.0549894945035E-16,-6.21897860704727E-17,-1.));
#573=DIRECTION('center_axis',(0.861464297492159,-0.507818140820452,1.22464679914735E-16));
#574=DIRECTION('ref_axis',(1.0549894945035E-16,-6.21897860704727E-17,-1.));
#575=DIRECTION('center_axis',(0.861464297492159,-0.507818140820452,1.22464679914735E-16));
#576=DIRECTION('ref_axis',(1.0549894945035E-16,-6.21897860704727E-17,-1.));
#577=DIRECTION('center_axis',(-1.0549894945035E-16,6.21897860704727E-17,
1.));
#578=DIRECTION('ref_axis',(0.507818140820452,0.86146429749216,-1.60773282314065E-31));
#579=DIRECTION('center_axis',(-1.0549894945035E-16,6.21897860704727E-17,
1.));
#580=DIRECTION('ref_axis',(-0.507818140820452,-0.861464297492159,0.));
#581=DIRECTION('center_axis',(1.7415263131375E-16,0.,-1.));
#582=DIRECTION('ref_axis',(0.505112320782388,0.863053615596291,-3.84300524311503E-19));
#583=DIRECTION('center_axis',(0.507818140820452,0.861464297492159,0.));
#584=DIRECTION('ref_axis',(0.,0.,1.));
#585=DIRECTION('center_axis',(0.507818140820452,0.861464297492159,0.));
#586=DIRECTION('ref_axis',(-0.861464297492159,0.507818140820452,0.));
#587=DIRECTION('center_axis',(0.507818140820453,0.861464297492159,0.));
#588=DIRECTION('ref_axis',(-0.861464297492159,0.507818140820453,0.));
#589=DIRECTION('',(0.507818140820453,0.861464297492159,0.));
#590=DIRECTION('center_axis',(-0.884658699429157,-0.466239193466522,0.));
#591=DIRECTION('ref_axis',(-0.466239193466522,0.884658699429157,0.));
#592=DIRECTION('center_axis',(-0.884658699429157,-0.466239193466521,0.));
#593=DIRECTION('ref_axis',(-0.466239193466521,0.884658699429157,0.));
#594=DIRECTION('center_axis',(-0.884658699429157,-0.466239193466522,0.));
#595=DIRECTION('ref_axis',(-0.466239193466522,0.884658699429157,0.));
#596=DIRECTION('center_axis',(0.99768369268154,-0.0680238881373784,0.));
#597=DIRECTION('ref_axis',(0.0680238881373784,0.99768369268154,0.));
#598=DIRECTION('',(0.99768369268154,-0.0680238881373784,0.));
#599=CARTESIAN_POINT('',(0.,0.,0.));
#600=CARTESIAN_POINT('Origin',(-8.47409175530384E-32,-20.5,0.));
#601=CARTESIAN_POINT('',(1.20835126182685,-15.9886379852597,1.53080849893419E-16));
#602=CARTESIAN_POINT('Origin',(2.28518163369205,-16.6234106612853,0.));
#603=CARTESIAN_POINT('',(11.8405540131995,2.04786433269094,-1.53080849893418E-16));
#604=CARTESIAN_POINT('',(-1.0768303718652,-19.8652273239744,-1.53080849893419E-16));
#605=CARTESIAN_POINT('',(12.5254793805031,0.748262769511161,1.25));
#606=CARTESIAN_POINT('Origin',(12.5254793805031,0.748262769511161,0.));
#607=CARTESIAN_POINT('',(12.5254793805031,0.748262769511161,-1.25));
#608=CARTESIAN_POINT('Origin',(12.5254793805031,0.748262769511161,0.));
#609=CARTESIAN_POINT('Origin',(12.5254793805031,0.748262769511161,0.));
#610=CARTESIAN_POINT('Origin',(12.5254793805031,0.748262769511161,0.));
#611=CARTESIAN_POINT('',(19.0954532431048,1.55321211247013,-1.53080849893419E-16));
#612=CARTESIAN_POINT('',(12.6105092406748,1.99536738536308,-1.53080849893419E-16));
#613=CARTESIAN_POINT('Origin',(19.0104233829331,0.306107496618202,0.));
#614=CARTESIAN_POINT('Origin',(0.131520889961654,-15.3538653092341,1.9));
#615=CARTESIAN_POINT('Origin',(19.1804831032765,2.80031672832205,1.9));
#616=CARTESIAN_POINT('Origin',(23.5,-2.91433543964104E-15,0.));
#617=CARTESIAN_POINT('',(23.2959283355879,-2.99305107804462,-3.67394039744206E-16));
#618=CARTESIAN_POINT('Origin',(23.5,-2.91433543964104E-15,0.));
#619=CARTESIAN_POINT('',(23.3597651620722,-2.0567776229413,1.9));
#620=CARTESIAN_POINT('',(23.3597651620722,-2.0567776229413,-1.9));
#621=CARTESIAN_POINT('',(23.3597651620722,-2.05677762294114,1.9));
#622=CARTESIAN_POINT('',(23.6402348379278,2.0567776229413,1.9));
#623=CARTESIAN_POINT('',(23.5,-2.9316826744008E-15,1.9));
#624=CARTESIAN_POINT('',(23.6402348379278,2.0567776229413,-1.9));
#625=CARTESIAN_POINT('',(23.6402348379278,2.05677762294113,1.9));
#626=CARTESIAN_POINT('',(23.5,-3.17454396103756E-15,-1.9));
#627=CARTESIAN_POINT('Origin',(27.4907347707262,-0.272095552549517,1.9));
#628=CARTESIAN_POINT('',(31.9271963529738,-1.0256263277955,-1.9));
#629=CARTESIAN_POINT('Origin',(27.4907347707262,-0.272095552549517,-1.9));
#630=CARTESIAN_POINT('',(31.9271963529738,-1.0256263277955,1.9));
#631=CARTESIAN_POINT('',(31.9271963529738,-1.0256263277955,1.9));
#632=CARTESIAN_POINT('Origin',(27.4907347707262,-0.272095552549517,1.9));
#633=CARTESIAN_POINT('Origin',(27.4907347707262,-0.272095552549517,1.9));
#634=CARTESIAN_POINT('',(29.7050619963408,-0.874117167115974,1.9));
#635=CARTESIAN_POINT('',(27.4601240210643,-0.721053214256216,1.9));
#636=CARTESIAN_POINT('',(29.7662834956644,0.023798156297416,1.9));
#637=CARTESIAN_POINT('Origin',(27.4907347707262,-0.272095552549517,1.9));
#638=CARTESIAN_POINT('',(31.9884178522974,-0.127711004382108,1.9));
#639=CARTESIAN_POINT('',(27.521345520388,0.176862109157174,1.9));
#640=CARTESIAN_POINT('Origin',(27.4907347707262,-0.272095552549517,1.9));
#641=CARTESIAN_POINT('Origin',(27.4907347707262,-0.272095552549517,-1.9));
#642=CARTESIAN_POINT('',(31.9884178522974,-0.127711004382108,-1.9));
#643=CARTESIAN_POINT('Origin',(27.4907347707262,-0.272095552549517,-1.9));
#644=CARTESIAN_POINT('',(29.1576684406057,0.0652946373241442,-1.9));
#645=CARTESIAN_POINT('',(27.521345520388,0.176862109157174,-1.9));
#646=CARTESIAN_POINT('',(29.0964469412821,-0.832620686089245,-1.9));
#647=CARTESIAN_POINT('Origin',(27.4907347707262,-0.272095552549517,-1.9));
#648=CARTESIAN_POINT('',(27.4601240210643,-0.721053214256216,-1.9));
#649=CARTESIAN_POINT('Origin',(27.4601240210643,-0.721053214256216,2.));
#650=CARTESIAN_POINT('',(29.4801745397956,-0.858783931442438,1.483383346043));
#651=CARTESIAN_POINT('Origin',(27.4601240210643,-0.721053214256216,5.55111512312578E-16));
#652=CARTESIAN_POINT('Ctrl Pts',(29.7050619963405,-0.874117167115954,1.90000000000015));
#653=CARTESIAN_POINT('Ctrl Pts',(29.6709053407588,-0.871788304235387,1.83658772669541));
#654=CARTESIAN_POINT('Ctrl Pts',(29.638122804057,-0.869553131278444,1.77578210055205));
#655=CARTESIAN_POINT('Ctrl Pts',(29.6065589758688,-0.867401052083797,1.71728894886789));
#656=CARTESIAN_POINT('Ctrl Pts',(29.5732613444749,-0.865130759034211,1.6555827644267));
#657=CARTESIAN_POINT('Ctrl Pts',(29.5413201044447,-0.862952947213967,1.59645030432534));
#658=CARTESIAN_POINT('Ctrl Pts',(29.5105798918755,-0.860857023629708,1.5395974957912));
#659=CARTESIAN_POINT('Ctrl Pts',(29.5003123111251,-0.860156961305816,1.5206080108877));
#660=CARTESIAN_POINT('Ctrl Pts',(29.4901789273948,-0.859466048778746,1.50187324228255));
#661=CARTESIAN_POINT('Ctrl Pts',(29.4801745397948,-0.858783931442388,1.4833833460434));
#662=CARTESIAN_POINT('Origin',(27.4907347707262,-0.272095552549517,1.9));
#663=CARTESIAN_POINT('',(31.9884178522974,-0.127711004382108,1.9));
#664=CARTESIAN_POINT('Origin',(27.521345520388,0.176862109157174,2.));
#665=CARTESIAN_POINT('',(29.5413960391192,0.0391313919709518,1.483383346043));
#666=CARTESIAN_POINT('Ctrl Pts',(29.7662834956641,0.0237981562974352,1.90000000000015));
#667=CARTESIAN_POINT('Ctrl Pts',(29.7321268400825,0.0261270191780026,1.83658772669541));
#668=CARTESIAN_POINT('Ctrl Pts',(29.6993443033806,0.028362192134946,1.77578210055205));
#669=CARTESIAN_POINT('Ctrl Pts',(29.6677804751925,0.0305142713295927,1.71728894886789));
#670=CARTESIAN_POINT('Ctrl Pts',(29.6344828437986,0.0327845643791782,1.6555827644267));
#671=CARTESIAN_POINT('Ctrl Pts',(29.6025416037683,0.0349623761994223,1.59645030432534));
#672=CARTESIAN_POINT('Ctrl Pts',(29.5718013911992,0.0370582997836819,1.5395974957912));
#673=CARTESIAN_POINT('Ctrl Pts',(29.5615338104488,0.0377583621075737,1.5206080108877));
#674=CARTESIAN_POINT('Ctrl Pts',(29.5514004267184,0.0384492746346436,1.50187324228255));
#675=CARTESIAN_POINT('Ctrl Pts',(29.5413960391185,0.0391313919710017,1.4833833460434));
#676=CARTESIAN_POINT('Origin',(27.521345520388,0.176862109157174,5.55111512312578E-16));
#677=CARTESIAN_POINT('Origin',(27.4907347707262,-0.272095552549517,1.91));
#678=CARTESIAN_POINT('Origin',(27.4907347707262,-0.272095552549517,1.483383346043));
#679=CARTESIAN_POINT('Origin',(27.4907347707262,-0.272095552549517,5.55111512312578E-16));
#680=CARTESIAN_POINT('Origin',(-2.0312725632818,-23.9458571899686,1.9));
#681=CARTESIAN_POINT('',(1.7759541456295,-21.5468939166038,-1.9));
#682=CARTESIAN_POINT('',(-3.91734064644079,-28.0315330441806,-1.9));
#683=CARTESIAN_POINT('Origin',(-2.0312725632818,-23.9458571899686,-1.9));
#684=CARTESIAN_POINT('',(1.7759541456295,-21.5468939166038,1.9));
#685=CARTESIAN_POINT('',(1.77595414562935,-21.5468939166037,1.9));
#686=CARTESIAN_POINT('',(-3.91734064644079,-28.0315330441806,1.9));
#687=CARTESIAN_POINT('Origin',(-2.0312725632818,-23.9458571899686,1.9));
#688=CARTESIAN_POINT('',(-3.91734064644079,-28.0315330441806,1.9));
#689=CARTESIAN_POINT('Origin',(-2.0312725632818,-23.9458571899686,1.9));
#690=CARTESIAN_POINT('',(-1.77595414562948,-19.4531060833961,1.9));
#691=CARTESIAN_POINT('',(8.74300631892311E-15,-20.5,1.9));
#692=CARTESIAN_POINT('',(-4.69265851418374,-27.5744967174422,1.9));
#693=CARTESIAN_POINT('Origin',(-2.0312725632818,-23.9458571899686,1.9));
#694=CARTESIAN_POINT('',(-3.5615984939426,-25.6557629278531,1.9));
#695=CARTESIAN_POINT('',(-2.41893149715327,-23.7173390265994,1.9));
#696=CARTESIAN_POINT('',(-2.78628062619965,-26.1127992545916,1.9));
#697=CARTESIAN_POINT('Origin',(-2.0312725632818,-23.9458571899686,1.9));
#698=CARTESIAN_POINT('',(-1.64361362941032,-24.1743753533378,1.9));
#699=CARTESIAN_POINT('Origin',(-2.0312725632818,-23.9458571899686,-1.9));
#700=CARTESIAN_POINT('',(-1.77595414562948,-19.4531060833961,-1.9));
#701=CARTESIAN_POINT('',(9.0205620750794E-15,-20.5,-1.9));
#702=CARTESIAN_POINT('',(-2.47649730709523,-25.5872818539412,-1.9));
#703=CARTESIAN_POINT('',(-1.64361362941032,-24.1743753533378,-1.9));
#704=CARTESIAN_POINT('',(-3.25181517483817,-25.1302455272027,-1.9));
#705=CARTESIAN_POINT('Origin',(-2.0312725632818,-23.9458571899686,-1.9));
#706=CARTESIAN_POINT('',(-4.69265851418374,-27.5744967174422,-1.9));
#707=CARTESIAN_POINT('',(-2.41893149715327,-23.7173390265994,-1.9));
#708=CARTESIAN_POINT('Origin',(-2.0312725632818,-23.9458571899686,-1.9));
#709=CARTESIAN_POINT('Origin',(-1.64361362941032,-24.1743753533378,2.));
#710=CARTESIAN_POINT('',(-2.67181355520878,-25.9186169539399,1.483383346043));
#711=CARTESIAN_POINT('Ctrl Pts',(-2.7862806261995,-26.1127992545913,1.90000000000015));
#712=CARTESIAN_POINT('Ctrl Pts',(-2.76889498638063,-26.0833062003085,1.8365877266954));
#713=CARTESIAN_POINT('Ctrl Pts',(-2.7522087691342,-26.0549996486859,1.77578210055204));
#714=CARTESIAN_POINT('Ctrl Pts',(-2.73614287102916,-26.0277454084135,1.71728894886788));
#715=CARTESIAN_POINT('Ctrl Pts',(-2.71919447206041,-25.9989940908894,1.65558276442671));
#716=CARTESIAN_POINT('Ctrl Pts',(-2.70293647240918,-25.9714139689474,1.59645030432535));
#717=CARTESIAN_POINT('Ctrl Pts',(-2.68728979229424,-25.944870891397,1.53959749579122));
#718=CARTESIAN_POINT('Ctrl Pts',(-2.68206362311291,-25.9360052014965,1.52060801088772));
#719=CARTESIAN_POINT('Ctrl Pts',(-2.67690575983027,-25.9272553859382,1.50187324228256));
#720=CARTESIAN_POINT('Ctrl Pts',(-2.6718135552084,-25.9186169539393,1.4833833460434));
#721=CARTESIAN_POINT('Origin',(-1.64361362941032,-24.1743753533378,0.));
#722=CARTESIAN_POINT('Origin',(-2.0312725632818,-23.9458571899686,1.9));
#723=CARTESIAN_POINT('',(-4.69265851418374,-27.5744967174422,1.9));
#724=CARTESIAN_POINT('',(-1.77595414562933,-19.4531060833962,1.9));
#725=CARTESIAN_POINT('Origin',(-2.41893149715327,-23.7173390265994,2.));
#726=CARTESIAN_POINT('',(-3.44713142295172,-25.4615806272015,1.483383346043));
#727=CARTESIAN_POINT('Origin',(-2.41893149715327,-23.7173390265994,0.));
#728=CARTESIAN_POINT('Ctrl Pts',(-3.56159849394246,-25.6557629278529,1.90000000000015));
#729=CARTESIAN_POINT('Ctrl Pts',(-3.54421285412359,-25.6262698735701,1.8365877266954));
#730=CARTESIAN_POINT('Ctrl Pts',(-3.52752663687715,-25.5979633219475,1.77578210055204));
#731=CARTESIAN_POINT('Ctrl Pts',(-3.51146073877211,-25.5707090816751,1.71728894886788));
#732=CARTESIAN_POINT('Ctrl Pts',(-3.49451233980336,-25.541957764151,1.65558276442671));
#733=CARTESIAN_POINT('Ctrl Pts',(-3.47825434015213,-25.514377642209,1.59645030432535));
#734=CARTESIAN_POINT('Ctrl Pts',(-3.46260766003719,-25.4878345646586,1.53959749579122));
#735=CARTESIAN_POINT('Ctrl Pts',(-3.45738149085586,-25.4789688747581,1.52060801088772));
#736=CARTESIAN_POINT('Ctrl Pts',(-3.45222362757322,-25.4702190591998,1.50187324228256));
#737=CARTESIAN_POINT('Ctrl Pts',(-3.44713142295135,-25.4615806272009,1.4833833460434));
#738=CARTESIAN_POINT('Origin',(-2.0312725632818,-23.9458571899686,1.91));
#739=CARTESIAN_POINT('Origin',(-2.0312725632818,-23.9458571899686,1.483383346043));
#740=CARTESIAN_POINT('Origin',(-2.0312725632818,-23.9458571899686,0.));
#741=CARTESIAN_POINT('Origin',(8.88178419700125E-15,-20.5,0.));
#742=CARTESIAN_POINT('',(2.58439289247648,-22.0234544224613,-3.67394039744206E-16));
#743=CARTESIAN_POINT('Origin',(8.88178419700125E-15,-20.5,0.));
#744=CARTESIAN_POINT('Origin',(12.5254793805031,0.74826276951117,0.));
#745=CARTESIAN_POINT('',(14.1693002620315,-2.37078098212032,-3.67394039744206E-16));
#746=CARTESIAN_POINT('',(15.1098722729795,-0.775191652950188,-3.67394039744206E-16));
#747=CARTESIAN_POINT('',(12.5254793805031,0.748262769511173,3.));
#748=CARTESIAN_POINT('Origin',(12.5254793805031,0.748262769511162,0.));
#749=CARTESIAN_POINT('',(12.5254793805031,0.748262769511173,-3.));
#750=CARTESIAN_POINT('Origin',(12.5254793805031,0.748262769511166,0.));
#751=CARTESIAN_POINT('Origin',(12.5254793805031,0.748262769511162,0.));
#752=CARTESIAN_POINT('Origin',(23.5,-2.91433543964104E-15,0.));
#753=CARTESIAN_POINT('',(23.2959283355879,-2.99305107804462,-3.67394039744206E-16));
#754=UNCERTAINTY_MEASURE_WITH_UNIT(LENGTH_MEASURE(0.01),#758,
'DISTANCE_ACCURACY_VALUE',
'Maximum model space distance between geometric entities at asserted c
onnectivities');
#755=UNCERTAINTY_MEASURE_WITH_UNIT(LENGTH_MEASURE(0.01),#758,
'DISTANCE_ACCURACY_VALUE',
'Maximum model space distance between geometric entities at asserted c
onnectivities');
#756=(
GEOMETRIC_REPRESENTATION_CONTEXT(3)
GLOBAL_UNCERTAINTY_ASSIGNED_CONTEXT((#754))
GLOBAL_UNIT_ASSIGNED_CONTEXT((#758,#760,#761))
REPRESENTATION_CONTEXT('','3D')
);
#757=(
GEOMETRIC_REPRESENTATION_CONTEXT(3)
GLOBAL_UNCERTAINTY_ASSIGNED_CONTEXT((#755))
GLOBAL_UNIT_ASSIGNED_CONTEXT((#758,#760,#761))
REPRESENTATION_CONTEXT('','3D')
);
#758=(
LENGTH_UNIT()
NAMED_UNIT(*)
SI_UNIT(.MILLI.,.METRE.)
);
#759=(
LENGTH_UNIT()
NAMED_UNIT(*)
SI_UNIT($,.METRE.)
);
#760=(
NAMED_UNIT(*)
PLANE_ANGLE_UNIT()
SI_UNIT($,.RADIAN.)
);
#761=(
NAMED_UNIT(*)
SI_UNIT($,.STERADIAN.)
SOLID_ANGLE_UNIT()
);
#762=SHAPE_DEFINITION_REPRESENTATION(#763,#764);
#763=PRODUCT_DEFINITION_SHAPE('',$,#766);
#764=SHAPE_REPRESENTATION('',(#416),#756);
#765=PRODUCT_DEFINITION_CONTEXT('part definition',#770,'design');
#766=PRODUCT_DEFINITION('2026-07-09-19-22-44-277',
'\X2\221A524D8F6E8F6C541162C96746\X0\_\X2\53F3\X0\(Phi6 L11)',#767,#765);
#767=PRODUCT_DEFINITION_FORMATION('',$,#772);
#768=PRODUCT_RELATED_PRODUCT_CATEGORY(
'\X2\221A524D8F6E8F6C541162C96746\X0\_\X2\53F3\X0\(Phi6 L11)',
'\X2\221A524D8F6E8F6C541162C96746\X0\_\X2\53F3\X0\(Phi6 L11)',(#772));
#769=APPLICATION_PROTOCOL_DEFINITION('international standard',
'automotive_design',2009,#770);
#770=APPLICATION_CONTEXT(
'Core Data for Automotive Mechanical Design Process');
#771=PRODUCT_CONTEXT('part definition',#770,'mechanical');
#772=PRODUCT('2026-07-09-19-22-44-277',
'\X2\221A524D8F6E8F6C541162C96746\X0\_\X2\53F3\X0\(Phi6 L11)',$,(#771));
#773=PRESENTATION_STYLE_ASSIGNMENT((#774));
#774=SURFACE_STYLE_USAGE(.BOTH.,#775);
#775=SURFACE_SIDE_STYLE('',(#776));
#776=SURFACE_STYLE_FILL_AREA(#777);
#777=FILL_AREA_STYLE('\X2\94A2\X0\ - \X2\7F0E5149\X0\',(#778));
#778=FILL_AREA_STYLE_COLOUR('\X2\94A2\X0\ - \X2\7F0E5149\X0\',#779);
#779=COLOUR_RGB('\X2\94A2\X0\ - \X2\7F0E5149\X0\',0.627450980392157,0.627450980392157,
0.627450980392157);
ENDSEC;
END-ISO-10303-21;
