ISO-10303-21;
HEADER;
/* Generated by software containing ST-Developer
 * from STEP Tools, Inc. (www.steptools.com) 
 */

FILE_DESCRIPTION(
/* description */ (''),
/* implementation_level */ '2;1');

FILE_NAME(
/* name */ '',
/* time_stamp */ '2026-08-11T12:10:47+09:00',
/* author */ (''),
/* organization */ (''),
/* preprocessor_version */ 'ST-DEVELOPER v20.1',
/* originating_system */ 'Autodesk Translation Framework v15.8.0.0',
/* authorisation */ '');

FILE_SCHEMA (('AUTOMOTIVE_DESIGN { 1 0 10303 214 3 1 1 }'));
ENDSEC;

DATA;
#10=MECHANICAL_DESIGN_GEOMETRIC_PRESENTATION_REPRESENTATION('',(#13),#2012);
#11=SHAPE_REPRESENTATION_RELATIONSHIP('SRR','None',#2019,#12);
#12=ADVANCED_BREP_SHAPE_REPRESENTATION('',(#14),#2011);
#13=STYLED_ITEM('',(#2028),#14);
#14=MANIFOLD_SOLID_BREP('\X2\5B9E4F53\X0\1',#1180);
#15=FACE_BOUND('',#135,.T.);
#16=FACE_BOUND('',#137,.T.);
#17=FACE_BOUND('',#138,.T.);
#18=FACE_BOUND('',#139,.T.);
#19=FACE_BOUND('',#153,.T.);
#20=FACE_BOUND('',#156,.T.);
#21=FACE_BOUND('',#164,.T.);
#22=FACE_BOUND('',#181,.T.);
#23=FACE_BOUND('',#182,.T.);
#24=FACE_BOUND('',#184,.T.);
#25=FACE_BOUND('',#185,.T.);
#26=FACE_BOUND('',#190,.T.);
#27=FACE_BOUND('',#196,.T.);
#28=FACE_BOUND('',#202,.T.);
#29=FACE_BOUND('',#208,.T.);
#30=FACE_BOUND('',#209,.T.);
#31=CYLINDRICAL_SURFACE('',#1198,0.199990923670283);
#32=CYLINDRICAL_SURFACE('',#1201,0.200000000000001);
#33=CYLINDRICAL_SURFACE('',#1204,1.5);
#34=CYLINDRICAL_SURFACE('',#1208,1.5);
#35=CYLINDRICAL_SURFACE('',#1215,2.1);
#36=CYLINDRICAL_SURFACE('',#1218,2.1);
#37=CYLINDRICAL_SURFACE('',#1232,14.6);
#38=CYLINDRICAL_SURFACE('',#1239,2.555);
#39=CYLINDRICAL_SURFACE('',#1243,5.5);
#40=CYLINDRICAL_SURFACE('',#1249,2.);
#41=CYLINDRICAL_SURFACE('',#1253,2.);
#42=CYLINDRICAL_SURFACE('',#1258,1.3);
#43=CYLINDRICAL_SURFACE('',#1261,1.3);
#44=CYLINDRICAL_SURFACE('',#1266,3.35);
#45=CYLINDRICAL_SURFACE('',#1271,4.9);
#46=CYLINDRICAL_SURFACE('',#1275,4.9);
#47=CYLINDRICAL_SURFACE('',#1283,6.);
#48=CYLINDRICAL_SURFACE('',#1287,7.8);
#49=CYLINDRICAL_SURFACE('',#1291,9.35);
#50=CYLINDRICAL_SURFACE('',#1294,9.34999999999999);
#51=CYLINDRICAL_SURFACE('',#1300,10.2);
#52=CYLINDRICAL_SURFACE('',#1303,10.2);
#53=CYLINDRICAL_SURFACE('',#1308,14.6);
#54=FACE_OUTER_BOUND('',#125,.T.);
#55=FACE_OUTER_BOUND('',#126,.T.);
#56=FACE_OUTER_BOUND('',#127,.T.);
#57=FACE_OUTER_BOUND('',#128,.T.);
#58=FACE_OUTER_BOUND('',#129,.T.);
#59=FACE_OUTER_BOUND('',#130,.T.);
#60=FACE_OUTER_BOUND('',#131,.T.);
#61=FACE_OUTER_BOUND('',#132,.T.);
#62=FACE_OUTER_BOUND('',#133,.T.);
#63=FACE_OUTER_BOUND('',#134,.T.);
#64=FACE_OUTER_BOUND('',#136,.T.);
#65=FACE_OUTER_BOUND('',#140,.T.);
#66=FACE_OUTER_BOUND('',#141,.T.);
#67=FACE_OUTER_BOUND('',#142,.T.);
#68=FACE_OUTER_BOUND('',#143,.T.);
#69=FACE_OUTER_BOUND('',#144,.T.);
#70=FACE_OUTER_BOUND('',#145,.T.);
#71=FACE_OUTER_BOUND('',#146,.T.);
#72=FACE_OUTER_BOUND('',#147,.T.);
#73=FACE_OUTER_BOUND('',#148,.T.);
#74=FACE_OUTER_BOUND('',#149,.T.);
#75=FACE_OUTER_BOUND('',#150,.T.);
#76=FACE_OUTER_BOUND('',#151,.T.);
#77=FACE_OUTER_BOUND('',#152,.T.);
#78=FACE_OUTER_BOUND('',#154,.T.);
#79=FACE_OUTER_BOUND('',#155,.T.);
#80=FACE_OUTER_BOUND('',#157,.T.);
#81=FACE_OUTER_BOUND('',#158,.T.);
#82=FACE_OUTER_BOUND('',#159,.T.);
#83=FACE_OUTER_BOUND('',#160,.T.);
#84=FACE_OUTER_BOUND('',#161,.T.);
#85=FACE_OUTER_BOUND('',#162,.T.);
#86=FACE_OUTER_BOUND('',#163,.T.);
#87=FACE_OUTER_BOUND('',#165,.T.);
#88=FACE_OUTER_BOUND('',#166,.T.);
#89=FACE_OUTER_BOUND('',#167,.T.);
#90=FACE_OUTER_BOUND('',#168,.T.);
#91=FACE_OUTER_BOUND('',#169,.T.);
#92=FACE_OUTER_BOUND('',#170,.T.);
#93=FACE_OUTER_BOUND('',#171,.T.);
#94=FACE_OUTER_BOUND('',#172,.T.);
#95=FACE_OUTER_BOUND('',#173,.T.);
#96=FACE_OUTER_BOUND('',#174,.T.);
#97=FACE_OUTER_BOUND('',#175,.T.);
#98=FACE_OUTER_BOUND('',#176,.T.);
#99=FACE_OUTER_BOUND('',#177,.T.);
#100=FACE_OUTER_BOUND('',#178,.T.);
#101=FACE_OUTER_BOUND('',#179,.T.);
#102=FACE_OUTER_BOUND('',#180,.T.);
#103=FACE_OUTER_BOUND('',#183,.T.);
#104=FACE_OUTER_BOUND('',#186,.T.);
#105=FACE_OUTER_BOUND('',#187,.T.);
#106=FACE_OUTER_BOUND('',#188,.T.);
#107=FACE_OUTER_BOUND('',#189,.T.);
#108=FACE_OUTER_BOUND('',#191,.T.);
#109=FACE_OUTER_BOUND('',#192,.T.);
#110=FACE_OUTER_BOUND('',#193,.T.);
#111=FACE_OUTER_BOUND('',#194,.T.);
#112=FACE_OUTER_BOUND('',#195,.T.);
#113=FACE_OUTER_BOUND('',#197,.T.);
#114=FACE_OUTER_BOUND('',#198,.T.);
#115=FACE_OUTER_BOUND('',#199,.T.);
#116=FACE_OUTER_BOUND('',#200,.T.);
#117=FACE_OUTER_BOUND('',#201,.T.);
#118=FACE_OUTER_BOUND('',#203,.T.);
#119=FACE_OUTER_BOUND('',#204,.T.);
#120=FACE_OUTER_BOUND('',#205,.T.);
#121=FACE_OUTER_BOUND('',#206,.T.);
#122=FACE_OUTER_BOUND('',#207,.T.);
#123=FACE_OUTER_BOUND('',#210,.T.);
#124=FACE_OUTER_BOUND('',#211,.T.);
#125=EDGE_LOOP('',(#743,#744,#745,#746));
#126=EDGE_LOOP('',(#747,#748,#749,#750));
#127=EDGE_LOOP('',(#751,#752,#753,#754));
#128=EDGE_LOOP('',(#755,#756,#757,#758));
#129=EDGE_LOOP('',(#759,#760,#761,#762));
#130=EDGE_LOOP('',(#763,#764,#765,#766));
#131=EDGE_LOOP('',(#767,#768,#769,#770));
#132=EDGE_LOOP('',(#771,#772,#773,#774));
#133=EDGE_LOOP('',(#775,#776,#777,#778));
#134=EDGE_LOOP('',(#779,#780,#781,#782));
#135=EDGE_LOOP('',(#783,#784,#785,#786));
#136=EDGE_LOOP('',(#787,#788,#789,#790));
#137=EDGE_LOOP('',(#791));
#138=EDGE_LOOP('',(#792));
#139=EDGE_LOOP('',(#793,#794,#795,#796));
#140=EDGE_LOOP('',(#797,#798,#799,#800));
#141=EDGE_LOOP('',(#801));
#142=EDGE_LOOP('',(#802,#803,#804,#805));
#143=EDGE_LOOP('',(#806));
#144=EDGE_LOOP('',(#807,#808,#809,#810));
#145=EDGE_LOOP('',(#811,#812,#813,#814,#815));
#146=EDGE_LOOP('',(#816,#817,#818,#819));
#147=EDGE_LOOP('',(#820,#821,#822,#823));
#148=EDGE_LOOP('',(#824,#825,#826,#827));
#149=EDGE_LOOP('',(#828,#829,#830,#831));
#150=EDGE_LOOP('',(#832,#833,#834,#835));
#151=EDGE_LOOP('',(#836,#837,#838,#839,#840));
#152=EDGE_LOOP('',(#841,#842,#843,#844));
#153=EDGE_LOOP('',(#845,#846,#847,#848));
#154=EDGE_LOOP('',(#849,#850,#851,#852,#853,#854,#855,#856,#857,#858,#859,
#860));
#155=EDGE_LOOP('',(#861,#862,#863,#864,#865,#866,#867,#868));
#156=EDGE_LOOP('',(#869,#870,#871,#872));
#157=EDGE_LOOP('',(#873,#874,#875,#876));
#158=EDGE_LOOP('',(#877));
#159=EDGE_LOOP('',(#878,#879,#880,#881));
#160=EDGE_LOOP('',(#882,#883,#884,#885));
#161=EDGE_LOOP('',(#886,#887,#888,#889));
#162=EDGE_LOOP('',(#890,#891,#892,#893));
#163=EDGE_LOOP('',(#894,#895,#896,#897));
#164=EDGE_LOOP('',(#898));
#165=EDGE_LOOP('',(#899,#900,#901,#902));
#166=EDGE_LOOP('',(#903));
#167=EDGE_LOOP('',(#904,#905,#906,#907));
#168=EDGE_LOOP('',(#908));
#169=EDGE_LOOP('',(#909,#910,#911,#912));
#170=EDGE_LOOP('',(#913,#914,#915,#916));
#171=EDGE_LOOP('',(#917,#918,#919,#920));
#172=EDGE_LOOP('',(#921,#922,#923,#924));
#173=EDGE_LOOP('',(#925,#926,#927,#928));
#174=EDGE_LOOP('',(#929,#930,#931,#932));
#175=EDGE_LOOP('',(#933));
#176=EDGE_LOOP('',(#934,#935,#936,#937));
#177=EDGE_LOOP('',(#938,#939,#940,#941));
#178=EDGE_LOOP('',(#942,#943,#944,#945));
#179=EDGE_LOOP('',(#946,#947,#948,#949));
#180=EDGE_LOOP('',(#950,#951,#952,#953));
#181=EDGE_LOOP('',(#954));
#182=EDGE_LOOP('',(#955,#956,#957,#958));
#183=EDGE_LOOP('',(#959,#960,#961,#962));
#184=EDGE_LOOP('',(#963,#964,#965,#966));
#185=EDGE_LOOP('',(#967));
#186=EDGE_LOOP('',(#968,#969,#970,#971));
#187=EDGE_LOOP('',(#972));
#188=EDGE_LOOP('',(#973,#974,#975,#976));
#189=EDGE_LOOP('',(#977));
#190=EDGE_LOOP('',(#978));
#191=EDGE_LOOP('',(#979,#980,#981,#982));
#192=EDGE_LOOP('',(#983,#984,#985,#986));
#193=EDGE_LOOP('',(#987,#988,#989,#990));
#194=EDGE_LOOP('',(#991,#992,#993,#994));
#195=EDGE_LOOP('',(#995,#996,#997,#998));
#196=EDGE_LOOP('',(#999,#1000,#1001,#1002));
#197=EDGE_LOOP('',(#1003,#1004,#1005,#1006));
#198=EDGE_LOOP('',(#1007,#1008,#1009,#1010));
#199=EDGE_LOOP('',(#1011,#1012,#1013,#1014));
#200=EDGE_LOOP('',(#1015,#1016,#1017,#1018));
#201=EDGE_LOOP('',(#1019,#1020,#1021,#1022));
#202=EDGE_LOOP('',(#1023,#1024,#1025,#1026));
#203=EDGE_LOOP('',(#1027,#1028,#1029,#1030));
#204=EDGE_LOOP('',(#1031,#1032,#1033,#1034,#1035,#1036,#1037,#1038));
#205=EDGE_LOOP('',(#1039,#1040));
#206=EDGE_LOOP('',(#1041,#1042,#1043,#1044));
#207=EDGE_LOOP('',(#1045,#1046,#1047,#1048,#1049,#1050,#1051,#1052));
#208=EDGE_LOOP('',(#1053));
#209=EDGE_LOOP('',(#1054));
#210=EDGE_LOOP('',(#1055,#1056));
#211=EDGE_LOOP('',(#1057,#1058,#1059,#1060));
#212=LINE('',#1678,#319);
#213=LINE('',#1681,#320);
#214=LINE('',#1684,#321);
#215=LINE('',#1686,#322);
#216=LINE('',#1687,#323);
#217=LINE('',#1690,#324);
#218=LINE('',#1694,#325);
#219=LINE('',#1695,#326);
#220=LINE('',#1701,#327);
#221=LINE('',#1703,#328);
#222=LINE('',#1705,#329);
#223=LINE('',#1706,#330);
#224=LINE('',#1711,#331);
#225=LINE('',#1715,#332);
#226=LINE('',#1717,#333);
#227=LINE('',#1718,#334);
#228=LINE('',#1726,#335);
#229=LINE('',#1728,#336);
#230=LINE('',#1730,#337);
#231=LINE('',#1731,#338);
#232=LINE('',#1738,#339);
#233=LINE('',#1743,#340);
#234=LINE('',#1749,#341);
#235=LINE('',#1751,#342);
#236=LINE('',#1753,#343);
#237=LINE('',#1754,#344);
#238=LINE('',#1759,#345);
#239=LINE('',#1761,#346);
#240=LINE('',#1762,#347);
#241=LINE('',#1765,#348);
#242=LINE('',#1767,#349);
#243=LINE('',#1768,#350);
#244=LINE('',#1771,#351);
#245=LINE('',#1772,#352);
#246=LINE('',#1775,#353);
#247=LINE('',#1776,#354);
#248=LINE('',#1778,#355);
#249=LINE('',#1781,#356);
#250=LINE('',#1783,#357);
#251=LINE('',#1784,#358);
#252=LINE('',#1788,#359);
#253=LINE('',#1789,#360);
#254=LINE('',#1793,#361);
#255=LINE('',#1797,#362);
#256=LINE('',#1801,#363);
#257=LINE('',#1805,#364);
#258=LINE('',#1808,#365);
#259=LINE('',#1811,#366);
#260=LINE('',#1813,#367);
#261=LINE('',#1814,#368);
#262=LINE('',#1819,#369);
#263=LINE('',#1821,#370);
#264=LINE('',#1822,#371);
#265=LINE('',#1827,#372);
#266=LINE('',#1832,#373);
#267=LINE('',#1835,#374);
#268=LINE('',#1838,#375);
#269=LINE('',#1839,#376);
#270=LINE('',#1842,#377);
#271=LINE('',#1843,#378);
#272=LINE('',#1845,#379);
#273=LINE('',#1851,#380);
#274=LINE('',#1858,#381);
#275=LINE('',#1864,#382);
#276=LINE('',#1866,#383);
#277=LINE('',#1868,#384);
#278=LINE('',#1869,#385);
#279=LINE('',#1875,#386);
#280=LINE('',#1880,#387);
#281=LINE('',#1883,#388);
#282=LINE('',#1884,#389);
#283=LINE('',#1890,#390);
#284=LINE('',#1896,#391);
#285=LINE('',#1898,#392);
#286=LINE('',#1900,#393);
#287=LINE('',#1901,#394);
#288=LINE('',#1906,#395);
#289=LINE('',#1910,#396);
#290=LINE('',#1912,#397);
#291=LINE('',#1913,#398);
#292=LINE('',#1921,#399);
#293=LINE('',#1925,#400);
#294=LINE('',#1933,#401);
#295=LINE('',#1938,#402);
#296=LINE('',#1943,#403);
#297=LINE('',#1945,#404);
#298=LINE('',#1946,#405);
#299=LINE('',#1949,#406);
#300=LINE('',#1953,#407);
#301=LINE('',#1954,#408);
#302=LINE('',#1962,#409);
#303=LINE('',#1965,#410);
#304=LINE('',#1968,#411);
#305=LINE('',#1970,#412);
#306=LINE('',#1971,#413);
#307=LINE('',#1974,#414);
#308=LINE('',#1978,#415);
#309=LINE('',#1979,#416);
#310=LINE('',#1985,#417);
#311=LINE('',#1988,#418);
#312=LINE('',#1989,#419);
#313=LINE('',#1994,#420);
#314=LINE('',#1998,#421);
#315=LINE('',#2001,#422);
#316=LINE('',#2003,#423);
#317=LINE('',#2005,#424);
#318=LINE('',#2007,#425);
#319=VECTOR('',#1323,10.);
#320=VECTOR('',#1326,10.);
#321=VECTOR('',#1329,10.);
#322=VECTOR('',#1330,10.);
#323=VECTOR('',#1331,10.);
#324=VECTOR('',#1334,10.);
#325=VECTOR('',#1339,10.);
#326=VECTOR('',#1340,10.);
#327=VECTOR('',#1347,10.);
#328=VECTOR('',#1348,10.);
#329=VECTOR('',#1349,10.);
#330=VECTOR('',#1350,10.);
#331=VECTOR('',#1355,10.);
#332=VECTOR('',#1360,10.);
#333=VECTOR('',#1361,10.);
#334=VECTOR('',#1362,10.);
#335=VECTOR('',#1373,10.);
#336=VECTOR('',#1374,10.);
#337=VECTOR('',#1375,10.);
#338=VECTOR('',#1376,10.);
#339=VECTOR('',#1383,2.1);
#340=VECTOR('',#1390,2.1);
#341=VECTOR('',#1397,10.);
#342=VECTOR('',#1398,10.);
#343=VECTOR('',#1399,10.);
#344=VECTOR('',#1400,10.);
#345=VECTOR('',#1405,10.);
#346=VECTOR('',#1406,10.);
#347=VECTOR('',#1407,10.);
#348=VECTOR('',#1410,10.);
#349=VECTOR('',#1411,10.);
#350=VECTOR('',#1412,10.);
#351=VECTOR('',#1415,10.);
#352=VECTOR('',#1416,10.);
#353=VECTOR('',#1419,10.);
#354=VECTOR('',#1420,10.);
#355=VECTOR('',#1423,10.);
#356=VECTOR('',#1426,10.);
#357=VECTOR('',#1427,10.);
#358=VECTOR('',#1428,10.);
#359=VECTOR('',#1433,10.);
#360=VECTOR('',#1434,10.);
#361=VECTOR('',#1439,10.);
#362=VECTOR('',#1442,10.);
#363=VECTOR('',#1445,10.);
#364=VECTOR('',#1448,10.);
#365=VECTOR('',#1451,10.);
#366=VECTOR('',#1454,10.);
#367=VECTOR('',#1455,10.);
#368=VECTOR('',#1456,10.);
#369=VECTOR('',#1459,10.);
#370=VECTOR('',#1460,10.);
#371=VECTOR('',#1461,10.);
#372=VECTOR('',#1466,2.555);
#373=VECTOR('',#1473,10.);
#374=VECTOR('',#1476,10.);
#375=VECTOR('',#1479,10.);
#376=VECTOR('',#1480,10.);
#377=VECTOR('',#1483,10.);
#378=VECTOR('',#1484,10.);
#379=VECTOR('',#1487,10.);
#380=VECTOR('',#1494,2.);
#381=VECTOR('',#1503,2.);
#382=VECTOR('',#1510,10.);
#383=VECTOR('',#1511,10.);
#384=VECTOR('',#1512,10.);
#385=VECTOR('',#1513,10.);
#386=VECTOR('',#1520,10.);
#387=VECTOR('',#1525,10.);
#388=VECTOR('',#1530,10.);
#389=VECTOR('',#1531,10.);
#390=VECTOR('',#1538,3.35);
#391=VECTOR('',#1545,10.);
#392=VECTOR('',#1546,10.);
#393=VECTOR('',#1547,10.);
#394=VECTOR('',#1548,10.);
#395=VECTOR('',#1553,10.);
#396=VECTOR('',#1558,10.);
#397=VECTOR('',#1559,10.);
#398=VECTOR('',#1560,10.);
#399=VECTOR('',#1571,10.);
#400=VECTOR('',#1574,10.);
#401=VECTOR('',#1583,6.);
#402=VECTOR('',#1590,7.8);
#403=VECTOR('',#1597,10.);
#404=VECTOR('',#1598,10.);
#405=VECTOR('',#1599,10.);
#406=VECTOR('',#1602,10.);
#407=VECTOR('',#1607,10.);
#408=VECTOR('',#1608,10.);
#409=VECTOR('',#1617,10.);
#410=VECTOR('',#1620,10.);
#411=VECTOR('',#1623,10.);
#412=VECTOR('',#1624,10.);
#413=VECTOR('',#1625,10.);
#414=VECTOR('',#1628,10.);
#415=VECTOR('',#1633,10.);
#416=VECTOR('',#1634,10.);
#417=VECTOR('',#1643,10.);
#418=VECTOR('',#1646,10.);
#419=VECTOR('',#1647,10.);
#420=VECTOR('',#1652,10.);
#421=VECTOR('',#1655,10.);
#422=VECTOR('',#1660,10.);
#423=VECTOR('',#1663,10.);
#424=VECTOR('',#1666,10.);
#425=VECTOR('',#1669,10.);
#426=CIRCLE('',#1195,0.199990923670283);
#427=CIRCLE('',#1196,0.200000000000001);
#428=CIRCLE('',#1199,0.199990923670283);
#429=CIRCLE('',#1202,0.200000000000001);
#430=CIRCLE('',#1205,1.5);
#431=CIRCLE('',#1206,1.5);
#432=CIRCLE('',#1209,1.5);
#433=CIRCLE('',#1210,1.5);
#434=CIRCLE('',#1213,2.1);
#435=CIRCLE('',#1214,2.1);
#436=CIRCLE('',#1216,2.1);
#437=CIRCLE('',#1219,2.1);
#438=CIRCLE('',#1223,14.6);
#439=CIRCLE('',#1230,14.6);
#440=CIRCLE('',#1233,14.6);
#441=CIRCLE('',#1234,14.6);
#442=CIRCLE('',#1235,14.6);
#443=CIRCLE('',#1236,14.6);
#444=CIRCLE('',#1238,5.5);
#445=CIRCLE('',#1240,2.555);
#446=CIRCLE('',#1241,2.555);
#447=CIRCLE('',#1244,5.5);
#448=CIRCLE('',#1250,2.);
#449=CIRCLE('',#1251,2.);
#450=CIRCLE('',#1254,2.);
#451=CIRCLE('',#1255,2.);
#452=CIRCLE('',#1259,1.3);
#453=CIRCLE('',#1260,1.3);
#454=CIRCLE('',#1262,1.3);
#455=CIRCLE('',#1263,1.3);
#456=CIRCLE('',#1267,3.35);
#457=CIRCLE('',#1268,3.35);
#458=CIRCLE('',#1272,4.9);
#459=CIRCLE('',#1273,4.9);
#460=CIRCLE('',#1276,4.9);
#461=CIRCLE('',#1277,4.9);
#462=CIRCLE('',#1280,9.34999999999999);
#463=CIRCLE('',#1281,9.35);
#464=CIRCLE('',#1282,7.8);
#465=CIRCLE('',#1284,6.);
#466=CIRCLE('',#1285,6.);
#467=CIRCLE('',#1288,7.8);
#468=CIRCLE('',#1292,9.35);
#469=CIRCLE('',#1295,9.34999999999999);
#470=CIRCLE('',#1297,10.2);
#471=CIRCLE('',#1298,10.2);
#472=CIRCLE('',#1301,10.2);
#473=CIRCLE('',#1304,10.2);
#474=CIRCLE('',#1306,14.6);
#475=CIRCLE('',#1309,14.6);
#476=CIRCLE('',#1310,14.6);
#477=CIRCLE('',#1311,14.6);
#478=VERTEX_POINT('',#1674);
#479=VERTEX_POINT('',#1675);
#480=VERTEX_POINT('',#1677);
#481=VERTEX_POINT('',#1679);
#482=VERTEX_POINT('',#1683);
#483=VERTEX_POINT('',#1685);
#484=VERTEX_POINT('',#1689);
#485=VERTEX_POINT('',#1693);
#486=VERTEX_POINT('',#1699);
#487=VERTEX_POINT('',#1700);
#488=VERTEX_POINT('',#1702);
#489=VERTEX_POINT('',#1704);
#490=VERTEX_POINT('',#1708);
#491=VERTEX_POINT('',#1710);
#492=VERTEX_POINT('',#1714);
#493=VERTEX_POINT('',#1716);
#494=VERTEX_POINT('',#1724);
#495=VERTEX_POINT('',#1725);
#496=VERTEX_POINT('',#1727);
#497=VERTEX_POINT('',#1729);
#498=VERTEX_POINT('',#1732);
#499=VERTEX_POINT('',#1734);
#500=VERTEX_POINT('',#1737);
#501=VERTEX_POINT('',#1742);
#502=VERTEX_POINT('',#1747);
#503=VERTEX_POINT('',#1748);
#504=VERTEX_POINT('',#1750);
#505=VERTEX_POINT('',#1752);
#506=VERTEX_POINT('',#1756);
#507=VERTEX_POINT('',#1758);
#508=VERTEX_POINT('',#1760);
#509=VERTEX_POINT('',#1764);
#510=VERTEX_POINT('',#1766);
#511=VERTEX_POINT('',#1770);
#512=VERTEX_POINT('',#1774);
#513=VERTEX_POINT('',#1780);
#514=VERTEX_POINT('',#1782);
#515=VERTEX_POINT('',#1786);
#516=VERTEX_POINT('',#1792);
#517=VERTEX_POINT('',#1794);
#518=VERTEX_POINT('',#1796);
#519=VERTEX_POINT('',#1798);
#520=VERTEX_POINT('',#1800);
#521=VERTEX_POINT('',#1802);
#522=VERTEX_POINT('',#1804);
#523=VERTEX_POINT('',#1806);
#524=VERTEX_POINT('',#1810);
#525=VERTEX_POINT('',#1812);
#526=VERTEX_POINT('',#1815);
#527=VERTEX_POINT('',#1816);
#528=VERTEX_POINT('',#1818);
#529=VERTEX_POINT('',#1820);
#530=VERTEX_POINT('',#1824);
#531=VERTEX_POINT('',#1826);
#532=VERTEX_POINT('',#1831);
#533=VERTEX_POINT('',#1833);
#534=VERTEX_POINT('',#1837);
#535=VERTEX_POINT('',#1841);
#536=VERTEX_POINT('',#1848);
#537=VERTEX_POINT('',#1850);
#538=VERTEX_POINT('',#1855);
#539=VERTEX_POINT('',#1857);
#540=VERTEX_POINT('',#1862);
#541=VERTEX_POINT('',#1863);
#542=VERTEX_POINT('',#1865);
#543=VERTEX_POINT('',#1867);
#544=VERTEX_POINT('',#1871);
#545=VERTEX_POINT('',#1873);
#546=VERTEX_POINT('',#1877);
#547=VERTEX_POINT('',#1879);
#548=VERTEX_POINT('',#1887);
#549=VERTEX_POINT('',#1889);
#550=VERTEX_POINT('',#1894);
#551=VERTEX_POINT('',#1895);
#552=VERTEX_POINT('',#1897);
#553=VERTEX_POINT('',#1899);
#554=VERTEX_POINT('',#1903);
#555=VERTEX_POINT('',#1905);
#556=VERTEX_POINT('',#1909);
#557=VERTEX_POINT('',#1911);
#558=VERTEX_POINT('',#1919);
#559=VERTEX_POINT('',#1920);
#560=VERTEX_POINT('',#1922);
#561=VERTEX_POINT('',#1924);
#562=VERTEX_POINT('',#1927);
#563=VERTEX_POINT('',#1930);
#564=VERTEX_POINT('',#1932);
#565=VERTEX_POINT('',#1937);
#566=VERTEX_POINT('',#1942);
#567=VERTEX_POINT('',#1944);
#568=VERTEX_POINT('',#1948);
#569=VERTEX_POINT('',#1952);
#570=VERTEX_POINT('',#1958);
#571=VERTEX_POINT('',#1959);
#572=VERTEX_POINT('',#1961);
#573=VERTEX_POINT('',#1963);
#574=VERTEX_POINT('',#1967);
#575=VERTEX_POINT('',#1969);
#576=VERTEX_POINT('',#1973);
#577=VERTEX_POINT('',#1977);
#578=VERTEX_POINT('',#1983);
#579=VERTEX_POINT('',#1987);
#580=VERTEX_POINT('',#1991);
#581=VERTEX_POINT('',#1993);
#582=VERTEX_POINT('',#1995);
#583=VERTEX_POINT('',#1997);
#584=EDGE_CURVE('',#478,#479,#426,.T.);
#585=EDGE_CURVE('',#480,#478,#212,.T.);
#586=EDGE_CURVE('',#481,#480,#427,.T.);
#587=EDGE_CURVE('',#479,#481,#213,.T.);
#588=EDGE_CURVE('',#478,#482,#214,.T.);
#589=EDGE_CURVE('',#482,#483,#215,.T.);
#590=EDGE_CURVE('',#480,#483,#216,.T.);
#591=EDGE_CURVE('',#479,#484,#217,.T.);
#592=EDGE_CURVE('',#484,#482,#428,.T.);
#593=EDGE_CURVE('',#481,#485,#218,.T.);
#594=EDGE_CURVE('',#485,#484,#219,.T.);
#595=EDGE_CURVE('',#483,#485,#429,.T.);
#596=EDGE_CURVE('',#486,#487,#220,.T.);
#597=EDGE_CURVE('',#486,#488,#221,.T.);
#598=EDGE_CURVE('',#488,#489,#222,.T.);
#599=EDGE_CURVE('',#487,#489,#223,.T.);
#600=EDGE_CURVE('',#490,#486,#430,.T.);
#601=EDGE_CURVE('',#490,#491,#224,.T.);
#602=EDGE_CURVE('',#491,#488,#431,.T.);
#603=EDGE_CURVE('',#492,#490,#225,.T.);
#604=EDGE_CURVE('',#492,#493,#226,.T.);
#605=EDGE_CURVE('',#493,#491,#227,.T.);
#606=EDGE_CURVE('',#487,#492,#432,.T.);
#607=EDGE_CURVE('',#489,#493,#433,.T.);
#608=EDGE_CURVE('',#494,#495,#228,.T.);
#609=EDGE_CURVE('',#495,#496,#229,.T.);
#610=EDGE_CURVE('',#496,#497,#230,.T.);
#611=EDGE_CURVE('',#494,#497,#231,.T.);
#612=EDGE_CURVE('',#498,#498,#434,.T.);
#613=EDGE_CURVE('',#499,#499,#435,.T.);
#614=EDGE_CURVE('',#499,#500,#232,.T.);
#615=EDGE_CURVE('',#500,#500,#436,.T.);
#616=EDGE_CURVE('',#498,#501,#233,.T.);
#617=EDGE_CURVE('',#501,#501,#437,.T.);
#618=EDGE_CURVE('',#502,#503,#234,.T.);
#619=EDGE_CURVE('',#502,#504,#235,.T.);
#620=EDGE_CURVE('',#504,#505,#236,.T.);
#621=EDGE_CURVE('',#503,#505,#237,.T.);
#622=EDGE_CURVE('',#503,#506,#438,.T.);
#623=EDGE_CURVE('',#505,#507,#238,.T.);
#624=EDGE_CURVE('',#508,#507,#239,.T.);
#625=EDGE_CURVE('',#506,#508,#240,.T.);
#626=EDGE_CURVE('',#494,#509,#241,.T.);
#627=EDGE_CURVE('',#509,#510,#242,.T.);
#628=EDGE_CURVE('',#495,#510,#243,.T.);
#629=EDGE_CURVE('',#497,#511,#244,.T.);
#630=EDGE_CURVE('',#511,#509,#245,.T.);
#631=EDGE_CURVE('',#496,#512,#246,.T.);
#632=EDGE_CURVE('',#512,#511,#247,.T.);
#633=EDGE_CURVE('',#510,#512,#248,.T.);
#634=EDGE_CURVE('',#508,#513,#249,.T.);
#635=EDGE_CURVE('',#507,#514,#250,.T.);
#636=EDGE_CURVE('',#513,#514,#251,.T.);
#637=EDGE_CURVE('',#515,#502,#439,.T.);
#638=EDGE_CURVE('',#513,#515,#252,.T.);
#639=EDGE_CURVE('',#514,#504,#253,.T.);
#640=EDGE_CURVE('',#506,#516,#254,.T.);
#641=EDGE_CURVE('',#516,#517,#440,.T.);
#642=EDGE_CURVE('',#518,#517,#255,.T.);
#643=EDGE_CURVE('',#519,#518,#441,.T.);
#644=EDGE_CURVE('',#520,#519,#256,.T.);
#645=EDGE_CURVE('',#521,#520,#442,.T.);
#646=EDGE_CURVE('',#522,#521,#257,.T.);
#647=EDGE_CURVE('',#523,#522,#443,.T.);
#648=EDGE_CURVE('',#523,#515,#258,.T.);
#649=EDGE_CURVE('',#523,#524,#259,.T.);
#650=EDGE_CURVE('',#524,#525,#260,.T.);
#651=EDGE_CURVE('',#525,#516,#261,.T.);
#652=EDGE_CURVE('',#526,#527,#444,.T.);
#653=EDGE_CURVE('',#527,#528,#262,.T.);
#654=EDGE_CURVE('',#528,#529,#263,.T.);
#655=EDGE_CURVE('',#529,#526,#264,.T.);
#656=EDGE_CURVE('',#530,#530,#445,.T.);
#657=EDGE_CURVE('',#530,#531,#265,.T.);
#658=EDGE_CURVE('',#531,#531,#446,.T.);
#659=EDGE_CURVE('',#526,#532,#266,.T.);
#660=EDGE_CURVE('',#532,#533,#447,.T.);
#661=EDGE_CURVE('',#527,#533,#267,.T.);
#662=EDGE_CURVE('',#529,#534,#268,.T.);
#663=EDGE_CURVE('',#534,#532,#269,.T.);
#664=EDGE_CURVE('',#528,#535,#270,.T.);
#665=EDGE_CURVE('',#535,#534,#271,.T.);
#666=EDGE_CURVE('',#533,#535,#272,.T.);
#667=EDGE_CURVE('',#536,#536,#448,.T.);
#668=EDGE_CURVE('',#536,#537,#273,.T.);
#669=EDGE_CURVE('',#537,#537,#449,.T.);
#670=EDGE_CURVE('',#538,#538,#450,.T.);
#671=EDGE_CURVE('',#538,#539,#274,.T.);
#672=EDGE_CURVE('',#539,#539,#451,.T.);
#673=EDGE_CURVE('',#540,#541,#275,.T.);
#674=EDGE_CURVE('',#541,#542,#276,.T.);
#675=EDGE_CURVE('',#542,#543,#277,.T.);
#676=EDGE_CURVE('',#540,#543,#278,.T.);
#677=EDGE_CURVE('',#544,#540,#452,.T.);
#678=EDGE_CURVE('',#543,#545,#453,.T.);
#679=EDGE_CURVE('',#544,#545,#279,.T.);
#680=EDGE_CURVE('',#541,#546,#454,.T.);
#681=EDGE_CURVE('',#546,#547,#280,.T.);
#682=EDGE_CURVE('',#547,#542,#455,.T.);
#683=EDGE_CURVE('',#546,#544,#281,.T.);
#684=EDGE_CURVE('',#545,#547,#282,.T.);
#685=EDGE_CURVE('',#548,#548,#456,.T.);
#686=EDGE_CURVE('',#548,#549,#283,.T.);
#687=EDGE_CURVE('',#549,#549,#457,.T.);
#688=EDGE_CURVE('',#550,#551,#284,.T.);
#689=EDGE_CURVE('',#550,#552,#285,.T.);
#690=EDGE_CURVE('',#552,#553,#286,.T.);
#691=EDGE_CURVE('',#551,#553,#287,.T.);
#692=EDGE_CURVE('',#554,#550,#458,.T.);
#693=EDGE_CURVE('',#554,#555,#288,.T.);
#694=EDGE_CURVE('',#555,#552,#459,.T.);
#695=EDGE_CURVE('',#556,#554,#289,.T.);
#696=EDGE_CURVE('',#556,#557,#290,.T.);
#697=EDGE_CURVE('',#557,#555,#291,.T.);
#698=EDGE_CURVE('',#551,#556,#460,.T.);
#699=EDGE_CURVE('',#553,#557,#461,.T.);
#700=EDGE_CURVE('',#558,#559,#292,.T.);
#701=EDGE_CURVE('',#559,#560,#462,.T.);
#702=EDGE_CURVE('',#560,#561,#293,.T.);
#703=EDGE_CURVE('',#561,#558,#463,.T.);
#704=EDGE_CURVE('',#562,#562,#464,.T.);
#705=EDGE_CURVE('',#563,#563,#465,.T.);
#706=EDGE_CURVE('',#563,#564,#294,.T.);
#707=EDGE_CURVE('',#564,#564,#466,.T.);
#708=EDGE_CURVE('',#562,#565,#295,.T.);
#709=EDGE_CURVE('',#565,#565,#467,.T.);
#710=EDGE_CURVE('',#558,#566,#296,.T.);
#711=EDGE_CURVE('',#566,#567,#297,.T.);
#712=EDGE_CURVE('',#559,#567,#298,.T.);
#713=EDGE_CURVE('',#561,#568,#299,.T.);
#714=EDGE_CURVE('',#568,#566,#468,.T.);
#715=EDGE_CURVE('',#560,#569,#300,.T.);
#716=EDGE_CURVE('',#569,#568,#301,.T.);
#717=EDGE_CURVE('',#567,#569,#469,.T.);
#718=EDGE_CURVE('',#570,#571,#470,.T.);
#719=EDGE_CURVE('',#572,#570,#302,.T.);
#720=EDGE_CURVE('',#573,#572,#471,.T.);
#721=EDGE_CURVE('',#571,#573,#303,.T.);
#722=EDGE_CURVE('',#570,#574,#304,.T.);
#723=EDGE_CURVE('',#574,#575,#305,.T.);
#724=EDGE_CURVE('',#572,#575,#306,.T.);
#725=EDGE_CURVE('',#571,#576,#307,.T.);
#726=EDGE_CURVE('',#576,#574,#472,.T.);
#727=EDGE_CURVE('',#573,#577,#308,.T.);
#728=EDGE_CURVE('',#577,#576,#309,.T.);
#729=EDGE_CURVE('',#575,#577,#473,.T.);
#730=EDGE_CURVE('',#578,#525,#474,.T.);
#731=EDGE_CURVE('',#517,#578,#310,.T.);
#732=EDGE_CURVE('',#579,#578,#311,.T.);
#733=EDGE_CURVE('',#579,#518,#312,.T.);
#734=EDGE_CURVE('',#580,#524,#475,.T.);
#735=EDGE_CURVE('',#581,#580,#313,.T.);
#736=EDGE_CURVE('',#582,#581,#476,.T.);
#737=EDGE_CURVE('',#583,#582,#314,.T.);
#738=EDGE_CURVE('',#579,#583,#477,.T.);
#739=EDGE_CURVE('',#581,#582,#315,.T.);
#740=EDGE_CURVE('',#580,#583,#316,.T.);
#741=EDGE_CURVE('',#522,#519,#317,.T.);
#742=EDGE_CURVE('',#521,#520,#318,.T.);
#743=ORIENTED_EDGE('',*,*,#584,.F.);
#744=ORIENTED_EDGE('',*,*,#585,.F.);
#745=ORIENTED_EDGE('',*,*,#586,.F.);
#746=ORIENTED_EDGE('',*,*,#587,.F.);
#747=ORIENTED_EDGE('',*,*,#585,.T.);
#748=ORIENTED_EDGE('',*,*,#588,.T.);
#749=ORIENTED_EDGE('',*,*,#589,.T.);
#750=ORIENTED_EDGE('',*,*,#590,.F.);
#751=ORIENTED_EDGE('',*,*,#584,.T.);
#752=ORIENTED_EDGE('',*,*,#591,.T.);
#753=ORIENTED_EDGE('',*,*,#592,.T.);
#754=ORIENTED_EDGE('',*,*,#588,.F.);
#755=ORIENTED_EDGE('',*,*,#587,.T.);
#756=ORIENTED_EDGE('',*,*,#593,.T.);
#757=ORIENTED_EDGE('',*,*,#594,.T.);
#758=ORIENTED_EDGE('',*,*,#591,.F.);
#759=ORIENTED_EDGE('',*,*,#586,.T.);
#760=ORIENTED_EDGE('',*,*,#590,.T.);
#761=ORIENTED_EDGE('',*,*,#595,.T.);
#762=ORIENTED_EDGE('',*,*,#593,.F.);
#763=ORIENTED_EDGE('',*,*,#596,.F.);
#764=ORIENTED_EDGE('',*,*,#597,.T.);
#765=ORIENTED_EDGE('',*,*,#598,.T.);
#766=ORIENTED_EDGE('',*,*,#599,.F.);
#767=ORIENTED_EDGE('',*,*,#600,.F.);
#768=ORIENTED_EDGE('',*,*,#601,.T.);
#769=ORIENTED_EDGE('',*,*,#602,.T.);
#770=ORIENTED_EDGE('',*,*,#597,.F.);
#771=ORIENTED_EDGE('',*,*,#603,.F.);
#772=ORIENTED_EDGE('',*,*,#604,.T.);
#773=ORIENTED_EDGE('',*,*,#605,.T.);
#774=ORIENTED_EDGE('',*,*,#601,.F.);
#775=ORIENTED_EDGE('',*,*,#606,.F.);
#776=ORIENTED_EDGE('',*,*,#599,.T.);
#777=ORIENTED_EDGE('',*,*,#607,.T.);
#778=ORIENTED_EDGE('',*,*,#604,.F.);
#779=ORIENTED_EDGE('',*,*,#607,.F.);
#780=ORIENTED_EDGE('',*,*,#598,.F.);
#781=ORIENTED_EDGE('',*,*,#602,.F.);
#782=ORIENTED_EDGE('',*,*,#605,.F.);
#783=ORIENTED_EDGE('',*,*,#592,.F.);
#784=ORIENTED_EDGE('',*,*,#594,.F.);
#785=ORIENTED_EDGE('',*,*,#595,.F.);
#786=ORIENTED_EDGE('',*,*,#589,.F.);
#787=ORIENTED_EDGE('',*,*,#608,.T.);
#788=ORIENTED_EDGE('',*,*,#609,.T.);
#789=ORIENTED_EDGE('',*,*,#610,.T.);
#790=ORIENTED_EDGE('',*,*,#611,.F.);
#791=ORIENTED_EDGE('',*,*,#612,.T.);
#792=ORIENTED_EDGE('',*,*,#613,.T.);
#793=ORIENTED_EDGE('',*,*,#596,.T.);
#794=ORIENTED_EDGE('',*,*,#606,.T.);
#795=ORIENTED_EDGE('',*,*,#603,.T.);
#796=ORIENTED_EDGE('',*,*,#600,.T.);
#797=ORIENTED_EDGE('',*,*,#613,.F.);
#798=ORIENTED_EDGE('',*,*,#614,.T.);
#799=ORIENTED_EDGE('',*,*,#615,.T.);
#800=ORIENTED_EDGE('',*,*,#614,.F.);
#801=ORIENTED_EDGE('',*,*,#615,.F.);
#802=ORIENTED_EDGE('',*,*,#612,.F.);
#803=ORIENTED_EDGE('',*,*,#616,.T.);
#804=ORIENTED_EDGE('',*,*,#617,.T.);
#805=ORIENTED_EDGE('',*,*,#616,.F.);
#806=ORIENTED_EDGE('',*,*,#617,.F.);
#807=ORIENTED_EDGE('',*,*,#618,.F.);
#808=ORIENTED_EDGE('',*,*,#619,.T.);
#809=ORIENTED_EDGE('',*,*,#620,.T.);
#810=ORIENTED_EDGE('',*,*,#621,.F.);
#811=ORIENTED_EDGE('',*,*,#622,.F.);
#812=ORIENTED_EDGE('',*,*,#621,.T.);
#813=ORIENTED_EDGE('',*,*,#623,.T.);
#814=ORIENTED_EDGE('',*,*,#624,.F.);
#815=ORIENTED_EDGE('',*,*,#625,.F.);
#816=ORIENTED_EDGE('',*,*,#608,.F.);
#817=ORIENTED_EDGE('',*,*,#626,.T.);
#818=ORIENTED_EDGE('',*,*,#627,.T.);
#819=ORIENTED_EDGE('',*,*,#628,.F.);
#820=ORIENTED_EDGE('',*,*,#611,.T.);
#821=ORIENTED_EDGE('',*,*,#629,.T.);
#822=ORIENTED_EDGE('',*,*,#630,.T.);
#823=ORIENTED_EDGE('',*,*,#626,.F.);
#824=ORIENTED_EDGE('',*,*,#610,.F.);
#825=ORIENTED_EDGE('',*,*,#631,.T.);
#826=ORIENTED_EDGE('',*,*,#632,.T.);
#827=ORIENTED_EDGE('',*,*,#629,.F.);
#828=ORIENTED_EDGE('',*,*,#609,.F.);
#829=ORIENTED_EDGE('',*,*,#628,.T.);
#830=ORIENTED_EDGE('',*,*,#633,.T.);
#831=ORIENTED_EDGE('',*,*,#631,.F.);
#832=ORIENTED_EDGE('',*,*,#634,.F.);
#833=ORIENTED_EDGE('',*,*,#624,.T.);
#834=ORIENTED_EDGE('',*,*,#635,.T.);
#835=ORIENTED_EDGE('',*,*,#636,.F.);
#836=ORIENTED_EDGE('',*,*,#637,.F.);
#837=ORIENTED_EDGE('',*,*,#638,.F.);
#838=ORIENTED_EDGE('',*,*,#636,.T.);
#839=ORIENTED_EDGE('',*,*,#639,.T.);
#840=ORIENTED_EDGE('',*,*,#619,.F.);
#841=ORIENTED_EDGE('',*,*,#639,.F.);
#842=ORIENTED_EDGE('',*,*,#635,.F.);
#843=ORIENTED_EDGE('',*,*,#623,.F.);
#844=ORIENTED_EDGE('',*,*,#620,.F.);
#845=ORIENTED_EDGE('',*,*,#633,.F.);
#846=ORIENTED_EDGE('',*,*,#627,.F.);
#847=ORIENTED_EDGE('',*,*,#630,.F.);
#848=ORIENTED_EDGE('',*,*,#632,.F.);
#849=ORIENTED_EDGE('',*,*,#637,.T.);
#850=ORIENTED_EDGE('',*,*,#618,.T.);
#851=ORIENTED_EDGE('',*,*,#622,.T.);
#852=ORIENTED_EDGE('',*,*,#640,.T.);
#853=ORIENTED_EDGE('',*,*,#641,.T.);
#854=ORIENTED_EDGE('',*,*,#642,.F.);
#855=ORIENTED_EDGE('',*,*,#643,.F.);
#856=ORIENTED_EDGE('',*,*,#644,.F.);
#857=ORIENTED_EDGE('',*,*,#645,.F.);
#858=ORIENTED_EDGE('',*,*,#646,.F.);
#859=ORIENTED_EDGE('',*,*,#647,.F.);
#860=ORIENTED_EDGE('',*,*,#648,.T.);
#861=ORIENTED_EDGE('',*,*,#638,.T.);
#862=ORIENTED_EDGE('',*,*,#648,.F.);
#863=ORIENTED_EDGE('',*,*,#649,.T.);
#864=ORIENTED_EDGE('',*,*,#650,.T.);
#865=ORIENTED_EDGE('',*,*,#651,.T.);
#866=ORIENTED_EDGE('',*,*,#640,.F.);
#867=ORIENTED_EDGE('',*,*,#625,.T.);
#868=ORIENTED_EDGE('',*,*,#634,.T.);
#869=ORIENTED_EDGE('',*,*,#652,.T.);
#870=ORIENTED_EDGE('',*,*,#653,.T.);
#871=ORIENTED_EDGE('',*,*,#654,.T.);
#872=ORIENTED_EDGE('',*,*,#655,.T.);
#873=ORIENTED_EDGE('',*,*,#656,.T.);
#874=ORIENTED_EDGE('',*,*,#657,.T.);
#875=ORIENTED_EDGE('',*,*,#658,.T.);
#876=ORIENTED_EDGE('',*,*,#657,.F.);
#877=ORIENTED_EDGE('',*,*,#658,.F.);
#878=ORIENTED_EDGE('',*,*,#652,.F.);
#879=ORIENTED_EDGE('',*,*,#659,.T.);
#880=ORIENTED_EDGE('',*,*,#660,.T.);
#881=ORIENTED_EDGE('',*,*,#661,.F.);
#882=ORIENTED_EDGE('',*,*,#655,.F.);
#883=ORIENTED_EDGE('',*,*,#662,.T.);
#884=ORIENTED_EDGE('',*,*,#663,.T.);
#885=ORIENTED_EDGE('',*,*,#659,.F.);
#886=ORIENTED_EDGE('',*,*,#654,.F.);
#887=ORIENTED_EDGE('',*,*,#664,.T.);
#888=ORIENTED_EDGE('',*,*,#665,.T.);
#889=ORIENTED_EDGE('',*,*,#662,.F.);
#890=ORIENTED_EDGE('',*,*,#653,.F.);
#891=ORIENTED_EDGE('',*,*,#661,.T.);
#892=ORIENTED_EDGE('',*,*,#666,.T.);
#893=ORIENTED_EDGE('',*,*,#664,.F.);
#894=ORIENTED_EDGE('',*,*,#666,.F.);
#895=ORIENTED_EDGE('',*,*,#660,.F.);
#896=ORIENTED_EDGE('',*,*,#663,.F.);
#897=ORIENTED_EDGE('',*,*,#665,.F.);
#898=ORIENTED_EDGE('',*,*,#656,.F.);
#899=ORIENTED_EDGE('',*,*,#667,.F.);
#900=ORIENTED_EDGE('',*,*,#668,.T.);
#901=ORIENTED_EDGE('',*,*,#669,.T.);
#902=ORIENTED_EDGE('',*,*,#668,.F.);
#903=ORIENTED_EDGE('',*,*,#669,.F.);
#904=ORIENTED_EDGE('',*,*,#670,.F.);
#905=ORIENTED_EDGE('',*,*,#671,.T.);
#906=ORIENTED_EDGE('',*,*,#672,.T.);
#907=ORIENTED_EDGE('',*,*,#671,.F.);
#908=ORIENTED_EDGE('',*,*,#672,.F.);
#909=ORIENTED_EDGE('',*,*,#673,.T.);
#910=ORIENTED_EDGE('',*,*,#674,.T.);
#911=ORIENTED_EDGE('',*,*,#675,.T.);
#912=ORIENTED_EDGE('',*,*,#676,.F.);
#913=ORIENTED_EDGE('',*,*,#677,.T.);
#914=ORIENTED_EDGE('',*,*,#676,.T.);
#915=ORIENTED_EDGE('',*,*,#678,.T.);
#916=ORIENTED_EDGE('',*,*,#679,.F.);
#917=ORIENTED_EDGE('',*,*,#680,.T.);
#918=ORIENTED_EDGE('',*,*,#681,.T.);
#919=ORIENTED_EDGE('',*,*,#682,.T.);
#920=ORIENTED_EDGE('',*,*,#674,.F.);
#921=ORIENTED_EDGE('',*,*,#683,.T.);
#922=ORIENTED_EDGE('',*,*,#679,.T.);
#923=ORIENTED_EDGE('',*,*,#684,.T.);
#924=ORIENTED_EDGE('',*,*,#681,.F.);
#925=ORIENTED_EDGE('',*,*,#678,.F.);
#926=ORIENTED_EDGE('',*,*,#675,.F.);
#927=ORIENTED_EDGE('',*,*,#682,.F.);
#928=ORIENTED_EDGE('',*,*,#684,.F.);
#929=ORIENTED_EDGE('',*,*,#685,.T.);
#930=ORIENTED_EDGE('',*,*,#686,.T.);
#931=ORIENTED_EDGE('',*,*,#687,.T.);
#932=ORIENTED_EDGE('',*,*,#686,.F.);
#933=ORIENTED_EDGE('',*,*,#687,.F.);
#934=ORIENTED_EDGE('',*,*,#688,.F.);
#935=ORIENTED_EDGE('',*,*,#689,.T.);
#936=ORIENTED_EDGE('',*,*,#690,.T.);
#937=ORIENTED_EDGE('',*,*,#691,.F.);
#938=ORIENTED_EDGE('',*,*,#692,.F.);
#939=ORIENTED_EDGE('',*,*,#693,.T.);
#940=ORIENTED_EDGE('',*,*,#694,.T.);
#941=ORIENTED_EDGE('',*,*,#689,.F.);
#942=ORIENTED_EDGE('',*,*,#695,.F.);
#943=ORIENTED_EDGE('',*,*,#696,.T.);
#944=ORIENTED_EDGE('',*,*,#697,.T.);
#945=ORIENTED_EDGE('',*,*,#693,.F.);
#946=ORIENTED_EDGE('',*,*,#698,.F.);
#947=ORIENTED_EDGE('',*,*,#691,.T.);
#948=ORIENTED_EDGE('',*,*,#699,.T.);
#949=ORIENTED_EDGE('',*,*,#696,.F.);
#950=ORIENTED_EDGE('',*,*,#699,.F.);
#951=ORIENTED_EDGE('',*,*,#690,.F.);
#952=ORIENTED_EDGE('',*,*,#694,.F.);
#953=ORIENTED_EDGE('',*,*,#697,.F.);
#954=ORIENTED_EDGE('',*,*,#685,.F.);
#955=ORIENTED_EDGE('',*,*,#677,.F.);
#956=ORIENTED_EDGE('',*,*,#683,.F.);
#957=ORIENTED_EDGE('',*,*,#680,.F.);
#958=ORIENTED_EDGE('',*,*,#673,.F.);
#959=ORIENTED_EDGE('',*,*,#700,.T.);
#960=ORIENTED_EDGE('',*,*,#701,.T.);
#961=ORIENTED_EDGE('',*,*,#702,.T.);
#962=ORIENTED_EDGE('',*,*,#703,.T.);
#963=ORIENTED_EDGE('',*,*,#688,.T.);
#964=ORIENTED_EDGE('',*,*,#698,.T.);
#965=ORIENTED_EDGE('',*,*,#695,.T.);
#966=ORIENTED_EDGE('',*,*,#692,.T.);
#967=ORIENTED_EDGE('',*,*,#704,.T.);
#968=ORIENTED_EDGE('',*,*,#705,.T.);
#969=ORIENTED_EDGE('',*,*,#706,.T.);
#970=ORIENTED_EDGE('',*,*,#707,.T.);
#971=ORIENTED_EDGE('',*,*,#706,.F.);
#972=ORIENTED_EDGE('',*,*,#707,.F.);
#973=ORIENTED_EDGE('',*,*,#704,.F.);
#974=ORIENTED_EDGE('',*,*,#708,.T.);
#975=ORIENTED_EDGE('',*,*,#709,.T.);
#976=ORIENTED_EDGE('',*,*,#708,.F.);
#977=ORIENTED_EDGE('',*,*,#709,.F.);
#978=ORIENTED_EDGE('',*,*,#705,.F.);
#979=ORIENTED_EDGE('',*,*,#700,.F.);
#980=ORIENTED_EDGE('',*,*,#710,.T.);
#981=ORIENTED_EDGE('',*,*,#711,.T.);
#982=ORIENTED_EDGE('',*,*,#712,.F.);
#983=ORIENTED_EDGE('',*,*,#703,.F.);
#984=ORIENTED_EDGE('',*,*,#713,.T.);
#985=ORIENTED_EDGE('',*,*,#714,.T.);
#986=ORIENTED_EDGE('',*,*,#710,.F.);
#987=ORIENTED_EDGE('',*,*,#702,.F.);
#988=ORIENTED_EDGE('',*,*,#715,.T.);
#989=ORIENTED_EDGE('',*,*,#716,.T.);
#990=ORIENTED_EDGE('',*,*,#713,.F.);
#991=ORIENTED_EDGE('',*,*,#701,.F.);
#992=ORIENTED_EDGE('',*,*,#712,.T.);
#993=ORIENTED_EDGE('',*,*,#717,.T.);
#994=ORIENTED_EDGE('',*,*,#715,.F.);
#995=ORIENTED_EDGE('',*,*,#718,.F.);
#996=ORIENTED_EDGE('',*,*,#719,.F.);
#997=ORIENTED_EDGE('',*,*,#720,.F.);
#998=ORIENTED_EDGE('',*,*,#721,.F.);
#999=ORIENTED_EDGE('',*,*,#717,.F.);
#1000=ORIENTED_EDGE('',*,*,#711,.F.);
#1001=ORIENTED_EDGE('',*,*,#714,.F.);
#1002=ORIENTED_EDGE('',*,*,#716,.F.);
#1003=ORIENTED_EDGE('',*,*,#719,.T.);
#1004=ORIENTED_EDGE('',*,*,#722,.T.);
#1005=ORIENTED_EDGE('',*,*,#723,.T.);
#1006=ORIENTED_EDGE('',*,*,#724,.F.);
#1007=ORIENTED_EDGE('',*,*,#718,.T.);
#1008=ORIENTED_EDGE('',*,*,#725,.T.);
#1009=ORIENTED_EDGE('',*,*,#726,.T.);
#1010=ORIENTED_EDGE('',*,*,#722,.F.);
#1011=ORIENTED_EDGE('',*,*,#721,.T.);
#1012=ORIENTED_EDGE('',*,*,#727,.T.);
#1013=ORIENTED_EDGE('',*,*,#728,.T.);
#1014=ORIENTED_EDGE('',*,*,#725,.F.);
#1015=ORIENTED_EDGE('',*,*,#720,.T.);
#1016=ORIENTED_EDGE('',*,*,#724,.T.);
#1017=ORIENTED_EDGE('',*,*,#729,.T.);
#1018=ORIENTED_EDGE('',*,*,#727,.F.);
#1019=ORIENTED_EDGE('',*,*,#730,.F.);
#1020=ORIENTED_EDGE('',*,*,#731,.F.);
#1021=ORIENTED_EDGE('',*,*,#641,.F.);
#1022=ORIENTED_EDGE('',*,*,#651,.F.);
#1023=ORIENTED_EDGE('',*,*,#726,.F.);
#1024=ORIENTED_EDGE('',*,*,#728,.F.);
#1025=ORIENTED_EDGE('',*,*,#729,.F.);
#1026=ORIENTED_EDGE('',*,*,#723,.F.);
#1027=ORIENTED_EDGE('',*,*,#731,.T.);
#1028=ORIENTED_EDGE('',*,*,#732,.F.);
#1029=ORIENTED_EDGE('',*,*,#733,.T.);
#1030=ORIENTED_EDGE('',*,*,#642,.T.);
#1031=ORIENTED_EDGE('',*,*,#730,.T.);
#1032=ORIENTED_EDGE('',*,*,#650,.F.);
#1033=ORIENTED_EDGE('',*,*,#734,.F.);
#1034=ORIENTED_EDGE('',*,*,#735,.F.);
#1035=ORIENTED_EDGE('',*,*,#736,.F.);
#1036=ORIENTED_EDGE('',*,*,#737,.F.);
#1037=ORIENTED_EDGE('',*,*,#738,.F.);
#1038=ORIENTED_EDGE('',*,*,#732,.T.);
#1039=ORIENTED_EDGE('',*,*,#736,.T.);
#1040=ORIENTED_EDGE('',*,*,#739,.T.);
#1041=ORIENTED_EDGE('',*,*,#737,.T.);
#1042=ORIENTED_EDGE('',*,*,#739,.F.);
#1043=ORIENTED_EDGE('',*,*,#735,.T.);
#1044=ORIENTED_EDGE('',*,*,#740,.T.);
#1045=ORIENTED_EDGE('',*,*,#643,.T.);
#1046=ORIENTED_EDGE('',*,*,#733,.F.);
#1047=ORIENTED_EDGE('',*,*,#738,.T.);
#1048=ORIENTED_EDGE('',*,*,#740,.F.);
#1049=ORIENTED_EDGE('',*,*,#734,.T.);
#1050=ORIENTED_EDGE('',*,*,#649,.F.);
#1051=ORIENTED_EDGE('',*,*,#647,.T.);
#1052=ORIENTED_EDGE('',*,*,#741,.T.);
#1053=ORIENTED_EDGE('',*,*,#667,.T.);
#1054=ORIENTED_EDGE('',*,*,#670,.T.);
#1055=ORIENTED_EDGE('',*,*,#645,.T.);
#1056=ORIENTED_EDGE('',*,*,#742,.F.);
#1057=ORIENTED_EDGE('',*,*,#644,.T.);
#1058=ORIENTED_EDGE('',*,*,#741,.F.);
#1059=ORIENTED_EDGE('',*,*,#646,.T.);
#1060=ORIENTED_EDGE('',*,*,#742,.T.);
#1061=PLANE('',#1194);
#1062=PLANE('',#1197);
#1063=PLANE('',#1200);
#1064=PLANE('',#1203);
#1065=PLANE('',#1207);
#1066=PLANE('',#1211);
#1067=PLANE('',#1212);
#1068=PLANE('',#1217);
#1069=PLANE('',#1220);
#1070=PLANE('',#1221);
#1071=PLANE('',#1222);
#1072=PLANE('',#1224);
#1073=PLANE('',#1225);
#1074=PLANE('',#1226);
#1075=PLANE('',#1227);
#1076=PLANE('',#1228);
#1077=PLANE('',#1229);
#1078=PLANE('',#1231);
#1079=PLANE('',#1237);
#1080=PLANE('',#1242);
#1081=PLANE('',#1245);
#1082=PLANE('',#1246);
#1083=PLANE('',#1247);
#1084=PLANE('',#1248);
#1085=PLANE('',#1252);
#1086=PLANE('',#1256);
#1087=PLANE('',#1257);
#1088=PLANE('',#1264);
#1089=PLANE('',#1265);
#1090=PLANE('',#1269);
#1091=PLANE('',#1270);
#1092=PLANE('',#1274);
#1093=PLANE('',#1278);
#1094=PLANE('',#1279);
#1095=PLANE('',#1286);
#1096=PLANE('',#1289);
#1097=PLANE('',#1290);
#1098=PLANE('',#1293);
#1099=PLANE('',#1296);
#1100=PLANE('',#1299);
#1101=PLANE('',#1302);
#1102=PLANE('',#1305);
#1103=PLANE('',#1307);
#1104=PLANE('',#1312);
#1105=PLANE('',#1313);
#1106=PLANE('',#1314);
#1107=PLANE('',#1315);
#1108=PLANE('',#1316);
#1109=ADVANCED_FACE('',(#54),#1061,.T.);
#1110=ADVANCED_FACE('',(#55),#1062,.F.);
#1111=ADVANCED_FACE('',(#56),#31,.T.);
#1112=ADVANCED_FACE('',(#57),#1063,.F.);
#1113=ADVANCED_FACE('',(#58),#32,.T.);
#1114=ADVANCED_FACE('',(#59),#1064,.F.);
#1115=ADVANCED_FACE('',(#60),#33,.F.);
#1116=ADVANCED_FACE('',(#61),#1065,.F.);
#1117=ADVANCED_FACE('',(#62),#34,.F.);
#1118=ADVANCED_FACE('',(#63,#15),#1066,.T.);
#1119=ADVANCED_FACE('',(#64,#16,#17,#18),#1067,.F.);
#1120=ADVANCED_FACE('',(#65),#35,.F.);
#1121=ADVANCED_FACE('',(#66),#1068,.T.);
#1122=ADVANCED_FACE('',(#67),#36,.F.);
#1123=ADVANCED_FACE('',(#68),#1069,.T.);
#1124=ADVANCED_FACE('',(#69),#1070,.F.);
#1125=ADVANCED_FACE('',(#70),#1071,.F.);
#1126=ADVANCED_FACE('',(#71),#1072,.F.);
#1127=ADVANCED_FACE('',(#72),#1073,.F.);
#1128=ADVANCED_FACE('',(#73),#1074,.F.);
#1129=ADVANCED_FACE('',(#74),#1075,.F.);
#1130=ADVANCED_FACE('',(#75),#1076,.F.);
#1131=ADVANCED_FACE('',(#76),#1077,.F.);
#1132=ADVANCED_FACE('',(#77,#19),#1078,.F.);
#1133=ADVANCED_FACE('',(#78),#37,.T.);
#1134=ADVANCED_FACE('',(#79,#20),#1079,.F.);
#1135=ADVANCED_FACE('',(#80),#38,.F.);
#1136=ADVANCED_FACE('',(#81),#1080,.F.);
#1137=ADVANCED_FACE('',(#82),#39,.F.);
#1138=ADVANCED_FACE('',(#83),#1081,.F.);
#1139=ADVANCED_FACE('',(#84),#1082,.F.);
#1140=ADVANCED_FACE('',(#85),#1083,.F.);
#1141=ADVANCED_FACE('',(#86,#21),#1084,.T.);
#1142=ADVANCED_FACE('',(#87),#40,.F.);
#1143=ADVANCED_FACE('',(#88),#1085,.T.);
#1144=ADVANCED_FACE('',(#89),#41,.F.);
#1145=ADVANCED_FACE('',(#90),#1086,.T.);
#1146=ADVANCED_FACE('',(#91),#1087,.F.);
#1147=ADVANCED_FACE('',(#92),#42,.F.);
#1148=ADVANCED_FACE('',(#93),#43,.F.);
#1149=ADVANCED_FACE('',(#94),#1088,.F.);
#1150=ADVANCED_FACE('',(#95),#1089,.T.);
#1151=ADVANCED_FACE('',(#96),#44,.F.);
#1152=ADVANCED_FACE('',(#97),#1090,.T.);
#1153=ADVANCED_FACE('',(#98),#1091,.F.);
#1154=ADVANCED_FACE('',(#99),#45,.F.);
#1155=ADVANCED_FACE('',(#100),#1092,.F.);
#1156=ADVANCED_FACE('',(#101),#46,.F.);
#1157=ADVANCED_FACE('',(#102,#22,#23),#1093,.T.);
#1158=ADVANCED_FACE('',(#103,#24,#25),#1094,.T.);
#1159=ADVANCED_FACE('',(#104),#47,.F.);
#1160=ADVANCED_FACE('',(#105),#1095,.T.);
#1161=ADVANCED_FACE('',(#106),#48,.F.);
#1162=ADVANCED_FACE('',(#107,#26),#1096,.T.);
#1163=ADVANCED_FACE('',(#108),#1097,.F.);
#1164=ADVANCED_FACE('',(#109),#49,.T.);
#1165=ADVANCED_FACE('',(#110),#1098,.F.);
#1166=ADVANCED_FACE('',(#111),#50,.T.);
#1167=ADVANCED_FACE('',(#112,#27),#1099,.T.);
#1168=ADVANCED_FACE('',(#113),#1100,.F.);
#1169=ADVANCED_FACE('',(#114),#51,.T.);
#1170=ADVANCED_FACE('',(#115),#1101,.F.);
#1171=ADVANCED_FACE('',(#116),#52,.T.);
#1172=ADVANCED_FACE('',(#117,#28),#1102,.T.);
#1173=ADVANCED_FACE('',(#118),#1103,.T.);
#1174=ADVANCED_FACE('',(#119),#53,.T.);
#1175=ADVANCED_FACE('',(#120),#1104,.T.);
#1176=ADVANCED_FACE('',(#121),#1105,.T.);
#1177=ADVANCED_FACE('',(#122,#29,#30),#1106,.T.);
#1178=ADVANCED_FACE('',(#123),#1107,.T.);
#1179=ADVANCED_FACE('',(#124),#1108,.T.);
#1180=CLOSED_SHELL('',(#1109,#1110,#1111,#1112,#1113,#1114,#1115,#1116,
#1117,#1118,#1119,#1120,#1121,#1122,#1123,#1124,#1125,#1126,#1127,#1128,
#1129,#1130,#1131,#1132,#1133,#1134,#1135,#1136,#1137,#1138,#1139,#1140,
#1141,#1142,#1143,#1144,#1145,#1146,#1147,#1148,#1149,#1150,#1151,#1152,
#1153,#1154,#1155,#1156,#1157,#1158,#1159,#1160,#1161,#1162,#1163,#1164,
#1165,#1166,#1167,#1168,#1169,#1170,#1171,#1172,#1173,#1174,#1175,#1176,
#1177,#1178,#1179));
#1181=DERIVED_UNIT_ELEMENT(#1183,1.);
#1182=DERIVED_UNIT_ELEMENT(#2014,-3.);
#1183=(
MASS_UNIT()
NAMED_UNIT(*)
SI_UNIT(.KILO.,.GRAM.)
);
#1184=DERIVED_UNIT((#1181,#1182));
#1185=MEASURE_REPRESENTATION_ITEM('density measure',
POSITIVE_RATIO_MEASURE(7850.),#1184);
#1186=PROPERTY_DEFINITION_REPRESENTATION(#1191,#1188);
#1187=PROPERTY_DEFINITION_REPRESENTATION(#1192,#1189);
#1188=REPRESENTATION('material name',(#1190),#2011);
#1189=REPRESENTATION('density',(#1185),#2011);
#1190=DESCRIPTIVE_REPRESENTATION_ITEM('\X2\94A2\X0\','\X2\94A2\X0\');
#1191=PROPERTY_DEFINITION('material property','material name',#2021);
#1192=PROPERTY_DEFINITION('material property','density of part',#2021);
#1193=AXIS2_PLACEMENT_3D('',#1672,#1317,#1318);
#1194=AXIS2_PLACEMENT_3D('',#1673,#1319,#1320);
#1195=AXIS2_PLACEMENT_3D('',#1676,#1321,#1322);
#1196=AXIS2_PLACEMENT_3D('',#1680,#1324,#1325);
#1197=AXIS2_PLACEMENT_3D('',#1682,#1327,#1328);
#1198=AXIS2_PLACEMENT_3D('',#1688,#1332,#1333);
#1199=AXIS2_PLACEMENT_3D('',#1691,#1335,#1336);
#1200=AXIS2_PLACEMENT_3D('',#1692,#1337,#1338);
#1201=AXIS2_PLACEMENT_3D('',#1696,#1341,#1342);
#1202=AXIS2_PLACEMENT_3D('',#1697,#1343,#1344);
#1203=AXIS2_PLACEMENT_3D('',#1698,#1345,#1346);
#1204=AXIS2_PLACEMENT_3D('',#1707,#1351,#1352);
#1205=AXIS2_PLACEMENT_3D('',#1709,#1353,#1354);
#1206=AXIS2_PLACEMENT_3D('',#1712,#1356,#1357);
#1207=AXIS2_PLACEMENT_3D('',#1713,#1358,#1359);
#1208=AXIS2_PLACEMENT_3D('',#1719,#1363,#1364);
#1209=AXIS2_PLACEMENT_3D('',#1720,#1365,#1366);
#1210=AXIS2_PLACEMENT_3D('',#1721,#1367,#1368);
#1211=AXIS2_PLACEMENT_3D('',#1722,#1369,#1370);
#1212=AXIS2_PLACEMENT_3D('',#1723,#1371,#1372);
#1213=AXIS2_PLACEMENT_3D('',#1733,#1377,#1378);
#1214=AXIS2_PLACEMENT_3D('',#1735,#1379,#1380);
#1215=AXIS2_PLACEMENT_3D('',#1736,#1381,#1382);
#1216=AXIS2_PLACEMENT_3D('',#1739,#1384,#1385);
#1217=AXIS2_PLACEMENT_3D('',#1740,#1386,#1387);
#1218=AXIS2_PLACEMENT_3D('',#1741,#1388,#1389);
#1219=AXIS2_PLACEMENT_3D('',#1744,#1391,#1392);
#1220=AXIS2_PLACEMENT_3D('',#1745,#1393,#1394);
#1221=AXIS2_PLACEMENT_3D('',#1746,#1395,#1396);
#1222=AXIS2_PLACEMENT_3D('',#1755,#1401,#1402);
#1223=AXIS2_PLACEMENT_3D('',#1757,#1403,#1404);
#1224=AXIS2_PLACEMENT_3D('',#1763,#1408,#1409);
#1225=AXIS2_PLACEMENT_3D('',#1769,#1413,#1414);
#1226=AXIS2_PLACEMENT_3D('',#1773,#1417,#1418);
#1227=AXIS2_PLACEMENT_3D('',#1777,#1421,#1422);
#1228=AXIS2_PLACEMENT_3D('',#1779,#1424,#1425);
#1229=AXIS2_PLACEMENT_3D('',#1785,#1429,#1430);
#1230=AXIS2_PLACEMENT_3D('',#1787,#1431,#1432);
#1231=AXIS2_PLACEMENT_3D('',#1790,#1435,#1436);
#1232=AXIS2_PLACEMENT_3D('',#1791,#1437,#1438);
#1233=AXIS2_PLACEMENT_3D('',#1795,#1440,#1441);
#1234=AXIS2_PLACEMENT_3D('',#1799,#1443,#1444);
#1235=AXIS2_PLACEMENT_3D('',#1803,#1446,#1447);
#1236=AXIS2_PLACEMENT_3D('',#1807,#1449,#1450);
#1237=AXIS2_PLACEMENT_3D('',#1809,#1452,#1453);
#1238=AXIS2_PLACEMENT_3D('',#1817,#1457,#1458);
#1239=AXIS2_PLACEMENT_3D('',#1823,#1462,#1463);
#1240=AXIS2_PLACEMENT_3D('',#1825,#1464,#1465);
#1241=AXIS2_PLACEMENT_3D('',#1828,#1467,#1468);
#1242=AXIS2_PLACEMENT_3D('',#1829,#1469,#1470);
#1243=AXIS2_PLACEMENT_3D('',#1830,#1471,#1472);
#1244=AXIS2_PLACEMENT_3D('',#1834,#1474,#1475);
#1245=AXIS2_PLACEMENT_3D('',#1836,#1477,#1478);
#1246=AXIS2_PLACEMENT_3D('',#1840,#1481,#1482);
#1247=AXIS2_PLACEMENT_3D('',#1844,#1485,#1486);
#1248=AXIS2_PLACEMENT_3D('',#1846,#1488,#1489);
#1249=AXIS2_PLACEMENT_3D('',#1847,#1490,#1491);
#1250=AXIS2_PLACEMENT_3D('',#1849,#1492,#1493);
#1251=AXIS2_PLACEMENT_3D('',#1852,#1495,#1496);
#1252=AXIS2_PLACEMENT_3D('',#1853,#1497,#1498);
#1253=AXIS2_PLACEMENT_3D('',#1854,#1499,#1500);
#1254=AXIS2_PLACEMENT_3D('',#1856,#1501,#1502);
#1255=AXIS2_PLACEMENT_3D('',#1859,#1504,#1505);
#1256=AXIS2_PLACEMENT_3D('',#1860,#1506,#1507);
#1257=AXIS2_PLACEMENT_3D('',#1861,#1508,#1509);
#1258=AXIS2_PLACEMENT_3D('',#1870,#1514,#1515);
#1259=AXIS2_PLACEMENT_3D('',#1872,#1516,#1517);
#1260=AXIS2_PLACEMENT_3D('',#1874,#1518,#1519);
#1261=AXIS2_PLACEMENT_3D('',#1876,#1521,#1522);
#1262=AXIS2_PLACEMENT_3D('',#1878,#1523,#1524);
#1263=AXIS2_PLACEMENT_3D('',#1881,#1526,#1527);
#1264=AXIS2_PLACEMENT_3D('',#1882,#1528,#1529);
#1265=AXIS2_PLACEMENT_3D('',#1885,#1532,#1533);
#1266=AXIS2_PLACEMENT_3D('',#1886,#1534,#1535);
#1267=AXIS2_PLACEMENT_3D('',#1888,#1536,#1537);
#1268=AXIS2_PLACEMENT_3D('',#1891,#1539,#1540);
#1269=AXIS2_PLACEMENT_3D('',#1892,#1541,#1542);
#1270=AXIS2_PLACEMENT_3D('',#1893,#1543,#1544);
#1271=AXIS2_PLACEMENT_3D('',#1902,#1549,#1550);
#1272=AXIS2_PLACEMENT_3D('',#1904,#1551,#1552);
#1273=AXIS2_PLACEMENT_3D('',#1907,#1554,#1555);
#1274=AXIS2_PLACEMENT_3D('',#1908,#1556,#1557);
#1275=AXIS2_PLACEMENT_3D('',#1914,#1561,#1562);
#1276=AXIS2_PLACEMENT_3D('',#1915,#1563,#1564);
#1277=AXIS2_PLACEMENT_3D('',#1916,#1565,#1566);
#1278=AXIS2_PLACEMENT_3D('',#1917,#1567,#1568);
#1279=AXIS2_PLACEMENT_3D('',#1918,#1569,#1570);
#1280=AXIS2_PLACEMENT_3D('',#1923,#1572,#1573);
#1281=AXIS2_PLACEMENT_3D('',#1926,#1575,#1576);
#1282=AXIS2_PLACEMENT_3D('',#1928,#1577,#1578);
#1283=AXIS2_PLACEMENT_3D('',#1929,#1579,#1580);
#1284=AXIS2_PLACEMENT_3D('',#1931,#1581,#1582);
#1285=AXIS2_PLACEMENT_3D('',#1934,#1584,#1585);
#1286=AXIS2_PLACEMENT_3D('',#1935,#1586,#1587);
#1287=AXIS2_PLACEMENT_3D('',#1936,#1588,#1589);
#1288=AXIS2_PLACEMENT_3D('',#1939,#1591,#1592);
#1289=AXIS2_PLACEMENT_3D('',#1940,#1593,#1594);
#1290=AXIS2_PLACEMENT_3D('',#1941,#1595,#1596);
#1291=AXIS2_PLACEMENT_3D('',#1947,#1600,#1601);
#1292=AXIS2_PLACEMENT_3D('',#1950,#1603,#1604);
#1293=AXIS2_PLACEMENT_3D('',#1951,#1605,#1606);
#1294=AXIS2_PLACEMENT_3D('',#1955,#1609,#1610);
#1295=AXIS2_PLACEMENT_3D('',#1956,#1611,#1612);
#1296=AXIS2_PLACEMENT_3D('',#1957,#1613,#1614);
#1297=AXIS2_PLACEMENT_3D('',#1960,#1615,#1616);
#1298=AXIS2_PLACEMENT_3D('',#1964,#1618,#1619);
#1299=AXIS2_PLACEMENT_3D('',#1966,#1621,#1622);
#1300=AXIS2_PLACEMENT_3D('',#1972,#1626,#1627);
#1301=AXIS2_PLACEMENT_3D('',#1975,#1629,#1630);
#1302=AXIS2_PLACEMENT_3D('',#1976,#1631,#1632);
#1303=AXIS2_PLACEMENT_3D('',#1980,#1635,#1636);
#1304=AXIS2_PLACEMENT_3D('',#1981,#1637,#1638);
#1305=AXIS2_PLACEMENT_3D('',#1982,#1639,#1640);
#1306=AXIS2_PLACEMENT_3D('',#1984,#1641,#1642);
#1307=AXIS2_PLACEMENT_3D('',#1986,#1644,#1645);
#1308=AXIS2_PLACEMENT_3D('',#1990,#1648,#1649);
#1309=AXIS2_PLACEMENT_3D('',#1992,#1650,#1651);
#1310=AXIS2_PLACEMENT_3D('',#1996,#1653,#1654);
#1311=AXIS2_PLACEMENT_3D('',#1999,#1656,#1657);
#1312=AXIS2_PLACEMENT_3D('',#2000,#1658,#1659);
#1313=AXIS2_PLACEMENT_3D('',#2002,#1661,#1662);
#1314=AXIS2_PLACEMENT_3D('',#2004,#1664,#1665);
#1315=AXIS2_PLACEMENT_3D('',#2006,#1667,#1668);
#1316=AXIS2_PLACEMENT_3D('',#2008,#1670,#1671);
#1317=DIRECTION('axis',(0.,0.,1.));
#1318=DIRECTION('refdir',(1.,0.,0.));
#1319=DIRECTION('center_axis',(0.,0.,-1.));
#1320=DIRECTION('ref_axis',(1.,0.,0.));
#1321=DIRECTION('center_axis',(0.,0.,1.));
#1322=DIRECTION('ref_axis',(-1.65024176050711E-6,-0.999999999998638,0.));
#1323=DIRECTION('',(-1.,0.,0.));
#1324=DIRECTION('center_axis',(0.,0.,1.));
#1325=DIRECTION('ref_axis',(-6.6613381477509E-14,1.,0.));
#1326=DIRECTION('',(0.999999999998638,-1.65024176687595E-6,0.));
#1327=DIRECTION('center_axis',(0.,-1.,0.));
#1328=DIRECTION('ref_axis',(1.,0.,0.));
#1329=DIRECTION('',(0.,0.,1.));
#1330=DIRECTION('',(1.,0.,0.));
#1331=DIRECTION('',(0.,0.,1.));
#1332=DIRECTION('center_axis',(0.,0.,1.));
#1333=DIRECTION('ref_axis',(-1.65024176050711E-6,-0.999999999998638,0.));
#1334=DIRECTION('',(0.,0.,1.));
#1335=DIRECTION('center_axis',(0.,0.,-1.));
#1336=DIRECTION('ref_axis',(-1.65024176050711E-6,-0.999999999998638,0.));
#1337=DIRECTION('center_axis',(1.65024176687595E-6,0.999999999998638,0.));
#1338=DIRECTION('ref_axis',(-0.999999999998638,1.65024176687595E-6,0.));
#1339=DIRECTION('',(0.,0.,1.));
#1340=DIRECTION('',(-0.999999999998638,1.65024176687595E-6,0.));
#1341=DIRECTION('center_axis',(0.,0.,1.));
#1342=DIRECTION('ref_axis',(0.99999999999966,-8.25065538740261E-7,0.));
#1343=DIRECTION('center_axis',(0.,0.,-1.));
#1344=DIRECTION('ref_axis',(-6.6613381477509E-14,1.,0.));
#1345=DIRECTION('center_axis',(-2.01858731750029E-16,1.,0.));
#1346=DIRECTION('ref_axis',(-1.,-2.01858731750029E-16,0.));
#1347=DIRECTION('',(-1.,-2.01858731750029E-16,0.));
#1348=DIRECTION('',(0.,0.,1.));
#1349=DIRECTION('',(-1.,-2.01858731750029E-16,0.));
#1350=DIRECTION('',(0.,0.,1.));
#1351=DIRECTION('center_axis',(0.,0.,1.));
#1352=DIRECTION('ref_axis',(-2.96059473233375E-15,1.,0.));
#1353=DIRECTION('center_axis',(0.,0.,1.));
#1354=DIRECTION('ref_axis',(-2.96059473233375E-15,1.,0.));
#1355=DIRECTION('',(0.,0.,1.));
#1356=DIRECTION('center_axis',(0.,0.,1.));
#1357=DIRECTION('ref_axis',(-2.96059473233375E-15,1.,0.));
#1358=DIRECTION('center_axis',(-1.00929365875014E-16,-1.,0.));
#1359=DIRECTION('ref_axis',(1.,-1.00929365875014E-16,0.));
#1360=DIRECTION('',(1.,-1.00929365875014E-16,0.));
#1361=DIRECTION('',(0.,0.,1.));
#1362=DIRECTION('',(1.,-1.00929365875014E-16,0.));
#1363=DIRECTION('center_axis',(0.,0.,1.));
#1364=DIRECTION('ref_axis',(-2.96059473233375E-15,-1.,0.));
#1365=DIRECTION('center_axis',(0.,0.,1.));
#1366=DIRECTION('ref_axis',(-2.96059473233375E-15,-1.,0.));
#1367=DIRECTION('center_axis',(0.,0.,1.));
#1368=DIRECTION('ref_axis',(-2.96059473233375E-15,-1.,0.));
#1369=DIRECTION('center_axis',(0.,0.,-1.));
#1370=DIRECTION('ref_axis',(1.,0.,0.));
#1371=DIRECTION('center_axis',(0.,0.,1.));
#1372=DIRECTION('ref_axis',(1.,0.,0.));
#1373=DIRECTION('',(1.,0.,0.));
#1374=DIRECTION('',(0.,-1.,0.));
#1375=DIRECTION('',(-1.,0.,0.));
#1376=DIRECTION('',(0.,-1.,0.));
#1377=DIRECTION('center_axis',(0.,0.,1.));
#1378=DIRECTION('ref_axis',(1.,0.,0.));
#1379=DIRECTION('center_axis',(0.,0.,1.));
#1380=DIRECTION('ref_axis',(1.,0.,0.));
#1381=DIRECTION('center_axis',(0.,0.,1.));
#1382=DIRECTION('ref_axis',(1.,0.,0.));
#1383=DIRECTION('',(0.,0.,1.));
#1384=DIRECTION('center_axis',(0.,0.,1.));
#1385=DIRECTION('ref_axis',(1.,0.,0.));
#1386=DIRECTION('center_axis',(0.,0.,-1.));
#1387=DIRECTION('ref_axis',(1.,0.,0.));
#1388=DIRECTION('center_axis',(0.,0.,1.));
#1389=DIRECTION('ref_axis',(1.,0.,0.));
#1390=DIRECTION('',(0.,0.,1.));
#1391=DIRECTION('center_axis',(0.,0.,1.));
#1392=DIRECTION('ref_axis',(1.,0.,0.));
#1393=DIRECTION('center_axis',(0.,0.,-1.));
#1394=DIRECTION('ref_axis',(1.,0.,0.));
#1395=DIRECTION('center_axis',(-1.,0.,0.));
#1396=DIRECTION('ref_axis',(0.,-1.,0.));
#1397=DIRECTION('',(0.,-1.,0.));
#1398=DIRECTION('',(0.,0.,1.));
#1399=DIRECTION('',(0.,-1.,0.));
#1400=DIRECTION('',(0.,0.,1.));
#1401=DIRECTION('center_axis',(0.,-1.,0.));
#1402=DIRECTION('ref_axis',(1.,0.,0.));
#1403=DIRECTION('center_axis',(0.,-1.,0.));
#1404=DIRECTION('ref_axis',(0.,0.,1.));
#1405=DIRECTION('',(1.,0.,0.));
#1406=DIRECTION('',(0.,0.,1.));
#1407=DIRECTION('',(1.,0.,0.));
#1408=DIRECTION('center_axis',(0.,-1.,0.));
#1409=DIRECTION('ref_axis',(1.,0.,0.));
#1410=DIRECTION('',(0.,0.,1.));
#1411=DIRECTION('',(1.,0.,0.));
#1412=DIRECTION('',(0.,0.,1.));
#1413=DIRECTION('center_axis',(1.,0.,0.));
#1414=DIRECTION('ref_axis',(0.,1.,0.));
#1415=DIRECTION('',(0.,0.,1.));
#1416=DIRECTION('',(0.,1.,0.));
#1417=DIRECTION('center_axis',(0.,1.,0.));
#1418=DIRECTION('ref_axis',(-1.,0.,0.));
#1419=DIRECTION('',(0.,0.,1.));
#1420=DIRECTION('',(-1.,0.,0.));
#1421=DIRECTION('center_axis',(-1.,0.,0.));
#1422=DIRECTION('ref_axis',(0.,-1.,0.));
#1423=DIRECTION('',(0.,-1.,0.));
#1424=DIRECTION('center_axis',(1.,1.36642833800019E-15,0.));
#1425=DIRECTION('ref_axis',(-1.36642833800019E-15,1.,0.));
#1426=DIRECTION('',(-1.36642833800019E-15,1.,0.));
#1427=DIRECTION('',(-1.36642833800019E-15,1.,0.));
#1428=DIRECTION('',(0.,0.,1.));
#1429=DIRECTION('center_axis',(0.,1.,0.));
#1430=DIRECTION('ref_axis',(-1.,0.,0.));
#1431=DIRECTION('center_axis',(0.,1.,0.));
#1432=DIRECTION('ref_axis',(0.,0.,1.));
#1433=DIRECTION('',(-1.,0.,0.));
#1434=DIRECTION('',(-1.,0.,0.));
#1435=DIRECTION('center_axis',(0.,0.,1.));
#1436=DIRECTION('ref_axis',(1.,0.,0.));
#1437=DIRECTION('center_axis',(0.,1.,0.));
#1438=DIRECTION('ref_axis',(0.,0.,1.));
#1439=DIRECTION('',(0.,-1.,0.));
#1440=DIRECTION('center_axis',(0.,1.,0.));
#1441=DIRECTION('ref_axis',(0.,0.,1.));
#1442=DIRECTION('',(0.,-1.,0.));
#1443=DIRECTION('center_axis',(1.78779875140927E-17,1.,0.));
#1444=DIRECTION('ref_axis',(0.,0.,1.));
#1445=DIRECTION('',(0.,1.,0.));
#1446=DIRECTION('center_axis',(0.,1.,0.));
#1447=DIRECTION('ref_axis',(0.,0.,1.));
#1448=DIRECTION('',(0.,-1.,0.));
#1449=DIRECTION('center_axis',(1.78779875140927E-17,1.,0.));
#1450=DIRECTION('ref_axis',(0.,0.,1.));
#1451=DIRECTION('',(0.,-1.,0.));
#1452=DIRECTION('center_axis',(0.,0.,1.));
#1453=DIRECTION('ref_axis',(1.,0.,0.));
#1454=DIRECTION('',(1.,-1.78779875140927E-17,0.));
#1455=DIRECTION('',(0.,-1.,0.));
#1456=DIRECTION('',(-1.,0.,0.));
#1457=DIRECTION('center_axis',(0.,0.,1.));
#1458=DIRECTION('ref_axis',(-1.,1.00929365875014E-16,0.));
#1459=DIRECTION('',(0.,-1.,0.));
#1460=DIRECTION('',(1.,0.,0.));
#1461=DIRECTION('',(0.,1.,0.));
#1462=DIRECTION('center_axis',(0.,0.,1.));
#1463=DIRECTION('ref_axis',(1.,0.,0.));
#1464=DIRECTION('center_axis',(0.,0.,-1.));
#1465=DIRECTION('ref_axis',(1.,0.,0.));
#1466=DIRECTION('',(0.,0.,1.));
#1467=DIRECTION('center_axis',(0.,0.,1.));
#1468=DIRECTION('ref_axis',(1.,0.,0.));
#1469=DIRECTION('center_axis',(0.,0.,1.));
#1470=DIRECTION('ref_axis',(1.,0.,0.));
#1471=DIRECTION('center_axis',(0.,0.,1.));
#1472=DIRECTION('ref_axis',(-1.,1.00929365875014E-16,0.));
#1473=DIRECTION('',(0.,0.,1.));
#1474=DIRECTION('center_axis',(0.,0.,1.));
#1475=DIRECTION('ref_axis',(-1.,1.00929365875014E-16,0.));
#1476=DIRECTION('',(0.,0.,1.));
#1477=DIRECTION('center_axis',(1.,0.,0.));
#1478=DIRECTION('ref_axis',(0.,1.,0.));
#1479=DIRECTION('',(0.,0.,1.));
#1480=DIRECTION('',(0.,1.,0.));
#1481=DIRECTION('center_axis',(0.,-1.,0.));
#1482=DIRECTION('ref_axis',(1.,0.,0.));
#1483=DIRECTION('',(0.,0.,1.));
#1484=DIRECTION('',(1.,0.,0.));
#1485=DIRECTION('center_axis',(-1.,0.,0.));
#1486=DIRECTION('ref_axis',(0.,-1.,0.));
#1487=DIRECTION('',(0.,-1.,0.));
#1488=DIRECTION('center_axis',(0.,0.,-1.));
#1489=DIRECTION('ref_axis',(1.,0.,0.));
#1490=DIRECTION('center_axis',(0.,-1.,0.));
#1491=DIRECTION('ref_axis',(-1.,0.,0.));
#1492=DIRECTION('center_axis',(-1.78779875140927E-17,-1.,0.));
#1493=DIRECTION('ref_axis',(-1.,0.,0.));
#1494=DIRECTION('',(0.,-1.,0.));
#1495=DIRECTION('center_axis',(0.,-1.,0.));
#1496=DIRECTION('ref_axis',(-1.,0.,0.));
#1497=DIRECTION('center_axis',(0.,1.,0.));
#1498=DIRECTION('ref_axis',(-1.,0.,0.));
#1499=DIRECTION('center_axis',(0.,-1.,0.));
#1500=DIRECTION('ref_axis',(-1.,0.,0.));
#1501=DIRECTION('center_axis',(-1.78779875140927E-17,-1.,0.));
#1502=DIRECTION('ref_axis',(-1.,0.,0.));
#1503=DIRECTION('',(0.,-1.,0.));
#1504=DIRECTION('center_axis',(0.,-1.,0.));
#1505=DIRECTION('ref_axis',(-1.,0.,0.));
#1506=DIRECTION('center_axis',(0.,1.,0.));
#1507=DIRECTION('ref_axis',(-1.,0.,0.));
#1508=DIRECTION('center_axis',(-1.,0.,0.));
#1509=DIRECTION('ref_axis',(0.,0.,1.));
#1510=DIRECTION('',(0.,0.,-1.));
#1511=DIRECTION('',(0.,1.,0.));
#1512=DIRECTION('',(0.,0.,1.));
#1513=DIRECTION('',(0.,1.,0.));
#1514=DIRECTION('center_axis',(0.,1.,0.));
#1515=DIRECTION('ref_axis',(1.,0.,-1.70803542250024E-15));
#1516=DIRECTION('center_axis',(0.,-1.,0.));
#1517=DIRECTION('ref_axis',(1.,0.,-1.70803542250024E-15));
#1518=DIRECTION('center_axis',(0.,1.,0.));
#1519=DIRECTION('ref_axis',(1.,0.,-1.70803542250024E-15));
#1520=DIRECTION('',(0.,1.,0.));
#1521=DIRECTION('center_axis',(0.,1.,0.));
#1522=DIRECTION('ref_axis',(-1.,0.,0.));
#1523=DIRECTION('center_axis',(0.,-1.,0.));
#1524=DIRECTION('ref_axis',(-1.,0.,0.));
#1525=DIRECTION('',(0.,1.,0.));
#1526=DIRECTION('center_axis',(0.,1.,0.));
#1527=DIRECTION('ref_axis',(-1.,0.,0.));
#1528=DIRECTION('center_axis',(1.,0.,0.));
#1529=DIRECTION('ref_axis',(0.,0.,-1.));
#1530=DIRECTION('',(0.,0.,1.));
#1531=DIRECTION('',(0.,0.,-1.));
#1532=DIRECTION('center_axis',(0.,-1.,0.));
#1533=DIRECTION('ref_axis',(1.,0.,0.));
#1534=DIRECTION('center_axis',(0.,1.,0.));
#1535=DIRECTION('ref_axis',(1.,0.,0.));
#1536=DIRECTION('center_axis',(0.,-1.,0.));
#1537=DIRECTION('ref_axis',(1.,0.,0.));
#1538=DIRECTION('',(0.,1.,0.));
#1539=DIRECTION('center_axis',(0.,1.,0.));
#1540=DIRECTION('ref_axis',(1.,0.,0.));
#1541=DIRECTION('center_axis',(0.,-1.,0.));
#1542=DIRECTION('ref_axis',(1.,0.,0.));
#1543=DIRECTION('center_axis',(0.,0.,-1.));
#1544=DIRECTION('ref_axis',(-1.,0.,0.));
#1545=DIRECTION('',(-1.,0.,0.));
#1546=DIRECTION('',(0.,1.,0.));
#1547=DIRECTION('',(-1.,0.,0.));
#1548=DIRECTION('',(0.,1.,0.));
#1549=DIRECTION('center_axis',(0.,1.,0.));
#1550=DIRECTION('ref_axis',(0.,0.,-1.));
#1551=DIRECTION('center_axis',(0.,1.,0.));
#1552=DIRECTION('ref_axis',(0.,0.,-1.));
#1553=DIRECTION('',(0.,1.,0.));
#1554=DIRECTION('center_axis',(0.,1.,0.));
#1555=DIRECTION('ref_axis',(0.,0.,-1.));
#1556=DIRECTION('center_axis',(0.,0.,1.));
#1557=DIRECTION('ref_axis',(1.,0.,0.));
#1558=DIRECTION('',(1.,0.,0.));
#1559=DIRECTION('',(0.,1.,0.));
#1560=DIRECTION('',(1.,0.,0.));
#1561=DIRECTION('center_axis',(0.,1.,0.));
#1562=DIRECTION('ref_axis',(0.,0.,1.));
#1563=DIRECTION('center_axis',(0.,1.,0.));
#1564=DIRECTION('ref_axis',(0.,0.,1.));
#1565=DIRECTION('center_axis',(0.,1.,0.));
#1566=DIRECTION('ref_axis',(0.,0.,1.));
#1567=DIRECTION('center_axis',(0.,-1.,0.));
#1568=DIRECTION('ref_axis',(1.,0.,0.));
#1569=DIRECTION('center_axis',(0.,-1.,0.));
#1570=DIRECTION('ref_axis',(1.,0.,0.));
#1571=DIRECTION('',(-1.,0.,-4.67462326157961E-17));
#1572=DIRECTION('center_axis',(0.,-1.,0.));
#1573=DIRECTION('ref_axis',(9.49923443529547E-16,0.,1.));
#1574=DIRECTION('',(1.,0.,-4.67462326157961E-17));
#1575=DIRECTION('center_axis',(0.,-1.,0.));
#1576=DIRECTION('ref_axis',(0.,0.,-1.));
#1577=DIRECTION('center_axis',(0.,1.,0.));
#1578=DIRECTION('ref_axis',(1.,0.,0.));
#1579=DIRECTION('center_axis',(0.,1.,0.));
#1580=DIRECTION('ref_axis',(1.,0.,0.));
#1581=DIRECTION('center_axis',(0.,-1.,0.));
#1582=DIRECTION('ref_axis',(1.,0.,0.));
#1583=DIRECTION('',(0.,1.,0.));
#1584=DIRECTION('center_axis',(0.,1.,0.));
#1585=DIRECTION('ref_axis',(1.,0.,0.));
#1586=DIRECTION('center_axis',(0.,-1.,0.));
#1587=DIRECTION('ref_axis',(1.,0.,0.));
#1588=DIRECTION('center_axis',(0.,1.,0.));
#1589=DIRECTION('ref_axis',(1.,0.,0.));
#1590=DIRECTION('',(0.,1.,0.));
#1591=DIRECTION('center_axis',(0.,1.,0.));
#1592=DIRECTION('ref_axis',(1.,0.,0.));
#1593=DIRECTION('center_axis',(0.,-1.,0.));
#1594=DIRECTION('ref_axis',(1.,0.,0.));
#1595=DIRECTION('center_axis',(4.67462326157961E-17,0.,-1.));
#1596=DIRECTION('ref_axis',(-1.,0.,-4.67462326157961E-17));
#1597=DIRECTION('',(0.,1.,0.));
#1598=DIRECTION('',(-1.,0.,-4.67462326157961E-17));
#1599=DIRECTION('',(0.,1.,0.));
#1600=DIRECTION('center_axis',(0.,1.,0.));
#1601=DIRECTION('ref_axis',(0.,0.,-1.));
#1602=DIRECTION('',(0.,1.,0.));
#1603=DIRECTION('center_axis',(0.,-1.,0.));
#1604=DIRECTION('ref_axis',(0.,0.,-1.));
#1605=DIRECTION('center_axis',(4.67462326157961E-17,0.,1.));
#1606=DIRECTION('ref_axis',(1.,0.,-4.67462326157961E-17));
#1607=DIRECTION('',(0.,1.,0.));
#1608=DIRECTION('',(1.,0.,-4.67462326157961E-17));
#1609=DIRECTION('center_axis',(0.,1.,0.));
#1610=DIRECTION('ref_axis',(9.49923443529547E-16,0.,1.));
#1611=DIRECTION('center_axis',(0.,-1.,0.));
#1612=DIRECTION('ref_axis',(9.49923443529547E-16,0.,1.));
#1613=DIRECTION('center_axis',(0.,-1.,0.));
#1614=DIRECTION('ref_axis',(1.,0.,0.));
#1615=DIRECTION('center_axis',(0.,1.,0.));
#1616=DIRECTION('ref_axis',(-1.7415263131375E-15,0.,1.));
#1617=DIRECTION('',(-1.,0.,-5.84327906047568E-18));
#1618=DIRECTION('center_axis',(0.,1.,0.));
#1619=DIRECTION('ref_axis',(3.66591288915444E-13,0.,-1.));
#1620=DIRECTION('',(1.,0.,0.));
#1621=DIRECTION('center_axis',(-5.84327906047568E-18,0.,1.));
#1622=DIRECTION('ref_axis',(1.,0.,5.84327906047568E-18));
#1623=DIRECTION('',(0.,1.,0.));
#1624=DIRECTION('',(1.,0.,5.84327906047568E-18));
#1625=DIRECTION('',(0.,1.,0.));
#1626=DIRECTION('center_axis',(0.,1.,0.));
#1627=DIRECTION('ref_axis',(-1.7415263131375E-15,0.,1.));
#1628=DIRECTION('',(0.,1.,0.));
#1629=DIRECTION('center_axis',(0.,-1.,0.));
#1630=DIRECTION('ref_axis',(-1.7415263131375E-15,0.,1.));
#1631=DIRECTION('center_axis',(0.,0.,-1.));
#1632=DIRECTION('ref_axis',(-1.,0.,0.));
#1633=DIRECTION('',(0.,1.,0.));
#1634=DIRECTION('',(-1.,0.,0.));
#1635=DIRECTION('center_axis',(0.,1.,0.));
#1636=DIRECTION('ref_axis',(3.66591288915444E-13,0.,-1.));
#1637=DIRECTION('center_axis',(0.,-1.,0.));
#1638=DIRECTION('ref_axis',(3.66591288915444E-13,0.,-1.));
#1639=DIRECTION('center_axis',(0.,-1.,0.));
#1640=DIRECTION('ref_axis',(1.,0.,0.));
#1641=DIRECTION('center_axis',(0.,1.,0.));
#1642=DIRECTION('ref_axis',(0.,0.,-1.));
#1643=DIRECTION('',(1.,0.,0.));
#1644=DIRECTION('center_axis',(0.,0.,1.));
#1645=DIRECTION('ref_axis',(1.,0.,0.));
#1646=DIRECTION('',(0.,-1.,0.));
#1647=DIRECTION('',(-1.,1.78779875140927E-17,0.));
#1648=DIRECTION('center_axis',(0.,1.,0.));
#1649=DIRECTION('ref_axis',(0.,0.,-1.));
#1650=DIRECTION('center_axis',(1.78779875140927E-17,1.,0.));
#1651=DIRECTION('ref_axis',(0.,0.,-1.));
#1652=DIRECTION('',(0.,1.,0.));
#1653=DIRECTION('center_axis',(-7.40148683083438E-16,1.,0.));
#1654=DIRECTION('ref_axis',(0.,0.,-1.));
#1655=DIRECTION('',(0.,-1.,0.));
#1656=DIRECTION('center_axis',(1.78779875140927E-17,1.,0.));
#1657=DIRECTION('ref_axis',(0.,0.,-1.));
#1658=DIRECTION('center_axis',(-7.40148683083438E-16,1.,0.));
#1659=DIRECTION('ref_axis',(-1.,-7.40148683083438E-16,0.));
#1660=DIRECTION('',(0.,0.,1.));
#1661=DIRECTION('center_axis',(1.,0.,0.));
#1662=DIRECTION('ref_axis',(0.,1.,0.));
#1663=DIRECTION('',(0.,0.,1.));
#1664=DIRECTION('center_axis',(1.78779875140927E-17,1.,0.));
#1665=DIRECTION('ref_axis',(-1.,1.78779875140927E-17,0.));
#1666=DIRECTION('',(0.,0.,1.));
#1667=DIRECTION('center_axis',(0.,1.,0.));
#1668=DIRECTION('ref_axis',(-1.,0.,0.));
#1669=DIRECTION('',(0.,0.,1.));
#1670=DIRECTION('center_axis',(-1.,0.,0.));
#1671=DIRECTION('ref_axis',(0.,-1.,0.));
#1672=CARTESIAN_POINT('',(0.,0.,0.));
#1673=CARTESIAN_POINT('Origin',(-37.0999954618351,6.150005,0.9));
#1674=CARTESIAN_POINT('',(-39.8499999999914,6.34999092367029,0.9));
#1675=CARTESIAN_POINT('',(-39.8500003300334,5.95000907632999,0.9));
#1676=CARTESIAN_POINT('Origin',(-39.85,6.15,0.9));
#1677=CARTESIAN_POINT('',(-34.35,6.35,0.9));
#1678=CARTESIAN_POINT('',(-38.4749977309176,6.35,0.9));
#1679=CARTESIAN_POINT('',(-34.3500003300262,5.95000000000027,0.9));
#1680=CARTESIAN_POINT('Origin',(-34.35,6.15,0.9));
#1681=CARTESIAN_POINT('',(-35.7249980609663,5.95000226907896,0.9));
#1682=CARTESIAN_POINT('Origin',(-39.85,6.35,0.));
#1683=CARTESIAN_POINT('',(-39.8499999999914,6.34999092367029,9.9));
#1684=CARTESIAN_POINT('',(-39.8499999999914,6.34999092367029,0.));
#1685=CARTESIAN_POINT('',(-34.35,6.35,9.9));
#1686=CARTESIAN_POINT('',(-39.85,6.35,9.9));
#1687=CARTESIAN_POINT('',(-34.35,6.35,0.));
#1688=CARTESIAN_POINT('Origin',(-39.85,6.15,0.));
#1689=CARTESIAN_POINT('',(-39.8500003300334,5.95000907632999,9.9));
#1690=CARTESIAN_POINT('',(-39.8500003300334,5.95000907632999,0.));
#1691=CARTESIAN_POINT('Origin',(-39.85,6.15,9.9));
#1692=CARTESIAN_POINT('Origin',(-34.3500003300484,5.95000000000027,0.));
#1693=CARTESIAN_POINT('',(-34.3500003300262,5.95000000000027,9.9));
#1694=CARTESIAN_POINT('',(-34.3500003300262,5.95000000000027,0.));
#1695=CARTESIAN_POINT('',(-39.8500003300334,5.95000907632999,9.9));
#1696=CARTESIAN_POINT('Origin',(-34.35,6.15,0.));
#1697=CARTESIAN_POINT('Origin',(-34.35,6.15,9.9));
#1698=CARTESIAN_POINT('Origin',(-34.35,7.65,0.));
#1699=CARTESIAN_POINT('',(-34.35,7.65,0.));
#1700=CARTESIAN_POINT('',(-39.85,7.65,0.));
#1701=CARTESIAN_POINT('',(-17.175,7.65000000000001,0.));
#1702=CARTESIAN_POINT('',(-34.35,7.65,9.9));
#1703=CARTESIAN_POINT('',(-34.35,7.65,0.));
#1704=CARTESIAN_POINT('',(-39.85,7.65,9.9));
#1705=CARTESIAN_POINT('',(-39.85,7.65,9.9));
#1706=CARTESIAN_POINT('',(-39.85,7.65,0.));
#1707=CARTESIAN_POINT('Origin',(-34.35,6.15,0.));
#1708=CARTESIAN_POINT('',(-34.35,4.65,0.));
#1709=CARTESIAN_POINT('Origin',(-34.35,6.15,0.));
#1710=CARTESIAN_POINT('',(-34.35,4.65,9.9));
#1711=CARTESIAN_POINT('',(-34.35,4.65,0.));
#1712=CARTESIAN_POINT('Origin',(-34.35,6.15,9.9));
#1713=CARTESIAN_POINT('Origin',(-39.85,4.65,0.));
#1714=CARTESIAN_POINT('',(-39.85,4.65,0.));
#1715=CARTESIAN_POINT('',(-19.925,4.65,0.));
#1716=CARTESIAN_POINT('',(-39.85,4.65,9.9));
#1717=CARTESIAN_POINT('',(-39.85,4.65,0.));
#1718=CARTESIAN_POINT('',(-39.85,4.65,9.9));
#1719=CARTESIAN_POINT('Origin',(-39.85,6.15,0.));
#1720=CARTESIAN_POINT('Origin',(-39.85,6.15,0.));
#1721=CARTESIAN_POINT('Origin',(-39.85,6.15,9.9));
#1722=CARTESIAN_POINT('Origin',(-37.1,6.15,9.9));
#1723=CARTESIAN_POINT('Origin',(-8.88178419700125E-15,-2.22044604925031E-15,
0.));
#1724=CARTESIAN_POINT('',(-47.5,8.8,0.));
#1725=CARTESIAN_POINT('',(-26.7,8.8,0.));
#1726=CARTESIAN_POINT('',(-23.75,8.8,0.));
#1727=CARTESIAN_POINT('',(-26.7,3.5,0.));
#1728=CARTESIAN_POINT('',(-26.7,4.4,0.));
#1729=CARTESIAN_POINT('',(-47.5,3.5,0.));
#1730=CARTESIAN_POINT('',(-13.35,3.5,0.));
#1731=CARTESIAN_POINT('',(-47.5,-13.9,0.));
#1732=CARTESIAN_POINT('',(-31.7,6.15,0.));
#1733=CARTESIAN_POINT('Origin',(-29.6,6.15,0.));
#1734=CARTESIAN_POINT('',(-46.7,6.15,0.));
#1735=CARTESIAN_POINT('Origin',(-44.6,6.15,0.));
#1736=CARTESIAN_POINT('Origin',(-44.6,6.15,0.));
#1737=CARTESIAN_POINT('',(-46.7,6.15,0.05));
#1738=CARTESIAN_POINT('',(-46.7,6.15,0.));
#1739=CARTESIAN_POINT('Origin',(-44.6,6.15,0.05));
#1740=CARTESIAN_POINT('Origin',(-44.6,6.15,0.05));
#1741=CARTESIAN_POINT('Origin',(-29.6,6.15,0.));
#1742=CARTESIAN_POINT('',(-31.7,6.15,0.05));
#1743=CARTESIAN_POINT('',(-31.7,6.15,0.));
#1744=CARTESIAN_POINT('Origin',(-29.6,6.15,0.05));
#1745=CARTESIAN_POINT('Origin',(-29.6,6.15,0.05));
#1746=CARTESIAN_POINT('Origin',(-48.1,9.4,0.));
#1747=CARTESIAN_POINT('',(-48.1,9.4,0.0123339769516262));
#1748=CARTESIAN_POINT('',(-48.1,2.9,0.0123339769516262));
#1749=CARTESIAN_POINT('',(-48.1,-13.9,0.0123339769516262));
#1750=CARTESIAN_POINT('',(-48.1,9.4,0.05));
#1751=CARTESIAN_POINT('',(-48.1,9.4,0.));
#1752=CARTESIAN_POINT('',(-48.1,2.9,0.05));
#1753=CARTESIAN_POINT('',(-48.1,9.4,0.05));
#1754=CARTESIAN_POINT('',(-48.1,2.9,0.));
#1755=CARTESIAN_POINT('Origin',(-48.1,2.9,0.));
#1756=CARTESIAN_POINT('',(-47.5,2.9,0.));
#1757=CARTESIAN_POINT('Origin',(-47.5,2.9,14.6));
#1758=CARTESIAN_POINT('',(-26.1,2.9,0.05));
#1759=CARTESIAN_POINT('',(-48.1,2.9,0.05));
#1760=CARTESIAN_POINT('',(-26.1,2.9,0.));
#1761=CARTESIAN_POINT('',(-26.1,2.9,0.));
#1762=CARTESIAN_POINT('',(-24.05,2.9,0.));
#1763=CARTESIAN_POINT('Origin',(-47.5,8.8,0.));
#1764=CARTESIAN_POINT('',(-47.5,8.8,0.05));
#1765=CARTESIAN_POINT('',(-47.5,8.8,0.));
#1766=CARTESIAN_POINT('',(-26.7,8.8,0.05));
#1767=CARTESIAN_POINT('',(-47.5,8.8,0.05));
#1768=CARTESIAN_POINT('',(-26.7,8.8,0.));
#1769=CARTESIAN_POINT('Origin',(-47.5,3.5,0.));
#1770=CARTESIAN_POINT('',(-47.5,3.5,0.05));
#1771=CARTESIAN_POINT('',(-47.5,3.5,0.));
#1772=CARTESIAN_POINT('',(-47.5,3.5,0.05));
#1773=CARTESIAN_POINT('Origin',(-26.7,3.5,0.));
#1774=CARTESIAN_POINT('',(-26.7,3.5,0.05));
#1775=CARTESIAN_POINT('',(-26.7,3.5,0.));
#1776=CARTESIAN_POINT('',(-26.7,3.5,0.05));
#1777=CARTESIAN_POINT('Origin',(-26.7,8.8,0.));
#1778=CARTESIAN_POINT('',(-26.7,8.8,0.05));
#1779=CARTESIAN_POINT('Origin',(-26.1,2.9,0.));
#1780=CARTESIAN_POINT('',(-26.1,9.4,0.));
#1781=CARTESIAN_POINT('',(-26.1,1.44999999999998,0.));
#1782=CARTESIAN_POINT('',(-26.1,9.4,0.05));
#1783=CARTESIAN_POINT('',(-26.1,2.9,0.05));
#1784=CARTESIAN_POINT('',(-26.1,9.4,0.));
#1785=CARTESIAN_POINT('Origin',(-26.1,9.4,0.));
#1786=CARTESIAN_POINT('',(-47.5,9.4,0.));
#1787=CARTESIAN_POINT('Origin',(-47.5,9.4,14.6));
#1788=CARTESIAN_POINT('',(-13.05,9.4,0.));
#1789=CARTESIAN_POINT('',(-26.1,9.4,0.05));
#1790=CARTESIAN_POINT('Origin',(-37.1,6.15,0.05));
#1791=CARTESIAN_POINT('Origin',(-47.5,-13.9,14.6));
#1792=CARTESIAN_POINT('',(-47.5,-11.,0.));
#1793=CARTESIAN_POINT('',(-47.5,-13.9,0.));
#1794=CARTESIAN_POINT('',(-47.5,-11.,29.2));
#1795=CARTESIAN_POINT('Origin',(-47.5,-11.,14.6));
#1796=CARTESIAN_POINT('',(-47.5,13.9,29.2));
#1797=CARTESIAN_POINT('',(-47.5,-13.9,29.2));
#1798=CARTESIAN_POINT('',(-56.1,13.9,26.3983049630021));
#1799=CARTESIAN_POINT('Origin',(-47.5,13.9,14.6));
#1800=CARTESIAN_POINT('',(-56.1,4.5,26.3983049630021));
#1801=CARTESIAN_POINT('',(-56.1,-13.9,26.3983049630021));
#1802=CARTESIAN_POINT('',(-56.1,4.5,2.8016950369979));
#1803=CARTESIAN_POINT('Origin',(-47.5,4.5,14.6));
#1804=CARTESIAN_POINT('',(-56.1,13.9,2.8016950369979));
#1805=CARTESIAN_POINT('',(-56.1,-13.9,2.8016950369979));
#1806=CARTESIAN_POINT('',(-47.5,13.9,0.));
#1807=CARTESIAN_POINT('Origin',(-47.5,13.9,14.6));
#1808=CARTESIAN_POINT('',(-47.5,-13.9,0.));
#1809=CARTESIAN_POINT('Origin',(-8.88178419700125E-15,-2.22044604925031E-15,
0.));
#1810=CARTESIAN_POINT('',(47.5,13.9,0.));
#1811=CARTESIAN_POINT('',(-62.1,13.9,0.));
#1812=CARTESIAN_POINT('',(47.5,-11.,0.));
#1813=CARTESIAN_POINT('',(47.5,-13.9,0.));
#1814=CARTESIAN_POINT('',(-8.88178419700125E-15,-11.,0.));
#1815=CARTESIAN_POINT('',(5.5,3.345,0.));
#1816=CARTESIAN_POINT('',(-5.5,3.345,0.));
#1817=CARTESIAN_POINT('Origin',(0.,3.345,0.));
#1818=CARTESIAN_POINT('',(-5.5,-1.6,0.));
#1819=CARTESIAN_POINT('',(-5.5,1.6725,0.));
#1820=CARTESIAN_POINT('',(5.5,-1.6,0.));
#1821=CARTESIAN_POINT('',(-2.75,-1.6,0.));
#1822=CARTESIAN_POINT('',(5.5,-0.800000000000001,0.));
#1823=CARTESIAN_POINT('Origin',(0.,3.345,0.));
#1824=CARTESIAN_POINT('',(-2.555,3.345,0.05));
#1825=CARTESIAN_POINT('Origin',(0.,3.345,0.05));
#1826=CARTESIAN_POINT('',(-2.555,3.345,8.));
#1827=CARTESIAN_POINT('',(-2.555,3.345,0.));
#1828=CARTESIAN_POINT('Origin',(0.,3.345,8.));
#1829=CARTESIAN_POINT('Origin',(-8.88178419700125E-15,-2.22044604925031E-15,
8.));
#1830=CARTESIAN_POINT('Origin',(0.,3.345,0.));
#1831=CARTESIAN_POINT('',(5.5,3.345,0.05));
#1832=CARTESIAN_POINT('',(5.5,3.345,0.));
#1833=CARTESIAN_POINT('',(-5.5,3.345,0.05));
#1834=CARTESIAN_POINT('Origin',(0.,3.345,0.05));
#1835=CARTESIAN_POINT('',(-5.5,3.345,0.));
#1836=CARTESIAN_POINT('Origin',(5.5,-1.6,0.));
#1837=CARTESIAN_POINT('',(5.5,-1.6,0.05));
#1838=CARTESIAN_POINT('',(5.5,-1.6,0.));
#1839=CARTESIAN_POINT('',(5.5,3.345,0.05));
#1840=CARTESIAN_POINT('Origin',(-5.5,-1.6,0.));
#1841=CARTESIAN_POINT('',(-5.5,-1.6,0.05));
#1842=CARTESIAN_POINT('',(-5.5,-1.6,0.));
#1843=CARTESIAN_POINT('',(-5.5,-1.6,0.05));
#1844=CARTESIAN_POINT('Origin',(-5.5,3.345,0.));
#1845=CARTESIAN_POINT('',(-5.5,3.345,0.05));
#1846=CARTESIAN_POINT('Origin',(0.,3.6225,0.05));
#1847=CARTESIAN_POINT('Origin',(47.5,13.9,14.6));
#1848=CARTESIAN_POINT('',(49.5,13.9,14.6));
#1849=CARTESIAN_POINT('Origin',(47.5,13.9,14.6));
#1850=CARTESIAN_POINT('',(49.5,8.9,14.6));
#1851=CARTESIAN_POINT('',(49.5,13.9,14.6));
#1852=CARTESIAN_POINT('Origin',(47.5,8.9,14.6));
#1853=CARTESIAN_POINT('Origin',(47.5,8.9,14.6));
#1854=CARTESIAN_POINT('Origin',(-47.5,13.9,14.6));
#1855=CARTESIAN_POINT('',(-45.5,13.9,14.6));
#1856=CARTESIAN_POINT('Origin',(-47.5,13.9,14.6));
#1857=CARTESIAN_POINT('',(-45.5,8.9,14.6));
#1858=CARTESIAN_POINT('',(-45.5,13.9,14.6));
#1859=CARTESIAN_POINT('Origin',(-47.5,8.9,14.6));
#1860=CARTESIAN_POINT('Origin',(-47.5,8.9,14.6));
#1861=CARTESIAN_POINT('Origin',(-9.80000000000001,-13.9,13.575));
#1862=CARTESIAN_POINT('',(-9.80000000000001,-13.85,15.625));
#1863=CARTESIAN_POINT('',(-9.80000000000001,-13.85,13.575));
#1864=CARTESIAN_POINT('',(-9.80000000000001,-13.85,15.625));
#1865=CARTESIAN_POINT('',(-9.80000000000001,-13.8,13.575));
#1866=CARTESIAN_POINT('',(-9.80000000000001,-13.9,13.575));
#1867=CARTESIAN_POINT('',(-9.80000000000001,-13.8,15.625));
#1868=CARTESIAN_POINT('',(-9.80000000000001,-13.8,15.625));
#1869=CARTESIAN_POINT('',(-9.80000000000001,-13.9,15.625));
#1870=CARTESIAN_POINT('Origin',(-8.50000000000001,-13.9,15.625));
#1871=CARTESIAN_POINT('',(-7.20000000000001,-13.85,15.625));
#1872=CARTESIAN_POINT('Origin',(-8.50000000000001,-13.85,15.625));
#1873=CARTESIAN_POINT('',(-7.20000000000001,-13.8,15.625));
#1874=CARTESIAN_POINT('Origin',(-8.50000000000001,-13.8,15.625));
#1875=CARTESIAN_POINT('',(-7.20000000000001,-13.9,15.625));
#1876=CARTESIAN_POINT('Origin',(-8.50000000000001,-13.9,13.575));
#1877=CARTESIAN_POINT('',(-7.20000000000001,-13.85,13.575));
#1878=CARTESIAN_POINT('Origin',(-8.50000000000001,-13.85,13.575));
#1879=CARTESIAN_POINT('',(-7.20000000000001,-13.8,13.575));
#1880=CARTESIAN_POINT('',(-7.20000000000001,-13.9,13.575));
#1881=CARTESIAN_POINT('Origin',(-8.50000000000001,-13.8,13.575));
#1882=CARTESIAN_POINT('Origin',(-7.20000000000001,-13.9,15.625));
#1883=CARTESIAN_POINT('',(-7.20000000000001,-13.85,15.625));
#1884=CARTESIAN_POINT('',(-7.20000000000001,-13.8,15.625));
#1885=CARTESIAN_POINT('Origin',(-8.50000000000001,-13.8,14.6));
#1886=CARTESIAN_POINT('Origin',(-8.88178419700125E-15,-13.9,14.6));
#1887=CARTESIAN_POINT('',(-3.35000000000001,-13.85,14.6));
#1888=CARTESIAN_POINT('Origin',(-8.88178419700125E-15,-13.85,14.6));
#1889=CARTESIAN_POINT('',(-3.35000000000001,-13.8,14.6));
#1890=CARTESIAN_POINT('',(-3.35000000000001,-13.9,14.6));
#1891=CARTESIAN_POINT('Origin',(-8.88178419700125E-15,-13.8,14.6));
#1892=CARTESIAN_POINT('Origin',(-8.88178419700125E-15,-13.8,14.6));
#1893=CARTESIAN_POINT('Origin',(-8.88178419700125E-15,-13.9,9.7));
#1894=CARTESIAN_POINT('',(-8.88178419700125E-15,-13.9,9.7));
#1895=CARTESIAN_POINT('',(-8.50000000000001,-13.9,9.7));
#1896=CARTESIAN_POINT('',(-31.05,-13.9,9.7));
#1897=CARTESIAN_POINT('',(-8.88178419700125E-15,-13.85,9.7));
#1898=CARTESIAN_POINT('',(-8.88178419700125E-15,-13.9,9.7));
#1899=CARTESIAN_POINT('',(-8.50000000000001,-13.85,9.7));
#1900=CARTESIAN_POINT('',(-8.50000000000001,-13.85,9.7));
#1901=CARTESIAN_POINT('',(-8.50000000000001,-13.9,9.7));
#1902=CARTESIAN_POINT('Origin',(-8.88178419700125E-15,-13.9,14.6));
#1903=CARTESIAN_POINT('',(-8.28170726541905E-15,-13.9,19.5));
#1904=CARTESIAN_POINT('Origin',(-8.88178419700125E-15,-13.9,14.6));
#1905=CARTESIAN_POINT('',(-8.32667268468867E-15,-13.85,19.5));
#1906=CARTESIAN_POINT('',(-8.28170726541905E-15,-13.9,19.5));
#1907=CARTESIAN_POINT('Origin',(-8.88178419700125E-15,-13.85,14.6));
#1908=CARTESIAN_POINT('Origin',(-8.50000000000001,-13.9,19.5));
#1909=CARTESIAN_POINT('',(-8.50000000000001,-13.9,19.5));
#1910=CARTESIAN_POINT('',(-35.3,-13.9,19.5));
#1911=CARTESIAN_POINT('',(-8.50000000000001,-13.85,19.5));
#1912=CARTESIAN_POINT('',(-8.50000000000001,-13.9,19.5));
#1913=CARTESIAN_POINT('',(-8.50000000000001,-13.85,19.5));
#1914=CARTESIAN_POINT('Origin',(-8.50000000000001,-13.9,14.6));
#1915=CARTESIAN_POINT('Origin',(-8.50000000000001,-13.9,14.6));
#1916=CARTESIAN_POINT('Origin',(-8.50000000000001,-13.85,14.6));
#1917=CARTESIAN_POINT('Origin',(-4.25000000000001,-13.85,14.6));
#1918=CARTESIAN_POINT('Origin',(-62.1,-13.9,0.));
#1919=CARTESIAN_POINT('',(47.5,-13.9,23.95));
#1920=CARTESIAN_POINT('',(-47.5,-13.9,23.95));
#1921=CARTESIAN_POINT('',(-7.30000000000002,-13.9,23.95));
#1922=CARTESIAN_POINT('',(-47.5,-13.9,5.25000000000001));
#1923=CARTESIAN_POINT('Origin',(-47.5,-13.9,14.6));
#1924=CARTESIAN_POINT('',(47.5,-13.9,5.25));
#1925=CARTESIAN_POINT('',(-54.8,-13.9,5.25));
#1926=CARTESIAN_POINT('Origin',(47.5,-13.9,14.6));
#1927=CARTESIAN_POINT('',(15.95,-13.9,14.6));
#1928=CARTESIAN_POINT('Origin',(23.75,-13.9,14.6));
#1929=CARTESIAN_POINT('Origin',(23.75,-13.9,14.6));
#1930=CARTESIAN_POINT('',(17.75,-13.85,14.6));
#1931=CARTESIAN_POINT('Origin',(23.75,-13.85,14.6));
#1932=CARTESIAN_POINT('',(17.75,-13.8,14.6));
#1933=CARTESIAN_POINT('',(17.75,-13.9,14.6));
#1934=CARTESIAN_POINT('Origin',(23.75,-13.8,14.6));
#1935=CARTESIAN_POINT('Origin',(23.75,-13.8,14.6));
#1936=CARTESIAN_POINT('Origin',(23.75,-13.9,14.6));
#1937=CARTESIAN_POINT('',(15.95,-13.85,14.6));
#1938=CARTESIAN_POINT('',(15.95,-13.9,14.6));
#1939=CARTESIAN_POINT('Origin',(23.75,-13.85,14.6));
#1940=CARTESIAN_POINT('Origin',(23.75,-13.85,14.6));
#1941=CARTESIAN_POINT('Origin',(47.5,-13.9,23.95));
#1942=CARTESIAN_POINT('',(47.5,-13.3,23.95));
#1943=CARTESIAN_POINT('',(47.5,-13.9,23.95));
#1944=CARTESIAN_POINT('',(-47.5,-13.3,23.95));
#1945=CARTESIAN_POINT('',(47.5,-13.3,23.95));
#1946=CARTESIAN_POINT('',(-47.5,-13.9,23.95));
#1947=CARTESIAN_POINT('Origin',(47.5,-13.9,14.6));
#1948=CARTESIAN_POINT('',(47.5,-13.3,5.25));
#1949=CARTESIAN_POINT('',(47.5,-13.9,5.25));
#1950=CARTESIAN_POINT('Origin',(47.5,-13.3,14.6));
#1951=CARTESIAN_POINT('Origin',(-47.5,-13.9,5.25));
#1952=CARTESIAN_POINT('',(-47.5,-13.3,5.25000000000001));
#1953=CARTESIAN_POINT('',(-47.5,-13.9,5.25000000000001));
#1954=CARTESIAN_POINT('',(-47.5,-13.3,5.25));
#1955=CARTESIAN_POINT('Origin',(-47.5,-13.9,14.6));
#1956=CARTESIAN_POINT('Origin',(-47.5,-13.3,14.6));
#1957=CARTESIAN_POINT('Origin',(-8.88178419700125E-15,-13.3,14.6));
#1958=CARTESIAN_POINT('',(-47.5000002149489,-13.3,4.4));
#1959=CARTESIAN_POINT('',(-47.5,-13.3,24.8));
#1960=CARTESIAN_POINT('Origin',(-47.5,-13.3,14.6));
#1961=CARTESIAN_POINT('',(47.5000000000037,-13.3,4.4));
#1962=CARTESIAN_POINT('',(-23.7500001074745,-13.3,4.4));
#1963=CARTESIAN_POINT('',(47.4999999999962,-13.3,24.8));
#1964=CARTESIAN_POINT('Origin',(47.5,-13.3,14.6));
#1965=CARTESIAN_POINT('',(23.7499999999981,-13.3,24.8));
#1966=CARTESIAN_POINT('Origin',(-47.5000002149489,-13.9,4.4));
#1967=CARTESIAN_POINT('',(-47.5000002149489,-11.,4.4));
#1968=CARTESIAN_POINT('',(-47.5000002149489,-13.9,4.4));
#1969=CARTESIAN_POINT('',(47.5000000000037,-11.,4.4));
#1970=CARTESIAN_POINT('',(-47.5000002682342,-11.,4.4));
#1971=CARTESIAN_POINT('',(47.5000000000037,-13.9,4.4));
#1972=CARTESIAN_POINT('Origin',(-47.5,-13.9,14.6));
#1973=CARTESIAN_POINT('',(-47.5,-11.,24.8));
#1974=CARTESIAN_POINT('',(-47.5,-13.9,24.8));
#1975=CARTESIAN_POINT('Origin',(-47.5,-11.,14.6));
#1976=CARTESIAN_POINT('Origin',(47.4999999999962,-13.9,24.8));
#1977=CARTESIAN_POINT('',(47.4999999999962,-11.,24.8));
#1978=CARTESIAN_POINT('',(47.4999999999962,-13.9,24.8));
#1979=CARTESIAN_POINT('',(-47.5,-11.,24.8));
#1980=CARTESIAN_POINT('Origin',(47.5,-13.9,14.6));
#1981=CARTESIAN_POINT('Origin',(47.5,-11.,14.6));
#1982=CARTESIAN_POINT('Origin',(-8.88178419700125E-15,-11.,14.6));
#1983=CARTESIAN_POINT('',(47.5,-11.,29.2));
#1984=CARTESIAN_POINT('Origin',(47.5,-11.,14.6));
#1985=CARTESIAN_POINT('',(-8.88178419700125E-15,-11.,29.2));
#1986=CARTESIAN_POINT('Origin',(-8.88178419700125E-15,-2.22044604925031E-15,
29.2));
#1987=CARTESIAN_POINT('',(47.5,13.9,29.2));
#1988=CARTESIAN_POINT('',(47.5,-13.9,29.2));
#1989=CARTESIAN_POINT('',(-62.1,13.9,29.2));
#1990=CARTESIAN_POINT('Origin',(47.5,-13.9,14.6));
#1991=CARTESIAN_POINT('',(56.1,13.9,2.80169503699791));
#1992=CARTESIAN_POINT('Origin',(47.5,13.9,14.6));
#1993=CARTESIAN_POINT('',(56.1,4.5,2.80169503699791));
#1994=CARTESIAN_POINT('',(56.1,-13.9,2.80169503699791));
#1995=CARTESIAN_POINT('',(56.1,4.5,26.3983049630021));
#1996=CARTESIAN_POINT('Origin',(47.5,4.5,14.6));
#1997=CARTESIAN_POINT('',(56.1,13.9,26.3983049630021));
#1998=CARTESIAN_POINT('',(56.1,-13.9,26.3983049630021));
#1999=CARTESIAN_POINT('Origin',(47.5,13.9,14.6));
#2000=CARTESIAN_POINT('Origin',(62.1,4.5,0.));
#2001=CARTESIAN_POINT('',(56.1,4.5,0.));
#2002=CARTESIAN_POINT('Origin',(56.1,4.5,0.));
#2003=CARTESIAN_POINT('',(56.1,13.9,0.));
#2004=CARTESIAN_POINT('Origin',(56.1,13.9,0.));
#2005=CARTESIAN_POINT('',(-56.1,13.9,0.));
#2006=CARTESIAN_POINT('Origin',(-56.1,4.5,0.));
#2007=CARTESIAN_POINT('',(-56.1,4.5,0.));
#2008=CARTESIAN_POINT('Origin',(-56.1,13.9,0.));
#2009=UNCERTAINTY_MEASURE_WITH_UNIT(LENGTH_MEASURE(0.01),#2013,
'DISTANCE_ACCURACY_VALUE',
'Maximum model space distance between geometric entities at asserted c
onnectivities');
#2010=UNCERTAINTY_MEASURE_WITH_UNIT(LENGTH_MEASURE(0.01),#2013,
'DISTANCE_ACCURACY_VALUE',
'Maximum model space distance between geometric entities at asserted c
onnectivities');
#2011=(
GEOMETRIC_REPRESENTATION_CONTEXT(3)
GLOBAL_UNCERTAINTY_ASSIGNED_CONTEXT((#2009))
GLOBAL_UNIT_ASSIGNED_CONTEXT((#2013,#2015,#2016))
REPRESENTATION_CONTEXT('','3D')
);
#2012=(
GEOMETRIC_REPRESENTATION_CONTEXT(3)
GLOBAL_UNCERTAINTY_ASSIGNED_CONTEXT((#2010))
GLOBAL_UNIT_ASSIGNED_CONTEXT((#2013,#2015,#2016))
REPRESENTATION_CONTEXT('','3D')
);
#2013=(
LENGTH_UNIT()
NAMED_UNIT(*)
SI_UNIT(.MILLI.,.METRE.)
);
#2014=(
LENGTH_UNIT()
NAMED_UNIT(*)
SI_UNIT($,.METRE.)
);
#2015=(
NAMED_UNIT(*)
PLANE_ANGLE_UNIT()
SI_UNIT($,.RADIAN.)
);
#2016=(
NAMED_UNIT(*)
SI_UNIT($,.STERADIAN.)
SOLID_ANGLE_UNIT()
);
#2017=SHAPE_DEFINITION_REPRESENTATION(#2018,#2019);
#2018=PRODUCT_DEFINITION_SHAPE('',$,#2021);
#2019=SHAPE_REPRESENTATION('',(#1193),#2011);
#2020=PRODUCT_DEFINITION_CONTEXT('part definition',#2025,'design');
#2021=PRODUCT_DEFINITION('2026-05-03-14-50-24-457',
'\X2\6DF1611F644450CF5934FF08\X0\ORBBEC Gemini 336L\X2\FF09\X0\',#2022,
#2020);
#2022=PRODUCT_DEFINITION_FORMATION('',$,#2027);
#2023=PRODUCT_RELATED_PRODUCT_CATEGORY(
'\X2\6DF1611F644450CF5934FF08\X0\ORBBEC Gemini 336L\X2\FF09\X0\',
'\X2\6DF1611F644450CF5934FF08\X0\ORBBEC Gemini 336L\X2\FF09\X0\',(#2027));
#2024=APPLICATION_PROTOCOL_DEFINITION('international standard',
'automotive_design',2009,#2025);
#2025=APPLICATION_CONTEXT(
'Core Data for Automotive Mechanical Design Process');
#2026=PRODUCT_CONTEXT('part definition',#2025,'mechanical');
#2027=PRODUCT('2026-05-03-14-50-24-457',
'\X2\6DF1611F644450CF5934FF08\X0\ORBBEC Gemini 336L\X2\FF09\X0\',$,(#2026));
#2028=PRESENTATION_STYLE_ASSIGNMENT((#2029));
#2029=SURFACE_STYLE_USAGE(.BOTH.,#2030);
#2030=SURFACE_SIDE_STYLE('',(#2031));
#2031=SURFACE_STYLE_FILL_AREA(#2032);
#2032=FILL_AREA_STYLE('\X2\94A2\X0\ - \X2\7F0E5149\X0\',(#2033));
#2033=FILL_AREA_STYLE_COLOUR('\X2\94A2\X0\ - \X2\7F0E5149\X0\',#2034);
#2034=COLOUR_RGB('\X2\94A2\X0\ - \X2\7F0E5149\X0\',0.627450980392157,0.627450980392157,
0.627450980392157);
ENDSEC;
END-ISO-10303-21;
