ISO-10303-21;
HEADER;
/* Generated by software containing ST-Developer
 * from STEP Tools, Inc. (www.steptools.com) 
 */

FILE_DESCRIPTION(
/* description */ (''),
/* implementation_level */ '2;1');

FILE_NAME(
/* name */ '',
/* time_stamp */ '2026-08-11T12:13:13+09:00',
/* author */ (''),
/* organization */ (''),
/* preprocessor_version */ 'ST-DEVELOPER v20.1',
/* originating_system */ 'Autodesk Translation Framework v15.8.0.0',
/* authorisation */ '');

FILE_SCHEMA (('AUTOMOTIVE_DESIGN { 1 0 10303 214 3 1 1 }'));
ENDSEC;

DATA;
#10=MECHANICAL_DESIGN_GEOMETRIC_PRESENTATION_REPRESENTATION('',(#13),#503);
#11=SHAPE_REPRESENTATION_RELATIONSHIP('SRR','None',#510,#12);
#12=ADVANCED_BREP_SHAPE_REPRESENTATION('',(#14),#502);
#13=STYLED_ITEM('',(#519),#14);
#14=MANIFOLD_SOLID_BREP('\X2\5B9E4F53\X0\1',#273);
#15=FACE_BOUND('',#59,.T.);
#16=FACE_BOUND('',#71,.T.);
#17=FACE_BOUND('',#73,.T.);
#18=FACE_BOUND('',#75,.T.);
#19=FACE_BOUND('',#76,.T.);
#20=FACE_BOUND('',#77,.T.);
#21=B_SPLINE_CURVE_WITH_KNOTS('',3,(#418,#419,#420,#421,#422,#423,#424,
#425,#426,#427),.UNSPECIFIED.,.F.,.F.,(4,2,2,2,4),(0.,0.0847757941290757,
0.169551588258151,0.25432734713536,0.339103106012568),.UNSPECIFIED.);
#22=B_SPLINE_CURVE_WITH_KNOTS('',3,(#434,#435,#436,#437,#438,#439,#440,
#441,#442,#443),.UNSPECIFIED.,.F.,.F.,(4,2,2,2,4),(0.339103106012568,0.423878864889777,
0.508654623766985,0.593430417896061,0.678206212025137),.UNSPECIFIED.);
#23=PLANE('',#290);
#24=PLANE('',#293);
#25=PLANE('',#294);
#26=PLANE('',#295);
#27=PLANE('',#302);
#28=PLANE('',#306);
#29=PLANE('',#310);
#30=PLANE('',#314);
#31=PLANE('',#318);
#32=PLANE('',#319);
#33=PLANE('',#320);
#34=FACE_OUTER_BOUND('',#53,.T.);
#35=FACE_OUTER_BOUND('',#54,.T.);
#36=FACE_OUTER_BOUND('',#55,.T.);
#37=FACE_OUTER_BOUND('',#56,.T.);
#38=FACE_OUTER_BOUND('',#57,.T.);
#39=FACE_OUTER_BOUND('',#58,.T.);
#40=FACE_OUTER_BOUND('',#60,.T.);
#41=FACE_OUTER_BOUND('',#61,.T.);
#42=FACE_OUTER_BOUND('',#62,.T.);
#43=FACE_OUTER_BOUND('',#63,.T.);
#44=FACE_OUTER_BOUND('',#64,.T.);
#45=FACE_OUTER_BOUND('',#65,.T.);
#46=FACE_OUTER_BOUND('',#66,.T.);
#47=FACE_OUTER_BOUND('',#67,.T.);
#48=FACE_OUTER_BOUND('',#68,.T.);
#49=FACE_OUTER_BOUND('',#69,.T.);
#50=FACE_OUTER_BOUND('',#70,.T.);
#51=FACE_OUTER_BOUND('',#72,.T.);
#52=FACE_OUTER_BOUND('',#74,.T.);
#53=EDGE_LOOP('',(#180,#181,#182,#183));
#54=EDGE_LOOP('',(#184));
#55=EDGE_LOOP('',(#185,#186,#187,#188,#189));
#56=EDGE_LOOP('',(#190,#191,#192,#193));
#57=EDGE_LOOP('',(#194,#195,#196,#197));
#58=EDGE_LOOP('',(#198,#199,#200,#201));
#59=EDGE_LOOP('',(#202));
#60=EDGE_LOOP('',(#203,#204,#205,#206,#207,#208,#209,#210));
#61=EDGE_LOOP('',(#211,#212,#213,#214));
#62=EDGE_LOOP('',(#215));
#63=EDGE_LOOP('',(#216,#217,#218,#219));
#64=EDGE_LOOP('',(#220));
#65=EDGE_LOOP('',(#221,#222,#223,#224));
#66=EDGE_LOOP('',(#225));
#67=EDGE_LOOP('',(#226,#227,#228,#229));
#68=EDGE_LOOP('',(#230));
#69=EDGE_LOOP('',(#231,#232,#233,#234));
#70=EDGE_LOOP('',(#235));
#71=EDGE_LOOP('',(#236));
#72=EDGE_LOOP('',(#237));
#73=EDGE_LOOP('',(#238));
#74=EDGE_LOOP('',(#239,#240,#241,#242));
#75=EDGE_LOOP('',(#243));
#76=EDGE_LOOP('',(#244));
#77=EDGE_LOOP('',(#245));
#78=LINE('',#412,#94);
#79=LINE('',#429,#95);
#80=LINE('',#433,#96);
#81=LINE('',#446,#97);
#82=LINE('',#448,#98);
#83=LINE('',#449,#99);
#84=LINE('',#452,#100);
#85=LINE('',#454,#101);
#86=LINE('',#455,#102);
#87=LINE('',#457,#103);
#88=LINE('',#461,#104);
#89=LINE('',#467,#105);
#90=LINE('',#474,#106);
#91=LINE('',#481,#107);
#92=LINE('',#488,#108);
#93=LINE('',#495,#109);
#94=VECTOR('',#327,2.05);
#95=VECTOR('',#334,10.);
#96=VECTOR('',#337,10.);
#97=VECTOR('',#340,10.);
#98=VECTOR('',#341,10.);
#99=VECTOR('',#342,10.);
#100=VECTOR('',#345,10.);
#101=VECTOR('',#346,10.);
#102=VECTOR('',#347,10.);
#103=VECTOR('',#350,10.);
#104=VECTOR('',#355,38.);
#105=VECTOR('',#362,1.25);
#106=VECTOR('',#371,1.25);
#107=VECTOR('',#380,1.25);
#108=VECTOR('',#389,12.5);
#109=VECTOR('',#398,35.55);
#110=CIRCLE('',#288,2.05);
#111=CIRCLE('',#289,2.05);
#112=CIRCLE('',#292,2.25);
#113=CIRCLE('',#297,38.);
#114=CIRCLE('',#298,38.);
#115=CIRCLE('',#300,1.25);
#116=CIRCLE('',#301,1.25);
#117=CIRCLE('',#304,1.25);
#118=CIRCLE('',#305,1.25);
#119=CIRCLE('',#308,1.25);
#120=CIRCLE('',#309,1.25);
#121=CIRCLE('',#312,12.5);
#122=CIRCLE('',#313,12.5);
#123=CIRCLE('',#316,35.55);
#124=CIRCLE('',#317,35.55);
#125=VERTEX_POINT('',#409);
#126=VERTEX_POINT('',#411);
#127=VERTEX_POINT('',#416);
#128=VERTEX_POINT('',#417);
#129=VERTEX_POINT('',#428);
#130=VERTEX_POINT('',#430);
#131=VERTEX_POINT('',#432);
#132=VERTEX_POINT('',#445);
#133=VERTEX_POINT('',#447);
#134=VERTEX_POINT('',#451);
#135=VERTEX_POINT('',#453);
#136=VERTEX_POINT('',#459);
#137=VERTEX_POINT('',#464);
#138=VERTEX_POINT('',#466);
#139=VERTEX_POINT('',#471);
#140=VERTEX_POINT('',#473);
#141=VERTEX_POINT('',#478);
#142=VERTEX_POINT('',#480);
#143=VERTEX_POINT('',#485);
#144=VERTEX_POINT('',#487);
#145=VERTEX_POINT('',#492);
#146=VERTEX_POINT('',#494);
#147=EDGE_CURVE('',#125,#125,#110,.T.);
#148=EDGE_CURVE('',#125,#126,#78,.T.);
#149=EDGE_CURVE('',#126,#126,#111,.T.);
#150=EDGE_CURVE('',#127,#128,#21,.T.);
#151=EDGE_CURVE('',#127,#129,#79,.T.);
#152=EDGE_CURVE('',#129,#130,#112,.T.);
#153=EDGE_CURVE('',#131,#130,#80,.T.);
#154=EDGE_CURVE('',#128,#131,#22,.T.);
#155=EDGE_CURVE('',#131,#132,#81,.T.);
#156=EDGE_CURVE('',#130,#133,#82,.T.);
#157=EDGE_CURVE('',#132,#133,#83,.T.);
#158=EDGE_CURVE('',#134,#127,#84,.T.);
#159=EDGE_CURVE('',#135,#134,#85,.T.);
#160=EDGE_CURVE('',#135,#129,#86,.T.);
#161=EDGE_CURVE('',#133,#135,#87,.T.);
#162=EDGE_CURVE('',#136,#136,#113,.T.);
#163=EDGE_CURVE('',#136,#128,#88,.T.);
#164=EDGE_CURVE('',#132,#134,#114,.T.);
#165=EDGE_CURVE('',#137,#137,#115,.T.);
#166=EDGE_CURVE('',#137,#138,#89,.T.);
#167=EDGE_CURVE('',#138,#138,#116,.T.);
#168=EDGE_CURVE('',#139,#139,#117,.T.);
#169=EDGE_CURVE('',#139,#140,#90,.T.);
#170=EDGE_CURVE('',#140,#140,#118,.T.);
#171=EDGE_CURVE('',#141,#141,#119,.T.);
#172=EDGE_CURVE('',#141,#142,#91,.T.);
#173=EDGE_CURVE('',#142,#142,#120,.T.);
#174=EDGE_CURVE('',#143,#143,#121,.T.);
#175=EDGE_CURVE('',#143,#144,#92,.T.);
#176=EDGE_CURVE('',#144,#144,#122,.T.);
#177=EDGE_CURVE('',#145,#145,#123,.T.);
#178=EDGE_CURVE('',#145,#146,#93,.T.);
#179=EDGE_CURVE('',#146,#146,#124,.T.);
#180=ORIENTED_EDGE('',*,*,#147,.F.);
#181=ORIENTED_EDGE('',*,*,#148,.T.);
#182=ORIENTED_EDGE('',*,*,#149,.F.);
#183=ORIENTED_EDGE('',*,*,#148,.F.);
#184=ORIENTED_EDGE('',*,*,#147,.T.);
#185=ORIENTED_EDGE('',*,*,#150,.F.);
#186=ORIENTED_EDGE('',*,*,#151,.T.);
#187=ORIENTED_EDGE('',*,*,#152,.T.);
#188=ORIENTED_EDGE('',*,*,#153,.F.);
#189=ORIENTED_EDGE('',*,*,#154,.F.);
#190=ORIENTED_EDGE('',*,*,#155,.F.);
#191=ORIENTED_EDGE('',*,*,#153,.T.);
#192=ORIENTED_EDGE('',*,*,#156,.T.);
#193=ORIENTED_EDGE('',*,*,#157,.F.);
#194=ORIENTED_EDGE('',*,*,#158,.F.);
#195=ORIENTED_EDGE('',*,*,#159,.F.);
#196=ORIENTED_EDGE('',*,*,#160,.T.);
#197=ORIENTED_EDGE('',*,*,#151,.F.);
#198=ORIENTED_EDGE('',*,*,#152,.F.);
#199=ORIENTED_EDGE('',*,*,#160,.F.);
#200=ORIENTED_EDGE('',*,*,#161,.F.);
#201=ORIENTED_EDGE('',*,*,#156,.F.);
#202=ORIENTED_EDGE('',*,*,#149,.T.);
#203=ORIENTED_EDGE('',*,*,#162,.F.);
#204=ORIENTED_EDGE('',*,*,#163,.T.);
#205=ORIENTED_EDGE('',*,*,#154,.T.);
#206=ORIENTED_EDGE('',*,*,#155,.T.);
#207=ORIENTED_EDGE('',*,*,#164,.T.);
#208=ORIENTED_EDGE('',*,*,#158,.T.);
#209=ORIENTED_EDGE('',*,*,#150,.T.);
#210=ORIENTED_EDGE('',*,*,#163,.F.);
#211=ORIENTED_EDGE('',*,*,#165,.F.);
#212=ORIENTED_EDGE('',*,*,#166,.T.);
#213=ORIENTED_EDGE('',*,*,#167,.T.);
#214=ORIENTED_EDGE('',*,*,#166,.F.);
#215=ORIENTED_EDGE('',*,*,#167,.F.);
#216=ORIENTED_EDGE('',*,*,#168,.F.);
#217=ORIENTED_EDGE('',*,*,#169,.T.);
#218=ORIENTED_EDGE('',*,*,#170,.T.);
#219=ORIENTED_EDGE('',*,*,#169,.F.);
#220=ORIENTED_EDGE('',*,*,#170,.F.);
#221=ORIENTED_EDGE('',*,*,#171,.F.);
#222=ORIENTED_EDGE('',*,*,#172,.T.);
#223=ORIENTED_EDGE('',*,*,#173,.T.);
#224=ORIENTED_EDGE('',*,*,#172,.F.);
#225=ORIENTED_EDGE('',*,*,#173,.F.);
#226=ORIENTED_EDGE('',*,*,#174,.F.);
#227=ORIENTED_EDGE('',*,*,#175,.T.);
#228=ORIENTED_EDGE('',*,*,#176,.T.);
#229=ORIENTED_EDGE('',*,*,#175,.F.);
#230=ORIENTED_EDGE('',*,*,#176,.F.);
#231=ORIENTED_EDGE('',*,*,#177,.F.);
#232=ORIENTED_EDGE('',*,*,#178,.T.);
#233=ORIENTED_EDGE('',*,*,#179,.F.);
#234=ORIENTED_EDGE('',*,*,#178,.F.);
#235=ORIENTED_EDGE('',*,*,#177,.T.);
#236=ORIENTED_EDGE('',*,*,#174,.T.);
#237=ORIENTED_EDGE('',*,*,#162,.T.);
#238=ORIENTED_EDGE('',*,*,#179,.T.);
#239=ORIENTED_EDGE('',*,*,#159,.T.);
#240=ORIENTED_EDGE('',*,*,#164,.F.);
#241=ORIENTED_EDGE('',*,*,#157,.T.);
#242=ORIENTED_EDGE('',*,*,#161,.T.);
#243=ORIENTED_EDGE('',*,*,#165,.T.);
#244=ORIENTED_EDGE('',*,*,#168,.T.);
#245=ORIENTED_EDGE('',*,*,#171,.T.);
#246=CYLINDRICAL_SURFACE('',#287,2.05);
#247=CYLINDRICAL_SURFACE('',#291,2.25);
#248=CYLINDRICAL_SURFACE('',#296,38.);
#249=CYLINDRICAL_SURFACE('',#299,1.25);
#250=CYLINDRICAL_SURFACE('',#303,1.25);
#251=CYLINDRICAL_SURFACE('',#307,1.25);
#252=CYLINDRICAL_SURFACE('',#311,12.5);
#253=CYLINDRICAL_SURFACE('',#315,35.55);
#254=ADVANCED_FACE('',(#34),#246,.T.);
#255=ADVANCED_FACE('',(#35),#23,.T.);
#256=ADVANCED_FACE('',(#36),#247,.F.);
#257=ADVANCED_FACE('',(#37),#24,.F.);
#258=ADVANCED_FACE('',(#38),#25,.F.);
#259=ADVANCED_FACE('',(#39,#15),#26,.T.);
#260=ADVANCED_FACE('',(#40),#248,.T.);
#261=ADVANCED_FACE('',(#41),#249,.F.);
#262=ADVANCED_FACE('',(#42),#27,.F.);
#263=ADVANCED_FACE('',(#43),#250,.F.);
#264=ADVANCED_FACE('',(#44),#28,.F.);
#265=ADVANCED_FACE('',(#45),#251,.F.);
#266=ADVANCED_FACE('',(#46),#29,.F.);
#267=ADVANCED_FACE('',(#47),#252,.F.);
#268=ADVANCED_FACE('',(#48),#30,.T.);
#269=ADVANCED_FACE('',(#49),#253,.T.);
#270=ADVANCED_FACE('',(#50,#16),#31,.T.);
#271=ADVANCED_FACE('',(#51,#17),#32,.T.);
#272=ADVANCED_FACE('',(#52,#18,#19,#20),#33,.F.);
#273=CLOSED_SHELL('',(#254,#255,#256,#257,#258,#259,#260,#261,#262,#263,
#264,#265,#266,#267,#268,#269,#270,#271,#272));
#274=DERIVED_UNIT_ELEMENT(#276,1.);
#275=DERIVED_UNIT_ELEMENT(#505,-3.);
#276=(
MASS_UNIT()
NAMED_UNIT(*)
SI_UNIT(.KILO.,.GRAM.)
);
#277=DERIVED_UNIT((#274,#275));
#278=MEASURE_REPRESENTATION_ITEM('density measure',
POSITIVE_RATIO_MEASURE(7850.),#277);
#279=PROPERTY_DEFINITION_REPRESENTATION(#284,#281);
#280=PROPERTY_DEFINITION_REPRESENTATION(#285,#282);
#281=REPRESENTATION('material name',(#283),#502);
#282=REPRESENTATION('density',(#278),#502);
#283=DESCRIPTIVE_REPRESENTATION_ITEM('\X2\94A2\X0\','\X2\94A2\X0\');
#284=PROPERTY_DEFINITION('material property','material name',#512);
#285=PROPERTY_DEFINITION('material property','density of part',#512);
#286=AXIS2_PLACEMENT_3D('',#407,#321,#322);
#287=AXIS2_PLACEMENT_3D('',#408,#323,#324);
#288=AXIS2_PLACEMENT_3D('',#410,#325,#326);
#289=AXIS2_PLACEMENT_3D('',#413,#328,#329);
#290=AXIS2_PLACEMENT_3D('',#414,#330,#331);
#291=AXIS2_PLACEMENT_3D('',#415,#332,#333);
#292=AXIS2_PLACEMENT_3D('',#431,#335,#336);
#293=AXIS2_PLACEMENT_3D('',#444,#338,#339);
#294=AXIS2_PLACEMENT_3D('',#450,#343,#344);
#295=AXIS2_PLACEMENT_3D('',#456,#348,#349);
#296=AXIS2_PLACEMENT_3D('',#458,#351,#352);
#297=AXIS2_PLACEMENT_3D('',#460,#353,#354);
#298=AXIS2_PLACEMENT_3D('',#462,#356,#357);
#299=AXIS2_PLACEMENT_3D('',#463,#358,#359);
#300=AXIS2_PLACEMENT_3D('',#465,#360,#361);
#301=AXIS2_PLACEMENT_3D('',#468,#363,#364);
#302=AXIS2_PLACEMENT_3D('',#469,#365,#366);
#303=AXIS2_PLACEMENT_3D('',#470,#367,#368);
#304=AXIS2_PLACEMENT_3D('',#472,#369,#370);
#305=AXIS2_PLACEMENT_3D('',#475,#372,#373);
#306=AXIS2_PLACEMENT_3D('',#476,#374,#375);
#307=AXIS2_PLACEMENT_3D('',#477,#376,#377);
#308=AXIS2_PLACEMENT_3D('',#479,#378,#379);
#309=AXIS2_PLACEMENT_3D('',#482,#381,#382);
#310=AXIS2_PLACEMENT_3D('',#483,#383,#384);
#311=AXIS2_PLACEMENT_3D('',#484,#385,#386);
#312=AXIS2_PLACEMENT_3D('',#486,#387,#388);
#313=AXIS2_PLACEMENT_3D('',#489,#390,#391);
#314=AXIS2_PLACEMENT_3D('',#490,#392,#393);
#315=AXIS2_PLACEMENT_3D('',#491,#394,#395);
#316=AXIS2_PLACEMENT_3D('',#493,#396,#397);
#317=AXIS2_PLACEMENT_3D('',#496,#399,#400);
#318=AXIS2_PLACEMENT_3D('',#497,#401,#402);
#319=AXIS2_PLACEMENT_3D('',#498,#403,#404);
#320=AXIS2_PLACEMENT_3D('',#499,#405,#406);
#321=DIRECTION('axis',(0.,0.,1.));
#322=DIRECTION('refdir',(1.,0.,0.));
#323=DIRECTION('center_axis',(-1.,0.,0.));
#324=DIRECTION('ref_axis',(0.,-1.,0.));
#325=DIRECTION('center_axis',(-1.,0.,0.));
#326=DIRECTION('ref_axis',(0.,-1.,0.));
#327=DIRECTION('',(1.,0.,0.));
#328=DIRECTION('center_axis',(1.,1.60812264967664E-16,0.));
#329=DIRECTION('ref_axis',(0.,-1.,0.));
#330=DIRECTION('center_axis',(-1.,0.,0.));
#331=DIRECTION('ref_axis',(0.,-1.,0.));
#332=DIRECTION('center_axis',(1.,1.46081976924363E-16,0.));
#333=DIRECTION('ref_axis',(1.46081976924363E-16,-1.,0.));
#334=DIRECTION('',(1.,1.46081976924363E-16,0.));
#335=DIRECTION('center_axis',(1.,1.60812264967664E-16,0.));
#336=DIRECTION('ref_axis',(1.60812264967664E-16,-1.,0.));
#337=DIRECTION('',(1.,1.46081976924363E-16,0.));
#338=DIRECTION('center_axis',(1.46081976924363E-16,-1.,2.36217664813863E-16));
#339=DIRECTION('ref_axis',(3.79866977040897E-32,-2.36217664813863E-16,-1.));
#340=DIRECTION('',(0.,0.,-1.));
#341=DIRECTION('',(3.79866977040897E-32,-2.36217664813863E-16,-1.));
#342=DIRECTION('',(1.,1.46081976924363E-16,0.));
#343=DIRECTION('center_axis',(-1.46081976924363E-16,1.,-2.36217664813863E-16));
#344=DIRECTION('ref_axis',(-3.79866977040897E-32,2.36217664813863E-16,1.));
#345=DIRECTION('',(0.,0.,1.));
#346=DIRECTION('',(-1.,-1.46081976924363E-16,0.));
#347=DIRECTION('',(-3.79866977040897E-32,2.36217664813863E-16,1.));
#348=DIRECTION('center_axis',(-1.,-1.60812264967664E-16,0.));
#349=DIRECTION('ref_axis',(1.60812264967664E-16,-1.,0.));
#350=DIRECTION('',(-1.60812264967664E-16,1.,0.));
#351=DIRECTION('center_axis',(0.,0.,1.));
#352=DIRECTION('ref_axis',(1.,0.,0.));
#353=DIRECTION('center_axis',(0.,0.,1.));
#354=DIRECTION('ref_axis',(1.,0.,0.));
#355=DIRECTION('',(0.,0.,-1.));
#356=DIRECTION('center_axis',(0.,0.,1.));
#357=DIRECTION('ref_axis',(1.,0.,0.));
#358=DIRECTION('center_axis',(0.,0.,1.));
#359=DIRECTION('ref_axis',(1.,0.,0.));
#360=DIRECTION('center_axis',(0.,0.,1.));
#361=DIRECTION('ref_axis',(1.,0.,0.));
#362=DIRECTION('',(0.,0.,1.));
#363=DIRECTION('center_axis',(0.,0.,1.));
#364=DIRECTION('ref_axis',(1.,0.,0.));
#365=DIRECTION('center_axis',(0.,0.,1.));
#366=DIRECTION('ref_axis',(1.,0.,0.));
#367=DIRECTION('center_axis',(0.,0.,1.));
#368=DIRECTION('ref_axis',(1.,0.,0.));
#369=DIRECTION('center_axis',(0.,0.,1.));
#370=DIRECTION('ref_axis',(1.,0.,0.));
#371=DIRECTION('',(0.,0.,1.));
#372=DIRECTION('center_axis',(0.,0.,1.));
#373=DIRECTION('ref_axis',(1.,0.,0.));
#374=DIRECTION('center_axis',(0.,0.,1.));
#375=DIRECTION('ref_axis',(1.,0.,0.));
#376=DIRECTION('center_axis',(0.,0.,1.));
#377=DIRECTION('ref_axis',(1.,0.,0.));
#378=DIRECTION('center_axis',(0.,0.,1.));
#379=DIRECTION('ref_axis',(1.,0.,0.));
#380=DIRECTION('',(0.,0.,1.));
#381=DIRECTION('center_axis',(0.,0.,1.));
#382=DIRECTION('ref_axis',(1.,0.,0.));
#383=DIRECTION('center_axis',(0.,0.,1.));
#384=DIRECTION('ref_axis',(1.,0.,0.));
#385=DIRECTION('center_axis',(0.,0.,-1.));
#386=DIRECTION('ref_axis',(-1.,0.,0.));
#387=DIRECTION('center_axis',(0.,0.,-1.));
#388=DIRECTION('ref_axis',(-1.,0.,0.));
#389=DIRECTION('',(0.,0.,-1.));
#390=DIRECTION('center_axis',(0.,0.,-1.));
#391=DIRECTION('ref_axis',(-1.,0.,0.));
#392=DIRECTION('center_axis',(0.,0.,1.));
#393=DIRECTION('ref_axis',(-1.,0.,0.));
#394=DIRECTION('center_axis',(0.,0.,1.));
#395=DIRECTION('ref_axis',(-1.,0.,0.));
#396=DIRECTION('center_axis',(0.,0.,1.));
#397=DIRECTION('ref_axis',(-1.,0.,0.));
#398=DIRECTION('',(0.,0.,-1.));
#399=DIRECTION('center_axis',(0.,0.,-1.));
#400=DIRECTION('ref_axis',(-1.,0.,0.));
#401=DIRECTION('center_axis',(0.,0.,1.));
#402=DIRECTION('ref_axis',(-1.,0.,0.));
#403=DIRECTION('center_axis',(0.,0.,1.));
#404=DIRECTION('ref_axis',(1.,0.,0.));
#405=DIRECTION('center_axis',(0.,0.,1.));
#406=DIRECTION('ref_axis',(1.,0.,0.));
#407=CARTESIAN_POINT('',(0.,0.,0.));
#408=CARTESIAN_POINT('Origin',(-34.2,1.38777878078145E-16,2.35));
#409=CARTESIAN_POINT('',(-43.,2.05,2.35));
#410=CARTESIAN_POINT('Origin',(-43.,1.38777878078145E-16,2.35));
#411=CARTESIAN_POINT('',(-34.2,2.05,2.35));
#412=CARTESIAN_POINT('',(-34.2,2.05,2.35));
#413=CARTESIAN_POINT('Origin',(-34.2,1.38777878078145E-16,2.35));
#414=CARTESIAN_POINT('Origin',(-43.,0.,2.35));
#415=CARTESIAN_POINT('Origin',(-38.,-5.46474543759641E-15,2.35));
#416=CARTESIAN_POINT('',(-37.9333296719389,2.24999999999999,2.35));
#417=CARTESIAN_POINT('',(-38.,-6.11086606877122E-15,4.6));
#418=CARTESIAN_POINT('Ctrl Pts',(-37.9333296719389,2.24999999999999,2.35));
#419=CARTESIAN_POINT('Ctrl Pts',(-37.9333296719389,2.24999999999999,2.63258598043025));
#420=CARTESIAN_POINT('Ctrl Pts',(-37.9368123364878,2.19351159227847,2.9339624910537));
#421=CARTESIAN_POINT('Ctrl Pts',(-37.9493931014962,1.96387030310801,3.48829642557661));
#422=CARTESIAN_POINT('Ctrl Pts',(-37.9583097692714,1.79072105704795,3.74125945829151));
#423=CARTESIAN_POINT('Ctrl Pts',(-37.9750491678352,1.3912595413445,4.14072097399496));
#424=CARTESIAN_POINT('Ctrl Pts',(-37.9839590113482,1.13829647123496,4.31387028316246));
#425=CARTESIAN_POINT('Ctrl Pts',(-37.9965241690346,0.583962416264007,4.54351162429213));
#426=CARTESIAN_POINT('Ctrl Pts',(-38.,0.282585862924023,4.6));
#427=CARTESIAN_POINT('Ctrl Pts',(-38.,-4.92661467177413E-15,4.6));
#428=CARTESIAN_POINT('',(-34.2,2.25,2.35));
#429=CARTESIAN_POINT('',(-38.,2.24999999999999,2.35));
#430=CARTESIAN_POINT('',(-34.2,-2.25,2.35));
#431=CARTESIAN_POINT('Origin',(-34.2,-4.90963392528383E-15,2.35));
#432=CARTESIAN_POINT('',(-37.9333296719389,-2.25000000000001,2.35));
#433=CARTESIAN_POINT('',(-38.,-2.25000000000001,2.35));
#434=CARTESIAN_POINT('Ctrl Pts',(-38.,-5.13478148889135E-15,4.6));
#435=CARTESIAN_POINT('Ctrl Pts',(-38.,-0.282585862924033,4.6));
#436=CARTESIAN_POINT('Ctrl Pts',(-37.9965241690346,-0.583962416264018,4.54351162429213));
#437=CARTESIAN_POINT('Ctrl Pts',(-37.9839590113482,-1.13829647123497,4.31387028316246));
#438=CARTESIAN_POINT('Ctrl Pts',(-37.9750491678352,-1.39125954134451,4.14072097399496));
#439=CARTESIAN_POINT('Ctrl Pts',(-37.9583097692714,-1.79072105704796,3.74125945829151));
#440=CARTESIAN_POINT('Ctrl Pts',(-37.9493931014962,-1.96387030310802,3.48829642557661));
#441=CARTESIAN_POINT('Ctrl Pts',(-37.9368123364878,-2.19351159227848,2.9339624910537));
#442=CARTESIAN_POINT('Ctrl Pts',(-37.9333296719389,-2.25000000000001,2.63258598043025));
#443=CARTESIAN_POINT('Ctrl Pts',(-37.9333296719389,-2.25000000000001,2.35));
#444=CARTESIAN_POINT('Origin',(-38.,-2.25000000000001,2.35));
#445=CARTESIAN_POINT('',(-37.9333296719389,-2.25000000000001,1.70652242812522E-17));
#446=CARTESIAN_POINT('',(-37.9333296719389,-2.25000000000001,0.));
#447=CARTESIAN_POINT('',(-34.2,-2.25000000000001,0.));
#448=CARTESIAN_POINT('',(-34.2,-2.25000000000001,1.70652242812523E-17));
#449=CARTESIAN_POINT('',(-19.,-2.25,0.));
#450=CARTESIAN_POINT('Origin',(-38.,2.24999999999999,0.));
#451=CARTESIAN_POINT('',(-37.9333296719389,2.24999999999999,0.));
#452=CARTESIAN_POINT('',(-37.9333296719389,2.24999999999999,0.));
#453=CARTESIAN_POINT('',(-34.2,2.24999999999999,0.));
#454=CARTESIAN_POINT('',(-19.,2.25,0.));
#455=CARTESIAN_POINT('',(-34.2,2.25,2.35));
#456=CARTESIAN_POINT('Origin',(-34.2,-5.27819880030235E-15,2.3));
#457=CARTESIAN_POINT('',(-34.2,-5.38898913109823E-15,0.));
#458=CARTESIAN_POINT('Origin',(0.,0.,0.));
#459=CARTESIAN_POINT('',(-38.,-4.65365783675994E-15,5.3));
#460=CARTESIAN_POINT('Origin',(0.,0.,5.3));
#461=CARTESIAN_POINT('',(-38.,-4.65365783675994E-15,0.));
#462=CARTESIAN_POINT('Origin',(0.,0.,0.));
#463=CARTESIAN_POINT('Origin',(-16.144197099887,-13.43,0.));
#464=CARTESIAN_POINT('',(-17.394197099887,-13.43,0.));
#465=CARTESIAN_POINT('Origin',(-16.144197099887,-13.43,0.));
#466=CARTESIAN_POINT('',(-17.394197099887,-13.43,3.));
#467=CARTESIAN_POINT('',(-17.394197099887,-13.43,0.));
#468=CARTESIAN_POINT('Origin',(-16.144197099887,-13.43,3.));
#469=CARTESIAN_POINT('Origin',(-16.144197099887,-13.43,3.));
#470=CARTESIAN_POINT('Origin',(19.7028197227685,-7.26628481220521,0.));
#471=CARTESIAN_POINT('',(18.4528197227685,-7.26628481220521,0.));
#472=CARTESIAN_POINT('Origin',(19.7028197227685,-7.26628481220521,0.));
#473=CARTESIAN_POINT('',(18.4528197227685,-7.26628481220521,3.));
#474=CARTESIAN_POINT('',(18.4528197227685,-7.26628481220521,0.));
#475=CARTESIAN_POINT('Origin',(19.7028197227685,-7.26628481220521,3.));
#476=CARTESIAN_POINT('Origin',(19.7028197227685,-7.26628481220521,3.));
#477=CARTESIAN_POINT('Origin',(-3.5586226228815,20.6962848122052,0.));
#478=CARTESIAN_POINT('',(-4.8086226228815,20.6962848122052,0.));
#479=CARTESIAN_POINT('Origin',(-3.5586226228815,20.6962848122052,0.));
#480=CARTESIAN_POINT('',(-4.8086226228815,20.6962848122052,3.));
#481=CARTESIAN_POINT('',(-4.8086226228815,20.6962848122052,0.));
#482=CARTESIAN_POINT('Origin',(-3.5586226228815,20.6962848122052,3.));
#483=CARTESIAN_POINT('Origin',(-3.5586226228815,20.6962848122052,3.));
#484=CARTESIAN_POINT('Origin',(0.,0.,34.9));
#485=CARTESIAN_POINT('',(12.5,1.53080849893419E-15,34.9));
#486=CARTESIAN_POINT('Origin',(0.,0.,34.9));
#487=CARTESIAN_POINT('',(12.5,1.53080849893419E-15,34.85));
#488=CARTESIAN_POINT('',(12.5,-1.53080849893419E-15,34.9));
#489=CARTESIAN_POINT('Origin',(0.,0.,34.85));
#490=CARTESIAN_POINT('Origin',(0.,0.,34.85));
#491=CARTESIAN_POINT('Origin',(0.,0.,5.3));
#492=CARTESIAN_POINT('',(35.55,4.35361937096884E-15,34.9));
#493=CARTESIAN_POINT('Origin',(0.,0.,34.9));
#494=CARTESIAN_POINT('',(35.55,4.35361937096884E-15,5.3));
#495=CARTESIAN_POINT('',(35.55,4.35361937096884E-15,5.3));
#496=CARTESIAN_POINT('Origin',(0.,0.,5.3));
#497=CARTESIAN_POINT('Origin',(0.,0.,34.9));
#498=CARTESIAN_POINT('Origin',(0.,0.,5.3));
#499=CARTESIAN_POINT('Origin',(0.,0.,0.));
#500=UNCERTAINTY_MEASURE_WITH_UNIT(LENGTH_MEASURE(0.01),#504,
'DISTANCE_ACCURACY_VALUE',
'Maximum model space distance between geometric entities at asserted c
onnectivities');
#501=UNCERTAINTY_MEASURE_WITH_UNIT(LENGTH_MEASURE(0.01),#504,
'DISTANCE_ACCURACY_VALUE',
'Maximum model space distance between geometric entities at asserted c
onnectivities');
#502=(
GEOMETRIC_REPRESENTATION_CONTEXT(3)
GLOBAL_UNCERTAINTY_ASSIGNED_CONTEXT((#500))
GLOBAL_UNIT_ASSIGNED_CONTEXT((#504,#506,#507))
REPRESENTATION_CONTEXT('','3D')
);
#503=(
GEOMETRIC_REPRESENTATION_CONTEXT(3)
GLOBAL_UNCERTAINTY_ASSIGNED_CONTEXT((#501))
GLOBAL_UNIT_ASSIGNED_CONTEXT((#504,#506,#507))
REPRESENTATION_CONTEXT('','3D')
);
#504=(
LENGTH_UNIT()
NAMED_UNIT(*)
SI_UNIT(.MILLI.,.METRE.)
);
#505=(
LENGTH_UNIT()
NAMED_UNIT(*)
SI_UNIT($,.METRE.)
);
#506=(
NAMED_UNIT(*)
PLANE_ANGLE_UNIT()
SI_UNIT($,.RADIAN.)
);
#507=(
NAMED_UNIT(*)
SI_UNIT($,.STERADIAN.)
SOLID_ANGLE_UNIT()
);
#508=SHAPE_DEFINITION_REPRESENTATION(#509,#510);
#509=PRODUCT_DEFINITION_SHAPE('',$,#512);
#510=SHAPE_REPRESENTATION('',(#286),#502);
#511=PRODUCT_DEFINITION_CONTEXT('part definition',#516,'design');
#512=PRODUCT_DEFINITION('2026-04-27-19-38-01-031',
'\X2\96F78FBEFF08\X0\YDLIDAR 4ROS\X2\FF09\X0\',#513,#511);
#513=PRODUCT_DEFINITION_FORMATION('',$,#518);
#514=PRODUCT_RELATED_PRODUCT_CATEGORY('\X2\96F78FBEFF08\X0\YDLIDAR 4RO
S\X2\FF09\X0\','\X2\96F78FBEFF08\X0\YDLIDAR 4ROS\X2\FF09\X0\',(#518));
#515=APPLICATION_PROTOCOL_DEFINITION('international standard',
'automotive_design',2009,#516);
#516=APPLICATION_CONTEXT(
'Core Data for Automotive Mechanical Design Process');
#517=PRODUCT_CONTEXT('part definition',#516,'mechanical');
#518=PRODUCT('2026-04-27-19-38-01-031','\X2\96F78FBEFF08\X0\YDLIDAR 4R
OS\X2\FF09\X0\',$,(#517));
#519=PRESENTATION_STYLE_ASSIGNMENT((#520));
#520=SURFACE_STYLE_USAGE(.BOTH.,#521);
#521=SURFACE_SIDE_STYLE('',(#522));
#522=SURFACE_STYLE_FILL_AREA(#523);
#523=FILL_AREA_STYLE('\X2\94A2\X0\ - \X2\7F0E5149\X0\',(#524));
#524=FILL_AREA_STYLE_COLOUR('\X2\94A2\X0\ - \X2\7F0E5149\X0\',#525);
#525=COLOUR_RGB('\X2\94A2\X0\ - \X2\7F0E5149\X0\',0.627450980392157,0.627450980392157,
0.627450980392157);
ENDSEC;
END-ISO-10303-21;
