ISO-10303-21;
HEADER;
/* Generated by software containing ST-Developer
 * from STEP Tools, Inc. (www.steptools.com) 
 */

FILE_DESCRIPTION(
/* description */ (''),
/* implementation_level */ '2;1');

FILE_NAME(
/* name */ '',
/* time_stamp */ '2026-08-11T12:28:45+09:00',
/* author */ (''),
/* organization */ (''),
/* preprocessor_version */ 'ST-DEVELOPER v20.1',
/* originating_system */ 'Autodesk Translation Framework v15.8.0.0',
/* authorisation */ '');

FILE_SCHEMA (('AUTOMOTIVE_DESIGN { 1 0 10303 214 3 1 1 }'));
ENDSEC;

DATA;
#10=MECHANICAL_DESIGN_GEOMETRIC_PRESENTATION_REPRESENTATION('',(#13),#469);
#11=SHAPE_REPRESENTATION_RELATIONSHIP('SRR','None',#476,#12);
#12=ADVANCED_BREP_SHAPE_REPRESENTATION('',(#14),#468);
#13=STYLED_ITEM('',(#485),#14);
#14=MANIFOLD_SOLID_BREP('\X2\5B9E4F53\X0\1',#271);
#15=PLANE('',#288);
#16=PLANE('',#289);
#17=PLANE('',#290);
#18=PLANE('',#293);
#19=PLANE('',#294);
#20=PLANE('',#298);
#21=PLANE('',#302);
#22=PLANE('',#306);
#23=PLANE('',#307);
#24=PLANE('',#309);
#25=PLANE('',#310);
#26=FACE_OUTER_BOUND('',#42,.T.);
#27=FACE_OUTER_BOUND('',#43,.T.);
#28=FACE_OUTER_BOUND('',#44,.T.);
#29=FACE_OUTER_BOUND('',#45,.T.);
#30=FACE_OUTER_BOUND('',#46,.T.);
#31=FACE_OUTER_BOUND('',#47,.T.);
#32=FACE_OUTER_BOUND('',#48,.T.);
#33=FACE_OUTER_BOUND('',#49,.T.);
#34=FACE_OUTER_BOUND('',#50,.T.);
#35=FACE_OUTER_BOUND('',#51,.T.);
#36=FACE_OUTER_BOUND('',#52,.T.);
#37=FACE_OUTER_BOUND('',#53,.T.);
#38=FACE_OUTER_BOUND('',#54,.T.);
#39=FACE_OUTER_BOUND('',#55,.T.);
#40=FACE_OUTER_BOUND('',#56,.T.);
#41=FACE_OUTER_BOUND('',#57,.T.);
#42=EDGE_LOOP('',(#178,#179,#180,#181));
#43=EDGE_LOOP('',(#182,#183,#184,#185));
#44=EDGE_LOOP('',(#186,#187,#188,#189));
#45=EDGE_LOOP('',(#190,#191,#192,#193,#194,#195));
#46=EDGE_LOOP('',(#196,#197,#198,#199));
#47=EDGE_LOOP('',(#200,#201,#202,#203));
#48=EDGE_LOOP('',(#204,#205,#206,#207));
#49=EDGE_LOOP('',(#208,#209,#210,#211,#212,#213,#214,#215));
#50=EDGE_LOOP('',(#216,#217,#218,#219));
#51=EDGE_LOOP('',(#220,#221,#222,#223));
#52=EDGE_LOOP('',(#224,#225,#226,#227));
#53=EDGE_LOOP('',(#228,#229,#230,#231,#232,#233));
#54=EDGE_LOOP('',(#234,#235,#236,#237));
#55=EDGE_LOOP('',(#238,#239,#240,#241));
#56=EDGE_LOOP('',(#242,#243,#244,#245));
#57=EDGE_LOOP('',(#246,#247,#248,#249));
#58=LINE('',#397,#84);
#59=LINE('',#400,#85);
#60=LINE('',#403,#86);
#61=LINE('',#405,#87);
#62=LINE('',#406,#88);
#63=LINE('',#409,#89);
#64=LINE('',#410,#90);
#65=LINE('',#415,#91);
#66=LINE('',#416,#92);
#67=LINE('',#419,#93);
#68=LINE('',#421,#94);
#69=LINE('',#428,#95);
#70=LINE('',#431,#96);
#71=LINE('',#434,#97);
#72=LINE('',#438,#98);
#73=LINE('',#442,#99);
#74=LINE('',#445,#100);
#75=LINE('',#448,#101);
#76=LINE('',#449,#102);
#77=LINE('',#453,#103);
#78=LINE('',#455,#104);
#79=LINE('',#456,#105);
#80=LINE('',#458,#106);
#81=LINE('',#459,#107);
#82=LINE('',#461,#108);
#83=LINE('',#463,#109);
#84=VECTOR('',#317,10.);
#85=VECTOR('',#320,10.);
#86=VECTOR('',#323,10.);
#87=VECTOR('',#324,10.);
#88=VECTOR('',#325,10.);
#89=VECTOR('',#328,10.);
#90=VECTOR('',#329,10.);
#91=VECTOR('',#334,10.);
#92=VECTOR('',#335,10.);
#93=VECTOR('',#338,10.);
#94=VECTOR('',#341,10.);
#95=VECTOR('',#348,10.);
#96=VECTOR('',#351,10.);
#97=VECTOR('',#354,10.);
#98=VECTOR('',#357,10.);
#99=VECTOR('',#360,10.);
#100=VECTOR('',#363,10.);
#101=VECTOR('',#366,10.);
#102=VECTOR('',#367,10.);
#103=VECTOR('',#372,10.);
#104=VECTOR('',#375,10.);
#105=VECTOR('',#376,10.);
#106=VECTOR('',#379,10.);
#107=VECTOR('',#380,10.);
#108=VECTOR('',#383,10.);
#109=VECTOR('',#386,10.);
#110=CIRCLE('',#286,3.);
#111=CIRCLE('',#287,3.);
#112=CIRCLE('',#291,4.2);
#113=CIRCLE('',#292,4.2);
#114=CIRCLE('',#296,4.2);
#115=CIRCLE('',#297,4.2);
#116=CIRCLE('',#299,4.2);
#117=CIRCLE('',#300,4.2);
#118=CIRCLE('',#301,4.2);
#119=CIRCLE('',#304,4.2);
#120=VERTEX_POINT('',#393);
#121=VERTEX_POINT('',#394);
#122=VERTEX_POINT('',#396);
#123=VERTEX_POINT('',#398);
#124=VERTEX_POINT('',#402);
#125=VERTEX_POINT('',#404);
#126=VERTEX_POINT('',#408);
#127=VERTEX_POINT('',#412);
#128=VERTEX_POINT('',#414);
#129=VERTEX_POINT('',#417);
#130=VERTEX_POINT('',#424);
#131=VERTEX_POINT('',#425);
#132=VERTEX_POINT('',#427);
#133=VERTEX_POINT('',#429);
#134=VERTEX_POINT('',#433);
#135=VERTEX_POINT('',#435);
#136=VERTEX_POINT('',#437);
#137=VERTEX_POINT('',#439);
#138=VERTEX_POINT('',#441);
#139=VERTEX_POINT('',#443);
#140=VERTEX_POINT('',#447);
#141=VERTEX_POINT('',#451);
#142=EDGE_CURVE('',#120,#121,#110,.T.);
#143=EDGE_CURVE('',#122,#121,#58,.T.);
#144=EDGE_CURVE('',#122,#123,#111,.T.);
#145=EDGE_CURVE('',#123,#120,#59,.T.);
#146=EDGE_CURVE('',#120,#124,#60,.T.);
#147=EDGE_CURVE('',#125,#124,#61,.T.);
#148=EDGE_CURVE('',#121,#125,#62,.T.);
#149=EDGE_CURVE('',#123,#126,#63,.T.);
#150=EDGE_CURVE('',#124,#126,#64,.T.);
#151=EDGE_CURVE('',#121,#127,#112,.T.);
#152=EDGE_CURVE('',#128,#125,#65,.T.);
#153=EDGE_CURVE('',#122,#128,#66,.T.);
#154=EDGE_CURVE('',#129,#122,#113,.T.);
#155=EDGE_CURVE('',#127,#129,#67,.T.);
#156=EDGE_CURVE('',#126,#128,#68,.T.);
#157=EDGE_CURVE('',#130,#131,#114,.T.);
#158=EDGE_CURVE('',#131,#132,#69,.T.);
#159=EDGE_CURVE('',#132,#133,#115,.T.);
#160=EDGE_CURVE('',#133,#130,#70,.T.);
#161=EDGE_CURVE('',#134,#130,#71,.T.);
#162=EDGE_CURVE('',#135,#134,#116,.T.);
#163=EDGE_CURVE('',#135,#136,#72,.T.);
#164=EDGE_CURVE('',#137,#136,#117,.T.);
#165=EDGE_CURVE('',#137,#138,#73,.T.);
#166=EDGE_CURVE('',#139,#138,#118,.T.);
#167=EDGE_CURVE('',#131,#139,#74,.T.);
#168=EDGE_CURVE('',#140,#133,#75,.T.);
#169=EDGE_CURVE('',#134,#140,#76,.T.);
#170=EDGE_CURVE('',#140,#141,#119,.T.);
#171=EDGE_CURVE('',#141,#135,#77,.T.);
#172=EDGE_CURVE('',#122,#139,#78,.T.);
#173=EDGE_CURVE('',#138,#129,#79,.T.);
#174=EDGE_CURVE('',#121,#141,#80,.T.);
#175=EDGE_CURVE('',#122,#132,#81,.T.);
#176=EDGE_CURVE('',#127,#137,#82,.T.);
#177=EDGE_CURVE('',#136,#121,#83,.T.);
#178=ORIENTED_EDGE('',*,*,#142,.T.);
#179=ORIENTED_EDGE('',*,*,#143,.F.);
#180=ORIENTED_EDGE('',*,*,#144,.T.);
#181=ORIENTED_EDGE('',*,*,#145,.T.);
#182=ORIENTED_EDGE('',*,*,#142,.F.);
#183=ORIENTED_EDGE('',*,*,#146,.T.);
#184=ORIENTED_EDGE('',*,*,#147,.F.);
#185=ORIENTED_EDGE('',*,*,#148,.F.);
#186=ORIENTED_EDGE('',*,*,#145,.F.);
#187=ORIENTED_EDGE('',*,*,#149,.T.);
#188=ORIENTED_EDGE('',*,*,#150,.F.);
#189=ORIENTED_EDGE('',*,*,#146,.F.);
#190=ORIENTED_EDGE('',*,*,#151,.F.);
#191=ORIENTED_EDGE('',*,*,#148,.T.);
#192=ORIENTED_EDGE('',*,*,#152,.F.);
#193=ORIENTED_EDGE('',*,*,#153,.F.);
#194=ORIENTED_EDGE('',*,*,#154,.F.);
#195=ORIENTED_EDGE('',*,*,#155,.F.);
#196=ORIENTED_EDGE('',*,*,#144,.F.);
#197=ORIENTED_EDGE('',*,*,#153,.T.);
#198=ORIENTED_EDGE('',*,*,#156,.F.);
#199=ORIENTED_EDGE('',*,*,#149,.F.);
#200=ORIENTED_EDGE('',*,*,#156,.T.);
#201=ORIENTED_EDGE('',*,*,#152,.T.);
#202=ORIENTED_EDGE('',*,*,#147,.T.);
#203=ORIENTED_EDGE('',*,*,#150,.T.);
#204=ORIENTED_EDGE('',*,*,#157,.T.);
#205=ORIENTED_EDGE('',*,*,#158,.T.);
#206=ORIENTED_EDGE('',*,*,#159,.T.);
#207=ORIENTED_EDGE('',*,*,#160,.T.);
#208=ORIENTED_EDGE('',*,*,#157,.F.);
#209=ORIENTED_EDGE('',*,*,#161,.F.);
#210=ORIENTED_EDGE('',*,*,#162,.F.);
#211=ORIENTED_EDGE('',*,*,#163,.T.);
#212=ORIENTED_EDGE('',*,*,#164,.F.);
#213=ORIENTED_EDGE('',*,*,#165,.T.);
#214=ORIENTED_EDGE('',*,*,#166,.F.);
#215=ORIENTED_EDGE('',*,*,#167,.F.);
#216=ORIENTED_EDGE('',*,*,#160,.F.);
#217=ORIENTED_EDGE('',*,*,#168,.F.);
#218=ORIENTED_EDGE('',*,*,#169,.F.);
#219=ORIENTED_EDGE('',*,*,#161,.T.);
#220=ORIENTED_EDGE('',*,*,#162,.T.);
#221=ORIENTED_EDGE('',*,*,#169,.T.);
#222=ORIENTED_EDGE('',*,*,#170,.T.);
#223=ORIENTED_EDGE('',*,*,#171,.T.);
#224=ORIENTED_EDGE('',*,*,#154,.T.);
#225=ORIENTED_EDGE('',*,*,#172,.T.);
#226=ORIENTED_EDGE('',*,*,#166,.T.);
#227=ORIENTED_EDGE('',*,*,#173,.T.);
#228=ORIENTED_EDGE('',*,*,#143,.T.);
#229=ORIENTED_EDGE('',*,*,#174,.T.);
#230=ORIENTED_EDGE('',*,*,#170,.F.);
#231=ORIENTED_EDGE('',*,*,#168,.T.);
#232=ORIENTED_EDGE('',*,*,#159,.F.);
#233=ORIENTED_EDGE('',*,*,#175,.F.);
#234=ORIENTED_EDGE('',*,*,#173,.F.);
#235=ORIENTED_EDGE('',*,*,#165,.F.);
#236=ORIENTED_EDGE('',*,*,#176,.F.);
#237=ORIENTED_EDGE('',*,*,#155,.T.);
#238=ORIENTED_EDGE('',*,*,#151,.T.);
#239=ORIENTED_EDGE('',*,*,#176,.T.);
#240=ORIENTED_EDGE('',*,*,#164,.T.);
#241=ORIENTED_EDGE('',*,*,#177,.T.);
#242=ORIENTED_EDGE('',*,*,#158,.F.);
#243=ORIENTED_EDGE('',*,*,#167,.T.);
#244=ORIENTED_EDGE('',*,*,#172,.F.);
#245=ORIENTED_EDGE('',*,*,#175,.T.);
#246=ORIENTED_EDGE('',*,*,#171,.F.);
#247=ORIENTED_EDGE('',*,*,#174,.F.);
#248=ORIENTED_EDGE('',*,*,#177,.F.);
#249=ORIENTED_EDGE('',*,*,#163,.F.);
#250=CYLINDRICAL_SURFACE('',#285,3.);
#251=CYLINDRICAL_SURFACE('',#295,4.2);
#252=CYLINDRICAL_SURFACE('',#303,4.2);
#253=CYLINDRICAL_SURFACE('',#305,4.2);
#254=CYLINDRICAL_SURFACE('',#308,4.2);
#255=ADVANCED_FACE('',(#26),#250,.T.);
#256=ADVANCED_FACE('',(#27),#15,.T.);
#257=ADVANCED_FACE('',(#28),#16,.T.);
#258=ADVANCED_FACE('',(#29),#17,.T.);
#259=ADVANCED_FACE('',(#30),#18,.T.);
#260=ADVANCED_FACE('',(#31),#19,.T.);
#261=ADVANCED_FACE('',(#32),#251,.T.);
#262=ADVANCED_FACE('',(#33),#20,.T.);
#263=ADVANCED_FACE('',(#34),#21,.T.);
#264=ADVANCED_FACE('',(#35),#252,.T.);
#265=ADVANCED_FACE('',(#36),#253,.T.);
#266=ADVANCED_FACE('',(#37),#22,.T.);
#267=ADVANCED_FACE('',(#38),#23,.T.);
#268=ADVANCED_FACE('',(#39),#254,.T.);
#269=ADVANCED_FACE('',(#40),#24,.T.);
#270=ADVANCED_FACE('',(#41),#25,.F.);
#271=CLOSED_SHELL('',(#255,#256,#257,#258,#259,#260,#261,#262,#263,#264,
#265,#266,#267,#268,#269,#270));
#272=DERIVED_UNIT_ELEMENT(#274,1.);
#273=DERIVED_UNIT_ELEMENT(#471,-3.);
#274=(
MASS_UNIT()
NAMED_UNIT(*)
SI_UNIT(.KILO.,.GRAM.)
);
#275=DERIVED_UNIT((#272,#273));
#276=MEASURE_REPRESENTATION_ITEM('density measure',
POSITIVE_RATIO_MEASURE(7850.),#275);
#277=PROPERTY_DEFINITION_REPRESENTATION(#282,#279);
#278=PROPERTY_DEFINITION_REPRESENTATION(#283,#280);
#279=REPRESENTATION('material name',(#281),#468);
#280=REPRESENTATION('density',(#276),#468);
#281=DESCRIPTIVE_REPRESENTATION_ITEM('\X2\94A2\X0\','\X2\94A2\X0\');
#282=PROPERTY_DEFINITION('material property','material name',#478);
#283=PROPERTY_DEFINITION('material property','density of part',#478);
#284=AXIS2_PLACEMENT_3D('',#391,#311,#312);
#285=AXIS2_PLACEMENT_3D('',#392,#313,#314);
#286=AXIS2_PLACEMENT_3D('',#395,#315,#316);
#287=AXIS2_PLACEMENT_3D('',#399,#318,#319);
#288=AXIS2_PLACEMENT_3D('',#401,#321,#322);
#289=AXIS2_PLACEMENT_3D('',#407,#326,#327);
#290=AXIS2_PLACEMENT_3D('',#411,#330,#331);
#291=AXIS2_PLACEMENT_3D('',#413,#332,#333);
#292=AXIS2_PLACEMENT_3D('',#418,#336,#337);
#293=AXIS2_PLACEMENT_3D('',#420,#339,#340);
#294=AXIS2_PLACEMENT_3D('',#422,#342,#343);
#295=AXIS2_PLACEMENT_3D('',#423,#344,#345);
#296=AXIS2_PLACEMENT_3D('',#426,#346,#347);
#297=AXIS2_PLACEMENT_3D('',#430,#349,#350);
#298=AXIS2_PLACEMENT_3D('',#432,#352,#353);
#299=AXIS2_PLACEMENT_3D('',#436,#355,#356);
#300=AXIS2_PLACEMENT_3D('',#440,#358,#359);
#301=AXIS2_PLACEMENT_3D('',#444,#361,#362);
#302=AXIS2_PLACEMENT_3D('',#446,#364,#365);
#303=AXIS2_PLACEMENT_3D('',#450,#368,#369);
#304=AXIS2_PLACEMENT_3D('',#452,#370,#371);
#305=AXIS2_PLACEMENT_3D('',#454,#373,#374);
#306=AXIS2_PLACEMENT_3D('',#457,#377,#378);
#307=AXIS2_PLACEMENT_3D('',#460,#381,#382);
#308=AXIS2_PLACEMENT_3D('',#462,#384,#385);
#309=AXIS2_PLACEMENT_3D('',#464,#387,#388);
#310=AXIS2_PLACEMENT_3D('',#465,#389,#390);
#311=DIRECTION('axis',(0.,0.,1.));
#312=DIRECTION('refdir',(1.,0.,0.));
#313=DIRECTION('center_axis',(0.,-1.,0.));
#314=DIRECTION('ref_axis',(0.707106781186547,0.,0.707106781186548));
#315=DIRECTION('center_axis',(0.,1.,0.));
#316=DIRECTION('ref_axis',(0.707106781186547,0.,0.707106781186548));
#317=DIRECTION('',(0.,-1.,0.));
#318=DIRECTION('center_axis',(0.,-1.,0.));
#319=DIRECTION('ref_axis',(0.707106781186547,0.,0.707106781186548));
#320=DIRECTION('',(0.,-1.,0.));
#321=DIRECTION('center_axis',(0.,-1.,0.));
#322=DIRECTION('ref_axis',(0.,0.,1.));
#323=DIRECTION('',(-1.,0.,0.));
#324=DIRECTION('',(0.,0.,1.));
#325=DIRECTION('',(-1.,0.,0.));
#326=DIRECTION('center_axis',(0.,0.,1.));
#327=DIRECTION('ref_axis',(0.,1.,0.));
#328=DIRECTION('',(-1.,0.,0.));
#329=DIRECTION('',(0.,1.,0.));
#330=DIRECTION('center_axis',(0.,-1.38199411234497E-33,-1.));
#331=DIRECTION('ref_axis',(0.,-1.,1.38199411234497E-33));
#332=DIRECTION('center_axis',(-1.25448929336176E-16,0.,-1.));
#333=DIRECTION('ref_axis',(-0.707106781186547,-0.707106781186548,0.));
#334=DIRECTION('',(0.,-1.,1.38199411234497E-33));
#335=DIRECTION('',(-1.,0.,0.));
#336=DIRECTION('center_axis',(-1.25448929336176E-16,0.,-1.));
#337=DIRECTION('ref_axis',(-0.707106781186548,0.707106781186548,0.));
#338=DIRECTION('',(0.,1.,0.));
#339=DIRECTION('center_axis',(0.,1.,0.));
#340=DIRECTION('ref_axis',(0.,0.,-1.));
#341=DIRECTION('',(0.,0.,-1.));
#342=DIRECTION('center_axis',(-1.,0.,0.));
#343=DIRECTION('ref_axis',(0.,0.,1.));
#344=DIRECTION('center_axis',(0.,0.,-1.));
#345=DIRECTION('ref_axis',(0.707106781186548,0.707106781186548,0.));
#346=DIRECTION('center_axis',(0.,0.,1.));
#347=DIRECTION('ref_axis',(0.707106781186548,0.707106781186548,0.));
#348=DIRECTION('',(0.,0.,1.));
#349=DIRECTION('center_axis',(-1.25448929336176E-16,0.,-1.));
#350=DIRECTION('ref_axis',(0.707106781186548,0.707106781186548,0.));
#351=DIRECTION('',(0.,0.,-1.));
#352=DIRECTION('center_axis',(0.,0.,-1.));
#353=DIRECTION('ref_axis',(-1.,0.,0.));
#354=DIRECTION('',(0.,1.,0.));
#355=DIRECTION('center_axis',(0.,0.,1.));
#356=DIRECTION('ref_axis',(0.707106781186547,-0.707106781186548,0.));
#357=DIRECTION('',(-1.,0.,0.));
#358=DIRECTION('center_axis',(0.,0.,1.));
#359=DIRECTION('ref_axis',(-0.707106781186547,-0.707106781186548,0.));
#360=DIRECTION('',(0.,1.,0.));
#361=DIRECTION('center_axis',(0.,0.,1.));
#362=DIRECTION('ref_axis',(-0.707106781186548,0.707106781186548,0.));
#363=DIRECTION('',(-1.,0.,0.));
#364=DIRECTION('center_axis',(1.,0.,0.));
#365=DIRECTION('ref_axis',(0.,0.,-1.));
#366=DIRECTION('',(0.,1.,0.));
#367=DIRECTION('',(0.,0.,1.));
#368=DIRECTION('center_axis',(0.,0.,-1.));
#369=DIRECTION('ref_axis',(0.707106781186547,-0.707106781186548,0.));
#370=DIRECTION('center_axis',(-1.25448929336176E-16,0.,-1.));
#371=DIRECTION('ref_axis',(0.707106781186547,-0.707106781186548,0.));
#372=DIRECTION('',(0.,0.,-1.));
#373=DIRECTION('center_axis',(-2.58944145685168E-16,0.,1.));
#374=DIRECTION('ref_axis',(-0.707106781186548,0.707106781186548,0.));
#375=DIRECTION('',(2.58944145685168E-16,0.,-1.));
#376=DIRECTION('',(-2.58944145685168E-16,0.,1.));
#377=DIRECTION('center_axis',(1.25448929336176E-16,0.,1.));
#378=DIRECTION('ref_axis',(1.,0.,-1.25448929336176E-16));
#379=DIRECTION('',(1.,0.,-1.25448929336176E-16));
#380=DIRECTION('',(1.,0.,-1.25448929336176E-16));
#381=DIRECTION('center_axis',(-1.,0.,-2.58944145685168E-16));
#382=DIRECTION('ref_axis',(-2.58944145685168E-16,0.,1.));
#383=DIRECTION('',(2.58944145685168E-16,0.,-1.));
#384=DIRECTION('center_axis',(-2.58944145685168E-16,0.,1.));
#385=DIRECTION('ref_axis',(-0.707106781186547,-0.707106781186548,0.));
#386=DIRECTION('',(-2.58944145685168E-16,0.,1.));
#387=DIRECTION('center_axis',(0.,1.,0.));
#388=DIRECTION('ref_axis',(0.,0.,1.));
#389=DIRECTION('center_axis',(0.,1.,0.));
#390=DIRECTION('ref_axis',(1.,0.,0.));
#391=CARTESIAN_POINT('',(0.,0.,0.));
#392=CARTESIAN_POINT('Origin',(-34.2,4.85,17.15));
#393=CARTESIAN_POINT('',(-34.2,0.,20.15));
#394=CARTESIAN_POINT('',(-31.2,0.,17.15));
#395=CARTESIAN_POINT('Origin',(-34.2,1.11022302462516E-15,17.15));
#396=CARTESIAN_POINT('',(-31.2,19.4,17.15));
#397=CARTESIAN_POINT('',(-31.2,4.85,17.15));
#398=CARTESIAN_POINT('',(-34.2,19.4,20.15));
#399=CARTESIAN_POINT('Origin',(-34.2,19.4,17.15));
#400=CARTESIAN_POINT('',(-34.2,4.85,20.15));
#401=CARTESIAN_POINT('Origin',(-31.2,1.11022302462516E-15,17.15));
#402=CARTESIAN_POINT('',(-36.2,0.,20.15));
#403=CARTESIAN_POINT('',(-31.2,0.,20.15));
#404=CARTESIAN_POINT('',(-36.2,0.,17.15));
#405=CARTESIAN_POINT('',(-36.2,1.11022302462516E-15,17.15));
#406=CARTESIAN_POINT('',(-31.2,1.11022302462516E-15,17.15));
#407=CARTESIAN_POINT('Origin',(-31.2,0.,20.15));
#408=CARTESIAN_POINT('',(-36.2,19.4,20.15));
#409=CARTESIAN_POINT('',(-31.2,19.4,20.15));
#410=CARTESIAN_POINT('',(-36.2,19.4,20.15));
#411=CARTESIAN_POINT('Origin',(-31.2,19.4,17.15));
#412=CARTESIAN_POINT('',(-35.4,4.2,17.15));
#413=CARTESIAN_POINT('Origin',(-31.2,4.2,17.15));
#414=CARTESIAN_POINT('',(-36.2,19.4,17.15));
#415=CARTESIAN_POINT('',(-36.2,19.4,17.15));
#416=CARTESIAN_POINT('',(-31.2,19.4,17.15));
#417=CARTESIAN_POINT('',(-35.4,15.2,17.15));
#418=CARTESIAN_POINT('Origin',(-31.2,15.2,17.15));
#419=CARTESIAN_POINT('',(-35.4,0.,17.15));
#420=CARTESIAN_POINT('Origin',(-31.2,19.4,20.15));
#421=CARTESIAN_POINT('',(-36.2,19.4,17.15));
#422=CARTESIAN_POINT('Origin',(-36.2,9.7,18.65));
#423=CARTESIAN_POINT('Origin',(31.2,15.2,8.575));
#424=CARTESIAN_POINT('',(35.4,15.2,-17.15));
#425=CARTESIAN_POINT('',(31.2,19.4,-17.15));
#426=CARTESIAN_POINT('Origin',(31.2,15.2,-17.15));
#427=CARTESIAN_POINT('',(31.2,19.4,17.15));
#428=CARTESIAN_POINT('',(31.2,19.4,8.575));
#429=CARTESIAN_POINT('',(35.4,15.2,17.15));
#430=CARTESIAN_POINT('Origin',(31.2,15.2,17.15));
#431=CARTESIAN_POINT('',(35.4,15.2,8.575));
#432=CARTESIAN_POINT('Origin',(35.4,0.,-17.15));
#433=CARTESIAN_POINT('',(35.4,4.2,-17.15));
#434=CARTESIAN_POINT('',(35.4,0.,-17.15));
#435=CARTESIAN_POINT('',(31.2,0.,-17.15));
#436=CARTESIAN_POINT('Origin',(31.2,4.2,-17.15));
#437=CARTESIAN_POINT('',(-31.2,0.,-17.15));
#438=CARTESIAN_POINT('',(35.4,0.,-17.15));
#439=CARTESIAN_POINT('',(-35.4,4.2,-17.15));
#440=CARTESIAN_POINT('Origin',(-31.2,4.2,-17.15));
#441=CARTESIAN_POINT('',(-35.4,15.2,-17.15));
#442=CARTESIAN_POINT('',(-35.4,0.,-17.15));
#443=CARTESIAN_POINT('',(-31.2,19.4,-17.15));
#444=CARTESIAN_POINT('Origin',(-31.2,15.2,-17.15));
#445=CARTESIAN_POINT('',(35.4,19.4,-17.15));
#446=CARTESIAN_POINT('Origin',(35.4,0.,17.15));
#447=CARTESIAN_POINT('',(35.4,4.2,17.15));
#448=CARTESIAN_POINT('',(35.4,0.,17.15));
#449=CARTESIAN_POINT('',(35.4,4.2,8.575));
#450=CARTESIAN_POINT('Origin',(31.2,4.2,8.575));
#451=CARTESIAN_POINT('',(31.2,0.,17.15));
#452=CARTESIAN_POINT('Origin',(31.2,4.2,17.15));
#453=CARTESIAN_POINT('',(31.2,0.,8.575));
#454=CARTESIAN_POINT('Origin',(-31.2,15.2,-8.575));
#455=CARTESIAN_POINT('',(-31.2,19.4,-8.575));
#456=CARTESIAN_POINT('',(-35.4,15.2,-8.575));
#457=CARTESIAN_POINT('Origin',(-35.4,0.,17.15));
#458=CARTESIAN_POINT('',(-35.4,0.,17.15));
#459=CARTESIAN_POINT('',(-35.4,19.4,17.15));
#460=CARTESIAN_POINT('Origin',(-35.4,0.,-17.15));
#461=CARTESIAN_POINT('',(-35.4,4.2,-8.575));
#462=CARTESIAN_POINT('Origin',(-31.2,4.2,-8.575));
#463=CARTESIAN_POINT('',(-31.2,0.,-8.575));
#464=CARTESIAN_POINT('Origin',(-8.88178419700125E-15,19.4,4.44089209850063E-15));
#465=CARTESIAN_POINT('Origin',(-8.88178419700125E-15,0.,4.44089209850063E-15));
#466=UNCERTAINTY_MEASURE_WITH_UNIT(LENGTH_MEASURE(0.01),#470,
'DISTANCE_ACCURACY_VALUE',
'Maximum model space distance between geometric entities at asserted c
onnectivities');
#467=UNCERTAINTY_MEASURE_WITH_UNIT(LENGTH_MEASURE(0.01),#470,
'DISTANCE_ACCURACY_VALUE',
'Maximum model space distance between geometric entities at asserted c
onnectivities');
#468=(
GEOMETRIC_REPRESENTATION_CONTEXT(3)
GLOBAL_UNCERTAINTY_ASSIGNED_CONTEXT((#466))
GLOBAL_UNIT_ASSIGNED_CONTEXT((#470,#472,#473))
REPRESENTATION_CONTEXT('','3D')
);
#469=(
GEOMETRIC_REPRESENTATION_CONTEXT(3)
GLOBAL_UNCERTAINTY_ASSIGNED_CONTEXT((#467))
GLOBAL_UNIT_ASSIGNED_CONTEXT((#470,#472,#473))
REPRESENTATION_CONTEXT('','3D')
);
#470=(
LENGTH_UNIT()
NAMED_UNIT(*)
SI_UNIT(.MILLI.,.METRE.)
);
#471=(
LENGTH_UNIT()
NAMED_UNIT(*)
SI_UNIT($,.METRE.)
);
#472=(
NAMED_UNIT(*)
PLANE_ANGLE_UNIT()
SI_UNIT($,.RADIAN.)
);
#473=(
NAMED_UNIT(*)
SI_UNIT($,.STERADIAN.)
SOLID_ANGLE_UNIT()
);
#474=SHAPE_DEFINITION_REPRESENTATION(#475,#476);
#475=PRODUCT_DEFINITION_SHAPE('',$,#478);
#476=SHAPE_REPRESENTATION('',(#284),#468);
#477=PRODUCT_DEFINITION_CONTEXT('part definition',#482,'design');
#478=PRODUCT_DEFINITION('2026-06-30-14-28-05-670','\X2\5C0F75356C60FF08FF09\X0\',
#479,#477);
#479=PRODUCT_DEFINITION_FORMATION('',$,#484);
#480=PRODUCT_RELATED_PRODUCT_CATEGORY('\X2\5C0F75356C60FF08FF09\X0\',
'\X2\5C0F75356C60FF08FF09\X0\',(#484));
#481=APPLICATION_PROTOCOL_DEFINITION('international standard',
'automotive_design',2009,#482);
#482=APPLICATION_CONTEXT(
'Core Data for Automotive Mechanical Design Process');
#483=PRODUCT_CONTEXT('part definition',#482,'mechanical');
#484=PRODUCT('2026-06-30-14-28-05-670','\X2\5C0F75356C60FF08FF09\X0\',$,
(#483));
#485=PRESENTATION_STYLE_ASSIGNMENT((#486));
#486=SURFACE_STYLE_USAGE(.BOTH.,#487);
#487=SURFACE_SIDE_STYLE('',(#488));
#488=SURFACE_STYLE_FILL_AREA(#489);
#489=FILL_AREA_STYLE('\X2\94A2\X0\ - \X2\7F0E5149\X0\',(#490));
#490=FILL_AREA_STYLE_COLOUR('\X2\94A2\X0\ - \X2\7F0E5149\X0\',#491);
#491=COLOUR_RGB('\X2\94A2\X0\ - \X2\7F0E5149\X0\',0.627450980392157,0.627450980392157,
0.627450980392157);
ENDSEC;
END-ISO-10303-21;
