ISO-10303-21;
HEADER;
/* Generated by software containing ST-Developer
 * from STEP Tools, Inc. (www.steptools.com) 
 */

FILE_DESCRIPTION(
/* description */ (''),
/* implementation_level */ '2;1');

FILE_NAME(
/* name */ 'DCDC.step',
/* time_stamp */ '2026-08-11T12:26:40+09:00',
/* author */ (''),
/* organization */ (''),
/* preprocessor_version */ 'ST-DEVELOPER v20.1',
/* originating_system */ 'Autodesk Translation Framework v15.8.0.0',
/* authorisation */ '');

FILE_SCHEMA (('AUTOMOTIVE_DESIGN { 1 0 10303 214 3 1 1 }'));
ENDSEC;

DATA;
#10=MECHANICAL_DESIGN_GEOMETRIC_PRESENTATION_REPRESENTATION('',(#15,#16,
#17,#18),#1685);
#11=SHAPE_REPRESENTATION_RELATIONSHIP('SRR','None',#1692,#12);
#12=ADVANCED_BREP_SHAPE_REPRESENTATION('',(#19,#20,#21,#22),#1684);
#13=CONICAL_SURFACE('',#1107,1.675,0.0332576947230856);
#14=(
BOUNDED_SURFACE()
B_SPLINE_SURFACE(2,2,((#1640,#1641,#1642,#1643,#1644,#1645,#1646,#1647,
#1648),(#1649,#1650,#1651,#1652,#1653,#1654,#1655,#1656,#1657),(#1658,#1659,
#1660,#1661,#1662,#1663,#1664,#1665,#1666)),.UNSPECIFIED.,.F.,.T.,.F.)
B_SPLINE_SURFACE_WITH_KNOTS((3,3),(3,2,2,2,3),(-1.5707963267949,-0.033257694723085),
(-3.14159265358979,-1.5707963267949,0.,1.5707963267949,3.14159265358979),
 .UNSPECIFIED.)
GEOMETRIC_REPRESENTATION_ITEM()
RATIONAL_B_SPLINE_SURFACE(((1.,0.707106781186548,1.,0.707106781186548,1.,
0.707106781186548,1.,0.707106781186548,1.),(0.718766848202116,0.508244912455798,
0.718766848202116,0.508244912455798,0.718766848202116,0.508244912455798,
0.718766848202116,0.508244912455798,0.718766848202116),(1.,0.707106781186548,
1.,0.707106781186548,1.,0.707106781186548,1.,0.707106781186548,1.)))
REPRESENTATION_ITEM('')
SURFACE()
);
#15=STYLED_ITEM('',(#1701),#19);
#16=STYLED_ITEM('',(#1701),#20);
#17=STYLED_ITEM('',(#1701),#21);
#18=STYLED_ITEM('',(#1701),#22);
#19=MANIFOLD_SOLID_BREP('\X2\5B9E4F53\X0\1',#1027);
#20=MANIFOLD_SOLID_BREP('\X2\5B9E4F53\X0\4',#1028);
#21=MANIFOLD_SOLID_BREP('\X2\5B9E4F53\X0\5',#1029);
#22=MANIFOLD_SOLID_BREP('\X2\5B9E4F53\X0\6',#1030);
#23=FACE_BOUND('',#157,.T.);
#24=FACE_BOUND('',#158,.T.);
#25=FACE_BOUND('',#159,.T.);
#26=FACE_BOUND('',#161,.T.);
#27=FACE_BOUND('',#162,.T.);
#28=FACE_BOUND('',#186,.T.);
#29=FACE_BOUND('',#187,.T.);
#30=FACE_BOUND('',#188,.T.);
#31=FACE_BOUND('',#210,.T.);
#32=FACE_BOUND('',#211,.T.);
#33=FACE_BOUND('',#212,.T.);
#34=PLANE('',#1050);
#35=PLANE('',#1051);
#36=PLANE('',#1052);
#37=PLANE('',#1053);
#38=PLANE('',#1054);
#39=PLANE('',#1055);
#40=PLANE('',#1056);
#41=PLANE('',#1057);
#42=PLANE('',#1058);
#43=PLANE('',#1059);
#44=PLANE('',#1060);
#45=PLANE('',#1061);
#46=PLANE('',#1062);
#47=PLANE('',#1063);
#48=PLANE('',#1064);
#49=PLANE('',#1065);
#50=PLANE('',#1066);
#51=PLANE('',#1067);
#52=PLANE('',#1068);
#53=PLANE('',#1069);
#54=PLANE('',#1070);
#55=PLANE('',#1071);
#56=PLANE('',#1072);
#57=PLANE('',#1073);
#58=PLANE('',#1074);
#59=PLANE('',#1075);
#60=PLANE('',#1076);
#61=PLANE('',#1077);
#62=PLANE('',#1078);
#63=PLANE('',#1079);
#64=PLANE('',#1080);
#65=PLANE('',#1081);
#66=PLANE('',#1082);
#67=PLANE('',#1083);
#68=PLANE('',#1084);
#69=PLANE('',#1085);
#70=PLANE('',#1086);
#71=PLANE('',#1087);
#72=PLANE('',#1088);
#73=PLANE('',#1089);
#74=PLANE('',#1090);
#75=PLANE('',#1091);
#76=PLANE('',#1092);
#77=PLANE('',#1093);
#78=PLANE('',#1094);
#79=PLANE('',#1095);
#80=PLANE('',#1096);
#81=PLANE('',#1097);
#82=PLANE('',#1098);
#83=PLANE('',#1099);
#84=PLANE('',#1100);
#85=PLANE('',#1101);
#86=PLANE('',#1102);
#87=PLANE('',#1106);
#88=PLANE('',#1111);
#89=FACE_OUTER_BOUND('',#149,.T.);
#90=FACE_OUTER_BOUND('',#150,.T.);
#91=FACE_OUTER_BOUND('',#151,.T.);
#92=FACE_OUTER_BOUND('',#152,.T.);
#93=FACE_OUTER_BOUND('',#153,.T.);
#94=FACE_OUTER_BOUND('',#154,.T.);
#95=FACE_OUTER_BOUND('',#155,.T.);
#96=FACE_OUTER_BOUND('',#156,.T.);
#97=FACE_OUTER_BOUND('',#160,.T.);
#98=FACE_OUTER_BOUND('',#163,.T.);
#99=FACE_OUTER_BOUND('',#164,.T.);
#100=FACE_OUTER_BOUND('',#165,.T.);
#101=FACE_OUTER_BOUND('',#166,.T.);
#102=FACE_OUTER_BOUND('',#167,.T.);
#103=FACE_OUTER_BOUND('',#168,.T.);
#104=FACE_OUTER_BOUND('',#169,.T.);
#105=FACE_OUTER_BOUND('',#170,.T.);
#106=FACE_OUTER_BOUND('',#171,.T.);
#107=FACE_OUTER_BOUND('',#172,.T.);
#108=FACE_OUTER_BOUND('',#173,.T.);
#109=FACE_OUTER_BOUND('',#174,.T.);
#110=FACE_OUTER_BOUND('',#175,.T.);
#111=FACE_OUTER_BOUND('',#176,.T.);
#112=FACE_OUTER_BOUND('',#177,.T.);
#113=FACE_OUTER_BOUND('',#178,.T.);
#114=FACE_OUTER_BOUND('',#179,.T.);
#115=FACE_OUTER_BOUND('',#180,.T.);
#116=FACE_OUTER_BOUND('',#181,.T.);
#117=FACE_OUTER_BOUND('',#182,.T.);
#118=FACE_OUTER_BOUND('',#183,.T.);
#119=FACE_OUTER_BOUND('',#184,.T.);
#120=FACE_OUTER_BOUND('',#185,.T.);
#121=FACE_OUTER_BOUND('',#189,.T.);
#122=FACE_OUTER_BOUND('',#190,.T.);
#123=FACE_OUTER_BOUND('',#191,.T.);
#124=FACE_OUTER_BOUND('',#192,.T.);
#125=FACE_OUTER_BOUND('',#193,.T.);
#126=FACE_OUTER_BOUND('',#194,.T.);
#127=FACE_OUTER_BOUND('',#195,.T.);
#128=FACE_OUTER_BOUND('',#196,.T.);
#129=FACE_OUTER_BOUND('',#197,.T.);
#130=FACE_OUTER_BOUND('',#198,.T.);
#131=FACE_OUTER_BOUND('',#199,.T.);
#132=FACE_OUTER_BOUND('',#200,.T.);
#133=FACE_OUTER_BOUND('',#201,.T.);
#134=FACE_OUTER_BOUND('',#202,.T.);
#135=FACE_OUTER_BOUND('',#203,.T.);
#136=FACE_OUTER_BOUND('',#204,.T.);
#137=FACE_OUTER_BOUND('',#205,.T.);
#138=FACE_OUTER_BOUND('',#206,.T.);
#139=FACE_OUTER_BOUND('',#207,.T.);
#140=FACE_OUTER_BOUND('',#208,.T.);
#141=FACE_OUTER_BOUND('',#209,.T.);
#142=FACE_OUTER_BOUND('',#213,.T.);
#143=FACE_OUTER_BOUND('',#214,.T.);
#144=FACE_OUTER_BOUND('',#215,.T.);
#145=FACE_OUTER_BOUND('',#216,.T.);
#146=FACE_OUTER_BOUND('',#217,.T.);
#147=FACE_OUTER_BOUND('',#218,.T.);
#148=FACE_OUTER_BOUND('',#219,.T.);
#149=EDGE_LOOP('',(#698,#699,#700,#701));
#150=EDGE_LOOP('',(#702,#703,#704,#705));
#151=EDGE_LOOP('',(#706,#707,#708,#709));
#152=EDGE_LOOP('',(#710,#711,#712,#713));
#153=EDGE_LOOP('',(#714,#715,#716,#717));
#154=EDGE_LOOP('',(#718,#719,#720,#721));
#155=EDGE_LOOP('',(#722,#723,#724,#725));
#156=EDGE_LOOP('',(#726,#727,#728,#729));
#157=EDGE_LOOP('',(#730));
#158=EDGE_LOOP('',(#731));
#159=EDGE_LOOP('',(#732,#733,#734,#735));
#160=EDGE_LOOP('',(#736,#737,#738,#739));
#161=EDGE_LOOP('',(#740));
#162=EDGE_LOOP('',(#741));
#163=EDGE_LOOP('',(#742,#743,#744,#745));
#164=EDGE_LOOP('',(#746,#747,#748,#749));
#165=EDGE_LOOP('',(#750,#751,#752,#753));
#166=EDGE_LOOP('',(#754,#755,#756,#757));
#167=EDGE_LOOP('',(#758,#759,#760,#761));
#168=EDGE_LOOP('',(#762,#763,#764,#765));
#169=EDGE_LOOP('',(#766,#767,#768,#769));
#170=EDGE_LOOP('',(#770,#771,#772,#773));
#171=EDGE_LOOP('',(#774,#775,#776,#777));
#172=EDGE_LOOP('',(#778,#779,#780,#781));
#173=EDGE_LOOP('',(#782,#783,#784,#785));
#174=EDGE_LOOP('',(#786,#787,#788,#789));
#175=EDGE_LOOP('',(#790,#791,#792,#793));
#176=EDGE_LOOP('',(#794,#795,#796,#797));
#177=EDGE_LOOP('',(#798,#799,#800,#801));
#178=EDGE_LOOP('',(#802,#803,#804,#805));
#179=EDGE_LOOP('',(#806,#807,#808,#809));
#180=EDGE_LOOP('',(#810,#811,#812,#813));
#181=EDGE_LOOP('',(#814,#815,#816,#817));
#182=EDGE_LOOP('',(#818,#819,#820,#821));
#183=EDGE_LOOP('',(#822,#823,#824,#825));
#184=EDGE_LOOP('',(#826,#827,#828,#829));
#185=EDGE_LOOP('',(#830,#831,#832,#833));
#186=EDGE_LOOP('',(#834,#835,#836,#837));
#187=EDGE_LOOP('',(#838,#839,#840,#841));
#188=EDGE_LOOP('',(#842,#843,#844,#845));
#189=EDGE_LOOP('',(#846,#847,#848,#849));
#190=EDGE_LOOP('',(#850,#851,#852,#853));
#191=EDGE_LOOP('',(#854,#855,#856,#857));
#192=EDGE_LOOP('',(#858,#859,#860,#861));
#193=EDGE_LOOP('',(#862,#863,#864,#865));
#194=EDGE_LOOP('',(#866,#867,#868,#869));
#195=EDGE_LOOP('',(#870,#871,#872,#873));
#196=EDGE_LOOP('',(#874,#875,#876,#877));
#197=EDGE_LOOP('',(#878,#879,#880,#881));
#198=EDGE_LOOP('',(#882,#883,#884,#885));
#199=EDGE_LOOP('',(#886,#887,#888,#889));
#200=EDGE_LOOP('',(#890,#891,#892,#893));
#201=EDGE_LOOP('',(#894,#895,#896,#897));
#202=EDGE_LOOP('',(#898,#899,#900,#901));
#203=EDGE_LOOP('',(#902,#903,#904,#905));
#204=EDGE_LOOP('',(#906,#907,#908,#909));
#205=EDGE_LOOP('',(#910,#911,#912,#913));
#206=EDGE_LOOP('',(#914,#915,#916,#917));
#207=EDGE_LOOP('',(#918,#919,#920,#921));
#208=EDGE_LOOP('',(#922,#923,#924,#925));
#209=EDGE_LOOP('',(#926,#927,#928,#929));
#210=EDGE_LOOP('',(#930,#931,#932,#933));
#211=EDGE_LOOP('',(#934,#935,#936,#937));
#212=EDGE_LOOP('',(#938,#939,#940,#941));
#213=EDGE_LOOP('',(#942,#943,#944,#945));
#214=EDGE_LOOP('',(#946,#947,#948,#949));
#215=EDGE_LOOP('',(#950,#951,#952,#953));
#216=EDGE_LOOP('',(#954));
#217=EDGE_LOOP('',(#955,#956,#957,#958));
#218=EDGE_LOOP('',(#959,#960,#961,#962));
#219=EDGE_LOOP('',(#963));
#220=LINE('',#1379,#344);
#221=LINE('',#1385,#345);
#222=LINE('',#1390,#346);
#223=LINE('',#1392,#347);
#224=LINE('',#1394,#348);
#225=LINE('',#1395,#349);
#226=LINE('',#1398,#350);
#227=LINE('',#1400,#351);
#228=LINE('',#1401,#352);
#229=LINE('',#1404,#353);
#230=LINE('',#1406,#354);
#231=LINE('',#1407,#355);
#232=LINE('',#1409,#356);
#233=LINE('',#1410,#357);
#234=LINE('',#1415,#358);
#235=LINE('',#1417,#359);
#236=LINE('',#1419,#360);
#237=LINE('',#1420,#361);
#238=LINE('',#1424,#362);
#239=LINE('',#1426,#363);
#240=LINE('',#1428,#364);
#241=LINE('',#1429,#365);
#242=LINE('',#1431,#366);
#243=LINE('',#1432,#367);
#244=LINE('',#1434,#368);
#245=LINE('',#1436,#369);
#246=LINE('',#1441,#370);
#247=LINE('',#1443,#371);
#248=LINE('',#1445,#372);
#249=LINE('',#1446,#373);
#250=LINE('',#1449,#374);
#251=LINE('',#1451,#375);
#252=LINE('',#1452,#376);
#253=LINE('',#1455,#377);
#254=LINE('',#1457,#378);
#255=LINE('',#1458,#379);
#256=LINE('',#1460,#380);
#257=LINE('',#1461,#381);
#258=LINE('',#1466,#382);
#259=LINE('',#1468,#383);
#260=LINE('',#1470,#384);
#261=LINE('',#1471,#385);
#262=LINE('',#1474,#386);
#263=LINE('',#1476,#387);
#264=LINE('',#1477,#388);
#265=LINE('',#1480,#389);
#266=LINE('',#1482,#390);
#267=LINE('',#1483,#391);
#268=LINE('',#1485,#392);
#269=LINE('',#1486,#393);
#270=LINE('',#1491,#394);
#271=LINE('',#1493,#395);
#272=LINE('',#1495,#396);
#273=LINE('',#1496,#397);
#274=LINE('',#1499,#398);
#275=LINE('',#1501,#399);
#276=LINE('',#1502,#400);
#277=LINE('',#1505,#401);
#278=LINE('',#1507,#402);
#279=LINE('',#1508,#403);
#280=LINE('',#1510,#404);
#281=LINE('',#1511,#405);
#282=LINE('',#1516,#406);
#283=LINE('',#1518,#407);
#284=LINE('',#1520,#408);
#285=LINE('',#1521,#409);
#286=LINE('',#1524,#410);
#287=LINE('',#1526,#411);
#288=LINE('',#1527,#412);
#289=LINE('',#1530,#413);
#290=LINE('',#1532,#414);
#291=LINE('',#1533,#415);
#292=LINE('',#1535,#416);
#293=LINE('',#1536,#417);
#294=LINE('',#1542,#418);
#295=LINE('',#1544,#419);
#296=LINE('',#1546,#420);
#297=LINE('',#1547,#421);
#298=LINE('',#1550,#422);
#299=LINE('',#1552,#423);
#300=LINE('',#1553,#424);
#301=LINE('',#1556,#425);
#302=LINE('',#1558,#426);
#303=LINE('',#1559,#427);
#304=LINE('',#1561,#428);
#305=LINE('',#1562,#429);
#306=LINE('',#1567,#430);
#307=LINE('',#1569,#431);
#308=LINE('',#1571,#432);
#309=LINE('',#1572,#433);
#310=LINE('',#1575,#434);
#311=LINE('',#1577,#435);
#312=LINE('',#1578,#436);
#313=LINE('',#1581,#437);
#314=LINE('',#1583,#438);
#315=LINE('',#1584,#439);
#316=LINE('',#1586,#440);
#317=LINE('',#1587,#441);
#318=LINE('',#1592,#442);
#319=LINE('',#1594,#443);
#320=LINE('',#1596,#444);
#321=LINE('',#1597,#445);
#322=LINE('',#1600,#446);
#323=LINE('',#1602,#447);
#324=LINE('',#1603,#448);
#325=LINE('',#1606,#449);
#326=LINE('',#1608,#450);
#327=LINE('',#1609,#451);
#328=LINE('',#1611,#452);
#329=LINE('',#1612,#453);
#330=LINE('',#1617,#454);
#331=LINE('',#1619,#455);
#332=LINE('',#1621,#456);
#333=LINE('',#1622,#457);
#334=LINE('',#1625,#458);
#335=LINE('',#1627,#459);
#336=LINE('',#1628,#460);
#337=LINE('',#1631,#461);
#338=LINE('',#1633,#462);
#339=LINE('',#1634,#463);
#340=LINE('',#1636,#464);
#341=LINE('',#1637,#465);
#342=LINE('',#1675,#466);
#343=LINE('',#1679,#467);
#344=VECTOR('',#1118,1.675);
#345=VECTOR('',#1125,1.675);
#346=VECTOR('',#1130,10.);
#347=VECTOR('',#1131,10.);
#348=VECTOR('',#1132,10.);
#349=VECTOR('',#1133,10.);
#350=VECTOR('',#1136,10.);
#351=VECTOR('',#1137,10.);
#352=VECTOR('',#1138,10.);
#353=VECTOR('',#1141,10.);
#354=VECTOR('',#1142,10.);
#355=VECTOR('',#1143,10.);
#356=VECTOR('',#1146,10.);
#357=VECTOR('',#1147,10.);
#358=VECTOR('',#1152,10.);
#359=VECTOR('',#1153,10.);
#360=VECTOR('',#1154,10.);
#361=VECTOR('',#1155,10.);
#362=VECTOR('',#1158,10.);
#363=VECTOR('',#1159,10.);
#364=VECTOR('',#1160,10.);
#365=VECTOR('',#1161,10.);
#366=VECTOR('',#1164,10.);
#367=VECTOR('',#1165,10.);
#368=VECTOR('',#1168,10.);
#369=VECTOR('',#1171,10.);
#370=VECTOR('',#1176,10.);
#371=VECTOR('',#1177,10.);
#372=VECTOR('',#1178,10.);
#373=VECTOR('',#1179,10.);
#374=VECTOR('',#1182,10.);
#375=VECTOR('',#1183,10.);
#376=VECTOR('',#1184,10.);
#377=VECTOR('',#1187,10.);
#378=VECTOR('',#1188,10.);
#379=VECTOR('',#1189,10.);
#380=VECTOR('',#1192,10.);
#381=VECTOR('',#1193,10.);
#382=VECTOR('',#1198,10.);
#383=VECTOR('',#1199,10.);
#384=VECTOR('',#1200,10.);
#385=VECTOR('',#1201,10.);
#386=VECTOR('',#1204,10.);
#387=VECTOR('',#1205,10.);
#388=VECTOR('',#1206,10.);
#389=VECTOR('',#1209,10.);
#390=VECTOR('',#1210,10.);
#391=VECTOR('',#1211,10.);
#392=VECTOR('',#1214,10.);
#393=VECTOR('',#1215,10.);
#394=VECTOR('',#1220,10.);
#395=VECTOR('',#1221,10.);
#396=VECTOR('',#1222,10.);
#397=VECTOR('',#1223,10.);
#398=VECTOR('',#1226,10.);
#399=VECTOR('',#1227,10.);
#400=VECTOR('',#1228,10.);
#401=VECTOR('',#1231,10.);
#402=VECTOR('',#1232,10.);
#403=VECTOR('',#1233,10.);
#404=VECTOR('',#1236,10.);
#405=VECTOR('',#1237,10.);
#406=VECTOR('',#1242,10.);
#407=VECTOR('',#1243,10.);
#408=VECTOR('',#1244,10.);
#409=VECTOR('',#1245,10.);
#410=VECTOR('',#1248,10.);
#411=VECTOR('',#1249,10.);
#412=VECTOR('',#1250,10.);
#413=VECTOR('',#1253,10.);
#414=VECTOR('',#1254,10.);
#415=VECTOR('',#1255,10.);
#416=VECTOR('',#1258,10.);
#417=VECTOR('',#1259,10.);
#418=VECTOR('',#1266,10.);
#419=VECTOR('',#1267,10.);
#420=VECTOR('',#1268,10.);
#421=VECTOR('',#1269,10.);
#422=VECTOR('',#1272,10.);
#423=VECTOR('',#1273,10.);
#424=VECTOR('',#1274,10.);
#425=VECTOR('',#1277,10.);
#426=VECTOR('',#1278,10.);
#427=VECTOR('',#1279,10.);
#428=VECTOR('',#1282,10.);
#429=VECTOR('',#1283,10.);
#430=VECTOR('',#1288,10.);
#431=VECTOR('',#1289,10.);
#432=VECTOR('',#1290,10.);
#433=VECTOR('',#1291,10.);
#434=VECTOR('',#1294,10.);
#435=VECTOR('',#1295,10.);
#436=VECTOR('',#1296,10.);
#437=VECTOR('',#1299,10.);
#438=VECTOR('',#1300,10.);
#439=VECTOR('',#1301,10.);
#440=VECTOR('',#1304,10.);
#441=VECTOR('',#1305,10.);
#442=VECTOR('',#1310,10.);
#443=VECTOR('',#1311,10.);
#444=VECTOR('',#1312,10.);
#445=VECTOR('',#1313,10.);
#446=VECTOR('',#1316,10.);
#447=VECTOR('',#1317,10.);
#448=VECTOR('',#1318,10.);
#449=VECTOR('',#1321,10.);
#450=VECTOR('',#1322,10.);
#451=VECTOR('',#1323,10.);
#452=VECTOR('',#1326,10.);
#453=VECTOR('',#1327,10.);
#454=VECTOR('',#1332,10.);
#455=VECTOR('',#1333,10.);
#456=VECTOR('',#1334,10.);
#457=VECTOR('',#1335,10.);
#458=VECTOR('',#1338,10.);
#459=VECTOR('',#1339,10.);
#460=VECTOR('',#1340,10.);
#461=VECTOR('',#1343,10.);
#462=VECTOR('',#1344,10.);
#463=VECTOR('',#1345,10.);
#464=VECTOR('',#1348,10.);
#465=VECTOR('',#1349,10.);
#466=VECTOR('',#1364,1.675);
#467=VECTOR('',#1369,1.675);
#468=CIRCLE('',#1045,1.675);
#469=CIRCLE('',#1046,1.675);
#470=CIRCLE('',#1048,1.675);
#471=CIRCLE('',#1049,1.675);
#472=CIRCLE('',#1103,1.54824552555341);
#473=CIRCLE('',#1104,1.5);
#474=CIRCLE('',#1105,0.0490750047874322);
#475=CIRCLE('',#1108,1.675);
#476=CIRCLE('',#1110,1.675);
#477=VERTEX_POINT('',#1376);
#478=VERTEX_POINT('',#1378);
#479=VERTEX_POINT('',#1382);
#480=VERTEX_POINT('',#1384);
#481=VERTEX_POINT('',#1388);
#482=VERTEX_POINT('',#1389);
#483=VERTEX_POINT('',#1391);
#484=VERTEX_POINT('',#1393);
#485=VERTEX_POINT('',#1397);
#486=VERTEX_POINT('',#1399);
#487=VERTEX_POINT('',#1403);
#488=VERTEX_POINT('',#1405);
#489=VERTEX_POINT('',#1413);
#490=VERTEX_POINT('',#1414);
#491=VERTEX_POINT('',#1416);
#492=VERTEX_POINT('',#1418);
#493=VERTEX_POINT('',#1422);
#494=VERTEX_POINT('',#1423);
#495=VERTEX_POINT('',#1425);
#496=VERTEX_POINT('',#1427);
#497=VERTEX_POINT('',#1439);
#498=VERTEX_POINT('',#1440);
#499=VERTEX_POINT('',#1442);
#500=VERTEX_POINT('',#1444);
#501=VERTEX_POINT('',#1448);
#502=VERTEX_POINT('',#1450);
#503=VERTEX_POINT('',#1454);
#504=VERTEX_POINT('',#1456);
#505=VERTEX_POINT('',#1464);
#506=VERTEX_POINT('',#1465);
#507=VERTEX_POINT('',#1467);
#508=VERTEX_POINT('',#1469);
#509=VERTEX_POINT('',#1473);
#510=VERTEX_POINT('',#1475);
#511=VERTEX_POINT('',#1479);
#512=VERTEX_POINT('',#1481);
#513=VERTEX_POINT('',#1489);
#514=VERTEX_POINT('',#1490);
#515=VERTEX_POINT('',#1492);
#516=VERTEX_POINT('',#1494);
#517=VERTEX_POINT('',#1498);
#518=VERTEX_POINT('',#1500);
#519=VERTEX_POINT('',#1504);
#520=VERTEX_POINT('',#1506);
#521=VERTEX_POINT('',#1514);
#522=VERTEX_POINT('',#1515);
#523=VERTEX_POINT('',#1517);
#524=VERTEX_POINT('',#1519);
#525=VERTEX_POINT('',#1523);
#526=VERTEX_POINT('',#1525);
#527=VERTEX_POINT('',#1529);
#528=VERTEX_POINT('',#1531);
#529=VERTEX_POINT('',#1540);
#530=VERTEX_POINT('',#1541);
#531=VERTEX_POINT('',#1543);
#532=VERTEX_POINT('',#1545);
#533=VERTEX_POINT('',#1549);
#534=VERTEX_POINT('',#1551);
#535=VERTEX_POINT('',#1555);
#536=VERTEX_POINT('',#1557);
#537=VERTEX_POINT('',#1565);
#538=VERTEX_POINT('',#1566);
#539=VERTEX_POINT('',#1568);
#540=VERTEX_POINT('',#1570);
#541=VERTEX_POINT('',#1574);
#542=VERTEX_POINT('',#1576);
#543=VERTEX_POINT('',#1580);
#544=VERTEX_POINT('',#1582);
#545=VERTEX_POINT('',#1590);
#546=VERTEX_POINT('',#1591);
#547=VERTEX_POINT('',#1593);
#548=VERTEX_POINT('',#1595);
#549=VERTEX_POINT('',#1599);
#550=VERTEX_POINT('',#1601);
#551=VERTEX_POINT('',#1605);
#552=VERTEX_POINT('',#1607);
#553=VERTEX_POINT('',#1615);
#554=VERTEX_POINT('',#1616);
#555=VERTEX_POINT('',#1618);
#556=VERTEX_POINT('',#1620);
#557=VERTEX_POINT('',#1624);
#558=VERTEX_POINT('',#1626);
#559=VERTEX_POINT('',#1630);
#560=VERTEX_POINT('',#1632);
#561=VERTEX_POINT('',#1667);
#562=VERTEX_POINT('',#1669);
#563=VERTEX_POINT('',#1674);
#564=VERTEX_POINT('',#1678);
#565=EDGE_CURVE('',#477,#477,#468,.T.);
#566=EDGE_CURVE('',#477,#478,#220,.T.);
#567=EDGE_CURVE('',#478,#478,#469,.T.);
#568=EDGE_CURVE('',#479,#479,#470,.T.);
#569=EDGE_CURVE('',#479,#480,#221,.T.);
#570=EDGE_CURVE('',#480,#480,#471,.T.);
#571=EDGE_CURVE('',#481,#482,#222,.T.);
#572=EDGE_CURVE('',#481,#483,#223,.T.);
#573=EDGE_CURVE('',#484,#483,#224,.T.);
#574=EDGE_CURVE('',#482,#484,#225,.T.);
#575=EDGE_CURVE('',#482,#485,#226,.T.);
#576=EDGE_CURVE('',#486,#484,#227,.T.);
#577=EDGE_CURVE('',#485,#486,#228,.T.);
#578=EDGE_CURVE('',#485,#487,#229,.T.);
#579=EDGE_CURVE('',#488,#486,#230,.T.);
#580=EDGE_CURVE('',#487,#488,#231,.T.);
#581=EDGE_CURVE('',#487,#481,#232,.T.);
#582=EDGE_CURVE('',#483,#488,#233,.T.);
#583=EDGE_CURVE('',#489,#490,#234,.T.);
#584=EDGE_CURVE('',#490,#491,#235,.T.);
#585=EDGE_CURVE('',#491,#492,#236,.T.);
#586=EDGE_CURVE('',#492,#489,#237,.T.);
#587=EDGE_CURVE('',#493,#494,#238,.T.);
#588=EDGE_CURVE('',#494,#495,#239,.T.);
#589=EDGE_CURVE('',#495,#496,#240,.T.);
#590=EDGE_CURVE('',#496,#493,#241,.T.);
#591=EDGE_CURVE('',#492,#495,#242,.T.);
#592=EDGE_CURVE('',#489,#494,#243,.T.);
#593=EDGE_CURVE('',#491,#496,#244,.T.);
#594=EDGE_CURVE('',#490,#493,#245,.T.);
#595=EDGE_CURVE('',#497,#498,#246,.T.);
#596=EDGE_CURVE('',#497,#499,#247,.T.);
#597=EDGE_CURVE('',#499,#500,#248,.T.);
#598=EDGE_CURVE('',#498,#500,#249,.T.);
#599=EDGE_CURVE('',#501,#497,#250,.T.);
#600=EDGE_CURVE('',#501,#502,#251,.T.);
#601=EDGE_CURVE('',#502,#499,#252,.T.);
#602=EDGE_CURVE('',#503,#501,#253,.T.);
#603=EDGE_CURVE('',#503,#504,#254,.T.);
#604=EDGE_CURVE('',#504,#502,#255,.T.);
#605=EDGE_CURVE('',#498,#503,#256,.T.);
#606=EDGE_CURVE('',#500,#504,#257,.T.);
#607=EDGE_CURVE('',#505,#506,#258,.T.);
#608=EDGE_CURVE('',#505,#507,#259,.T.);
#609=EDGE_CURVE('',#507,#508,#260,.T.);
#610=EDGE_CURVE('',#506,#508,#261,.T.);
#611=EDGE_CURVE('',#509,#505,#262,.T.);
#612=EDGE_CURVE('',#509,#510,#263,.T.);
#613=EDGE_CURVE('',#510,#507,#264,.T.);
#614=EDGE_CURVE('',#511,#509,#265,.T.);
#615=EDGE_CURVE('',#511,#512,#266,.T.);
#616=EDGE_CURVE('',#512,#510,#267,.T.);
#617=EDGE_CURVE('',#506,#511,#268,.T.);
#618=EDGE_CURVE('',#508,#512,#269,.T.);
#619=EDGE_CURVE('',#513,#514,#270,.T.);
#620=EDGE_CURVE('',#513,#515,#271,.T.);
#621=EDGE_CURVE('',#515,#516,#272,.T.);
#622=EDGE_CURVE('',#514,#516,#273,.T.);
#623=EDGE_CURVE('',#517,#513,#274,.T.);
#624=EDGE_CURVE('',#517,#518,#275,.T.);
#625=EDGE_CURVE('',#518,#515,#276,.T.);
#626=EDGE_CURVE('',#519,#517,#277,.T.);
#627=EDGE_CURVE('',#519,#520,#278,.T.);
#628=EDGE_CURVE('',#520,#518,#279,.T.);
#629=EDGE_CURVE('',#514,#519,#280,.T.);
#630=EDGE_CURVE('',#516,#520,#281,.T.);
#631=EDGE_CURVE('',#521,#522,#282,.T.);
#632=EDGE_CURVE('',#522,#523,#283,.T.);
#633=EDGE_CURVE('',#524,#523,#284,.T.);
#634=EDGE_CURVE('',#521,#524,#285,.T.);
#635=EDGE_CURVE('',#525,#521,#286,.T.);
#636=EDGE_CURVE('',#526,#524,#287,.T.);
#637=EDGE_CURVE('',#525,#526,#288,.T.);
#638=EDGE_CURVE('',#527,#525,#289,.T.);
#639=EDGE_CURVE('',#528,#526,#290,.T.);
#640=EDGE_CURVE('',#527,#528,#291,.T.);
#641=EDGE_CURVE('',#522,#527,#292,.T.);
#642=EDGE_CURVE('',#523,#528,#293,.T.);
#643=EDGE_CURVE('',#529,#530,#294,.T.);
#644=EDGE_CURVE('',#530,#531,#295,.T.);
#645=EDGE_CURVE('',#532,#531,#296,.T.);
#646=EDGE_CURVE('',#529,#532,#297,.T.);
#647=EDGE_CURVE('',#533,#529,#298,.T.);
#648=EDGE_CURVE('',#534,#532,#299,.T.);
#649=EDGE_CURVE('',#533,#534,#300,.T.);
#650=EDGE_CURVE('',#535,#533,#301,.T.);
#651=EDGE_CURVE('',#536,#534,#302,.T.);
#652=EDGE_CURVE('',#535,#536,#303,.T.);
#653=EDGE_CURVE('',#530,#535,#304,.T.);
#654=EDGE_CURVE('',#531,#536,#305,.T.);
#655=EDGE_CURVE('',#537,#538,#306,.T.);
#656=EDGE_CURVE('',#538,#539,#307,.T.);
#657=EDGE_CURVE('',#540,#539,#308,.T.);
#658=EDGE_CURVE('',#537,#540,#309,.T.);
#659=EDGE_CURVE('',#541,#537,#310,.T.);
#660=EDGE_CURVE('',#542,#540,#311,.T.);
#661=EDGE_CURVE('',#541,#542,#312,.T.);
#662=EDGE_CURVE('',#543,#541,#313,.T.);
#663=EDGE_CURVE('',#544,#542,#314,.T.);
#664=EDGE_CURVE('',#543,#544,#315,.T.);
#665=EDGE_CURVE('',#538,#543,#316,.T.);
#666=EDGE_CURVE('',#539,#544,#317,.T.);
#667=EDGE_CURVE('',#545,#546,#318,.T.);
#668=EDGE_CURVE('',#546,#547,#319,.T.);
#669=EDGE_CURVE('',#548,#547,#320,.T.);
#670=EDGE_CURVE('',#545,#548,#321,.T.);
#671=EDGE_CURVE('',#549,#545,#322,.T.);
#672=EDGE_CURVE('',#550,#548,#323,.T.);
#673=EDGE_CURVE('',#549,#550,#324,.T.);
#674=EDGE_CURVE('',#551,#549,#325,.T.);
#675=EDGE_CURVE('',#552,#550,#326,.T.);
#676=EDGE_CURVE('',#551,#552,#327,.T.);
#677=EDGE_CURVE('',#546,#551,#328,.T.);
#678=EDGE_CURVE('',#547,#552,#329,.T.);
#679=EDGE_CURVE('',#553,#554,#330,.T.);
#680=EDGE_CURVE('',#553,#555,#331,.T.);
#681=EDGE_CURVE('',#555,#556,#332,.T.);
#682=EDGE_CURVE('',#554,#556,#333,.T.);
#683=EDGE_CURVE('',#557,#553,#334,.T.);
#684=EDGE_CURVE('',#557,#558,#335,.T.);
#685=EDGE_CURVE('',#558,#555,#336,.T.);
#686=EDGE_CURVE('',#559,#557,#337,.T.);
#687=EDGE_CURVE('',#559,#560,#338,.T.);
#688=EDGE_CURVE('',#560,#558,#339,.T.);
#689=EDGE_CURVE('',#554,#559,#340,.T.);
#690=EDGE_CURVE('',#556,#560,#341,.T.);
#691=EDGE_CURVE('',#561,#561,#472,.T.);
#692=EDGE_CURVE('',#561,#562,#473,.T.);
#693=EDGE_CURVE('',#562,#562,#474,.T.);
#694=EDGE_CURVE('',#561,#563,#342,.T.);
#695=EDGE_CURVE('',#563,#563,#475,.T.);
#696=EDGE_CURVE('',#563,#564,#343,.T.);
#697=EDGE_CURVE('',#564,#564,#476,.T.);
#698=ORIENTED_EDGE('',*,*,#565,.F.);
#699=ORIENTED_EDGE('',*,*,#566,.T.);
#700=ORIENTED_EDGE('',*,*,#567,.F.);
#701=ORIENTED_EDGE('',*,*,#566,.F.);
#702=ORIENTED_EDGE('',*,*,#568,.F.);
#703=ORIENTED_EDGE('',*,*,#569,.T.);
#704=ORIENTED_EDGE('',*,*,#570,.F.);
#705=ORIENTED_EDGE('',*,*,#569,.F.);
#706=ORIENTED_EDGE('',*,*,#571,.F.);
#707=ORIENTED_EDGE('',*,*,#572,.T.);
#708=ORIENTED_EDGE('',*,*,#573,.F.);
#709=ORIENTED_EDGE('',*,*,#574,.F.);
#710=ORIENTED_EDGE('',*,*,#575,.F.);
#711=ORIENTED_EDGE('',*,*,#574,.T.);
#712=ORIENTED_EDGE('',*,*,#576,.F.);
#713=ORIENTED_EDGE('',*,*,#577,.F.);
#714=ORIENTED_EDGE('',*,*,#578,.F.);
#715=ORIENTED_EDGE('',*,*,#577,.T.);
#716=ORIENTED_EDGE('',*,*,#579,.F.);
#717=ORIENTED_EDGE('',*,*,#580,.F.);
#718=ORIENTED_EDGE('',*,*,#581,.F.);
#719=ORIENTED_EDGE('',*,*,#580,.T.);
#720=ORIENTED_EDGE('',*,*,#582,.F.);
#721=ORIENTED_EDGE('',*,*,#572,.F.);
#722=ORIENTED_EDGE('',*,*,#582,.T.);
#723=ORIENTED_EDGE('',*,*,#579,.T.);
#724=ORIENTED_EDGE('',*,*,#576,.T.);
#725=ORIENTED_EDGE('',*,*,#573,.T.);
#726=ORIENTED_EDGE('',*,*,#583,.T.);
#727=ORIENTED_EDGE('',*,*,#584,.T.);
#728=ORIENTED_EDGE('',*,*,#585,.T.);
#729=ORIENTED_EDGE('',*,*,#586,.T.);
#730=ORIENTED_EDGE('',*,*,#565,.T.);
#731=ORIENTED_EDGE('',*,*,#568,.T.);
#732=ORIENTED_EDGE('',*,*,#571,.T.);
#733=ORIENTED_EDGE('',*,*,#575,.T.);
#734=ORIENTED_EDGE('',*,*,#578,.T.);
#735=ORIENTED_EDGE('',*,*,#581,.T.);
#736=ORIENTED_EDGE('',*,*,#587,.T.);
#737=ORIENTED_EDGE('',*,*,#588,.T.);
#738=ORIENTED_EDGE('',*,*,#589,.T.);
#739=ORIENTED_EDGE('',*,*,#590,.T.);
#740=ORIENTED_EDGE('',*,*,#567,.T.);
#741=ORIENTED_EDGE('',*,*,#570,.T.);
#742=ORIENTED_EDGE('',*,*,#591,.T.);
#743=ORIENTED_EDGE('',*,*,#588,.F.);
#744=ORIENTED_EDGE('',*,*,#592,.F.);
#745=ORIENTED_EDGE('',*,*,#586,.F.);
#746=ORIENTED_EDGE('',*,*,#593,.T.);
#747=ORIENTED_EDGE('',*,*,#589,.F.);
#748=ORIENTED_EDGE('',*,*,#591,.F.);
#749=ORIENTED_EDGE('',*,*,#585,.F.);
#750=ORIENTED_EDGE('',*,*,#594,.T.);
#751=ORIENTED_EDGE('',*,*,#590,.F.);
#752=ORIENTED_EDGE('',*,*,#593,.F.);
#753=ORIENTED_EDGE('',*,*,#584,.F.);
#754=ORIENTED_EDGE('',*,*,#592,.T.);
#755=ORIENTED_EDGE('',*,*,#587,.F.);
#756=ORIENTED_EDGE('',*,*,#594,.F.);
#757=ORIENTED_EDGE('',*,*,#583,.F.);
#758=ORIENTED_EDGE('',*,*,#595,.F.);
#759=ORIENTED_EDGE('',*,*,#596,.T.);
#760=ORIENTED_EDGE('',*,*,#597,.T.);
#761=ORIENTED_EDGE('',*,*,#598,.F.);
#762=ORIENTED_EDGE('',*,*,#599,.F.);
#763=ORIENTED_EDGE('',*,*,#600,.T.);
#764=ORIENTED_EDGE('',*,*,#601,.T.);
#765=ORIENTED_EDGE('',*,*,#596,.F.);
#766=ORIENTED_EDGE('',*,*,#602,.F.);
#767=ORIENTED_EDGE('',*,*,#603,.T.);
#768=ORIENTED_EDGE('',*,*,#604,.T.);
#769=ORIENTED_EDGE('',*,*,#600,.F.);
#770=ORIENTED_EDGE('',*,*,#605,.F.);
#771=ORIENTED_EDGE('',*,*,#598,.T.);
#772=ORIENTED_EDGE('',*,*,#606,.T.);
#773=ORIENTED_EDGE('',*,*,#603,.F.);
#774=ORIENTED_EDGE('',*,*,#606,.F.);
#775=ORIENTED_EDGE('',*,*,#597,.F.);
#776=ORIENTED_EDGE('',*,*,#601,.F.);
#777=ORIENTED_EDGE('',*,*,#604,.F.);
#778=ORIENTED_EDGE('',*,*,#607,.F.);
#779=ORIENTED_EDGE('',*,*,#608,.T.);
#780=ORIENTED_EDGE('',*,*,#609,.T.);
#781=ORIENTED_EDGE('',*,*,#610,.F.);
#782=ORIENTED_EDGE('',*,*,#611,.F.);
#783=ORIENTED_EDGE('',*,*,#612,.T.);
#784=ORIENTED_EDGE('',*,*,#613,.T.);
#785=ORIENTED_EDGE('',*,*,#608,.F.);
#786=ORIENTED_EDGE('',*,*,#614,.F.);
#787=ORIENTED_EDGE('',*,*,#615,.T.);
#788=ORIENTED_EDGE('',*,*,#616,.T.);
#789=ORIENTED_EDGE('',*,*,#612,.F.);
#790=ORIENTED_EDGE('',*,*,#617,.F.);
#791=ORIENTED_EDGE('',*,*,#610,.T.);
#792=ORIENTED_EDGE('',*,*,#618,.T.);
#793=ORIENTED_EDGE('',*,*,#615,.F.);
#794=ORIENTED_EDGE('',*,*,#618,.F.);
#795=ORIENTED_EDGE('',*,*,#609,.F.);
#796=ORIENTED_EDGE('',*,*,#613,.F.);
#797=ORIENTED_EDGE('',*,*,#616,.F.);
#798=ORIENTED_EDGE('',*,*,#619,.F.);
#799=ORIENTED_EDGE('',*,*,#620,.T.);
#800=ORIENTED_EDGE('',*,*,#621,.T.);
#801=ORIENTED_EDGE('',*,*,#622,.F.);
#802=ORIENTED_EDGE('',*,*,#623,.F.);
#803=ORIENTED_EDGE('',*,*,#624,.T.);
#804=ORIENTED_EDGE('',*,*,#625,.T.);
#805=ORIENTED_EDGE('',*,*,#620,.F.);
#806=ORIENTED_EDGE('',*,*,#626,.F.);
#807=ORIENTED_EDGE('',*,*,#627,.T.);
#808=ORIENTED_EDGE('',*,*,#628,.T.);
#809=ORIENTED_EDGE('',*,*,#624,.F.);
#810=ORIENTED_EDGE('',*,*,#629,.F.);
#811=ORIENTED_EDGE('',*,*,#622,.T.);
#812=ORIENTED_EDGE('',*,*,#630,.T.);
#813=ORIENTED_EDGE('',*,*,#627,.F.);
#814=ORIENTED_EDGE('',*,*,#630,.F.);
#815=ORIENTED_EDGE('',*,*,#621,.F.);
#816=ORIENTED_EDGE('',*,*,#625,.F.);
#817=ORIENTED_EDGE('',*,*,#628,.F.);
#818=ORIENTED_EDGE('',*,*,#631,.T.);
#819=ORIENTED_EDGE('',*,*,#632,.T.);
#820=ORIENTED_EDGE('',*,*,#633,.F.);
#821=ORIENTED_EDGE('',*,*,#634,.F.);
#822=ORIENTED_EDGE('',*,*,#635,.T.);
#823=ORIENTED_EDGE('',*,*,#634,.T.);
#824=ORIENTED_EDGE('',*,*,#636,.F.);
#825=ORIENTED_EDGE('',*,*,#637,.F.);
#826=ORIENTED_EDGE('',*,*,#638,.T.);
#827=ORIENTED_EDGE('',*,*,#637,.T.);
#828=ORIENTED_EDGE('',*,*,#639,.F.);
#829=ORIENTED_EDGE('',*,*,#640,.F.);
#830=ORIENTED_EDGE('',*,*,#641,.T.);
#831=ORIENTED_EDGE('',*,*,#640,.T.);
#832=ORIENTED_EDGE('',*,*,#642,.F.);
#833=ORIENTED_EDGE('',*,*,#632,.F.);
#834=ORIENTED_EDGE('',*,*,#595,.T.);
#835=ORIENTED_EDGE('',*,*,#605,.T.);
#836=ORIENTED_EDGE('',*,*,#602,.T.);
#837=ORIENTED_EDGE('',*,*,#599,.T.);
#838=ORIENTED_EDGE('',*,*,#607,.T.);
#839=ORIENTED_EDGE('',*,*,#617,.T.);
#840=ORIENTED_EDGE('',*,*,#614,.T.);
#841=ORIENTED_EDGE('',*,*,#611,.T.);
#842=ORIENTED_EDGE('',*,*,#619,.T.);
#843=ORIENTED_EDGE('',*,*,#629,.T.);
#844=ORIENTED_EDGE('',*,*,#626,.T.);
#845=ORIENTED_EDGE('',*,*,#623,.T.);
#846=ORIENTED_EDGE('',*,*,#642,.T.);
#847=ORIENTED_EDGE('',*,*,#639,.T.);
#848=ORIENTED_EDGE('',*,*,#636,.T.);
#849=ORIENTED_EDGE('',*,*,#633,.T.);
#850=ORIENTED_EDGE('',*,*,#641,.F.);
#851=ORIENTED_EDGE('',*,*,#631,.F.);
#852=ORIENTED_EDGE('',*,*,#635,.F.);
#853=ORIENTED_EDGE('',*,*,#638,.F.);
#854=ORIENTED_EDGE('',*,*,#643,.T.);
#855=ORIENTED_EDGE('',*,*,#644,.T.);
#856=ORIENTED_EDGE('',*,*,#645,.F.);
#857=ORIENTED_EDGE('',*,*,#646,.F.);
#858=ORIENTED_EDGE('',*,*,#647,.T.);
#859=ORIENTED_EDGE('',*,*,#646,.T.);
#860=ORIENTED_EDGE('',*,*,#648,.F.);
#861=ORIENTED_EDGE('',*,*,#649,.F.);
#862=ORIENTED_EDGE('',*,*,#650,.T.);
#863=ORIENTED_EDGE('',*,*,#649,.T.);
#864=ORIENTED_EDGE('',*,*,#651,.F.);
#865=ORIENTED_EDGE('',*,*,#652,.F.);
#866=ORIENTED_EDGE('',*,*,#653,.T.);
#867=ORIENTED_EDGE('',*,*,#652,.T.);
#868=ORIENTED_EDGE('',*,*,#654,.F.);
#869=ORIENTED_EDGE('',*,*,#644,.F.);
#870=ORIENTED_EDGE('',*,*,#654,.T.);
#871=ORIENTED_EDGE('',*,*,#651,.T.);
#872=ORIENTED_EDGE('',*,*,#648,.T.);
#873=ORIENTED_EDGE('',*,*,#645,.T.);
#874=ORIENTED_EDGE('',*,*,#655,.T.);
#875=ORIENTED_EDGE('',*,*,#656,.T.);
#876=ORIENTED_EDGE('',*,*,#657,.F.);
#877=ORIENTED_EDGE('',*,*,#658,.F.);
#878=ORIENTED_EDGE('',*,*,#659,.T.);
#879=ORIENTED_EDGE('',*,*,#658,.T.);
#880=ORIENTED_EDGE('',*,*,#660,.F.);
#881=ORIENTED_EDGE('',*,*,#661,.F.);
#882=ORIENTED_EDGE('',*,*,#662,.T.);
#883=ORIENTED_EDGE('',*,*,#661,.T.);
#884=ORIENTED_EDGE('',*,*,#663,.F.);
#885=ORIENTED_EDGE('',*,*,#664,.F.);
#886=ORIENTED_EDGE('',*,*,#665,.T.);
#887=ORIENTED_EDGE('',*,*,#664,.T.);
#888=ORIENTED_EDGE('',*,*,#666,.F.);
#889=ORIENTED_EDGE('',*,*,#656,.F.);
#890=ORIENTED_EDGE('',*,*,#666,.T.);
#891=ORIENTED_EDGE('',*,*,#663,.T.);
#892=ORIENTED_EDGE('',*,*,#660,.T.);
#893=ORIENTED_EDGE('',*,*,#657,.T.);
#894=ORIENTED_EDGE('',*,*,#667,.T.);
#895=ORIENTED_EDGE('',*,*,#668,.T.);
#896=ORIENTED_EDGE('',*,*,#669,.F.);
#897=ORIENTED_EDGE('',*,*,#670,.F.);
#898=ORIENTED_EDGE('',*,*,#671,.T.);
#899=ORIENTED_EDGE('',*,*,#670,.T.);
#900=ORIENTED_EDGE('',*,*,#672,.F.);
#901=ORIENTED_EDGE('',*,*,#673,.F.);
#902=ORIENTED_EDGE('',*,*,#674,.T.);
#903=ORIENTED_EDGE('',*,*,#673,.T.);
#904=ORIENTED_EDGE('',*,*,#675,.F.);
#905=ORIENTED_EDGE('',*,*,#676,.F.);
#906=ORIENTED_EDGE('',*,*,#677,.T.);
#907=ORIENTED_EDGE('',*,*,#676,.T.);
#908=ORIENTED_EDGE('',*,*,#678,.F.);
#909=ORIENTED_EDGE('',*,*,#668,.F.);
#910=ORIENTED_EDGE('',*,*,#678,.T.);
#911=ORIENTED_EDGE('',*,*,#675,.T.);
#912=ORIENTED_EDGE('',*,*,#672,.T.);
#913=ORIENTED_EDGE('',*,*,#669,.T.);
#914=ORIENTED_EDGE('',*,*,#679,.F.);
#915=ORIENTED_EDGE('',*,*,#680,.T.);
#916=ORIENTED_EDGE('',*,*,#681,.T.);
#917=ORIENTED_EDGE('',*,*,#682,.F.);
#918=ORIENTED_EDGE('',*,*,#683,.F.);
#919=ORIENTED_EDGE('',*,*,#684,.T.);
#920=ORIENTED_EDGE('',*,*,#685,.T.);
#921=ORIENTED_EDGE('',*,*,#680,.F.);
#922=ORIENTED_EDGE('',*,*,#686,.F.);
#923=ORIENTED_EDGE('',*,*,#687,.T.);
#924=ORIENTED_EDGE('',*,*,#688,.T.);
#925=ORIENTED_EDGE('',*,*,#684,.F.);
#926=ORIENTED_EDGE('',*,*,#689,.F.);
#927=ORIENTED_EDGE('',*,*,#682,.T.);
#928=ORIENTED_EDGE('',*,*,#690,.T.);
#929=ORIENTED_EDGE('',*,*,#687,.F.);
#930=ORIENTED_EDGE('',*,*,#643,.F.);
#931=ORIENTED_EDGE('',*,*,#647,.F.);
#932=ORIENTED_EDGE('',*,*,#650,.F.);
#933=ORIENTED_EDGE('',*,*,#653,.F.);
#934=ORIENTED_EDGE('',*,*,#655,.F.);
#935=ORIENTED_EDGE('',*,*,#659,.F.);
#936=ORIENTED_EDGE('',*,*,#662,.F.);
#937=ORIENTED_EDGE('',*,*,#665,.F.);
#938=ORIENTED_EDGE('',*,*,#667,.F.);
#939=ORIENTED_EDGE('',*,*,#671,.F.);
#940=ORIENTED_EDGE('',*,*,#674,.F.);
#941=ORIENTED_EDGE('',*,*,#677,.F.);
#942=ORIENTED_EDGE('',*,*,#690,.F.);
#943=ORIENTED_EDGE('',*,*,#681,.F.);
#944=ORIENTED_EDGE('',*,*,#685,.F.);
#945=ORIENTED_EDGE('',*,*,#688,.F.);
#946=ORIENTED_EDGE('',*,*,#689,.T.);
#947=ORIENTED_EDGE('',*,*,#686,.T.);
#948=ORIENTED_EDGE('',*,*,#683,.T.);
#949=ORIENTED_EDGE('',*,*,#679,.T.);
#950=ORIENTED_EDGE('',*,*,#691,.T.);
#951=ORIENTED_EDGE('',*,*,#692,.T.);
#952=ORIENTED_EDGE('',*,*,#693,.T.);
#953=ORIENTED_EDGE('',*,*,#692,.F.);
#954=ORIENTED_EDGE('',*,*,#693,.F.);
#955=ORIENTED_EDGE('',*,*,#691,.F.);
#956=ORIENTED_EDGE('',*,*,#694,.T.);
#957=ORIENTED_EDGE('',*,*,#695,.T.);
#958=ORIENTED_EDGE('',*,*,#694,.F.);
#959=ORIENTED_EDGE('',*,*,#695,.F.);
#960=ORIENTED_EDGE('',*,*,#696,.T.);
#961=ORIENTED_EDGE('',*,*,#697,.T.);
#962=ORIENTED_EDGE('',*,*,#696,.F.);
#963=ORIENTED_EDGE('',*,*,#697,.F.);
#964=CYLINDRICAL_SURFACE('',#1044,1.675);
#965=CYLINDRICAL_SURFACE('',#1047,1.675);
#966=CYLINDRICAL_SURFACE('',#1109,1.675);
#967=ADVANCED_FACE('',(#89),#964,.F.);
#968=ADVANCED_FACE('',(#90),#965,.F.);
#969=ADVANCED_FACE('',(#91),#34,.T.);
#970=ADVANCED_FACE('',(#92),#35,.T.);
#971=ADVANCED_FACE('',(#93),#36,.T.);
#972=ADVANCED_FACE('',(#94),#37,.T.);
#973=ADVANCED_FACE('',(#95),#38,.T.);
#974=ADVANCED_FACE('',(#96,#23,#24,#25),#39,.T.);
#975=ADVANCED_FACE('',(#97,#26,#27),#40,.F.);
#976=ADVANCED_FACE('',(#98),#41,.F.);
#977=ADVANCED_FACE('',(#99),#42,.F.);
#978=ADVANCED_FACE('',(#100),#43,.F.);
#979=ADVANCED_FACE('',(#101),#44,.F.);
#980=ADVANCED_FACE('',(#102),#45,.F.);
#981=ADVANCED_FACE('',(#103),#46,.F.);
#982=ADVANCED_FACE('',(#104),#47,.F.);
#983=ADVANCED_FACE('',(#105),#48,.F.);
#984=ADVANCED_FACE('',(#106),#49,.F.);
#985=ADVANCED_FACE('',(#107),#50,.F.);
#986=ADVANCED_FACE('',(#108),#51,.F.);
#987=ADVANCED_FACE('',(#109),#52,.F.);
#988=ADVANCED_FACE('',(#110),#53,.F.);
#989=ADVANCED_FACE('',(#111),#54,.F.);
#990=ADVANCED_FACE('',(#112),#55,.F.);
#991=ADVANCED_FACE('',(#113),#56,.F.);
#992=ADVANCED_FACE('',(#114),#57,.F.);
#993=ADVANCED_FACE('',(#115),#58,.F.);
#994=ADVANCED_FACE('',(#116),#59,.F.);
#995=ADVANCED_FACE('',(#117),#60,.T.);
#996=ADVANCED_FACE('',(#118),#61,.T.);
#997=ADVANCED_FACE('',(#119),#62,.T.);
#998=ADVANCED_FACE('',(#120,#28,#29,#30),#63,.T.);
#999=ADVANCED_FACE('',(#121),#64,.T.);
#1000=ADVANCED_FACE('',(#122),#65,.F.);
#1001=ADVANCED_FACE('',(#123),#66,.T.);
#1002=ADVANCED_FACE('',(#124),#67,.T.);
#1003=ADVANCED_FACE('',(#125),#68,.T.);
#1004=ADVANCED_FACE('',(#126),#69,.T.);
#1005=ADVANCED_FACE('',(#127),#70,.T.);
#1006=ADVANCED_FACE('',(#128),#71,.T.);
#1007=ADVANCED_FACE('',(#129),#72,.T.);
#1008=ADVANCED_FACE('',(#130),#73,.T.);
#1009=ADVANCED_FACE('',(#131),#74,.T.);
#1010=ADVANCED_FACE('',(#132),#75,.T.);
#1011=ADVANCED_FACE('',(#133),#76,.T.);
#1012=ADVANCED_FACE('',(#134),#77,.T.);
#1013=ADVANCED_FACE('',(#135),#78,.T.);
#1014=ADVANCED_FACE('',(#136),#79,.T.);
#1015=ADVANCED_FACE('',(#137),#80,.T.);
#1016=ADVANCED_FACE('',(#138),#81,.F.);
#1017=ADVANCED_FACE('',(#139),#82,.F.);
#1018=ADVANCED_FACE('',(#140),#83,.F.);
#1019=ADVANCED_FACE('',(#141,#31,#32,#33),#84,.F.);
#1020=ADVANCED_FACE('',(#142),#85,.F.);
#1021=ADVANCED_FACE('',(#143),#86,.T.);
#1022=ADVANCED_FACE('',(#144),#14,.F.);
#1023=ADVANCED_FACE('',(#145),#87,.F.);
#1024=ADVANCED_FACE('',(#146),#13,.T.);
#1025=ADVANCED_FACE('',(#147),#966,.T.);
#1026=ADVANCED_FACE('',(#148),#88,.F.);
#1027=CLOSED_SHELL('',(#967,#968,#969,#970,#971,#972,#973,#974,#975,#976,
#977,#978,#979));
#1028=CLOSED_SHELL('',(#980,#981,#982,#983,#984,#985,#986,#987,#988,#989,
#990,#991,#992,#993,#994,#995,#996,#997,#998,#999,#1000));
#1029=CLOSED_SHELL('',(#1001,#1002,#1003,#1004,#1005,#1006,#1007,#1008,
#1009,#1010,#1011,#1012,#1013,#1014,#1015,#1016,#1017,#1018,#1019,#1020,
#1021));
#1030=CLOSED_SHELL('',(#1022,#1023,#1024,#1025,#1026));
#1031=DERIVED_UNIT_ELEMENT(#1033,1.);
#1032=DERIVED_UNIT_ELEMENT(#1687,-3.);
#1033=(
MASS_UNIT()
NAMED_UNIT(*)
SI_UNIT(.KILO.,.GRAM.)
);
#1034=DERIVED_UNIT((#1031,#1032));
#1035=MEASURE_REPRESENTATION_ITEM('density measure',
POSITIVE_RATIO_MEASURE(7850.),#1034);
#1036=PROPERTY_DEFINITION_REPRESENTATION(#1041,#1038);
#1037=PROPERTY_DEFINITION_REPRESENTATION(#1042,#1039);
#1038=REPRESENTATION('material name',(#1040),#1684);
#1039=REPRESENTATION('density',(#1035),#1684);
#1040=DESCRIPTIVE_REPRESENTATION_ITEM('\X2\94A2\X0\','\X2\94A2\X0\');
#1041=PROPERTY_DEFINITION('material property','material name',#1694);
#1042=PROPERTY_DEFINITION('material property','density of part',#1694);
#1043=AXIS2_PLACEMENT_3D('',#1374,#1112,#1113);
#1044=AXIS2_PLACEMENT_3D('',#1375,#1114,#1115);
#1045=AXIS2_PLACEMENT_3D('',#1377,#1116,#1117);
#1046=AXIS2_PLACEMENT_3D('',#1380,#1119,#1120);
#1047=AXIS2_PLACEMENT_3D('',#1381,#1121,#1122);
#1048=AXIS2_PLACEMENT_3D('',#1383,#1123,#1124);
#1049=AXIS2_PLACEMENT_3D('',#1386,#1126,#1127);
#1050=AXIS2_PLACEMENT_3D('',#1387,#1128,#1129);
#1051=AXIS2_PLACEMENT_3D('',#1396,#1134,#1135);
#1052=AXIS2_PLACEMENT_3D('',#1402,#1139,#1140);
#1053=AXIS2_PLACEMENT_3D('',#1408,#1144,#1145);
#1054=AXIS2_PLACEMENT_3D('',#1411,#1148,#1149);
#1055=AXIS2_PLACEMENT_3D('',#1412,#1150,#1151);
#1056=AXIS2_PLACEMENT_3D('',#1421,#1156,#1157);
#1057=AXIS2_PLACEMENT_3D('',#1430,#1162,#1163);
#1058=AXIS2_PLACEMENT_3D('',#1433,#1166,#1167);
#1059=AXIS2_PLACEMENT_3D('',#1435,#1169,#1170);
#1060=AXIS2_PLACEMENT_3D('',#1437,#1172,#1173);
#1061=AXIS2_PLACEMENT_3D('',#1438,#1174,#1175);
#1062=AXIS2_PLACEMENT_3D('',#1447,#1180,#1181);
#1063=AXIS2_PLACEMENT_3D('',#1453,#1185,#1186);
#1064=AXIS2_PLACEMENT_3D('',#1459,#1190,#1191);
#1065=AXIS2_PLACEMENT_3D('',#1462,#1194,#1195);
#1066=AXIS2_PLACEMENT_3D('',#1463,#1196,#1197);
#1067=AXIS2_PLACEMENT_3D('',#1472,#1202,#1203);
#1068=AXIS2_PLACEMENT_3D('',#1478,#1207,#1208);
#1069=AXIS2_PLACEMENT_3D('',#1484,#1212,#1213);
#1070=AXIS2_PLACEMENT_3D('',#1487,#1216,#1217);
#1071=AXIS2_PLACEMENT_3D('',#1488,#1218,#1219);
#1072=AXIS2_PLACEMENT_3D('',#1497,#1224,#1225);
#1073=AXIS2_PLACEMENT_3D('',#1503,#1229,#1230);
#1074=AXIS2_PLACEMENT_3D('',#1509,#1234,#1235);
#1075=AXIS2_PLACEMENT_3D('',#1512,#1238,#1239);
#1076=AXIS2_PLACEMENT_3D('',#1513,#1240,#1241);
#1077=AXIS2_PLACEMENT_3D('',#1522,#1246,#1247);
#1078=AXIS2_PLACEMENT_3D('',#1528,#1251,#1252);
#1079=AXIS2_PLACEMENT_3D('',#1534,#1256,#1257);
#1080=AXIS2_PLACEMENT_3D('',#1537,#1260,#1261);
#1081=AXIS2_PLACEMENT_3D('',#1538,#1262,#1263);
#1082=AXIS2_PLACEMENT_3D('',#1539,#1264,#1265);
#1083=AXIS2_PLACEMENT_3D('',#1548,#1270,#1271);
#1084=AXIS2_PLACEMENT_3D('',#1554,#1275,#1276);
#1085=AXIS2_PLACEMENT_3D('',#1560,#1280,#1281);
#1086=AXIS2_PLACEMENT_3D('',#1563,#1284,#1285);
#1087=AXIS2_PLACEMENT_3D('',#1564,#1286,#1287);
#1088=AXIS2_PLACEMENT_3D('',#1573,#1292,#1293);
#1089=AXIS2_PLACEMENT_3D('',#1579,#1297,#1298);
#1090=AXIS2_PLACEMENT_3D('',#1585,#1302,#1303);
#1091=AXIS2_PLACEMENT_3D('',#1588,#1306,#1307);
#1092=AXIS2_PLACEMENT_3D('',#1589,#1308,#1309);
#1093=AXIS2_PLACEMENT_3D('',#1598,#1314,#1315);
#1094=AXIS2_PLACEMENT_3D('',#1604,#1319,#1320);
#1095=AXIS2_PLACEMENT_3D('',#1610,#1324,#1325);
#1096=AXIS2_PLACEMENT_3D('',#1613,#1328,#1329);
#1097=AXIS2_PLACEMENT_3D('',#1614,#1330,#1331);
#1098=AXIS2_PLACEMENT_3D('',#1623,#1336,#1337);
#1099=AXIS2_PLACEMENT_3D('',#1629,#1341,#1342);
#1100=AXIS2_PLACEMENT_3D('',#1635,#1346,#1347);
#1101=AXIS2_PLACEMENT_3D('',#1638,#1350,#1351);
#1102=AXIS2_PLACEMENT_3D('',#1639,#1352,#1353);
#1103=AXIS2_PLACEMENT_3D('',#1668,#1354,#1355);
#1104=AXIS2_PLACEMENT_3D('',#1670,#1356,#1357);
#1105=AXIS2_PLACEMENT_3D('',#1671,#1358,#1359);
#1106=AXIS2_PLACEMENT_3D('',#1672,#1360,#1361);
#1107=AXIS2_PLACEMENT_3D('',#1673,#1362,#1363);
#1108=AXIS2_PLACEMENT_3D('',#1676,#1365,#1366);
#1109=AXIS2_PLACEMENT_3D('',#1677,#1367,#1368);
#1110=AXIS2_PLACEMENT_3D('',#1680,#1370,#1371);
#1111=AXIS2_PLACEMENT_3D('',#1681,#1372,#1373);
#1112=DIRECTION('axis',(0.,0.,1.));
#1113=DIRECTION('refdir',(1.,0.,0.));
#1114=DIRECTION('center_axis',(0.,0.,-1.));
#1115=DIRECTION('ref_axis',(-1.,0.,0.));
#1116=DIRECTION('center_axis',(0.,0.,-1.));
#1117=DIRECTION('ref_axis',(-1.,0.,0.));
#1118=DIRECTION('',(0.,0.,-1.));
#1119=DIRECTION('center_axis',(0.,0.,1.));
#1120=DIRECTION('ref_axis',(-1.,0.,0.));
#1121=DIRECTION('center_axis',(0.,0.,-1.));
#1122=DIRECTION('ref_axis',(-1.,0.,0.));
#1123=DIRECTION('center_axis',(0.,0.,-1.));
#1124=DIRECTION('ref_axis',(-1.,0.,0.));
#1125=DIRECTION('',(0.,0.,-1.));
#1126=DIRECTION('center_axis',(0.,0.,1.));
#1127=DIRECTION('ref_axis',(-1.,0.,0.));
#1128=DIRECTION('center_axis',(0.,1.,0.));
#1129=DIRECTION('ref_axis',(-1.,0.,0.));
#1130=DIRECTION('',(1.,0.,0.));
#1131=DIRECTION('',(0.,0.,1.));
#1132=DIRECTION('',(-1.,0.,0.));
#1133=DIRECTION('',(0.,0.,1.));
#1134=DIRECTION('center_axis',(1.,0.,0.));
#1135=DIRECTION('ref_axis',(0.,1.,0.));
#1136=DIRECTION('',(0.,-1.,0.));
#1137=DIRECTION('',(0.,1.,0.));
#1138=DIRECTION('',(0.,0.,1.));
#1139=DIRECTION('center_axis',(0.,-1.,0.));
#1140=DIRECTION('ref_axis',(1.,0.,0.));
#1141=DIRECTION('',(-1.,0.,0.));
#1142=DIRECTION('',(1.,0.,0.));
#1143=DIRECTION('',(0.,0.,1.));
#1144=DIRECTION('center_axis',(-1.,0.,0.));
#1145=DIRECTION('ref_axis',(0.,-1.,0.));
#1146=DIRECTION('',(0.,1.,0.));
#1147=DIRECTION('',(0.,-1.,0.));
#1148=DIRECTION('center_axis',(0.,0.,1.));
#1149=DIRECTION('ref_axis',(1.,0.,0.));
#1150=DIRECTION('center_axis',(0.,0.,1.));
#1151=DIRECTION('ref_axis',(0.,1.,0.));
#1152=DIRECTION('',(-1.,0.,0.));
#1153=DIRECTION('',(0.,-1.,0.));
#1154=DIRECTION('',(1.,0.,0.));
#1155=DIRECTION('',(0.,1.,0.));
#1156=DIRECTION('center_axis',(0.,0.,1.));
#1157=DIRECTION('ref_axis',(0.,1.,0.));
#1158=DIRECTION('',(1.,0.,0.));
#1159=DIRECTION('',(0.,-1.,0.));
#1160=DIRECTION('',(-1.,0.,0.));
#1161=DIRECTION('',(0.,1.,0.));
#1162=DIRECTION('center_axis',(-1.,0.,0.));
#1163=DIRECTION('ref_axis',(0.,0.,1.));
#1164=DIRECTION('',(0.,0.,-1.));
#1165=DIRECTION('',(0.,0.,-1.));
#1166=DIRECTION('center_axis',(0.,1.,0.));
#1167=DIRECTION('ref_axis',(0.,0.,-1.));
#1168=DIRECTION('',(0.,0.,-1.));
#1169=DIRECTION('center_axis',(1.,0.,0.));
#1170=DIRECTION('ref_axis',(0.,0.,-1.));
#1171=DIRECTION('',(0.,0.,-1.));
#1172=DIRECTION('center_axis',(0.,-1.,0.));
#1173=DIRECTION('ref_axis',(0.,0.,1.));
#1174=DIRECTION('center_axis',(0.,0.,-1.));
#1175=DIRECTION('ref_axis',(0.,-1.,0.));
#1176=DIRECTION('',(0.,-1.,0.));
#1177=DIRECTION('',(-1.,0.,0.));
#1178=DIRECTION('',(0.,-1.,0.));
#1179=DIRECTION('',(-1.,0.,0.));
#1180=DIRECTION('center_axis',(0.,1.,0.));
#1181=DIRECTION('ref_axis',(0.,0.,-1.));
#1182=DIRECTION('',(0.,0.,-1.));
#1183=DIRECTION('',(-1.,0.,0.));
#1184=DIRECTION('',(0.,0.,-1.));
#1185=DIRECTION('center_axis',(0.,0.,1.));
#1186=DIRECTION('ref_axis',(0.,1.,0.));
#1187=DIRECTION('',(0.,1.,0.));
#1188=DIRECTION('',(-1.,0.,0.));
#1189=DIRECTION('',(0.,1.,0.));
#1190=DIRECTION('center_axis',(0.,-1.,0.));
#1191=DIRECTION('ref_axis',(0.,0.,1.));
#1192=DIRECTION('',(0.,0.,1.));
#1193=DIRECTION('',(0.,0.,1.));
#1194=DIRECTION('center_axis',(-1.,0.,0.));
#1195=DIRECTION('ref_axis',(0.,0.,1.));
#1196=DIRECTION('center_axis',(0.,1.,0.));
#1197=DIRECTION('ref_axis',(0.,0.,-1.));
#1198=DIRECTION('',(0.,0.,-1.));
#1199=DIRECTION('',(-1.,0.,0.));
#1200=DIRECTION('',(0.,0.,-1.));
#1201=DIRECTION('',(-1.,0.,0.));
#1202=DIRECTION('center_axis',(0.,0.,1.));
#1203=DIRECTION('ref_axis',(0.,1.,0.));
#1204=DIRECTION('',(0.,1.,0.));
#1205=DIRECTION('',(-1.,0.,0.));
#1206=DIRECTION('',(0.,1.,0.));
#1207=DIRECTION('center_axis',(0.,-1.,0.));
#1208=DIRECTION('ref_axis',(0.,0.,1.));
#1209=DIRECTION('',(0.,0.,1.));
#1210=DIRECTION('',(-1.,0.,0.));
#1211=DIRECTION('',(0.,0.,1.));
#1212=DIRECTION('center_axis',(0.,0.,-1.));
#1213=DIRECTION('ref_axis',(0.,-1.,0.));
#1214=DIRECTION('',(0.,-1.,0.));
#1215=DIRECTION('',(0.,-1.,0.));
#1216=DIRECTION('center_axis',(-1.,0.,0.));
#1217=DIRECTION('ref_axis',(0.,0.,1.));
#1218=DIRECTION('center_axis',(0.,1.,0.));
#1219=DIRECTION('ref_axis',(0.,0.,-1.));
#1220=DIRECTION('',(0.,0.,-1.));
#1221=DIRECTION('',(-1.,0.,0.));
#1222=DIRECTION('',(0.,0.,-1.));
#1223=DIRECTION('',(-1.,0.,0.));
#1224=DIRECTION('center_axis',(0.,0.,1.));
#1225=DIRECTION('ref_axis',(0.,1.,0.));
#1226=DIRECTION('',(0.,1.,0.));
#1227=DIRECTION('',(-1.,0.,0.));
#1228=DIRECTION('',(0.,1.,0.));
#1229=DIRECTION('center_axis',(0.,-1.,0.));
#1230=DIRECTION('ref_axis',(0.,0.,1.));
#1231=DIRECTION('',(0.,0.,1.));
#1232=DIRECTION('',(-1.,0.,0.));
#1233=DIRECTION('',(0.,0.,1.));
#1234=DIRECTION('center_axis',(0.,0.,-1.));
#1235=DIRECTION('ref_axis',(0.,-1.,0.));
#1236=DIRECTION('',(0.,-1.,0.));
#1237=DIRECTION('',(0.,-1.,0.));
#1238=DIRECTION('center_axis',(-1.,0.,0.));
#1239=DIRECTION('ref_axis',(0.,0.,1.));
#1240=DIRECTION('center_axis',(0.,-1.,0.));
#1241=DIRECTION('ref_axis',(1.,0.,0.));
#1242=DIRECTION('',(1.,0.,0.));
#1243=DIRECTION('',(0.,0.,1.));
#1244=DIRECTION('',(1.,0.,0.));
#1245=DIRECTION('',(0.,0.,1.));
#1246=DIRECTION('center_axis',(-1.,0.,0.));
#1247=DIRECTION('ref_axis',(0.,-1.,0.));
#1248=DIRECTION('',(0.,-1.,0.));
#1249=DIRECTION('',(0.,-1.,0.));
#1250=DIRECTION('',(0.,0.,1.));
#1251=DIRECTION('center_axis',(0.,1.,0.));
#1252=DIRECTION('ref_axis',(-1.,0.,0.));
#1253=DIRECTION('',(-1.,0.,0.));
#1254=DIRECTION('',(-1.,0.,0.));
#1255=DIRECTION('',(0.,0.,1.));
#1256=DIRECTION('center_axis',(1.,0.,0.));
#1257=DIRECTION('ref_axis',(0.,1.,0.));
#1258=DIRECTION('',(0.,1.,0.));
#1259=DIRECTION('',(0.,1.,0.));
#1260=DIRECTION('center_axis',(0.,0.,1.));
#1261=DIRECTION('ref_axis',(1.,0.,0.));
#1262=DIRECTION('center_axis',(0.,0.,1.));
#1263=DIRECTION('ref_axis',(-1.,0.,0.));
#1264=DIRECTION('center_axis',(0.,0.,1.));
#1265=DIRECTION('ref_axis',(0.,-1.,0.));
#1266=DIRECTION('',(0.,-1.,0.));
#1267=DIRECTION('',(1.,0.,0.));
#1268=DIRECTION('',(0.,-1.,0.));
#1269=DIRECTION('',(1.,0.,0.));
#1270=DIRECTION('center_axis',(0.,-1.,0.));
#1271=DIRECTION('ref_axis',(0.,0.,-1.));
#1272=DIRECTION('',(0.,0.,-1.));
#1273=DIRECTION('',(0.,0.,-1.));
#1274=DIRECTION('',(1.,0.,0.));
#1275=DIRECTION('center_axis',(0.,0.,-1.));
#1276=DIRECTION('ref_axis',(0.,1.,0.));
#1277=DIRECTION('',(0.,1.,0.));
#1278=DIRECTION('',(0.,1.,0.));
#1279=DIRECTION('',(1.,0.,0.));
#1280=DIRECTION('center_axis',(0.,1.,0.));
#1281=DIRECTION('ref_axis',(0.,0.,1.));
#1282=DIRECTION('',(0.,0.,1.));
#1283=DIRECTION('',(0.,0.,1.));
#1284=DIRECTION('center_axis',(-1.,0.,0.));
#1285=DIRECTION('ref_axis',(0.,0.,1.));
#1286=DIRECTION('center_axis',(0.,-1.,0.));
#1287=DIRECTION('ref_axis',(0.,0.,-1.));
#1288=DIRECTION('',(0.,0.,-1.));
#1289=DIRECTION('',(1.,0.,0.));
#1290=DIRECTION('',(0.,0.,-1.));
#1291=DIRECTION('',(1.,0.,0.));
#1292=DIRECTION('center_axis',(0.,0.,-1.));
#1293=DIRECTION('ref_axis',(0.,1.,0.));
#1294=DIRECTION('',(0.,1.,0.));
#1295=DIRECTION('',(0.,1.,0.));
#1296=DIRECTION('',(1.,0.,0.));
#1297=DIRECTION('center_axis',(0.,1.,0.));
#1298=DIRECTION('ref_axis',(0.,0.,1.));
#1299=DIRECTION('',(0.,0.,1.));
#1300=DIRECTION('',(0.,0.,1.));
#1301=DIRECTION('',(1.,0.,0.));
#1302=DIRECTION('center_axis',(0.,0.,1.));
#1303=DIRECTION('ref_axis',(0.,-1.,0.));
#1304=DIRECTION('',(0.,-1.,0.));
#1305=DIRECTION('',(0.,-1.,0.));
#1306=DIRECTION('center_axis',(-1.,0.,0.));
#1307=DIRECTION('ref_axis',(0.,0.,1.));
#1308=DIRECTION('center_axis',(0.,-1.,0.));
#1309=DIRECTION('ref_axis',(0.,0.,-1.));
#1310=DIRECTION('',(0.,0.,-1.));
#1311=DIRECTION('',(1.,0.,0.));
#1312=DIRECTION('',(0.,0.,-1.));
#1313=DIRECTION('',(1.,0.,0.));
#1314=DIRECTION('center_axis',(0.,0.,-1.));
#1315=DIRECTION('ref_axis',(0.,1.,0.));
#1316=DIRECTION('',(0.,1.,0.));
#1317=DIRECTION('',(0.,1.,0.));
#1318=DIRECTION('',(1.,0.,0.));
#1319=DIRECTION('center_axis',(0.,1.,0.));
#1320=DIRECTION('ref_axis',(0.,0.,1.));
#1321=DIRECTION('',(0.,0.,1.));
#1322=DIRECTION('',(0.,0.,1.));
#1323=DIRECTION('',(1.,0.,0.));
#1324=DIRECTION('center_axis',(0.,0.,1.));
#1325=DIRECTION('ref_axis',(0.,-1.,0.));
#1326=DIRECTION('',(0.,-1.,0.));
#1327=DIRECTION('',(0.,-1.,0.));
#1328=DIRECTION('center_axis',(-1.,0.,0.));
#1329=DIRECTION('ref_axis',(0.,0.,1.));
#1330=DIRECTION('center_axis',(0.,1.,0.));
#1331=DIRECTION('ref_axis',(-1.,0.,0.));
#1332=DIRECTION('',(-1.,0.,0.));
#1333=DIRECTION('',(0.,0.,1.));
#1334=DIRECTION('',(-1.,0.,0.));
#1335=DIRECTION('',(0.,0.,1.));
#1336=DIRECTION('center_axis',(-1.,0.,0.));
#1337=DIRECTION('ref_axis',(0.,-1.,0.));
#1338=DIRECTION('',(0.,-1.,0.));
#1339=DIRECTION('',(0.,0.,1.));
#1340=DIRECTION('',(0.,-1.,0.));
#1341=DIRECTION('center_axis',(0.,-1.,0.));
#1342=DIRECTION('ref_axis',(1.,0.,0.));
#1343=DIRECTION('',(1.,0.,0.));
#1344=DIRECTION('',(0.,0.,1.));
#1345=DIRECTION('',(1.,0.,0.));
#1346=DIRECTION('center_axis',(1.,0.,0.));
#1347=DIRECTION('ref_axis',(0.,1.,0.));
#1348=DIRECTION('',(0.,1.,0.));
#1349=DIRECTION('',(0.,1.,0.));
#1350=DIRECTION('center_axis',(0.,0.,-1.));
#1351=DIRECTION('ref_axis',(-1.,0.,0.));
#1352=DIRECTION('center_axis',(0.,0.,-1.));
#1353=DIRECTION('ref_axis',(1.,0.,0.));
#1354=DIRECTION('center_axis',(0.,0.,1.));
#1355=DIRECTION('ref_axis',(-1.,0.,0.));
#1356=DIRECTION('center_axis',(0.,-1.,0.));
#1357=DIRECTION('ref_axis',(1.,0.,0.));
#1358=DIRECTION('center_axis',(0.,0.,-1.));
#1359=DIRECTION('ref_axis',(-1.,0.,0.));
#1360=DIRECTION('center_axis',(0.,0.,-1.));
#1361=DIRECTION('ref_axis',(-1.,0.,0.));
#1362=DIRECTION('center_axis',(0.,0.,-1.));
#1363=DIRECTION('ref_axis',(-1.,0.,0.));
#1364=DIRECTION('',(0.0332515641488017,4.07214216014729E-18,-0.999447013843985));
#1365=DIRECTION('center_axis',(0.,0.,1.));
#1366=DIRECTION('ref_axis',(-1.,0.,0.));
#1367=DIRECTION('center_axis',(0.,0.,1.));
#1368=DIRECTION('ref_axis',(-1.,0.,0.));
#1369=DIRECTION('',(0.,0.,-1.));
#1370=DIRECTION('center_axis',(0.,0.,1.));
#1371=DIRECTION('ref_axis',(-1.,0.,0.));
#1372=DIRECTION('center_axis',(0.,0.,1.));
#1373=DIRECTION('ref_axis',(-1.,0.,0.));
#1374=CARTESIAN_POINT('',(0.,0.,0.));
#1375=CARTESIAN_POINT('Origin',(68.914999999972,3.72500000002769,8.89));
#1376=CARTESIAN_POINT('',(70.589999999972,3.72500000002769,8.89));
#1377=CARTESIAN_POINT('Origin',(68.914999999972,3.72500000002769,8.89));
#1378=CARTESIAN_POINT('',(70.589999999972,3.72500000002769,0.));
#1379=CARTESIAN_POINT('',(70.589999999972,3.72500000002769,8.89));
#1380=CARTESIAN_POINT('Origin',(68.914999999972,3.72500000002769,0.));
#1381=CARTESIAN_POINT('Origin',(6.90500000002803,27.3849999999723,8.89));
#1382=CARTESIAN_POINT('',(8.58000000002803,27.3849999999723,8.89));
#1383=CARTESIAN_POINT('Origin',(6.90500000002803,27.3849999999723,8.89));
#1384=CARTESIAN_POINT('',(8.58000000002803,27.3849999999723,0.));
#1385=CARTESIAN_POINT('',(8.58000000002803,27.3849999999723,8.89));
#1386=CARTESIAN_POINT('Origin',(6.90500000002803,27.3849999999723,0.));
#1387=CARTESIAN_POINT('Origin',(63.23,28.36,8.89));
#1388=CARTESIAN_POINT('',(12.59,28.36,8.89));
#1389=CARTESIAN_POINT('',(63.23,28.36,8.89));
#1390=CARTESIAN_POINT('',(50.57,28.36,8.89));
#1391=CARTESIAN_POINT('',(12.59,28.36,20.75));
#1392=CARTESIAN_POINT('',(12.59,28.36,8.89));
#1393=CARTESIAN_POINT('',(63.23,28.36,20.75));
#1394=CARTESIAN_POINT('',(63.23,28.36,20.75));
#1395=CARTESIAN_POINT('',(63.23,28.36,8.89));
#1396=CARTESIAN_POINT('Origin',(63.23,2.75,8.89));
#1397=CARTESIAN_POINT('',(63.23,2.75,8.89));
#1398=CARTESIAN_POINT('',(63.23,9.1525,8.89));
#1399=CARTESIAN_POINT('',(63.23,2.75,20.75));
#1400=CARTESIAN_POINT('',(63.23,2.75,20.75));
#1401=CARTESIAN_POINT('',(63.23,2.75,8.89));
#1402=CARTESIAN_POINT('Origin',(12.59,2.75,8.89));
#1403=CARTESIAN_POINT('',(12.59,2.75,8.89));
#1404=CARTESIAN_POINT('',(25.25,2.75,8.89));
#1405=CARTESIAN_POINT('',(12.59,2.75,20.75));
#1406=CARTESIAN_POINT('',(12.59,2.75,20.75));
#1407=CARTESIAN_POINT('',(12.59,2.75,8.89));
#1408=CARTESIAN_POINT('Origin',(12.59,28.36,8.89));
#1409=CARTESIAN_POINT('',(12.59,21.9575,8.89));
#1410=CARTESIAN_POINT('',(12.59,28.36,20.75));
#1411=CARTESIAN_POINT('Origin',(37.91,15.555,20.75));
#1412=CARTESIAN_POINT('Origin',(37.91,15.555,8.89));
#1413=CARTESIAN_POINT('',(75.82,31.11,8.89));
#1414=CARTESIAN_POINT('',(0.,31.11,8.89));
#1415=CARTESIAN_POINT('',(37.91,31.11,8.89));
#1416=CARTESIAN_POINT('',(0.,0.,8.89));
#1417=CARTESIAN_POINT('',(0.,15.555,8.89));
#1418=CARTESIAN_POINT('',(75.82,0.,8.89));
#1419=CARTESIAN_POINT('',(37.91,0.,8.89));
#1420=CARTESIAN_POINT('',(75.82,15.555,8.89));
#1421=CARTESIAN_POINT('Origin',(37.91,15.555,0.));
#1422=CARTESIAN_POINT('',(0.,31.11,0.));
#1423=CARTESIAN_POINT('',(75.82,31.11,0.));
#1424=CARTESIAN_POINT('',(37.91,31.11,0.));
#1425=CARTESIAN_POINT('',(75.82,0.,0.));
#1426=CARTESIAN_POINT('',(75.82,15.555,0.));
#1427=CARTESIAN_POINT('',(0.,0.,0.));
#1428=CARTESIAN_POINT('',(37.91,0.,0.));
#1429=CARTESIAN_POINT('',(0.,15.555,0.));
#1430=CARTESIAN_POINT('Origin',(75.82,15.555,4.445));
#1431=CARTESIAN_POINT('',(75.82,0.,4.445));
#1432=CARTESIAN_POINT('',(75.82,31.11,4.445));
#1433=CARTESIAN_POINT('Origin',(37.91,0.,4.445));
#1434=CARTESIAN_POINT('',(0.,0.,4.445));
#1435=CARTESIAN_POINT('Origin',(0.,15.555,4.445));
#1436=CARTESIAN_POINT('',(0.,31.11,4.445));
#1437=CARTESIAN_POINT('Origin',(37.91,31.11,4.445));
#1438=CARTESIAN_POINT('Origin',(75.82,12.11,9.35));
#1439=CARTESIAN_POINT('',(75.82,12.11,9.35));
#1440=CARTESIAN_POINT('',(75.82,9.45,9.35));
#1441=CARTESIAN_POINT('',(75.82,9.885,9.35));
#1442=CARTESIAN_POINT('',(69.82,12.11,9.35));
#1443=CARTESIAN_POINT('',(75.82,12.11,9.35));
#1444=CARTESIAN_POINT('',(69.82,9.45,9.35));
#1445=CARTESIAN_POINT('',(69.82,9.45,9.35));
#1446=CARTESIAN_POINT('',(75.82,9.45,9.35));
#1447=CARTESIAN_POINT('Origin',(75.82,12.11,14.5));
#1448=CARTESIAN_POINT('',(75.82,12.11,14.5));
#1449=CARTESIAN_POINT('',(75.82,12.11,11.695));
#1450=CARTESIAN_POINT('',(69.82,12.11,14.5));
#1451=CARTESIAN_POINT('',(75.82,12.11,14.5));
#1452=CARTESIAN_POINT('',(69.82,12.11,9.35));
#1453=CARTESIAN_POINT('Origin',(75.82,9.45,14.5));
#1454=CARTESIAN_POINT('',(75.82,9.45,14.5));
#1455=CARTESIAN_POINT('',(75.82,8.555,14.5));
#1456=CARTESIAN_POINT('',(69.82,9.45,14.5));
#1457=CARTESIAN_POINT('',(75.82,9.45,14.5));
#1458=CARTESIAN_POINT('',(69.82,12.11,14.5));
#1459=CARTESIAN_POINT('Origin',(75.82,9.45,9.35));
#1460=CARTESIAN_POINT('',(75.82,9.45,9.12));
#1461=CARTESIAN_POINT('',(69.82,9.45,14.5));
#1462=CARTESIAN_POINT('Origin',(69.82,10.78,11.925));
#1463=CARTESIAN_POINT('Origin',(75.82,16.885,14.5));
#1464=CARTESIAN_POINT('',(75.82,16.885,14.5));
#1465=CARTESIAN_POINT('',(75.82,16.885,9.35));
#1466=CARTESIAN_POINT('',(75.82,16.885,11.695));
#1467=CARTESIAN_POINT('',(69.82,16.885,14.5));
#1468=CARTESIAN_POINT('',(75.82,16.885,14.5));
#1469=CARTESIAN_POINT('',(69.82,16.885,9.35));
#1470=CARTESIAN_POINT('',(69.82,16.885,9.35));
#1471=CARTESIAN_POINT('',(75.82,16.885,9.35));
#1472=CARTESIAN_POINT('Origin',(75.82,14.225,14.5));
#1473=CARTESIAN_POINT('',(75.82,14.225,14.5));
#1474=CARTESIAN_POINT('',(75.82,10.9425,14.5));
#1475=CARTESIAN_POINT('',(69.82,14.225,14.5));
#1476=CARTESIAN_POINT('',(75.82,14.225,14.5));
#1477=CARTESIAN_POINT('',(69.82,16.885,14.5));
#1478=CARTESIAN_POINT('Origin',(75.82,14.225,9.35));
#1479=CARTESIAN_POINT('',(75.82,14.225,9.35));
#1480=CARTESIAN_POINT('',(75.82,14.225,9.12));
#1481=CARTESIAN_POINT('',(69.82,14.225,9.35));
#1482=CARTESIAN_POINT('',(75.82,14.225,9.35));
#1483=CARTESIAN_POINT('',(69.82,14.225,14.5));
#1484=CARTESIAN_POINT('Origin',(75.82,16.885,9.35));
#1485=CARTESIAN_POINT('',(75.82,12.2725,9.35));
#1486=CARTESIAN_POINT('',(69.82,14.225,9.35));
#1487=CARTESIAN_POINT('Origin',(69.82,15.555,11.925));
#1488=CARTESIAN_POINT('Origin',(75.82,21.66,14.5));
#1489=CARTESIAN_POINT('',(75.82,21.66,14.5));
#1490=CARTESIAN_POINT('',(75.82,21.66,9.35));
#1491=CARTESIAN_POINT('',(75.82,21.66,11.695));
#1492=CARTESIAN_POINT('',(69.82,21.66,14.5));
#1493=CARTESIAN_POINT('',(75.82,21.66,14.5));
#1494=CARTESIAN_POINT('',(69.82,21.66,9.35));
#1495=CARTESIAN_POINT('',(69.82,21.66,9.35));
#1496=CARTESIAN_POINT('',(75.82,21.66,9.35));
#1497=CARTESIAN_POINT('Origin',(75.82,19.,14.5));
#1498=CARTESIAN_POINT('',(75.82,19.,14.5));
#1499=CARTESIAN_POINT('',(75.82,13.33,14.5));
#1500=CARTESIAN_POINT('',(69.82,19.,14.5));
#1501=CARTESIAN_POINT('',(75.82,19.,14.5));
#1502=CARTESIAN_POINT('',(69.82,21.66,14.5));
#1503=CARTESIAN_POINT('Origin',(75.82,19.,9.35));
#1504=CARTESIAN_POINT('',(75.82,19.,9.35));
#1505=CARTESIAN_POINT('',(75.82,19.,9.12));
#1506=CARTESIAN_POINT('',(69.82,19.,9.35));
#1507=CARTESIAN_POINT('',(75.82,19.,9.35));
#1508=CARTESIAN_POINT('',(69.82,19.,14.5));
#1509=CARTESIAN_POINT('Origin',(75.82,21.66,9.35));
#1510=CARTESIAN_POINT('',(75.82,14.66,9.35));
#1511=CARTESIAN_POINT('',(69.82,19.,9.35));
#1512=CARTESIAN_POINT('Origin',(69.82,20.33,11.925));
#1513=CARTESIAN_POINT('Origin',(65.18,7.66,8.89));
#1514=CARTESIAN_POINT('',(65.18,7.66,8.89));
#1515=CARTESIAN_POINT('',(75.82,7.66,8.89));
#1516=CARTESIAN_POINT('',(65.18,7.66,8.89));
#1517=CARTESIAN_POINT('',(75.82,7.66,21.52));
#1518=CARTESIAN_POINT('',(75.82,7.66,8.89));
#1519=CARTESIAN_POINT('',(65.18,7.66,21.52));
#1520=CARTESIAN_POINT('',(65.18,7.66,21.52));
#1521=CARTESIAN_POINT('',(65.18,7.66,8.89));
#1522=CARTESIAN_POINT('Origin',(65.18,23.45,8.89));
#1523=CARTESIAN_POINT('',(65.18,23.45,8.89));
#1524=CARTESIAN_POINT('',(65.18,23.45,8.89));
#1525=CARTESIAN_POINT('',(65.18,23.45,21.52));
#1526=CARTESIAN_POINT('',(65.18,23.45,21.52));
#1527=CARTESIAN_POINT('',(65.18,23.45,8.89));
#1528=CARTESIAN_POINT('Origin',(75.82,23.45,8.89));
#1529=CARTESIAN_POINT('',(75.82,23.45,8.89));
#1530=CARTESIAN_POINT('',(75.82,23.45,8.89));
#1531=CARTESIAN_POINT('',(75.82,23.45,21.52));
#1532=CARTESIAN_POINT('',(75.82,23.45,21.52));
#1533=CARTESIAN_POINT('',(75.82,23.45,8.89));
#1534=CARTESIAN_POINT('Origin',(75.82,7.66,8.89));
#1535=CARTESIAN_POINT('',(75.82,7.66,8.89));
#1536=CARTESIAN_POINT('',(75.82,7.66,21.52));
#1537=CARTESIAN_POINT('Origin',(70.5,15.555,21.52));
#1538=CARTESIAN_POINT('Origin',(70.5,15.555,8.89));
#1539=CARTESIAN_POINT('Origin',(0.,12.11,9.35));
#1540=CARTESIAN_POINT('',(0.,12.11,9.35));
#1541=CARTESIAN_POINT('',(0.,9.45,9.35));
#1542=CARTESIAN_POINT('',(0.,9.885,9.35));
#1543=CARTESIAN_POINT('',(6.00000000000001,9.45,9.35));
#1544=CARTESIAN_POINT('',(0.,9.45,9.35));
#1545=CARTESIAN_POINT('',(6.00000000000001,12.11,9.35));
#1546=CARTESIAN_POINT('',(6.00000000000001,9.45,9.35));
#1547=CARTESIAN_POINT('',(0.,12.11,9.35));
#1548=CARTESIAN_POINT('Origin',(0.,12.11,14.5));
#1549=CARTESIAN_POINT('',(0.,12.11,14.5));
#1550=CARTESIAN_POINT('',(0.,12.11,11.695));
#1551=CARTESIAN_POINT('',(6.00000000000001,12.11,14.5));
#1552=CARTESIAN_POINT('',(6.00000000000001,12.11,9.35));
#1553=CARTESIAN_POINT('',(0.,12.11,14.5));
#1554=CARTESIAN_POINT('Origin',(0.,9.45,14.5));
#1555=CARTESIAN_POINT('',(0.,9.45,14.5));
#1556=CARTESIAN_POINT('',(0.,8.555,14.5));
#1557=CARTESIAN_POINT('',(6.00000000000001,9.45,14.5));
#1558=CARTESIAN_POINT('',(6.00000000000001,12.11,14.5));
#1559=CARTESIAN_POINT('',(0.,9.45,14.5));
#1560=CARTESIAN_POINT('Origin',(0.,9.45,9.35));
#1561=CARTESIAN_POINT('',(0.,9.45,9.12));
#1562=CARTESIAN_POINT('',(6.00000000000001,9.45,14.5));
#1563=CARTESIAN_POINT('Origin',(6.00000000000001,10.78,11.925));
#1564=CARTESIAN_POINT('Origin',(0.,16.885,14.5));
#1565=CARTESIAN_POINT('',(0.,16.885,14.5));
#1566=CARTESIAN_POINT('',(0.,16.885,9.35));
#1567=CARTESIAN_POINT('',(0.,16.885,11.695));
#1568=CARTESIAN_POINT('',(6.00000000000001,16.885,9.35));
#1569=CARTESIAN_POINT('',(0.,16.885,9.35));
#1570=CARTESIAN_POINT('',(6.00000000000001,16.885,14.5));
#1571=CARTESIAN_POINT('',(6.00000000000001,16.885,9.35));
#1572=CARTESIAN_POINT('',(0.,16.885,14.5));
#1573=CARTESIAN_POINT('Origin',(0.,14.225,14.5));
#1574=CARTESIAN_POINT('',(0.,14.225,14.5));
#1575=CARTESIAN_POINT('',(0.,10.9425,14.5));
#1576=CARTESIAN_POINT('',(6.00000000000001,14.225,14.5));
#1577=CARTESIAN_POINT('',(6.00000000000001,16.885,14.5));
#1578=CARTESIAN_POINT('',(0.,14.225,14.5));
#1579=CARTESIAN_POINT('Origin',(0.,14.225,9.35));
#1580=CARTESIAN_POINT('',(0.,14.225,9.35));
#1581=CARTESIAN_POINT('',(0.,14.225,9.12));
#1582=CARTESIAN_POINT('',(6.00000000000001,14.225,9.35));
#1583=CARTESIAN_POINT('',(6.00000000000001,14.225,14.5));
#1584=CARTESIAN_POINT('',(0.,14.225,9.35));
#1585=CARTESIAN_POINT('Origin',(0.,16.885,9.35));
#1586=CARTESIAN_POINT('',(0.,12.2725,9.35));
#1587=CARTESIAN_POINT('',(6.00000000000001,14.225,9.35));
#1588=CARTESIAN_POINT('Origin',(6.00000000000001,15.555,11.925));
#1589=CARTESIAN_POINT('Origin',(0.,21.66,14.5));
#1590=CARTESIAN_POINT('',(0.,21.66,14.5));
#1591=CARTESIAN_POINT('',(0.,21.66,9.35));
#1592=CARTESIAN_POINT('',(0.,21.66,11.695));
#1593=CARTESIAN_POINT('',(6.00000000000001,21.66,9.35));
#1594=CARTESIAN_POINT('',(0.,21.66,9.35));
#1595=CARTESIAN_POINT('',(6.00000000000001,21.66,14.5));
#1596=CARTESIAN_POINT('',(6.00000000000001,21.66,9.35));
#1597=CARTESIAN_POINT('',(0.,21.66,14.5));
#1598=CARTESIAN_POINT('Origin',(0.,19.,14.5));
#1599=CARTESIAN_POINT('',(0.,19.,14.5));
#1600=CARTESIAN_POINT('',(0.,13.33,14.5));
#1601=CARTESIAN_POINT('',(6.00000000000001,19.,14.5));
#1602=CARTESIAN_POINT('',(6.00000000000001,21.66,14.5));
#1603=CARTESIAN_POINT('',(0.,19.,14.5));
#1604=CARTESIAN_POINT('Origin',(0.,19.,9.35));
#1605=CARTESIAN_POINT('',(0.,19.,9.35));
#1606=CARTESIAN_POINT('',(0.,19.,9.12));
#1607=CARTESIAN_POINT('',(6.00000000000001,19.,9.35));
#1608=CARTESIAN_POINT('',(6.00000000000001,19.,14.5));
#1609=CARTESIAN_POINT('',(0.,19.,9.35));
#1610=CARTESIAN_POINT('Origin',(0.,21.66,9.35));
#1611=CARTESIAN_POINT('',(0.,14.66,9.35));
#1612=CARTESIAN_POINT('',(6.00000000000001,19.,9.35));
#1613=CARTESIAN_POINT('Origin',(6.00000000000001,20.33,11.925));
#1614=CARTESIAN_POINT('Origin',(10.64,7.66,8.89));
#1615=CARTESIAN_POINT('',(10.64,7.66,8.89));
#1616=CARTESIAN_POINT('',(0.,7.66,8.89));
#1617=CARTESIAN_POINT('',(10.64,7.66,8.89));
#1618=CARTESIAN_POINT('',(10.64,7.66,21.52));
#1619=CARTESIAN_POINT('',(10.64,7.66,8.89));
#1620=CARTESIAN_POINT('',(0.,7.66,21.52));
#1621=CARTESIAN_POINT('',(10.64,7.66,21.52));
#1622=CARTESIAN_POINT('',(0.,7.66,8.89));
#1623=CARTESIAN_POINT('Origin',(10.64,23.45,8.89));
#1624=CARTESIAN_POINT('',(10.64,23.45,8.89));
#1625=CARTESIAN_POINT('',(10.64,23.45,8.89));
#1626=CARTESIAN_POINT('',(10.64,23.45,21.52));
#1627=CARTESIAN_POINT('',(10.64,23.45,8.89));
#1628=CARTESIAN_POINT('',(10.64,23.45,21.52));
#1629=CARTESIAN_POINT('Origin',(0.,23.45,8.89));
#1630=CARTESIAN_POINT('',(0.,23.45,8.89));
#1631=CARTESIAN_POINT('',(0.,23.45,8.89));
#1632=CARTESIAN_POINT('',(0.,23.45,21.52));
#1633=CARTESIAN_POINT('',(0.,23.45,8.89));
#1634=CARTESIAN_POINT('',(0.,23.45,21.52));
#1635=CARTESIAN_POINT('Origin',(0.,7.66,8.89));
#1636=CARTESIAN_POINT('',(0.,7.66,8.89));
#1637=CARTESIAN_POINT('',(0.,7.66,21.52));
#1638=CARTESIAN_POINT('Origin',(5.32,15.555,21.52));
#1639=CARTESIAN_POINT('Origin',(5.32,15.555,8.89));
#1640=CARTESIAN_POINT('Ctrl Pts',(6.95407500481546,3.72500000002768,15.35));
#1641=CARTESIAN_POINT('Ctrl Pts',(6.95407500481546,3.67592499524024,15.35));
#1642=CARTESIAN_POINT('Ctrl Pts',(6.90500000002803,3.67592499524024,15.35));
#1643=CARTESIAN_POINT('Ctrl Pts',(6.8559249952406,3.67592499524024,15.35));
#1644=CARTESIAN_POINT('Ctrl Pts',(6.8559249952406,3.72500000002768,15.35));
#1645=CARTESIAN_POINT('Ctrl Pts',(6.8559249952406,3.77407500481511,15.35));
#1646=CARTESIAN_POINT('Ctrl Pts',(6.90500000002803,3.77407500481511,15.35));
#1647=CARTESIAN_POINT('Ctrl Pts',(6.95407500481546,3.77407500481511,15.35));
#1648=CARTESIAN_POINT('Ctrl Pts',(6.95407500481546,3.72500000002768,15.35));
#1649=CARTESIAN_POINT('Ctrl Pts',(8.40500000002803,3.72500000002768,15.35));
#1650=CARTESIAN_POINT('Ctrl Pts',(8.40500000002803,2.22500000002768,15.35));
#1651=CARTESIAN_POINT('Ctrl Pts',(6.90500000002803,2.22500000002768,15.35));
#1652=CARTESIAN_POINT('Ctrl Pts',(5.40500000002803,2.22500000002768,15.35));
#1653=CARTESIAN_POINT('Ctrl Pts',(5.40500000002803,3.72500000002768,15.35));
#1654=CARTESIAN_POINT('Ctrl Pts',(5.40500000002803,5.22500000002768,15.35));
#1655=CARTESIAN_POINT('Ctrl Pts',(6.90500000002803,5.22500000002768,15.35));
#1656=CARTESIAN_POINT('Ctrl Pts',(8.40500000002803,5.22500000002768,15.35));
#1657=CARTESIAN_POINT('Ctrl Pts',(8.40500000002803,3.72500000002768,15.35));
#1658=CARTESIAN_POINT('Ctrl Pts',(8.45324552558144,3.72500000002768,13.8998773462232));
#1659=CARTESIAN_POINT('Ctrl Pts',(8.45324552558144,2.17675447447427,13.8998773462232));
#1660=CARTESIAN_POINT('Ctrl Pts',(6.90500000002803,2.17675447447427,13.8998773462232));
#1661=CARTESIAN_POINT('Ctrl Pts',(5.35675447447462,2.17675447447427,13.8998773462232));
#1662=CARTESIAN_POINT('Ctrl Pts',(5.35675447447462,3.72500000002768,13.8998773462232));
#1663=CARTESIAN_POINT('Ctrl Pts',(5.35675447447462,5.27324552558109,13.8998773462232));
#1664=CARTESIAN_POINT('Ctrl Pts',(6.90500000002803,5.27324552558109,13.8998773462232));
#1665=CARTESIAN_POINT('Ctrl Pts',(8.45324552558144,5.27324552558109,13.8998773462232));
#1666=CARTESIAN_POINT('Ctrl Pts',(8.45324552558144,3.72500000002768,13.8998773462232));
#1667=CARTESIAN_POINT('',(8.45324552558144,3.72500000002768,13.8998773462232));
#1668=CARTESIAN_POINT('Origin',(6.90500000002803,3.72500000002768,13.8998773462232));
#1669=CARTESIAN_POINT('',(6.95407500481546,3.72500000002768,15.35));
#1670=CARTESIAN_POINT('Origin',(6.95407500481546,3.72500000002768,13.85));
#1671=CARTESIAN_POINT('Origin',(6.90500000002803,3.72500000002768,15.35));
#1672=CARTESIAN_POINT('Origin',(6.90500000002803,3.72500000002768,15.35));
#1673=CARTESIAN_POINT('Origin',(6.90500000002803,3.72500000002768,10.09));
#1674=CARTESIAN_POINT('',(8.58000000002803,3.72500000002768,10.09));
#1675=CARTESIAN_POINT('',(8.58000000002803,3.72500000002768,10.09));
#1676=CARTESIAN_POINT('Origin',(6.90500000002803,3.72500000002768,10.09));
#1677=CARTESIAN_POINT('Origin',(6.90500000002803,3.72500000002768,8.89));
#1678=CARTESIAN_POINT('',(8.58000000002803,3.72500000002768,8.89));
#1679=CARTESIAN_POINT('',(8.58000000002803,3.72500000002768,8.89));
#1680=CARTESIAN_POINT('Origin',(6.90500000002803,3.72500000002768,8.89));
#1681=CARTESIAN_POINT('Origin',(6.90500000002803,3.72500000002768,8.89));
#1682=UNCERTAINTY_MEASURE_WITH_UNIT(LENGTH_MEASURE(0.01),#1686,
'DISTANCE_ACCURACY_VALUE',
'Maximum model space distance between geometric entities at asserted c
onnectivities');
#1683=UNCERTAINTY_MEASURE_WITH_UNIT(LENGTH_MEASURE(0.01),#1686,
'DISTANCE_ACCURACY_VALUE',
'Maximum model space distance between geometric entities at asserted c
onnectivities');
#1684=(
GEOMETRIC_REPRESENTATION_CONTEXT(3)
GLOBAL_UNCERTAINTY_ASSIGNED_CONTEXT((#1682))
GLOBAL_UNIT_ASSIGNED_CONTEXT((#1686,#1688,#1689))
REPRESENTATION_CONTEXT('','3D')
);
#1685=(
GEOMETRIC_REPRESENTATION_CONTEXT(3)
GLOBAL_UNCERTAINTY_ASSIGNED_CONTEXT((#1683))
GLOBAL_UNIT_ASSIGNED_CONTEXT((#1686,#1688,#1689))
REPRESENTATION_CONTEXT('','3D')
);
#1686=(
LENGTH_UNIT()
NAMED_UNIT(*)
SI_UNIT(.MILLI.,.METRE.)
);
#1687=(
LENGTH_UNIT()
NAMED_UNIT(*)
SI_UNIT($,.METRE.)
);
#1688=(
NAMED_UNIT(*)
PLANE_ANGLE_UNIT()
SI_UNIT($,.RADIAN.)
);
#1689=(
NAMED_UNIT(*)
SI_UNIT($,.STERADIAN.)
SOLID_ANGLE_UNIT()
);
#1690=SHAPE_DEFINITION_REPRESENTATION(#1691,#1692);
#1691=PRODUCT_DEFINITION_SHAPE('',$,#1694);
#1692=SHAPE_REPRESENTATION('',(#1043),#1684);
#1693=PRODUCT_DEFINITION_CONTEXT('part definition',#1698,'design');
#1694=PRODUCT_DEFINITION('2026-04-30-05-51-30-604','DCDC\X2\FF08FF09\X0\',
#1695,#1693);
#1695=PRODUCT_DEFINITION_FORMATION('',$,#1700);
#1696=PRODUCT_RELATED_PRODUCT_CATEGORY('DCDC\X2\FF08FF09\X0\',
'DCDC\X2\FF08FF09\X0\',(#1700));
#1697=APPLICATION_PROTOCOL_DEFINITION('international standard',
'automotive_design',2009,#1698);
#1698=APPLICATION_CONTEXT(
'Core Data for Automotive Mechanical Design Process');
#1699=PRODUCT_CONTEXT('part definition',#1698,'mechanical');
#1700=PRODUCT('2026-04-30-05-51-30-604','DCDC\X2\FF08FF09\X0\',$,(#1699));
#1701=PRESENTATION_STYLE_ASSIGNMENT((#1702));
#1702=SURFACE_STYLE_USAGE(.BOTH.,#1703);
#1703=SURFACE_SIDE_STYLE('',(#1704));
#1704=SURFACE_STYLE_FILL_AREA(#1705);
#1705=FILL_AREA_STYLE('\X2\94A2\X0\ - \X2\7F0E5149\X0\',(#1706));
#1706=FILL_AREA_STYLE_COLOUR('\X2\94A2\X0\ - \X2\7F0E5149\X0\',#1707);
#1707=COLOUR_RGB('\X2\94A2\X0\ - \X2\7F0E5149\X0\',0.627450980392157,0.627450980392157,
0.627450980392157);
ENDSEC;
END-ISO-10303-21;
