ISO-10303-21;
HEADER;
/* Generated by software containing ST-Developer
 * from STEP Tools, Inc. (www.steptools.com) 
 */

FILE_DESCRIPTION(
/* description */ (''),
/* implementation_level */ '2;1');

FILE_NAME(
/* name */ '',
/* time_stamp */ '2026-08-11T12:29:54+09:00',
/* author */ (''),
/* organization */ (''),
/* preprocessor_version */ 'ST-DEVELOPER v20.1',
/* originating_system */ 'Autodesk Translation Framework v15.8.0.0',
/* authorisation */ '');

FILE_SCHEMA (('AUTOMOTIVE_DESIGN { 1 0 10303 214 3 1 1 }'));
ENDSEC;

DATA;
#10=MECHANICAL_DESIGN_GEOMETRIC_PRESENTATION_REPRESENTATION('',(#13),#1567);
#11=SHAPE_REPRESENTATION_RELATIONSHIP('SRR','None',#1574,#12);
#12=ADVANCED_BREP_SHAPE_REPRESENTATION('',(#14),#1566);
#13=STYLED_ITEM('',(#1583),#14);
#14=MANIFOLD_SOLID_BREP('\X2\5B9E4F53\X0\1',#931);
#15=FACE_BOUND('',#154,.T.);
#16=FACE_BOUND('',#156,.T.);
#17=FACE_BOUND('',#158,.T.);
#18=FACE_BOUND('',#159,.T.);
#19=FACE_BOUND('',#161,.T.);
#20=FACE_BOUND('',#162,.T.);
#21=FACE_BOUND('',#163,.T.);
#22=FACE_BOUND('',#165,.T.);
#23=FACE_BOUND('',#166,.T.);
#24=FACE_BOUND('',#167,.T.);
#25=FACE_BOUND('',#177,.T.);
#26=FACE_BOUND('',#178,.T.);
#27=CYLINDRICAL_SURFACE('',#950,8.5);
#28=CYLINDRICAL_SURFACE('',#963,8.5);
#29=CYLINDRICAL_SURFACE('',#1014,13.55);
#30=CYLINDRICAL_SURFACE('',#1016,13.55);
#31=CYLINDRICAL_SURFACE('',#1019,3.);
#32=CYLINDRICAL_SURFACE('',#1022,3.);
#33=CYLINDRICAL_SURFACE('',#1025,3.00000000000001);
#34=CYLINDRICAL_SURFACE('',#1028,3.00000000000001);
#35=CIRCLE('',#948,8.5);
#36=CIRCLE('',#949,13.55);
#37=CIRCLE('',#951,8.5);
#38=CIRCLE('',#952,8.5);
#39=CIRCLE('',#953,8.5);
#40=CIRCLE('',#954,8.5);
#41=CIRCLE('',#955,8.5);
#42=CIRCLE('',#956,8.5);
#43=CIRCLE('',#957,8.5);
#44=CIRCLE('',#961,8.5);
#45=CIRCLE('',#962,13.55);
#46=CIRCLE('',#964,8.5);
#47=CIRCLE('',#965,8.5);
#48=CIRCLE('',#966,8.5);
#49=CIRCLE('',#967,8.5);
#50=CIRCLE('',#968,8.5);
#51=CIRCLE('',#969,8.5);
#52=CIRCLE('',#970,8.5);
#53=CIRCLE('',#974,13.55);
#54=CIRCLE('',#978,13.55);
#55=CIRCLE('',#982,13.55);
#56=CIRCLE('',#984,13.55);
#57=CIRCLE('',#985,13.55);
#58=CIRCLE('',#986,13.55);
#59=CIRCLE('',#991,13.55);
#60=CIRCLE('',#993,13.55);
#61=CIRCLE('',#994,13.55);
#62=CIRCLE('',#995,13.55);
#63=CIRCLE('',#1008,3.00000000000001);
#64=CIRCLE('',#1009,3.);
#65=CIRCLE('',#1010,3.);
#66=CIRCLE('',#1011,3.00000000000001);
#67=CIRCLE('',#1012,13.55);
#68=CIRCLE('',#1013,13.55);
#69=CIRCLE('',#1015,13.55);
#70=CIRCLE('',#1017,13.55);
#71=CIRCLE('',#1020,3.);
#72=CIRCLE('',#1023,3.);
#73=CIRCLE('',#1026,3.00000000000001);
#74=CIRCLE('',#1029,3.00000000000001);
#75=FACE_OUTER_BOUND('',#121,.T.);
#76=FACE_OUTER_BOUND('',#122,.T.);
#77=FACE_OUTER_BOUND('',#123,.T.);
#78=FACE_OUTER_BOUND('',#124,.T.);
#79=FACE_OUTER_BOUND('',#125,.T.);
#80=FACE_OUTER_BOUND('',#126,.T.);
#81=FACE_OUTER_BOUND('',#127,.T.);
#82=FACE_OUTER_BOUND('',#128,.T.);
#83=FACE_OUTER_BOUND('',#129,.T.);
#84=FACE_OUTER_BOUND('',#130,.T.);
#85=FACE_OUTER_BOUND('',#131,.T.);
#86=FACE_OUTER_BOUND('',#132,.T.);
#87=FACE_OUTER_BOUND('',#133,.T.);
#88=FACE_OUTER_BOUND('',#134,.T.);
#89=FACE_OUTER_BOUND('',#135,.T.);
#90=FACE_OUTER_BOUND('',#136,.T.);
#91=FACE_OUTER_BOUND('',#137,.T.);
#92=FACE_OUTER_BOUND('',#138,.T.);
#93=FACE_OUTER_BOUND('',#139,.T.);
#94=FACE_OUTER_BOUND('',#140,.T.);
#95=FACE_OUTER_BOUND('',#141,.T.);
#96=FACE_OUTER_BOUND('',#142,.T.);
#97=FACE_OUTER_BOUND('',#143,.T.);
#98=FACE_OUTER_BOUND('',#144,.T.);
#99=FACE_OUTER_BOUND('',#145,.T.);
#100=FACE_OUTER_BOUND('',#146,.T.);
#101=FACE_OUTER_BOUND('',#147,.T.);
#102=FACE_OUTER_BOUND('',#148,.T.);
#103=FACE_OUTER_BOUND('',#149,.T.);
#104=FACE_OUTER_BOUND('',#150,.T.);
#105=FACE_OUTER_BOUND('',#151,.T.);
#106=FACE_OUTER_BOUND('',#152,.T.);
#107=FACE_OUTER_BOUND('',#153,.T.);
#108=FACE_OUTER_BOUND('',#155,.T.);
#109=FACE_OUTER_BOUND('',#157,.T.);
#110=FACE_OUTER_BOUND('',#160,.T.);
#111=FACE_OUTER_BOUND('',#164,.T.);
#112=FACE_OUTER_BOUND('',#168,.T.);
#113=FACE_OUTER_BOUND('',#169,.T.);
#114=FACE_OUTER_BOUND('',#170,.T.);
#115=FACE_OUTER_BOUND('',#171,.T.);
#116=FACE_OUTER_BOUND('',#172,.T.);
#117=FACE_OUTER_BOUND('',#173,.T.);
#118=FACE_OUTER_BOUND('',#174,.T.);
#119=FACE_OUTER_BOUND('',#175,.T.);
#120=FACE_OUTER_BOUND('',#176,.T.);
#121=EDGE_LOOP('',(#583,#584,#585,#586));
#122=EDGE_LOOP('',(#587,#588,#589,#590));
#123=EDGE_LOOP('',(#591,#592,#593,#594));
#124=EDGE_LOOP('',(#595,#596,#597,#598,#599,#600,#601,#602,#603,#604,#605,
#606,#607,#608,#609,#610));
#125=EDGE_LOOP('',(#611,#612,#613,#614));
#126=EDGE_LOOP('',(#615,#616,#617,#618));
#127=EDGE_LOOP('',(#619,#620,#621,#622));
#128=EDGE_LOOP('',(#623,#624,#625,#626,#627,#628,#629,#630,#631,#632,#633,
#634,#635,#636,#637,#638));
#129=EDGE_LOOP('',(#639,#640,#641,#642));
#130=EDGE_LOOP('',(#643,#644,#645,#646));
#131=EDGE_LOOP('',(#647,#648,#649,#650));
#132=EDGE_LOOP('',(#651,#652,#653,#654));
#133=EDGE_LOOP('',(#655,#656,#657,#658));
#134=EDGE_LOOP('',(#659,#660,#661,#662));
#135=EDGE_LOOP('',(#663,#664,#665,#666));
#136=EDGE_LOOP('',(#667,#668,#669,#670));
#137=EDGE_LOOP('',(#671,#672,#673,#674));
#138=EDGE_LOOP('',(#675,#676,#677,#678,#679,#680,#681,#682,#683,#684,#685,
#686,#687));
#139=EDGE_LOOP('',(#688));
#140=EDGE_LOOP('',(#689,#690,#691,#692));
#141=EDGE_LOOP('',(#693,#694,#695,#696));
#142=EDGE_LOOP('',(#697,#698,#699,#700));
#143=EDGE_LOOP('',(#701,#702,#703,#704,#705,#706,#707,#708,#709,#710,#711,
#712,#713));
#144=EDGE_LOOP('',(#714));
#145=EDGE_LOOP('',(#715,#716,#717,#718));
#146=EDGE_LOOP('',(#719,#720,#721,#722));
#147=EDGE_LOOP('',(#723,#724,#725,#726));
#148=EDGE_LOOP('',(#727,#728,#729,#730));
#149=EDGE_LOOP('',(#731,#732,#733,#734));
#150=EDGE_LOOP('',(#735,#736,#737,#738));
#151=EDGE_LOOP('',(#739,#740,#741,#742));
#152=EDGE_LOOP('',(#743,#744,#745,#746));
#153=EDGE_LOOP('',(#747,#748,#749,#750));
#154=EDGE_LOOP('',(#751,#752,#753,#754));
#155=EDGE_LOOP('',(#755,#756,#757,#758));
#156=EDGE_LOOP('',(#759,#760,#761,#762));
#157=EDGE_LOOP('',(#763,#764,#765,#766,#767,#768,#769,#770));
#158=EDGE_LOOP('',(#771));
#159=EDGE_LOOP('',(#772));
#160=EDGE_LOOP('',(#773,#774,#775,#776));
#161=EDGE_LOOP('',(#777,#778,#779,#780));
#162=EDGE_LOOP('',(#781,#782,#783,#784));
#163=EDGE_LOOP('',(#785,#786,#787,#788));
#164=EDGE_LOOP('',(#789,#790,#791,#792));
#165=EDGE_LOOP('',(#793,#794,#795,#796));
#166=EDGE_LOOP('',(#797,#798,#799,#800));
#167=EDGE_LOOP('',(#801,#802,#803,#804));
#168=EDGE_LOOP('',(#805,#806,#807,#808));
#169=EDGE_LOOP('',(#809,#810,#811,#812));
#170=EDGE_LOOP('',(#813,#814,#815,#816));
#171=EDGE_LOOP('',(#817,#818,#819,#820));
#172=EDGE_LOOP('',(#821,#822,#823,#824));
#173=EDGE_LOOP('',(#825,#826,#827,#828));
#174=EDGE_LOOP('',(#829,#830,#831,#832));
#175=EDGE_LOOP('',(#833,#834,#835,#836));
#176=EDGE_LOOP('',(#837,#838,#839,#840,#841,#842,#843,#844));
#177=EDGE_LOOP('',(#845));
#178=EDGE_LOOP('',(#846));
#179=LINE('',#1301,#271);
#180=LINE('',#1303,#272);
#181=LINE('',#1305,#273);
#182=LINE('',#1306,#274);
#183=LINE('',#1310,#275);
#184=LINE('',#1312,#276);
#185=LINE('',#1314,#277);
#186=LINE('',#1315,#278);
#187=LINE('',#1323,#279);
#188=LINE('',#1327,#280);
#189=LINE('',#1331,#281);
#190=LINE('',#1336,#282);
#191=LINE('',#1340,#283);
#192=LINE('',#1345,#284);
#193=LINE('',#1347,#285);
#194=LINE('',#1349,#286);
#195=LINE('',#1350,#287);
#196=LINE('',#1354,#288);
#197=LINE('',#1356,#289);
#198=LINE('',#1358,#290);
#199=LINE('',#1359,#291);
#200=LINE('',#1367,#292);
#201=LINE('',#1371,#293);
#202=LINE('',#1375,#294);
#203=LINE('',#1379,#295);
#204=LINE('',#1383,#296);
#205=LINE('',#1388,#297);
#206=LINE('',#1390,#298);
#207=LINE('',#1391,#299);
#208=LINE('',#1394,#300);
#209=LINE('',#1396,#301);
#210=LINE('',#1397,#302);
#211=LINE('',#1402,#303);
#212=LINE('',#1404,#304);
#213=LINE('',#1405,#305);
#214=LINE('',#1408,#306);
#215=LINE('',#1410,#307);
#216=LINE('',#1411,#308);
#217=LINE('',#1416,#309);
#218=LINE('',#1418,#310);
#219=LINE('',#1419,#311);
#220=LINE('',#1422,#312);
#221=LINE('',#1424,#313);
#222=LINE('',#1425,#314);
#223=LINE('',#1435,#315);
#224=LINE('',#1437,#316);
#225=LINE('',#1438,#317);
#226=LINE('',#1441,#318);
#227=LINE('',#1443,#319);
#228=LINE('',#1444,#320);
#229=LINE('',#1455,#321);
#230=LINE('',#1457,#322);
#231=LINE('',#1459,#323);
#232=LINE('',#1460,#324);
#233=LINE('',#1463,#325);
#234=LINE('',#1465,#326);
#235=LINE('',#1466,#327);
#236=LINE('',#1469,#328);
#237=LINE('',#1471,#329);
#238=LINE('',#1472,#330);
#239=LINE('',#1474,#331);
#240=LINE('',#1475,#332);
#241=LINE('',#1479,#333);
#242=LINE('',#1481,#334);
#243=LINE('',#1483,#335);
#244=LINE('',#1484,#336);
#245=LINE('',#1487,#337);
#246=LINE('',#1489,#338);
#247=LINE('',#1490,#339);
#248=LINE('',#1493,#340);
#249=LINE('',#1495,#341);
#250=LINE('',#1496,#342);
#251=LINE('',#1498,#343);
#252=LINE('',#1499,#344);
#253=LINE('',#1504,#345);
#254=LINE('',#1506,#346);
#255=LINE('',#1508,#347);
#256=LINE('',#1509,#348);
#257=LINE('',#1516,#349);
#258=LINE('',#1520,#350);
#259=LINE('',#1523,#351);
#260=LINE('',#1531,#352);
#261=LINE('',#1535,#353);
#262=LINE('',#1540,#354);
#263=LINE('',#1543,#355);
#264=LINE('',#1544,#356);
#265=LINE('',#1548,#357);
#266=LINE('',#1551,#358);
#267=LINE('',#1552,#359);
#268=LINE('',#1556,#360);
#269=LINE('',#1559,#361);
#270=LINE('',#1560,#362);
#271=VECTOR('',#1035,10.);
#272=VECTOR('',#1036,10.);
#273=VECTOR('',#1037,10.);
#274=VECTOR('',#1038,10.);
#275=VECTOR('',#1041,10.);
#276=VECTOR('',#1042,10.);
#277=VECTOR('',#1043,10.);
#278=VECTOR('',#1044,10.);
#279=VECTOR('',#1055,8.5);
#280=VECTOR('',#1058,10.);
#281=VECTOR('',#1061,10.);
#282=VECTOR('',#1066,10.);
#283=VECTOR('',#1069,10.);
#284=VECTOR('',#1074,10.);
#285=VECTOR('',#1075,10.);
#286=VECTOR('',#1076,10.);
#287=VECTOR('',#1077,10.);
#288=VECTOR('',#1080,10.);
#289=VECTOR('',#1081,10.);
#290=VECTOR('',#1082,10.);
#291=VECTOR('',#1083,10.);
#292=VECTOR('',#1094,8.5);
#293=VECTOR('',#1097,10.);
#294=VECTOR('',#1100,10.);
#295=VECTOR('',#1103,10.);
#296=VECTOR('',#1106,10.);
#297=VECTOR('',#1113,10.);
#298=VECTOR('',#1114,10.);
#299=VECTOR('',#1115,10.);
#300=VECTOR('',#1118,10.);
#301=VECTOR('',#1119,10.);
#302=VECTOR('',#1120,10.);
#303=VECTOR('',#1127,10.);
#304=VECTOR('',#1128,10.);
#305=VECTOR('',#1129,10.);
#306=VECTOR('',#1132,10.);
#307=VECTOR('',#1133,10.);
#308=VECTOR('',#1134,10.);
#309=VECTOR('',#1141,10.);
#310=VECTOR('',#1142,10.);
#311=VECTOR('',#1143,10.);
#312=VECTOR('',#1146,10.);
#313=VECTOR('',#1147,10.);
#314=VECTOR('',#1148,10.);
#315=VECTOR('',#1165,10.);
#316=VECTOR('',#1166,10.);
#317=VECTOR('',#1167,10.);
#318=VECTOR('',#1170,10.);
#319=VECTOR('',#1171,10.);
#320=VECTOR('',#1172,10.);
#321=VECTOR('',#1189,10.);
#322=VECTOR('',#1190,10.);
#323=VECTOR('',#1191,10.);
#324=VECTOR('',#1192,10.);
#325=VECTOR('',#1195,10.);
#326=VECTOR('',#1196,10.);
#327=VECTOR('',#1197,10.);
#328=VECTOR('',#1200,10.);
#329=VECTOR('',#1201,10.);
#330=VECTOR('',#1202,10.);
#331=VECTOR('',#1205,10.);
#332=VECTOR('',#1206,10.);
#333=VECTOR('',#1209,10.);
#334=VECTOR('',#1210,10.);
#335=VECTOR('',#1211,10.);
#336=VECTOR('',#1212,10.);
#337=VECTOR('',#1215,10.);
#338=VECTOR('',#1216,10.);
#339=VECTOR('',#1217,10.);
#340=VECTOR('',#1220,10.);
#341=VECTOR('',#1221,10.);
#342=VECTOR('',#1222,10.);
#343=VECTOR('',#1225,10.);
#344=VECTOR('',#1226,10.);
#345=VECTOR('',#1231,10.);
#346=VECTOR('',#1232,10.);
#347=VECTOR('',#1233,10.);
#348=VECTOR('',#1234,10.);
#349=VECTOR('',#1241,10.);
#350=VECTOR('',#1244,10.);
#351=VECTOR('',#1247,10.);
#352=VECTOR('',#1256,13.55);
#353=VECTOR('',#1261,13.55);
#354=VECTOR('',#1268,10.);
#355=VECTOR('',#1271,10.);
#356=VECTOR('',#1272,10.);
#357=VECTOR('',#1277,10.);
#358=VECTOR('',#1280,10.);
#359=VECTOR('',#1281,10.);
#360=VECTOR('',#1286,10.);
#361=VECTOR('',#1289,10.);
#362=VECTOR('',#1290,10.);
#363=VERTEX_POINT('',#1299);
#364=VERTEX_POINT('',#1300);
#365=VERTEX_POINT('',#1302);
#366=VERTEX_POINT('',#1304);
#367=VERTEX_POINT('',#1308);
#368=VERTEX_POINT('',#1309);
#369=VERTEX_POINT('',#1311);
#370=VERTEX_POINT('',#1313);
#371=VERTEX_POINT('',#1320);
#372=VERTEX_POINT('',#1322);
#373=VERTEX_POINT('',#1324);
#374=VERTEX_POINT('',#1326);
#375=VERTEX_POINT('',#1328);
#376=VERTEX_POINT('',#1330);
#377=VERTEX_POINT('',#1333);
#378=VERTEX_POINT('',#1335);
#379=VERTEX_POINT('',#1337);
#380=VERTEX_POINT('',#1339);
#381=VERTEX_POINT('',#1343);
#382=VERTEX_POINT('',#1344);
#383=VERTEX_POINT('',#1346);
#384=VERTEX_POINT('',#1348);
#385=VERTEX_POINT('',#1352);
#386=VERTEX_POINT('',#1353);
#387=VERTEX_POINT('',#1355);
#388=VERTEX_POINT('',#1357);
#389=VERTEX_POINT('',#1364);
#390=VERTEX_POINT('',#1366);
#391=VERTEX_POINT('',#1368);
#392=VERTEX_POINT('',#1370);
#393=VERTEX_POINT('',#1372);
#394=VERTEX_POINT('',#1374);
#395=VERTEX_POINT('',#1376);
#396=VERTEX_POINT('',#1378);
#397=VERTEX_POINT('',#1380);
#398=VERTEX_POINT('',#1382);
#399=VERTEX_POINT('',#1387);
#400=VERTEX_POINT('',#1389);
#401=VERTEX_POINT('',#1393);
#402=VERTEX_POINT('',#1395);
#403=VERTEX_POINT('',#1401);
#404=VERTEX_POINT('',#1403);
#405=VERTEX_POINT('',#1407);
#406=VERTEX_POINT('',#1409);
#407=VERTEX_POINT('',#1415);
#408=VERTEX_POINT('',#1417);
#409=VERTEX_POINT('',#1421);
#410=VERTEX_POINT('',#1423);
#411=VERTEX_POINT('',#1434);
#412=VERTEX_POINT('',#1436);
#413=VERTEX_POINT('',#1440);
#414=VERTEX_POINT('',#1442);
#415=VERTEX_POINT('',#1453);
#416=VERTEX_POINT('',#1454);
#417=VERTEX_POINT('',#1456);
#418=VERTEX_POINT('',#1458);
#419=VERTEX_POINT('',#1462);
#420=VERTEX_POINT('',#1464);
#421=VERTEX_POINT('',#1468);
#422=VERTEX_POINT('',#1470);
#423=VERTEX_POINT('',#1477);
#424=VERTEX_POINT('',#1478);
#425=VERTEX_POINT('',#1480);
#426=VERTEX_POINT('',#1482);
#427=VERTEX_POINT('',#1486);
#428=VERTEX_POINT('',#1488);
#429=VERTEX_POINT('',#1492);
#430=VERTEX_POINT('',#1494);
#431=VERTEX_POINT('',#1502);
#432=VERTEX_POINT('',#1503);
#433=VERTEX_POINT('',#1505);
#434=VERTEX_POINT('',#1507);
#435=VERTEX_POINT('',#1511);
#436=VERTEX_POINT('',#1513);
#437=VERTEX_POINT('',#1515);
#438=VERTEX_POINT('',#1517);
#439=VERTEX_POINT('',#1519);
#440=VERTEX_POINT('',#1521);
#441=VERTEX_POINT('',#1524);
#442=VERTEX_POINT('',#1526);
#443=VERTEX_POINT('',#1529);
#444=VERTEX_POINT('',#1533);
#445=VERTEX_POINT('',#1538);
#446=VERTEX_POINT('',#1542);
#447=VERTEX_POINT('',#1546);
#448=VERTEX_POINT('',#1550);
#449=VERTEX_POINT('',#1554);
#450=VERTEX_POINT('',#1558);
#451=EDGE_CURVE('',#363,#364,#179,.T.);
#452=EDGE_CURVE('',#365,#364,#180,.T.);
#453=EDGE_CURVE('',#365,#366,#181,.T.);
#454=EDGE_CURVE('',#363,#366,#182,.T.);
#455=EDGE_CURVE('',#367,#368,#183,.T.);
#456=EDGE_CURVE('',#369,#368,#184,.T.);
#457=EDGE_CURVE('',#370,#369,#185,.T.);
#458=EDGE_CURVE('',#367,#370,#186,.T.);
#459=EDGE_CURVE('',#370,#365,#35,.T.);
#460=EDGE_CURVE('',#366,#369,#36,.T.);
#461=EDGE_CURVE('',#371,#371,#37,.T.);
#462=EDGE_CURVE('',#371,#372,#187,.T.);
#463=EDGE_CURVE('',#373,#372,#38,.T.);
#464=EDGE_CURVE('',#373,#374,#188,.T.);
#465=EDGE_CURVE('',#374,#375,#39,.T.);
#466=EDGE_CURVE('',#375,#376,#189,.T.);
#467=EDGE_CURVE('',#367,#376,#40,.T.);
#468=EDGE_CURVE('',#377,#364,#41,.T.);
#469=EDGE_CURVE('',#377,#378,#190,.T.);
#470=EDGE_CURVE('',#378,#379,#42,.T.);
#471=EDGE_CURVE('',#379,#380,#191,.T.);
#472=EDGE_CURVE('',#372,#380,#43,.T.);
#473=EDGE_CURVE('',#381,#382,#192,.T.);
#474=EDGE_CURVE('',#383,#382,#193,.T.);
#475=EDGE_CURVE('',#383,#384,#194,.T.);
#476=EDGE_CURVE('',#381,#384,#195,.T.);
#477=EDGE_CURVE('',#385,#386,#196,.T.);
#478=EDGE_CURVE('',#387,#386,#197,.T.);
#479=EDGE_CURVE('',#388,#387,#198,.T.);
#480=EDGE_CURVE('',#385,#388,#199,.T.);
#481=EDGE_CURVE('',#388,#383,#44,.T.);
#482=EDGE_CURVE('',#384,#387,#45,.T.);
#483=EDGE_CURVE('',#389,#389,#46,.T.);
#484=EDGE_CURVE('',#389,#390,#200,.T.);
#485=EDGE_CURVE('',#391,#390,#47,.T.);
#486=EDGE_CURVE('',#391,#392,#201,.T.);
#487=EDGE_CURVE('',#392,#393,#48,.T.);
#488=EDGE_CURVE('',#393,#394,#202,.T.);
#489=EDGE_CURVE('',#395,#394,#49,.T.);
#490=EDGE_CURVE('',#395,#396,#203,.T.);
#491=EDGE_CURVE('',#396,#397,#50,.T.);
#492=EDGE_CURVE('',#397,#398,#204,.T.);
#493=EDGE_CURVE('',#385,#398,#51,.T.);
#494=EDGE_CURVE('',#390,#382,#52,.T.);
#495=EDGE_CURVE('',#399,#398,#205,.T.);
#496=EDGE_CURVE('',#397,#400,#206,.T.);
#497=EDGE_CURVE('',#399,#400,#207,.T.);
#498=EDGE_CURVE('',#395,#401,#208,.T.);
#499=EDGE_CURVE('',#402,#401,#209,.T.);
#500=EDGE_CURVE('',#396,#402,#210,.T.);
#501=EDGE_CURVE('',#400,#402,#53,.T.);
#502=EDGE_CURVE('',#403,#380,#211,.T.);
#503=EDGE_CURVE('',#379,#404,#212,.T.);
#504=EDGE_CURVE('',#403,#404,#213,.T.);
#505=EDGE_CURVE('',#377,#405,#214,.T.);
#506=EDGE_CURVE('',#406,#405,#215,.T.);
#507=EDGE_CURVE('',#378,#406,#216,.T.);
#508=EDGE_CURVE('',#404,#406,#54,.T.);
#509=EDGE_CURVE('',#407,#394,#217,.T.);
#510=EDGE_CURVE('',#393,#408,#218,.T.);
#511=EDGE_CURVE('',#407,#408,#219,.T.);
#512=EDGE_CURVE('',#391,#409,#220,.T.);
#513=EDGE_CURVE('',#410,#409,#221,.T.);
#514=EDGE_CURVE('',#392,#410,#222,.T.);
#515=EDGE_CURVE('',#408,#410,#55,.T.);
#516=EDGE_CURVE('',#386,#381,#56,.T.);
#517=EDGE_CURVE('',#401,#399,#57,.T.);
#518=EDGE_CURVE('',#409,#407,#58,.T.);
#519=EDGE_CURVE('',#411,#376,#223,.T.);
#520=EDGE_CURVE('',#375,#412,#224,.T.);
#521=EDGE_CURVE('',#411,#412,#225,.T.);
#522=EDGE_CURVE('',#373,#413,#226,.T.);
#523=EDGE_CURVE('',#414,#413,#227,.T.);
#524=EDGE_CURVE('',#374,#414,#228,.T.);
#525=EDGE_CURVE('',#412,#414,#59,.T.);
#526=EDGE_CURVE('',#405,#403,#60,.T.);
#527=EDGE_CURVE('',#368,#363,#61,.T.);
#528=EDGE_CURVE('',#413,#411,#62,.T.);
#529=EDGE_CURVE('',#415,#416,#229,.T.);
#530=EDGE_CURVE('',#415,#417,#230,.T.);
#531=EDGE_CURVE('',#417,#418,#231,.T.);
#532=EDGE_CURVE('',#416,#418,#232,.T.);
#533=EDGE_CURVE('',#419,#415,#233,.T.);
#534=EDGE_CURVE('',#419,#420,#234,.T.);
#535=EDGE_CURVE('',#420,#417,#235,.T.);
#536=EDGE_CURVE('',#421,#419,#236,.T.);
#537=EDGE_CURVE('',#421,#422,#237,.T.);
#538=EDGE_CURVE('',#422,#420,#238,.T.);
#539=EDGE_CURVE('',#416,#421,#239,.T.);
#540=EDGE_CURVE('',#418,#422,#240,.T.);
#541=EDGE_CURVE('',#423,#424,#241,.T.);
#542=EDGE_CURVE('',#423,#425,#242,.T.);
#543=EDGE_CURVE('',#425,#426,#243,.T.);
#544=EDGE_CURVE('',#424,#426,#244,.T.);
#545=EDGE_CURVE('',#427,#423,#245,.T.);
#546=EDGE_CURVE('',#427,#428,#246,.T.);
#547=EDGE_CURVE('',#428,#425,#247,.T.);
#548=EDGE_CURVE('',#429,#427,#248,.T.);
#549=EDGE_CURVE('',#429,#430,#249,.T.);
#550=EDGE_CURVE('',#430,#428,#250,.T.);
#551=EDGE_CURVE('',#424,#429,#251,.T.);
#552=EDGE_CURVE('',#426,#430,#252,.T.);
#553=EDGE_CURVE('',#431,#432,#253,.T.);
#554=EDGE_CURVE('',#433,#431,#254,.T.);
#555=EDGE_CURVE('',#434,#433,#255,.T.);
#556=EDGE_CURVE('',#432,#434,#256,.T.);
#557=EDGE_CURVE('',#435,#432,#63,.T.);
#558=EDGE_CURVE('',#434,#436,#64,.T.);
#559=EDGE_CURVE('',#436,#437,#257,.T.);
#560=EDGE_CURVE('',#437,#438,#65,.T.);
#561=EDGE_CURVE('',#438,#439,#258,.T.);
#562=EDGE_CURVE('',#439,#440,#66,.T.);
#563=EDGE_CURVE('',#440,#435,#259,.T.);
#564=EDGE_CURVE('',#441,#441,#67,.T.);
#565=EDGE_CURVE('',#442,#442,#68,.T.);
#566=EDGE_CURVE('',#443,#443,#69,.T.);
#567=EDGE_CURVE('',#443,#442,#260,.T.);
#568=EDGE_CURVE('',#444,#444,#70,.T.);
#569=EDGE_CURVE('',#444,#441,#261,.T.);
#570=EDGE_CURVE('',#445,#433,#71,.T.);
#571=EDGE_CURVE('',#436,#445,#262,.T.);
#572=EDGE_CURVE('',#446,#445,#263,.T.);
#573=EDGE_CURVE('',#437,#446,#264,.T.);
#574=EDGE_CURVE('',#447,#446,#72,.T.);
#575=EDGE_CURVE('',#438,#447,#265,.T.);
#576=EDGE_CURVE('',#448,#447,#266,.T.);
#577=EDGE_CURVE('',#439,#448,#267,.T.);
#578=EDGE_CURVE('',#449,#448,#73,.T.);
#579=EDGE_CURVE('',#440,#449,#268,.T.);
#580=EDGE_CURVE('',#450,#449,#269,.T.);
#581=EDGE_CURVE('',#435,#450,#270,.T.);
#582=EDGE_CURVE('',#431,#450,#74,.T.);
#583=ORIENTED_EDGE('',*,*,#451,.T.);
#584=ORIENTED_EDGE('',*,*,#452,.F.);
#585=ORIENTED_EDGE('',*,*,#453,.T.);
#586=ORIENTED_EDGE('',*,*,#454,.F.);
#587=ORIENTED_EDGE('',*,*,#455,.T.);
#588=ORIENTED_EDGE('',*,*,#456,.F.);
#589=ORIENTED_EDGE('',*,*,#457,.F.);
#590=ORIENTED_EDGE('',*,*,#458,.F.);
#591=ORIENTED_EDGE('',*,*,#459,.F.);
#592=ORIENTED_EDGE('',*,*,#457,.T.);
#593=ORIENTED_EDGE('',*,*,#460,.F.);
#594=ORIENTED_EDGE('',*,*,#453,.F.);
#595=ORIENTED_EDGE('',*,*,#461,.F.);
#596=ORIENTED_EDGE('',*,*,#462,.T.);
#597=ORIENTED_EDGE('',*,*,#463,.F.);
#598=ORIENTED_EDGE('',*,*,#464,.T.);
#599=ORIENTED_EDGE('',*,*,#465,.T.);
#600=ORIENTED_EDGE('',*,*,#466,.T.);
#601=ORIENTED_EDGE('',*,*,#467,.F.);
#602=ORIENTED_EDGE('',*,*,#458,.T.);
#603=ORIENTED_EDGE('',*,*,#459,.T.);
#604=ORIENTED_EDGE('',*,*,#452,.T.);
#605=ORIENTED_EDGE('',*,*,#468,.F.);
#606=ORIENTED_EDGE('',*,*,#469,.T.);
#607=ORIENTED_EDGE('',*,*,#470,.T.);
#608=ORIENTED_EDGE('',*,*,#471,.T.);
#609=ORIENTED_EDGE('',*,*,#472,.F.);
#610=ORIENTED_EDGE('',*,*,#462,.F.);
#611=ORIENTED_EDGE('',*,*,#473,.T.);
#612=ORIENTED_EDGE('',*,*,#474,.F.);
#613=ORIENTED_EDGE('',*,*,#475,.T.);
#614=ORIENTED_EDGE('',*,*,#476,.F.);
#615=ORIENTED_EDGE('',*,*,#477,.T.);
#616=ORIENTED_EDGE('',*,*,#478,.F.);
#617=ORIENTED_EDGE('',*,*,#479,.F.);
#618=ORIENTED_EDGE('',*,*,#480,.F.);
#619=ORIENTED_EDGE('',*,*,#481,.F.);
#620=ORIENTED_EDGE('',*,*,#479,.T.);
#621=ORIENTED_EDGE('',*,*,#482,.F.);
#622=ORIENTED_EDGE('',*,*,#475,.F.);
#623=ORIENTED_EDGE('',*,*,#483,.F.);
#624=ORIENTED_EDGE('',*,*,#484,.T.);
#625=ORIENTED_EDGE('',*,*,#485,.F.);
#626=ORIENTED_EDGE('',*,*,#486,.T.);
#627=ORIENTED_EDGE('',*,*,#487,.T.);
#628=ORIENTED_EDGE('',*,*,#488,.T.);
#629=ORIENTED_EDGE('',*,*,#489,.F.);
#630=ORIENTED_EDGE('',*,*,#490,.T.);
#631=ORIENTED_EDGE('',*,*,#491,.T.);
#632=ORIENTED_EDGE('',*,*,#492,.T.);
#633=ORIENTED_EDGE('',*,*,#493,.F.);
#634=ORIENTED_EDGE('',*,*,#480,.T.);
#635=ORIENTED_EDGE('',*,*,#481,.T.);
#636=ORIENTED_EDGE('',*,*,#474,.T.);
#637=ORIENTED_EDGE('',*,*,#494,.F.);
#638=ORIENTED_EDGE('',*,*,#484,.F.);
#639=ORIENTED_EDGE('',*,*,#495,.T.);
#640=ORIENTED_EDGE('',*,*,#492,.F.);
#641=ORIENTED_EDGE('',*,*,#496,.T.);
#642=ORIENTED_EDGE('',*,*,#497,.F.);
#643=ORIENTED_EDGE('',*,*,#498,.T.);
#644=ORIENTED_EDGE('',*,*,#499,.F.);
#645=ORIENTED_EDGE('',*,*,#500,.F.);
#646=ORIENTED_EDGE('',*,*,#490,.F.);
#647=ORIENTED_EDGE('',*,*,#491,.F.);
#648=ORIENTED_EDGE('',*,*,#500,.T.);
#649=ORIENTED_EDGE('',*,*,#501,.F.);
#650=ORIENTED_EDGE('',*,*,#496,.F.);
#651=ORIENTED_EDGE('',*,*,#502,.T.);
#652=ORIENTED_EDGE('',*,*,#471,.F.);
#653=ORIENTED_EDGE('',*,*,#503,.T.);
#654=ORIENTED_EDGE('',*,*,#504,.F.);
#655=ORIENTED_EDGE('',*,*,#505,.T.);
#656=ORIENTED_EDGE('',*,*,#506,.F.);
#657=ORIENTED_EDGE('',*,*,#507,.F.);
#658=ORIENTED_EDGE('',*,*,#469,.F.);
#659=ORIENTED_EDGE('',*,*,#470,.F.);
#660=ORIENTED_EDGE('',*,*,#507,.T.);
#661=ORIENTED_EDGE('',*,*,#508,.F.);
#662=ORIENTED_EDGE('',*,*,#503,.F.);
#663=ORIENTED_EDGE('',*,*,#509,.T.);
#664=ORIENTED_EDGE('',*,*,#488,.F.);
#665=ORIENTED_EDGE('',*,*,#510,.T.);
#666=ORIENTED_EDGE('',*,*,#511,.F.);
#667=ORIENTED_EDGE('',*,*,#512,.T.);
#668=ORIENTED_EDGE('',*,*,#513,.F.);
#669=ORIENTED_EDGE('',*,*,#514,.F.);
#670=ORIENTED_EDGE('',*,*,#486,.F.);
#671=ORIENTED_EDGE('',*,*,#487,.F.);
#672=ORIENTED_EDGE('',*,*,#514,.T.);
#673=ORIENTED_EDGE('',*,*,#515,.F.);
#674=ORIENTED_EDGE('',*,*,#510,.F.);
#675=ORIENTED_EDGE('',*,*,#485,.T.);
#676=ORIENTED_EDGE('',*,*,#494,.T.);
#677=ORIENTED_EDGE('',*,*,#473,.F.);
#678=ORIENTED_EDGE('',*,*,#516,.F.);
#679=ORIENTED_EDGE('',*,*,#477,.F.);
#680=ORIENTED_EDGE('',*,*,#493,.T.);
#681=ORIENTED_EDGE('',*,*,#495,.F.);
#682=ORIENTED_EDGE('',*,*,#517,.F.);
#683=ORIENTED_EDGE('',*,*,#498,.F.);
#684=ORIENTED_EDGE('',*,*,#489,.T.);
#685=ORIENTED_EDGE('',*,*,#509,.F.);
#686=ORIENTED_EDGE('',*,*,#518,.F.);
#687=ORIENTED_EDGE('',*,*,#512,.F.);
#688=ORIENTED_EDGE('',*,*,#483,.T.);
#689=ORIENTED_EDGE('',*,*,#519,.T.);
#690=ORIENTED_EDGE('',*,*,#466,.F.);
#691=ORIENTED_EDGE('',*,*,#520,.T.);
#692=ORIENTED_EDGE('',*,*,#521,.F.);
#693=ORIENTED_EDGE('',*,*,#522,.T.);
#694=ORIENTED_EDGE('',*,*,#523,.F.);
#695=ORIENTED_EDGE('',*,*,#524,.F.);
#696=ORIENTED_EDGE('',*,*,#464,.F.);
#697=ORIENTED_EDGE('',*,*,#465,.F.);
#698=ORIENTED_EDGE('',*,*,#524,.T.);
#699=ORIENTED_EDGE('',*,*,#525,.F.);
#700=ORIENTED_EDGE('',*,*,#520,.F.);
#701=ORIENTED_EDGE('',*,*,#463,.T.);
#702=ORIENTED_EDGE('',*,*,#472,.T.);
#703=ORIENTED_EDGE('',*,*,#502,.F.);
#704=ORIENTED_EDGE('',*,*,#526,.F.);
#705=ORIENTED_EDGE('',*,*,#505,.F.);
#706=ORIENTED_EDGE('',*,*,#468,.T.);
#707=ORIENTED_EDGE('',*,*,#451,.F.);
#708=ORIENTED_EDGE('',*,*,#527,.F.);
#709=ORIENTED_EDGE('',*,*,#455,.F.);
#710=ORIENTED_EDGE('',*,*,#467,.T.);
#711=ORIENTED_EDGE('',*,*,#519,.F.);
#712=ORIENTED_EDGE('',*,*,#528,.F.);
#713=ORIENTED_EDGE('',*,*,#522,.F.);
#714=ORIENTED_EDGE('',*,*,#461,.T.);
#715=ORIENTED_EDGE('',*,*,#529,.F.);
#716=ORIENTED_EDGE('',*,*,#530,.T.);
#717=ORIENTED_EDGE('',*,*,#531,.T.);
#718=ORIENTED_EDGE('',*,*,#532,.F.);
#719=ORIENTED_EDGE('',*,*,#533,.F.);
#720=ORIENTED_EDGE('',*,*,#534,.T.);
#721=ORIENTED_EDGE('',*,*,#535,.T.);
#722=ORIENTED_EDGE('',*,*,#530,.F.);
#723=ORIENTED_EDGE('',*,*,#536,.F.);
#724=ORIENTED_EDGE('',*,*,#537,.T.);
#725=ORIENTED_EDGE('',*,*,#538,.T.);
#726=ORIENTED_EDGE('',*,*,#534,.F.);
#727=ORIENTED_EDGE('',*,*,#539,.F.);
#728=ORIENTED_EDGE('',*,*,#532,.T.);
#729=ORIENTED_EDGE('',*,*,#540,.T.);
#730=ORIENTED_EDGE('',*,*,#537,.F.);
#731=ORIENTED_EDGE('',*,*,#541,.F.);
#732=ORIENTED_EDGE('',*,*,#542,.T.);
#733=ORIENTED_EDGE('',*,*,#543,.T.);
#734=ORIENTED_EDGE('',*,*,#544,.F.);
#735=ORIENTED_EDGE('',*,*,#545,.F.);
#736=ORIENTED_EDGE('',*,*,#546,.T.);
#737=ORIENTED_EDGE('',*,*,#547,.T.);
#738=ORIENTED_EDGE('',*,*,#542,.F.);
#739=ORIENTED_EDGE('',*,*,#548,.F.);
#740=ORIENTED_EDGE('',*,*,#549,.T.);
#741=ORIENTED_EDGE('',*,*,#550,.T.);
#742=ORIENTED_EDGE('',*,*,#546,.F.);
#743=ORIENTED_EDGE('',*,*,#551,.F.);
#744=ORIENTED_EDGE('',*,*,#544,.T.);
#745=ORIENTED_EDGE('',*,*,#552,.T.);
#746=ORIENTED_EDGE('',*,*,#549,.F.);
#747=ORIENTED_EDGE('',*,*,#552,.F.);
#748=ORIENTED_EDGE('',*,*,#543,.F.);
#749=ORIENTED_EDGE('',*,*,#547,.F.);
#750=ORIENTED_EDGE('',*,*,#550,.F.);
#751=ORIENTED_EDGE('',*,*,#540,.F.);
#752=ORIENTED_EDGE('',*,*,#531,.F.);
#753=ORIENTED_EDGE('',*,*,#535,.F.);
#754=ORIENTED_EDGE('',*,*,#538,.F.);
#755=ORIENTED_EDGE('',*,*,#553,.F.);
#756=ORIENTED_EDGE('',*,*,#554,.F.);
#757=ORIENTED_EDGE('',*,*,#555,.F.);
#758=ORIENTED_EDGE('',*,*,#556,.F.);
#759=ORIENTED_EDGE('',*,*,#541,.T.);
#760=ORIENTED_EDGE('',*,*,#551,.T.);
#761=ORIENTED_EDGE('',*,*,#548,.T.);
#762=ORIENTED_EDGE('',*,*,#545,.T.);
#763=ORIENTED_EDGE('',*,*,#557,.T.);
#764=ORIENTED_EDGE('',*,*,#556,.T.);
#765=ORIENTED_EDGE('',*,*,#558,.T.);
#766=ORIENTED_EDGE('',*,*,#559,.T.);
#767=ORIENTED_EDGE('',*,*,#560,.T.);
#768=ORIENTED_EDGE('',*,*,#561,.T.);
#769=ORIENTED_EDGE('',*,*,#562,.T.);
#770=ORIENTED_EDGE('',*,*,#563,.T.);
#771=ORIENTED_EDGE('',*,*,#564,.T.);
#772=ORIENTED_EDGE('',*,*,#565,.T.);
#773=ORIENTED_EDGE('',*,*,#566,.F.);
#774=ORIENTED_EDGE('',*,*,#567,.T.);
#775=ORIENTED_EDGE('',*,*,#565,.F.);
#776=ORIENTED_EDGE('',*,*,#567,.F.);
#777=ORIENTED_EDGE('',*,*,#478,.T.);
#778=ORIENTED_EDGE('',*,*,#516,.T.);
#779=ORIENTED_EDGE('',*,*,#476,.T.);
#780=ORIENTED_EDGE('',*,*,#482,.T.);
#781=ORIENTED_EDGE('',*,*,#499,.T.);
#782=ORIENTED_EDGE('',*,*,#517,.T.);
#783=ORIENTED_EDGE('',*,*,#497,.T.);
#784=ORIENTED_EDGE('',*,*,#501,.T.);
#785=ORIENTED_EDGE('',*,*,#513,.T.);
#786=ORIENTED_EDGE('',*,*,#518,.T.);
#787=ORIENTED_EDGE('',*,*,#511,.T.);
#788=ORIENTED_EDGE('',*,*,#515,.T.);
#789=ORIENTED_EDGE('',*,*,#568,.F.);
#790=ORIENTED_EDGE('',*,*,#569,.T.);
#791=ORIENTED_EDGE('',*,*,#564,.F.);
#792=ORIENTED_EDGE('',*,*,#569,.F.);
#793=ORIENTED_EDGE('',*,*,#456,.T.);
#794=ORIENTED_EDGE('',*,*,#527,.T.);
#795=ORIENTED_EDGE('',*,*,#454,.T.);
#796=ORIENTED_EDGE('',*,*,#460,.T.);
#797=ORIENTED_EDGE('',*,*,#506,.T.);
#798=ORIENTED_EDGE('',*,*,#526,.T.);
#799=ORIENTED_EDGE('',*,*,#504,.T.);
#800=ORIENTED_EDGE('',*,*,#508,.T.);
#801=ORIENTED_EDGE('',*,*,#523,.T.);
#802=ORIENTED_EDGE('',*,*,#528,.T.);
#803=ORIENTED_EDGE('',*,*,#521,.T.);
#804=ORIENTED_EDGE('',*,*,#525,.T.);
#805=ORIENTED_EDGE('',*,*,#529,.T.);
#806=ORIENTED_EDGE('',*,*,#539,.T.);
#807=ORIENTED_EDGE('',*,*,#536,.T.);
#808=ORIENTED_EDGE('',*,*,#533,.T.);
#809=ORIENTED_EDGE('',*,*,#555,.T.);
#810=ORIENTED_EDGE('',*,*,#570,.F.);
#811=ORIENTED_EDGE('',*,*,#571,.F.);
#812=ORIENTED_EDGE('',*,*,#558,.F.);
#813=ORIENTED_EDGE('',*,*,#571,.T.);
#814=ORIENTED_EDGE('',*,*,#572,.F.);
#815=ORIENTED_EDGE('',*,*,#573,.F.);
#816=ORIENTED_EDGE('',*,*,#559,.F.);
#817=ORIENTED_EDGE('',*,*,#573,.T.);
#818=ORIENTED_EDGE('',*,*,#574,.F.);
#819=ORIENTED_EDGE('',*,*,#575,.F.);
#820=ORIENTED_EDGE('',*,*,#560,.F.);
#821=ORIENTED_EDGE('',*,*,#575,.T.);
#822=ORIENTED_EDGE('',*,*,#576,.F.);
#823=ORIENTED_EDGE('',*,*,#577,.F.);
#824=ORIENTED_EDGE('',*,*,#561,.F.);
#825=ORIENTED_EDGE('',*,*,#577,.T.);
#826=ORIENTED_EDGE('',*,*,#578,.F.);
#827=ORIENTED_EDGE('',*,*,#579,.F.);
#828=ORIENTED_EDGE('',*,*,#562,.F.);
#829=ORIENTED_EDGE('',*,*,#579,.T.);
#830=ORIENTED_EDGE('',*,*,#580,.F.);
#831=ORIENTED_EDGE('',*,*,#581,.F.);
#832=ORIENTED_EDGE('',*,*,#563,.F.);
#833=ORIENTED_EDGE('',*,*,#581,.T.);
#834=ORIENTED_EDGE('',*,*,#582,.F.);
#835=ORIENTED_EDGE('',*,*,#553,.T.);
#836=ORIENTED_EDGE('',*,*,#557,.F.);
#837=ORIENTED_EDGE('',*,*,#582,.T.);
#838=ORIENTED_EDGE('',*,*,#580,.T.);
#839=ORIENTED_EDGE('',*,*,#578,.T.);
#840=ORIENTED_EDGE('',*,*,#576,.T.);
#841=ORIENTED_EDGE('',*,*,#574,.T.);
#842=ORIENTED_EDGE('',*,*,#572,.T.);
#843=ORIENTED_EDGE('',*,*,#570,.T.);
#844=ORIENTED_EDGE('',*,*,#554,.T.);
#845=ORIENTED_EDGE('',*,*,#568,.T.);
#846=ORIENTED_EDGE('',*,*,#566,.T.);
#847=PLANE('',#945);
#848=PLANE('',#946);
#849=PLANE('',#947);
#850=PLANE('',#958);
#851=PLANE('',#959);
#852=PLANE('',#960);
#853=PLANE('',#971);
#854=PLANE('',#972);
#855=PLANE('',#973);
#856=PLANE('',#975);
#857=PLANE('',#976);
#858=PLANE('',#977);
#859=PLANE('',#979);
#860=PLANE('',#980);
#861=PLANE('',#981);
#862=PLANE('',#983);
#863=PLANE('',#987);
#864=PLANE('',#988);
#865=PLANE('',#989);
#866=PLANE('',#990);
#867=PLANE('',#992);
#868=PLANE('',#996);
#869=PLANE('',#997);
#870=PLANE('',#998);
#871=PLANE('',#999);
#872=PLANE('',#1000);
#873=PLANE('',#1001);
#874=PLANE('',#1002);
#875=PLANE('',#1003);
#876=PLANE('',#1004);
#877=PLANE('',#1005);
#878=PLANE('',#1006);
#879=PLANE('',#1007);
#880=PLANE('',#1018);
#881=PLANE('',#1021);
#882=PLANE('',#1024);
#883=PLANE('',#1027);
#884=PLANE('',#1030);
#885=ADVANCED_FACE('',(#75),#847,.T.);
#886=ADVANCED_FACE('',(#76),#848,.T.);
#887=ADVANCED_FACE('',(#77),#849,.T.);
#888=ADVANCED_FACE('',(#78),#27,.T.);
#889=ADVANCED_FACE('',(#79),#850,.T.);
#890=ADVANCED_FACE('',(#80),#851,.T.);
#891=ADVANCED_FACE('',(#81),#852,.T.);
#892=ADVANCED_FACE('',(#82),#28,.T.);
#893=ADVANCED_FACE('',(#83),#853,.T.);
#894=ADVANCED_FACE('',(#84),#854,.T.);
#895=ADVANCED_FACE('',(#85),#855,.T.);
#896=ADVANCED_FACE('',(#86),#856,.T.);
#897=ADVANCED_FACE('',(#87),#857,.T.);
#898=ADVANCED_FACE('',(#88),#858,.T.);
#899=ADVANCED_FACE('',(#89),#859,.T.);
#900=ADVANCED_FACE('',(#90),#860,.T.);
#901=ADVANCED_FACE('',(#91),#861,.T.);
#902=ADVANCED_FACE('',(#92),#862,.F.);
#903=ADVANCED_FACE('',(#93),#863,.T.);
#904=ADVANCED_FACE('',(#94),#864,.T.);
#905=ADVANCED_FACE('',(#95),#865,.T.);
#906=ADVANCED_FACE('',(#96),#866,.T.);
#907=ADVANCED_FACE('',(#97),#867,.F.);
#908=ADVANCED_FACE('',(#98),#868,.T.);
#909=ADVANCED_FACE('',(#99),#869,.F.);
#910=ADVANCED_FACE('',(#100),#870,.F.);
#911=ADVANCED_FACE('',(#101),#871,.F.);
#912=ADVANCED_FACE('',(#102),#872,.F.);
#913=ADVANCED_FACE('',(#103),#873,.F.);
#914=ADVANCED_FACE('',(#104),#874,.F.);
#915=ADVANCED_FACE('',(#105),#875,.F.);
#916=ADVANCED_FACE('',(#106),#876,.F.);
#917=ADVANCED_FACE('',(#107,#15),#877,.F.);
#918=ADVANCED_FACE('',(#108,#16),#878,.T.);
#919=ADVANCED_FACE('',(#109,#17,#18),#879,.F.);
#920=ADVANCED_FACE('',(#110,#19,#20,#21),#29,.F.);
#921=ADVANCED_FACE('',(#111,#22,#23,#24),#30,.F.);
#922=ADVANCED_FACE('',(#112),#880,.T.);
#923=ADVANCED_FACE('',(#113),#31,.T.);
#924=ADVANCED_FACE('',(#114),#881,.T.);
#925=ADVANCED_FACE('',(#115),#32,.T.);
#926=ADVANCED_FACE('',(#116),#882,.T.);
#927=ADVANCED_FACE('',(#117),#33,.T.);
#928=ADVANCED_FACE('',(#118),#883,.T.);
#929=ADVANCED_FACE('',(#119),#34,.T.);
#930=ADVANCED_FACE('',(#120,#25,#26),#884,.T.);
#931=CLOSED_SHELL('',(#885,#886,#887,#888,#889,#890,#891,#892,#893,#894,
#895,#896,#897,#898,#899,#900,#901,#902,#903,#904,#905,#906,#907,#908,#909,
#910,#911,#912,#913,#914,#915,#916,#917,#918,#919,#920,#921,#922,#923,#924,
#925,#926,#927,#928,#929,#930));
#932=DERIVED_UNIT_ELEMENT(#934,1.);
#933=DERIVED_UNIT_ELEMENT(#1569,-3.);
#934=(
MASS_UNIT()
NAMED_UNIT(*)
SI_UNIT(.KILO.,.GRAM.)
);
#935=DERIVED_UNIT((#932,#933));
#936=MEASURE_REPRESENTATION_ITEM('density measure',
POSITIVE_RATIO_MEASURE(7850.),#935);
#937=PROPERTY_DEFINITION_REPRESENTATION(#942,#939);
#938=PROPERTY_DEFINITION_REPRESENTATION(#943,#940);
#939=REPRESENTATION('material name',(#941),#1566);
#940=REPRESENTATION('density',(#936),#1566);
#941=DESCRIPTIVE_REPRESENTATION_ITEM('\X2\94A2\X0\','\X2\94A2\X0\');
#942=PROPERTY_DEFINITION('material property','material name',#1576);
#943=PROPERTY_DEFINITION('material property','density of part',#1576);
#944=AXIS2_PLACEMENT_3D('',#1297,#1031,#1032);
#945=AXIS2_PLACEMENT_3D('',#1298,#1033,#1034);
#946=AXIS2_PLACEMENT_3D('',#1307,#1039,#1040);
#947=AXIS2_PLACEMENT_3D('',#1316,#1045,#1046);
#948=AXIS2_PLACEMENT_3D('',#1317,#1047,#1048);
#949=AXIS2_PLACEMENT_3D('',#1318,#1049,#1050);
#950=AXIS2_PLACEMENT_3D('',#1319,#1051,#1052);
#951=AXIS2_PLACEMENT_3D('',#1321,#1053,#1054);
#952=AXIS2_PLACEMENT_3D('',#1325,#1056,#1057);
#953=AXIS2_PLACEMENT_3D('',#1329,#1059,#1060);
#954=AXIS2_PLACEMENT_3D('',#1332,#1062,#1063);
#955=AXIS2_PLACEMENT_3D('',#1334,#1064,#1065);
#956=AXIS2_PLACEMENT_3D('',#1338,#1067,#1068);
#957=AXIS2_PLACEMENT_3D('',#1341,#1070,#1071);
#958=AXIS2_PLACEMENT_3D('',#1342,#1072,#1073);
#959=AXIS2_PLACEMENT_3D('',#1351,#1078,#1079);
#960=AXIS2_PLACEMENT_3D('',#1360,#1084,#1085);
#961=AXIS2_PLACEMENT_3D('',#1361,#1086,#1087);
#962=AXIS2_PLACEMENT_3D('',#1362,#1088,#1089);
#963=AXIS2_PLACEMENT_3D('',#1363,#1090,#1091);
#964=AXIS2_PLACEMENT_3D('',#1365,#1092,#1093);
#965=AXIS2_PLACEMENT_3D('',#1369,#1095,#1096);
#966=AXIS2_PLACEMENT_3D('',#1373,#1098,#1099);
#967=AXIS2_PLACEMENT_3D('',#1377,#1101,#1102);
#968=AXIS2_PLACEMENT_3D('',#1381,#1104,#1105);
#969=AXIS2_PLACEMENT_3D('',#1384,#1107,#1108);
#970=AXIS2_PLACEMENT_3D('',#1385,#1109,#1110);
#971=AXIS2_PLACEMENT_3D('',#1386,#1111,#1112);
#972=AXIS2_PLACEMENT_3D('',#1392,#1116,#1117);
#973=AXIS2_PLACEMENT_3D('',#1398,#1121,#1122);
#974=AXIS2_PLACEMENT_3D('',#1399,#1123,#1124);
#975=AXIS2_PLACEMENT_3D('',#1400,#1125,#1126);
#976=AXIS2_PLACEMENT_3D('',#1406,#1130,#1131);
#977=AXIS2_PLACEMENT_3D('',#1412,#1135,#1136);
#978=AXIS2_PLACEMENT_3D('',#1413,#1137,#1138);
#979=AXIS2_PLACEMENT_3D('',#1414,#1139,#1140);
#980=AXIS2_PLACEMENT_3D('',#1420,#1144,#1145);
#981=AXIS2_PLACEMENT_3D('',#1426,#1149,#1150);
#982=AXIS2_PLACEMENT_3D('',#1427,#1151,#1152);
#983=AXIS2_PLACEMENT_3D('',#1428,#1153,#1154);
#984=AXIS2_PLACEMENT_3D('',#1429,#1155,#1156);
#985=AXIS2_PLACEMENT_3D('',#1430,#1157,#1158);
#986=AXIS2_PLACEMENT_3D('',#1431,#1159,#1160);
#987=AXIS2_PLACEMENT_3D('',#1432,#1161,#1162);
#988=AXIS2_PLACEMENT_3D('',#1433,#1163,#1164);
#989=AXIS2_PLACEMENT_3D('',#1439,#1168,#1169);
#990=AXIS2_PLACEMENT_3D('',#1445,#1173,#1174);
#991=AXIS2_PLACEMENT_3D('',#1446,#1175,#1176);
#992=AXIS2_PLACEMENT_3D('',#1447,#1177,#1178);
#993=AXIS2_PLACEMENT_3D('',#1448,#1179,#1180);
#994=AXIS2_PLACEMENT_3D('',#1449,#1181,#1182);
#995=AXIS2_PLACEMENT_3D('',#1450,#1183,#1184);
#996=AXIS2_PLACEMENT_3D('',#1451,#1185,#1186);
#997=AXIS2_PLACEMENT_3D('',#1452,#1187,#1188);
#998=AXIS2_PLACEMENT_3D('',#1461,#1193,#1194);
#999=AXIS2_PLACEMENT_3D('',#1467,#1198,#1199);
#1000=AXIS2_PLACEMENT_3D('',#1473,#1203,#1204);
#1001=AXIS2_PLACEMENT_3D('',#1476,#1207,#1208);
#1002=AXIS2_PLACEMENT_3D('',#1485,#1213,#1214);
#1003=AXIS2_PLACEMENT_3D('',#1491,#1218,#1219);
#1004=AXIS2_PLACEMENT_3D('',#1497,#1223,#1224);
#1005=AXIS2_PLACEMENT_3D('',#1500,#1227,#1228);
#1006=AXIS2_PLACEMENT_3D('',#1501,#1229,#1230);
#1007=AXIS2_PLACEMENT_3D('',#1510,#1235,#1236);
#1008=AXIS2_PLACEMENT_3D('',#1512,#1237,#1238);
#1009=AXIS2_PLACEMENT_3D('',#1514,#1239,#1240);
#1010=AXIS2_PLACEMENT_3D('',#1518,#1242,#1243);
#1011=AXIS2_PLACEMENT_3D('',#1522,#1245,#1246);
#1012=AXIS2_PLACEMENT_3D('',#1525,#1248,#1249);
#1013=AXIS2_PLACEMENT_3D('',#1527,#1250,#1251);
#1014=AXIS2_PLACEMENT_3D('',#1528,#1252,#1253);
#1015=AXIS2_PLACEMENT_3D('',#1530,#1254,#1255);
#1016=AXIS2_PLACEMENT_3D('',#1532,#1257,#1258);
#1017=AXIS2_PLACEMENT_3D('',#1534,#1259,#1260);
#1018=AXIS2_PLACEMENT_3D('',#1536,#1262,#1263);
#1019=AXIS2_PLACEMENT_3D('',#1537,#1264,#1265);
#1020=AXIS2_PLACEMENT_3D('',#1539,#1266,#1267);
#1021=AXIS2_PLACEMENT_3D('',#1541,#1269,#1270);
#1022=AXIS2_PLACEMENT_3D('',#1545,#1273,#1274);
#1023=AXIS2_PLACEMENT_3D('',#1547,#1275,#1276);
#1024=AXIS2_PLACEMENT_3D('',#1549,#1278,#1279);
#1025=AXIS2_PLACEMENT_3D('',#1553,#1282,#1283);
#1026=AXIS2_PLACEMENT_3D('',#1555,#1284,#1285);
#1027=AXIS2_PLACEMENT_3D('',#1557,#1287,#1288);
#1028=AXIS2_PLACEMENT_3D('',#1561,#1291,#1292);
#1029=AXIS2_PLACEMENT_3D('',#1562,#1293,#1294);
#1030=AXIS2_PLACEMENT_3D('',#1563,#1295,#1296);
#1031=DIRECTION('axis',(0.,0.,1.));
#1032=DIRECTION('refdir',(1.,0.,0.));
#1033=DIRECTION('center_axis',(-0.576907432757315,0.816809533507882,0.));
#1034=DIRECTION('ref_axis',(0.816809533507882,0.576907432757315,0.));
#1035=DIRECTION('',(-0.816809533507882,-0.576907432757315,0.));
#1036=DIRECTION('',(0.,0.,-1.));
#1037=DIRECTION('',(0.816809533507882,0.576907432757315,0.));
#1038=DIRECTION('',(0.,0.,1.));
#1039=DIRECTION('center_axis',(0.576907432757316,-0.816809533507882,0.));
#1040=DIRECTION('ref_axis',(-0.816809533507882,-0.576907432757316,0.));
#1041=DIRECTION('',(0.816809533507882,0.576907432757316,0.));
#1042=DIRECTION('',(0.,0.,-1.));
#1043=DIRECTION('',(0.816809533507882,0.576907432757316,0.));
#1044=DIRECTION('',(0.,0.,1.));
#1045=DIRECTION('center_axis',(0.,0.,1.));
#1046=DIRECTION('ref_axis',(1.,0.,0.));
#1047=DIRECTION('center_axis',(0.,0.,1.));
#1048=DIRECTION('ref_axis',(1.,0.,0.));
#1049=DIRECTION('center_axis',(0.,0.,-1.));
#1050=DIRECTION('ref_axis',(1.,0.,0.));
#1051=DIRECTION('center_axis',(0.,0.,1.));
#1052=DIRECTION('ref_axis',(1.,0.,0.));
#1053=DIRECTION('center_axis',(0.,0.,1.));
#1054=DIRECTION('ref_axis',(1.,0.,0.));
#1055=DIRECTION('',(0.,0.,-1.));
#1056=DIRECTION('center_axis',(0.,0.,-1.));
#1057=DIRECTION('ref_axis',(1.,0.,0.));
#1058=DIRECTION('',(0.,0.,1.));
#1059=DIRECTION('center_axis',(0.,0.,1.));
#1060=DIRECTION('ref_axis',(1.,0.,0.));
#1061=DIRECTION('',(0.,0.,-1.));
#1062=DIRECTION('center_axis',(0.,0.,-1.));
#1063=DIRECTION('ref_axis',(1.,0.,0.));
#1064=DIRECTION('center_axis',(0.,0.,-1.));
#1065=DIRECTION('ref_axis',(1.,0.,0.));
#1066=DIRECTION('',(0.,0.,1.));
#1067=DIRECTION('center_axis',(0.,0.,1.));
#1068=DIRECTION('ref_axis',(1.,0.,0.));
#1069=DIRECTION('',(0.,0.,-1.));
#1070=DIRECTION('center_axis',(0.,0.,-1.));
#1071=DIRECTION('ref_axis',(1.,0.,0.));
#1072=DIRECTION('center_axis',(-0.576907432757316,-0.816809533507882,0.));
#1073=DIRECTION('ref_axis',(-0.816809533507882,0.576907432757316,0.));
#1074=DIRECTION('',(0.816809533507882,-0.576907432757316,0.));
#1075=DIRECTION('',(0.,0.,-1.));
#1076=DIRECTION('',(-0.816809533507882,0.576907432757316,0.));
#1077=DIRECTION('',(0.,0.,1.));
#1078=DIRECTION('center_axis',(0.576907432757315,0.816809533507882,0.));
#1079=DIRECTION('ref_axis',(0.816809533507882,-0.576907432757315,0.));
#1080=DIRECTION('',(-0.816809533507882,0.576907432757315,0.));
#1081=DIRECTION('',(0.,0.,-1.));
#1082=DIRECTION('',(-0.816809533507882,0.576907432757315,0.));
#1083=DIRECTION('',(0.,0.,1.));
#1084=DIRECTION('center_axis',(0.,0.,1.));
#1085=DIRECTION('ref_axis',(1.,0.,0.));
#1086=DIRECTION('center_axis',(0.,0.,1.));
#1087=DIRECTION('ref_axis',(1.,0.,0.));
#1088=DIRECTION('center_axis',(0.,0.,-1.));
#1089=DIRECTION('ref_axis',(1.,0.,0.));
#1090=DIRECTION('center_axis',(0.,0.,1.));
#1091=DIRECTION('ref_axis',(1.,0.,0.));
#1092=DIRECTION('center_axis',(0.,0.,1.));
#1093=DIRECTION('ref_axis',(1.,0.,0.));
#1094=DIRECTION('',(0.,0.,-1.));
#1095=DIRECTION('center_axis',(0.,0.,-1.));
#1096=DIRECTION('ref_axis',(1.,0.,0.));
#1097=DIRECTION('',(0.,0.,1.));
#1098=DIRECTION('center_axis',(0.,0.,1.));
#1099=DIRECTION('ref_axis',(1.,0.,0.));
#1100=DIRECTION('',(0.,0.,-1.));
#1101=DIRECTION('center_axis',(0.,0.,-1.));
#1102=DIRECTION('ref_axis',(1.,0.,0.));
#1103=DIRECTION('',(0.,0.,1.));
#1104=DIRECTION('center_axis',(0.,0.,1.));
#1105=DIRECTION('ref_axis',(1.,0.,0.));
#1106=DIRECTION('',(0.,0.,-1.));
#1107=DIRECTION('center_axis',(0.,0.,-1.));
#1108=DIRECTION('ref_axis',(1.,0.,0.));
#1109=DIRECTION('center_axis',(0.,0.,-1.));
#1110=DIRECTION('ref_axis',(1.,0.,0.));
#1111=DIRECTION('center_axis',(-0.418924089692484,0.908021259153839,0.));
#1112=DIRECTION('ref_axis',(0.908021259153839,0.418924089692484,0.));
#1113=DIRECTION('',(-0.908021259153839,-0.418924089692484,0.));
#1114=DIRECTION('',(0.908021259153839,0.418924089692484,0.));
#1115=DIRECTION('',(0.,0.,1.));
#1116=DIRECTION('center_axis',(0.418924089692485,-0.908021259153839,0.));
#1117=DIRECTION('ref_axis',(-0.908021259153839,-0.418924089692485,0.));
#1118=DIRECTION('',(0.908021259153839,0.418924089692485,0.));
#1119=DIRECTION('',(0.,0.,-1.));
#1120=DIRECTION('',(0.908021259153839,0.418924089692485,0.));
#1121=DIRECTION('center_axis',(0.,0.,1.));
#1122=DIRECTION('ref_axis',(1.,0.,0.));
#1123=DIRECTION('center_axis',(0.,0.,-1.));
#1124=DIRECTION('ref_axis',(1.,0.,0.));
#1125=DIRECTION('center_axis',(-0.418924089692485,-0.908021259153839,0.));
#1126=DIRECTION('ref_axis',(-0.908021259153839,0.418924089692485,0.));
#1127=DIRECTION('',(0.908021259153839,-0.418924089692485,0.));
#1128=DIRECTION('',(-0.908021259153839,0.418924089692485,0.));
#1129=DIRECTION('',(0.,0.,1.));
#1130=DIRECTION('center_axis',(0.418924089692485,0.908021259153839,0.));
#1131=DIRECTION('ref_axis',(0.908021259153839,-0.418924089692484,0.));
#1132=DIRECTION('',(-0.908021259153839,0.418924089692484,0.));
#1133=DIRECTION('',(0.,0.,-1.));
#1134=DIRECTION('',(-0.908021259153839,0.418924089692484,0.));
#1135=DIRECTION('center_axis',(0.,0.,1.));
#1136=DIRECTION('ref_axis',(1.,0.,0.));
#1137=DIRECTION('center_axis',(0.,0.,-1.));
#1138=DIRECTION('ref_axis',(1.,0.,0.));
#1139=DIRECTION('center_axis',(0.9958315224498,-0.0912117256459571,0.));
#1140=DIRECTION('ref_axis',(-0.0912117256459571,-0.9958315224498,0.));
#1141=DIRECTION('',(0.0912117256459571,0.9958315224498,0.));
#1142=DIRECTION('',(-0.0912117256459571,-0.9958315224498,0.));
#1143=DIRECTION('',(0.,0.,1.));
#1144=DIRECTION('center_axis',(-0.9958315224498,0.0912117256459562,0.));
#1145=DIRECTION('ref_axis',(0.0912117256459562,0.9958315224498,0.));
#1146=DIRECTION('',(-0.0912117256459562,-0.9958315224498,0.));
#1147=DIRECTION('',(0.,0.,-1.));
#1148=DIRECTION('',(-0.0912117256459562,-0.9958315224498,0.));
#1149=DIRECTION('center_axis',(0.,0.,1.));
#1150=DIRECTION('ref_axis',(1.,0.,0.));
#1151=DIRECTION('center_axis',(0.,0.,-1.));
#1152=DIRECTION('ref_axis',(1.,0.,0.));
#1153=DIRECTION('center_axis',(0.,0.,1.));
#1154=DIRECTION('ref_axis',(1.,0.,0.));
#1155=DIRECTION('center_axis',(0.,0.,1.));
#1156=DIRECTION('ref_axis',(1.,0.,0.));
#1157=DIRECTION('center_axis',(0.,0.,1.));
#1158=DIRECTION('ref_axis',(1.,0.,0.));
#1159=DIRECTION('center_axis',(0.,0.,1.));
#1160=DIRECTION('ref_axis',(1.,0.,0.));
#1161=DIRECTION('center_axis',(0.,0.,1.));
#1162=DIRECTION('ref_axis',(1.,0.,0.));
#1163=DIRECTION('center_axis',(0.9958315224498,0.0912117256459563,0.));
#1164=DIRECTION('ref_axis',(0.0912117256459563,-0.9958315224498,0.));
#1165=DIRECTION('',(-0.0912117256459563,0.9958315224498,0.));
#1166=DIRECTION('',(0.0912117256459563,-0.9958315224498,0.));
#1167=DIRECTION('',(0.,0.,1.));
#1168=DIRECTION('center_axis',(-0.9958315224498,-0.0912117256459571,0.));
#1169=DIRECTION('ref_axis',(-0.0912117256459571,0.9958315224498,0.));
#1170=DIRECTION('',(0.0912117256459571,-0.9958315224498,0.));
#1171=DIRECTION('',(0.,0.,-1.));
#1172=DIRECTION('',(0.0912117256459571,-0.9958315224498,0.));
#1173=DIRECTION('center_axis',(0.,0.,1.));
#1174=DIRECTION('ref_axis',(1.,0.,0.));
#1175=DIRECTION('center_axis',(0.,0.,-1.));
#1176=DIRECTION('ref_axis',(1.,0.,0.));
#1177=DIRECTION('center_axis',(0.,0.,1.));
#1178=DIRECTION('ref_axis',(1.,0.,0.));
#1179=DIRECTION('center_axis',(0.,0.,1.));
#1180=DIRECTION('ref_axis',(1.,0.,0.));
#1181=DIRECTION('center_axis',(0.,0.,1.));
#1182=DIRECTION('ref_axis',(1.,0.,0.));
#1183=DIRECTION('center_axis',(0.,0.,1.));
#1184=DIRECTION('ref_axis',(1.,0.,0.));
#1185=DIRECTION('center_axis',(0.,0.,1.));
#1186=DIRECTION('ref_axis',(1.,0.,0.));
#1187=DIRECTION('center_axis',(0.,1.,0.));
#1188=DIRECTION('ref_axis',(0.,0.,1.));
#1189=DIRECTION('',(0.,0.,1.));
#1190=DIRECTION('',(1.,0.,0.));
#1191=DIRECTION('',(0.,0.,1.));
#1192=DIRECTION('',(1.,0.,0.));
#1193=DIRECTION('center_axis',(0.,0.,1.));
#1194=DIRECTION('ref_axis',(0.,-1.,0.));
#1195=DIRECTION('',(0.,-1.,0.));
#1196=DIRECTION('',(1.,0.,0.));
#1197=DIRECTION('',(0.,-1.,0.));
#1198=DIRECTION('center_axis',(0.,-1.,3.88578058618805E-15));
#1199=DIRECTION('ref_axis',(0.,-3.88578058618805E-15,-1.));
#1200=DIRECTION('',(0.,-3.88578058618805E-15,-1.));
#1201=DIRECTION('',(1.,0.,0.));
#1202=DIRECTION('',(0.,-3.88578058618805E-15,-1.));
#1203=DIRECTION('center_axis',(0.,0.,-1.));
#1204=DIRECTION('ref_axis',(0.,1.,0.));
#1205=DIRECTION('',(0.,1.,0.));
#1206=DIRECTION('',(0.,1.,0.));
#1207=DIRECTION('center_axis',(0.,-1.,0.));
#1208=DIRECTION('ref_axis',(0.,0.,-1.));
#1209=DIRECTION('',(0.,0.,-1.));
#1210=DIRECTION('',(1.,0.,0.));
#1211=DIRECTION('',(0.,0.,-1.));
#1212=DIRECTION('',(1.,0.,0.));
#1213=DIRECTION('center_axis',(0.,0.,1.));
#1214=DIRECTION('ref_axis',(0.,-1.,0.));
#1215=DIRECTION('',(0.,-1.,0.));
#1216=DIRECTION('',(1.,0.,0.));
#1217=DIRECTION('',(0.,-1.,0.));
#1218=DIRECTION('center_axis',(0.,1.,0.));
#1219=DIRECTION('ref_axis',(0.,0.,1.));
#1220=DIRECTION('',(0.,0.,1.));
#1221=DIRECTION('',(1.,0.,0.));
#1222=DIRECTION('',(0.,0.,1.));
#1223=DIRECTION('center_axis',(0.,0.,-1.));
#1224=DIRECTION('ref_axis',(0.,1.,0.));
#1225=DIRECTION('',(0.,1.,0.));
#1226=DIRECTION('',(0.,1.,0.));
#1227=DIRECTION('center_axis',(1.,0.,0.));
#1228=DIRECTION('ref_axis',(0.,0.,-1.));
#1229=DIRECTION('center_axis',(-1.,0.,0.));
#1230=DIRECTION('ref_axis',(0.,-1.,0.));
#1231=DIRECTION('',(0.,0.,-1.));
#1232=DIRECTION('',(0.,-1.,0.));
#1233=DIRECTION('',(0.,0.,1.));
#1234=DIRECTION('',(0.,1.,0.));
#1235=DIRECTION('center_axis',(0.,0.,1.));
#1236=DIRECTION('ref_axis',(1.,0.,0.));
#1237=DIRECTION('center_axis',(0.,0.,-1.));
#1238=DIRECTION('ref_axis',(-1.,-7.40148683083436E-16,0.));
#1239=DIRECTION('center_axis',(0.,0.,-1.));
#1240=DIRECTION('ref_axis',(0.,1.,0.));
#1241=DIRECTION('',(1.,0.,0.));
#1242=DIRECTION('center_axis',(0.,0.,-1.));
#1243=DIRECTION('ref_axis',(1.,0.,0.));
#1244=DIRECTION('',(0.,-1.,0.));
#1245=DIRECTION('center_axis',(0.,0.,-1.));
#1246=DIRECTION('ref_axis',(0.,-1.,0.));
#1247=DIRECTION('',(-1.,0.,0.));
#1248=DIRECTION('center_axis',(0.,0.,1.));
#1249=DIRECTION('ref_axis',(1.,0.,0.));
#1250=DIRECTION('center_axis',(0.,0.,1.));
#1251=DIRECTION('ref_axis',(1.,0.,0.));
#1252=DIRECTION('center_axis',(0.,0.,1.));
#1253=DIRECTION('ref_axis',(1.,0.,0.));
#1254=DIRECTION('center_axis',(0.,0.,-1.));
#1255=DIRECTION('ref_axis',(1.,0.,0.));
#1256=DIRECTION('',(0.,0.,-1.));
#1257=DIRECTION('center_axis',(0.,0.,1.));
#1258=DIRECTION('ref_axis',(1.,0.,0.));
#1259=DIRECTION('center_axis',(0.,0.,-1.));
#1260=DIRECTION('ref_axis',(1.,0.,0.));
#1261=DIRECTION('',(0.,0.,-1.));
#1262=DIRECTION('center_axis',(-1.,0.,0.));
#1263=DIRECTION('ref_axis',(0.,-1.,0.));
#1264=DIRECTION('center_axis',(0.,0.,1.));
#1265=DIRECTION('ref_axis',(0.,1.,0.));
#1266=DIRECTION('center_axis',(0.,0.,1.));
#1267=DIRECTION('ref_axis',(0.,1.,0.));
#1268=DIRECTION('',(0.,0.,1.));
#1269=DIRECTION('center_axis',(0.,1.,0.));
#1270=DIRECTION('ref_axis',(-1.,0.,0.));
#1271=DIRECTION('',(-1.,0.,0.));
#1272=DIRECTION('',(0.,0.,1.));
#1273=DIRECTION('center_axis',(0.,0.,1.));
#1274=DIRECTION('ref_axis',(1.,0.,0.));
#1275=DIRECTION('center_axis',(0.,0.,1.));
#1276=DIRECTION('ref_axis',(1.,0.,0.));
#1277=DIRECTION('',(0.,0.,1.));
#1278=DIRECTION('center_axis',(1.,0.,0.));
#1279=DIRECTION('ref_axis',(0.,1.,0.));
#1280=DIRECTION('',(0.,1.,0.));
#1281=DIRECTION('',(0.,0.,1.));
#1282=DIRECTION('center_axis',(0.,0.,1.));
#1283=DIRECTION('ref_axis',(0.,-1.,0.));
#1284=DIRECTION('center_axis',(0.,0.,1.));
#1285=DIRECTION('ref_axis',(0.,-1.,0.));
#1286=DIRECTION('',(0.,0.,1.));
#1287=DIRECTION('center_axis',(0.,-1.,0.));
#1288=DIRECTION('ref_axis',(1.,0.,0.));
#1289=DIRECTION('',(1.,0.,0.));
#1290=DIRECTION('',(0.,0.,1.));
#1291=DIRECTION('center_axis',(0.,0.,1.));
#1292=DIRECTION('ref_axis',(-1.,-7.40148683083436E-16,0.));
#1293=DIRECTION('center_axis',(0.,0.,1.));
#1294=DIRECTION('ref_axis',(-1.,-7.40148683083436E-16,0.));
#1295=DIRECTION('center_axis',(0.,0.,1.));
#1296=DIRECTION('ref_axis',(1.,0.,0.));
#1297=CARTESIAN_POINT('',(0.,0.,0.));
#1298=CARTESIAN_POINT('Origin',(25.5846360779417,5.11127633896653,0.));
#1299=CARTESIAN_POINT('',(29.7241116390144,8.03496187510883,-4.3));
#1300=CARTESIAN_POINT('',(25.5846360779417,5.11127633896653,-4.3));
#1301=CARTESIAN_POINT('',(16.3717742900185,-1.39570995879736,-4.3));
#1302=CARTESIAN_POINT('',(25.5846360779417,5.11127633896653,0.));
#1303=CARTESIAN_POINT('',(25.5846360779417,5.11127633896653,0.));
#1304=CARTESIAN_POINT('',(29.7241116390144,8.03496187510883,0.));
#1305=CARTESIAN_POINT('',(25.5846360779417,5.11127633896653,0.));
#1306=CARTESIAN_POINT('',(29.7241116390144,8.03496187510883,0.));
#1307=CARTESIAN_POINT('Origin',(30.7625450179776,6.56470471479465,0.));
#1308=CARTESIAN_POINT('',(26.6230694569048,3.64101917865235,-4.3));
#1309=CARTESIAN_POINT('',(30.7625450179776,6.56470471479465,-4.3));
#1310=CARTESIAN_POINT('',(19.4799454495181,-1.4041243510404,-4.3));
#1311=CARTESIAN_POINT('',(30.7625450179776,6.56470471479465,0.));
#1312=CARTESIAN_POINT('',(30.7625450179776,6.56470471479464,0.));
#1313=CARTESIAN_POINT('',(26.6230694569048,3.64101917865235,0.));
#1314=CARTESIAN_POINT('',(26.6230694569048,3.64101917865235,0.));
#1315=CARTESIAN_POINT('',(26.6230694569048,3.64101917865235,0.));
#1316=CARTESIAN_POINT('Origin',(28.1735905479596,5.83799052688059,0.));
#1317=CARTESIAN_POINT('Origin',(19.2,-0.499999999999998,0.));
#1318=CARTESIAN_POINT('Origin',(19.2,-0.499999999999998,0.));
#1319=CARTESIAN_POINT('Origin',(19.2,-0.499999999999998,0.));
#1320=CARTESIAN_POINT('',(10.7,-0.499999999999999,3.4));
#1321=CARTESIAN_POINT('Origin',(19.2,-0.499999999999998,3.4));
#1322=CARTESIAN_POINT('',(10.7,-0.499999999999999,-4.3));
#1323=CARTESIAN_POINT('',(10.7,-0.499999999999999,0.));
#1324=CARTESIAN_POINT('',(19.0746930778191,-8.99907631306212,-4.3));
#1325=CARTESIAN_POINT('Origin',(19.2,-0.499999999999998,-4.3));
#1326=CARTESIAN_POINT('',(19.0746930778191,-8.99907631306212,0.));
#1327=CARTESIAN_POINT('',(19.0746930778191,-8.99907631306212,0.));
#1328=CARTESIAN_POINT('',(20.8671898182287,-8.8348952068994,0.));
#1329=CARTESIAN_POINT('Origin',(19.2,-0.499999999999998,0.));
#1330=CARTESIAN_POINT('',(20.8671898182287,-8.8348952068994,-4.3));
#1331=CARTESIAN_POINT('',(20.8671898182287,-8.83489520689939,0.));
#1332=CARTESIAN_POINT('Origin',(19.2,-0.499999999999998,-4.3));
#1333=CARTESIAN_POINT('',(11.9022374652761,3.85805713440977,-4.3));
#1334=CARTESIAN_POINT('Origin',(19.2,-0.499999999999998,-4.3));
#1335=CARTESIAN_POINT('',(11.9022374652761,3.85805713440977,0.));
#1336=CARTESIAN_POINT('',(11.9022374652761,3.85805713440977,0.));
#1337=CARTESIAN_POINT('',(11.1481741038296,2.22361886793286,0.));
#1338=CARTESIAN_POINT('Origin',(19.2,-0.499999999999998,0.));
#1339=CARTESIAN_POINT('',(11.1481741038296,2.22361886793286,-4.3));
#1340=CARTESIAN_POINT('',(11.1481741038296,2.22361886793286,0.));
#1341=CARTESIAN_POINT('Origin',(19.2,-0.499999999999998,-4.3));
#1342=CARTESIAN_POINT('Origin',(-19.2230694569048,3.64101917865234,0.));
#1343=CARTESIAN_POINT('',(-23.3625450179776,6.56470471479464,-4.3));
#1344=CARTESIAN_POINT('',(-19.2230694569048,3.64101917865234,-4.3));
#1345=CARTESIAN_POINT('',(-10.0102076689817,-2.86596711911156,-4.3));
#1346=CARTESIAN_POINT('',(-19.2230694569048,3.64101917865234,0.));
#1347=CARTESIAN_POINT('',(-19.2230694569048,3.64101917865234,0.));
#1348=CARTESIAN_POINT('',(-23.3625450179776,6.56470471479464,0.));
#1349=CARTESIAN_POINT('',(-19.2230694569048,3.64101917865234,0.));
#1350=CARTESIAN_POINT('',(-23.3625450179776,6.56470471479464,0.));
#1351=CARTESIAN_POINT('Origin',(-22.3241116390144,8.03496187510882,0.));
#1352=CARTESIAN_POINT('',(-18.1846360779417,5.11127633896653,-4.3));
#1353=CARTESIAN_POINT('',(-22.3241116390144,8.03496187510882,-4.3));
#1354=CARTESIAN_POINT('',(-11.0415120705549,0.0661328092737867,-4.3));
#1355=CARTESIAN_POINT('',(-22.3241116390144,8.03496187510882,0.));
#1356=CARTESIAN_POINT('',(-22.3241116390144,8.03496187510882,0.));
#1357=CARTESIAN_POINT('',(-18.1846360779417,5.11127633896653,0.));
#1358=CARTESIAN_POINT('',(-18.1846360779417,5.11127633896653,0.));
#1359=CARTESIAN_POINT('',(-18.1846360779417,5.11127633896653,0.));
#1360=CARTESIAN_POINT('Origin',(-20.7735905479596,5.83799052688058,0.));
#1361=CARTESIAN_POINT('Origin',(-11.8,-0.5,0.));
#1362=CARTESIAN_POINT('Origin',(-11.8,-0.5,0.));
#1363=CARTESIAN_POINT('Origin',(-11.8,-0.5,0.));
#1364=CARTESIAN_POINT('',(-20.3,-0.500000000000001,3.4));
#1365=CARTESIAN_POINT('Origin',(-11.8,-0.5,3.4));
#1366=CARTESIAN_POINT('',(-20.3,-0.500000000000001,-4.3));
#1367=CARTESIAN_POINT('',(-20.3,-0.500000000000001,0.));
#1368=CARTESIAN_POINT('',(-13.4671898182287,-8.8348952068994,-4.3));
#1369=CARTESIAN_POINT('Origin',(-11.8,-0.5,-4.3));
#1370=CARTESIAN_POINT('',(-13.4671898182287,-8.8348952068994,0.));
#1371=CARTESIAN_POINT('',(-13.4671898182287,-8.83489520689939,0.));
#1372=CARTESIAN_POINT('',(-11.6746930778191,-8.99907631306212,0.));
#1373=CARTESIAN_POINT('Origin',(-11.8,-0.5,0.));
#1374=CARTESIAN_POINT('',(-11.6746930778191,-8.99907631306212,-4.3));
#1375=CARTESIAN_POINT('',(-11.6746930778191,-8.99907631306212,0.));
#1376=CARTESIAN_POINT('',(-3.74817410382962,2.22361886793286,-4.3));
#1377=CARTESIAN_POINT('Origin',(-11.8,-0.5,-4.3));
#1378=CARTESIAN_POINT('',(-3.74817410382962,2.22361886793286,0.));
#1379=CARTESIAN_POINT('',(-3.74817410382962,2.22361886793286,0.));
#1380=CARTESIAN_POINT('',(-4.50223746527609,3.85805713440977,0.));
#1381=CARTESIAN_POINT('Origin',(-11.8,-0.5,0.));
#1382=CARTESIAN_POINT('',(-4.50223746527609,3.85805713440977,-4.3));
#1383=CARTESIAN_POINT('',(-4.50223746527609,3.85805713440977,0.));
#1384=CARTESIAN_POINT('Origin',(-11.8,-0.5,-4.3));
#1385=CARTESIAN_POINT('Origin',(-11.8,-0.5,-4.3));
#1386=CARTESIAN_POINT('Origin',(-4.50223746527609,3.85805713440977,0.));
#1387=CARTESIAN_POINT('',(0.0994862622366388,5.98110536057247,-4.3));
#1388=CARTESIAN_POINT('',(-2.42626098452379,4.81582827539891,-4.3));
#1389=CARTESIAN_POINT('',(0.0994862622366388,5.98110536057247,0.));
#1390=CARTESIAN_POINT('',(-4.50223746527609,3.85805713440977,0.));
#1391=CARTESIAN_POINT('',(0.0994862622366433,5.98110536057247,0.));
#1392=CARTESIAN_POINT('Origin',(0.853549623683109,4.34666709409556,0.));
#1393=CARTESIAN_POINT('',(0.85354962368311,4.34666709409556,-4.3));
#1394=CARTESIAN_POINT('',(0.628664240679039,4.24291412200335,-4.3));
#1395=CARTESIAN_POINT('',(0.85354962368311,4.34666709409556,0.));
#1396=CARTESIAN_POINT('',(0.853549623683114,4.34666709409556,0.));
#1397=CARTESIAN_POINT('',(-3.74817410382962,2.22361886793286,0.));
#1398=CARTESIAN_POINT('Origin',(-1.82434392079649,4.10236211425267,0.));
#1399=CARTESIAN_POINT('Origin',(-11.8,-0.5,0.));
#1400=CARTESIAN_POINT('Origin',(11.1481741038296,2.22361886793286,0.));
#1401=CARTESIAN_POINT('',(6.54645037631688,4.34666709409556,-4.3));
#1402=CARTESIAN_POINT('',(9.07219762307731,3.181390008922,-4.3));
#1403=CARTESIAN_POINT('',(6.54645037631688,4.34666709409556,0.));
#1404=CARTESIAN_POINT('',(11.1481741038296,2.22361886793286,0.));
#1405=CARTESIAN_POINT('',(6.54645037631687,4.34666709409556,0.));
#1406=CARTESIAN_POINT('Origin',(7.30051373776335,5.98110536057247,0.));
#1407=CARTESIAN_POINT('',(7.30051373776335,5.98110536057247,-4.3));
#1408=CARTESIAN_POINT('',(7.52539912076742,5.87735238848025,-4.3));
#1409=CARTESIAN_POINT('',(7.30051373776335,5.98110536057247,0.));
#1410=CARTESIAN_POINT('',(7.30051373776334,5.98110536057247,0.));
#1411=CARTESIAN_POINT('',(11.9022374652761,3.85805713440977,0.));
#1412=CARTESIAN_POINT('Origin',(9.22434392079648,4.10236211425267,0.));
#1413=CARTESIAN_POINT('Origin',(19.2,-0.499999999999998,0.));
#1414=CARTESIAN_POINT('Origin',(-11.6746930778191,-8.99907631306212,0.));
#1415=CARTESIAN_POINT('',(-12.1369412442591,-14.0458100753671,-4.3));
#1416=CARTESIAN_POINT('',(-11.3385313464945,-5.32892923138421,-4.3));
#1417=CARTESIAN_POINT('',(-12.1369412442591,-14.0458100753671,0.));
#1418=CARTESIAN_POINT('',(-11.6746930778191,-8.99907631306212,0.));
#1419=CARTESIAN_POINT('',(-12.1369412442591,-14.0458100753671,0.));
#1420=CARTESIAN_POINT('Origin',(-13.9294379846687,-13.8816289692044,0.));
#1421=CARTESIAN_POINT('',(-13.9294379846687,-13.8816289692044,-4.3));
#1422=CARTESIAN_POINT('',(-13.3621521701241,-7.688115006374,-4.3));
#1423=CARTESIAN_POINT('',(-13.9294379846687,-13.8816289692044,0.));
#1424=CARTESIAN_POINT('',(-13.9294379846687,-13.8816289692044,0.));
#1425=CARTESIAN_POINT('',(-13.4671898182287,-8.8348952068994,0.));
#1426=CARTESIAN_POINT('Origin',(-12.8020655312439,-11.4403526411333,0.));
#1427=CARTESIAN_POINT('Origin',(-11.8,-0.5,0.));
#1428=CARTESIAN_POINT('Origin',(-11.8,-0.5,-4.3));
#1429=CARTESIAN_POINT('Origin',(-11.8,-0.5,-4.3));
#1430=CARTESIAN_POINT('Origin',(-11.8,-0.5,-4.3));
#1431=CARTESIAN_POINT('Origin',(-11.8,-0.5,-4.3));
#1432=CARTESIAN_POINT('Origin',(-11.8,-0.5,3.4));
#1433=CARTESIAN_POINT('Origin',(20.8671898182287,-8.8348952068994,0.));
#1434=CARTESIAN_POINT('',(21.3294379846687,-13.8816289692044,-4.3));
#1435=CARTESIAN_POINT('',(20.5310280869042,-5.1647481252215,-4.3));
#1436=CARTESIAN_POINT('',(21.3294379846687,-13.8816289692044,0.));
#1437=CARTESIAN_POINT('',(20.8671898182287,-8.8348952068994,0.));
#1438=CARTESIAN_POINT('',(21.3294379846687,-13.8816289692044,0.));
#1439=CARTESIAN_POINT('Origin',(19.5369412442591,-14.0458100753671,0.));
#1440=CARTESIAN_POINT('',(19.5369412442591,-14.0458100753671,-4.3));
#1441=CARTESIAN_POINT('',(18.9696554297145,-7.85229611253671,-4.3));
#1442=CARTESIAN_POINT('',(19.5369412442591,-14.0458100753671,0.));
#1443=CARTESIAN_POINT('',(19.5369412442591,-14.0458100753671,0.));
#1444=CARTESIAN_POINT('',(19.0746930778191,-8.99907631306212,0.));
#1445=CARTESIAN_POINT('Origin',(20.2020655312439,-11.4403526411333,0.));
#1446=CARTESIAN_POINT('Origin',(19.2,-0.499999999999998,0.));
#1447=CARTESIAN_POINT('Origin',(19.2,-0.499999999999998,-4.3));
#1448=CARTESIAN_POINT('Origin',(19.2,-0.499999999999998,-4.3));
#1449=CARTESIAN_POINT('Origin',(19.2,-0.499999999999998,-4.3));
#1450=CARTESIAN_POINT('Origin',(19.2,-0.499999999999998,-4.3));
#1451=CARTESIAN_POINT('Origin',(19.2,-0.499999999999998,3.4));
#1452=CARTESIAN_POINT('Origin',(-36.25,-10.45,1.4));
#1453=CARTESIAN_POINT('',(-36.25,-10.45,1.4));
#1454=CARTESIAN_POINT('',(-36.25,-10.45,3.4));
#1455=CARTESIAN_POINT('',(-36.25,-10.45,0.7));
#1456=CARTESIAN_POINT('',(-31.25,-10.45,1.4));
#1457=CARTESIAN_POINT('',(-36.25,-10.45,1.4));
#1458=CARTESIAN_POINT('',(-31.25,-10.45,3.4));
#1459=CARTESIAN_POINT('',(-31.25,-10.45,3.4));
#1460=CARTESIAN_POINT('',(-36.25,-10.45,3.4));
#1461=CARTESIAN_POINT('Origin',(-36.25,-2.95000000000001,1.4));
#1462=CARTESIAN_POINT('',(-36.25,-2.95000000000001,1.4));
#1463=CARTESIAN_POINT('',(-36.25,5.85,1.4));
#1464=CARTESIAN_POINT('',(-31.25,-2.95000000000001,1.4));
#1465=CARTESIAN_POINT('',(-36.25,-2.95000000000001,1.4));
#1466=CARTESIAN_POINT('',(-31.25,-10.45,1.4));
#1467=CARTESIAN_POINT('Origin',(-36.25,-2.95,3.4));
#1468=CARTESIAN_POINT('',(-36.25,-2.95,3.4));
#1469=CARTESIAN_POINT('',(-36.25,-2.95000000000001,1.70000000000003));
#1470=CARTESIAN_POINT('',(-31.25,-2.95,3.4));
#1471=CARTESIAN_POINT('',(-36.25,-2.95,3.4));
#1472=CARTESIAN_POINT('',(-31.25,-2.95000000000001,1.4));
#1473=CARTESIAN_POINT('Origin',(-36.25,-10.45,3.4));
#1474=CARTESIAN_POINT('',(-36.25,2.1,3.4));
#1475=CARTESIAN_POINT('',(-31.25,-2.95,3.4));
#1476=CARTESIAN_POINT('Origin',(-36.25,-11.45,4.3));
#1477=CARTESIAN_POINT('',(-36.25,-11.45,4.3));
#1478=CARTESIAN_POINT('',(-36.25,-11.45,0.499999999999999));
#1479=CARTESIAN_POINT('',(-36.25,-11.45,2.15));
#1480=CARTESIAN_POINT('',(-31.25,-11.45,4.3));
#1481=CARTESIAN_POINT('',(-36.25,-11.45,4.3));
#1482=CARTESIAN_POINT('',(-31.25,-11.45,0.499999999999999));
#1483=CARTESIAN_POINT('',(-31.25,-11.45,4.3));
#1484=CARTESIAN_POINT('',(-36.25,-11.45,0.499999999999999));
#1485=CARTESIAN_POINT('Origin',(-36.25,-1.95000000000001,4.3));
#1486=CARTESIAN_POINT('',(-36.25,-1.95000000000001,4.3));
#1487=CARTESIAN_POINT('',(-36.25,6.35,4.3));
#1488=CARTESIAN_POINT('',(-31.25,-1.95000000000001,4.3));
#1489=CARTESIAN_POINT('',(-36.25,-1.95000000000001,4.3));
#1490=CARTESIAN_POINT('',(-31.25,-1.95000000000001,4.3));
#1491=CARTESIAN_POINT('Origin',(-36.25,-1.95000000000001,0.499999999999999));
#1492=CARTESIAN_POINT('',(-36.25,-1.95000000000001,0.499999999999999));
#1493=CARTESIAN_POINT('',(-36.25,-1.95000000000001,0.25));
#1494=CARTESIAN_POINT('',(-31.25,-1.95000000000001,0.499999999999999));
#1495=CARTESIAN_POINT('',(-36.25,-1.95000000000001,0.499999999999999));
#1496=CARTESIAN_POINT('',(-31.25,-1.95000000000001,0.499999999999999));
#1497=CARTESIAN_POINT('Origin',(-36.25,-11.45,0.499999999999999));
#1498=CARTESIAN_POINT('',(-36.25,1.6,0.499999999999999));
#1499=CARTESIAN_POINT('',(-31.25,-11.45,0.499999999999999));
#1500=CARTESIAN_POINT('Origin',(-31.25,-6.70000000000001,2.4));
#1501=CARTESIAN_POINT('Origin',(-36.25,14.65,0.));
#1502=CARTESIAN_POINT('',(-36.25,-14.65,5.6));
#1503=CARTESIAN_POINT('',(-36.25,-14.65,-5.6));
#1504=CARTESIAN_POINT('',(-36.25,-14.65,0.));
#1505=CARTESIAN_POINT('',(-36.25,14.65,5.6));
#1506=CARTESIAN_POINT('',(-36.25,-17.65,5.6));
#1507=CARTESIAN_POINT('',(-36.25,14.65,-5.6));
#1508=CARTESIAN_POINT('',(-36.25,14.65,0.));
#1509=CARTESIAN_POINT('',(-36.25,-17.65,-5.6));
#1510=CARTESIAN_POINT('Origin',(4.44089209850063E-15,-2.22044604925031E-15,
-5.6));
#1511=CARTESIAN_POINT('',(-33.25,-17.65,-5.6));
#1512=CARTESIAN_POINT('Origin',(-33.25,-14.65,-5.6));
#1513=CARTESIAN_POINT('',(-33.25,17.65,-5.6));
#1514=CARTESIAN_POINT('Origin',(-33.25,14.65,-5.6));
#1515=CARTESIAN_POINT('',(33.25,17.65,-5.6));
#1516=CARTESIAN_POINT('',(-33.25,17.65,-5.6));
#1517=CARTESIAN_POINT('',(36.25,14.65,-5.6));
#1518=CARTESIAN_POINT('Origin',(33.25,14.65,-5.6));
#1519=CARTESIAN_POINT('',(36.25,-14.65,-5.6));
#1520=CARTESIAN_POINT('',(36.25,17.65,-5.6));
#1521=CARTESIAN_POINT('',(33.25,-17.65,-5.6));
#1522=CARTESIAN_POINT('Origin',(33.25,-14.65,-5.6));
#1523=CARTESIAN_POINT('',(36.25,-17.65,-5.6));
#1524=CARTESIAN_POINT('',(5.65,-0.5,-5.6));
#1525=CARTESIAN_POINT('Origin',(19.2,-0.499999999999998,-5.6));
#1526=CARTESIAN_POINT('',(-25.35,-0.500000000000002,-5.6));
#1527=CARTESIAN_POINT('Origin',(-11.8,-0.5,-5.6));
#1528=CARTESIAN_POINT('Origin',(-11.8,-0.5,0.));
#1529=CARTESIAN_POINT('',(-25.35,-0.500000000000002,5.6));
#1530=CARTESIAN_POINT('Origin',(-11.8,-0.5,5.6));
#1531=CARTESIAN_POINT('',(-25.35,-0.500000000000002,0.));
#1532=CARTESIAN_POINT('Origin',(19.2,-0.499999999999998,0.));
#1533=CARTESIAN_POINT('',(5.65,-0.5,5.6));
#1534=CARTESIAN_POINT('Origin',(19.2,-0.499999999999998,5.6));
#1535=CARTESIAN_POINT('',(5.65,-0.5,0.));
#1536=CARTESIAN_POINT('Origin',(-36.25,14.65,0.));
#1537=CARTESIAN_POINT('Origin',(-33.25,14.65,0.));
#1538=CARTESIAN_POINT('',(-33.25,17.65,5.6));
#1539=CARTESIAN_POINT('Origin',(-33.25,14.65,5.6));
#1540=CARTESIAN_POINT('',(-33.25,17.65,0.));
#1541=CARTESIAN_POINT('Origin',(33.25,17.65,0.));
#1542=CARTESIAN_POINT('',(33.25,17.65,5.6));
#1543=CARTESIAN_POINT('',(-33.25,17.65,5.6));
#1544=CARTESIAN_POINT('',(33.25,17.65,0.));
#1545=CARTESIAN_POINT('Origin',(33.25,14.65,0.));
#1546=CARTESIAN_POINT('',(36.25,14.65,5.6));
#1547=CARTESIAN_POINT('Origin',(33.25,14.65,5.6));
#1548=CARTESIAN_POINT('',(36.25,14.65,0.));
#1549=CARTESIAN_POINT('Origin',(36.25,-14.65,0.));
#1550=CARTESIAN_POINT('',(36.25,-14.65,5.6));
#1551=CARTESIAN_POINT('',(36.25,17.65,5.6));
#1552=CARTESIAN_POINT('',(36.25,-14.65,0.));
#1553=CARTESIAN_POINT('Origin',(33.25,-14.65,0.));
#1554=CARTESIAN_POINT('',(33.25,-17.65,5.6));
#1555=CARTESIAN_POINT('Origin',(33.25,-14.65,5.6));
#1556=CARTESIAN_POINT('',(33.25,-17.65,0.));
#1557=CARTESIAN_POINT('Origin',(-33.25,-17.65,0.));
#1558=CARTESIAN_POINT('',(-33.25,-17.65,5.6));
#1559=CARTESIAN_POINT('',(36.25,-17.65,5.6));
#1560=CARTESIAN_POINT('',(-33.25,-17.65,0.));
#1561=CARTESIAN_POINT('Origin',(-33.25,-14.65,0.));
#1562=CARTESIAN_POINT('Origin',(-33.25,-14.65,5.6));
#1563=CARTESIAN_POINT('Origin',(4.44089209850063E-15,-2.22044604925031E-15,
5.6));
#1564=UNCERTAINTY_MEASURE_WITH_UNIT(LENGTH_MEASURE(0.01),#1568,
'DISTANCE_ACCURACY_VALUE',
'Maximum model space distance between geometric entities at asserted c
onnectivities');
#1565=UNCERTAINTY_MEASURE_WITH_UNIT(LENGTH_MEASURE(0.01),#1568,
'DISTANCE_ACCURACY_VALUE',
'Maximum model space distance between geometric entities at asserted c
onnectivities');
#1566=(
GEOMETRIC_REPRESENTATION_CONTEXT(3)
GLOBAL_UNCERTAINTY_ASSIGNED_CONTEXT((#1564))
GLOBAL_UNIT_ASSIGNED_CONTEXT((#1568,#1570,#1571))
REPRESENTATION_CONTEXT('','3D')
);
#1567=(
GEOMETRIC_REPRESENTATION_CONTEXT(3)
GLOBAL_UNCERTAINTY_ASSIGNED_CONTEXT((#1565))
GLOBAL_UNIT_ASSIGNED_CONTEXT((#1568,#1570,#1571))
REPRESENTATION_CONTEXT('','3D')
);
#1568=(
LENGTH_UNIT()
NAMED_UNIT(*)
SI_UNIT(.MILLI.,.METRE.)
);
#1569=(
LENGTH_UNIT()
NAMED_UNIT(*)
SI_UNIT($,.METRE.)
);
#1570=(
NAMED_UNIT(*)
PLANE_ANGLE_UNIT()
SI_UNIT($,.RADIAN.)
);
#1571=(
NAMED_UNIT(*)
SI_UNIT($,.STERADIAN.)
SOLID_ANGLE_UNIT()
);
#1572=SHAPE_DEFINITION_REPRESENTATION(#1573,#1574);
#1573=PRODUCT_DEFINITION_SHAPE('',$,#1576);
#1574=SHAPE_REPRESENTATION('',(#944),#1566);
#1575=PRODUCT_DEFINITION_CONTEXT('part definition',#1580,'design');
#1576=PRODUCT_DEFINITION('2026-06-30-14-28-01-748','\X2\656370ED98CE6247FF08FF09\X0\',
#1577,#1575);
#1577=PRODUCT_DEFINITION_FORMATION('',$,#1582);
#1578=PRODUCT_RELATED_PRODUCT_CATEGORY('\X2\656370ED98CE6247FF08FF09\X0\',
'\X2\656370ED98CE6247FF08FF09\X0\',(#1582));
#1579=APPLICATION_PROTOCOL_DEFINITION('international standard',
'automotive_design',2009,#1580);
#1580=APPLICATION_CONTEXT(
'Core Data for Automotive Mechanical Design Process');
#1581=PRODUCT_CONTEXT('part definition',#1580,'mechanical');
#1582=PRODUCT('2026-06-30-14-28-01-748','\X2\656370ED98CE6247FF08FF09\X0\',
$,(#1581));
#1583=PRESENTATION_STYLE_ASSIGNMENT((#1584));
#1584=SURFACE_STYLE_USAGE(.BOTH.,#1585);
#1585=SURFACE_SIDE_STYLE('',(#1586));
#1586=SURFACE_STYLE_FILL_AREA(#1587);
#1587=FILL_AREA_STYLE('\X2\94A2\X0\ - \X2\7F0E5149\X0\',(#1588));
#1588=FILL_AREA_STYLE_COLOUR('\X2\94A2\X0\ - \X2\7F0E5149\X0\',#1589);
#1589=COLOUR_RGB('\X2\94A2\X0\ - \X2\7F0E5149\X0\',0.627450980392157,0.627450980392157,
0.627450980392157);
ENDSEC;
END-ISO-10303-21;
