ISO-10303-21;
HEADER;
/* Generated by software containing ST-Developer
 * from STEP Tools, Inc. (www.steptools.com) 
 */

FILE_DESCRIPTION(
/* description */ (''),
/* implementation_level */ '2;1');

FILE_NAME(
/* name */ '',
/* time_stamp */ '2026-08-11T12:34:57+09:00',
/* author */ (''),
/* organization */ (''),
/* preprocessor_version */ 'ST-DEVELOPER v20.1',
/* originating_system */ 'Autodesk Translation Framework v15.8.0.0',
/* authorisation */ '');

FILE_SCHEMA (('AUTOMOTIVE_DESIGN { 1 0 10303 214 3 1 1 }'));
ENDSEC;

DATA;
#10=MECHANICAL_DESIGN_GEOMETRIC_PRESENTATION_REPRESENTATION('',(#13),#1070);
#11=SHAPE_REPRESENTATION_RELATIONSHIP('SRR','None',#1077,#12);
#12=ADVANCED_BREP_SHAPE_REPRESENTATION('',(#14),#1069);
#13=STYLED_ITEM('',(#1086),#14);
#14=MANIFOLD_SOLID_BREP('\X2\5B9E4F53\X0\1',#622);
#15=FACE_BOUND('',#89,.T.);
#16=FACE_BOUND('',#95,.T.);
#17=FACE_BOUND('',#99,.T.);
#18=FACE_BOUND('',#105,.T.);
#19=FACE_BOUND('',#107,.T.);
#20=FACE_BOUND('',#109,.T.);
#21=FACE_BOUND('',#119,.T.);
#22=FACE_BOUND('',#121,.T.);
#23=FACE_BOUND('',#122,.T.);
#24=FACE_BOUND('',#123,.T.);
#25=FACE_BOUND('',#124,.T.);
#26=FACE_BOUND('',#128,.T.);
#27=FACE_BOUND('',#130,.T.);
#28=FACE_BOUND('',#131,.T.);
#29=FACE_BOUND('',#132,.T.);
#30=FACE_BOUND('',#133,.T.);
#31=CYLINDRICAL_SURFACE('',#642,27.4);
#32=CYLINDRICAL_SURFACE('',#651,22.4);
#33=CYLINDRICAL_SURFACE('',#660,19.9);
#34=CYLINDRICAL_SURFACE('',#666,6.);
#35=CYLINDRICAL_SURFACE('',#669,3.5);
#36=CYLINDRICAL_SURFACE('',#671,6.);
#37=CYLINDRICAL_SURFACE('',#677,18.5);
#38=CYLINDRICAL_SURFACE('',#681,1.9);
#39=CYLINDRICAL_SURFACE('',#684,1.9);
#40=CYLINDRICAL_SURFACE('',#687,1.9);
#41=CYLINDRICAL_SURFACE('',#690,1.9);
#42=CYLINDRICAL_SURFACE('',#693,6.5);
#43=CYLINDRICAL_SURFACE('',#695,20.);
#44=FACE_OUTER_BOUND('',#81,.T.);
#45=FACE_OUTER_BOUND('',#82,.T.);
#46=FACE_OUTER_BOUND('',#83,.T.);
#47=FACE_OUTER_BOUND('',#84,.T.);
#48=FACE_OUTER_BOUND('',#85,.T.);
#49=FACE_OUTER_BOUND('',#86,.T.);
#50=FACE_OUTER_BOUND('',#87,.T.);
#51=FACE_OUTER_BOUND('',#88,.T.);
#52=FACE_OUTER_BOUND('',#90,.T.);
#53=FACE_OUTER_BOUND('',#91,.T.);
#54=FACE_OUTER_BOUND('',#92,.T.);
#55=FACE_OUTER_BOUND('',#93,.T.);
#56=FACE_OUTER_BOUND('',#94,.T.);
#57=FACE_OUTER_BOUND('',#96,.T.);
#58=FACE_OUTER_BOUND('',#97,.T.);
#59=FACE_OUTER_BOUND('',#98,.T.);
#60=FACE_OUTER_BOUND('',#100,.T.);
#61=FACE_OUTER_BOUND('',#101,.T.);
#62=FACE_OUTER_BOUND('',#102,.T.);
#63=FACE_OUTER_BOUND('',#103,.T.);
#64=FACE_OUTER_BOUND('',#104,.T.);
#65=FACE_OUTER_BOUND('',#106,.T.);
#66=FACE_OUTER_BOUND('',#108,.T.);
#67=FACE_OUTER_BOUND('',#110,.T.);
#68=FACE_OUTER_BOUND('',#111,.T.);
#69=FACE_OUTER_BOUND('',#112,.T.);
#70=FACE_OUTER_BOUND('',#113,.T.);
#71=FACE_OUTER_BOUND('',#114,.T.);
#72=FACE_OUTER_BOUND('',#115,.T.);
#73=FACE_OUTER_BOUND('',#116,.T.);
#74=FACE_OUTER_BOUND('',#117,.T.);
#75=FACE_OUTER_BOUND('',#118,.T.);
#76=FACE_OUTER_BOUND('',#120,.T.);
#77=FACE_OUTER_BOUND('',#125,.T.);
#78=FACE_OUTER_BOUND('',#126,.T.);
#79=FACE_OUTER_BOUND('',#127,.T.);
#80=FACE_OUTER_BOUND('',#129,.T.);
#81=EDGE_LOOP('',(#399,#400,#401,#402));
#82=EDGE_LOOP('',(#403,#404,#405,#406));
#83=EDGE_LOOP('',(#407,#408,#409,#410));
#84=EDGE_LOOP('',(#411,#412,#413,#414));
#85=EDGE_LOOP('',(#415,#416,#417,#418));
#86=EDGE_LOOP('',(#419,#420,#421,#422));
#87=EDGE_LOOP('',(#423,#424,#425,#426));
#88=EDGE_LOOP('',(#427,#428,#429,#430));
#89=EDGE_LOOP('',(#431,#432,#433,#434));
#90=EDGE_LOOP('',(#435,#436,#437,#438));
#91=EDGE_LOOP('',(#439,#440,#441,#442));
#92=EDGE_LOOP('',(#443,#444,#445,#446));
#93=EDGE_LOOP('',(#447,#448,#449,#450));
#94=EDGE_LOOP('',(#451,#452,#453,#454));
#95=EDGE_LOOP('',(#455,#456,#457,#458));
#96=EDGE_LOOP('',(#459,#460,#461,#462));
#97=EDGE_LOOP('',(#463,#464,#465,#466));
#98=EDGE_LOOP('',(#467));
#99=EDGE_LOOP('',(#468));
#100=EDGE_LOOP('',(#469,#470,#471,#472));
#101=EDGE_LOOP('',(#473));
#102=EDGE_LOOP('',(#474,#475,#476,#477));
#103=EDGE_LOOP('',(#478,#479,#480,#481));
#104=EDGE_LOOP('',(#482));
#105=EDGE_LOOP('',(#483));
#106=EDGE_LOOP('',(#484));
#107=EDGE_LOOP('',(#485));
#108=EDGE_LOOP('',(#486,#487,#488,#489));
#109=EDGE_LOOP('',(#490,#491,#492,#493));
#110=EDGE_LOOP('',(#494));
#111=EDGE_LOOP('',(#495,#496,#497,#498));
#112=EDGE_LOOP('',(#499,#500,#501,#502));
#113=EDGE_LOOP('',(#503,#504,#505,#506));
#114=EDGE_LOOP('',(#507,#508,#509,#510));
#115=EDGE_LOOP('',(#511,#512,#513,#514));
#116=EDGE_LOOP('',(#515,#516,#517,#518));
#117=EDGE_LOOP('',(#519,#520,#521,#522,#523,#524));
#118=EDGE_LOOP('',(#525,#526,#527,#528));
#119=EDGE_LOOP('',(#529));
#120=EDGE_LOOP('',(#530,#531,#532,#533));
#121=EDGE_LOOP('',(#534));
#122=EDGE_LOOP('',(#535));
#123=EDGE_LOOP('',(#536));
#124=EDGE_LOOP('',(#537));
#125=EDGE_LOOP('',(#538,#539,#540,#541));
#126=EDGE_LOOP('',(#542,#543,#544,#545,#546,#547));
#127=EDGE_LOOP('',(#548,#549,#550,#551));
#128=EDGE_LOOP('',(#552));
#129=EDGE_LOOP('',(#553,#554,#555,#556));
#130=EDGE_LOOP('',(#557));
#131=EDGE_LOOP('',(#558));
#132=EDGE_LOOP('',(#559));
#133=EDGE_LOOP('',(#560));
#134=CIRCLE('',#637,27.3999999999999);
#135=CIRCLE('',#638,22.4);
#136=CIRCLE('',#640,22.4);
#137=CIRCLE('',#641,27.3999999999999);
#138=CIRCLE('',#646,22.4);
#139=CIRCLE('',#647,19.9);
#140=CIRCLE('',#649,19.9);
#141=CIRCLE('',#650,22.4);
#142=CIRCLE('',#655,19.9);
#143=CIRCLE('',#656,18.5);
#144=CIRCLE('',#658,18.5);
#145=CIRCLE('',#659,19.9);
#146=CIRCLE('',#664,6.);
#147=CIRCLE('',#665,3.5);
#148=CIRCLE('',#667,6.);
#149=CIRCLE('',#670,3.5);
#150=CIRCLE('',#672,6.);
#151=CIRCLE('',#673,6.);
#152=CIRCLE('',#676,6.5);
#153=CIRCLE('',#678,18.5);
#154=CIRCLE('',#679,18.5);
#155=CIRCLE('',#682,1.9);
#156=CIRCLE('',#683,1.9);
#157=CIRCLE('',#685,1.9);
#158=CIRCLE('',#686,1.9);
#159=CIRCLE('',#688,1.9);
#160=CIRCLE('',#689,1.9);
#161=CIRCLE('',#691,1.9);
#162=CIRCLE('',#692,1.9);
#163=CIRCLE('',#694,6.5);
#164=CIRCLE('',#696,20.);
#165=CIRCLE('',#697,20.);
#166=LINE('',#898,#215);
#167=LINE('',#902,#216);
#168=LINE('',#907,#217);
#169=LINE('',#911,#218);
#170=LINE('',#914,#219);
#171=LINE('',#915,#220);
#172=LINE('',#917,#221);
#173=LINE('',#919,#222);
#174=LINE('',#923,#223);
#175=LINE('',#927,#224);
#176=LINE('',#932,#225);
#177=LINE('',#936,#226);
#178=LINE('',#939,#227);
#179=LINE('',#940,#228);
#180=LINE('',#942,#229);
#181=LINE('',#944,#230);
#182=LINE('',#948,#231);
#183=LINE('',#952,#232);
#184=LINE('',#957,#233);
#185=LINE('',#961,#234);
#186=LINE('',#964,#235);
#187=LINE('',#965,#236);
#188=LINE('',#967,#237);
#189=LINE('',#969,#238);
#190=LINE('',#978,#239);
#191=LINE('',#982,#240);
#192=LINE('',#988,#241);
#193=LINE('',#998,#242);
#194=LINE('',#1005,#243);
#195=LINE('',#1011,#244);
#196=LINE('',#1017,#245);
#197=LINE('',#1023,#246);
#198=LINE('',#1028,#247);
#199=LINE('',#1034,#248);
#200=LINE('',#1037,#249);
#201=LINE('',#1040,#250);
#202=LINE('',#1042,#251);
#203=LINE('',#1044,#252);
#204=LINE('',#1046,#253);
#205=LINE('',#1047,#254);
#206=LINE('',#1050,#255);
#207=LINE('',#1051,#256);
#208=LINE('',#1054,#257);
#209=LINE('',#1055,#258);
#210=LINE('',#1058,#259);
#211=LINE('',#1059,#260);
#212=LINE('',#1062,#261);
#213=LINE('',#1063,#262);
#214=LINE('',#1065,#263);
#215=VECTOR('',#709,10.);
#216=VECTOR('',#712,10.);
#217=VECTOR('',#717,10.);
#218=VECTOR('',#720,10.);
#219=VECTOR('',#725,10.);
#220=VECTOR('',#726,10.);
#221=VECTOR('',#729,10.);
#222=VECTOR('',#732,10.);
#223=VECTOR('',#735,10.);
#224=VECTOR('',#738,10.);
#225=VECTOR('',#743,10.);
#226=VECTOR('',#746,10.);
#227=VECTOR('',#751,10.);
#228=VECTOR('',#752,10.);
#229=VECTOR('',#755,10.);
#230=VECTOR('',#758,10.);
#231=VECTOR('',#761,10.);
#232=VECTOR('',#764,10.);
#233=VECTOR('',#769,10.);
#234=VECTOR('',#772,10.);
#235=VECTOR('',#777,10.);
#236=VECTOR('',#778,10.);
#237=VECTOR('',#781,10.);
#238=VECTOR('',#784,10.);
#239=VECTOR('',#795,6.);
#240=VECTOR('',#800,3.5);
#241=VECTOR('',#807,6.);
#242=VECTOR('',#820,18.5);
#243=VECTOR('',#829,1.9);
#244=VECTOR('',#836,1.9);
#245=VECTOR('',#843,1.9);
#246=VECTOR('',#850,1.9);
#247=VECTOR('',#857,6.5);
#248=VECTOR('',#862,10.);
#249=VECTOR('',#865,10.);
#250=VECTOR('',#868,10.);
#251=VECTOR('',#869,10.);
#252=VECTOR('',#870,10.);
#253=VECTOR('',#871,10.);
#254=VECTOR('',#872,10.);
#255=VECTOR('',#875,10.);
#256=VECTOR('',#876,10.);
#257=VECTOR('',#879,10.);
#258=VECTOR('',#880,10.);
#259=VECTOR('',#883,10.);
#260=VECTOR('',#884,10.);
#261=VECTOR('',#887,10.);
#262=VECTOR('',#888,10.);
#263=VECTOR('',#891,10.);
#264=VERTEX_POINT('',#896);
#265=VERTEX_POINT('',#897);
#266=VERTEX_POINT('',#899);
#267=VERTEX_POINT('',#901);
#268=VERTEX_POINT('',#905);
#269=VERTEX_POINT('',#906);
#270=VERTEX_POINT('',#908);
#271=VERTEX_POINT('',#910);
#272=VERTEX_POINT('',#921);
#273=VERTEX_POINT('',#922);
#274=VERTEX_POINT('',#924);
#275=VERTEX_POINT('',#926);
#276=VERTEX_POINT('',#930);
#277=VERTEX_POINT('',#931);
#278=VERTEX_POINT('',#933);
#279=VERTEX_POINT('',#935);
#280=VERTEX_POINT('',#946);
#281=VERTEX_POINT('',#947);
#282=VERTEX_POINT('',#949);
#283=VERTEX_POINT('',#951);
#284=VERTEX_POINT('',#955);
#285=VERTEX_POINT('',#956);
#286=VERTEX_POINT('',#958);
#287=VERTEX_POINT('',#960);
#288=VERTEX_POINT('',#971);
#289=VERTEX_POINT('',#973);
#290=VERTEX_POINT('',#976);
#291=VERTEX_POINT('',#981);
#292=VERTEX_POINT('',#985);
#293=VERTEX_POINT('',#987);
#294=VERTEX_POINT('',#992);
#295=VERTEX_POINT('',#995);
#296=VERTEX_POINT('',#997);
#297=VERTEX_POINT('',#1002);
#298=VERTEX_POINT('',#1004);
#299=VERTEX_POINT('',#1008);
#300=VERTEX_POINT('',#1010);
#301=VERTEX_POINT('',#1014);
#302=VERTEX_POINT('',#1016);
#303=VERTEX_POINT('',#1020);
#304=VERTEX_POINT('',#1022);
#305=VERTEX_POINT('',#1026);
#306=VERTEX_POINT('',#1030);
#307=VERTEX_POINT('',#1031);
#308=VERTEX_POINT('',#1033);
#309=VERTEX_POINT('',#1035);
#310=VERTEX_POINT('',#1039);
#311=VERTEX_POINT('',#1041);
#312=VERTEX_POINT('',#1043);
#313=VERTEX_POINT('',#1045);
#314=VERTEX_POINT('',#1049);
#315=VERTEX_POINT('',#1053);
#316=VERTEX_POINT('',#1057);
#317=VERTEX_POINT('',#1061);
#318=EDGE_CURVE('',#264,#265,#166,.T.);
#319=EDGE_CURVE('',#265,#266,#134,.T.);
#320=EDGE_CURVE('',#267,#266,#167,.T.);
#321=EDGE_CURVE('',#264,#267,#135,.T.);
#322=EDGE_CURVE('',#268,#269,#168,.T.);
#323=EDGE_CURVE('',#270,#269,#136,.T.);
#324=EDGE_CURVE('',#271,#270,#169,.T.);
#325=EDGE_CURVE('',#268,#271,#137,.T.);
#326=EDGE_CURVE('',#265,#268,#170,.T.);
#327=EDGE_CURVE('',#266,#271,#171,.T.);
#328=EDGE_CURVE('',#269,#264,#172,.T.);
#329=EDGE_CURVE('',#267,#270,#173,.T.);
#330=EDGE_CURVE('',#272,#273,#174,.T.);
#331=EDGE_CURVE('',#273,#274,#138,.T.);
#332=EDGE_CURVE('',#275,#274,#175,.T.);
#333=EDGE_CURVE('',#272,#275,#139,.T.);
#334=EDGE_CURVE('',#276,#277,#176,.T.);
#335=EDGE_CURVE('',#278,#277,#140,.T.);
#336=EDGE_CURVE('',#279,#278,#177,.T.);
#337=EDGE_CURVE('',#276,#279,#141,.T.);
#338=EDGE_CURVE('',#273,#276,#178,.T.);
#339=EDGE_CURVE('',#274,#279,#179,.T.);
#340=EDGE_CURVE('',#277,#272,#180,.T.);
#341=EDGE_CURVE('',#275,#278,#181,.T.);
#342=EDGE_CURVE('',#280,#281,#182,.T.);
#343=EDGE_CURVE('',#281,#282,#142,.T.);
#344=EDGE_CURVE('',#283,#282,#183,.T.);
#345=EDGE_CURVE('',#280,#283,#143,.T.);
#346=EDGE_CURVE('',#284,#285,#184,.T.);
#347=EDGE_CURVE('',#286,#285,#144,.T.);
#348=EDGE_CURVE('',#287,#286,#185,.T.);
#349=EDGE_CURVE('',#284,#287,#145,.T.);
#350=EDGE_CURVE('',#281,#284,#186,.T.);
#351=EDGE_CURVE('',#282,#287,#187,.T.);
#352=EDGE_CURVE('',#285,#280,#188,.T.);
#353=EDGE_CURVE('',#283,#286,#189,.T.);
#354=EDGE_CURVE('',#288,#288,#146,.T.);
#355=EDGE_CURVE('',#289,#289,#147,.T.);
#356=EDGE_CURVE('',#290,#290,#148,.T.);
#357=EDGE_CURVE('',#290,#288,#190,.T.);
#358=EDGE_CURVE('',#289,#291,#191,.T.);
#359=EDGE_CURVE('',#291,#291,#149,.T.);
#360=EDGE_CURVE('',#292,#292,#150,.T.);
#361=EDGE_CURVE('',#292,#293,#192,.T.);
#362=EDGE_CURVE('',#293,#293,#151,.T.);
#363=EDGE_CURVE('',#294,#294,#152,.T.);
#364=EDGE_CURVE('',#295,#295,#153,.T.);
#365=EDGE_CURVE('',#295,#296,#193,.T.);
#366=EDGE_CURVE('',#296,#296,#154,.T.);
#367=EDGE_CURVE('',#297,#297,#155,.T.);
#368=EDGE_CURVE('',#297,#298,#194,.T.);
#369=EDGE_CURVE('',#298,#298,#156,.T.);
#370=EDGE_CURVE('',#299,#299,#157,.T.);
#371=EDGE_CURVE('',#299,#300,#195,.T.);
#372=EDGE_CURVE('',#300,#300,#158,.T.);
#373=EDGE_CURVE('',#301,#301,#159,.T.);
#374=EDGE_CURVE('',#301,#302,#196,.T.);
#375=EDGE_CURVE('',#302,#302,#160,.T.);
#376=EDGE_CURVE('',#303,#303,#161,.T.);
#377=EDGE_CURVE('',#303,#304,#197,.T.);
#378=EDGE_CURVE('',#304,#304,#162,.T.);
#379=EDGE_CURVE('',#305,#305,#163,.T.);
#380=EDGE_CURVE('',#305,#294,#198,.T.);
#381=EDGE_CURVE('',#306,#307,#164,.T.);
#382=EDGE_CURVE('',#306,#308,#199,.T.);
#383=EDGE_CURVE('',#309,#308,#165,.T.);
#384=EDGE_CURVE('',#307,#309,#200,.T.);
#385=EDGE_CURVE('',#310,#306,#201,.T.);
#386=EDGE_CURVE('',#311,#310,#202,.T.);
#387=EDGE_CURVE('',#312,#311,#203,.T.);
#388=EDGE_CURVE('',#312,#313,#204,.T.);
#389=EDGE_CURVE('',#313,#308,#205,.T.);
#390=EDGE_CURVE('',#314,#307,#206,.T.);
#391=EDGE_CURVE('',#310,#314,#207,.T.);
#392=EDGE_CURVE('',#314,#315,#208,.T.);
#393=EDGE_CURVE('',#315,#311,#209,.T.);
#394=EDGE_CURVE('',#316,#312,#210,.T.);
#395=EDGE_CURVE('',#316,#315,#211,.T.);
#396=EDGE_CURVE('',#317,#309,#212,.T.);
#397=EDGE_CURVE('',#317,#316,#213,.T.);
#398=EDGE_CURVE('',#313,#317,#214,.T.);
#399=ORIENTED_EDGE('',*,*,#318,.T.);
#400=ORIENTED_EDGE('',*,*,#319,.T.);
#401=ORIENTED_EDGE('',*,*,#320,.F.);
#402=ORIENTED_EDGE('',*,*,#321,.F.);
#403=ORIENTED_EDGE('',*,*,#322,.T.);
#404=ORIENTED_EDGE('',*,*,#323,.F.);
#405=ORIENTED_EDGE('',*,*,#324,.F.);
#406=ORIENTED_EDGE('',*,*,#325,.F.);
#407=ORIENTED_EDGE('',*,*,#326,.T.);
#408=ORIENTED_EDGE('',*,*,#325,.T.);
#409=ORIENTED_EDGE('',*,*,#327,.F.);
#410=ORIENTED_EDGE('',*,*,#319,.F.);
#411=ORIENTED_EDGE('',*,*,#326,.F.);
#412=ORIENTED_EDGE('',*,*,#318,.F.);
#413=ORIENTED_EDGE('',*,*,#328,.F.);
#414=ORIENTED_EDGE('',*,*,#322,.F.);
#415=ORIENTED_EDGE('',*,*,#327,.T.);
#416=ORIENTED_EDGE('',*,*,#324,.T.);
#417=ORIENTED_EDGE('',*,*,#329,.F.);
#418=ORIENTED_EDGE('',*,*,#320,.T.);
#419=ORIENTED_EDGE('',*,*,#330,.T.);
#420=ORIENTED_EDGE('',*,*,#331,.T.);
#421=ORIENTED_EDGE('',*,*,#332,.F.);
#422=ORIENTED_EDGE('',*,*,#333,.F.);
#423=ORIENTED_EDGE('',*,*,#334,.T.);
#424=ORIENTED_EDGE('',*,*,#335,.F.);
#425=ORIENTED_EDGE('',*,*,#336,.F.);
#426=ORIENTED_EDGE('',*,*,#337,.F.);
#427=ORIENTED_EDGE('',*,*,#338,.T.);
#428=ORIENTED_EDGE('',*,*,#337,.T.);
#429=ORIENTED_EDGE('',*,*,#339,.F.);
#430=ORIENTED_EDGE('',*,*,#331,.F.);
#431=ORIENTED_EDGE('',*,*,#323,.T.);
#432=ORIENTED_EDGE('',*,*,#328,.T.);
#433=ORIENTED_EDGE('',*,*,#321,.T.);
#434=ORIENTED_EDGE('',*,*,#329,.T.);
#435=ORIENTED_EDGE('',*,*,#338,.F.);
#436=ORIENTED_EDGE('',*,*,#330,.F.);
#437=ORIENTED_EDGE('',*,*,#340,.F.);
#438=ORIENTED_EDGE('',*,*,#334,.F.);
#439=ORIENTED_EDGE('',*,*,#339,.T.);
#440=ORIENTED_EDGE('',*,*,#336,.T.);
#441=ORIENTED_EDGE('',*,*,#341,.F.);
#442=ORIENTED_EDGE('',*,*,#332,.T.);
#443=ORIENTED_EDGE('',*,*,#342,.T.);
#444=ORIENTED_EDGE('',*,*,#343,.T.);
#445=ORIENTED_EDGE('',*,*,#344,.F.);
#446=ORIENTED_EDGE('',*,*,#345,.F.);
#447=ORIENTED_EDGE('',*,*,#346,.T.);
#448=ORIENTED_EDGE('',*,*,#347,.F.);
#449=ORIENTED_EDGE('',*,*,#348,.F.);
#450=ORIENTED_EDGE('',*,*,#349,.F.);
#451=ORIENTED_EDGE('',*,*,#350,.T.);
#452=ORIENTED_EDGE('',*,*,#349,.T.);
#453=ORIENTED_EDGE('',*,*,#351,.F.);
#454=ORIENTED_EDGE('',*,*,#343,.F.);
#455=ORIENTED_EDGE('',*,*,#335,.T.);
#456=ORIENTED_EDGE('',*,*,#340,.T.);
#457=ORIENTED_EDGE('',*,*,#333,.T.);
#458=ORIENTED_EDGE('',*,*,#341,.T.);
#459=ORIENTED_EDGE('',*,*,#350,.F.);
#460=ORIENTED_EDGE('',*,*,#342,.F.);
#461=ORIENTED_EDGE('',*,*,#352,.F.);
#462=ORIENTED_EDGE('',*,*,#346,.F.);
#463=ORIENTED_EDGE('',*,*,#351,.T.);
#464=ORIENTED_EDGE('',*,*,#348,.T.);
#465=ORIENTED_EDGE('',*,*,#353,.F.);
#466=ORIENTED_EDGE('',*,*,#344,.T.);
#467=ORIENTED_EDGE('',*,*,#354,.F.);
#468=ORIENTED_EDGE('',*,*,#355,.T.);
#469=ORIENTED_EDGE('',*,*,#356,.F.);
#470=ORIENTED_EDGE('',*,*,#357,.T.);
#471=ORIENTED_EDGE('',*,*,#354,.T.);
#472=ORIENTED_EDGE('',*,*,#357,.F.);
#473=ORIENTED_EDGE('',*,*,#356,.T.);
#474=ORIENTED_EDGE('',*,*,#355,.F.);
#475=ORIENTED_EDGE('',*,*,#358,.T.);
#476=ORIENTED_EDGE('',*,*,#359,.F.);
#477=ORIENTED_EDGE('',*,*,#358,.F.);
#478=ORIENTED_EDGE('',*,*,#360,.F.);
#479=ORIENTED_EDGE('',*,*,#361,.T.);
#480=ORIENTED_EDGE('',*,*,#362,.F.);
#481=ORIENTED_EDGE('',*,*,#361,.F.);
#482=ORIENTED_EDGE('',*,*,#360,.T.);
#483=ORIENTED_EDGE('',*,*,#359,.T.);
#484=ORIENTED_EDGE('',*,*,#363,.T.);
#485=ORIENTED_EDGE('',*,*,#362,.T.);
#486=ORIENTED_EDGE('',*,*,#364,.F.);
#487=ORIENTED_EDGE('',*,*,#365,.T.);
#488=ORIENTED_EDGE('',*,*,#366,.F.);
#489=ORIENTED_EDGE('',*,*,#365,.F.);
#490=ORIENTED_EDGE('',*,*,#347,.T.);
#491=ORIENTED_EDGE('',*,*,#352,.T.);
#492=ORIENTED_EDGE('',*,*,#345,.T.);
#493=ORIENTED_EDGE('',*,*,#353,.T.);
#494=ORIENTED_EDGE('',*,*,#364,.T.);
#495=ORIENTED_EDGE('',*,*,#367,.F.);
#496=ORIENTED_EDGE('',*,*,#368,.T.);
#497=ORIENTED_EDGE('',*,*,#369,.F.);
#498=ORIENTED_EDGE('',*,*,#368,.F.);
#499=ORIENTED_EDGE('',*,*,#370,.F.);
#500=ORIENTED_EDGE('',*,*,#371,.T.);
#501=ORIENTED_EDGE('',*,*,#372,.F.);
#502=ORIENTED_EDGE('',*,*,#371,.F.);
#503=ORIENTED_EDGE('',*,*,#373,.F.);
#504=ORIENTED_EDGE('',*,*,#374,.T.);
#505=ORIENTED_EDGE('',*,*,#375,.F.);
#506=ORIENTED_EDGE('',*,*,#374,.F.);
#507=ORIENTED_EDGE('',*,*,#376,.F.);
#508=ORIENTED_EDGE('',*,*,#377,.T.);
#509=ORIENTED_EDGE('',*,*,#378,.F.);
#510=ORIENTED_EDGE('',*,*,#377,.F.);
#511=ORIENTED_EDGE('',*,*,#379,.F.);
#512=ORIENTED_EDGE('',*,*,#380,.T.);
#513=ORIENTED_EDGE('',*,*,#363,.F.);
#514=ORIENTED_EDGE('',*,*,#380,.F.);
#515=ORIENTED_EDGE('',*,*,#381,.F.);
#516=ORIENTED_EDGE('',*,*,#382,.T.);
#517=ORIENTED_EDGE('',*,*,#383,.F.);
#518=ORIENTED_EDGE('',*,*,#384,.F.);
#519=ORIENTED_EDGE('',*,*,#382,.F.);
#520=ORIENTED_EDGE('',*,*,#385,.F.);
#521=ORIENTED_EDGE('',*,*,#386,.F.);
#522=ORIENTED_EDGE('',*,*,#387,.F.);
#523=ORIENTED_EDGE('',*,*,#388,.T.);
#524=ORIENTED_EDGE('',*,*,#389,.T.);
#525=ORIENTED_EDGE('',*,*,#381,.T.);
#526=ORIENTED_EDGE('',*,*,#390,.F.);
#527=ORIENTED_EDGE('',*,*,#391,.F.);
#528=ORIENTED_EDGE('',*,*,#385,.T.);
#529=ORIENTED_EDGE('',*,*,#366,.T.);
#530=ORIENTED_EDGE('',*,*,#391,.T.);
#531=ORIENTED_EDGE('',*,*,#392,.T.);
#532=ORIENTED_EDGE('',*,*,#393,.T.);
#533=ORIENTED_EDGE('',*,*,#386,.T.);
#534=ORIENTED_EDGE('',*,*,#369,.T.);
#535=ORIENTED_EDGE('',*,*,#372,.T.);
#536=ORIENTED_EDGE('',*,*,#375,.T.);
#537=ORIENTED_EDGE('',*,*,#378,.T.);
#538=ORIENTED_EDGE('',*,*,#394,.T.);
#539=ORIENTED_EDGE('',*,*,#387,.T.);
#540=ORIENTED_EDGE('',*,*,#393,.F.);
#541=ORIENTED_EDGE('',*,*,#395,.F.);
#542=ORIENTED_EDGE('',*,*,#384,.T.);
#543=ORIENTED_EDGE('',*,*,#396,.F.);
#544=ORIENTED_EDGE('',*,*,#397,.T.);
#545=ORIENTED_EDGE('',*,*,#395,.T.);
#546=ORIENTED_EDGE('',*,*,#392,.F.);
#547=ORIENTED_EDGE('',*,*,#390,.T.);
#548=ORIENTED_EDGE('',*,*,#383,.T.);
#549=ORIENTED_EDGE('',*,*,#389,.F.);
#550=ORIENTED_EDGE('',*,*,#398,.T.);
#551=ORIENTED_EDGE('',*,*,#396,.T.);
#552=ORIENTED_EDGE('',*,*,#379,.T.);
#553=ORIENTED_EDGE('',*,*,#398,.F.);
#554=ORIENTED_EDGE('',*,*,#388,.F.);
#555=ORIENTED_EDGE('',*,*,#394,.F.);
#556=ORIENTED_EDGE('',*,*,#397,.F.);
#557=ORIENTED_EDGE('',*,*,#367,.T.);
#558=ORIENTED_EDGE('',*,*,#370,.T.);
#559=ORIENTED_EDGE('',*,*,#373,.T.);
#560=ORIENTED_EDGE('',*,*,#376,.T.);
#561=PLANE('',#636);
#562=PLANE('',#639);
#563=PLANE('',#643);
#564=PLANE('',#644);
#565=PLANE('',#645);
#566=PLANE('',#648);
#567=PLANE('',#652);
#568=PLANE('',#653);
#569=PLANE('',#654);
#570=PLANE('',#657);
#571=PLANE('',#661);
#572=PLANE('',#662);
#573=PLANE('',#663);
#574=PLANE('',#668);
#575=PLANE('',#674);
#576=PLANE('',#675);
#577=PLANE('',#680);
#578=PLANE('',#698);
#579=PLANE('',#699);
#580=PLANE('',#700);
#581=PLANE('',#701);
#582=PLANE('',#702);
#583=PLANE('',#703);
#584=PLANE('',#704);
#585=ADVANCED_FACE('',(#44),#561,.T.);
#586=ADVANCED_FACE('',(#45),#562,.T.);
#587=ADVANCED_FACE('',(#46),#31,.T.);
#588=ADVANCED_FACE('',(#47),#563,.T.);
#589=ADVANCED_FACE('',(#48),#564,.F.);
#590=ADVANCED_FACE('',(#49),#565,.T.);
#591=ADVANCED_FACE('',(#50),#566,.T.);
#592=ADVANCED_FACE('',(#51,#15),#32,.T.);
#593=ADVANCED_FACE('',(#52),#567,.T.);
#594=ADVANCED_FACE('',(#53),#568,.F.);
#595=ADVANCED_FACE('',(#54),#569,.T.);
#596=ADVANCED_FACE('',(#55),#570,.T.);
#597=ADVANCED_FACE('',(#56,#16),#33,.T.);
#598=ADVANCED_FACE('',(#57),#571,.T.);
#599=ADVANCED_FACE('',(#58),#572,.F.);
#600=ADVANCED_FACE('',(#59,#17),#573,.F.);
#601=ADVANCED_FACE('',(#60),#34,.T.);
#602=ADVANCED_FACE('',(#61),#574,.T.);
#603=ADVANCED_FACE('',(#62),#35,.T.);
#604=ADVANCED_FACE('',(#63),#36,.T.);
#605=ADVANCED_FACE('',(#64,#18),#575,.T.);
#606=ADVANCED_FACE('',(#65,#19),#576,.F.);
#607=ADVANCED_FACE('',(#66,#20),#37,.T.);
#608=ADVANCED_FACE('',(#67),#577,.T.);
#609=ADVANCED_FACE('',(#68),#38,.F.);
#610=ADVANCED_FACE('',(#69),#39,.F.);
#611=ADVANCED_FACE('',(#70),#40,.F.);
#612=ADVANCED_FACE('',(#71),#41,.F.);
#613=ADVANCED_FACE('',(#72),#42,.F.);
#614=ADVANCED_FACE('',(#73),#43,.T.);
#615=ADVANCED_FACE('',(#74),#578,.T.);
#616=ADVANCED_FACE('',(#75,#21),#579,.T.);
#617=ADVANCED_FACE('',(#76,#22,#23,#24,#25),#580,.T.);
#618=ADVANCED_FACE('',(#77),#581,.T.);
#619=ADVANCED_FACE('',(#78),#582,.T.);
#620=ADVANCED_FACE('',(#79,#26),#583,.T.);
#621=ADVANCED_FACE('',(#80,#27,#28,#29,#30),#584,.F.);
#622=CLOSED_SHELL('',(#585,#586,#587,#588,#589,#590,#591,#592,#593,#594,
#595,#596,#597,#598,#599,#600,#601,#602,#603,#604,#605,#606,#607,#608,#609,
#610,#611,#612,#613,#614,#615,#616,#617,#618,#619,#620,#621));
#623=DERIVED_UNIT_ELEMENT(#625,1.);
#624=DERIVED_UNIT_ELEMENT(#1072,-3.);
#625=(
MASS_UNIT()
NAMED_UNIT(*)
SI_UNIT(.KILO.,.GRAM.)
);
#626=DERIVED_UNIT((#623,#624));
#627=MEASURE_REPRESENTATION_ITEM('density measure',
POSITIVE_RATIO_MEASURE(7850.),#626);
#628=PROPERTY_DEFINITION_REPRESENTATION(#633,#630);
#629=PROPERTY_DEFINITION_REPRESENTATION(#634,#631);
#630=REPRESENTATION('material name',(#632),#1069);
#631=REPRESENTATION('density',(#627),#1069);
#632=DESCRIPTIVE_REPRESENTATION_ITEM('\X2\94A2\X0\','\X2\94A2\X0\');
#633=PROPERTY_DEFINITION('material property','material name',#1079);
#634=PROPERTY_DEFINITION('material property','density of part',#1079);
#635=AXIS2_PLACEMENT_3D('',#894,#705,#706);
#636=AXIS2_PLACEMENT_3D('',#895,#707,#708);
#637=AXIS2_PLACEMENT_3D('',#900,#710,#711);
#638=AXIS2_PLACEMENT_3D('',#903,#713,#714);
#639=AXIS2_PLACEMENT_3D('',#904,#715,#716);
#640=AXIS2_PLACEMENT_3D('',#909,#718,#719);
#641=AXIS2_PLACEMENT_3D('',#912,#721,#722);
#642=AXIS2_PLACEMENT_3D('',#913,#723,#724);
#643=AXIS2_PLACEMENT_3D('',#916,#727,#728);
#644=AXIS2_PLACEMENT_3D('',#918,#730,#731);
#645=AXIS2_PLACEMENT_3D('',#920,#733,#734);
#646=AXIS2_PLACEMENT_3D('',#925,#736,#737);
#647=AXIS2_PLACEMENT_3D('',#928,#739,#740);
#648=AXIS2_PLACEMENT_3D('',#929,#741,#742);
#649=AXIS2_PLACEMENT_3D('',#934,#744,#745);
#650=AXIS2_PLACEMENT_3D('',#937,#747,#748);
#651=AXIS2_PLACEMENT_3D('',#938,#749,#750);
#652=AXIS2_PLACEMENT_3D('',#941,#753,#754);
#653=AXIS2_PLACEMENT_3D('',#943,#756,#757);
#654=AXIS2_PLACEMENT_3D('',#945,#759,#760);
#655=AXIS2_PLACEMENT_3D('',#950,#762,#763);
#656=AXIS2_PLACEMENT_3D('',#953,#765,#766);
#657=AXIS2_PLACEMENT_3D('',#954,#767,#768);
#658=AXIS2_PLACEMENT_3D('',#959,#770,#771);
#659=AXIS2_PLACEMENT_3D('',#962,#773,#774);
#660=AXIS2_PLACEMENT_3D('',#963,#775,#776);
#661=AXIS2_PLACEMENT_3D('',#966,#779,#780);
#662=AXIS2_PLACEMENT_3D('',#968,#782,#783);
#663=AXIS2_PLACEMENT_3D('',#970,#785,#786);
#664=AXIS2_PLACEMENT_3D('',#972,#787,#788);
#665=AXIS2_PLACEMENT_3D('',#974,#789,#790);
#666=AXIS2_PLACEMENT_3D('',#975,#791,#792);
#667=AXIS2_PLACEMENT_3D('',#977,#793,#794);
#668=AXIS2_PLACEMENT_3D('',#979,#796,#797);
#669=AXIS2_PLACEMENT_3D('',#980,#798,#799);
#670=AXIS2_PLACEMENT_3D('',#983,#801,#802);
#671=AXIS2_PLACEMENT_3D('',#984,#803,#804);
#672=AXIS2_PLACEMENT_3D('',#986,#805,#806);
#673=AXIS2_PLACEMENT_3D('',#989,#808,#809);
#674=AXIS2_PLACEMENT_3D('',#990,#810,#811);
#675=AXIS2_PLACEMENT_3D('',#991,#812,#813);
#676=AXIS2_PLACEMENT_3D('',#993,#814,#815);
#677=AXIS2_PLACEMENT_3D('',#994,#816,#817);
#678=AXIS2_PLACEMENT_3D('',#996,#818,#819);
#679=AXIS2_PLACEMENT_3D('',#999,#821,#822);
#680=AXIS2_PLACEMENT_3D('',#1000,#823,#824);
#681=AXIS2_PLACEMENT_3D('',#1001,#825,#826);
#682=AXIS2_PLACEMENT_3D('',#1003,#827,#828);
#683=AXIS2_PLACEMENT_3D('',#1006,#830,#831);
#684=AXIS2_PLACEMENT_3D('',#1007,#832,#833);
#685=AXIS2_PLACEMENT_3D('',#1009,#834,#835);
#686=AXIS2_PLACEMENT_3D('',#1012,#837,#838);
#687=AXIS2_PLACEMENT_3D('',#1013,#839,#840);
#688=AXIS2_PLACEMENT_3D('',#1015,#841,#842);
#689=AXIS2_PLACEMENT_3D('',#1018,#844,#845);
#690=AXIS2_PLACEMENT_3D('',#1019,#846,#847);
#691=AXIS2_PLACEMENT_3D('',#1021,#848,#849);
#692=AXIS2_PLACEMENT_3D('',#1024,#851,#852);
#693=AXIS2_PLACEMENT_3D('',#1025,#853,#854);
#694=AXIS2_PLACEMENT_3D('',#1027,#855,#856);
#695=AXIS2_PLACEMENT_3D('',#1029,#858,#859);
#696=AXIS2_PLACEMENT_3D('',#1032,#860,#861);
#697=AXIS2_PLACEMENT_3D('',#1036,#863,#864);
#698=AXIS2_PLACEMENT_3D('',#1038,#866,#867);
#699=AXIS2_PLACEMENT_3D('',#1048,#873,#874);
#700=AXIS2_PLACEMENT_3D('',#1052,#877,#878);
#701=AXIS2_PLACEMENT_3D('',#1056,#881,#882);
#702=AXIS2_PLACEMENT_3D('',#1060,#885,#886);
#703=AXIS2_PLACEMENT_3D('',#1064,#889,#890);
#704=AXIS2_PLACEMENT_3D('',#1066,#892,#893);
#705=DIRECTION('axis',(0.,0.,1.));
#706=DIRECTION('refdir',(1.,0.,0.));
#707=DIRECTION('center_axis',(1.,0.,0.));
#708=DIRECTION('ref_axis',(0.,0.,-1.));
#709=DIRECTION('',(0.,-0.866025403784439,-0.5));
#710=DIRECTION('center_axis',(1.,0.,0.));
#711=DIRECTION('ref_axis',(0.,-0.866025403784439,-0.499999999999999));
#712=DIRECTION('',(0.,-0.5,-0.866025403784439));
#713=DIRECTION('center_axis',(1.,0.,0.));
#714=DIRECTION('ref_axis',(0.,-0.90630778703665,-0.422618261740699));
#715=DIRECTION('center_axis',(-1.,0.,0.));
#716=DIRECTION('ref_axis',(0.,0.,1.));
#717=DIRECTION('',(0.,0.866025403784439,0.5));
#718=DIRECTION('center_axis',(-1.,0.,0.));
#719=DIRECTION('ref_axis',(0.,-0.90630778703665,-0.422618261740699));
#720=DIRECTION('',(0.,0.5,0.866025403784439));
#721=DIRECTION('center_axis',(1.,0.,0.));
#722=DIRECTION('ref_axis',(0.,-0.866025403784439,-0.499999999999999));
#723=DIRECTION('center_axis',(1.,0.,0.));
#724=DIRECTION('ref_axis',(0.,-0.866025403784439,-0.5));
#725=DIRECTION('',(-1.,0.,0.));
#726=DIRECTION('',(-1.,0.,0.));
#727=DIRECTION('center_axis',(0.,-0.5,0.866025403784439));
#728=DIRECTION('ref_axis',(-1.,0.,0.));
#729=DIRECTION('',(1.,-3.02471404853487E-15,6.48652020964551E-15));
#730=DIRECTION('center_axis',(0.,-0.866025403784439,0.5));
#731=DIRECTION('ref_axis',(-1.,0.,0.));
#732=DIRECTION('',(-1.,3.02471404853487E-15,-6.48652020964551E-15));
#733=DIRECTION('center_axis',(1.,-3.02471404853487E-15,6.48652020964551E-15));
#734=DIRECTION('ref_axis',(6.48652020964551E-15,0.,-1.));
#735=DIRECTION('',(0.,-0.90630778703665,-0.422618261740699));
#736=DIRECTION('center_axis',(1.,-3.55133763221382E-15,5.8758761629056E-15));
#737=DIRECTION('ref_axis',(-7.93016446160825E-16,-0.90630778703665,-0.4226182617407));
#738=DIRECTION('',(4.55984456542475E-15,-0.4226182617407,-0.90630778703665));
#739=DIRECTION('center_axis',(1.,-3.02471404853487E-15,6.48652020964551E-15));
#740=DIRECTION('ref_axis',(0.,-0.965925826289066,-0.258819045102528));
#741=DIRECTION('center_axis',(-1.,3.02471404853487E-15,-6.48652020964551E-15));
#742=DIRECTION('ref_axis',(-6.48652020964551E-15,0.,1.));
#743=DIRECTION('',(0.,0.906307787036657,0.422618261740684));
#744=DIRECTION('center_axis',(-1.,3.02471404853487E-15,-6.48652020964551E-15));
#745=DIRECTION('ref_axis',(0.,-0.965925826289066,-0.258819045102528));
#746=DIRECTION('',(-4.55984456542477E-15,0.422618261740715,0.906307787036643));
#747=DIRECTION('center_axis',(1.,-3.55133763221382E-15,5.8758761629056E-15));
#748=DIRECTION('ref_axis',(-7.93016446160825E-16,-0.90630778703665,-0.422618261740698));
#749=DIRECTION('center_axis',(1.,-3.02471404853487E-15,6.48652020964551E-15));
#750=DIRECTION('ref_axis',(0.,-0.90630778703665,-0.422618261740699));
#751=DIRECTION('',(-1.,0.,0.));
#752=DIRECTION('',(-1.,-3.4446310319152E-15,-3.42497397769037E-15));
#753=DIRECTION('center_axis',(-7.1570831702268E-15,-0.422618261740699,0.90630778703665));
#754=DIRECTION('ref_axis',(-1.,3.02471404853487E-15,-6.48652020964551E-15));
#755=DIRECTION('',(1.,1.14679489726077E-14,-4.27989682243792E-14));
#756=DIRECTION('center_axis',(-5.4826437914926E-15,-0.90630778703665,0.4226182617407));
#757=DIRECTION('ref_axis',(-1.,3.0418891777303E-15,-6.44968802622524E-15));
#758=DIRECTION('',(-1.,-1.14679489726077E-14,4.27989682243792E-14));
#759=DIRECTION('center_axis',(1.,1.14679489726077E-14,-4.27989682243792E-14));
#760=DIRECTION('ref_axis',(-4.27989682243792E-14,0.,-1.));
#761=DIRECTION('',(0.,-0.965925826289068,-0.258819045102521));
#762=DIRECTION('center_axis',(1.,1.1829609784473E-14,-4.24529837619812E-14));
#763=DIRECTION('ref_axis',(4.46320813919661E-16,-0.965925826289068,-0.258819045102521));
#764=DIRECTION('',(-3.8383589997091E-14,-0.258819045102521,-0.965925826289068));
#765=DIRECTION('center_axis',(1.,1.14679489726077E-14,-4.27989682243792E-14));
#766=DIRECTION('ref_axis',(0.,-1.,0.));
#767=DIRECTION('center_axis',(-1.,-1.14679489726077E-14,4.27989682243792E-14));
#768=DIRECTION('ref_axis',(4.27989682243792E-14,0.,1.));
#769=DIRECTION('',(0.,0.965925826289004,0.258819045102759));
#770=DIRECTION('center_axis',(-1.,-1.14679489726077E-14,4.27989682243792E-14));
#771=DIRECTION('ref_axis',(0.,-1.,0.));
#772=DIRECTION('',(3.83835899970855E-14,0.258819045102282,0.965925826289132));
#773=DIRECTION('center_axis',(1.,1.18296097844737E-14,-4.2452983761981E-14));
#774=DIRECTION('ref_axis',(4.46320813919661E-16,-0.965925826289064,-0.258819045102537));
#775=DIRECTION('center_axis',(1.,1.14679489726077E-14,-4.27989682243792E-14));
#776=DIRECTION('ref_axis',(0.,-0.965925826289066,-0.258819045102528));
#777=DIRECTION('',(-1.,0.,0.));
#778=DIRECTION('',(-1.,3.13338882228431E-14,3.13417263975772E-14));
#779=DIRECTION('center_axis',(4.43087523488278E-14,-0.258819045102521,0.965925826289068));
#780=DIRECTION('ref_axis',(-1.,-1.14679489726077E-14,4.27989682243792E-14));
#781=DIRECTION('',(1.,0.,0.));
#782=DIRECTION('center_axis',(2.21543761744142E-14,-0.965925826289068,0.258819045102521));
#783=DIRECTION('ref_axis',(-1.,-1.14650800015361E-14,4.28096753701849E-14));
#784=DIRECTION('',(-1.,0.,0.));
#785=DIRECTION('center_axis',(1.,0.,0.));
#786=DIRECTION('ref_axis',(0.,1.,0.));
#787=DIRECTION('center_axis',(1.,0.,0.));
#788=DIRECTION('ref_axis',(0.,1.,0.));
#789=DIRECTION('center_axis',(1.,0.,0.));
#790=DIRECTION('ref_axis',(0.,1.,0.));
#791=DIRECTION('center_axis',(1.,0.,0.));
#792=DIRECTION('ref_axis',(0.,1.,0.));
#793=DIRECTION('center_axis',(1.,0.,0.));
#794=DIRECTION('ref_axis',(0.,1.,0.));
#795=DIRECTION('',(-1.,0.,0.));
#796=DIRECTION('center_axis',(1.,0.,0.));
#797=DIRECTION('ref_axis',(0.,1.,0.));
#798=DIRECTION('center_axis',(1.,0.,0.));
#799=DIRECTION('ref_axis',(0.,1.,0.));
#800=DIRECTION('',(-1.,0.,0.));
#801=DIRECTION('center_axis',(-1.,0.,0.));
#802=DIRECTION('ref_axis',(0.,1.,0.));
#803=DIRECTION('center_axis',(1.,0.,0.));
#804=DIRECTION('ref_axis',(0.,1.,0.));
#805=DIRECTION('center_axis',(1.,0.,0.));
#806=DIRECTION('ref_axis',(0.,1.,0.));
#807=DIRECTION('',(-1.,0.,0.));
#808=DIRECTION('center_axis',(-1.,0.,0.));
#809=DIRECTION('ref_axis',(0.,1.,0.));
#810=DIRECTION('center_axis',(1.,0.,0.));
#811=DIRECTION('ref_axis',(0.,1.,0.));
#812=DIRECTION('center_axis',(-1.,0.,0.));
#813=DIRECTION('ref_axis',(0.,-1.,0.));
#814=DIRECTION('center_axis',(1.,0.,0.));
#815=DIRECTION('ref_axis',(0.,1.,0.));
#816=DIRECTION('center_axis',(-1.,0.,0.));
#817=DIRECTION('ref_axis',(0.,-1.,0.));
#818=DIRECTION('center_axis',(-1.,0.,0.));
#819=DIRECTION('ref_axis',(0.,-1.,0.));
#820=DIRECTION('',(1.,0.,0.));
#821=DIRECTION('center_axis',(1.,0.,0.));
#822=DIRECTION('ref_axis',(0.,-1.,0.));
#823=DIRECTION('center_axis',(-1.,0.,0.));
#824=DIRECTION('ref_axis',(0.,-1.,0.));
#825=DIRECTION('center_axis',(0.,0.,1.));
#826=DIRECTION('ref_axis',(1.,0.,0.));
#827=DIRECTION('center_axis',(0.,0.,1.));
#828=DIRECTION('ref_axis',(1.,0.,0.));
#829=DIRECTION('',(0.,0.,1.));
#830=DIRECTION('center_axis',(0.,0.,-1.));
#831=DIRECTION('ref_axis',(1.,0.,0.));
#832=DIRECTION('center_axis',(0.,0.,1.));
#833=DIRECTION('ref_axis',(1.,0.,0.));
#834=DIRECTION('center_axis',(0.,0.,1.));
#835=DIRECTION('ref_axis',(1.,0.,0.));
#836=DIRECTION('',(0.,0.,1.));
#837=DIRECTION('center_axis',(0.,0.,-1.));
#838=DIRECTION('ref_axis',(1.,0.,0.));
#839=DIRECTION('center_axis',(0.,0.,1.));
#840=DIRECTION('ref_axis',(1.,0.,0.));
#841=DIRECTION('center_axis',(0.,0.,1.));
#842=DIRECTION('ref_axis',(1.,0.,0.));
#843=DIRECTION('',(0.,0.,1.));
#844=DIRECTION('center_axis',(0.,0.,-1.));
#845=DIRECTION('ref_axis',(1.,0.,0.));
#846=DIRECTION('center_axis',(0.,0.,1.));
#847=DIRECTION('ref_axis',(1.,0.,0.));
#848=DIRECTION('center_axis',(0.,0.,1.));
#849=DIRECTION('ref_axis',(1.,0.,0.));
#850=DIRECTION('',(0.,0.,1.));
#851=DIRECTION('center_axis',(0.,0.,-1.));
#852=DIRECTION('ref_axis',(1.,0.,0.));
#853=DIRECTION('center_axis',(-1.,0.,0.));
#854=DIRECTION('ref_axis',(0.,1.,0.));
#855=DIRECTION('center_axis',(-1.,0.,0.));
#856=DIRECTION('ref_axis',(0.,1.,0.));
#857=DIRECTION('',(-1.,0.,0.));
#858=DIRECTION('center_axis',(-1.,0.,0.));
#859=DIRECTION('ref_axis',(0.,1.,0.));
#860=DIRECTION('center_axis',(-1.,0.,0.));
#861=DIRECTION('ref_axis',(0.,1.,0.));
#862=DIRECTION('',(1.,0.,0.));
#863=DIRECTION('center_axis',(1.,0.,0.));
#864=DIRECTION('ref_axis',(0.,1.,0.));
#865=DIRECTION('',(1.,0.,0.));
#866=DIRECTION('center_axis',(0.,-1.,0.));
#867=DIRECTION('ref_axis',(1.,0.,0.));
#868=DIRECTION('',(0.,0.,1.));
#869=DIRECTION('',(1.,0.,0.));
#870=DIRECTION('',(0.,0.,1.));
#871=DIRECTION('',(1.,0.,0.));
#872=DIRECTION('',(0.,0.,1.));
#873=DIRECTION('center_axis',(-1.,0.,0.));
#874=DIRECTION('ref_axis',(0.,-1.,0.));
#875=DIRECTION('',(0.,0.,1.));
#876=DIRECTION('',(0.,1.,0.));
#877=DIRECTION('center_axis',(0.,0.,1.));
#878=DIRECTION('ref_axis',(1.,0.,0.));
#879=DIRECTION('',(-1.,0.,0.));
#880=DIRECTION('',(0.,-1.,0.));
#881=DIRECTION('center_axis',(-1.,0.,0.));
#882=DIRECTION('ref_axis',(0.,-1.,0.));
#883=DIRECTION('',(0.,-1.,0.));
#884=DIRECTION('',(0.,0.,1.));
#885=DIRECTION('center_axis',(0.,1.,0.));
#886=DIRECTION('ref_axis',(-1.,0.,0.));
#887=DIRECTION('',(0.,0.,1.));
#888=DIRECTION('',(-1.,0.,0.));
#889=DIRECTION('center_axis',(1.,0.,0.));
#890=DIRECTION('ref_axis',(0.,1.,0.));
#891=DIRECTION('',(0.,1.,0.));
#892=DIRECTION('center_axis',(0.,0.,1.));
#893=DIRECTION('ref_axis',(1.,0.,0.));
#894=CARTESIAN_POINT('',(0.,0.,0.));
#895=CARTESIAN_POINT('Origin',(-22.8000000000008,-19.3989690447714,15.3));
#896=CARTESIAN_POINT('',(-22.8000000000008,-19.3989690447714,15.3));
#897=CARTESIAN_POINT('',(-22.8000000000008,-23.7290960636936,12.8));
#898=CARTESIAN_POINT('',(-22.8000000000008,-19.3989690447714,15.3));
#899=CARTESIAN_POINT('',(-22.8000000000008,-13.7,2.77090393630637));
#900=CARTESIAN_POINT('Origin',(-22.8000000000008,-4.66293670342566E-14,
26.4999999999999));
#901=CARTESIAN_POINT('',(-22.8000000000008,-11.2,7.10103095522856));
#902=CARTESIAN_POINT('',(-22.8000000000008,-11.2,7.10103095522856));
#903=CARTESIAN_POINT('Origin',(-22.8000000000008,-1.19318292341273E-14,
26.5));
#904=CARTESIAN_POINT('Origin',(-26.0000000000008,-23.7290960636936,12.8));
#905=CARTESIAN_POINT('',(-26.0000000000008,-23.7290960636936,12.8));
#906=CARTESIAN_POINT('',(-26.0000000000008,-19.3989690447714,15.3));
#907=CARTESIAN_POINT('',(-26.0000000000008,-23.7290960636936,12.8));
#908=CARTESIAN_POINT('',(-26.0000000000008,-11.2,7.10103095522856));
#909=CARTESIAN_POINT('Origin',(-26.0000000000008,-2.25274427881574E-15,
26.5));
#910=CARTESIAN_POINT('',(-26.0000000000008,-13.7,2.77090393630637));
#911=CARTESIAN_POINT('',(-26.0000000000008,-13.7,2.77090393630637));
#912=CARTESIAN_POINT('Origin',(-26.0000000000008,-4.66293670342566E-14,
26.4999999999999));
#913=CARTESIAN_POINT('Origin',(-24.4000000000008,2.22044604925031E-15,26.5));
#914=CARTESIAN_POINT('',(-22.8000000000008,-23.7290960636936,12.8));
#915=CARTESIAN_POINT('',(-22.8000000000008,-13.7,2.77090393630637));
#916=CARTESIAN_POINT('Origin',(-24.4000000000008,-21.5640325542325,14.05));
#917=CARTESIAN_POINT('',(-24.4000000000009,-19.3989690447714,15.3));
#918=CARTESIAN_POINT('Origin',(-24.4000000000008,-12.45,4.93596744576747));
#919=CARTESIAN_POINT('',(-24.4000000000008,-11.2,7.10103095522858));
#920=CARTESIAN_POINT('Origin',(-21.4000000000009,-18.0355249620294,18.0898965913601));
#921=CARTESIAN_POINT('',(-21.4000000000009,-18.0355249620294,18.0898965913601));
#922=CARTESIAN_POINT('',(-21.4000000000009,-20.301294429621,17.0333509370084));
#923=CARTESIAN_POINT('',(-21.4000000000009,-18.0355249620294,18.0898965913601));
#924=CARTESIAN_POINT('',(-21.4000000000008,-9.46664906299169,6.19870557037906));
#925=CARTESIAN_POINT('Origin',(-21.4000000000009,0.,26.5));
#926=CARTESIAN_POINT('',(-21.4000000000008,-8.41010340863994,8.46447503797069));
#927=CARTESIAN_POINT('',(-21.4000000000008,-8.41010340863994,8.46447503797069));
#928=CARTESIAN_POINT('Origin',(-21.4000000000007,7.80973896619904E-14,26.4999999999997));
#929=CARTESIAN_POINT('Origin',(-27.4000000000009,-20.301294429621,17.0333509370084));
#930=CARTESIAN_POINT('',(-27.4000000000009,-20.301294429621,17.0333509370084));
#931=CARTESIAN_POINT('',(-27.4000000000009,-18.0355249620293,18.0898965913601));
#932=CARTESIAN_POINT('',(-27.4000000000009,-20.301294429621,17.0333509370084));
#933=CARTESIAN_POINT('',(-27.4000000000008,-8.41010340863992,8.46447503797065));
#934=CARTESIAN_POINT('Origin',(-27.4000000000007,9.28969582634446E-15,26.5));
#935=CARTESIAN_POINT('',(-27.4000000000008,-9.46664906299171,6.19870557037904));
#936=CARTESIAN_POINT('',(-27.4000000000008,-9.46664906299171,6.19870557037905));
#937=CARTESIAN_POINT('Origin',(-27.4000000000009,1.55431223447522E-14,26.5));
#938=CARTESIAN_POINT('Origin',(-24.4000000000009,-7.09228675647128E-15,
26.5));
#939=CARTESIAN_POINT('',(-21.4000000000009,-20.301294429621,17.0333509370084));
#940=CARTESIAN_POINT('',(-21.4000000000008,-9.46664906299169,6.19870557037907));
#941=CARTESIAN_POINT('Origin',(-24.4000000000009,-19.1684096958252,17.5616237641842));
#942=CARTESIAN_POINT('',(-24.4000000000002,-18.0355249620294,18.0898965913601));
#943=CARTESIAN_POINT('Origin',(-24.4000000000008,-8.9383762358158,7.33159030417486));
#944=CARTESIAN_POINT('',(-24.4000000000007,-8.41010340863998,8.46447503797055));
#945=CARTESIAN_POINT('Origin',(-20.5,-17.8696277863477,21.711847665603));
#946=CARTESIAN_POINT('',(-20.5,-17.8696277863477,21.711847665603));
#947=CARTESIAN_POINT('',(-20.5,-19.2219239431524,21.3495010024595));
#948=CARTESIAN_POINT('',(-20.5,-17.8696277863477,21.711847665603));
#949=CARTESIAN_POINT('',(-20.5000000000008,-5.15049899754008,7.27807605684721));
#950=CARTESIAN_POINT('Origin',(-20.5,7.99360577730113E-14,26.4999999999997));
#951=CARTESIAN_POINT('',(-20.5000000000007,-4.78815233439655,8.63037221365191));
#952=CARTESIAN_POINT('',(-20.5000000000007,-4.78815233439654,8.63037221365191));
#953=CARTESIAN_POINT('Origin',(-20.5,0.,26.5));
#954=CARTESIAN_POINT('Origin',(-28.3,-19.2219239431524,21.3495010024595));
#955=CARTESIAN_POINT('',(-28.3,-19.2219239431524,21.3495010024595));
#956=CARTESIAN_POINT('',(-28.3,-17.8696277863478,21.7118476656034));
#957=CARTESIAN_POINT('',(-28.3,-19.2219239431524,21.3495010024595));
#958=CARTESIAN_POINT('',(-28.3000000000007,-4.78815233439664,8.63037221365225));
#959=CARTESIAN_POINT('Origin',(-28.3,0.,26.5));
#960=CARTESIAN_POINT('',(-28.3000000000008,-5.15049899753983,7.27807605684746));
#961=CARTESIAN_POINT('',(-28.3000000000008,-5.15049899753983,7.27807605684746));
#962=CARTESIAN_POINT('Origin',(-28.3,-1.33226762955019E-14,26.5));
#963=CARTESIAN_POINT('Origin',(-24.4,4.36935427441755E-14,26.4999999999998));
#964=CARTESIAN_POINT('',(-20.5,-19.2219239431524,21.3495010024595));
#965=CARTESIAN_POINT('',(-20.5000000000008,-5.15049899754007,7.27807605684721));
#966=CARTESIAN_POINT('Origin',(-24.4,-18.5457758647501,21.5306743340314));
#967=CARTESIAN_POINT('',(18.4,-17.8696277863472,21.7118476656014));
#968=CARTESIAN_POINT('Origin',(-24.4000000000007,-4.96932566596835,7.95422413524973));
#969=CARTESIAN_POINT('',(18.4,-4.78815233439564,8.63037221365197));
#970=CARTESIAN_POINT('Origin',(32.6,0.,26.5));
#971=CARTESIAN_POINT('',(32.6,-6.,26.5));
#972=CARTESIAN_POINT('Origin',(32.6,0.,26.5));
#973=CARTESIAN_POINT('',(32.6,-3.5,26.5));
#974=CARTESIAN_POINT('Origin',(32.6,0.,26.5));
#975=CARTESIAN_POINT('Origin',(32.6,0.,26.5));
#976=CARTESIAN_POINT('',(34.,-6.,26.5));
#977=CARTESIAN_POINT('Origin',(34.,0.,26.5));
#978=CARTESIAN_POINT('',(32.6,-6.,26.5));
#979=CARTESIAN_POINT('Origin',(34.,0.,26.5));
#980=CARTESIAN_POINT('Origin',(25.6,0.,26.5));
#981=CARTESIAN_POINT('',(25.6,-3.5,26.5));
#982=CARTESIAN_POINT('',(25.6,-3.5,26.5));
#983=CARTESIAN_POINT('Origin',(25.6,0.,26.5));
#984=CARTESIAN_POINT('Origin',(18.4,0.,26.5));
#985=CARTESIAN_POINT('',(25.6,-6.,26.5));
#986=CARTESIAN_POINT('Origin',(25.6,0.,26.5));
#987=CARTESIAN_POINT('',(18.4,-6.,26.5));
#988=CARTESIAN_POINT('',(18.4,-6.,26.5));
#989=CARTESIAN_POINT('Origin',(18.4,0.,26.5));
#990=CARTESIAN_POINT('Origin',(25.6,0.,26.5));
#991=CARTESIAN_POINT('Origin',(18.4,0.,26.5));
#992=CARTESIAN_POINT('',(18.4,-6.5,26.5));
#993=CARTESIAN_POINT('Origin',(18.4,0.,26.5));
#994=CARTESIAN_POINT('Origin',(18.4,0.,26.5));
#995=CARTESIAN_POINT('',(-30.3,18.5,26.5));
#996=CARTESIAN_POINT('Origin',(-30.3,0.,26.5));
#997=CARTESIAN_POINT('',(18.4,18.5,26.5));
#998=CARTESIAN_POINT('',(18.4,18.5,26.5));
#999=CARTESIAN_POINT('Origin',(18.4,0.,26.5));
#1000=CARTESIAN_POINT('Origin',(-30.3,0.,26.5));
#1001=CARTESIAN_POINT('Origin',(13.8,-14.9,0.));
#1002=CARTESIAN_POINT('',(11.9,-14.9,0.));
#1003=CARTESIAN_POINT('Origin',(13.8,-14.9,0.));
#1004=CARTESIAN_POINT('',(11.9,-14.9,3.));
#1005=CARTESIAN_POINT('',(11.9,-14.9,0.));
#1006=CARTESIAN_POINT('Origin',(13.8,-14.9,3.));
#1007=CARTESIAN_POINT('Origin',(-10.8,14.9,0.));
#1008=CARTESIAN_POINT('',(-12.7,14.9,0.));
#1009=CARTESIAN_POINT('Origin',(-10.8,14.9,0.));
#1010=CARTESIAN_POINT('',(-12.7,14.9,3.));
#1011=CARTESIAN_POINT('',(-12.7,14.9,0.));
#1012=CARTESIAN_POINT('Origin',(-10.8,14.9,3.));
#1013=CARTESIAN_POINT('Origin',(-10.8,-14.9,0.));
#1014=CARTESIAN_POINT('',(-12.7,-14.9,0.));
#1015=CARTESIAN_POINT('Origin',(-10.8,-14.9,0.));
#1016=CARTESIAN_POINT('',(-12.7,-14.9,3.));
#1017=CARTESIAN_POINT('',(-12.7,-14.9,0.));
#1018=CARTESIAN_POINT('Origin',(-10.8,-14.9,3.));
#1019=CARTESIAN_POINT('Origin',(13.8,14.9,0.));
#1020=CARTESIAN_POINT('',(11.9,14.9,0.));
#1021=CARTESIAN_POINT('Origin',(13.8,14.9,0.));
#1022=CARTESIAN_POINT('',(11.9,14.9,3.));
#1023=CARTESIAN_POINT('',(11.9,14.9,0.));
#1024=CARTESIAN_POINT('Origin',(13.8,14.9,3.));
#1025=CARTESIAN_POINT('Origin',(21.4,0.,26.5));
#1026=CARTESIAN_POINT('',(21.4,-6.5,26.5));
#1027=CARTESIAN_POINT('Origin',(21.4,0.,26.5));
#1028=CARTESIAN_POINT('',(21.4,-6.5,26.5));
#1029=CARTESIAN_POINT('Origin',(21.4,0.,26.9));
#1030=CARTESIAN_POINT('',(18.4,-20.,26.9));
#1031=CARTESIAN_POINT('',(18.4,20.,26.9));
#1032=CARTESIAN_POINT('Origin',(18.4,0.,26.9));
#1033=CARTESIAN_POINT('',(21.4,-20.,26.9));
#1034=CARTESIAN_POINT('',(21.4,-20.,26.9));
#1035=CARTESIAN_POINT('',(21.4,20.,26.9));
#1036=CARTESIAN_POINT('Origin',(21.4,0.,26.9));
#1037=CARTESIAN_POINT('',(21.4,20.,26.9));
#1038=CARTESIAN_POINT('Origin',(-21.4,-20.,0.));
#1039=CARTESIAN_POINT('',(18.4,-20.0000002980232,3.));
#1040=CARTESIAN_POINT('',(18.4,-20.0000002980232,3.));
#1041=CARTESIAN_POINT('',(-21.4,-20.,3.));
#1042=CARTESIAN_POINT('',(-21.4,-20.,3.));
#1043=CARTESIAN_POINT('',(-21.4,-20.,0.));
#1044=CARTESIAN_POINT('',(-21.4,-20.,0.));
#1045=CARTESIAN_POINT('',(21.4,-20.,0.));
#1046=CARTESIAN_POINT('',(-21.4,-20.,0.));
#1047=CARTESIAN_POINT('',(21.4,-20.,0.));
#1048=CARTESIAN_POINT('Origin',(18.4,20.,3.));
#1049=CARTESIAN_POINT('',(18.4,20.,3.));
#1050=CARTESIAN_POINT('',(18.4,20.,3.));
#1051=CARTESIAN_POINT('',(18.4,10.,3.));
#1052=CARTESIAN_POINT('Origin',(0.,0.,3.));
#1053=CARTESIAN_POINT('',(-21.4,20.,3.));
#1054=CARTESIAN_POINT('',(21.4,20.,3.));
#1055=CARTESIAN_POINT('',(-21.4,20.,3.));
#1056=CARTESIAN_POINT('Origin',(-21.4,20.,0.));
#1057=CARTESIAN_POINT('',(-21.4,20.,0.));
#1058=CARTESIAN_POINT('',(-21.4,20.,0.));
#1059=CARTESIAN_POINT('',(-21.4,20.,0.));
#1060=CARTESIAN_POINT('Origin',(21.4,20.,0.));
#1061=CARTESIAN_POINT('',(21.4,20.,0.));
#1062=CARTESIAN_POINT('',(21.4,20.,0.));
#1063=CARTESIAN_POINT('',(21.4,20.,0.));
#1064=CARTESIAN_POINT('Origin',(21.4,-20.,0.));
#1065=CARTESIAN_POINT('',(21.4,-20.,0.));
#1066=CARTESIAN_POINT('Origin',(0.,0.,0.));
#1067=UNCERTAINTY_MEASURE_WITH_UNIT(LENGTH_MEASURE(0.01),#1071,
'DISTANCE_ACCURACY_VALUE',
'Maximum model space distance between geometric entities at asserted c
onnectivities');
#1068=UNCERTAINTY_MEASURE_WITH_UNIT(LENGTH_MEASURE(0.01),#1071,
'DISTANCE_ACCURACY_VALUE',
'Maximum model space distance between geometric entities at asserted c
onnectivities');
#1069=(
GEOMETRIC_REPRESENTATION_CONTEXT(3)
GLOBAL_UNCERTAINTY_ASSIGNED_CONTEXT((#1067))
GLOBAL_UNIT_ASSIGNED_CONTEXT((#1071,#1073,#1074))
REPRESENTATION_CONTEXT('','3D')
);
#1070=(
GEOMETRIC_REPRESENTATION_CONTEXT(3)
GLOBAL_UNCERTAINTY_ASSIGNED_CONTEXT((#1068))
GLOBAL_UNIT_ASSIGNED_CONTEXT((#1071,#1073,#1074))
REPRESENTATION_CONTEXT('','3D')
);
#1071=(
LENGTH_UNIT()
NAMED_UNIT(*)
SI_UNIT(.MILLI.,.METRE.)
);
#1072=(
LENGTH_UNIT()
NAMED_UNIT(*)
SI_UNIT($,.METRE.)
);
#1073=(
NAMED_UNIT(*)
PLANE_ANGLE_UNIT()
SI_UNIT($,.RADIAN.)
);
#1074=(
NAMED_UNIT(*)
SI_UNIT($,.STERADIAN.)
SOLID_ANGLE_UNIT()
);
#1075=SHAPE_DEFINITION_REPRESENTATION(#1076,#1077);
#1076=PRODUCT_DEFINITION_SHAPE('',$,#1079);
#1077=SHAPE_REPRESENTATION('',(#635),#1069);
#1078=PRODUCT_DEFINITION_CONTEXT('part definition',#1083,'design');
#1079=PRODUCT_DEFINITION('2026-04-24-14-40-55-858',
'\X2\9A6C8FBEFF08\X0\HOBBYWING QuicRun Fusion Pro Elite\X2\FF09\X0\',#1080,
#1078);
#1080=PRODUCT_DEFINITION_FORMATION('',$,#1085);
#1081=PRODUCT_RELATED_PRODUCT_CATEGORY(
'\X2\9A6C8FBEFF08\X0\HOBBYWING QuicRun Fusion Pro Elite\X2\FF09\X0\',
'\X2\9A6C8FBEFF08\X0\HOBBYWING QuicRun Fusion Pro Elite\X2\FF09\X0\',(#1085));
#1082=APPLICATION_PROTOCOL_DEFINITION('international standard',
'automotive_design',2009,#1083);
#1083=APPLICATION_CONTEXT(
'Core Data for Automotive Mechanical Design Process');
#1084=PRODUCT_CONTEXT('part definition',#1083,'mechanical');
#1085=PRODUCT('2026-04-24-14-40-55-858',
'\X2\9A6C8FBEFF08\X0\HOBBYWING QuicRun Fusion Pro Elite\X2\FF09\X0\',$,
(#1084));
#1086=PRESENTATION_STYLE_ASSIGNMENT((#1087));
#1087=SURFACE_STYLE_USAGE(.BOTH.,#1088);
#1088=SURFACE_SIDE_STYLE('',(#1089));
#1089=SURFACE_STYLE_FILL_AREA(#1090);
#1090=FILL_AREA_STYLE('\X2\94A2\X0\ - \X2\7F0E5149\X0\',(#1091));
#1091=FILL_AREA_STYLE_COLOUR('\X2\94A2\X0\ - \X2\7F0E5149\X0\',#1092);
#1092=COLOUR_RGB('\X2\94A2\X0\ - \X2\7F0E5149\X0\',0.627450980392157,0.627450980392157,
0.627450980392157);
ENDSEC;
END-ISO-10303-21;
