ISO-10303-21;
HEADER;
/* Generated by software containing ST-Developer
 * from STEP Tools, Inc. (www.steptools.com) 
 */

FILE_DESCRIPTION(
/* description */ (''),
/* implementation_level */ '2;1');

FILE_NAME(
/* name */ '',
/* time_stamp */ '2026-08-11T12:30:47+09:00',
/* author */ (''),
/* organization */ (''),
/* preprocessor_version */ 'ST-DEVELOPER v20.1',
/* originating_system */ 'Autodesk Translation Framework v15.8.0.0',
/* authorisation */ '');

FILE_SCHEMA (('AUTOMOTIVE_DESIGN { 1 0 10303 214 3 1 1 }'));
ENDSEC;

DATA;
#10=MECHANICAL_DESIGN_GEOMETRIC_PRESENTATION_REPRESENTATION('',(#13),#1044);
#11=SHAPE_REPRESENTATION_RELATIONSHIP('SRR','None',#1051,#12);
#12=ADVANCED_BREP_SHAPE_REPRESENTATION('',(#14),#1043);
#13=STYLED_ITEM('',(#1060),#14);
#14=MANIFOLD_SOLID_BREP('\X2\5B9E4F53\X0\1',#637);
#15=FACE_BOUND('',#95,.T.);
#16=FACE_BOUND('',#97,.T.);
#17=FACE_BOUND('',#106,.T.);
#18=FACE_BOUND('',#113,.T.);
#19=FACE_BOUND('',#116,.T.);
#20=ELLIPSE('',#658,2.2784009057354,0.800000000000001);
#21=ELLIPSE('',#661,2.2784009057354,0.800000000000001);
#22=PLANE('',#654);
#23=PLANE('',#655);
#24=PLANE('',#663);
#25=PLANE('',#664);
#26=PLANE('',#665);
#27=PLANE('',#666);
#28=PLANE('',#667);
#29=PLANE('',#668);
#30=PLANE('',#669);
#31=PLANE('',#670);
#32=PLANE('',#671);
#33=PLANE('',#672);
#34=PLANE('',#673);
#35=PLANE('',#674);
#36=PLANE('',#675);
#37=PLANE('',#676);
#38=PLANE('',#677);
#39=PLANE('',#678);
#40=PLANE('',#679);
#41=PLANE('',#680);
#42=PLANE('',#681);
#43=PLANE('',#682);
#44=PLANE('',#683);
#45=PLANE('',#684);
#46=PLANE('',#689);
#47=PLANE('',#691);
#48=PLANE('',#693);
#49=PLANE('',#694);
#50=PLANE('',#695);
#51=FACE_OUTER_BOUND('',#84,.T.);
#52=FACE_OUTER_BOUND('',#85,.T.);
#53=FACE_OUTER_BOUND('',#86,.T.);
#54=FACE_OUTER_BOUND('',#87,.T.);
#55=FACE_OUTER_BOUND('',#88,.T.);
#56=FACE_OUTER_BOUND('',#89,.T.);
#57=FACE_OUTER_BOUND('',#90,.T.);
#58=FACE_OUTER_BOUND('',#91,.T.);
#59=FACE_OUTER_BOUND('',#92,.T.);
#60=FACE_OUTER_BOUND('',#93,.T.);
#61=FACE_OUTER_BOUND('',#94,.T.);
#62=FACE_OUTER_BOUND('',#96,.T.);
#63=FACE_OUTER_BOUND('',#98,.T.);
#64=FACE_OUTER_BOUND('',#99,.T.);
#65=FACE_OUTER_BOUND('',#100,.T.);
#66=FACE_OUTER_BOUND('',#101,.T.);
#67=FACE_OUTER_BOUND('',#102,.T.);
#68=FACE_OUTER_BOUND('',#103,.T.);
#69=FACE_OUTER_BOUND('',#104,.T.);
#70=FACE_OUTER_BOUND('',#105,.T.);
#71=FACE_OUTER_BOUND('',#107,.T.);
#72=FACE_OUTER_BOUND('',#108,.T.);
#73=FACE_OUTER_BOUND('',#109,.T.);
#74=FACE_OUTER_BOUND('',#110,.T.);
#75=FACE_OUTER_BOUND('',#111,.T.);
#76=FACE_OUTER_BOUND('',#112,.T.);
#77=FACE_OUTER_BOUND('',#114,.T.);
#78=FACE_OUTER_BOUND('',#115,.T.);
#79=FACE_OUTER_BOUND('',#117,.T.);
#80=FACE_OUTER_BOUND('',#118,.T.);
#81=FACE_OUTER_BOUND('',#119,.T.);
#82=FACE_OUTER_BOUND('',#120,.T.);
#83=FACE_OUTER_BOUND('',#121,.T.);
#84=EDGE_LOOP('',(#426,#427,#428,#429));
#85=EDGE_LOOP('',(#430,#431,#432,#433));
#86=EDGE_LOOP('',(#434,#435,#436,#437));
#87=EDGE_LOOP('',(#438,#439,#440,#441,#442,#443,#444,#445));
#88=EDGE_LOOP('',(#446,#447,#448,#449,#450,#451,#452,#453,#454,#455));
#89=EDGE_LOOP('',(#456,#457,#458,#459,#460,#461,#462,#463,#464,#465));
#90=EDGE_LOOP('',(#466,#467,#468,#469,#470,#471,#472));
#91=EDGE_LOOP('',(#473,#474,#475,#476,#477,#478));
#92=EDGE_LOOP('',(#479,#480,#481,#482));
#93=EDGE_LOOP('',(#483,#484,#485,#486));
#94=EDGE_LOOP('',(#487,#488,#489,#490));
#95=EDGE_LOOP('',(#491,#492,#493,#494));
#96=EDGE_LOOP('',(#495,#496,#497,#498));
#97=EDGE_LOOP('',(#499,#500,#501,#502));
#98=EDGE_LOOP('',(#503,#504,#505,#506));
#99=EDGE_LOOP('',(#507,#508,#509,#510));
#100=EDGE_LOOP('',(#511,#512,#513,#514));
#101=EDGE_LOOP('',(#515,#516,#517,#518));
#102=EDGE_LOOP('',(#519,#520,#521,#522));
#103=EDGE_LOOP('',(#523,#524,#525,#526));
#104=EDGE_LOOP('',(#527,#528,#529,#530,#531,#532));
#105=EDGE_LOOP('',(#533,#534,#535,#536));
#106=EDGE_LOOP('',(#537,#538,#539,#540,#541,#542));
#107=EDGE_LOOP('',(#543,#544,#545,#546));
#108=EDGE_LOOP('',(#547,#548,#549,#550));
#109=EDGE_LOOP('',(#551,#552,#553,#554));
#110=EDGE_LOOP('',(#555,#556,#557,#558));
#111=EDGE_LOOP('',(#559,#560,#561,#562));
#112=EDGE_LOOP('',(#563,#564,#565,#566));
#113=EDGE_LOOP('',(#567));
#114=EDGE_LOOP('',(#568,#569,#570,#571));
#115=EDGE_LOOP('',(#572,#573,#574,#575));
#116=EDGE_LOOP('',(#576));
#117=EDGE_LOOP('',(#577,#578,#579,#580));
#118=EDGE_LOOP('',(#581,#582,#583,#584));
#119=EDGE_LOOP('',(#585,#586,#587,#588,#589,#590));
#120=EDGE_LOOP('',(#591,#592,#593,#594,#595));
#121=EDGE_LOOP('',(#596,#597,#598,#599));
#122=LINE('',#869,#197);
#123=LINE('',#872,#198);
#124=LINE('',#875,#199);
#125=LINE('',#877,#200);
#126=LINE('',#878,#201);
#127=LINE('',#881,#202);
#128=LINE('',#883,#203);
#129=LINE('',#884,#204);
#130=LINE('',#898,#205);
#131=LINE('',#900,#206);
#132=LINE('',#902,#207);
#133=LINE('',#904,#208);
#134=LINE('',#905,#209);
#135=LINE('',#908,#210);
#136=LINE('',#910,#211);
#137=LINE('',#912,#212);
#138=LINE('',#914,#213);
#139=LINE('',#915,#214);
#140=LINE('',#918,#215);
#141=LINE('',#920,#216);
#142=LINE('',#922,#217);
#143=LINE('',#923,#218);
#144=LINE('',#926,#219);
#145=LINE('',#928,#220);
#146=LINE('',#929,#221);
#147=LINE('',#931,#222);
#148=LINE('',#932,#223);
#149=LINE('',#936,#224);
#150=LINE('',#938,#225);
#151=LINE('',#940,#226);
#152=LINE('',#941,#227);
#153=LINE('',#945,#228);
#154=LINE('',#946,#229);
#155=LINE('',#947,#230);
#156=LINE('',#950,#231);
#157=LINE('',#952,#232);
#158=LINE('',#954,#233);
#159=LINE('',#955,#234);
#160=LINE('',#958,#235);
#161=LINE('',#959,#236);
#162=LINE('',#960,#237);
#163=LINE('',#963,#238);
#164=LINE('',#964,#239);
#165=LINE('',#966,#240);
#166=LINE('',#970,#241);
#167=LINE('',#972,#242);
#168=LINE('',#974,#243);
#169=LINE('',#975,#244);
#170=LINE('',#979,#245);
#171=LINE('',#980,#246);
#172=LINE('',#981,#247);
#173=LINE('',#984,#248);
#174=LINE('',#985,#249);
#175=LINE('',#988,#250);
#176=LINE('',#989,#251);
#177=LINE('',#992,#252);
#178=LINE('',#994,#253);
#179=LINE('',#995,#254);
#180=LINE('',#998,#255);
#181=LINE('',#1000,#256);
#182=LINE('',#1001,#257);
#183=LINE('',#1004,#258);
#184=LINE('',#1006,#259);
#185=LINE('',#1007,#260);
#186=LINE('',#1009,#261);
#187=LINE('',#1011,#262);
#188=LINE('',#1016,#263);
#189=LINE('',#1017,#264);
#190=LINE('',#1018,#265);
#191=LINE('',#1022,#266);
#192=LINE('',#1028,#267);
#193=LINE('',#1030,#268);
#194=LINE('',#1035,#269);
#195=LINE('',#1037,#270);
#196=LINE('',#1039,#271);
#197=VECTOR('',#702,10.);
#198=VECTOR('',#705,10.);
#199=VECTOR('',#708,10.);
#200=VECTOR('',#709,10.);
#201=VECTOR('',#710,10.);
#202=VECTOR('',#713,10.);
#203=VECTOR('',#714,10.);
#204=VECTOR('',#715,10.);
#205=VECTOR('',#732,10.);
#206=VECTOR('',#733,10.);
#207=VECTOR('',#734,10.);
#208=VECTOR('',#735,10.);
#209=VECTOR('',#736,10.);
#210=VECTOR('',#739,10.);
#211=VECTOR('',#740,10.);
#212=VECTOR('',#741,10.);
#213=VECTOR('',#742,10.);
#214=VECTOR('',#743,10.);
#215=VECTOR('',#746,10.);
#216=VECTOR('',#747,10.);
#217=VECTOR('',#748,10.);
#218=VECTOR('',#749,10.);
#219=VECTOR('',#752,10.);
#220=VECTOR('',#753,10.);
#221=VECTOR('',#754,10.);
#222=VECTOR('',#757,10.);
#223=VECTOR('',#758,10.);
#224=VECTOR('',#761,10.);
#225=VECTOR('',#762,10.);
#226=VECTOR('',#763,10.);
#227=VECTOR('',#764,10.);
#228=VECTOR('',#767,10.);
#229=VECTOR('',#768,10.);
#230=VECTOR('',#769,10.);
#231=VECTOR('',#770,10.);
#232=VECTOR('',#771,10.);
#233=VECTOR('',#772,10.);
#234=VECTOR('',#773,10.);
#235=VECTOR('',#776,10.);
#236=VECTOR('',#777,10.);
#237=VECTOR('',#778,10.);
#238=VECTOR('',#781,10.);
#239=VECTOR('',#782,10.);
#240=VECTOR('',#785,10.);
#241=VECTOR('',#788,10.);
#242=VECTOR('',#789,10.);
#243=VECTOR('',#790,10.);
#244=VECTOR('',#791,10.);
#245=VECTOR('',#794,10.);
#246=VECTOR('',#795,10.);
#247=VECTOR('',#796,10.);
#248=VECTOR('',#799,10.);
#249=VECTOR('',#800,10.);
#250=VECTOR('',#803,10.);
#251=VECTOR('',#804,10.);
#252=VECTOR('',#807,10.);
#253=VECTOR('',#808,10.);
#254=VECTOR('',#809,10.);
#255=VECTOR('',#812,10.);
#256=VECTOR('',#813,10.);
#257=VECTOR('',#814,10.);
#258=VECTOR('',#817,10.);
#259=VECTOR('',#818,10.);
#260=VECTOR('',#819,10.);
#261=VECTOR('',#822,10.);
#262=VECTOR('',#825,10.);
#263=VECTOR('',#830,10.);
#264=VECTOR('',#831,10.);
#265=VECTOR('',#832,10.);
#266=VECTOR('',#837,10.);
#267=VECTOR('',#844,10.);
#268=VECTOR('',#847,10.);
#269=VECTOR('',#854,0.999999999999999);
#270=VECTOR('',#857,10.);
#271=VECTOR('',#860,10.);
#272=CIRCLE('',#652,0.800000000000001);
#273=CIRCLE('',#653,0.800000000000001);
#274=CIRCLE('',#657,0.800000000000001);
#275=CIRCLE('',#659,0.800000000000001);
#276=CIRCLE('',#660,0.800000000000001);
#277=CIRCLE('',#662,0.800000000000001);
#278=CIRCLE('',#685,1.69999996200204);
#279=CIRCLE('',#686,0.999999999999999);
#280=CIRCLE('',#688,1.69999996200204);
#281=CIRCLE('',#690,0.999999999999999);
#282=VERTEX_POINT('',#865);
#283=VERTEX_POINT('',#866);
#284=VERTEX_POINT('',#868);
#285=VERTEX_POINT('',#870);
#286=VERTEX_POINT('',#874);
#287=VERTEX_POINT('',#876);
#288=VERTEX_POINT('',#880);
#289=VERTEX_POINT('',#882);
#290=VERTEX_POINT('',#886);
#291=VERTEX_POINT('',#888);
#292=VERTEX_POINT('',#891);
#293=VERTEX_POINT('',#893);
#294=VERTEX_POINT('',#897);
#295=VERTEX_POINT('',#899);
#296=VERTEX_POINT('',#901);
#297=VERTEX_POINT('',#903);
#298=VERTEX_POINT('',#907);
#299=VERTEX_POINT('',#909);
#300=VERTEX_POINT('',#911);
#301=VERTEX_POINT('',#913);
#302=VERTEX_POINT('',#917);
#303=VERTEX_POINT('',#919);
#304=VERTEX_POINT('',#921);
#305=VERTEX_POINT('',#925);
#306=VERTEX_POINT('',#927);
#307=VERTEX_POINT('',#934);
#308=VERTEX_POINT('',#935);
#309=VERTEX_POINT('',#937);
#310=VERTEX_POINT('',#939);
#311=VERTEX_POINT('',#943);
#312=VERTEX_POINT('',#944);
#313=VERTEX_POINT('',#948);
#314=VERTEX_POINT('',#949);
#315=VERTEX_POINT('',#951);
#316=VERTEX_POINT('',#953);
#317=VERTEX_POINT('',#957);
#318=VERTEX_POINT('',#962);
#319=VERTEX_POINT('',#968);
#320=VERTEX_POINT('',#969);
#321=VERTEX_POINT('',#971);
#322=VERTEX_POINT('',#973);
#323=VERTEX_POINT('',#977);
#324=VERTEX_POINT('',#978);
#325=VERTEX_POINT('',#983);
#326=VERTEX_POINT('',#987);
#327=VERTEX_POINT('',#991);
#328=VERTEX_POINT('',#993);
#329=VERTEX_POINT('',#997);
#330=VERTEX_POINT('',#999);
#331=VERTEX_POINT('',#1003);
#332=VERTEX_POINT('',#1005);
#333=VERTEX_POINT('',#1014);
#334=VERTEX_POINT('',#1015);
#335=VERTEX_POINT('',#1020);
#336=VERTEX_POINT('',#1023);
#337=VERTEX_POINT('',#1026);
#338=VERTEX_POINT('',#1031);
#339=EDGE_CURVE('',#282,#283,#272,.T.);
#340=EDGE_CURVE('',#284,#282,#122,.T.);
#341=EDGE_CURVE('',#285,#284,#273,.T.);
#342=EDGE_CURVE('',#285,#283,#123,.T.);
#343=EDGE_CURVE('',#283,#286,#124,.T.);
#344=EDGE_CURVE('',#287,#285,#125,.T.);
#345=EDGE_CURVE('',#287,#286,#126,.T.);
#346=EDGE_CURVE('',#288,#282,#127,.T.);
#347=EDGE_CURVE('',#289,#288,#128,.T.);
#348=EDGE_CURVE('',#284,#289,#129,.T.);
#349=EDGE_CURVE('',#290,#288,#274,.T.);
#350=EDGE_CURVE('',#291,#290,#20,.T.);
#351=EDGE_CURVE('',#286,#291,#275,.T.);
#352=EDGE_CURVE('',#292,#287,#276,.T.);
#353=EDGE_CURVE('',#293,#292,#21,.T.);
#354=EDGE_CURVE('',#289,#293,#277,.T.);
#355=EDGE_CURVE('',#291,#294,#130,.T.);
#356=EDGE_CURVE('',#294,#295,#131,.T.);
#357=EDGE_CURVE('',#296,#295,#132,.T.);
#358=EDGE_CURVE('',#297,#296,#133,.T.);
#359=EDGE_CURVE('',#297,#290,#134,.T.);
#360=EDGE_CURVE('',#293,#298,#135,.T.);
#361=EDGE_CURVE('',#298,#299,#136,.T.);
#362=EDGE_CURVE('',#300,#299,#137,.T.);
#363=EDGE_CURVE('',#301,#300,#138,.T.);
#364=EDGE_CURVE('',#301,#292,#139,.T.);
#365=EDGE_CURVE('',#297,#302,#140,.T.);
#366=EDGE_CURVE('',#303,#302,#141,.T.);
#367=EDGE_CURVE('',#304,#303,#142,.F.);
#368=EDGE_CURVE('',#294,#304,#143,.T.);
#369=EDGE_CURVE('',#305,#301,#144,.T.);
#370=EDGE_CURVE('',#306,#305,#145,.T.);
#371=EDGE_CURVE('',#306,#298,#146,.T.);
#372=EDGE_CURVE('',#304,#301,#147,.T.);
#373=EDGE_CURVE('',#305,#303,#148,.T.);
#374=EDGE_CURVE('',#307,#308,#149,.T.);
#375=EDGE_CURVE('',#308,#309,#150,.T.);
#376=EDGE_CURVE('',#309,#310,#151,.T.);
#377=EDGE_CURVE('',#310,#307,#152,.T.);
#378=EDGE_CURVE('',#311,#312,#153,.T.);
#379=EDGE_CURVE('',#311,#308,#154,.T.);
#380=EDGE_CURVE('',#312,#307,#155,.T.);
#381=EDGE_CURVE('',#313,#314,#156,.T.);
#382=EDGE_CURVE('',#314,#315,#157,.T.);
#383=EDGE_CURVE('',#315,#316,#158,.T.);
#384=EDGE_CURVE('',#316,#313,#159,.T.);
#385=EDGE_CURVE('',#317,#311,#160,.T.);
#386=EDGE_CURVE('',#317,#309,#161,.T.);
#387=EDGE_CURVE('',#302,#306,#162,.T.);
#388=EDGE_CURVE('',#318,#317,#163,.T.);
#389=EDGE_CURVE('',#318,#310,#164,.T.);
#390=EDGE_CURVE('',#312,#318,#165,.T.);
#391=EDGE_CURVE('',#319,#320,#166,.T.);
#392=EDGE_CURVE('',#320,#321,#167,.T.);
#393=EDGE_CURVE('',#321,#322,#168,.T.);
#394=EDGE_CURVE('',#322,#319,#169,.T.);
#395=EDGE_CURVE('',#323,#324,#170,.T.);
#396=EDGE_CURVE('',#323,#320,#171,.T.);
#397=EDGE_CURVE('',#324,#319,#172,.T.);
#398=EDGE_CURVE('',#325,#323,#173,.T.);
#399=EDGE_CURVE('',#325,#321,#174,.T.);
#400=EDGE_CURVE('',#326,#325,#175,.T.);
#401=EDGE_CURVE('',#326,#322,#176,.T.);
#402=EDGE_CURVE('',#326,#327,#177,.T.);
#403=EDGE_CURVE('',#327,#328,#178,.T.);
#404=EDGE_CURVE('',#324,#328,#179,.T.);
#405=EDGE_CURVE('',#324,#329,#180,.T.);
#406=EDGE_CURVE('',#329,#330,#181,.T.);
#407=EDGE_CURVE('',#330,#326,#182,.T.);
#408=EDGE_CURVE('',#328,#331,#183,.T.);
#409=EDGE_CURVE('',#332,#327,#184,.T.);
#410=EDGE_CURVE('',#331,#332,#185,.T.);
#411=EDGE_CURVE('',#329,#331,#186,.T.);
#412=EDGE_CURVE('',#330,#332,#187,.T.);
#413=EDGE_CURVE('',#333,#334,#188,.T.);
#414=EDGE_CURVE('',#315,#333,#189,.T.);
#415=EDGE_CURVE('',#314,#334,#190,.T.);
#416=EDGE_CURVE('',#333,#335,#278,.T.);
#417=EDGE_CURVE('',#316,#335,#191,.T.);
#418=EDGE_CURVE('',#336,#336,#279,.T.);
#419=EDGE_CURVE('',#337,#334,#280,.T.);
#420=EDGE_CURVE('',#335,#337,#192,.T.);
#421=EDGE_CURVE('',#313,#337,#193,.T.);
#422=EDGE_CURVE('',#338,#338,#281,.T.);
#423=EDGE_CURVE('',#338,#336,#194,.T.);
#424=EDGE_CURVE('',#299,#296,#195,.T.);
#425=EDGE_CURVE('',#295,#300,#196,.T.);
#426=ORIENTED_EDGE('',*,*,#339,.F.);
#427=ORIENTED_EDGE('',*,*,#340,.F.);
#428=ORIENTED_EDGE('',*,*,#341,.F.);
#429=ORIENTED_EDGE('',*,*,#342,.T.);
#430=ORIENTED_EDGE('',*,*,#343,.F.);
#431=ORIENTED_EDGE('',*,*,#342,.F.);
#432=ORIENTED_EDGE('',*,*,#344,.F.);
#433=ORIENTED_EDGE('',*,*,#345,.T.);
#434=ORIENTED_EDGE('',*,*,#346,.F.);
#435=ORIENTED_EDGE('',*,*,#347,.F.);
#436=ORIENTED_EDGE('',*,*,#348,.F.);
#437=ORIENTED_EDGE('',*,*,#340,.T.);
#438=ORIENTED_EDGE('',*,*,#349,.F.);
#439=ORIENTED_EDGE('',*,*,#350,.F.);
#440=ORIENTED_EDGE('',*,*,#351,.F.);
#441=ORIENTED_EDGE('',*,*,#345,.F.);
#442=ORIENTED_EDGE('',*,*,#352,.F.);
#443=ORIENTED_EDGE('',*,*,#353,.F.);
#444=ORIENTED_EDGE('',*,*,#354,.F.);
#445=ORIENTED_EDGE('',*,*,#347,.T.);
#446=ORIENTED_EDGE('',*,*,#349,.T.);
#447=ORIENTED_EDGE('',*,*,#346,.T.);
#448=ORIENTED_EDGE('',*,*,#339,.T.);
#449=ORIENTED_EDGE('',*,*,#343,.T.);
#450=ORIENTED_EDGE('',*,*,#351,.T.);
#451=ORIENTED_EDGE('',*,*,#355,.T.);
#452=ORIENTED_EDGE('',*,*,#356,.T.);
#453=ORIENTED_EDGE('',*,*,#357,.F.);
#454=ORIENTED_EDGE('',*,*,#358,.F.);
#455=ORIENTED_EDGE('',*,*,#359,.T.);
#456=ORIENTED_EDGE('',*,*,#352,.T.);
#457=ORIENTED_EDGE('',*,*,#344,.T.);
#458=ORIENTED_EDGE('',*,*,#341,.T.);
#459=ORIENTED_EDGE('',*,*,#348,.T.);
#460=ORIENTED_EDGE('',*,*,#354,.T.);
#461=ORIENTED_EDGE('',*,*,#360,.T.);
#462=ORIENTED_EDGE('',*,*,#361,.T.);
#463=ORIENTED_EDGE('',*,*,#362,.F.);
#464=ORIENTED_EDGE('',*,*,#363,.F.);
#465=ORIENTED_EDGE('',*,*,#364,.T.);
#466=ORIENTED_EDGE('',*,*,#350,.T.);
#467=ORIENTED_EDGE('',*,*,#359,.F.);
#468=ORIENTED_EDGE('',*,*,#365,.T.);
#469=ORIENTED_EDGE('',*,*,#366,.F.);
#470=ORIENTED_EDGE('',*,*,#367,.F.);
#471=ORIENTED_EDGE('',*,*,#368,.F.);
#472=ORIENTED_EDGE('',*,*,#355,.F.);
#473=ORIENTED_EDGE('',*,*,#353,.T.);
#474=ORIENTED_EDGE('',*,*,#364,.F.);
#475=ORIENTED_EDGE('',*,*,#369,.F.);
#476=ORIENTED_EDGE('',*,*,#370,.F.);
#477=ORIENTED_EDGE('',*,*,#371,.T.);
#478=ORIENTED_EDGE('',*,*,#360,.F.);
#479=ORIENTED_EDGE('',*,*,#369,.T.);
#480=ORIENTED_EDGE('',*,*,#372,.F.);
#481=ORIENTED_EDGE('',*,*,#367,.T.);
#482=ORIENTED_EDGE('',*,*,#373,.F.);
#483=ORIENTED_EDGE('',*,*,#374,.T.);
#484=ORIENTED_EDGE('',*,*,#375,.T.);
#485=ORIENTED_EDGE('',*,*,#376,.T.);
#486=ORIENTED_EDGE('',*,*,#377,.T.);
#487=ORIENTED_EDGE('',*,*,#378,.F.);
#488=ORIENTED_EDGE('',*,*,#379,.T.);
#489=ORIENTED_EDGE('',*,*,#374,.F.);
#490=ORIENTED_EDGE('',*,*,#380,.F.);
#491=ORIENTED_EDGE('',*,*,#381,.T.);
#492=ORIENTED_EDGE('',*,*,#382,.T.);
#493=ORIENTED_EDGE('',*,*,#383,.T.);
#494=ORIENTED_EDGE('',*,*,#384,.T.);
#495=ORIENTED_EDGE('',*,*,#385,.F.);
#496=ORIENTED_EDGE('',*,*,#386,.T.);
#497=ORIENTED_EDGE('',*,*,#375,.F.);
#498=ORIENTED_EDGE('',*,*,#379,.F.);
#499=ORIENTED_EDGE('',*,*,#370,.T.);
#500=ORIENTED_EDGE('',*,*,#373,.T.);
#501=ORIENTED_EDGE('',*,*,#366,.T.);
#502=ORIENTED_EDGE('',*,*,#387,.T.);
#503=ORIENTED_EDGE('',*,*,#388,.F.);
#504=ORIENTED_EDGE('',*,*,#389,.T.);
#505=ORIENTED_EDGE('',*,*,#376,.F.);
#506=ORIENTED_EDGE('',*,*,#386,.F.);
#507=ORIENTED_EDGE('',*,*,#390,.F.);
#508=ORIENTED_EDGE('',*,*,#380,.T.);
#509=ORIENTED_EDGE('',*,*,#377,.F.);
#510=ORIENTED_EDGE('',*,*,#389,.F.);
#511=ORIENTED_EDGE('',*,*,#391,.T.);
#512=ORIENTED_EDGE('',*,*,#392,.T.);
#513=ORIENTED_EDGE('',*,*,#393,.T.);
#514=ORIENTED_EDGE('',*,*,#394,.T.);
#515=ORIENTED_EDGE('',*,*,#395,.F.);
#516=ORIENTED_EDGE('',*,*,#396,.T.);
#517=ORIENTED_EDGE('',*,*,#391,.F.);
#518=ORIENTED_EDGE('',*,*,#397,.F.);
#519=ORIENTED_EDGE('',*,*,#398,.F.);
#520=ORIENTED_EDGE('',*,*,#399,.T.);
#521=ORIENTED_EDGE('',*,*,#392,.F.);
#522=ORIENTED_EDGE('',*,*,#396,.F.);
#523=ORIENTED_EDGE('',*,*,#400,.F.);
#524=ORIENTED_EDGE('',*,*,#401,.T.);
#525=ORIENTED_EDGE('',*,*,#393,.F.);
#526=ORIENTED_EDGE('',*,*,#399,.F.);
#527=ORIENTED_EDGE('',*,*,#397,.T.);
#528=ORIENTED_EDGE('',*,*,#394,.F.);
#529=ORIENTED_EDGE('',*,*,#401,.F.);
#530=ORIENTED_EDGE('',*,*,#402,.T.);
#531=ORIENTED_EDGE('',*,*,#403,.T.);
#532=ORIENTED_EDGE('',*,*,#404,.F.);
#533=ORIENTED_EDGE('',*,*,#378,.T.);
#534=ORIENTED_EDGE('',*,*,#390,.T.);
#535=ORIENTED_EDGE('',*,*,#388,.T.);
#536=ORIENTED_EDGE('',*,*,#385,.T.);
#537=ORIENTED_EDGE('',*,*,#405,.T.);
#538=ORIENTED_EDGE('',*,*,#406,.T.);
#539=ORIENTED_EDGE('',*,*,#407,.T.);
#540=ORIENTED_EDGE('',*,*,#400,.T.);
#541=ORIENTED_EDGE('',*,*,#398,.T.);
#542=ORIENTED_EDGE('',*,*,#395,.T.);
#543=ORIENTED_EDGE('',*,*,#408,.F.);
#544=ORIENTED_EDGE('',*,*,#403,.F.);
#545=ORIENTED_EDGE('',*,*,#409,.F.);
#546=ORIENTED_EDGE('',*,*,#410,.F.);
#547=ORIENTED_EDGE('',*,*,#405,.F.);
#548=ORIENTED_EDGE('',*,*,#404,.T.);
#549=ORIENTED_EDGE('',*,*,#408,.T.);
#550=ORIENTED_EDGE('',*,*,#411,.F.);
#551=ORIENTED_EDGE('',*,*,#406,.F.);
#552=ORIENTED_EDGE('',*,*,#411,.T.);
#553=ORIENTED_EDGE('',*,*,#410,.T.);
#554=ORIENTED_EDGE('',*,*,#412,.F.);
#555=ORIENTED_EDGE('',*,*,#407,.F.);
#556=ORIENTED_EDGE('',*,*,#412,.T.);
#557=ORIENTED_EDGE('',*,*,#409,.T.);
#558=ORIENTED_EDGE('',*,*,#402,.F.);
#559=ORIENTED_EDGE('',*,*,#413,.F.);
#560=ORIENTED_EDGE('',*,*,#414,.F.);
#561=ORIENTED_EDGE('',*,*,#382,.F.);
#562=ORIENTED_EDGE('',*,*,#415,.T.);
#563=ORIENTED_EDGE('',*,*,#416,.T.);
#564=ORIENTED_EDGE('',*,*,#417,.F.);
#565=ORIENTED_EDGE('',*,*,#383,.F.);
#566=ORIENTED_EDGE('',*,*,#414,.T.);
#567=ORIENTED_EDGE('',*,*,#418,.T.);
#568=ORIENTED_EDGE('',*,*,#416,.F.);
#569=ORIENTED_EDGE('',*,*,#413,.T.);
#570=ORIENTED_EDGE('',*,*,#419,.F.);
#571=ORIENTED_EDGE('',*,*,#420,.F.);
#572=ORIENTED_EDGE('',*,*,#419,.T.);
#573=ORIENTED_EDGE('',*,*,#415,.F.);
#574=ORIENTED_EDGE('',*,*,#381,.F.);
#575=ORIENTED_EDGE('',*,*,#421,.T.);
#576=ORIENTED_EDGE('',*,*,#422,.T.);
#577=ORIENTED_EDGE('',*,*,#420,.T.);
#578=ORIENTED_EDGE('',*,*,#421,.F.);
#579=ORIENTED_EDGE('',*,*,#384,.F.);
#580=ORIENTED_EDGE('',*,*,#417,.T.);
#581=ORIENTED_EDGE('',*,*,#422,.F.);
#582=ORIENTED_EDGE('',*,*,#423,.T.);
#583=ORIENTED_EDGE('',*,*,#418,.F.);
#584=ORIENTED_EDGE('',*,*,#423,.F.);
#585=ORIENTED_EDGE('',*,*,#358,.T.);
#586=ORIENTED_EDGE('',*,*,#424,.F.);
#587=ORIENTED_EDGE('',*,*,#361,.F.);
#588=ORIENTED_EDGE('',*,*,#371,.F.);
#589=ORIENTED_EDGE('',*,*,#387,.F.);
#590=ORIENTED_EDGE('',*,*,#365,.F.);
#591=ORIENTED_EDGE('',*,*,#372,.T.);
#592=ORIENTED_EDGE('',*,*,#363,.T.);
#593=ORIENTED_EDGE('',*,*,#425,.F.);
#594=ORIENTED_EDGE('',*,*,#356,.F.);
#595=ORIENTED_EDGE('',*,*,#368,.T.);
#596=ORIENTED_EDGE('',*,*,#424,.T.);
#597=ORIENTED_EDGE('',*,*,#357,.T.);
#598=ORIENTED_EDGE('',*,*,#425,.T.);
#599=ORIENTED_EDGE('',*,*,#362,.T.);
#600=CYLINDRICAL_SURFACE('',#651,0.800000000000001);
#601=CYLINDRICAL_SURFACE('',#656,0.800000000000001);
#602=CYLINDRICAL_SURFACE('',#687,1.69999996200204);
#603=CYLINDRICAL_SURFACE('',#692,0.999999999999999);
#604=ADVANCED_FACE('',(#51),#600,.F.);
#605=ADVANCED_FACE('',(#52),#22,.F.);
#606=ADVANCED_FACE('',(#53),#23,.F.);
#607=ADVANCED_FACE('',(#54),#601,.F.);
#608=ADVANCED_FACE('',(#55),#24,.T.);
#609=ADVANCED_FACE('',(#56),#25,.T.);
#610=ADVANCED_FACE('',(#57),#26,.T.);
#611=ADVANCED_FACE('',(#58),#27,.T.);
#612=ADVANCED_FACE('',(#59),#28,.T.);
#613=ADVANCED_FACE('',(#60),#29,.T.);
#614=ADVANCED_FACE('',(#61,#15),#30,.T.);
#615=ADVANCED_FACE('',(#62,#16),#31,.T.);
#616=ADVANCED_FACE('',(#63),#32,.T.);
#617=ADVANCED_FACE('',(#64),#33,.T.);
#618=ADVANCED_FACE('',(#65),#34,.T.);
#619=ADVANCED_FACE('',(#66),#35,.T.);
#620=ADVANCED_FACE('',(#67),#36,.T.);
#621=ADVANCED_FACE('',(#68),#37,.T.);
#622=ADVANCED_FACE('',(#69),#38,.T.);
#623=ADVANCED_FACE('',(#70,#17),#39,.T.);
#624=ADVANCED_FACE('',(#71),#40,.F.);
#625=ADVANCED_FACE('',(#72),#41,.F.);
#626=ADVANCED_FACE('',(#73),#42,.F.);
#627=ADVANCED_FACE('',(#74),#43,.F.);
#628=ADVANCED_FACE('',(#75),#44,.T.);
#629=ADVANCED_FACE('',(#76,#18),#45,.T.);
#630=ADVANCED_FACE('',(#77),#602,.T.);
#631=ADVANCED_FACE('',(#78,#19),#46,.T.);
#632=ADVANCED_FACE('',(#79),#47,.T.);
#633=ADVANCED_FACE('',(#80),#603,.F.);
#634=ADVANCED_FACE('',(#81),#48,.T.);
#635=ADVANCED_FACE('',(#82),#49,.T.);
#636=ADVANCED_FACE('',(#83),#50,.T.);
#637=CLOSED_SHELL('',(#604,#605,#606,#607,#608,#609,#610,#611,#612,#613,
#614,#615,#616,#617,#618,#619,#620,#621,#622,#623,#624,#625,#626,#627,#628,
#629,#630,#631,#632,#633,#634,#635,#636));
#638=DERIVED_UNIT_ELEMENT(#640,1.);
#639=DERIVED_UNIT_ELEMENT(#1046,-3.);
#640=(
MASS_UNIT()
NAMED_UNIT(*)
SI_UNIT(.KILO.,.GRAM.)
);
#641=DERIVED_UNIT((#638,#639));
#642=MEASURE_REPRESENTATION_ITEM('density measure',
POSITIVE_RATIO_MEASURE(7850.),#641);
#643=PROPERTY_DEFINITION_REPRESENTATION(#648,#645);
#644=PROPERTY_DEFINITION_REPRESENTATION(#649,#646);
#645=REPRESENTATION('material name',(#647),#1043);
#646=REPRESENTATION('density',(#642),#1043);
#647=DESCRIPTIVE_REPRESENTATION_ITEM('\X2\94A2\X0\','\X2\94A2\X0\');
#648=PROPERTY_DEFINITION('material property','material name',#1053);
#649=PROPERTY_DEFINITION('material property','density of part',#1053);
#650=AXIS2_PLACEMENT_3D('',#863,#696,#697);
#651=AXIS2_PLACEMENT_3D('',#864,#698,#699);
#652=AXIS2_PLACEMENT_3D('',#867,#700,#701);
#653=AXIS2_PLACEMENT_3D('',#871,#703,#704);
#654=AXIS2_PLACEMENT_3D('',#873,#706,#707);
#655=AXIS2_PLACEMENT_3D('',#879,#711,#712);
#656=AXIS2_PLACEMENT_3D('',#885,#716,#717);
#657=AXIS2_PLACEMENT_3D('',#887,#718,#719);
#658=AXIS2_PLACEMENT_3D('',#889,#720,#721);
#659=AXIS2_PLACEMENT_3D('',#890,#722,#723);
#660=AXIS2_PLACEMENT_3D('',#892,#724,#725);
#661=AXIS2_PLACEMENT_3D('',#894,#726,#727);
#662=AXIS2_PLACEMENT_3D('',#895,#728,#729);
#663=AXIS2_PLACEMENT_3D('',#896,#730,#731);
#664=AXIS2_PLACEMENT_3D('',#906,#737,#738);
#665=AXIS2_PLACEMENT_3D('',#916,#744,#745);
#666=AXIS2_PLACEMENT_3D('',#924,#750,#751);
#667=AXIS2_PLACEMENT_3D('',#930,#755,#756);
#668=AXIS2_PLACEMENT_3D('',#933,#759,#760);
#669=AXIS2_PLACEMENT_3D('',#942,#765,#766);
#670=AXIS2_PLACEMENT_3D('',#956,#774,#775);
#671=AXIS2_PLACEMENT_3D('',#961,#779,#780);
#672=AXIS2_PLACEMENT_3D('',#965,#783,#784);
#673=AXIS2_PLACEMENT_3D('',#967,#786,#787);
#674=AXIS2_PLACEMENT_3D('',#976,#792,#793);
#675=AXIS2_PLACEMENT_3D('',#982,#797,#798);
#676=AXIS2_PLACEMENT_3D('',#986,#801,#802);
#677=AXIS2_PLACEMENT_3D('',#990,#805,#806);
#678=AXIS2_PLACEMENT_3D('',#996,#810,#811);
#679=AXIS2_PLACEMENT_3D('',#1002,#815,#816);
#680=AXIS2_PLACEMENT_3D('',#1008,#820,#821);
#681=AXIS2_PLACEMENT_3D('',#1010,#823,#824);
#682=AXIS2_PLACEMENT_3D('',#1012,#826,#827);
#683=AXIS2_PLACEMENT_3D('',#1013,#828,#829);
#684=AXIS2_PLACEMENT_3D('',#1019,#833,#834);
#685=AXIS2_PLACEMENT_3D('',#1021,#835,#836);
#686=AXIS2_PLACEMENT_3D('',#1024,#838,#839);
#687=AXIS2_PLACEMENT_3D('',#1025,#840,#841);
#688=AXIS2_PLACEMENT_3D('',#1027,#842,#843);
#689=AXIS2_PLACEMENT_3D('',#1029,#845,#846);
#690=AXIS2_PLACEMENT_3D('',#1032,#848,#849);
#691=AXIS2_PLACEMENT_3D('',#1033,#850,#851);
#692=AXIS2_PLACEMENT_3D('',#1034,#852,#853);
#693=AXIS2_PLACEMENT_3D('',#1036,#855,#856);
#694=AXIS2_PLACEMENT_3D('',#1038,#858,#859);
#695=AXIS2_PLACEMENT_3D('',#1040,#861,#862);
#696=DIRECTION('axis',(0.,0.,1.));
#697=DIRECTION('refdir',(1.,0.,0.));
#698=DIRECTION('center_axis',(0.,0.,-1.));
#699=DIRECTION('ref_axis',(-1.,0.,0.));
#700=DIRECTION('center_axis',(0.,0.,1.));
#701=DIRECTION('ref_axis',(-1.,0.,0.));
#702=DIRECTION('',(0.,0.,-1.));
#703=DIRECTION('center_axis',(0.,0.,-1.));
#704=DIRECTION('ref_axis',(-1.,0.,0.));
#705=DIRECTION('',(0.,0.,-1.));
#706=DIRECTION('center_axis',(1.,0.,0.));
#707=DIRECTION('ref_axis',(0.,-1.,0.));
#708=DIRECTION('',(0.,1.,0.));
#709=DIRECTION('',(0.,-1.,0.));
#710=DIRECTION('',(0.,0.,-1.));
#711=DIRECTION('center_axis',(-1.,0.,0.));
#712=DIRECTION('ref_axis',(0.,1.,0.));
#713=DIRECTION('',(0.,-1.,0.));
#714=DIRECTION('',(0.,0.,-1.));
#715=DIRECTION('',(0.,1.,0.));
#716=DIRECTION('center_axis',(0.,0.,-1.));
#717=DIRECTION('ref_axis',(1.,0.,0.));
#718=DIRECTION('center_axis',(0.,0.,1.));
#719=DIRECTION('ref_axis',(1.,0.,0.));
#720=DIRECTION('center_axis',(0.,0.936329172193551,0.351123455923041));
#721=DIRECTION('ref_axis',(0.,-0.351123455923041,0.936329172193551));
#722=DIRECTION('center_axis',(0.,0.,1.));
#723=DIRECTION('ref_axis',(1.,0.,0.));
#724=DIRECTION('center_axis',(0.,0.,-1.));
#725=DIRECTION('ref_axis',(1.,0.,0.));
#726=DIRECTION('center_axis',(0.,-0.936329172193551,-0.351123455923041));
#727=DIRECTION('ref_axis',(0.,-0.351123455923041,0.936329172193551));
#728=DIRECTION('center_axis',(0.,0.,-1.));
#729=DIRECTION('ref_axis',(1.,0.,0.));
#730=DIRECTION('center_axis',(0.,0.,-1.));
#731=DIRECTION('ref_axis',(1.,0.,0.));
#732=DIRECTION('',(1.,0.,0.));
#733=DIRECTION('',(0.,-1.,0.));
#734=DIRECTION('',(1.,0.,0.));
#735=DIRECTION('',(0.,-1.,0.));
#736=DIRECTION('',(1.,0.,0.));
#737=DIRECTION('center_axis',(0.,0.,1.));
#738=DIRECTION('ref_axis',(-1.,0.,0.));
#739=DIRECTION('',(-1.,0.,0.));
#740=DIRECTION('',(0.,-1.,0.));
#741=DIRECTION('',(-1.,0.,0.));
#742=DIRECTION('',(0.,-1.,0.));
#743=DIRECTION('',(-1.,0.,0.));
#744=DIRECTION('center_axis',(0.,-0.936329172193551,-0.351123455923041));
#745=DIRECTION('ref_axis',(0.,0.351123455923041,-0.936329172193551));
#746=DIRECTION('',(0.,0.351123455923041,-0.936329172193551));
#747=DIRECTION('',(-1.,0.,0.));
#748=DIRECTION('',(0.,-0.351123455923041,0.936329172193551));
#749=DIRECTION('',(1.06735798312091E-6,0.351123455922841,-0.936329172193017));
#750=DIRECTION('center_axis',(0.,0.936329172193551,0.351123455923041));
#751=DIRECTION('ref_axis',(0.,-0.351123455923041,0.936329172193551));
#752=DIRECTION('',(0.,-0.351123455923041,0.936329172193551));
#753=DIRECTION('',(1.,0.,0.));
#754=DIRECTION('',(0.,-0.351123455923041,0.936329172193551));
#755=DIRECTION('center_axis',(1.,0.,0.));
#756=DIRECTION('ref_axis',(0.,0.,-1.));
#757=DIRECTION('',(-1.13993883221678E-6,0.,0.99999999999935));
#758=DIRECTION('',(0.,0.,-1.));
#759=DIRECTION('center_axis',(0.,0.,-1.));
#760=DIRECTION('ref_axis',(-1.,0.,0.));
#761=DIRECTION('',(0.,-1.,0.));
#762=DIRECTION('',(-1.,0.,0.));
#763=DIRECTION('',(0.,1.,0.));
#764=DIRECTION('',(1.,0.,0.));
#765=DIRECTION('center_axis',(1.,0.,0.));
#766=DIRECTION('ref_axis',(0.,-1.,0.));
#767=DIRECTION('',(0.,1.,0.));
#768=DIRECTION('',(0.,0.,-1.));
#769=DIRECTION('',(0.,0.,-1.));
#770=DIRECTION('',(0.,1.,0.));
#771=DIRECTION('',(0.,0.,-1.));
#772=DIRECTION('',(0.,-1.,-1.90647210934758E-8));
#773=DIRECTION('',(0.,0.,1.));
#774=DIRECTION('center_axis',(0.,-1.,0.));
#775=DIRECTION('ref_axis',(-1.,0.,0.));
#776=DIRECTION('',(1.,0.,0.));
#777=DIRECTION('',(0.,0.,-1.));
#778=DIRECTION('',(0.,0.,1.));
#779=DIRECTION('center_axis',(-1.,0.,0.));
#780=DIRECTION('ref_axis',(0.,1.,0.));
#781=DIRECTION('',(0.,-1.,0.));
#782=DIRECTION('',(0.,0.,-1.));
#783=DIRECTION('center_axis',(0.,1.,0.));
#784=DIRECTION('ref_axis',(1.,0.,0.));
#785=DIRECTION('',(-1.,0.,0.));
#786=DIRECTION('center_axis',(0.,0.,1.));
#787=DIRECTION('ref_axis',(1.,0.,0.));
#788=DIRECTION('',(-1.,0.,0.));
#789=DIRECTION('',(0.,-1.,0.));
#790=DIRECTION('',(1.,0.,0.));
#791=DIRECTION('',(0.,1.,0.));
#792=DIRECTION('center_axis',(0.,1.,0.));
#793=DIRECTION('ref_axis',(-1.,0.,0.));
#794=DIRECTION('',(1.,0.,0.));
#795=DIRECTION('',(0.,0.,1.));
#796=DIRECTION('',(0.,0.,1.));
#797=DIRECTION('center_axis',(-1.,0.,0.));
#798=DIRECTION('ref_axis',(0.,-1.,0.));
#799=DIRECTION('',(0.,1.,0.));
#800=DIRECTION('',(0.,0.,1.));
#801=DIRECTION('center_axis',(0.,-1.,0.));
#802=DIRECTION('ref_axis',(1.,0.,0.));
#803=DIRECTION('',(-1.,0.,0.));
#804=DIRECTION('',(0.,0.,1.));
#805=DIRECTION('center_axis',(1.,0.,0.));
#806=DIRECTION('ref_axis',(0.,1.,0.));
#807=DIRECTION('',(0.,0.,-1.));
#808=DIRECTION('',(0.,1.,0.));
#809=DIRECTION('',(0.,0.,-1.));
#810=DIRECTION('center_axis',(0.,0.,1.));
#811=DIRECTION('ref_axis',(1.,0.,0.));
#812=DIRECTION('',(1.,0.,0.));
#813=DIRECTION('',(0.,-1.,0.));
#814=DIRECTION('',(-1.,0.,0.));
#815=DIRECTION('center_axis',(0.,0.,-1.));
#816=DIRECTION('ref_axis',(-1.,0.,0.));
#817=DIRECTION('',(1.,0.,0.));
#818=DIRECTION('',(-1.,0.,0.));
#819=DIRECTION('',(0.,-1.,0.));
#820=DIRECTION('center_axis',(0.,1.,0.));
#821=DIRECTION('ref_axis',(1.,0.,0.));
#822=DIRECTION('',(0.,0.,-1.));
#823=DIRECTION('center_axis',(1.,0.,0.));
#824=DIRECTION('ref_axis',(0.,-1.,0.));
#825=DIRECTION('',(0.,0.,-1.));
#826=DIRECTION('center_axis',(0.,-1.,0.));
#827=DIRECTION('ref_axis',(-1.,0.,0.));
#828=DIRECTION('center_axis',(0.,1.,0.));
#829=DIRECTION('ref_axis',(0.,0.,1.));
#830=DIRECTION('',(0.,0.,1.));
#831=DIRECTION('',(1.,0.,0.));
#832=DIRECTION('',(1.,0.,0.));
#833=DIRECTION('center_axis',(0.,1.90647210934758E-8,-1.));
#834=DIRECTION('ref_axis',(0.,1.,1.90647210934758E-8));
#835=DIRECTION('center_axis',(0.,1.90647210934758E-8,-1.));
#836=DIRECTION('ref_axis',(0.,1.,1.90647210934758E-8));
#837=DIRECTION('',(1.,0.,0.));
#838=DIRECTION('center_axis',(0.,-1.90647210934758E-8,1.));
#839=DIRECTION('ref_axis',(0.,1.,1.90647210934758E-8));
#840=DIRECTION('center_axis',(0.,0.,-1.));
#841=DIRECTION('ref_axis',(1.,-1.22464679914735E-16,0.));
#842=DIRECTION('center_axis',(0.,0.,1.));
#843=DIRECTION('ref_axis',(-1.,0.,0.));
#844=DIRECTION('',(0.,0.,1.));
#845=DIRECTION('center_axis',(0.,0.,1.));
#846=DIRECTION('ref_axis',(0.,-1.,0.));
#847=DIRECTION('',(1.,0.,0.));
#848=DIRECTION('center_axis',(0.,0.,-1.));
#849=DIRECTION('ref_axis',(-1.,0.,0.));
#850=DIRECTION('center_axis',(0.,-1.,0.));
#851=DIRECTION('ref_axis',(0.,0.,-1.));
#852=DIRECTION('center_axis',(0.,0.,-1.));
#853=DIRECTION('ref_axis',(-1.,0.,0.));
#854=DIRECTION('',(0.,0.,-1.));
#855=DIRECTION('center_axis',(-1.,0.,0.));
#856=DIRECTION('ref_axis',(0.,0.,-1.));
#857=DIRECTION('',(0.,0.,-1.));
#858=DIRECTION('center_axis',(0.99999999999935,0.,1.13993883221678E-6));
#859=DIRECTION('ref_axis',(-1.13993883221678E-6,0.,0.99999999999935));
#860=DIRECTION('',(-1.13993883221678E-6,0.,0.99999999999935));
#861=DIRECTION('center_axis',(0.,-1.,0.));
#862=DIRECTION('ref_axis',(0.,0.,-1.));
#863=CARTESIAN_POINT('',(0.,0.,0.));
#864=CARTESIAN_POINT('Origin',(-6.35000011175871,-7.52577464109308,-2.4));
#865=CARTESIAN_POINT('',(-7.15000011175871,-7.52577464109308,-2.6));
#866=CARTESIAN_POINT('',(-5.55000011175871,-7.52577464109308,-2.6));
#867=CARTESIAN_POINT('Origin',(-6.35000011175871,-7.52577464109308,-2.6));
#868=CARTESIAN_POINT('',(-7.15000011175871,-7.52577464109308,-2.4));
#869=CARTESIAN_POINT('',(-7.15000011175871,-7.52577464109308,-2.4));
#870=CARTESIAN_POINT('',(-5.55000011175871,-7.52577464109308,-2.4));
#871=CARTESIAN_POINT('Origin',(-6.35000011175871,-7.52577464109308,-2.4));
#872=CARTESIAN_POINT('',(-5.55000011175871,-7.52577464109308,-2.4));
#873=CARTESIAN_POINT('Origin',(-5.55000011175871,-5.92577464109308,-2.4));
#874=CARTESIAN_POINT('',(-5.55000011175871,-5.92577464109308,-2.6));
#875=CARTESIAN_POINT('',(-5.55000011175871,-5.16288732054654,-2.6));
#876=CARTESIAN_POINT('',(-5.55000011175871,-5.92577464109308,-2.4));
#877=CARTESIAN_POINT('',(-5.55000011175871,-5.16288732054654,-2.4));
#878=CARTESIAN_POINT('',(-5.55000011175871,-5.92577464109308,-2.4));
#879=CARTESIAN_POINT('Origin',(-7.15000011175871,-7.52577464109308,-2.4));
#880=CARTESIAN_POINT('',(-7.15000011175871,-5.92577464109308,-2.6));
#881=CARTESIAN_POINT('',(-7.15000011175871,-5.96288732054654,-2.6));
#882=CARTESIAN_POINT('',(-7.15000011175871,-5.92577464109308,-2.4));
#883=CARTESIAN_POINT('',(-7.15000011175871,-5.92577464109308,-2.4));
#884=CARTESIAN_POINT('',(-7.15000011175871,-5.96288732054654,-2.4));
#885=CARTESIAN_POINT('Origin',(-6.35000011175871,-5.92577464109308,-2.4));
#886=CARTESIAN_POINT('',(-6.90891629275643,-5.35340002371481,-2.6));
#887=CARTESIAN_POINT('Origin',(-6.35000011175871,-5.92577464109308,-2.6));
#888=CARTESIAN_POINT('',(-5.79108393076099,-5.35340002371481,-2.6));
#889=CARTESIAN_POINT('Origin',(-6.35000011175871,-5.92577464109308,-1.07366775806666));
#890=CARTESIAN_POINT('Origin',(-6.35000011175871,-5.92577464109308,-2.6));
#891=CARTESIAN_POINT('',(-5.85159656184676,-5.3,-2.4));
#892=CARTESIAN_POINT('Origin',(-6.35000011175871,-5.92577464109308,-2.4));
#893=CARTESIAN_POINT('',(-6.84840366167066,-5.3,-2.4));
#894=CARTESIAN_POINT('Origin',(-6.35000011175871,-5.92577464109308,-0.731267701458197));
#895=CARTESIAN_POINT('Origin',(-6.35000011175871,-5.92577464109308,-2.4));
#896=CARTESIAN_POINT('Origin',(-7.50000011175871,-4.4,-2.6));
#897=CARTESIAN_POINT('',(-5.20000011175871,-5.35340002371481,-2.6));
#898=CARTESIAN_POINT('',(-7.50000011175871,-5.35340002371481,-2.6));
#899=CARTESIAN_POINT('',(-5.19999988377094,-8.4,-2.6));
#900=CARTESIAN_POINT('',(-5.19999988377094,-4.4,-2.6));
#901=CARTESIAN_POINT('',(-7.50000011175871,-8.4,-2.6));
#902=CARTESIAN_POINT('',(-7.50000011175871,-8.4,-2.6));
#903=CARTESIAN_POINT('',(-7.50000011175871,-5.35340002371481,-2.6));
#904=CARTESIAN_POINT('',(-7.50000011175871,-4.4,-2.6));
#905=CARTESIAN_POINT('',(-7.50000011175871,-5.35340002371481,-2.6));
#906=CARTESIAN_POINT('Origin',(-5.20000011175871,-4.4,-2.4));
#907=CARTESIAN_POINT('',(-7.50000011175871,-5.3,-2.4));
#908=CARTESIAN_POINT('',(-5.20000011175871,-5.3,-2.4));
#909=CARTESIAN_POINT('',(-7.50000011175871,-8.4,-2.4));
#910=CARTESIAN_POINT('',(-7.50000011175871,-4.4,-2.4));
#911=CARTESIAN_POINT('',(-5.20000011175871,-8.4,-2.4));
#912=CARTESIAN_POINT('',(-7.50000011175871,-8.4,-2.4));
#913=CARTESIAN_POINT('',(-5.20000011175871,-5.3,-2.4));
#914=CARTESIAN_POINT('',(-5.20000011175871,-4.4,-2.4));
#915=CARTESIAN_POINT('',(-5.20000011175871,-5.3,-2.4));
#916=CARTESIAN_POINT('Origin',(-7.50000011175871,-5.34681645860968,-2.61755617279615));
#917=CARTESIAN_POINT('',(-7.50000011175871,-4.4,-5.14239994484975));
#918=CARTESIAN_POINT('',(-7.50000011175871,-5.32421371550719,-2.67783015159606));
#919=CARTESIAN_POINT('',(-5.20000011175871,-4.4,-5.14239994484975));
#920=CARTESIAN_POINT('',(0.724999944120646,-4.4,-5.14239994484976));
#921=CARTESIAN_POINT('',(-5.20000011175871,-5.30000000000119,-2.7424000566053));
#922=CARTESIAN_POINT('',(-5.20000011175871,-5.13825481535079,-3.17372052892144));
#923=CARTESIAN_POINT('',(-5.1999996951108,-5.29133743301568,-2.76550023415764));
#924=CARTESIAN_POINT('Origin',(-7.50000011175871,-4.4,-4.79999988824129));
#925=CARTESIAN_POINT('',(-5.20000011175871,-4.4,-4.79999988824129));
#926=CARTESIAN_POINT('',(-5.20000011175871,-4.4,-4.79999988824129));
#927=CARTESIAN_POINT('',(-7.50000011175871,-4.4,-4.79999988824129));
#928=CARTESIAN_POINT('',(0.724999944120646,-4.4,-4.79999988824129));
#929=CARTESIAN_POINT('',(-7.50000011175871,-4.4,-4.79999988824129));
#930=CARTESIAN_POINT('Origin',(-5.20000011175871,-4.85,-3.69999994412064));
#931=CARTESIAN_POINT('',(-5.19999999776483,-5.3,-2.5));
#932=CARTESIAN_POINT('',(-5.20000011175871,-4.4,-1.84999997206032));
#933=CARTESIAN_POINT('Origin',(0.,0.,-5.6));
#934=CARTESIAN_POINT('',(8.95,4.4,-5.6));
#935=CARTESIAN_POINT('',(8.95,-4.4,-5.6));
#936=CARTESIAN_POINT('',(8.95,-4.4,-5.6));
#937=CARTESIAN_POINT('',(-8.95,-4.4,-5.6));
#938=CARTESIAN_POINT('',(-8.95,-4.4,-5.6));
#939=CARTESIAN_POINT('',(-8.95,4.4,-5.6));
#940=CARTESIAN_POINT('',(-8.95,4.4,-5.6));
#941=CARTESIAN_POINT('',(8.95,4.4,-5.6));
#942=CARTESIAN_POINT('Origin',(8.95,4.4,0.));
#943=CARTESIAN_POINT('',(8.95,-4.4,0.));
#944=CARTESIAN_POINT('',(8.95,4.4,0.));
#945=CARTESIAN_POINT('',(8.95,-4.4,0.));
#946=CARTESIAN_POINT('',(8.95,-4.4,0.));
#947=CARTESIAN_POINT('',(8.95,4.4,0.));
#948=CARTESIAN_POINT('',(8.95,-1.7,-2.7));
#949=CARTESIAN_POINT('',(8.95,1.69999996200204,-2.7));
#950=CARTESIAN_POINT('',(8.95,3.04999998100102,-2.7));
#951=CARTESIAN_POINT('',(8.95,1.69999996200204,-2.89999993517995));
#952=CARTESIAN_POINT('',(8.95,1.69999996200204,-1.44999996758997));
#953=CARTESIAN_POINT('',(8.95,-1.7,-2.9));
#954=CARTESIAN_POINT('',(8.95,1.35000002764384,-2.8999999418526));
#955=CARTESIAN_POINT('',(8.95,-1.7,-1.35));
#956=CARTESIAN_POINT('Origin',(8.95,-4.4,0.));
#957=CARTESIAN_POINT('',(-8.95,-4.4,0.));
#958=CARTESIAN_POINT('',(-8.95,-4.4,0.));
#959=CARTESIAN_POINT('',(-8.95,-4.4,0.));
#960=CARTESIAN_POINT('',(-7.50000011175871,-4.4,-1.84999997206032));
#961=CARTESIAN_POINT('Origin',(-8.95,-4.4,0.));
#962=CARTESIAN_POINT('',(-8.95,4.4,0.));
#963=CARTESIAN_POINT('',(-8.95,4.4,0.));
#964=CARTESIAN_POINT('',(-8.95,4.4,0.));
#965=CARTESIAN_POINT('Origin',(-8.95,4.4,0.));
#966=CARTESIAN_POINT('',(8.95,4.4,0.));
#967=CARTESIAN_POINT('Origin',(-1.5,0.,2.));
#968=CARTESIAN_POINT('',(0.,2.1,2.));
#969=CARTESIAN_POINT('',(-3.,2.1,2.));
#970=CARTESIAN_POINT('',(-3.,2.1,2.));
#971=CARTESIAN_POINT('',(-3.,-2.1,2.));
#972=CARTESIAN_POINT('',(-3.,-2.1,2.));
#973=CARTESIAN_POINT('',(0.,-2.1,2.));
#974=CARTESIAN_POINT('',(3.,-2.1,2.));
#975=CARTESIAN_POINT('',(0.,2.1,2.));
#976=CARTESIAN_POINT('Origin',(0.,2.1,0.));
#977=CARTESIAN_POINT('',(-3.,2.1,0.));
#978=CARTESIAN_POINT('',(0.,2.1,0.));
#979=CARTESIAN_POINT('',(0.,2.1,0.));
#980=CARTESIAN_POINT('',(-3.,2.1,0.));
#981=CARTESIAN_POINT('',(0.,2.1,0.));
#982=CARTESIAN_POINT('Origin',(-3.,2.1,0.));
#983=CARTESIAN_POINT('',(-3.,-2.1,0.));
#984=CARTESIAN_POINT('',(-3.,1.05,0.));
#985=CARTESIAN_POINT('',(-3.,-2.1,0.));
#986=CARTESIAN_POINT('Origin',(-3.,-2.1,0.));
#987=CARTESIAN_POINT('',(0.,-2.1,0.));
#988=CARTESIAN_POINT('',(-1.5,-2.1,0.));
#989=CARTESIAN_POINT('',(0.,-2.1,0.));
#990=CARTESIAN_POINT('Origin',(0.,-2.1,0.));
#991=CARTESIAN_POINT('',(0.,-2.1,-0.2));
#992=CARTESIAN_POINT('',(0.,-2.1,0.));
#993=CARTESIAN_POINT('',(0.,2.1,-0.2));
#994=CARTESIAN_POINT('',(0.,2.1,-0.2));
#995=CARTESIAN_POINT('',(0.,2.1,0.));
#996=CARTESIAN_POINT('Origin',(0.,0.,0.));
#997=CARTESIAN_POINT('',(3.,2.1,0.));
#998=CARTESIAN_POINT('',(0.,2.1,0.));
#999=CARTESIAN_POINT('',(3.,-2.1,0.));
#1000=CARTESIAN_POINT('',(3.,1.05,0.));
#1001=CARTESIAN_POINT('',(1.5,-2.1,0.));
#1002=CARTESIAN_POINT('Origin',(1.5,0.,-0.2));
#1003=CARTESIAN_POINT('',(3.,2.1,-0.2));
#1004=CARTESIAN_POINT('',(-3.,2.1,-0.2));
#1005=CARTESIAN_POINT('',(3.,-2.1,-0.2));
#1006=CARTESIAN_POINT('',(3.,-2.1,-0.2));
#1007=CARTESIAN_POINT('',(3.,2.1,-0.2));
#1008=CARTESIAN_POINT('Origin',(0.,2.1,0.));
#1009=CARTESIAN_POINT('',(3.,2.1,0.));
#1010=CARTESIAN_POINT('Origin',(3.,2.1,0.));
#1011=CARTESIAN_POINT('',(3.,-2.1,0.));
#1012=CARTESIAN_POINT('Origin',(3.,-2.1,0.));
#1013=CARTESIAN_POINT('Origin',(8.95,1.69999996200204,-2.89999993517995));
#1014=CARTESIAN_POINT('',(11.350000037998,1.69999996200204,-2.89999993517995));
#1015=CARTESIAN_POINT('',(11.350000037998,1.69999996200204,-2.7));
#1016=CARTESIAN_POINT('',(11.350000037998,1.69999996200204,-2.7));
#1017=CARTESIAN_POINT('',(8.95,1.69999996200204,-2.89999993517995));
#1018=CARTESIAN_POINT('',(8.95,1.69999996200204,-2.7));
#1019=CARTESIAN_POINT('Origin',(8.95,-1.7,-2.9));
#1020=CARTESIAN_POINT('',(11.350000037998,-1.69999996200204,-2.9));
#1021=CARTESIAN_POINT('Origin',(11.350000037998,0.,-2.89999996758997));
#1022=CARTESIAN_POINT('',(8.95,-1.7,-2.9));
#1023=CARTESIAN_POINT('',(12.350000037998,-1.22464679914735E-16,-2.8999999866547));
#1024=CARTESIAN_POINT('Origin',(11.350000037998,0.,-2.89999996758997));
#1025=CARTESIAN_POINT('Origin',(11.350000037998,0.,-2.7));
#1026=CARTESIAN_POINT('',(11.350000037998,-1.69999996200204,-2.7));
#1027=CARTESIAN_POINT('Origin',(11.350000037998,0.,-2.7));
#1028=CARTESIAN_POINT('',(11.350000037998,-1.7,-2.7));
#1029=CARTESIAN_POINT('Origin',(8.95,1.69999996200204,-2.7));
#1030=CARTESIAN_POINT('',(8.95,-1.7,-2.7));
#1031=CARTESIAN_POINT('',(12.350000037998,1.22464679914735E-16,-2.7));
#1032=CARTESIAN_POINT('Origin',(11.350000037998,0.,-2.7));
#1033=CARTESIAN_POINT('Origin',(8.95,-1.7,-2.7));
#1034=CARTESIAN_POINT('Origin',(11.350000037998,0.,-2.7));
#1035=CARTESIAN_POINT('',(12.350000037998,-1.22464679914735E-16,-2.7));
#1036=CARTESIAN_POINT('Origin',(-7.50000011175871,-4.4,-2.4));
#1037=CARTESIAN_POINT('',(-7.50000011175871,-8.4,-2.4));
#1038=CARTESIAN_POINT('Origin',(-5.19999988377094,-4.4,-2.6));
#1039=CARTESIAN_POINT('',(-5.19999988377094,-8.4,-2.6));
#1040=CARTESIAN_POINT('Origin',(-6.34999999776483,-8.4,-2.5));
#1041=UNCERTAINTY_MEASURE_WITH_UNIT(LENGTH_MEASURE(0.01),#1045,
'DISTANCE_ACCURACY_VALUE',
'Maximum model space distance between geometric entities at asserted c
onnectivities');
#1042=UNCERTAINTY_MEASURE_WITH_UNIT(LENGTH_MEASURE(0.01),#1045,
'DISTANCE_ACCURACY_VALUE',
'Maximum model space distance between geometric entities at asserted c
onnectivities');
#1043=(
GEOMETRIC_REPRESENTATION_CONTEXT(3)
GLOBAL_UNCERTAINTY_ASSIGNED_CONTEXT((#1041))
GLOBAL_UNIT_ASSIGNED_CONTEXT((#1045,#1047,#1048))
REPRESENTATION_CONTEXT('','3D')
);
#1044=(
GEOMETRIC_REPRESENTATION_CONTEXT(3)
GLOBAL_UNCERTAINTY_ASSIGNED_CONTEXT((#1042))
GLOBAL_UNIT_ASSIGNED_CONTEXT((#1045,#1047,#1048))
REPRESENTATION_CONTEXT('','3D')
);
#1045=(
LENGTH_UNIT()
NAMED_UNIT(*)
SI_UNIT(.MILLI.,.METRE.)
);
#1046=(
LENGTH_UNIT()
NAMED_UNIT(*)
SI_UNIT($,.METRE.)
);
#1047=(
NAMED_UNIT(*)
PLANE_ANGLE_UNIT()
SI_UNIT($,.RADIAN.)
);
#1048=(
NAMED_UNIT(*)
SI_UNIT($,.STERADIAN.)
SOLID_ANGLE_UNIT()
);
#1049=SHAPE_DEFINITION_REPRESENTATION(#1050,#1051);
#1050=PRODUCT_DEFINITION_SHAPE('',$,#1053);
#1051=SHAPE_REPRESENTATION('',(#650),#1043);
#1052=PRODUCT_DEFINITION_CONTEXT('part definition',#1057,'design');
#1053=PRODUCT_DEFINITION('2026-04-30-05-51-35-070','\X2\75356E905F005173\X0\',
#1054,#1052);
#1054=PRODUCT_DEFINITION_FORMATION('',$,#1059);
#1055=PRODUCT_RELATED_PRODUCT_CATEGORY('\X2\75356E905F005173\X0\',
'\X2\75356E905F005173\X0\',(#1059));
#1056=APPLICATION_PROTOCOL_DEFINITION('international standard',
'automotive_design',2009,#1057);
#1057=APPLICATION_CONTEXT(
'Core Data for Automotive Mechanical Design Process');
#1058=PRODUCT_CONTEXT('part definition',#1057,'mechanical');
#1059=PRODUCT('2026-04-30-05-51-35-070','\X2\75356E905F005173\X0\',$,(#1058));
#1060=PRESENTATION_STYLE_ASSIGNMENT((#1061));
#1061=SURFACE_STYLE_USAGE(.BOTH.,#1062);
#1062=SURFACE_SIDE_STYLE('',(#1063));
#1063=SURFACE_STYLE_FILL_AREA(#1064);
#1064=FILL_AREA_STYLE('\X2\94A2\X0\ - \X2\7F0E5149\X0\',(#1065));
#1065=FILL_AREA_STYLE_COLOUR('\X2\94A2\X0\ - \X2\7F0E5149\X0\',#1066);
#1066=COLOUR_RGB('\X2\94A2\X0\ - \X2\7F0E5149\X0\',0.627450980392157,0.627450980392157,
0.627450980392157);
ENDSEC;
END-ISO-10303-21;
