ISO-10303-21;
HEADER;
/* Generated by software containing ST-Developer
 * from STEP Tools, Inc. (www.steptools.com) 
 */

FILE_DESCRIPTION(
/* description */ (''),
/* implementation_level */ '2;1');

FILE_NAME(
/* name */ '',
/* time_stamp */ '2026-08-11T12:12:49+09:00',
/* author */ (''),
/* organization */ (''),
/* preprocessor_version */ 'ST-DEVELOPER v20.1',
/* originating_system */ 'Autodesk Translation Framework v15.8.0.0',
/* authorisation */ '');

FILE_SCHEMA (('AUTOMOTIVE_DESIGN { 1 0 10303 214 3 1 1 }'));
ENDSEC;

DATA;
#10=MECHANICAL_DESIGN_GEOMETRIC_PRESENTATION_REPRESENTATION('',(#13),#2035);
#11=SHAPE_REPRESENTATION_RELATIONSHIP('SRR','None',#2042,#12);
#12=ADVANCED_BREP_SHAPE_REPRESENTATION('',(#14),#2034);
#13=STYLED_ITEM('',(#2051),#14);
#14=MANIFOLD_SOLID_BREP('\X2\5B9E4F53\X0\1',#1255);
#15=CIRCLE('',#1282,1.6);
#16=CIRCLE('',#1283,1.6);
#17=CIRCLE('',#1285,1.6);
#18=CIRCLE('',#1286,1.6);
#19=CIRCLE('',#1289,0.199999999999999);
#20=CIRCLE('',#1290,0.199999999999999);
#21=CIRCLE('',#1293,1.5);
#22=CIRCLE('',#1294,1.5);
#23=CIRCLE('',#1297,0.200000000000001);
#24=CIRCLE('',#1298,0.200000000000001);
#25=CIRCLE('',#1301,1.5);
#26=CIRCLE('',#1302,1.5);
#27=CIRCLE('',#1336,1.5);
#28=CIRCLE('',#1337,1.5);
#29=CIRCLE('',#1339,1.5);
#30=CIRCLE('',#1340,1.5);
#31=CIRCLE('',#1342,1.5);
#32=CIRCLE('',#1343,1.5);
#33=CIRCLE('',#1345,1.5);
#34=CIRCLE('',#1346,1.5);
#35=CYLINDRICAL_SURFACE('',#1281,1.6);
#36=CYLINDRICAL_SURFACE('',#1284,1.6);
#37=CYLINDRICAL_SURFACE('',#1288,0.199999999999999);
#38=CYLINDRICAL_SURFACE('',#1292,1.5);
#39=CYLINDRICAL_SURFACE('',#1296,0.200000000000001);
#40=CYLINDRICAL_SURFACE('',#1300,1.5);
#41=CYLINDRICAL_SURFACE('',#1335,1.5);
#42=CYLINDRICAL_SURFACE('',#1338,1.5);
#43=CYLINDRICAL_SURFACE('',#1341,1.5);
#44=CYLINDRICAL_SURFACE('',#1344,1.5);
#45=FACE_BOUND('',#142,.T.);
#46=FACE_BOUND('',#144,.T.);
#47=FACE_BOUND('',#156,.T.);
#48=FACE_BOUND('',#158,.T.);
#49=FACE_BOUND('',#179,.T.);
#50=FACE_BOUND('',#185,.T.);
#51=FACE_BOUND('',#191,.T.);
#52=FACE_BOUND('',#200,.T.);
#53=FACE_BOUND('',#201,.T.);
#54=FACE_BOUND('',#203,.T.);
#55=FACE_BOUND('',#204,.T.);
#56=FACE_BOUND('',#207,.T.);
#57=FACE_BOUND('',#210,.T.);
#58=FACE_BOUND('',#211,.T.);
#59=FACE_BOUND('',#213,.T.);
#60=FACE_BOUND('',#214,.T.);
#61=FACE_BOUND('',#215,.T.);
#62=FACE_BOUND('',#216,.T.);
#63=FACE_OUTER_BOUND('',#131,.T.);
#64=FACE_OUTER_BOUND('',#132,.T.);
#65=FACE_OUTER_BOUND('',#133,.T.);
#66=FACE_OUTER_BOUND('',#134,.T.);
#67=FACE_OUTER_BOUND('',#135,.T.);
#68=FACE_OUTER_BOUND('',#136,.T.);
#69=FACE_OUTER_BOUND('',#137,.T.);
#70=FACE_OUTER_BOUND('',#138,.T.);
#71=FACE_OUTER_BOUND('',#139,.T.);
#72=FACE_OUTER_BOUND('',#140,.T.);
#73=FACE_OUTER_BOUND('',#141,.T.);
#74=FACE_OUTER_BOUND('',#143,.T.);
#75=FACE_OUTER_BOUND('',#145,.T.);
#76=FACE_OUTER_BOUND('',#146,.T.);
#77=FACE_OUTER_BOUND('',#147,.T.);
#78=FACE_OUTER_BOUND('',#148,.T.);
#79=FACE_OUTER_BOUND('',#149,.T.);
#80=FACE_OUTER_BOUND('',#150,.T.);
#81=FACE_OUTER_BOUND('',#151,.T.);
#82=FACE_OUTER_BOUND('',#152,.T.);
#83=FACE_OUTER_BOUND('',#153,.T.);
#84=FACE_OUTER_BOUND('',#154,.T.);
#85=FACE_OUTER_BOUND('',#155,.T.);
#86=FACE_OUTER_BOUND('',#157,.T.);
#87=FACE_OUTER_BOUND('',#159,.T.);
#88=FACE_OUTER_BOUND('',#160,.T.);
#89=FACE_OUTER_BOUND('',#161,.T.);
#90=FACE_OUTER_BOUND('',#162,.T.);
#91=FACE_OUTER_BOUND('',#163,.T.);
#92=FACE_OUTER_BOUND('',#164,.T.);
#93=FACE_OUTER_BOUND('',#165,.T.);
#94=FACE_OUTER_BOUND('',#166,.T.);
#95=FACE_OUTER_BOUND('',#167,.T.);
#96=FACE_OUTER_BOUND('',#168,.T.);
#97=FACE_OUTER_BOUND('',#169,.T.);
#98=FACE_OUTER_BOUND('',#170,.T.);
#99=FACE_OUTER_BOUND('',#171,.T.);
#100=FACE_OUTER_BOUND('',#172,.T.);
#101=FACE_OUTER_BOUND('',#173,.T.);
#102=FACE_OUTER_BOUND('',#174,.T.);
#103=FACE_OUTER_BOUND('',#175,.T.);
#104=FACE_OUTER_BOUND('',#176,.T.);
#105=FACE_OUTER_BOUND('',#177,.T.);
#106=FACE_OUTER_BOUND('',#178,.T.);
#107=FACE_OUTER_BOUND('',#180,.T.);
#108=FACE_OUTER_BOUND('',#181,.T.);
#109=FACE_OUTER_BOUND('',#182,.T.);
#110=FACE_OUTER_BOUND('',#183,.T.);
#111=FACE_OUTER_BOUND('',#184,.T.);
#112=FACE_OUTER_BOUND('',#186,.T.);
#113=FACE_OUTER_BOUND('',#187,.T.);
#114=FACE_OUTER_BOUND('',#188,.T.);
#115=FACE_OUTER_BOUND('',#189,.T.);
#116=FACE_OUTER_BOUND('',#190,.T.);
#117=FACE_OUTER_BOUND('',#192,.T.);
#118=FACE_OUTER_BOUND('',#193,.T.);
#119=FACE_OUTER_BOUND('',#194,.T.);
#120=FACE_OUTER_BOUND('',#195,.T.);
#121=FACE_OUTER_BOUND('',#196,.T.);
#122=FACE_OUTER_BOUND('',#197,.T.);
#123=FACE_OUTER_BOUND('',#198,.T.);
#124=FACE_OUTER_BOUND('',#199,.T.);
#125=FACE_OUTER_BOUND('',#202,.T.);
#126=FACE_OUTER_BOUND('',#205,.T.);
#127=FACE_OUTER_BOUND('',#206,.T.);
#128=FACE_OUTER_BOUND('',#208,.T.);
#129=FACE_OUTER_BOUND('',#209,.T.);
#130=FACE_OUTER_BOUND('',#212,.T.);
#131=EDGE_LOOP('',(#793,#794,#795,#796));
#132=EDGE_LOOP('',(#797,#798,#799,#800));
#133=EDGE_LOOP('',(#801,#802,#803,#804));
#134=EDGE_LOOP('',(#805,#806,#807,#808));
#135=EDGE_LOOP('',(#809,#810,#811,#812));
#136=EDGE_LOOP('',(#813,#814,#815,#816));
#137=EDGE_LOOP('',(#817,#818,#819,#820));
#138=EDGE_LOOP('',(#821,#822,#823,#824));
#139=EDGE_LOOP('',(#825,#826,#827,#828));
#140=EDGE_LOOP('',(#829,#830,#831,#832));
#141=EDGE_LOOP('',(#833,#834,#835,#836,#837,#838));
#142=EDGE_LOOP('',(#839,#840,#841,#842));
#143=EDGE_LOOP('',(#843,#844,#845,#846,#847,#848));
#144=EDGE_LOOP('',(#849,#850,#851,#852,#853,#854));
#145=EDGE_LOOP('',(#855,#856,#857,#858));
#146=EDGE_LOOP('',(#859,#860,#861,#862));
#147=EDGE_LOOP('',(#863,#864,#865,#866));
#148=EDGE_LOOP('',(#867,#868,#869,#870));
#149=EDGE_LOOP('',(#871,#872,#873,#874));
#150=EDGE_LOOP('',(#875,#876,#877,#878));
#151=EDGE_LOOP('',(#879,#880,#881,#882));
#152=EDGE_LOOP('',(#883,#884,#885,#886));
#153=EDGE_LOOP('',(#887,#888,#889,#890));
#154=EDGE_LOOP('',(#891,#892,#893,#894));
#155=EDGE_LOOP('',(#895,#896,#897,#898));
#156=EDGE_LOOP('',(#899,#900,#901,#902));
#157=EDGE_LOOP('',(#903,#904,#905,#906));
#158=EDGE_LOOP('',(#907,#908,#909,#910));
#159=EDGE_LOOP('',(#911,#912,#913,#914));
#160=EDGE_LOOP('',(#915,#916,#917,#918));
#161=EDGE_LOOP('',(#919,#920,#921,#922));
#162=EDGE_LOOP('',(#923,#924,#925,#926));
#163=EDGE_LOOP('',(#927,#928,#929,#930));
#164=EDGE_LOOP('',(#931,#932,#933,#934));
#165=EDGE_LOOP('',(#935,#936,#937,#938));
#166=EDGE_LOOP('',(#939,#940,#941,#942));
#167=EDGE_LOOP('',(#943,#944,#945,#946));
#168=EDGE_LOOP('',(#947,#948,#949,#950));
#169=EDGE_LOOP('',(#951,#952,#953,#954));
#170=EDGE_LOOP('',(#955,#956,#957,#958));
#171=EDGE_LOOP('',(#959,#960,#961,#962));
#172=EDGE_LOOP('',(#963,#964,#965,#966));
#173=EDGE_LOOP('',(#967,#968,#969,#970));
#174=EDGE_LOOP('',(#971,#972,#973,#974));
#175=EDGE_LOOP('',(#975,#976,#977,#978));
#176=EDGE_LOOP('',(#979,#980,#981,#982));
#177=EDGE_LOOP('',(#983,#984,#985,#986));
#178=EDGE_LOOP('',(#987,#988,#989,#990));
#179=EDGE_LOOP('',(#991,#992,#993,#994,#995,#996));
#180=EDGE_LOOP('',(#997,#998,#999,#1000));
#181=EDGE_LOOP('',(#1001,#1002,#1003,#1004));
#182=EDGE_LOOP('',(#1005,#1006,#1007,#1008));
#183=EDGE_LOOP('',(#1009,#1010,#1011,#1012));
#184=EDGE_LOOP('',(#1013,#1014,#1015,#1016));
#185=EDGE_LOOP('',(#1017,#1018,#1019,#1020));
#186=EDGE_LOOP('',(#1021,#1022,#1023,#1024));
#187=EDGE_LOOP('',(#1025,#1026,#1027,#1028));
#188=EDGE_LOOP('',(#1029,#1030,#1031,#1032));
#189=EDGE_LOOP('',(#1033,#1034,#1035,#1036));
#190=EDGE_LOOP('',(#1037,#1038,#1039,#1040));
#191=EDGE_LOOP('',(#1041,#1042,#1043,#1044));
#192=EDGE_LOOP('',(#1045,#1046,#1047,#1048));
#193=EDGE_LOOP('',(#1049,#1050,#1051,#1052));
#194=EDGE_LOOP('',(#1053,#1054,#1055,#1056));
#195=EDGE_LOOP('',(#1057,#1058,#1059,#1060));
#196=EDGE_LOOP('',(#1061,#1062,#1063,#1064));
#197=EDGE_LOOP('',(#1065,#1066,#1067,#1068));
#198=EDGE_LOOP('',(#1069,#1070,#1071,#1072));
#199=EDGE_LOOP('',(#1073,#1074,#1075,#1076));
#200=EDGE_LOOP('',(#1077));
#201=EDGE_LOOP('',(#1078));
#202=EDGE_LOOP('',(#1079,#1080,#1081,#1082));
#203=EDGE_LOOP('',(#1083));
#204=EDGE_LOOP('',(#1084));
#205=EDGE_LOOP('',(#1085,#1086,#1087,#1088));
#206=EDGE_LOOP('',(#1089,#1090,#1091,#1092,#1093,#1094,#1095,#1096));
#207=EDGE_LOOP('',(#1097,#1098,#1099,#1100));
#208=EDGE_LOOP('',(#1101,#1102,#1103,#1104));
#209=EDGE_LOOP('',(#1105,#1106,#1107,#1108,#1109,#1110,#1111,#1112));
#210=EDGE_LOOP('',(#1113,#1114,#1115,#1116));
#211=EDGE_LOOP('',(#1117,#1118,#1119,#1120));
#212=EDGE_LOOP('',(#1121,#1122,#1123,#1124));
#213=EDGE_LOOP('',(#1125));
#214=EDGE_LOOP('',(#1126));
#215=EDGE_LOOP('',(#1127));
#216=EDGE_LOOP('',(#1128));
#217=LINE('',#1687,#365);
#218=LINE('',#1689,#366);
#219=LINE('',#1691,#367);
#220=LINE('',#1692,#368);
#221=LINE('',#1695,#369);
#222=LINE('',#1697,#370);
#223=LINE('',#1698,#371);
#224=LINE('',#1702,#372);
#225=LINE('',#1704,#373);
#226=LINE('',#1706,#374);
#227=LINE('',#1707,#375);
#228=LINE('',#1710,#376);
#229=LINE('',#1712,#377);
#230=LINE('',#1713,#378);
#231=LINE('',#1716,#379);
#232=LINE('',#1718,#380);
#233=LINE('',#1719,#381);
#234=LINE('',#1722,#382);
#235=LINE('',#1724,#383);
#236=LINE('',#1725,#384);
#237=LINE('',#1727,#385);
#238=LINE('',#1728,#386);
#239=LINE('',#1731,#387);
#240=LINE('',#1733,#388);
#241=LINE('',#1734,#389);
#242=LINE('',#1737,#390);
#243=LINE('',#1739,#391);
#244=LINE('',#1740,#392);
#245=LINE('',#1742,#393);
#246=LINE('',#1743,#394);
#247=LINE('',#1748,#395);
#248=LINE('',#1750,#396);
#249=LINE('',#1752,#397);
#250=LINE('',#1754,#398);
#251=LINE('',#1756,#399);
#252=LINE('',#1757,#400);
#253=LINE('',#1763,#401);
#254=LINE('',#1766,#402);
#255=LINE('',#1772,#403);
#256=LINE('',#1775,#404);
#257=LINE('',#1779,#405);
#258=LINE('',#1781,#406);
#259=LINE('',#1783,#407);
#260=LINE('',#1784,#408);
#261=LINE('',#1790,#409);
#262=LINE('',#1794,#410);
#263=LINE('',#1796,#411);
#264=LINE('',#1798,#412);
#265=LINE('',#1799,#413);
#266=LINE('',#1805,#414);
#267=LINE('',#1808,#415);
#268=LINE('',#1810,#416);
#269=LINE('',#1811,#417);
#270=LINE('',#1817,#418);
#271=LINE('',#1819,#419);
#272=LINE('',#1820,#420);
#273=LINE('',#1826,#421);
#274=LINE('',#1827,#422);
#275=LINE('',#1829,#423);
#276=LINE('',#1831,#424);
#277=LINE('',#1836,#425);
#278=LINE('',#1837,#426);
#279=LINE('',#1838,#427);
#280=LINE('',#1841,#428);
#281=LINE('',#1842,#429);
#282=LINE('',#1845,#430);
#283=LINE('',#1846,#431);
#284=LINE('',#1849,#432);
#285=LINE('',#1850,#433);
#286=LINE('',#1853,#434);
#287=LINE('',#1854,#435);
#288=LINE('',#1856,#436);
#289=LINE('',#1861,#437);
#290=LINE('',#1863,#438);
#291=LINE('',#1865,#439);
#292=LINE('',#1866,#440);
#293=LINE('',#1869,#441);
#294=LINE('',#1871,#442);
#295=LINE('',#1872,#443);
#296=LINE('',#1875,#444);
#297=LINE('',#1877,#445);
#298=LINE('',#1878,#446);
#299=LINE('',#1880,#447);
#300=LINE('',#1881,#448);
#301=LINE('',#1886,#449);
#302=LINE('',#1888,#450);
#303=LINE('',#1890,#451);
#304=LINE('',#1891,#452);
#305=LINE('',#1894,#453);
#306=LINE('',#1896,#454);
#307=LINE('',#1897,#455);
#308=LINE('',#1900,#456);
#309=LINE('',#1902,#457);
#310=LINE('',#1903,#458);
#311=LINE('',#1905,#459);
#312=LINE('',#1906,#460);
#313=LINE('',#1911,#461);
#314=LINE('',#1913,#462);
#315=LINE('',#1915,#463);
#316=LINE('',#1916,#464);
#317=LINE('',#1919,#465);
#318=LINE('',#1921,#466);
#319=LINE('',#1922,#467);
#320=LINE('',#1925,#468);
#321=LINE('',#1927,#469);
#322=LINE('',#1928,#470);
#323=LINE('',#1930,#471);
#324=LINE('',#1931,#472);
#325=LINE('',#1936,#473);
#326=LINE('',#1938,#474);
#327=LINE('',#1940,#475);
#328=LINE('',#1941,#476);
#329=LINE('',#1944,#477);
#330=LINE('',#1946,#478);
#331=LINE('',#1947,#479);
#332=LINE('',#1950,#480);
#333=LINE('',#1952,#481);
#334=LINE('',#1953,#482);
#335=LINE('',#1955,#483);
#336=LINE('',#1956,#484);
#337=LINE('',#1962,#485);
#338=LINE('',#1968,#486);
#339=LINE('',#1974,#487);
#340=LINE('',#1980,#488);
#341=LINE('',#1985,#489);
#342=LINE('',#1987,#490);
#343=LINE('',#1989,#491);
#344=LINE('',#1990,#492);
#345=LINE('',#1994,#493);
#346=LINE('',#1996,#494);
#347=LINE('',#1998,#495);
#348=LINE('',#1999,#496);
#349=LINE('',#2001,#497);
#350=LINE('',#2002,#498);
#351=LINE('',#2005,#499);
#352=LINE('',#2007,#500);
#353=LINE('',#2008,#501);
#354=LINE('',#2011,#502);
#355=LINE('',#2013,#503);
#356=LINE('',#2014,#504);
#357=LINE('',#2018,#505);
#358=LINE('',#2019,#506);
#359=LINE('',#2020,#507);
#360=LINE('',#2023,#508);
#361=LINE('',#2024,#509);
#362=LINE('',#2027,#510);
#363=LINE('',#2028,#511);
#364=LINE('',#2030,#512);
#365=VECTOR('',#1361,10.);
#366=VECTOR('',#1362,10.);
#367=VECTOR('',#1363,10.);
#368=VECTOR('',#1364,10.);
#369=VECTOR('',#1367,10.);
#370=VECTOR('',#1368,10.);
#371=VECTOR('',#1369,10.);
#372=VECTOR('',#1372,10.);
#373=VECTOR('',#1373,10.);
#374=VECTOR('',#1374,10.);
#375=VECTOR('',#1375,10.);
#376=VECTOR('',#1378,10.);
#377=VECTOR('',#1379,10.);
#378=VECTOR('',#1380,10.);
#379=VECTOR('',#1383,10.);
#380=VECTOR('',#1384,10.);
#381=VECTOR('',#1385,10.);
#382=VECTOR('',#1388,10.);
#383=VECTOR('',#1389,10.);
#384=VECTOR('',#1390,10.);
#385=VECTOR('',#1393,10.);
#386=VECTOR('',#1394,10.);
#387=VECTOR('',#1397,10.);
#388=VECTOR('',#1398,10.);
#389=VECTOR('',#1399,10.);
#390=VECTOR('',#1402,10.);
#391=VECTOR('',#1403,10.);
#392=VECTOR('',#1404,10.);
#393=VECTOR('',#1407,10.);
#394=VECTOR('',#1408,10.);
#395=VECTOR('',#1413,10.);
#396=VECTOR('',#1414,10.);
#397=VECTOR('',#1415,10.);
#398=VECTOR('',#1416,10.);
#399=VECTOR('',#1417,10.);
#400=VECTOR('',#1418,10.);
#401=VECTOR('',#1423,10.);
#402=VECTOR('',#1426,10.);
#403=VECTOR('',#1431,10.);
#404=VECTOR('',#1434,10.);
#405=VECTOR('',#1437,10.);
#406=VECTOR('',#1438,10.);
#407=VECTOR('',#1439,10.);
#408=VECTOR('',#1440,10.);
#409=VECTOR('',#1447,10.);
#410=VECTOR('',#1450,10.);
#411=VECTOR('',#1451,10.);
#412=VECTOR('',#1452,10.);
#413=VECTOR('',#1453,10.);
#414=VECTOR('',#1460,10.);
#415=VECTOR('',#1463,10.);
#416=VECTOR('',#1464,10.);
#417=VECTOR('',#1465,10.);
#418=VECTOR('',#1474,10.);
#419=VECTOR('',#1475,10.);
#420=VECTOR('',#1476,10.);
#421=VECTOR('',#1487,10.);
#422=VECTOR('',#1488,10.);
#423=VECTOR('',#1491,10.);
#424=VECTOR('',#1494,10.);
#425=VECTOR('',#1499,10.);
#426=VECTOR('',#1500,10.);
#427=VECTOR('',#1501,10.);
#428=VECTOR('',#1504,10.);
#429=VECTOR('',#1505,10.);
#430=VECTOR('',#1508,10.);
#431=VECTOR('',#1509,10.);
#432=VECTOR('',#1512,10.);
#433=VECTOR('',#1513,10.);
#434=VECTOR('',#1516,10.);
#435=VECTOR('',#1517,10.);
#436=VECTOR('',#1520,10.);
#437=VECTOR('',#1525,10.);
#438=VECTOR('',#1526,10.);
#439=VECTOR('',#1527,10.);
#440=VECTOR('',#1528,10.);
#441=VECTOR('',#1531,10.);
#442=VECTOR('',#1532,10.);
#443=VECTOR('',#1533,10.);
#444=VECTOR('',#1536,10.);
#445=VECTOR('',#1537,10.);
#446=VECTOR('',#1538,10.);
#447=VECTOR('',#1541,10.);
#448=VECTOR('',#1542,10.);
#449=VECTOR('',#1547,10.);
#450=VECTOR('',#1548,10.);
#451=VECTOR('',#1549,10.);
#452=VECTOR('',#1550,10.);
#453=VECTOR('',#1553,10.);
#454=VECTOR('',#1554,10.);
#455=VECTOR('',#1555,10.);
#456=VECTOR('',#1558,10.);
#457=VECTOR('',#1559,10.);
#458=VECTOR('',#1560,10.);
#459=VECTOR('',#1563,10.);
#460=VECTOR('',#1564,10.);
#461=VECTOR('',#1569,10.);
#462=VECTOR('',#1570,10.);
#463=VECTOR('',#1571,10.);
#464=VECTOR('',#1572,10.);
#465=VECTOR('',#1575,10.);
#466=VECTOR('',#1576,10.);
#467=VECTOR('',#1577,10.);
#468=VECTOR('',#1580,10.);
#469=VECTOR('',#1581,10.);
#470=VECTOR('',#1582,10.);
#471=VECTOR('',#1585,10.);
#472=VECTOR('',#1586,10.);
#473=VECTOR('',#1591,10.);
#474=VECTOR('',#1592,10.);
#475=VECTOR('',#1593,10.);
#476=VECTOR('',#1594,10.);
#477=VECTOR('',#1597,10.);
#478=VECTOR('',#1598,10.);
#479=VECTOR('',#1599,10.);
#480=VECTOR('',#1602,10.);
#481=VECTOR('',#1603,10.);
#482=VECTOR('',#1604,10.);
#483=VECTOR('',#1607,10.);
#484=VECTOR('',#1608,10.);
#485=VECTOR('',#1615,1.5);
#486=VECTOR('',#1622,1.5);
#487=VECTOR('',#1629,1.5);
#488=VECTOR('',#1636,1.5);
#489=VECTOR('',#1641,10.);
#490=VECTOR('',#1642,10.);
#491=VECTOR('',#1643,10.);
#492=VECTOR('',#1644,10.);
#493=VECTOR('',#1647,10.);
#494=VECTOR('',#1648,10.);
#495=VECTOR('',#1649,10.);
#496=VECTOR('',#1650,10.);
#497=VECTOR('',#1653,10.);
#498=VECTOR('',#1654,10.);
#499=VECTOR('',#1657,10.);
#500=VECTOR('',#1658,10.);
#501=VECTOR('',#1659,10.);
#502=VECTOR('',#1662,10.);
#503=VECTOR('',#1663,10.);
#504=VECTOR('',#1664,10.);
#505=VECTOR('',#1667,10.);
#506=VECTOR('',#1668,10.);
#507=VECTOR('',#1669,10.);
#508=VECTOR('',#1672,10.);
#509=VECTOR('',#1673,10.);
#510=VECTOR('',#1676,10.);
#511=VECTOR('',#1677,10.);
#512=VECTOR('',#1680,10.);
#513=VERTEX_POINT('',#1685);
#514=VERTEX_POINT('',#1686);
#515=VERTEX_POINT('',#1688);
#516=VERTEX_POINT('',#1690);
#517=VERTEX_POINT('',#1694);
#518=VERTEX_POINT('',#1696);
#519=VERTEX_POINT('',#1700);
#520=VERTEX_POINT('',#1701);
#521=VERTEX_POINT('',#1703);
#522=VERTEX_POINT('',#1705);
#523=VERTEX_POINT('',#1709);
#524=VERTEX_POINT('',#1711);
#525=VERTEX_POINT('',#1715);
#526=VERTEX_POINT('',#1717);
#527=VERTEX_POINT('',#1721);
#528=VERTEX_POINT('',#1723);
#529=VERTEX_POINT('',#1730);
#530=VERTEX_POINT('',#1732);
#531=VERTEX_POINT('',#1736);
#532=VERTEX_POINT('',#1738);
#533=VERTEX_POINT('',#1746);
#534=VERTEX_POINT('',#1747);
#535=VERTEX_POINT('',#1749);
#536=VERTEX_POINT('',#1751);
#537=VERTEX_POINT('',#1753);
#538=VERTEX_POINT('',#1755);
#539=VERTEX_POINT('',#1759);
#540=VERTEX_POINT('',#1760);
#541=VERTEX_POINT('',#1762);
#542=VERTEX_POINT('',#1764);
#543=VERTEX_POINT('',#1768);
#544=VERTEX_POINT('',#1769);
#545=VERTEX_POINT('',#1771);
#546=VERTEX_POINT('',#1773);
#547=VERTEX_POINT('',#1777);
#548=VERTEX_POINT('',#1778);
#549=VERTEX_POINT('',#1780);
#550=VERTEX_POINT('',#1782);
#551=VERTEX_POINT('',#1786);
#552=VERTEX_POINT('',#1788);
#553=VERTEX_POINT('',#1792);
#554=VERTEX_POINT('',#1793);
#555=VERTEX_POINT('',#1795);
#556=VERTEX_POINT('',#1797);
#557=VERTEX_POINT('',#1801);
#558=VERTEX_POINT('',#1803);
#559=VERTEX_POINT('',#1807);
#560=VERTEX_POINT('',#1809);
#561=VERTEX_POINT('',#1816);
#562=VERTEX_POINT('',#1818);
#563=VERTEX_POINT('',#1834);
#564=VERTEX_POINT('',#1835);
#565=VERTEX_POINT('',#1840);
#566=VERTEX_POINT('',#1844);
#567=VERTEX_POINT('',#1848);
#568=VERTEX_POINT('',#1852);
#569=VERTEX_POINT('',#1859);
#570=VERTEX_POINT('',#1860);
#571=VERTEX_POINT('',#1862);
#572=VERTEX_POINT('',#1864);
#573=VERTEX_POINT('',#1868);
#574=VERTEX_POINT('',#1870);
#575=VERTEX_POINT('',#1874);
#576=VERTEX_POINT('',#1876);
#577=VERTEX_POINT('',#1884);
#578=VERTEX_POINT('',#1885);
#579=VERTEX_POINT('',#1887);
#580=VERTEX_POINT('',#1889);
#581=VERTEX_POINT('',#1893);
#582=VERTEX_POINT('',#1895);
#583=VERTEX_POINT('',#1899);
#584=VERTEX_POINT('',#1901);
#585=VERTEX_POINT('',#1909);
#586=VERTEX_POINT('',#1910);
#587=VERTEX_POINT('',#1912);
#588=VERTEX_POINT('',#1914);
#589=VERTEX_POINT('',#1918);
#590=VERTEX_POINT('',#1920);
#591=VERTEX_POINT('',#1924);
#592=VERTEX_POINT('',#1926);
#593=VERTEX_POINT('',#1934);
#594=VERTEX_POINT('',#1935);
#595=VERTEX_POINT('',#1937);
#596=VERTEX_POINT('',#1939);
#597=VERTEX_POINT('',#1943);
#598=VERTEX_POINT('',#1945);
#599=VERTEX_POINT('',#1949);
#600=VERTEX_POINT('',#1951);
#601=VERTEX_POINT('',#1959);
#602=VERTEX_POINT('',#1961);
#603=VERTEX_POINT('',#1965);
#604=VERTEX_POINT('',#1967);
#605=VERTEX_POINT('',#1971);
#606=VERTEX_POINT('',#1973);
#607=VERTEX_POINT('',#1977);
#608=VERTEX_POINT('',#1979);
#609=VERTEX_POINT('',#1983);
#610=VERTEX_POINT('',#1984);
#611=VERTEX_POINT('',#1986);
#612=VERTEX_POINT('',#1988);
#613=VERTEX_POINT('',#1992);
#614=VERTEX_POINT('',#1993);
#615=VERTEX_POINT('',#1995);
#616=VERTEX_POINT('',#1997);
#617=VERTEX_POINT('',#2004);
#618=VERTEX_POINT('',#2006);
#619=VERTEX_POINT('',#2010);
#620=VERTEX_POINT('',#2012);
#621=VERTEX_POINT('',#2016);
#622=VERTEX_POINT('',#2017);
#623=VERTEX_POINT('',#2022);
#624=VERTEX_POINT('',#2026);
#625=EDGE_CURVE('',#513,#514,#217,.T.);
#626=EDGE_CURVE('',#515,#513,#218,.T.);
#627=EDGE_CURVE('',#516,#515,#219,.T.);
#628=EDGE_CURVE('',#516,#514,#220,.T.);
#629=EDGE_CURVE('',#514,#517,#221,.T.);
#630=EDGE_CURVE('',#518,#516,#222,.T.);
#631=EDGE_CURVE('',#518,#517,#223,.T.);
#632=EDGE_CURVE('',#519,#520,#224,.T.);
#633=EDGE_CURVE('',#521,#519,#225,.T.);
#634=EDGE_CURVE('',#521,#522,#226,.T.);
#635=EDGE_CURVE('',#522,#520,#227,.T.);
#636=EDGE_CURVE('',#520,#523,#228,.T.);
#637=EDGE_CURVE('',#522,#524,#229,.T.);
#638=EDGE_CURVE('',#524,#523,#230,.T.);
#639=EDGE_CURVE('',#523,#525,#231,.T.);
#640=EDGE_CURVE('',#526,#524,#232,.T.);
#641=EDGE_CURVE('',#526,#525,#233,.T.);
#642=EDGE_CURVE('',#517,#527,#234,.T.);
#643=EDGE_CURVE('',#528,#518,#235,.T.);
#644=EDGE_CURVE('',#528,#527,#236,.T.);
#645=EDGE_CURVE('',#527,#513,#237,.T.);
#646=EDGE_CURVE('',#515,#528,#238,.T.);
#647=EDGE_CURVE('',#525,#529,#239,.T.);
#648=EDGE_CURVE('',#530,#526,#240,.T.);
#649=EDGE_CURVE('',#530,#529,#241,.T.);
#650=EDGE_CURVE('',#529,#531,#242,.T.);
#651=EDGE_CURVE('',#530,#532,#243,.T.);
#652=EDGE_CURVE('',#532,#531,#244,.T.);
#653=EDGE_CURVE('',#531,#519,#245,.T.);
#654=EDGE_CURVE('',#532,#521,#246,.T.);
#655=EDGE_CURVE('',#533,#534,#247,.T.);
#656=EDGE_CURVE('',#534,#535,#248,.T.);
#657=EDGE_CURVE('',#535,#536,#249,.T.);
#658=EDGE_CURVE('',#536,#537,#250,.T.);
#659=EDGE_CURVE('',#537,#538,#251,.T.);
#660=EDGE_CURVE('',#538,#533,#252,.T.);
#661=EDGE_CURVE('',#539,#540,#15,.T.);
#662=EDGE_CURVE('',#539,#541,#253,.T.);
#663=EDGE_CURVE('',#541,#542,#16,.T.);
#664=EDGE_CURVE('',#540,#542,#254,.T.);
#665=EDGE_CURVE('',#543,#544,#17,.T.);
#666=EDGE_CURVE('',#543,#545,#255,.T.);
#667=EDGE_CURVE('',#545,#546,#18,.T.);
#668=EDGE_CURVE('',#544,#546,#256,.T.);
#669=EDGE_CURVE('',#547,#548,#257,.T.);
#670=EDGE_CURVE('',#549,#547,#258,.T.);
#671=EDGE_CURVE('',#550,#549,#259,.T.);
#672=EDGE_CURVE('',#550,#548,#260,.T.);
#673=EDGE_CURVE('',#548,#551,#19,.T.);
#674=EDGE_CURVE('',#552,#550,#20,.T.);
#675=EDGE_CURVE('',#552,#551,#261,.T.);
#676=EDGE_CURVE('',#553,#554,#262,.T.);
#677=EDGE_CURVE('',#555,#553,#263,.T.);
#678=EDGE_CURVE('',#556,#555,#264,.T.);
#679=EDGE_CURVE('',#556,#554,#265,.T.);
#680=EDGE_CURVE('',#554,#557,#21,.T.);
#681=EDGE_CURVE('',#558,#556,#22,.T.);
#682=EDGE_CURVE('',#558,#557,#266,.T.);
#683=EDGE_CURVE('',#551,#559,#267,.T.);
#684=EDGE_CURVE('',#560,#552,#268,.T.);
#685=EDGE_CURVE('',#560,#559,#269,.T.);
#686=EDGE_CURVE('',#559,#547,#23,.T.);
#687=EDGE_CURVE('',#549,#560,#24,.T.);
#688=EDGE_CURVE('',#557,#561,#270,.T.);
#689=EDGE_CURVE('',#558,#562,#271,.T.);
#690=EDGE_CURVE('',#562,#561,#272,.T.);
#691=EDGE_CURVE('',#561,#553,#25,.T.);
#692=EDGE_CURVE('',#555,#562,#26,.T.);
#693=EDGE_CURVE('',#540,#543,#273,.T.);
#694=EDGE_CURVE('',#544,#539,#274,.T.);
#695=EDGE_CURVE('',#541,#546,#275,.T.);
#696=EDGE_CURVE('',#545,#542,#276,.T.);
#697=EDGE_CURVE('',#563,#564,#277,.T.);
#698=EDGE_CURVE('',#563,#533,#278,.T.);
#699=EDGE_CURVE('',#564,#538,#279,.T.);
#700=EDGE_CURVE('',#564,#565,#280,.T.);
#701=EDGE_CURVE('',#565,#537,#281,.T.);
#702=EDGE_CURVE('',#565,#566,#282,.T.);
#703=EDGE_CURVE('',#566,#536,#283,.T.);
#704=EDGE_CURVE('',#566,#567,#284,.T.);
#705=EDGE_CURVE('',#567,#535,#285,.T.);
#706=EDGE_CURVE('',#567,#568,#286,.T.);
#707=EDGE_CURVE('',#568,#534,#287,.T.);
#708=EDGE_CURVE('',#568,#563,#288,.T.);
#709=EDGE_CURVE('',#569,#570,#289,.T.);
#710=EDGE_CURVE('',#569,#571,#290,.T.);
#711=EDGE_CURVE('',#572,#571,#291,.T.);
#712=EDGE_CURVE('',#570,#572,#292,.T.);
#713=EDGE_CURVE('',#570,#573,#293,.T.);
#714=EDGE_CURVE('',#574,#572,#294,.T.);
#715=EDGE_CURVE('',#573,#574,#295,.T.);
#716=EDGE_CURVE('',#573,#575,#296,.T.);
#717=EDGE_CURVE('',#576,#574,#297,.T.);
#718=EDGE_CURVE('',#575,#576,#298,.T.);
#719=EDGE_CURVE('',#575,#569,#299,.T.);
#720=EDGE_CURVE('',#571,#576,#300,.T.);
#721=EDGE_CURVE('',#577,#578,#301,.T.);
#722=EDGE_CURVE('',#577,#579,#302,.T.);
#723=EDGE_CURVE('',#579,#580,#303,.T.);
#724=EDGE_CURVE('',#578,#580,#304,.T.);
#725=EDGE_CURVE('',#581,#577,#305,.T.);
#726=EDGE_CURVE('',#581,#582,#306,.T.);
#727=EDGE_CURVE('',#582,#579,#307,.T.);
#728=EDGE_CURVE('',#583,#581,#308,.T.);
#729=EDGE_CURVE('',#583,#584,#309,.T.);
#730=EDGE_CURVE('',#584,#582,#310,.T.);
#731=EDGE_CURVE('',#578,#583,#311,.T.);
#732=EDGE_CURVE('',#580,#584,#312,.T.);
#733=EDGE_CURVE('',#585,#586,#313,.T.);
#734=EDGE_CURVE('',#585,#587,#314,.T.);
#735=EDGE_CURVE('',#587,#588,#315,.T.);
#736=EDGE_CURVE('',#586,#588,#316,.T.);
#737=EDGE_CURVE('',#589,#585,#317,.T.);
#738=EDGE_CURVE('',#589,#590,#318,.T.);
#739=EDGE_CURVE('',#590,#587,#319,.T.);
#740=EDGE_CURVE('',#591,#589,#320,.T.);
#741=EDGE_CURVE('',#591,#592,#321,.T.);
#742=EDGE_CURVE('',#592,#590,#322,.T.);
#743=EDGE_CURVE('',#586,#591,#323,.T.);
#744=EDGE_CURVE('',#588,#592,#324,.T.);
#745=EDGE_CURVE('',#593,#594,#325,.T.);
#746=EDGE_CURVE('',#593,#595,#326,.T.);
#747=EDGE_CURVE('',#595,#596,#327,.T.);
#748=EDGE_CURVE('',#594,#596,#328,.T.);
#749=EDGE_CURVE('',#597,#593,#329,.T.);
#750=EDGE_CURVE('',#597,#598,#330,.T.);
#751=EDGE_CURVE('',#598,#595,#331,.T.);
#752=EDGE_CURVE('',#599,#597,#332,.T.);
#753=EDGE_CURVE('',#599,#600,#333,.T.);
#754=EDGE_CURVE('',#600,#598,#334,.T.);
#755=EDGE_CURVE('',#594,#599,#335,.T.);
#756=EDGE_CURVE('',#596,#600,#336,.T.);
#757=EDGE_CURVE('',#601,#601,#27,.T.);
#758=EDGE_CURVE('',#601,#602,#337,.T.);
#759=EDGE_CURVE('',#602,#602,#28,.T.);
#760=EDGE_CURVE('',#603,#603,#29,.T.);
#761=EDGE_CURVE('',#603,#604,#338,.T.);
#762=EDGE_CURVE('',#604,#604,#30,.T.);
#763=EDGE_CURVE('',#605,#605,#31,.T.);
#764=EDGE_CURVE('',#605,#606,#339,.T.);
#765=EDGE_CURVE('',#606,#606,#32,.T.);
#766=EDGE_CURVE('',#607,#607,#33,.T.);
#767=EDGE_CURVE('',#607,#608,#340,.T.);
#768=EDGE_CURVE('',#608,#608,#34,.T.);
#769=EDGE_CURVE('',#609,#610,#341,.T.);
#770=EDGE_CURVE('',#609,#611,#342,.T.);
#771=EDGE_CURVE('',#612,#611,#343,.T.);
#772=EDGE_CURVE('',#610,#612,#344,.T.);
#773=EDGE_CURVE('',#613,#614,#345,.T.);
#774=EDGE_CURVE('',#613,#615,#346,.T.);
#775=EDGE_CURVE('',#616,#615,#347,.T.);
#776=EDGE_CURVE('',#614,#616,#348,.T.);
#777=EDGE_CURVE('',#611,#616,#349,.T.);
#778=EDGE_CURVE('',#615,#612,#350,.T.);
#779=EDGE_CURVE('',#610,#617,#351,.T.);
#780=EDGE_CURVE('',#617,#618,#352,.T.);
#781=EDGE_CURVE('',#618,#609,#353,.T.);
#782=EDGE_CURVE('',#614,#619,#354,.T.);
#783=EDGE_CURVE('',#619,#620,#355,.T.);
#784=EDGE_CURVE('',#620,#613,#356,.T.);
#785=EDGE_CURVE('',#621,#622,#357,.T.);
#786=EDGE_CURVE('',#622,#618,#358,.T.);
#787=EDGE_CURVE('',#621,#617,#359,.T.);
#788=EDGE_CURVE('',#623,#621,#360,.T.);
#789=EDGE_CURVE('',#623,#620,#361,.T.);
#790=EDGE_CURVE('',#624,#623,#362,.T.);
#791=EDGE_CURVE('',#624,#619,#363,.T.);
#792=EDGE_CURVE('',#622,#624,#364,.T.);
#793=ORIENTED_EDGE('',*,*,#625,.F.);
#794=ORIENTED_EDGE('',*,*,#626,.F.);
#795=ORIENTED_EDGE('',*,*,#627,.F.);
#796=ORIENTED_EDGE('',*,*,#628,.T.);
#797=ORIENTED_EDGE('',*,*,#629,.F.);
#798=ORIENTED_EDGE('',*,*,#628,.F.);
#799=ORIENTED_EDGE('',*,*,#630,.F.);
#800=ORIENTED_EDGE('',*,*,#631,.T.);
#801=ORIENTED_EDGE('',*,*,#632,.F.);
#802=ORIENTED_EDGE('',*,*,#633,.F.);
#803=ORIENTED_EDGE('',*,*,#634,.T.);
#804=ORIENTED_EDGE('',*,*,#635,.T.);
#805=ORIENTED_EDGE('',*,*,#636,.F.);
#806=ORIENTED_EDGE('',*,*,#635,.F.);
#807=ORIENTED_EDGE('',*,*,#637,.T.);
#808=ORIENTED_EDGE('',*,*,#638,.T.);
#809=ORIENTED_EDGE('',*,*,#639,.F.);
#810=ORIENTED_EDGE('',*,*,#638,.F.);
#811=ORIENTED_EDGE('',*,*,#640,.F.);
#812=ORIENTED_EDGE('',*,*,#641,.T.);
#813=ORIENTED_EDGE('',*,*,#642,.F.);
#814=ORIENTED_EDGE('',*,*,#631,.F.);
#815=ORIENTED_EDGE('',*,*,#643,.F.);
#816=ORIENTED_EDGE('',*,*,#644,.T.);
#817=ORIENTED_EDGE('',*,*,#645,.F.);
#818=ORIENTED_EDGE('',*,*,#644,.F.);
#819=ORIENTED_EDGE('',*,*,#646,.F.);
#820=ORIENTED_EDGE('',*,*,#626,.T.);
#821=ORIENTED_EDGE('',*,*,#647,.F.);
#822=ORIENTED_EDGE('',*,*,#641,.F.);
#823=ORIENTED_EDGE('',*,*,#648,.F.);
#824=ORIENTED_EDGE('',*,*,#649,.T.);
#825=ORIENTED_EDGE('',*,*,#650,.F.);
#826=ORIENTED_EDGE('',*,*,#649,.F.);
#827=ORIENTED_EDGE('',*,*,#651,.T.);
#828=ORIENTED_EDGE('',*,*,#652,.T.);
#829=ORIENTED_EDGE('',*,*,#653,.F.);
#830=ORIENTED_EDGE('',*,*,#652,.F.);
#831=ORIENTED_EDGE('',*,*,#654,.T.);
#832=ORIENTED_EDGE('',*,*,#633,.T.);
#833=ORIENTED_EDGE('',*,*,#640,.T.);
#834=ORIENTED_EDGE('',*,*,#637,.F.);
#835=ORIENTED_EDGE('',*,*,#634,.F.);
#836=ORIENTED_EDGE('',*,*,#654,.F.);
#837=ORIENTED_EDGE('',*,*,#651,.F.);
#838=ORIENTED_EDGE('',*,*,#648,.T.);
#839=ORIENTED_EDGE('',*,*,#630,.T.);
#840=ORIENTED_EDGE('',*,*,#627,.T.);
#841=ORIENTED_EDGE('',*,*,#646,.T.);
#842=ORIENTED_EDGE('',*,*,#643,.T.);
#843=ORIENTED_EDGE('',*,*,#655,.T.);
#844=ORIENTED_EDGE('',*,*,#656,.T.);
#845=ORIENTED_EDGE('',*,*,#657,.T.);
#846=ORIENTED_EDGE('',*,*,#658,.T.);
#847=ORIENTED_EDGE('',*,*,#659,.T.);
#848=ORIENTED_EDGE('',*,*,#660,.T.);
#849=ORIENTED_EDGE('',*,*,#632,.T.);
#850=ORIENTED_EDGE('',*,*,#636,.T.);
#851=ORIENTED_EDGE('',*,*,#639,.T.);
#852=ORIENTED_EDGE('',*,*,#647,.T.);
#853=ORIENTED_EDGE('',*,*,#650,.T.);
#854=ORIENTED_EDGE('',*,*,#653,.T.);
#855=ORIENTED_EDGE('',*,*,#661,.F.);
#856=ORIENTED_EDGE('',*,*,#662,.T.);
#857=ORIENTED_EDGE('',*,*,#663,.T.);
#858=ORIENTED_EDGE('',*,*,#664,.F.);
#859=ORIENTED_EDGE('',*,*,#665,.F.);
#860=ORIENTED_EDGE('',*,*,#666,.T.);
#861=ORIENTED_EDGE('',*,*,#667,.T.);
#862=ORIENTED_EDGE('',*,*,#668,.F.);
#863=ORIENTED_EDGE('',*,*,#669,.F.);
#864=ORIENTED_EDGE('',*,*,#670,.F.);
#865=ORIENTED_EDGE('',*,*,#671,.F.);
#866=ORIENTED_EDGE('',*,*,#672,.T.);
#867=ORIENTED_EDGE('',*,*,#673,.F.);
#868=ORIENTED_EDGE('',*,*,#672,.F.);
#869=ORIENTED_EDGE('',*,*,#674,.F.);
#870=ORIENTED_EDGE('',*,*,#675,.T.);
#871=ORIENTED_EDGE('',*,*,#676,.F.);
#872=ORIENTED_EDGE('',*,*,#677,.F.);
#873=ORIENTED_EDGE('',*,*,#678,.F.);
#874=ORIENTED_EDGE('',*,*,#679,.T.);
#875=ORIENTED_EDGE('',*,*,#680,.F.);
#876=ORIENTED_EDGE('',*,*,#679,.F.);
#877=ORIENTED_EDGE('',*,*,#681,.F.);
#878=ORIENTED_EDGE('',*,*,#682,.T.);
#879=ORIENTED_EDGE('',*,*,#683,.F.);
#880=ORIENTED_EDGE('',*,*,#675,.F.);
#881=ORIENTED_EDGE('',*,*,#684,.F.);
#882=ORIENTED_EDGE('',*,*,#685,.T.);
#883=ORIENTED_EDGE('',*,*,#686,.F.);
#884=ORIENTED_EDGE('',*,*,#685,.F.);
#885=ORIENTED_EDGE('',*,*,#687,.F.);
#886=ORIENTED_EDGE('',*,*,#670,.T.);
#887=ORIENTED_EDGE('',*,*,#688,.F.);
#888=ORIENTED_EDGE('',*,*,#682,.F.);
#889=ORIENTED_EDGE('',*,*,#689,.T.);
#890=ORIENTED_EDGE('',*,*,#690,.T.);
#891=ORIENTED_EDGE('',*,*,#691,.F.);
#892=ORIENTED_EDGE('',*,*,#690,.F.);
#893=ORIENTED_EDGE('',*,*,#692,.F.);
#894=ORIENTED_EDGE('',*,*,#677,.T.);
#895=ORIENTED_EDGE('',*,*,#681,.T.);
#896=ORIENTED_EDGE('',*,*,#678,.T.);
#897=ORIENTED_EDGE('',*,*,#692,.T.);
#898=ORIENTED_EDGE('',*,*,#689,.F.);
#899=ORIENTED_EDGE('',*,*,#674,.T.);
#900=ORIENTED_EDGE('',*,*,#671,.T.);
#901=ORIENTED_EDGE('',*,*,#687,.T.);
#902=ORIENTED_EDGE('',*,*,#684,.T.);
#903=ORIENTED_EDGE('',*,*,#661,.T.);
#904=ORIENTED_EDGE('',*,*,#693,.T.);
#905=ORIENTED_EDGE('',*,*,#665,.T.);
#906=ORIENTED_EDGE('',*,*,#694,.T.);
#907=ORIENTED_EDGE('',*,*,#676,.T.);
#908=ORIENTED_EDGE('',*,*,#680,.T.);
#909=ORIENTED_EDGE('',*,*,#688,.T.);
#910=ORIENTED_EDGE('',*,*,#691,.T.);
#911=ORIENTED_EDGE('',*,*,#662,.F.);
#912=ORIENTED_EDGE('',*,*,#694,.F.);
#913=ORIENTED_EDGE('',*,*,#668,.T.);
#914=ORIENTED_EDGE('',*,*,#695,.F.);
#915=ORIENTED_EDGE('',*,*,#664,.T.);
#916=ORIENTED_EDGE('',*,*,#696,.F.);
#917=ORIENTED_EDGE('',*,*,#666,.F.);
#918=ORIENTED_EDGE('',*,*,#693,.F.);
#919=ORIENTED_EDGE('',*,*,#669,.T.);
#920=ORIENTED_EDGE('',*,*,#673,.T.);
#921=ORIENTED_EDGE('',*,*,#683,.T.);
#922=ORIENTED_EDGE('',*,*,#686,.T.);
#923=ORIENTED_EDGE('',*,*,#697,.F.);
#924=ORIENTED_EDGE('',*,*,#698,.T.);
#925=ORIENTED_EDGE('',*,*,#660,.F.);
#926=ORIENTED_EDGE('',*,*,#699,.F.);
#927=ORIENTED_EDGE('',*,*,#700,.F.);
#928=ORIENTED_EDGE('',*,*,#699,.T.);
#929=ORIENTED_EDGE('',*,*,#659,.F.);
#930=ORIENTED_EDGE('',*,*,#701,.F.);
#931=ORIENTED_EDGE('',*,*,#702,.F.);
#932=ORIENTED_EDGE('',*,*,#701,.T.);
#933=ORIENTED_EDGE('',*,*,#658,.F.);
#934=ORIENTED_EDGE('',*,*,#703,.F.);
#935=ORIENTED_EDGE('',*,*,#704,.F.);
#936=ORIENTED_EDGE('',*,*,#703,.T.);
#937=ORIENTED_EDGE('',*,*,#657,.F.);
#938=ORIENTED_EDGE('',*,*,#705,.F.);
#939=ORIENTED_EDGE('',*,*,#706,.F.);
#940=ORIENTED_EDGE('',*,*,#705,.T.);
#941=ORIENTED_EDGE('',*,*,#656,.F.);
#942=ORIENTED_EDGE('',*,*,#707,.F.);
#943=ORIENTED_EDGE('',*,*,#708,.F.);
#944=ORIENTED_EDGE('',*,*,#707,.T.);
#945=ORIENTED_EDGE('',*,*,#655,.F.);
#946=ORIENTED_EDGE('',*,*,#698,.F.);
#947=ORIENTED_EDGE('',*,*,#625,.T.);
#948=ORIENTED_EDGE('',*,*,#629,.T.);
#949=ORIENTED_EDGE('',*,*,#642,.T.);
#950=ORIENTED_EDGE('',*,*,#645,.T.);
#951=ORIENTED_EDGE('',*,*,#709,.F.);
#952=ORIENTED_EDGE('',*,*,#710,.T.);
#953=ORIENTED_EDGE('',*,*,#711,.F.);
#954=ORIENTED_EDGE('',*,*,#712,.F.);
#955=ORIENTED_EDGE('',*,*,#713,.F.);
#956=ORIENTED_EDGE('',*,*,#712,.T.);
#957=ORIENTED_EDGE('',*,*,#714,.F.);
#958=ORIENTED_EDGE('',*,*,#715,.F.);
#959=ORIENTED_EDGE('',*,*,#716,.F.);
#960=ORIENTED_EDGE('',*,*,#715,.T.);
#961=ORIENTED_EDGE('',*,*,#717,.F.);
#962=ORIENTED_EDGE('',*,*,#718,.F.);
#963=ORIENTED_EDGE('',*,*,#719,.F.);
#964=ORIENTED_EDGE('',*,*,#718,.T.);
#965=ORIENTED_EDGE('',*,*,#720,.F.);
#966=ORIENTED_EDGE('',*,*,#710,.F.);
#967=ORIENTED_EDGE('',*,*,#720,.T.);
#968=ORIENTED_EDGE('',*,*,#717,.T.);
#969=ORIENTED_EDGE('',*,*,#714,.T.);
#970=ORIENTED_EDGE('',*,*,#711,.T.);
#971=ORIENTED_EDGE('',*,*,#721,.F.);
#972=ORIENTED_EDGE('',*,*,#722,.T.);
#973=ORIENTED_EDGE('',*,*,#723,.T.);
#974=ORIENTED_EDGE('',*,*,#724,.F.);
#975=ORIENTED_EDGE('',*,*,#725,.F.);
#976=ORIENTED_EDGE('',*,*,#726,.T.);
#977=ORIENTED_EDGE('',*,*,#727,.T.);
#978=ORIENTED_EDGE('',*,*,#722,.F.);
#979=ORIENTED_EDGE('',*,*,#728,.F.);
#980=ORIENTED_EDGE('',*,*,#729,.T.);
#981=ORIENTED_EDGE('',*,*,#730,.T.);
#982=ORIENTED_EDGE('',*,*,#726,.F.);
#983=ORIENTED_EDGE('',*,*,#731,.F.);
#984=ORIENTED_EDGE('',*,*,#724,.T.);
#985=ORIENTED_EDGE('',*,*,#732,.T.);
#986=ORIENTED_EDGE('',*,*,#729,.F.);
#987=ORIENTED_EDGE('',*,*,#732,.F.);
#988=ORIENTED_EDGE('',*,*,#723,.F.);
#989=ORIENTED_EDGE('',*,*,#727,.F.);
#990=ORIENTED_EDGE('',*,*,#730,.F.);
#991=ORIENTED_EDGE('',*,*,#697,.T.);
#992=ORIENTED_EDGE('',*,*,#700,.T.);
#993=ORIENTED_EDGE('',*,*,#702,.T.);
#994=ORIENTED_EDGE('',*,*,#704,.T.);
#995=ORIENTED_EDGE('',*,*,#706,.T.);
#996=ORIENTED_EDGE('',*,*,#708,.T.);
#997=ORIENTED_EDGE('',*,*,#733,.F.);
#998=ORIENTED_EDGE('',*,*,#734,.T.);
#999=ORIENTED_EDGE('',*,*,#735,.T.);
#1000=ORIENTED_EDGE('',*,*,#736,.F.);
#1001=ORIENTED_EDGE('',*,*,#737,.F.);
#1002=ORIENTED_EDGE('',*,*,#738,.T.);
#1003=ORIENTED_EDGE('',*,*,#739,.T.);
#1004=ORIENTED_EDGE('',*,*,#734,.F.);
#1005=ORIENTED_EDGE('',*,*,#740,.F.);
#1006=ORIENTED_EDGE('',*,*,#741,.T.);
#1007=ORIENTED_EDGE('',*,*,#742,.T.);
#1008=ORIENTED_EDGE('',*,*,#738,.F.);
#1009=ORIENTED_EDGE('',*,*,#743,.F.);
#1010=ORIENTED_EDGE('',*,*,#736,.T.);
#1011=ORIENTED_EDGE('',*,*,#744,.T.);
#1012=ORIENTED_EDGE('',*,*,#741,.F.);
#1013=ORIENTED_EDGE('',*,*,#744,.F.);
#1014=ORIENTED_EDGE('',*,*,#735,.F.);
#1015=ORIENTED_EDGE('',*,*,#739,.F.);
#1016=ORIENTED_EDGE('',*,*,#742,.F.);
#1017=ORIENTED_EDGE('',*,*,#695,.T.);
#1018=ORIENTED_EDGE('',*,*,#667,.F.);
#1019=ORIENTED_EDGE('',*,*,#696,.T.);
#1020=ORIENTED_EDGE('',*,*,#663,.F.);
#1021=ORIENTED_EDGE('',*,*,#745,.F.);
#1022=ORIENTED_EDGE('',*,*,#746,.T.);
#1023=ORIENTED_EDGE('',*,*,#747,.T.);
#1024=ORIENTED_EDGE('',*,*,#748,.F.);
#1025=ORIENTED_EDGE('',*,*,#749,.F.);
#1026=ORIENTED_EDGE('',*,*,#750,.T.);
#1027=ORIENTED_EDGE('',*,*,#751,.T.);
#1028=ORIENTED_EDGE('',*,*,#746,.F.);
#1029=ORIENTED_EDGE('',*,*,#752,.F.);
#1030=ORIENTED_EDGE('',*,*,#753,.T.);
#1031=ORIENTED_EDGE('',*,*,#754,.T.);
#1032=ORIENTED_EDGE('',*,*,#750,.F.);
#1033=ORIENTED_EDGE('',*,*,#755,.F.);
#1034=ORIENTED_EDGE('',*,*,#748,.T.);
#1035=ORIENTED_EDGE('',*,*,#756,.T.);
#1036=ORIENTED_EDGE('',*,*,#753,.F.);
#1037=ORIENTED_EDGE('',*,*,#756,.F.);
#1038=ORIENTED_EDGE('',*,*,#747,.F.);
#1039=ORIENTED_EDGE('',*,*,#751,.F.);
#1040=ORIENTED_EDGE('',*,*,#754,.F.);
#1041=ORIENTED_EDGE('',*,*,#709,.T.);
#1042=ORIENTED_EDGE('',*,*,#713,.T.);
#1043=ORIENTED_EDGE('',*,*,#716,.T.);
#1044=ORIENTED_EDGE('',*,*,#719,.T.);
#1045=ORIENTED_EDGE('',*,*,#757,.F.);
#1046=ORIENTED_EDGE('',*,*,#758,.T.);
#1047=ORIENTED_EDGE('',*,*,#759,.F.);
#1048=ORIENTED_EDGE('',*,*,#758,.F.);
#1049=ORIENTED_EDGE('',*,*,#760,.F.);
#1050=ORIENTED_EDGE('',*,*,#761,.T.);
#1051=ORIENTED_EDGE('',*,*,#762,.F.);
#1052=ORIENTED_EDGE('',*,*,#761,.F.);
#1053=ORIENTED_EDGE('',*,*,#763,.F.);
#1054=ORIENTED_EDGE('',*,*,#764,.T.);
#1055=ORIENTED_EDGE('',*,*,#765,.F.);
#1056=ORIENTED_EDGE('',*,*,#764,.F.);
#1057=ORIENTED_EDGE('',*,*,#766,.F.);
#1058=ORIENTED_EDGE('',*,*,#767,.T.);
#1059=ORIENTED_EDGE('',*,*,#768,.F.);
#1060=ORIENTED_EDGE('',*,*,#767,.F.);
#1061=ORIENTED_EDGE('',*,*,#769,.F.);
#1062=ORIENTED_EDGE('',*,*,#770,.T.);
#1063=ORIENTED_EDGE('',*,*,#771,.F.);
#1064=ORIENTED_EDGE('',*,*,#772,.F.);
#1065=ORIENTED_EDGE('',*,*,#773,.F.);
#1066=ORIENTED_EDGE('',*,*,#774,.T.);
#1067=ORIENTED_EDGE('',*,*,#775,.F.);
#1068=ORIENTED_EDGE('',*,*,#776,.F.);
#1069=ORIENTED_EDGE('',*,*,#777,.T.);
#1070=ORIENTED_EDGE('',*,*,#775,.T.);
#1071=ORIENTED_EDGE('',*,*,#778,.T.);
#1072=ORIENTED_EDGE('',*,*,#771,.T.);
#1073=ORIENTED_EDGE('',*,*,#769,.T.);
#1074=ORIENTED_EDGE('',*,*,#779,.T.);
#1075=ORIENTED_EDGE('',*,*,#780,.T.);
#1076=ORIENTED_EDGE('',*,*,#781,.T.);
#1077=ORIENTED_EDGE('',*,*,#760,.T.);
#1078=ORIENTED_EDGE('',*,*,#766,.T.);
#1079=ORIENTED_EDGE('',*,*,#773,.T.);
#1080=ORIENTED_EDGE('',*,*,#782,.T.);
#1081=ORIENTED_EDGE('',*,*,#783,.T.);
#1082=ORIENTED_EDGE('',*,*,#784,.T.);
#1083=ORIENTED_EDGE('',*,*,#757,.T.);
#1084=ORIENTED_EDGE('',*,*,#763,.T.);
#1085=ORIENTED_EDGE('',*,*,#785,.T.);
#1086=ORIENTED_EDGE('',*,*,#786,.T.);
#1087=ORIENTED_EDGE('',*,*,#780,.F.);
#1088=ORIENTED_EDGE('',*,*,#787,.F.);
#1089=ORIENTED_EDGE('',*,*,#788,.T.);
#1090=ORIENTED_EDGE('',*,*,#787,.T.);
#1091=ORIENTED_EDGE('',*,*,#779,.F.);
#1092=ORIENTED_EDGE('',*,*,#772,.T.);
#1093=ORIENTED_EDGE('',*,*,#778,.F.);
#1094=ORIENTED_EDGE('',*,*,#774,.F.);
#1095=ORIENTED_EDGE('',*,*,#784,.F.);
#1096=ORIENTED_EDGE('',*,*,#789,.F.);
#1097=ORIENTED_EDGE('',*,*,#745,.T.);
#1098=ORIENTED_EDGE('',*,*,#755,.T.);
#1099=ORIENTED_EDGE('',*,*,#752,.T.);
#1100=ORIENTED_EDGE('',*,*,#749,.T.);
#1101=ORIENTED_EDGE('',*,*,#790,.T.);
#1102=ORIENTED_EDGE('',*,*,#789,.T.);
#1103=ORIENTED_EDGE('',*,*,#783,.F.);
#1104=ORIENTED_EDGE('',*,*,#791,.F.);
#1105=ORIENTED_EDGE('',*,*,#792,.T.);
#1106=ORIENTED_EDGE('',*,*,#791,.T.);
#1107=ORIENTED_EDGE('',*,*,#782,.F.);
#1108=ORIENTED_EDGE('',*,*,#776,.T.);
#1109=ORIENTED_EDGE('',*,*,#777,.F.);
#1110=ORIENTED_EDGE('',*,*,#770,.F.);
#1111=ORIENTED_EDGE('',*,*,#781,.F.);
#1112=ORIENTED_EDGE('',*,*,#786,.F.);
#1113=ORIENTED_EDGE('',*,*,#721,.T.);
#1114=ORIENTED_EDGE('',*,*,#731,.T.);
#1115=ORIENTED_EDGE('',*,*,#728,.T.);
#1116=ORIENTED_EDGE('',*,*,#725,.T.);
#1117=ORIENTED_EDGE('',*,*,#733,.T.);
#1118=ORIENTED_EDGE('',*,*,#743,.T.);
#1119=ORIENTED_EDGE('',*,*,#740,.T.);
#1120=ORIENTED_EDGE('',*,*,#737,.T.);
#1121=ORIENTED_EDGE('',*,*,#792,.F.);
#1122=ORIENTED_EDGE('',*,*,#785,.F.);
#1123=ORIENTED_EDGE('',*,*,#788,.F.);
#1124=ORIENTED_EDGE('',*,*,#790,.F.);
#1125=ORIENTED_EDGE('',*,*,#759,.T.);
#1126=ORIENTED_EDGE('',*,*,#762,.T.);
#1127=ORIENTED_EDGE('',*,*,#765,.T.);
#1128=ORIENTED_EDGE('',*,*,#768,.T.);
#1129=PLANE('',#1269);
#1130=PLANE('',#1270);
#1131=PLANE('',#1271);
#1132=PLANE('',#1272);
#1133=PLANE('',#1273);
#1134=PLANE('',#1274);
#1135=PLANE('',#1275);
#1136=PLANE('',#1276);
#1137=PLANE('',#1277);
#1138=PLANE('',#1278);
#1139=PLANE('',#1279);
#1140=PLANE('',#1280);
#1141=PLANE('',#1287);
#1142=PLANE('',#1291);
#1143=PLANE('',#1295);
#1144=PLANE('',#1299);
#1145=PLANE('',#1303);
#1146=PLANE('',#1304);
#1147=PLANE('',#1305);
#1148=PLANE('',#1306);
#1149=PLANE('',#1307);
#1150=PLANE('',#1308);
#1151=PLANE('',#1309);
#1152=PLANE('',#1310);
#1153=PLANE('',#1311);
#1154=PLANE('',#1312);
#1155=PLANE('',#1313);
#1156=PLANE('',#1314);
#1157=PLANE('',#1315);
#1158=PLANE('',#1316);
#1159=PLANE('',#1317);
#1160=PLANE('',#1318);
#1161=PLANE('',#1319);
#1162=PLANE('',#1320);
#1163=PLANE('',#1321);
#1164=PLANE('',#1322);
#1165=PLANE('',#1323);
#1166=PLANE('',#1324);
#1167=PLANE('',#1325);
#1168=PLANE('',#1326);
#1169=PLANE('',#1327);
#1170=PLANE('',#1328);
#1171=PLANE('',#1329);
#1172=PLANE('',#1330);
#1173=PLANE('',#1331);
#1174=PLANE('',#1332);
#1175=PLANE('',#1333);
#1176=PLANE('',#1334);
#1177=PLANE('',#1347);
#1178=PLANE('',#1348);
#1179=PLANE('',#1349);
#1180=PLANE('',#1350);
#1181=PLANE('',#1351);
#1182=PLANE('',#1352);
#1183=PLANE('',#1353);
#1184=PLANE('',#1354);
#1185=PLANE('',#1355);
#1186=PLANE('',#1356);
#1187=ADVANCED_FACE('',(#63),#1129,.F.);
#1188=ADVANCED_FACE('',(#64),#1130,.F.);
#1189=ADVANCED_FACE('',(#65),#1131,.F.);
#1190=ADVANCED_FACE('',(#66),#1132,.F.);
#1191=ADVANCED_FACE('',(#67),#1133,.F.);
#1192=ADVANCED_FACE('',(#68),#1134,.F.);
#1193=ADVANCED_FACE('',(#69),#1135,.F.);
#1194=ADVANCED_FACE('',(#70),#1136,.F.);
#1195=ADVANCED_FACE('',(#71),#1137,.F.);
#1196=ADVANCED_FACE('',(#72),#1138,.F.);
#1197=ADVANCED_FACE('',(#73,#45),#1139,.T.);
#1198=ADVANCED_FACE('',(#74,#46),#1140,.T.);
#1199=ADVANCED_FACE('',(#75),#35,.T.);
#1200=ADVANCED_FACE('',(#76),#36,.T.);
#1201=ADVANCED_FACE('',(#77),#1141,.F.);
#1202=ADVANCED_FACE('',(#78),#37,.T.);
#1203=ADVANCED_FACE('',(#79),#1142,.F.);
#1204=ADVANCED_FACE('',(#80),#38,.F.);
#1205=ADVANCED_FACE('',(#81),#1143,.F.);
#1206=ADVANCED_FACE('',(#82),#39,.T.);
#1207=ADVANCED_FACE('',(#83),#1144,.F.);
#1208=ADVANCED_FACE('',(#84),#40,.F.);
#1209=ADVANCED_FACE('',(#85,#47),#1145,.T.);
#1210=ADVANCED_FACE('',(#86,#48),#1146,.T.);
#1211=ADVANCED_FACE('',(#87),#1147,.T.);
#1212=ADVANCED_FACE('',(#88),#1148,.T.);
#1213=ADVANCED_FACE('',(#89),#1149,.T.);
#1214=ADVANCED_FACE('',(#90),#1150,.T.);
#1215=ADVANCED_FACE('',(#91),#1151,.T.);
#1216=ADVANCED_FACE('',(#92),#1152,.T.);
#1217=ADVANCED_FACE('',(#93),#1153,.T.);
#1218=ADVANCED_FACE('',(#94),#1154,.T.);
#1219=ADVANCED_FACE('',(#95),#1155,.T.);
#1220=ADVANCED_FACE('',(#96),#1156,.T.);
#1221=ADVANCED_FACE('',(#97),#1157,.T.);
#1222=ADVANCED_FACE('',(#98),#1158,.T.);
#1223=ADVANCED_FACE('',(#99),#1159,.T.);
#1224=ADVANCED_FACE('',(#100),#1160,.T.);
#1225=ADVANCED_FACE('',(#101),#1161,.T.);
#1226=ADVANCED_FACE('',(#102),#1162,.F.);
#1227=ADVANCED_FACE('',(#103),#1163,.F.);
#1228=ADVANCED_FACE('',(#104),#1164,.F.);
#1229=ADVANCED_FACE('',(#105),#1165,.F.);
#1230=ADVANCED_FACE('',(#106,#49),#1166,.F.);
#1231=ADVANCED_FACE('',(#107),#1167,.F.);
#1232=ADVANCED_FACE('',(#108),#1168,.F.);
#1233=ADVANCED_FACE('',(#109),#1169,.F.);
#1234=ADVANCED_FACE('',(#110),#1170,.F.);
#1235=ADVANCED_FACE('',(#111,#50),#1171,.F.);
#1236=ADVANCED_FACE('',(#112),#1172,.F.);
#1237=ADVANCED_FACE('',(#113),#1173,.F.);
#1238=ADVANCED_FACE('',(#114),#1174,.F.);
#1239=ADVANCED_FACE('',(#115),#1175,.F.);
#1240=ADVANCED_FACE('',(#116,#51),#1176,.F.);
#1241=ADVANCED_FACE('',(#117),#41,.F.);
#1242=ADVANCED_FACE('',(#118),#42,.F.);
#1243=ADVANCED_FACE('',(#119),#43,.F.);
#1244=ADVANCED_FACE('',(#120),#44,.F.);
#1245=ADVANCED_FACE('',(#121),#1177,.T.);
#1246=ADVANCED_FACE('',(#122),#1178,.T.);
#1247=ADVANCED_FACE('',(#123),#1179,.T.);
#1248=ADVANCED_FACE('',(#124,#52,#53),#1180,.T.);
#1249=ADVANCED_FACE('',(#125,#54,#55),#1181,.T.);
#1250=ADVANCED_FACE('',(#126),#1182,.T.);
#1251=ADVANCED_FACE('',(#127,#56),#1183,.T.);
#1252=ADVANCED_FACE('',(#128),#1184,.T.);
#1253=ADVANCED_FACE('',(#129,#57,#58),#1185,.T.);
#1254=ADVANCED_FACE('',(#130,#59,#60,#61,#62),#1186,.F.);
#1255=CLOSED_SHELL('',(#1187,#1188,#1189,#1190,#1191,#1192,#1193,#1194,
#1195,#1196,#1197,#1198,#1199,#1200,#1201,#1202,#1203,#1204,#1205,#1206,
#1207,#1208,#1209,#1210,#1211,#1212,#1213,#1214,#1215,#1216,#1217,#1218,
#1219,#1220,#1221,#1222,#1223,#1224,#1225,#1226,#1227,#1228,#1229,#1230,
#1231,#1232,#1233,#1234,#1235,#1236,#1237,#1238,#1239,#1240,#1241,#1242,
#1243,#1244,#1245,#1246,#1247,#1248,#1249,#1250,#1251,#1252,#1253,#1254));
#1256=DERIVED_UNIT_ELEMENT(#1258,1.);
#1257=DERIVED_UNIT_ELEMENT(#2037,-3.);
#1258=(
MASS_UNIT()
NAMED_UNIT(*)
SI_UNIT(.KILO.,.GRAM.)
);
#1259=DERIVED_UNIT((#1256,#1257));
#1260=MEASURE_REPRESENTATION_ITEM('density measure',
POSITIVE_RATIO_MEASURE(7850.),#1259);
#1261=PROPERTY_DEFINITION_REPRESENTATION(#1266,#1263);
#1262=PROPERTY_DEFINITION_REPRESENTATION(#1267,#1264);
#1263=REPRESENTATION('material name',(#1265),#2034);
#1264=REPRESENTATION('density',(#1260),#2034);
#1265=DESCRIPTIVE_REPRESENTATION_ITEM('\X2\94A2\X0\','\X2\94A2\X0\');
#1266=PROPERTY_DEFINITION('material property','material name',#2044);
#1267=PROPERTY_DEFINITION('material property','density of part',#2044);
#1268=AXIS2_PLACEMENT_3D('',#1683,#1357,#1358);
#1269=AXIS2_PLACEMENT_3D('',#1684,#1359,#1360);
#1270=AXIS2_PLACEMENT_3D('',#1693,#1365,#1366);
#1271=AXIS2_PLACEMENT_3D('',#1699,#1370,#1371);
#1272=AXIS2_PLACEMENT_3D('',#1708,#1376,#1377);
#1273=AXIS2_PLACEMENT_3D('',#1714,#1381,#1382);
#1274=AXIS2_PLACEMENT_3D('',#1720,#1386,#1387);
#1275=AXIS2_PLACEMENT_3D('',#1726,#1391,#1392);
#1276=AXIS2_PLACEMENT_3D('',#1729,#1395,#1396);
#1277=AXIS2_PLACEMENT_3D('',#1735,#1400,#1401);
#1278=AXIS2_PLACEMENT_3D('',#1741,#1405,#1406);
#1279=AXIS2_PLACEMENT_3D('',#1744,#1409,#1410);
#1280=AXIS2_PLACEMENT_3D('',#1745,#1411,#1412);
#1281=AXIS2_PLACEMENT_3D('',#1758,#1419,#1420);
#1282=AXIS2_PLACEMENT_3D('',#1761,#1421,#1422);
#1283=AXIS2_PLACEMENT_3D('',#1765,#1424,#1425);
#1284=AXIS2_PLACEMENT_3D('',#1767,#1427,#1428);
#1285=AXIS2_PLACEMENT_3D('',#1770,#1429,#1430);
#1286=AXIS2_PLACEMENT_3D('',#1774,#1432,#1433);
#1287=AXIS2_PLACEMENT_3D('',#1776,#1435,#1436);
#1288=AXIS2_PLACEMENT_3D('',#1785,#1441,#1442);
#1289=AXIS2_PLACEMENT_3D('',#1787,#1443,#1444);
#1290=AXIS2_PLACEMENT_3D('',#1789,#1445,#1446);
#1291=AXIS2_PLACEMENT_3D('',#1791,#1448,#1449);
#1292=AXIS2_PLACEMENT_3D('',#1800,#1454,#1455);
#1293=AXIS2_PLACEMENT_3D('',#1802,#1456,#1457);
#1294=AXIS2_PLACEMENT_3D('',#1804,#1458,#1459);
#1295=AXIS2_PLACEMENT_3D('',#1806,#1461,#1462);
#1296=AXIS2_PLACEMENT_3D('',#1812,#1466,#1467);
#1297=AXIS2_PLACEMENT_3D('',#1813,#1468,#1469);
#1298=AXIS2_PLACEMENT_3D('',#1814,#1470,#1471);
#1299=AXIS2_PLACEMENT_3D('',#1815,#1472,#1473);
#1300=AXIS2_PLACEMENT_3D('',#1821,#1477,#1478);
#1301=AXIS2_PLACEMENT_3D('',#1822,#1479,#1480);
#1302=AXIS2_PLACEMENT_3D('',#1823,#1481,#1482);
#1303=AXIS2_PLACEMENT_3D('',#1824,#1483,#1484);
#1304=AXIS2_PLACEMENT_3D('',#1825,#1485,#1486);
#1305=AXIS2_PLACEMENT_3D('',#1828,#1489,#1490);
#1306=AXIS2_PLACEMENT_3D('',#1830,#1492,#1493);
#1307=AXIS2_PLACEMENT_3D('',#1832,#1495,#1496);
#1308=AXIS2_PLACEMENT_3D('',#1833,#1497,#1498);
#1309=AXIS2_PLACEMENT_3D('',#1839,#1502,#1503);
#1310=AXIS2_PLACEMENT_3D('',#1843,#1506,#1507);
#1311=AXIS2_PLACEMENT_3D('',#1847,#1510,#1511);
#1312=AXIS2_PLACEMENT_3D('',#1851,#1514,#1515);
#1313=AXIS2_PLACEMENT_3D('',#1855,#1518,#1519);
#1314=AXIS2_PLACEMENT_3D('',#1857,#1521,#1522);
#1315=AXIS2_PLACEMENT_3D('',#1858,#1523,#1524);
#1316=AXIS2_PLACEMENT_3D('',#1867,#1529,#1530);
#1317=AXIS2_PLACEMENT_3D('',#1873,#1534,#1535);
#1318=AXIS2_PLACEMENT_3D('',#1879,#1539,#1540);
#1319=AXIS2_PLACEMENT_3D('',#1882,#1543,#1544);
#1320=AXIS2_PLACEMENT_3D('',#1883,#1545,#1546);
#1321=AXIS2_PLACEMENT_3D('',#1892,#1551,#1552);
#1322=AXIS2_PLACEMENT_3D('',#1898,#1556,#1557);
#1323=AXIS2_PLACEMENT_3D('',#1904,#1561,#1562);
#1324=AXIS2_PLACEMENT_3D('',#1907,#1565,#1566);
#1325=AXIS2_PLACEMENT_3D('',#1908,#1567,#1568);
#1326=AXIS2_PLACEMENT_3D('',#1917,#1573,#1574);
#1327=AXIS2_PLACEMENT_3D('',#1923,#1578,#1579);
#1328=AXIS2_PLACEMENT_3D('',#1929,#1583,#1584);
#1329=AXIS2_PLACEMENT_3D('',#1932,#1587,#1588);
#1330=AXIS2_PLACEMENT_3D('',#1933,#1589,#1590);
#1331=AXIS2_PLACEMENT_3D('',#1942,#1595,#1596);
#1332=AXIS2_PLACEMENT_3D('',#1948,#1600,#1601);
#1333=AXIS2_PLACEMENT_3D('',#1954,#1605,#1606);
#1334=AXIS2_PLACEMENT_3D('',#1957,#1609,#1610);
#1335=AXIS2_PLACEMENT_3D('',#1958,#1611,#1612);
#1336=AXIS2_PLACEMENT_3D('',#1960,#1613,#1614);
#1337=AXIS2_PLACEMENT_3D('',#1963,#1616,#1617);
#1338=AXIS2_PLACEMENT_3D('',#1964,#1618,#1619);
#1339=AXIS2_PLACEMENT_3D('',#1966,#1620,#1621);
#1340=AXIS2_PLACEMENT_3D('',#1969,#1623,#1624);
#1341=AXIS2_PLACEMENT_3D('',#1970,#1625,#1626);
#1342=AXIS2_PLACEMENT_3D('',#1972,#1627,#1628);
#1343=AXIS2_PLACEMENT_3D('',#1975,#1630,#1631);
#1344=AXIS2_PLACEMENT_3D('',#1976,#1632,#1633);
#1345=AXIS2_PLACEMENT_3D('',#1978,#1634,#1635);
#1346=AXIS2_PLACEMENT_3D('',#1981,#1637,#1638);
#1347=AXIS2_PLACEMENT_3D('',#1982,#1639,#1640);
#1348=AXIS2_PLACEMENT_3D('',#1991,#1645,#1646);
#1349=AXIS2_PLACEMENT_3D('',#2000,#1651,#1652);
#1350=AXIS2_PLACEMENT_3D('',#2003,#1655,#1656);
#1351=AXIS2_PLACEMENT_3D('',#2009,#1660,#1661);
#1352=AXIS2_PLACEMENT_3D('',#2015,#1665,#1666);
#1353=AXIS2_PLACEMENT_3D('',#2021,#1670,#1671);
#1354=AXIS2_PLACEMENT_3D('',#2025,#1674,#1675);
#1355=AXIS2_PLACEMENT_3D('',#2029,#1678,#1679);
#1356=AXIS2_PLACEMENT_3D('',#2031,#1681,#1682);
#1357=DIRECTION('axis',(0.,0.,1.));
#1358=DIRECTION('refdir',(1.,0.,0.));
#1359=DIRECTION('center_axis',(0.,0.,-1.));
#1360=DIRECTION('ref_axis',(0.,1.,0.));
#1361=DIRECTION('',(0.,-1.,0.));
#1362=DIRECTION('',(1.,0.,0.));
#1363=DIRECTION('',(0.,1.,0.));
#1364=DIRECTION('',(1.,0.,0.));
#1365=DIRECTION('center_axis',(0.,1.,0.));
#1366=DIRECTION('ref_axis',(0.,0.,1.));
#1367=DIRECTION('',(0.,0.,-1.));
#1368=DIRECTION('',(0.,0.,1.));
#1369=DIRECTION('',(1.,0.,0.));
#1370=DIRECTION('center_axis',(0.,0.707106781186548,0.707106781186547));
#1371=DIRECTION('ref_axis',(0.,-0.707106781186547,0.707106781186548));
#1372=DIRECTION('',(0.,0.707106781186547,-0.707106781186548));
#1373=DIRECTION('',(1.,0.,0.));
#1374=DIRECTION('',(0.,0.707106781186547,-0.707106781186548));
#1375=DIRECTION('',(1.,0.,0.));
#1376=DIRECTION('center_axis',(0.,1.,2.31296463463574E-15));
#1377=DIRECTION('ref_axis',(0.,-2.31296463463574E-15,1.));
#1378=DIRECTION('',(0.,2.31296463463574E-15,-1.));
#1379=DIRECTION('',(0.,2.31296463463574E-15,-1.));
#1380=DIRECTION('',(1.,0.,0.));
#1381=DIRECTION('center_axis',(0.,0.,-1.));
#1382=DIRECTION('ref_axis',(0.,1.,0.));
#1383=DIRECTION('',(0.,-1.,0.));
#1384=DIRECTION('',(0.,1.,0.));
#1385=DIRECTION('',(1.,0.,0.));
#1386=DIRECTION('center_axis',(0.,0.,1.));
#1387=DIRECTION('ref_axis',(0.,-1.,0.));
#1388=DIRECTION('',(0.,1.,0.));
#1389=DIRECTION('',(0.,-1.,0.));
#1390=DIRECTION('',(1.,0.,0.));
#1391=DIRECTION('center_axis',(0.,-1.,0.));
#1392=DIRECTION('ref_axis',(0.,0.,-1.));
#1393=DIRECTION('',(0.,0.,1.));
#1394=DIRECTION('',(0.,0.,-1.));
#1395=DIRECTION('center_axis',(0.,-1.,0.));
#1396=DIRECTION('ref_axis',(0.,0.,-1.));
#1397=DIRECTION('',(0.,0.,1.));
#1398=DIRECTION('',(0.,0.,-1.));
#1399=DIRECTION('',(1.,0.,0.));
#1400=DIRECTION('center_axis',(0.,-0.707106781186548,0.707106781186548));
#1401=DIRECTION('ref_axis',(0.,-0.707106781186548,-0.707106781186548));
#1402=DIRECTION('',(0.,0.707106781186548,0.707106781186548));
#1403=DIRECTION('',(0.,0.707106781186547,0.707106781186547));
#1404=DIRECTION('',(1.,0.,0.));
#1405=DIRECTION('center_axis',(0.,0.,1.));
#1406=DIRECTION('ref_axis',(0.,-1.,0.));
#1407=DIRECTION('',(0.,1.,0.));
#1408=DIRECTION('',(0.,1.,0.));
#1409=DIRECTION('center_axis',(1.,0.,0.));
#1410=DIRECTION('ref_axis',(0.,1.,0.));
#1411=DIRECTION('center_axis',(1.,0.,0.));
#1412=DIRECTION('ref_axis',(0.,0.,-1.));
#1413=DIRECTION('',(0.,1.,0.));
#1414=DIRECTION('',(0.,-1.98254111540206E-15,1.));
#1415=DIRECTION('',(0.,-0.707106781186547,0.707106781186548));
#1416=DIRECTION('',(0.,-1.,0.));
#1417=DIRECTION('',(0.,-0.707106781186547,-0.707106781186547));
#1418=DIRECTION('',(0.,0.,-1.));
#1419=DIRECTION('center_axis',(1.,0.,0.));
#1420=DIRECTION('ref_axis',(0.,0.,-1.));
#1421=DIRECTION('center_axis',(1.,0.,0.));
#1422=DIRECTION('ref_axis',(0.,0.,-1.));
#1423=DIRECTION('',(-1.,0.,0.));
#1424=DIRECTION('center_axis',(1.,0.,0.));
#1425=DIRECTION('ref_axis',(0.,0.,-1.));
#1426=DIRECTION('',(-1.,0.,0.));
#1427=DIRECTION('center_axis',(1.,0.,0.));
#1428=DIRECTION('ref_axis',(0.,0.,1.));
#1429=DIRECTION('center_axis',(1.,0.,0.));
#1430=DIRECTION('ref_axis',(0.,0.,1.));
#1431=DIRECTION('',(-1.,0.,0.));
#1432=DIRECTION('center_axis',(1.,0.,0.));
#1433=DIRECTION('ref_axis',(0.,0.,1.));
#1434=DIRECTION('',(-1.,0.,0.));
#1435=DIRECTION('center_axis',(0.,-3.16988336589542E-8,-1.));
#1436=DIRECTION('ref_axis',(0.,0.999999999999999,-3.16988336589542E-8));
#1437=DIRECTION('',(0.,-0.999999999999999,3.16988336589542E-8));
#1438=DIRECTION('',(1.,0.,0.));
#1439=DIRECTION('',(0.,0.999999999999999,-3.16988336589542E-8));
#1440=DIRECTION('',(1.,0.,0.));
#1441=DIRECTION('center_axis',(1.,0.,0.));
#1442=DIRECTION('ref_axis',(0.,3.16988324478019E-8,0.999999999999999));
#1443=DIRECTION('center_axis',(1.,0.,0.));
#1444=DIRECTION('ref_axis',(0.,3.16988324478019E-8,0.999999999999999));
#1445=DIRECTION('center_axis',(-1.,0.,0.));
#1446=DIRECTION('ref_axis',(0.,3.16988324478019E-8,0.999999999999999));
#1447=DIRECTION('',(1.,0.,0.));
#1448=DIRECTION('center_axis',(0.,1.58494168294771E-8,-1.));
#1449=DIRECTION('ref_axis',(0.,1.,1.58494168294771E-8));
#1450=DIRECTION('',(0.,-1.,-1.58494168294771E-8));
#1451=DIRECTION('',(1.,0.,0.));
#1452=DIRECTION('',(0.,1.,1.58494168294771E-8));
#1453=DIRECTION('',(1.,0.,0.));
#1454=DIRECTION('center_axis',(1.,0.,0.));
#1455=DIRECTION('ref_axis',(0.,-1.,-1.59109282913927E-8));
#1456=DIRECTION('center_axis',(-1.,0.,0.));
#1457=DIRECTION('ref_axis',(0.,6.70552258164035E-8,0.999999999999998));
#1458=DIRECTION('center_axis',(1.,0.,0.));
#1459=DIRECTION('ref_axis',(0.,6.70552258164035E-8,0.999999999999998));
#1460=DIRECTION('',(1.,0.,0.));
#1461=DIRECTION('center_axis',(0.,-1.23950613409557E-8,1.));
#1462=DIRECTION('ref_axis',(0.,-1.,-1.23950613409557E-8));
#1463=DIRECTION('',(0.,1.,1.23950613409557E-8));
#1464=DIRECTION('',(0.,-1.,-1.23950613409557E-8));
#1465=DIRECTION('',(1.,0.,0.));
#1466=DIRECTION('center_axis',(1.,0.,0.));
#1467=DIRECTION('ref_axis',(0.,0.999999999999964,-2.67305533324843E-7));
#1468=DIRECTION('center_axis',(1.,0.,0.));
#1469=DIRECTION('ref_axis',(0.,-5.02913577449246E-7,-0.999999999999874));
#1470=DIRECTION('center_axis',(-1.,0.,0.));
#1471=DIRECTION('ref_axis',(0.,-5.02913577449246E-7,-0.999999999999874));
#1472=DIRECTION('center_axis',(0.,2.01858731750028E-16,1.));
#1473=DIRECTION('ref_axis',(0.,-1.,2.01858731750028E-16));
#1474=DIRECTION('',(0.,1.,-2.01858731750028E-16));
#1475=DIRECTION('',(0.,1.,-2.01858731750028E-16));
#1476=DIRECTION('',(1.,0.,0.));
#1477=DIRECTION('center_axis',(1.,0.,0.));
#1478=DIRECTION('ref_axis',(0.,3.16988331879505E-8,-1.));
#1479=DIRECTION('center_axis',(-1.,0.,0.));
#1480=DIRECTION('ref_axis',(0.,3.16988331879505E-8,-1.));
#1481=DIRECTION('center_axis',(1.,0.,0.));
#1482=DIRECTION('ref_axis',(0.,3.16988331879505E-8,-1.));
#1483=DIRECTION('center_axis',(1.,0.,0.));
#1484=DIRECTION('ref_axis',(0.,1.,0.));
#1485=DIRECTION('center_axis',(1.,0.,0.));
#1486=DIRECTION('ref_axis',(0.,0.,-1.));
#1487=DIRECTION('',(0.,-1.,1.27611841910938E-16));
#1488=DIRECTION('',(0.,1.,0.));
#1489=DIRECTION('center_axis',(0.,0.,-1.));
#1490=DIRECTION('ref_axis',(0.,1.,0.));
#1491=DIRECTION('',(0.,-1.,0.));
#1492=DIRECTION('center_axis',(0.,1.27611841910938E-16,1.));
#1493=DIRECTION('ref_axis',(0.,-1.,1.27611841910938E-16));
#1494=DIRECTION('',(0.,1.,-1.27611841910938E-16));
#1495=DIRECTION('center_axis',(1.,0.,0.));
#1496=DIRECTION('ref_axis',(0.,0.,-1.));
#1497=DIRECTION('center_axis',(0.,-1.,0.));
#1498=DIRECTION('ref_axis',(0.,0.,-1.));
#1499=DIRECTION('',(0.,0.,1.));
#1500=DIRECTION('',(1.,0.,0.));
#1501=DIRECTION('',(1.,0.,0.));
#1502=DIRECTION('center_axis',(0.,-0.707106781186548,0.707106781186548));
#1503=DIRECTION('ref_axis',(0.,-0.707106781186548,-0.707106781186548));
#1504=DIRECTION('',(0.,0.707106781186548,0.707106781186548));
#1505=DIRECTION('',(1.,0.,0.));
#1506=DIRECTION('center_axis',(0.,0.,1.));
#1507=DIRECTION('ref_axis',(0.,-1.,0.));
#1508=DIRECTION('',(0.,1.,0.));
#1509=DIRECTION('',(1.,0.,0.));
#1510=DIRECTION('center_axis',(0.,0.707106781186548,0.707106781186547));
#1511=DIRECTION('ref_axis',(0.,-0.707106781186547,0.707106781186548));
#1512=DIRECTION('',(0.,0.707106781186547,-0.707106781186548));
#1513=DIRECTION('',(1.,0.,0.));
#1514=DIRECTION('center_axis',(0.,1.,1.98254111540206E-15));
#1515=DIRECTION('ref_axis',(0.,-1.98254111540206E-15,1.));
#1516=DIRECTION('',(0.,1.98254111540206E-15,-1.));
#1517=DIRECTION('',(1.,0.,0.));
#1518=DIRECTION('center_axis',(0.,0.,-1.));
#1519=DIRECTION('ref_axis',(0.,1.,0.));
#1520=DIRECTION('',(0.,-1.,0.));
#1521=DIRECTION('center_axis',(1.,0.,0.));
#1522=DIRECTION('ref_axis',(0.,0.,-1.));
#1523=DIRECTION('center_axis',(0.,0.,-1.));
#1524=DIRECTION('ref_axis',(0.,-1.,0.));
#1525=DIRECTION('',(0.,1.,0.));
#1526=DIRECTION('',(-1.,0.,0.));
#1527=DIRECTION('',(0.,-1.,0.));
#1528=DIRECTION('',(-1.,0.,0.));
#1529=DIRECTION('center_axis',(0.,1.,0.));
#1530=DIRECTION('ref_axis',(0.,0.,-1.));
#1531=DIRECTION('',(0.,0.,1.));
#1532=DIRECTION('',(0.,0.,-1.));
#1533=DIRECTION('',(-1.,0.,0.));
#1534=DIRECTION('center_axis',(0.,0.,1.));
#1535=DIRECTION('ref_axis',(0.,1.,0.));
#1536=DIRECTION('',(0.,-1.,0.));
#1537=DIRECTION('',(0.,1.,0.));
#1538=DIRECTION('',(-1.,0.,0.));
#1539=DIRECTION('center_axis',(0.,-1.,0.));
#1540=DIRECTION('ref_axis',(0.,0.,1.));
#1541=DIRECTION('',(0.,0.,-1.));
#1542=DIRECTION('',(0.,0.,1.));
#1543=DIRECTION('center_axis',(-1.,0.,0.));
#1544=DIRECTION('ref_axis',(0.,0.,1.));
#1545=DIRECTION('center_axis',(0.,1.,0.));
#1546=DIRECTION('ref_axis',(0.,0.,-1.));
#1547=DIRECTION('',(0.,0.,-1.));
#1548=DIRECTION('',(-1.,0.,0.));
#1549=DIRECTION('',(0.,0.,-1.));
#1550=DIRECTION('',(-1.,0.,0.));
#1551=DIRECTION('center_axis',(0.,0.,1.));
#1552=DIRECTION('ref_axis',(0.,1.,0.));
#1553=DIRECTION('',(0.,1.,0.));
#1554=DIRECTION('',(-1.,0.,0.));
#1555=DIRECTION('',(0.,1.,0.));
#1556=DIRECTION('center_axis',(0.,-1.,0.));
#1557=DIRECTION('ref_axis',(0.,0.,1.));
#1558=DIRECTION('',(0.,0.,1.));
#1559=DIRECTION('',(-1.,0.,0.));
#1560=DIRECTION('',(0.,0.,1.));
#1561=DIRECTION('center_axis',(0.,0.,-1.));
#1562=DIRECTION('ref_axis',(0.,-1.,0.));
#1563=DIRECTION('',(0.,-1.,0.));
#1564=DIRECTION('',(0.,-1.,0.));
#1565=DIRECTION('center_axis',(-1.,0.,0.));
#1566=DIRECTION('ref_axis',(0.,0.,1.));
#1567=DIRECTION('center_axis',(0.,1.,0.));
#1568=DIRECTION('ref_axis',(0.,0.,-1.));
#1569=DIRECTION('',(0.,0.,-1.));
#1570=DIRECTION('',(-1.,0.,0.));
#1571=DIRECTION('',(0.,0.,-1.));
#1572=DIRECTION('',(-1.,0.,0.));
#1573=DIRECTION('center_axis',(0.,0.,1.));
#1574=DIRECTION('ref_axis',(0.,1.,0.));
#1575=DIRECTION('',(0.,1.,0.));
#1576=DIRECTION('',(-1.,0.,0.));
#1577=DIRECTION('',(0.,1.,0.));
#1578=DIRECTION('center_axis',(0.,-1.,0.));
#1579=DIRECTION('ref_axis',(0.,0.,1.));
#1580=DIRECTION('',(0.,0.,1.));
#1581=DIRECTION('',(-1.,0.,0.));
#1582=DIRECTION('',(0.,0.,1.));
#1583=DIRECTION('center_axis',(0.,0.,-1.));
#1584=DIRECTION('ref_axis',(0.,-1.,0.));
#1585=DIRECTION('',(0.,-1.,0.));
#1586=DIRECTION('',(0.,-1.,0.));
#1587=DIRECTION('center_axis',(-1.,0.,0.));
#1588=DIRECTION('ref_axis',(0.,0.,1.));
#1589=DIRECTION('center_axis',(0.,0.,1.));
#1590=DIRECTION('ref_axis',(0.,-1.,0.));
#1591=DIRECTION('',(0.,-1.,0.));
#1592=DIRECTION('',(1.,0.,0.));
#1593=DIRECTION('',(0.,-1.,0.));
#1594=DIRECTION('',(1.,0.,0.));
#1595=DIRECTION('center_axis',(0.,1.,3.46944695195361E-16));
#1596=DIRECTION('ref_axis',(0.,-3.46944695195361E-16,1.));
#1597=DIRECTION('',(0.,-3.46944695195361E-16,1.));
#1598=DIRECTION('',(1.,0.,0.));
#1599=DIRECTION('',(0.,-3.46944695195361E-16,1.));
#1600=DIRECTION('center_axis',(0.,0.,-1.));
#1601=DIRECTION('ref_axis',(0.,1.,0.));
#1602=DIRECTION('',(0.,1.,0.));
#1603=DIRECTION('',(1.,0.,0.));
#1604=DIRECTION('',(0.,1.,0.));
#1605=DIRECTION('center_axis',(0.,-1.,-1.73472347597681E-16));
#1606=DIRECTION('ref_axis',(0.,1.73472347597681E-16,-1.));
#1607=DIRECTION('',(0.,1.73472347597681E-16,-1.));
#1608=DIRECTION('',(0.,1.73472347597681E-16,-1.));
#1609=DIRECTION('center_axis',(1.,0.,0.));
#1610=DIRECTION('ref_axis',(0.,0.,-1.));
#1611=DIRECTION('center_axis',(0.,0.,-1.));
#1612=DIRECTION('ref_axis',(-1.,0.,0.));
#1613=DIRECTION('center_axis',(0.,0.,-1.));
#1614=DIRECTION('ref_axis',(-1.,0.,0.));
#1615=DIRECTION('',(0.,0.,-1.));
#1616=DIRECTION('center_axis',(0.,0.,1.));
#1617=DIRECTION('ref_axis',(-1.,0.,0.));
#1618=DIRECTION('center_axis',(0.,0.,-1.));
#1619=DIRECTION('ref_axis',(-1.,0.,0.));
#1620=DIRECTION('center_axis',(0.,0.,-1.));
#1621=DIRECTION('ref_axis',(-1.,0.,0.));
#1622=DIRECTION('',(0.,0.,-1.));
#1623=DIRECTION('center_axis',(0.,0.,1.));
#1624=DIRECTION('ref_axis',(-1.,0.,0.));
#1625=DIRECTION('center_axis',(0.,0.,-1.));
#1626=DIRECTION('ref_axis',(-1.,0.,0.));
#1627=DIRECTION('center_axis',(0.,0.,-1.));
#1628=DIRECTION('ref_axis',(-1.,0.,0.));
#1629=DIRECTION('',(0.,0.,-1.));
#1630=DIRECTION('center_axis',(0.,0.,1.));
#1631=DIRECTION('ref_axis',(-1.,0.,0.));
#1632=DIRECTION('center_axis',(0.,0.,-1.));
#1633=DIRECTION('ref_axis',(-1.,0.,0.));
#1634=DIRECTION('center_axis',(0.,0.,-1.));
#1635=DIRECTION('ref_axis',(-1.,0.,0.));
#1636=DIRECTION('',(0.,0.,-1.));
#1637=DIRECTION('center_axis',(0.,0.,1.));
#1638=DIRECTION('ref_axis',(-1.,0.,0.));
#1639=DIRECTION('center_axis',(0.,-1.,0.));
#1640=DIRECTION('ref_axis',(1.,0.,0.));
#1641=DIRECTION('',(-1.,0.,0.));
#1642=DIRECTION('',(0.,0.,1.));
#1643=DIRECTION('',(1.,0.,0.));
#1644=DIRECTION('',(0.,0.,1.));
#1645=DIRECTION('center_axis',(0.,1.,0.));
#1646=DIRECTION('ref_axis',(-1.,0.,0.));
#1647=DIRECTION('',(1.,0.,0.));
#1648=DIRECTION('',(0.,0.,1.));
#1649=DIRECTION('',(-1.,0.,0.));
#1650=DIRECTION('',(0.,0.,1.));
#1651=DIRECTION('center_axis',(0.,0.,1.));
#1652=DIRECTION('ref_axis',(1.,0.,0.));
#1653=DIRECTION('',(0.,1.,0.));
#1654=DIRECTION('',(0.,-1.,0.));
#1655=DIRECTION('center_axis',(0.,0.,1.));
#1656=DIRECTION('ref_axis',(1.,0.,0.));
#1657=DIRECTION('',(0.,-1.,0.));
#1658=DIRECTION('',(1.,0.,0.));
#1659=DIRECTION('',(0.,1.,0.));
#1660=DIRECTION('center_axis',(0.,0.,1.));
#1661=DIRECTION('ref_axis',(1.,0.,0.));
#1662=DIRECTION('',(0.,1.,0.));
#1663=DIRECTION('',(-1.,0.,0.));
#1664=DIRECTION('',(0.,-1.,0.));
#1665=DIRECTION('center_axis',(0.,-1.,0.));
#1666=DIRECTION('ref_axis',(1.,0.,0.));
#1667=DIRECTION('',(1.,0.,0.));
#1668=DIRECTION('',(0.,0.,1.));
#1669=DIRECTION('',(0.,0.,1.));
#1670=DIRECTION('center_axis',(-1.,0.,0.));
#1671=DIRECTION('ref_axis',(0.,-1.,0.));
#1672=DIRECTION('',(0.,-1.,0.));
#1673=DIRECTION('',(0.,0.,1.));
#1674=DIRECTION('center_axis',(0.,1.,0.));
#1675=DIRECTION('ref_axis',(-1.,0.,0.));
#1676=DIRECTION('',(-1.,0.,0.));
#1677=DIRECTION('',(0.,0.,1.));
#1678=DIRECTION('center_axis',(1.,0.,0.));
#1679=DIRECTION('ref_axis',(0.,1.,0.));
#1680=DIRECTION('',(0.,1.,0.));
#1681=DIRECTION('center_axis',(0.,0.,1.));
#1682=DIRECTION('ref_axis',(1.,0.,0.));
#1683=CARTESIAN_POINT('',(0.,0.,0.));
#1684=CARTESIAN_POINT('Origin',(13.25,-8.95,6.4));
#1685=CARTESIAN_POINT('',(18.25,-4.75,6.4));
#1686=CARTESIAN_POINT('',(18.25,-8.95,6.4));
#1687=CARTESIAN_POINT('',(18.25,-7.9,6.4));
#1688=CARTESIAN_POINT('',(13.25,-4.75,6.4));
#1689=CARTESIAN_POINT('',(13.25,-4.75,6.4));
#1690=CARTESIAN_POINT('',(13.25,-8.95,6.4));
#1691=CARTESIAN_POINT('',(13.25,-4.75,6.4));
#1692=CARTESIAN_POINT('',(13.25,-8.95,6.4));
#1693=CARTESIAN_POINT('Origin',(13.25,-8.95,6.));
#1694=CARTESIAN_POINT('',(18.25,-8.95,6.));
#1695=CARTESIAN_POINT('',(18.25,-8.95,6.325));
#1696=CARTESIAN_POINT('',(13.25,-8.95,6.));
#1697=CARTESIAN_POINT('',(13.25,-8.95,6.4));
#1698=CARTESIAN_POINT('',(13.25,-8.95,6.));
#1699=CARTESIAN_POINT('Origin',(13.25,-3.05,6.6));
#1700=CARTESIAN_POINT('',(18.25,-4.35,7.9));
#1701=CARTESIAN_POINT('',(18.25,-3.05,6.6));
#1702=CARTESIAN_POINT('',(18.25,-4.0125,7.5625));
#1703=CARTESIAN_POINT('',(13.25,-4.35,7.9));
#1704=CARTESIAN_POINT('',(13.25,-4.35,7.9));
#1705=CARTESIAN_POINT('',(13.25,-3.05,6.6));
#1706=CARTESIAN_POINT('',(13.25,-4.35,7.9));
#1707=CARTESIAN_POINT('',(13.25,-3.05,6.6));
#1708=CARTESIAN_POINT('Origin',(13.25,-3.05,5.4));
#1709=CARTESIAN_POINT('',(18.25,-3.05,5.4));
#1710=CARTESIAN_POINT('',(18.25,-3.05,6.025));
#1711=CARTESIAN_POINT('',(13.25,-3.05,5.4));
#1712=CARTESIAN_POINT('',(13.25,-3.05,6.6));
#1713=CARTESIAN_POINT('',(13.25,-3.05,5.4));
#1714=CARTESIAN_POINT('Origin',(13.25,-10.65,5.4));
#1715=CARTESIAN_POINT('',(18.25,-10.65,5.4));
#1716=CARTESIAN_POINT('',(18.25,-8.75,5.4));
#1717=CARTESIAN_POINT('',(13.25,-10.65,5.4));
#1718=CARTESIAN_POINT('',(13.25,-10.65,5.4));
#1719=CARTESIAN_POINT('',(13.25,-10.65,5.4));
#1720=CARTESIAN_POINT('Origin',(13.25,-4.75,6.));
#1721=CARTESIAN_POINT('',(18.25,-4.75,6.));
#1722=CARTESIAN_POINT('',(18.25,-5.8,6.));
#1723=CARTESIAN_POINT('',(13.25,-4.75,6.));
#1724=CARTESIAN_POINT('',(13.25,-8.95,6.));
#1725=CARTESIAN_POINT('',(13.25,-4.75,6.));
#1726=CARTESIAN_POINT('Origin',(13.25,-4.75,6.4));
#1727=CARTESIAN_POINT('',(18.25,-4.75,6.525));
#1728=CARTESIAN_POINT('',(13.25,-4.75,6.));
#1729=CARTESIAN_POINT('Origin',(13.25,-10.65,6.6));
#1730=CARTESIAN_POINT('',(18.25,-10.65,6.6));
#1731=CARTESIAN_POINT('',(18.25,-10.65,6.625));
#1732=CARTESIAN_POINT('',(13.25,-10.65,6.6));
#1733=CARTESIAN_POINT('',(13.25,-10.65,6.6));
#1734=CARTESIAN_POINT('',(13.25,-10.65,6.6));
#1735=CARTESIAN_POINT('Origin',(13.25,-9.35,7.9));
#1736=CARTESIAN_POINT('',(18.25,-9.35,7.9));
#1737=CARTESIAN_POINT('',(18.25,-9.0375,8.2125));
#1738=CARTESIAN_POINT('',(13.25,-9.35,7.9));
#1739=CARTESIAN_POINT('',(13.25,-10.65,6.6));
#1740=CARTESIAN_POINT('',(13.25,-9.35,7.9));
#1741=CARTESIAN_POINT('Origin',(13.25,-4.35,7.9));
#1742=CARTESIAN_POINT('',(18.25,-5.6,7.9));
#1743=CARTESIAN_POINT('',(13.25,-9.35,7.9));
#1744=CARTESIAN_POINT('Origin',(13.25,-6.85,6.65));
#1745=CARTESIAN_POINT('Origin',(18.25,-6.85,6.65));
#1746=CARTESIAN_POINT('',(18.25,-10.75,5.3));
#1747=CARTESIAN_POINT('',(18.25,-2.95,5.3));
#1748=CARTESIAN_POINT('',(18.25,-10.75,5.3));
#1749=CARTESIAN_POINT('',(18.25,-2.95,6.7));
#1750=CARTESIAN_POINT('',(18.25,-2.95,5.3));
#1751=CARTESIAN_POINT('',(18.25,-4.25,8.));
#1752=CARTESIAN_POINT('',(18.25,-4.25,8.));
#1753=CARTESIAN_POINT('',(18.25,-9.45,8.));
#1754=CARTESIAN_POINT('',(18.25,-4.25,8.));
#1755=CARTESIAN_POINT('',(18.25,-10.75,6.7));
#1756=CARTESIAN_POINT('',(18.25,-10.75,6.7));
#1757=CARTESIAN_POINT('',(18.25,-10.75,5.3));
#1758=CARTESIAN_POINT('Origin',(13.25,10.,6.3));
#1759=CARTESIAN_POINT('',(18.25,10.,4.7));
#1760=CARTESIAN_POINT('',(18.25,10.,7.9));
#1761=CARTESIAN_POINT('Origin',(18.25,10.,6.3));
#1762=CARTESIAN_POINT('',(13.25,10.,4.7));
#1763=CARTESIAN_POINT('',(13.25,10.,4.7));
#1764=CARTESIAN_POINT('',(13.25,10.,7.9));
#1765=CARTESIAN_POINT('Origin',(13.25,10.,6.3));
#1766=CARTESIAN_POINT('',(13.25,10.,7.9));
#1767=CARTESIAN_POINT('Origin',(13.25,4.5,6.3));
#1768=CARTESIAN_POINT('',(18.25,4.5,7.9));
#1769=CARTESIAN_POINT('',(18.25,4.5,4.7));
#1770=CARTESIAN_POINT('Origin',(18.25,4.5,6.3));
#1771=CARTESIAN_POINT('',(13.25,4.5,7.9));
#1772=CARTESIAN_POINT('',(13.25,4.5,7.9));
#1773=CARTESIAN_POINT('',(13.25,4.5,4.7));
#1774=CARTESIAN_POINT('Origin',(13.25,4.5,6.3));
#1775=CARTESIAN_POINT('',(13.25,4.5,4.7));
#1776=CARTESIAN_POINT('Origin',(13.25,4.50000000633977,6.50000017434359));
#1777=CARTESIAN_POINT('',(18.25,10.0000000063395,6.5));
#1778=CARTESIAN_POINT('',(18.25,4.50000000633977,6.50000017434359));
#1779=CARTESIAN_POINT('',(18.25,5.87500000633977,6.50000013075769));
#1780=CARTESIAN_POINT('',(13.25,10.0000000063395,6.5));
#1781=CARTESIAN_POINT('',(13.25,10.0000000063395,6.5));
#1782=CARTESIAN_POINT('',(13.25,4.50000000633977,6.50000017434359));
#1783=CARTESIAN_POINT('',(13.25,4.50000000633977,6.50000017434359));
#1784=CARTESIAN_POINT('',(13.25,4.50000000633977,6.50000017434359));
#1785=CARTESIAN_POINT('Origin',(13.25,4.5,6.30000017434359));
#1786=CARTESIAN_POINT('',(18.25,4.49999989941702,6.10000017434361));
#1787=CARTESIAN_POINT('Origin',(18.25,4.5,6.30000017434359));
#1788=CARTESIAN_POINT('',(13.25,4.49999989941702,6.10000017434361));
#1789=CARTESIAN_POINT('Origin',(13.25,4.5,6.30000017434359));
#1790=CARTESIAN_POINT('',(13.25,4.49999989941702,6.10000017434361));
#1791=CARTESIAN_POINT('Origin',(13.25,4.50000004773279,4.79999991282821));
#1792=CARTESIAN_POINT('',(18.25,10.0000000475482,4.8));
#1793=CARTESIAN_POINT('',(18.25,4.50000004773279,4.8));
#1794=CARTESIAN_POINT('',(18.25,5.87500003575346,4.79999993462116));
#1795=CARTESIAN_POINT('',(13.25,10.0000000475482,4.8));
#1796=CARTESIAN_POINT('',(13.25,10.0000000475482,4.8));
#1797=CARTESIAN_POINT('',(13.25,4.50000004773279,4.8));
#1798=CARTESIAN_POINT('',(13.25,4.50000004754825,4.79999991282821));
#1799=CARTESIAN_POINT('',(13.25,4.50000004773279,4.8));
#1800=CARTESIAN_POINT('Origin',(13.25,4.49999989941716,6.3));
#1801=CARTESIAN_POINT('',(18.25,4.5,7.8));
#1802=CARTESIAN_POINT('Origin',(18.25,4.49999989941716,6.3));
#1803=CARTESIAN_POINT('',(13.25,4.5,7.8));
#1804=CARTESIAN_POINT('Origin',(13.25,4.49999989941716,6.3));
#1805=CARTESIAN_POINT('',(13.25,4.5,7.8));
#1806=CARTESIAN_POINT('Origin',(13.25,9.99999989941728,6.10000000000002));
#1807=CARTESIAN_POINT('',(18.25,9.99999989941728,6.10000000000002));
#1808=CARTESIAN_POINT('',(18.25,8.62499995094815,6.09999998295682));
#1809=CARTESIAN_POINT('',(13.25,9.99999989941728,6.10000000000002));
#1810=CARTESIAN_POINT('',(13.25,4.49999989941716,6.09999993182719));
#1811=CARTESIAN_POINT('',(13.25,9.99999989941728,6.10000000000002));
#1812=CARTESIAN_POINT('Origin',(13.25,10.,6.3));
#1813=CARTESIAN_POINT('Origin',(18.25,10.,6.3));
#1814=CARTESIAN_POINT('Origin',(13.25,10.,6.3));
#1815=CARTESIAN_POINT('Origin',(13.25,9.99999999715523,7.8));
#1816=CARTESIAN_POINT('',(18.25,9.99999999715523,7.8));
#1817=CARTESIAN_POINT('',(18.25,8.62499999857762,7.8));
#1818=CARTESIAN_POINT('',(13.25,9.99999999715523,7.8));
#1819=CARTESIAN_POINT('',(13.25,4.5,7.8));
#1820=CARTESIAN_POINT('',(13.25,9.99999999715523,7.8));
#1821=CARTESIAN_POINT('Origin',(13.25,10.,6.3));
#1822=CARTESIAN_POINT('Origin',(18.25,10.,6.3));
#1823=CARTESIAN_POINT('Origin',(13.25,10.,6.3));
#1824=CARTESIAN_POINT('Origin',(13.25,7.24999994970858,6.29999995641411));
#1825=CARTESIAN_POINT('Origin',(18.25,7.25,6.3));
#1826=CARTESIAN_POINT('',(18.25,11.6,7.9));
#1827=CARTESIAN_POINT('',(18.25,2.9,4.7));
#1828=CARTESIAN_POINT('Origin',(13.25,2.9,4.7));
#1829=CARTESIAN_POINT('',(13.25,5.075,4.7));
#1830=CARTESIAN_POINT('Origin',(13.25,11.6,7.9));
#1831=CARTESIAN_POINT('',(13.25,9.425,7.9));
#1832=CARTESIAN_POINT('Origin',(18.25,7.25,6.3));
#1833=CARTESIAN_POINT('Origin',(13.25,-10.75,6.7));
#1834=CARTESIAN_POINT('',(13.25,-10.75,5.3));
#1835=CARTESIAN_POINT('',(13.25,-10.75,6.7));
#1836=CARTESIAN_POINT('',(13.25,-10.75,6.5));
#1837=CARTESIAN_POINT('',(13.25,-10.75,5.3));
#1838=CARTESIAN_POINT('',(13.25,-10.75,6.7));
#1839=CARTESIAN_POINT('Origin',(13.25,-9.45,8.));
#1840=CARTESIAN_POINT('',(13.25,-9.45,8.));
#1841=CARTESIAN_POINT('',(13.25,-9.225,8.225));
#1842=CARTESIAN_POINT('',(13.25,-9.45,8.));
#1843=CARTESIAN_POINT('Origin',(13.25,-4.25,8.));
#1844=CARTESIAN_POINT('',(13.25,-4.25,8.));
#1845=CARTESIAN_POINT('',(13.25,-5.55,8.));
#1846=CARTESIAN_POINT('',(13.25,-4.25,8.));
#1847=CARTESIAN_POINT('Origin',(13.25,-2.95,6.7));
#1848=CARTESIAN_POINT('',(13.25,-2.95,6.7));
#1849=CARTESIAN_POINT('',(13.25,-3.825,7.575));
#1850=CARTESIAN_POINT('',(13.25,-2.95,6.7));
#1851=CARTESIAN_POINT('Origin',(13.25,-2.95,5.3));
#1852=CARTESIAN_POINT('',(13.25,-2.95,5.3));
#1853=CARTESIAN_POINT('',(13.25,-2.95,5.8));
#1854=CARTESIAN_POINT('',(13.25,-2.95,5.3));
#1855=CARTESIAN_POINT('Origin',(13.25,-10.75,5.3));
#1856=CARTESIAN_POINT('',(13.25,-8.8,5.3));
#1857=CARTESIAN_POINT('Origin',(18.25,-6.85,6.65));
#1858=CARTESIAN_POINT('Origin',(-13.25,5.8,4.05));
#1859=CARTESIAN_POINT('',(-13.25,-5.8,4.05));
#1860=CARTESIAN_POINT('',(-13.25,5.8,4.05));
#1861=CARTESIAN_POINT('',(-13.25,2.9,4.05));
#1862=CARTESIAN_POINT('',(-23.25,-5.8,4.05));
#1863=CARTESIAN_POINT('',(-13.25,-5.8,4.05));
#1864=CARTESIAN_POINT('',(-23.25,5.8,4.05));
#1865=CARTESIAN_POINT('',(-23.25,5.8,4.05));
#1866=CARTESIAN_POINT('',(-13.25,5.8,4.05));
#1867=CARTESIAN_POINT('Origin',(-13.25,5.8,7.75));
#1868=CARTESIAN_POINT('',(-13.25,5.8,7.75));
#1869=CARTESIAN_POINT('',(-13.25,5.8,6.825));
#1870=CARTESIAN_POINT('',(-23.25,5.8,7.75));
#1871=CARTESIAN_POINT('',(-23.25,5.8,7.75));
#1872=CARTESIAN_POINT('',(-13.25,5.8,7.75));
#1873=CARTESIAN_POINT('Origin',(-13.25,-5.8,7.75));
#1874=CARTESIAN_POINT('',(-13.25,-5.8,7.75));
#1875=CARTESIAN_POINT('',(-13.25,-2.9,7.75));
#1876=CARTESIAN_POINT('',(-23.25,-5.8,7.75));
#1877=CARTESIAN_POINT('',(-23.25,-5.8,7.75));
#1878=CARTESIAN_POINT('',(-13.25,-5.8,7.75));
#1879=CARTESIAN_POINT('Origin',(-13.25,-5.8,4.05));
#1880=CARTESIAN_POINT('',(-13.25,-5.8,4.975));
#1881=CARTESIAN_POINT('',(-23.25,-5.8,4.05));
#1882=CARTESIAN_POINT('Origin',(-23.25,-3.33066907387547E-15,5.9));
#1883=CARTESIAN_POINT('Origin',(18.25,-1.8,8.1));
#1884=CARTESIAN_POINT('',(18.25,-1.8,8.1));
#1885=CARTESIAN_POINT('',(18.25,-1.8,4.5));
#1886=CARTESIAN_POINT('',(18.25,-1.8,4.05));
#1887=CARTESIAN_POINT('',(13.25,-1.8,8.1));
#1888=CARTESIAN_POINT('',(18.25,-1.8,8.1));
#1889=CARTESIAN_POINT('',(13.25,-1.8,4.5));
#1890=CARTESIAN_POINT('',(13.25,-1.8,8.1));
#1891=CARTESIAN_POINT('',(18.25,-1.8,4.5));
#1892=CARTESIAN_POINT('Origin',(18.25,-11.9,8.1));
#1893=CARTESIAN_POINT('',(18.25,-11.9,8.1));
#1894=CARTESIAN_POINT('',(18.25,-19.725,8.1));
#1895=CARTESIAN_POINT('',(13.25,-11.9,8.1));
#1896=CARTESIAN_POINT('',(18.25,-11.9,8.1));
#1897=CARTESIAN_POINT('',(13.25,-11.9,8.1));
#1898=CARTESIAN_POINT('Origin',(18.25,-11.9,4.5));
#1899=CARTESIAN_POINT('',(18.25,-11.9,4.5));
#1900=CARTESIAN_POINT('',(18.25,-11.9,2.25));
#1901=CARTESIAN_POINT('',(13.25,-11.9,4.5));
#1902=CARTESIAN_POINT('',(18.25,-11.9,4.5));
#1903=CARTESIAN_POINT('',(13.25,-11.9,4.5));
#1904=CARTESIAN_POINT('Origin',(18.25,-1.8,4.5));
#1905=CARTESIAN_POINT('',(18.25,-14.675,4.5));
#1906=CARTESIAN_POINT('',(13.25,-1.8,4.5));
#1907=CARTESIAN_POINT('Origin',(13.25,-6.85,6.3));
#1908=CARTESIAN_POINT('Origin',(18.25,12.3,8.1));
#1909=CARTESIAN_POINT('',(18.25,12.3,8.1));
#1910=CARTESIAN_POINT('',(18.25,12.3,4.5));
#1911=CARTESIAN_POINT('',(18.25,12.3,4.05));
#1912=CARTESIAN_POINT('',(13.25,12.3,8.1));
#1913=CARTESIAN_POINT('',(18.25,12.3,8.1));
#1914=CARTESIAN_POINT('',(13.25,12.3,4.5));
#1915=CARTESIAN_POINT('',(13.25,12.3,8.1));
#1916=CARTESIAN_POINT('',(18.25,12.3,4.5));
#1917=CARTESIAN_POINT('Origin',(18.25,2.2,8.1));
#1918=CARTESIAN_POINT('',(18.25,2.2,8.1));
#1919=CARTESIAN_POINT('',(18.25,-12.675,8.1));
#1920=CARTESIAN_POINT('',(13.25,2.2,8.1));
#1921=CARTESIAN_POINT('',(18.25,2.2,8.1));
#1922=CARTESIAN_POINT('',(13.25,2.2,8.1));
#1923=CARTESIAN_POINT('Origin',(18.25,2.2,4.5));
#1924=CARTESIAN_POINT('',(18.25,2.2,4.5));
#1925=CARTESIAN_POINT('',(18.25,2.2,2.25));
#1926=CARTESIAN_POINT('',(13.25,2.2,4.5));
#1927=CARTESIAN_POINT('',(18.25,2.2,4.5));
#1928=CARTESIAN_POINT('',(13.25,2.2,4.5));
#1929=CARTESIAN_POINT('Origin',(18.25,12.3,4.5));
#1930=CARTESIAN_POINT('',(18.25,-7.625,4.5));
#1931=CARTESIAN_POINT('',(13.25,12.3,4.5));
#1932=CARTESIAN_POINT('Origin',(13.25,7.25,6.3));
#1933=CARTESIAN_POINT('Origin',(-18.25,7.34999999999999,9.1));
#1934=CARTESIAN_POINT('',(-18.25,7.35,9.1));
#1935=CARTESIAN_POINT('',(-18.25,-7.35,9.1));
#1936=CARTESIAN_POINT('',(-18.25,17.45,9.1));
#1937=CARTESIAN_POINT('',(-13.25,7.35,9.1));
#1938=CARTESIAN_POINT('',(-18.25,7.35,9.1));
#1939=CARTESIAN_POINT('',(-13.25,-7.35,9.1));
#1940=CARTESIAN_POINT('',(-13.25,-7.35,9.1));
#1941=CARTESIAN_POINT('',(-18.25,-7.35,9.1));
#1942=CARTESIAN_POINT('Origin',(-18.25,7.35,2.7));
#1943=CARTESIAN_POINT('',(-18.25,7.35,2.7));
#1944=CARTESIAN_POINT('',(-18.25,7.35,1.35));
#1945=CARTESIAN_POINT('',(-13.25,7.35,2.7));
#1946=CARTESIAN_POINT('',(-18.25,7.35,2.7));
#1947=CARTESIAN_POINT('',(-13.25,7.35,9.1));
#1948=CARTESIAN_POINT('Origin',(-18.25,-7.35,2.7));
#1949=CARTESIAN_POINT('',(-18.25,-7.35,2.7));
#1950=CARTESIAN_POINT('',(-18.25,10.1,2.7));
#1951=CARTESIAN_POINT('',(-13.25,-7.35,2.7));
#1952=CARTESIAN_POINT('',(-18.25,-7.35,2.7));
#1953=CARTESIAN_POINT('',(-13.25,7.35,2.7));
#1954=CARTESIAN_POINT('Origin',(-18.25,-7.35,9.1));
#1955=CARTESIAN_POINT('',(-18.25,-7.35,4.55));
#1956=CARTESIAN_POINT('',(-13.25,-7.35,2.7));
#1957=CARTESIAN_POINT('Origin',(-13.25,-3.33066907387547E-15,5.9));
#1958=CARTESIAN_POINT('Origin',(-11.95,23.05,2.));
#1959=CARTESIAN_POINT('',(-10.45,23.05,2.));
#1960=CARTESIAN_POINT('Origin',(-11.95,23.05,2.));
#1961=CARTESIAN_POINT('',(-10.45,23.05,0.));
#1962=CARTESIAN_POINT('',(-10.45,23.05,2.));
#1963=CARTESIAN_POINT('Origin',(-11.95,23.05,0.));
#1964=CARTESIAN_POINT('Origin',(-11.95,-23.05,2.));
#1965=CARTESIAN_POINT('',(-10.45,-23.05,2.));
#1966=CARTESIAN_POINT('Origin',(-11.95,-23.05,2.));
#1967=CARTESIAN_POINT('',(-10.45,-23.05,0.));
#1968=CARTESIAN_POINT('',(-10.45,-23.05,2.));
#1969=CARTESIAN_POINT('Origin',(-11.95,-23.05,0.));
#1970=CARTESIAN_POINT('Origin',(11.35,23.05,2.));
#1971=CARTESIAN_POINT('',(12.85,23.05,2.));
#1972=CARTESIAN_POINT('Origin',(11.35,23.05,2.));
#1973=CARTESIAN_POINT('',(12.85,23.05,0.));
#1974=CARTESIAN_POINT('',(12.85,23.05,2.));
#1975=CARTESIAN_POINT('Origin',(11.35,23.05,0.));
#1976=CARTESIAN_POINT('Origin',(11.35,-23.05,2.));
#1977=CARTESIAN_POINT('',(12.85,-23.05,2.));
#1978=CARTESIAN_POINT('Origin',(11.35,-23.05,2.));
#1979=CARTESIAN_POINT('',(12.85,-23.05,0.));
#1980=CARTESIAN_POINT('',(12.85,-23.05,2.));
#1981=CARTESIAN_POINT('Origin',(11.35,-23.05,0.));
#1982=CARTESIAN_POINT('Origin',(-18.25,-18.6,2.));
#1983=CARTESIAN_POINT('',(18.25,-18.6,2.));
#1984=CARTESIAN_POINT('',(-18.25,-18.6,2.));
#1985=CARTESIAN_POINT('',(-9.125,-18.6,2.));
#1986=CARTESIAN_POINT('',(18.25,-18.6,13.));
#1987=CARTESIAN_POINT('',(18.25,-18.6,2.));
#1988=CARTESIAN_POINT('',(-18.25,-18.6,13.));
#1989=CARTESIAN_POINT('',(-18.25,-18.6,13.));
#1990=CARTESIAN_POINT('',(-18.25,-18.6,2.));
#1991=CARTESIAN_POINT('Origin',(18.25,18.6,2.));
#1992=CARTESIAN_POINT('',(-18.25,18.6,2.));
#1993=CARTESIAN_POINT('',(18.25,18.6,2.));
#1994=CARTESIAN_POINT('',(9.125,18.6,2.));
#1995=CARTESIAN_POINT('',(-18.25,18.6,13.));
#1996=CARTESIAN_POINT('',(-18.25,18.6,2.));
#1997=CARTESIAN_POINT('',(18.25,18.6,13.));
#1998=CARTESIAN_POINT('',(18.25,18.6,13.));
#1999=CARTESIAN_POINT('',(18.25,18.6,2.));
#2000=CARTESIAN_POINT('Origin',(0.,0.,13.));
#2001=CARTESIAN_POINT('',(18.25,-18.6,13.));
#2002=CARTESIAN_POINT('',(-18.25,18.6,13.));
#2003=CARTESIAN_POINT('Origin',(0.,0.,2.));
#2004=CARTESIAN_POINT('',(-18.25,-27.55,2.));
#2005=CARTESIAN_POINT('',(-18.25,27.55,2.));
#2006=CARTESIAN_POINT('',(18.25,-27.55,2.));
#2007=CARTESIAN_POINT('',(-18.25,-27.55,2.));
#2008=CARTESIAN_POINT('',(18.25,-27.55,2.));
#2009=CARTESIAN_POINT('Origin',(0.,0.,2.));
#2010=CARTESIAN_POINT('',(18.25,27.55,2.));
#2011=CARTESIAN_POINT('',(18.25,-27.55,2.));
#2012=CARTESIAN_POINT('',(-18.25,27.55,2.));
#2013=CARTESIAN_POINT('',(18.25,27.55,2.));
#2014=CARTESIAN_POINT('',(-18.25,27.55,2.));
#2015=CARTESIAN_POINT('Origin',(-18.25,-27.55,0.));
#2016=CARTESIAN_POINT('',(-18.25,-27.55,0.));
#2017=CARTESIAN_POINT('',(18.25,-27.55,0.));
#2018=CARTESIAN_POINT('',(-18.25,-27.55,0.));
#2019=CARTESIAN_POINT('',(18.25,-27.55,0.));
#2020=CARTESIAN_POINT('',(-18.25,-27.55,0.));
#2021=CARTESIAN_POINT('Origin',(-18.25,27.55,0.));
#2022=CARTESIAN_POINT('',(-18.25,27.55,0.));
#2023=CARTESIAN_POINT('',(-18.25,27.55,0.));
#2024=CARTESIAN_POINT('',(-18.25,27.55,0.));
#2025=CARTESIAN_POINT('Origin',(18.25,27.55,0.));
#2026=CARTESIAN_POINT('',(18.25,27.55,0.));
#2027=CARTESIAN_POINT('',(18.25,27.55,0.));
#2028=CARTESIAN_POINT('',(18.25,27.55,0.));
#2029=CARTESIAN_POINT('Origin',(18.25,-27.55,0.));
#2030=CARTESIAN_POINT('',(18.25,-27.55,0.));
#2031=CARTESIAN_POINT('Origin',(0.,0.,0.));
#2032=UNCERTAINTY_MEASURE_WITH_UNIT(LENGTH_MEASURE(0.01),#2036,
'DISTANCE_ACCURACY_VALUE',
'Maximum model space distance between geometric entities at asserted c
onnectivities');
#2033=UNCERTAINTY_MEASURE_WITH_UNIT(LENGTH_MEASURE(0.01),#2036,
'DISTANCE_ACCURACY_VALUE',
'Maximum model space distance between geometric entities at asserted c
onnectivities');
#2034=(
GEOMETRIC_REPRESENTATION_CONTEXT(3)
GLOBAL_UNCERTAINTY_ASSIGNED_CONTEXT((#2032))
GLOBAL_UNIT_ASSIGNED_CONTEXT((#2036,#2038,#2039))
REPRESENTATION_CONTEXT('','3D')
);
#2035=(
GEOMETRIC_REPRESENTATION_CONTEXT(3)
GLOBAL_UNCERTAINTY_ASSIGNED_CONTEXT((#2033))
GLOBAL_UNIT_ASSIGNED_CONTEXT((#2036,#2038,#2039))
REPRESENTATION_CONTEXT('','3D')
);
#2036=(
LENGTH_UNIT()
NAMED_UNIT(*)
SI_UNIT(.MILLI.,.METRE.)
);
#2037=(
LENGTH_UNIT()
NAMED_UNIT(*)
SI_UNIT($,.METRE.)
);
#2038=(
NAMED_UNIT(*)
PLANE_ANGLE_UNIT()
SI_UNIT($,.RADIAN.)
);
#2039=(
NAMED_UNIT(*)
SI_UNIT($,.STERADIAN.)
SOLID_ANGLE_UNIT()
);
#2040=SHAPE_DEFINITION_REPRESENTATION(#2041,#2042);
#2041=PRODUCT_DEFINITION_SHAPE('',$,#2044);
#2042=SHAPE_REPRESENTATION('',(#1268),#2034);
#2043=PRODUCT_DEFINITION_CONTEXT('part definition',#2048,'design');
#2044=PRODUCT_DEFINITION('2026-04-27-20-36-33-208',
'\X2\96F78FBE\X0\UART\X2\8F6C63625668FF08FF09\X0\',#2045,#2043);
#2045=PRODUCT_DEFINITION_FORMATION('',$,#2050);
#2046=PRODUCT_RELATED_PRODUCT_CATEGORY('\X2\96F78FBE\X0\UART\X2\8F6C63625668FF08FF09\X0\',
'\X2\96F78FBE\X0\UART\X2\8F6C63625668FF08FF09\X0\',(#2050));
#2047=APPLICATION_PROTOCOL_DEFINITION('international standard',
'automotive_design',2009,#2048);
#2048=APPLICATION_CONTEXT(
'Core Data for Automotive Mechanical Design Process');
#2049=PRODUCT_CONTEXT('part definition',#2048,'mechanical');
#2050=PRODUCT('2026-04-27-20-36-33-208','\X2\96F78FBE\X0\UART\X2\8F6C63625668FF08FF09\X0\',
$,(#2049));
#2051=PRESENTATION_STYLE_ASSIGNMENT((#2052));
#2052=SURFACE_STYLE_USAGE(.BOTH.,#2053);
#2053=SURFACE_SIDE_STYLE('',(#2054));
#2054=SURFACE_STYLE_FILL_AREA(#2055);
#2055=FILL_AREA_STYLE('\X2\94A2\X0\ - \X2\7F0E5149\X0\',(#2056));
#2056=FILL_AREA_STYLE_COLOUR('\X2\94A2\X0\ - \X2\7F0E5149\X0\',#2057);
#2057=COLOUR_RGB('\X2\94A2\X0\ - \X2\7F0E5149\X0\',0.627450980392157,0.627450980392157,
0.627450980392157);
ENDSEC;
END-ISO-10303-21;
