ISO-10303-21;
HEADER;
/* Generated by software containing ST-Developer
 * from STEP Tools, Inc. (www.steptools.com) 
 */

FILE_DESCRIPTION(
/* description */ (''),
/* implementation_level */ '2;1');

FILE_NAME(
/* name */ '',
/* time_stamp */ '2026-08-11T12:30:22+09:00',
/* author */ (''),
/* organization */ (''),
/* preprocessor_version */ 'ST-DEVELOPER v20.1',
/* originating_system */ 'Autodesk Translation Framework v15.8.0.0',
/* authorisation */ '');

FILE_SCHEMA (('AUTOMOTIVE_DESIGN { 1 0 10303 214 3 1 1 }'));
ENDSEC;

DATA;
#10=MECHANICAL_DESIGN_GEOMETRIC_PRESENTATION_REPRESENTATION('',(#13),#883);
#11=SHAPE_REPRESENTATION_RELATIONSHIP('SRR','None',#890,#12);
#12=ADVANCED_BREP_SHAPE_REPRESENTATION('',(#14),#882);
#13=STYLED_ITEM('',(#899),#14);
#14=MANIFOLD_SOLID_BREP('\X2\5B9E4F53\X0\1',#551);
#15=FACE_BOUND('',#54,.T.);
#16=FACE_BOUND('',#55,.T.);
#17=FACE_BOUND('',#56,.T.);
#18=FACE_BOUND('',#57,.T.);
#19=FACE_OUTER_BOUND('',#49,.T.);
#20=FACE_OUTER_BOUND('',#50,.T.);
#21=FACE_OUTER_BOUND('',#51,.T.);
#22=FACE_OUTER_BOUND('',#52,.T.);
#23=FACE_OUTER_BOUND('',#53,.T.);
#24=FACE_OUTER_BOUND('',#58,.T.);
#25=FACE_OUTER_BOUND('',#59,.T.);
#26=FACE_OUTER_BOUND('',#60,.T.);
#27=FACE_OUTER_BOUND('',#61,.T.);
#28=FACE_OUTER_BOUND('',#62,.T.);
#29=FACE_OUTER_BOUND('',#63,.T.);
#30=FACE_OUTER_BOUND('',#64,.T.);
#31=FACE_OUTER_BOUND('',#65,.T.);
#32=FACE_OUTER_BOUND('',#66,.T.);
#33=FACE_OUTER_BOUND('',#67,.T.);
#34=FACE_OUTER_BOUND('',#68,.T.);
#35=FACE_OUTER_BOUND('',#69,.T.);
#36=FACE_OUTER_BOUND('',#70,.T.);
#37=FACE_OUTER_BOUND('',#71,.T.);
#38=FACE_OUTER_BOUND('',#72,.T.);
#39=FACE_OUTER_BOUND('',#73,.T.);
#40=FACE_OUTER_BOUND('',#74,.T.);
#41=FACE_OUTER_BOUND('',#75,.T.);
#42=FACE_OUTER_BOUND('',#76,.T.);
#43=FACE_OUTER_BOUND('',#77,.T.);
#44=FACE_OUTER_BOUND('',#78,.T.);
#45=FACE_OUTER_BOUND('',#79,.T.);
#46=FACE_OUTER_BOUND('',#80,.T.);
#47=FACE_OUTER_BOUND('',#81,.T.);
#48=FACE_OUTER_BOUND('',#82,.T.);
#49=EDGE_LOOP('',(#347,#348,#349,#350));
#50=EDGE_LOOP('',(#351,#352,#353,#354));
#51=EDGE_LOOP('',(#355,#356,#357,#358));
#52=EDGE_LOOP('',(#359,#360,#361,#362));
#53=EDGE_LOOP('',(#363,#364,#365,#366));
#54=EDGE_LOOP('',(#367,#368,#369,#370));
#55=EDGE_LOOP('',(#371,#372,#373,#374));
#56=EDGE_LOOP('',(#375,#376,#377,#378));
#57=EDGE_LOOP('',(#379,#380,#381,#382));
#58=EDGE_LOOP('',(#383,#384,#385,#386));
#59=EDGE_LOOP('',(#387,#388,#389,#390));
#60=EDGE_LOOP('',(#391,#392,#393,#394));
#61=EDGE_LOOP('',(#395,#396,#397,#398));
#62=EDGE_LOOP('',(#399,#400,#401,#402));
#63=EDGE_LOOP('',(#403,#404,#405,#406));
#64=EDGE_LOOP('',(#407,#408,#409,#410));
#65=EDGE_LOOP('',(#411,#412,#413,#414));
#66=EDGE_LOOP('',(#415,#416,#417,#418));
#67=EDGE_LOOP('',(#419,#420,#421,#422));
#68=EDGE_LOOP('',(#423,#424,#425,#426));
#69=EDGE_LOOP('',(#427,#428,#429,#430));
#70=EDGE_LOOP('',(#431,#432,#433,#434));
#71=EDGE_LOOP('',(#435,#436,#437,#438));
#72=EDGE_LOOP('',(#439,#440,#441,#442));
#73=EDGE_LOOP('',(#443,#444,#445,#446));
#74=EDGE_LOOP('',(#447,#448,#449,#450));
#75=EDGE_LOOP('',(#451,#452,#453,#454));
#76=EDGE_LOOP('',(#455,#456,#457,#458));
#77=EDGE_LOOP('',(#459,#460,#461,#462));
#78=EDGE_LOOP('',(#463,#464,#465,#466));
#79=EDGE_LOOP('',(#467,#468,#469,#470,#471,#472,#473,#474));
#80=EDGE_LOOP('',(#475,#476,#477,#478));
#81=EDGE_LOOP('',(#479,#480,#481,#482,#483,#484,#485,#486));
#82=EDGE_LOOP('',(#487,#488,#489,#490));
#83=LINE('',#733,#155);
#84=LINE('',#735,#156);
#85=LINE('',#737,#157);
#86=LINE('',#738,#158);
#87=LINE('',#741,#159);
#88=LINE('',#743,#160);
#89=LINE('',#744,#161);
#90=LINE('',#748,#162);
#91=LINE('',#750,#163);
#92=LINE('',#752,#164);
#93=LINE('',#753,#165);
#94=LINE('',#755,#166);
#95=LINE('',#756,#167);
#96=LINE('',#759,#168);
#97=LINE('',#761,#169);
#98=LINE('',#762,#170);
#99=LINE('',#765,#171);
#100=LINE('',#767,#172);
#101=LINE('',#769,#173);
#102=LINE('',#770,#174);
#103=LINE('',#773,#175);
#104=LINE('',#775,#176);
#105=LINE('',#777,#177);
#106=LINE('',#778,#178);
#107=LINE('',#781,#179);
#108=LINE('',#783,#180);
#109=LINE('',#785,#181);
#110=LINE('',#786,#182);
#111=LINE('',#789,#183);
#112=LINE('',#791,#184);
#113=LINE('',#793,#185);
#114=LINE('',#794,#186);
#115=LINE('',#797,#187);
#116=LINE('',#799,#188);
#117=LINE('',#800,#189);
#118=LINE('',#803,#190);
#119=LINE('',#804,#191);
#120=LINE('',#807,#192);
#121=LINE('',#808,#193);
#122=LINE('',#810,#194);
#123=LINE('',#814,#195);
#124=LINE('',#816,#196);
#125=LINE('',#817,#197);
#126=LINE('',#820,#198);
#127=LINE('',#821,#199);
#128=LINE('',#824,#200);
#129=LINE('',#825,#201);
#130=LINE('',#827,#202);
#131=LINE('',#831,#203);
#132=LINE('',#833,#204);
#133=LINE('',#834,#205);
#134=LINE('',#837,#206);
#135=LINE('',#838,#207);
#136=LINE('',#841,#208);
#137=LINE('',#842,#209);
#138=LINE('',#844,#210);
#139=LINE('',#848,#211);
#140=LINE('',#850,#212);
#141=LINE('',#851,#213);
#142=LINE('',#854,#214);
#143=LINE('',#855,#215);
#144=LINE('',#858,#216);
#145=LINE('',#859,#217);
#146=LINE('',#861,#218);
#147=LINE('',#866,#219);
#148=LINE('',#867,#220);
#149=LINE('',#868,#221);
#150=LINE('',#871,#222);
#151=LINE('',#872,#223);
#152=LINE('',#875,#224);
#153=LINE('',#876,#225);
#154=LINE('',#878,#226);
#155=VECTOR('',#599,10.);
#156=VECTOR('',#600,10.);
#157=VECTOR('',#601,10.);
#158=VECTOR('',#602,10.);
#159=VECTOR('',#605,10.);
#160=VECTOR('',#606,10.);
#161=VECTOR('',#607,10.);
#162=VECTOR('',#610,10.);
#163=VECTOR('',#611,10.);
#164=VECTOR('',#612,10.);
#165=VECTOR('',#613,10.);
#166=VECTOR('',#616,10.);
#167=VECTOR('',#617,10.);
#168=VECTOR('',#620,10.);
#169=VECTOR('',#621,10.);
#170=VECTOR('',#622,10.);
#171=VECTOR('',#623,10.);
#172=VECTOR('',#624,10.);
#173=VECTOR('',#625,10.);
#174=VECTOR('',#626,10.);
#175=VECTOR('',#627,10.);
#176=VECTOR('',#628,10.);
#177=VECTOR('',#629,10.);
#178=VECTOR('',#630,10.);
#179=VECTOR('',#631,10.);
#180=VECTOR('',#632,10.);
#181=VECTOR('',#633,10.);
#182=VECTOR('',#634,10.);
#183=VECTOR('',#635,10.);
#184=VECTOR('',#636,10.);
#185=VECTOR('',#637,10.);
#186=VECTOR('',#638,10.);
#187=VECTOR('',#641,10.);
#188=VECTOR('',#642,10.);
#189=VECTOR('',#643,10.);
#190=VECTOR('',#646,10.);
#191=VECTOR('',#647,10.);
#192=VECTOR('',#650,10.);
#193=VECTOR('',#651,10.);
#194=VECTOR('',#654,10.);
#195=VECTOR('',#659,10.);
#196=VECTOR('',#660,10.);
#197=VECTOR('',#661,10.);
#198=VECTOR('',#664,10.);
#199=VECTOR('',#665,10.);
#200=VECTOR('',#668,10.);
#201=VECTOR('',#669,10.);
#202=VECTOR('',#672,10.);
#203=VECTOR('',#677,10.);
#204=VECTOR('',#678,10.);
#205=VECTOR('',#679,10.);
#206=VECTOR('',#682,10.);
#207=VECTOR('',#683,10.);
#208=VECTOR('',#686,10.);
#209=VECTOR('',#687,10.);
#210=VECTOR('',#690,10.);
#211=VECTOR('',#695,10.);
#212=VECTOR('',#696,10.);
#213=VECTOR('',#697,10.);
#214=VECTOR('',#700,10.);
#215=VECTOR('',#701,10.);
#216=VECTOR('',#704,10.);
#217=VECTOR('',#705,10.);
#218=VECTOR('',#708,10.);
#219=VECTOR('',#713,10.);
#220=VECTOR('',#714,10.);
#221=VECTOR('',#715,10.);
#222=VECTOR('',#718,10.);
#223=VECTOR('',#719,10.);
#224=VECTOR('',#722,10.);
#225=VECTOR('',#723,10.);
#226=VECTOR('',#726,10.);
#227=VERTEX_POINT('',#731);
#228=VERTEX_POINT('',#732);
#229=VERTEX_POINT('',#734);
#230=VERTEX_POINT('',#736);
#231=VERTEX_POINT('',#740);
#232=VERTEX_POINT('',#742);
#233=VERTEX_POINT('',#746);
#234=VERTEX_POINT('',#747);
#235=VERTEX_POINT('',#749);
#236=VERTEX_POINT('',#751);
#237=VERTEX_POINT('',#758);
#238=VERTEX_POINT('',#760);
#239=VERTEX_POINT('',#763);
#240=VERTEX_POINT('',#764);
#241=VERTEX_POINT('',#766);
#242=VERTEX_POINT('',#768);
#243=VERTEX_POINT('',#771);
#244=VERTEX_POINT('',#772);
#245=VERTEX_POINT('',#774);
#246=VERTEX_POINT('',#776);
#247=VERTEX_POINT('',#779);
#248=VERTEX_POINT('',#780);
#249=VERTEX_POINT('',#782);
#250=VERTEX_POINT('',#784);
#251=VERTEX_POINT('',#787);
#252=VERTEX_POINT('',#788);
#253=VERTEX_POINT('',#790);
#254=VERTEX_POINT('',#792);
#255=VERTEX_POINT('',#796);
#256=VERTEX_POINT('',#798);
#257=VERTEX_POINT('',#802);
#258=VERTEX_POINT('',#806);
#259=VERTEX_POINT('',#813);
#260=VERTEX_POINT('',#815);
#261=VERTEX_POINT('',#819);
#262=VERTEX_POINT('',#823);
#263=VERTEX_POINT('',#830);
#264=VERTEX_POINT('',#832);
#265=VERTEX_POINT('',#836);
#266=VERTEX_POINT('',#840);
#267=VERTEX_POINT('',#847);
#268=VERTEX_POINT('',#849);
#269=VERTEX_POINT('',#853);
#270=VERTEX_POINT('',#857);
#271=VERTEX_POINT('',#864);
#272=VERTEX_POINT('',#865);
#273=VERTEX_POINT('',#870);
#274=VERTEX_POINT('',#874);
#275=EDGE_CURVE('',#227,#228,#83,.T.);
#276=EDGE_CURVE('',#227,#229,#84,.T.);
#277=EDGE_CURVE('',#230,#229,#85,.T.);
#278=EDGE_CURVE('',#228,#230,#86,.T.);
#279=EDGE_CURVE('',#229,#231,#87,.T.);
#280=EDGE_CURVE('',#231,#232,#88,.T.);
#281=EDGE_CURVE('',#232,#230,#89,.T.);
#282=EDGE_CURVE('',#233,#234,#90,.T.);
#283=EDGE_CURVE('',#233,#235,#91,.T.);
#284=EDGE_CURVE('',#236,#235,#92,.T.);
#285=EDGE_CURVE('',#234,#236,#93,.T.);
#286=EDGE_CURVE('',#235,#227,#94,.T.);
#287=EDGE_CURVE('',#228,#236,#95,.T.);
#288=EDGE_CURVE('',#234,#237,#96,.T.);
#289=EDGE_CURVE('',#237,#238,#97,.T.);
#290=EDGE_CURVE('',#238,#233,#98,.T.);
#291=EDGE_CURVE('',#239,#240,#99,.T.);
#292=EDGE_CURVE('',#240,#241,#100,.T.);
#293=EDGE_CURVE('',#241,#242,#101,.T.);
#294=EDGE_CURVE('',#242,#239,#102,.T.);
#295=EDGE_CURVE('',#243,#244,#103,.T.);
#296=EDGE_CURVE('',#244,#245,#104,.T.);
#297=EDGE_CURVE('',#245,#246,#105,.T.);
#298=EDGE_CURVE('',#246,#243,#106,.T.);
#299=EDGE_CURVE('',#247,#248,#107,.T.);
#300=EDGE_CURVE('',#248,#249,#108,.T.);
#301=EDGE_CURVE('',#249,#250,#109,.T.);
#302=EDGE_CURVE('',#250,#247,#110,.T.);
#303=EDGE_CURVE('',#251,#252,#111,.T.);
#304=EDGE_CURVE('',#252,#253,#112,.T.);
#305=EDGE_CURVE('',#253,#254,#113,.T.);
#306=EDGE_CURVE('',#254,#251,#114,.T.);
#307=EDGE_CURVE('',#239,#255,#115,.T.);
#308=EDGE_CURVE('',#256,#255,#116,.T.);
#309=EDGE_CURVE('',#240,#256,#117,.T.);
#310=EDGE_CURVE('',#257,#256,#118,.T.);
#311=EDGE_CURVE('',#241,#257,#119,.T.);
#312=EDGE_CURVE('',#258,#257,#120,.T.);
#313=EDGE_CURVE('',#242,#258,#121,.T.);
#314=EDGE_CURVE('',#255,#258,#122,.T.);
#315=EDGE_CURVE('',#243,#259,#123,.T.);
#316=EDGE_CURVE('',#259,#260,#124,.T.);
#317=EDGE_CURVE('',#244,#260,#125,.T.);
#318=EDGE_CURVE('',#246,#261,#126,.T.);
#319=EDGE_CURVE('',#261,#259,#127,.T.);
#320=EDGE_CURVE('',#245,#262,#128,.T.);
#321=EDGE_CURVE('',#262,#261,#129,.T.);
#322=EDGE_CURVE('',#260,#262,#130,.T.);
#323=EDGE_CURVE('',#247,#263,#131,.T.);
#324=EDGE_CURVE('',#263,#264,#132,.T.);
#325=EDGE_CURVE('',#248,#264,#133,.T.);
#326=EDGE_CURVE('',#250,#265,#134,.T.);
#327=EDGE_CURVE('',#265,#263,#135,.T.);
#328=EDGE_CURVE('',#249,#266,#136,.T.);
#329=EDGE_CURVE('',#266,#265,#137,.T.);
#330=EDGE_CURVE('',#264,#266,#138,.T.);
#331=EDGE_CURVE('',#251,#267,#139,.T.);
#332=EDGE_CURVE('',#267,#268,#140,.T.);
#333=EDGE_CURVE('',#252,#268,#141,.T.);
#334=EDGE_CURVE('',#254,#269,#142,.T.);
#335=EDGE_CURVE('',#269,#267,#143,.T.);
#336=EDGE_CURVE('',#253,#270,#144,.T.);
#337=EDGE_CURVE('',#270,#269,#145,.T.);
#338=EDGE_CURVE('',#268,#270,#146,.T.);
#339=EDGE_CURVE('',#271,#272,#147,.T.);
#340=EDGE_CURVE('',#271,#238,#148,.T.);
#341=EDGE_CURVE('',#272,#237,#149,.T.);
#342=EDGE_CURVE('',#272,#273,#150,.T.);
#343=EDGE_CURVE('',#273,#232,#151,.T.);
#344=EDGE_CURVE('',#273,#274,#152,.T.);
#345=EDGE_CURVE('',#274,#231,#153,.T.);
#346=EDGE_CURVE('',#274,#271,#154,.T.);
#347=ORIENTED_EDGE('',*,*,#275,.F.);
#348=ORIENTED_EDGE('',*,*,#276,.T.);
#349=ORIENTED_EDGE('',*,*,#277,.F.);
#350=ORIENTED_EDGE('',*,*,#278,.F.);
#351=ORIENTED_EDGE('',*,*,#277,.T.);
#352=ORIENTED_EDGE('',*,*,#279,.T.);
#353=ORIENTED_EDGE('',*,*,#280,.T.);
#354=ORIENTED_EDGE('',*,*,#281,.T.);
#355=ORIENTED_EDGE('',*,*,#282,.F.);
#356=ORIENTED_EDGE('',*,*,#283,.T.);
#357=ORIENTED_EDGE('',*,*,#284,.F.);
#358=ORIENTED_EDGE('',*,*,#285,.F.);
#359=ORIENTED_EDGE('',*,*,#284,.T.);
#360=ORIENTED_EDGE('',*,*,#286,.T.);
#361=ORIENTED_EDGE('',*,*,#275,.T.);
#362=ORIENTED_EDGE('',*,*,#287,.T.);
#363=ORIENTED_EDGE('',*,*,#282,.T.);
#364=ORIENTED_EDGE('',*,*,#288,.T.);
#365=ORIENTED_EDGE('',*,*,#289,.T.);
#366=ORIENTED_EDGE('',*,*,#290,.T.);
#367=ORIENTED_EDGE('',*,*,#291,.T.);
#368=ORIENTED_EDGE('',*,*,#292,.T.);
#369=ORIENTED_EDGE('',*,*,#293,.T.);
#370=ORIENTED_EDGE('',*,*,#294,.T.);
#371=ORIENTED_EDGE('',*,*,#295,.T.);
#372=ORIENTED_EDGE('',*,*,#296,.T.);
#373=ORIENTED_EDGE('',*,*,#297,.T.);
#374=ORIENTED_EDGE('',*,*,#298,.T.);
#375=ORIENTED_EDGE('',*,*,#299,.T.);
#376=ORIENTED_EDGE('',*,*,#300,.T.);
#377=ORIENTED_EDGE('',*,*,#301,.T.);
#378=ORIENTED_EDGE('',*,*,#302,.T.);
#379=ORIENTED_EDGE('',*,*,#303,.T.);
#380=ORIENTED_EDGE('',*,*,#304,.T.);
#381=ORIENTED_EDGE('',*,*,#305,.T.);
#382=ORIENTED_EDGE('',*,*,#306,.T.);
#383=ORIENTED_EDGE('',*,*,#291,.F.);
#384=ORIENTED_EDGE('',*,*,#307,.T.);
#385=ORIENTED_EDGE('',*,*,#308,.F.);
#386=ORIENTED_EDGE('',*,*,#309,.F.);
#387=ORIENTED_EDGE('',*,*,#292,.F.);
#388=ORIENTED_EDGE('',*,*,#309,.T.);
#389=ORIENTED_EDGE('',*,*,#310,.F.);
#390=ORIENTED_EDGE('',*,*,#311,.F.);
#391=ORIENTED_EDGE('',*,*,#293,.F.);
#392=ORIENTED_EDGE('',*,*,#311,.T.);
#393=ORIENTED_EDGE('',*,*,#312,.F.);
#394=ORIENTED_EDGE('',*,*,#313,.F.);
#395=ORIENTED_EDGE('',*,*,#294,.F.);
#396=ORIENTED_EDGE('',*,*,#313,.T.);
#397=ORIENTED_EDGE('',*,*,#314,.F.);
#398=ORIENTED_EDGE('',*,*,#307,.F.);
#399=ORIENTED_EDGE('',*,*,#314,.T.);
#400=ORIENTED_EDGE('',*,*,#312,.T.);
#401=ORIENTED_EDGE('',*,*,#310,.T.);
#402=ORIENTED_EDGE('',*,*,#308,.T.);
#403=ORIENTED_EDGE('',*,*,#295,.F.);
#404=ORIENTED_EDGE('',*,*,#315,.T.);
#405=ORIENTED_EDGE('',*,*,#316,.T.);
#406=ORIENTED_EDGE('',*,*,#317,.F.);
#407=ORIENTED_EDGE('',*,*,#298,.F.);
#408=ORIENTED_EDGE('',*,*,#318,.T.);
#409=ORIENTED_EDGE('',*,*,#319,.T.);
#410=ORIENTED_EDGE('',*,*,#315,.F.);
#411=ORIENTED_EDGE('',*,*,#297,.F.);
#412=ORIENTED_EDGE('',*,*,#320,.T.);
#413=ORIENTED_EDGE('',*,*,#321,.T.);
#414=ORIENTED_EDGE('',*,*,#318,.F.);
#415=ORIENTED_EDGE('',*,*,#296,.F.);
#416=ORIENTED_EDGE('',*,*,#317,.T.);
#417=ORIENTED_EDGE('',*,*,#322,.T.);
#418=ORIENTED_EDGE('',*,*,#320,.F.);
#419=ORIENTED_EDGE('',*,*,#322,.F.);
#420=ORIENTED_EDGE('',*,*,#316,.F.);
#421=ORIENTED_EDGE('',*,*,#319,.F.);
#422=ORIENTED_EDGE('',*,*,#321,.F.);
#423=ORIENTED_EDGE('',*,*,#299,.F.);
#424=ORIENTED_EDGE('',*,*,#323,.T.);
#425=ORIENTED_EDGE('',*,*,#324,.T.);
#426=ORIENTED_EDGE('',*,*,#325,.F.);
#427=ORIENTED_EDGE('',*,*,#302,.F.);
#428=ORIENTED_EDGE('',*,*,#326,.T.);
#429=ORIENTED_EDGE('',*,*,#327,.T.);
#430=ORIENTED_EDGE('',*,*,#323,.F.);
#431=ORIENTED_EDGE('',*,*,#301,.F.);
#432=ORIENTED_EDGE('',*,*,#328,.T.);
#433=ORIENTED_EDGE('',*,*,#329,.T.);
#434=ORIENTED_EDGE('',*,*,#326,.F.);
#435=ORIENTED_EDGE('',*,*,#300,.F.);
#436=ORIENTED_EDGE('',*,*,#325,.T.);
#437=ORIENTED_EDGE('',*,*,#330,.T.);
#438=ORIENTED_EDGE('',*,*,#328,.F.);
#439=ORIENTED_EDGE('',*,*,#330,.F.);
#440=ORIENTED_EDGE('',*,*,#324,.F.);
#441=ORIENTED_EDGE('',*,*,#327,.F.);
#442=ORIENTED_EDGE('',*,*,#329,.F.);
#443=ORIENTED_EDGE('',*,*,#303,.F.);
#444=ORIENTED_EDGE('',*,*,#331,.T.);
#445=ORIENTED_EDGE('',*,*,#332,.T.);
#446=ORIENTED_EDGE('',*,*,#333,.F.);
#447=ORIENTED_EDGE('',*,*,#306,.F.);
#448=ORIENTED_EDGE('',*,*,#334,.T.);
#449=ORIENTED_EDGE('',*,*,#335,.T.);
#450=ORIENTED_EDGE('',*,*,#331,.F.);
#451=ORIENTED_EDGE('',*,*,#305,.F.);
#452=ORIENTED_EDGE('',*,*,#336,.T.);
#453=ORIENTED_EDGE('',*,*,#337,.T.);
#454=ORIENTED_EDGE('',*,*,#334,.F.);
#455=ORIENTED_EDGE('',*,*,#304,.F.);
#456=ORIENTED_EDGE('',*,*,#333,.T.);
#457=ORIENTED_EDGE('',*,*,#338,.T.);
#458=ORIENTED_EDGE('',*,*,#336,.F.);
#459=ORIENTED_EDGE('',*,*,#338,.F.);
#460=ORIENTED_EDGE('',*,*,#332,.F.);
#461=ORIENTED_EDGE('',*,*,#335,.F.);
#462=ORIENTED_EDGE('',*,*,#337,.F.);
#463=ORIENTED_EDGE('',*,*,#339,.F.);
#464=ORIENTED_EDGE('',*,*,#340,.T.);
#465=ORIENTED_EDGE('',*,*,#289,.F.);
#466=ORIENTED_EDGE('',*,*,#341,.F.);
#467=ORIENTED_EDGE('',*,*,#342,.F.);
#468=ORIENTED_EDGE('',*,*,#341,.T.);
#469=ORIENTED_EDGE('',*,*,#288,.F.);
#470=ORIENTED_EDGE('',*,*,#285,.T.);
#471=ORIENTED_EDGE('',*,*,#287,.F.);
#472=ORIENTED_EDGE('',*,*,#278,.T.);
#473=ORIENTED_EDGE('',*,*,#281,.F.);
#474=ORIENTED_EDGE('',*,*,#343,.F.);
#475=ORIENTED_EDGE('',*,*,#344,.F.);
#476=ORIENTED_EDGE('',*,*,#343,.T.);
#477=ORIENTED_EDGE('',*,*,#280,.F.);
#478=ORIENTED_EDGE('',*,*,#345,.F.);
#479=ORIENTED_EDGE('',*,*,#346,.F.);
#480=ORIENTED_EDGE('',*,*,#345,.T.);
#481=ORIENTED_EDGE('',*,*,#279,.F.);
#482=ORIENTED_EDGE('',*,*,#276,.F.);
#483=ORIENTED_EDGE('',*,*,#286,.F.);
#484=ORIENTED_EDGE('',*,*,#283,.F.);
#485=ORIENTED_EDGE('',*,*,#290,.F.);
#486=ORIENTED_EDGE('',*,*,#340,.F.);
#487=ORIENTED_EDGE('',*,*,#346,.T.);
#488=ORIENTED_EDGE('',*,*,#339,.T.);
#489=ORIENTED_EDGE('',*,*,#342,.T.);
#490=ORIENTED_EDGE('',*,*,#344,.T.);
#491=PLANE('',#565);
#492=PLANE('',#566);
#493=PLANE('',#567);
#494=PLANE('',#568);
#495=PLANE('',#569);
#496=PLANE('',#570);
#497=PLANE('',#571);
#498=PLANE('',#572);
#499=PLANE('',#573);
#500=PLANE('',#574);
#501=PLANE('',#575);
#502=PLANE('',#576);
#503=PLANE('',#577);
#504=PLANE('',#578);
#505=PLANE('',#579);
#506=PLANE('',#580);
#507=PLANE('',#581);
#508=PLANE('',#582);
#509=PLANE('',#583);
#510=PLANE('',#584);
#511=PLANE('',#585);
#512=PLANE('',#586);
#513=PLANE('',#587);
#514=PLANE('',#588);
#515=PLANE('',#589);
#516=PLANE('',#590);
#517=PLANE('',#591);
#518=PLANE('',#592);
#519=PLANE('',#593);
#520=PLANE('',#594);
#521=ADVANCED_FACE('',(#19),#491,.T.);
#522=ADVANCED_FACE('',(#20),#492,.T.);
#523=ADVANCED_FACE('',(#21),#493,.T.);
#524=ADVANCED_FACE('',(#22),#494,.T.);
#525=ADVANCED_FACE('',(#23,#15,#16,#17,#18),#495,.T.);
#526=ADVANCED_FACE('',(#24),#496,.T.);
#527=ADVANCED_FACE('',(#25),#497,.T.);
#528=ADVANCED_FACE('',(#26),#498,.T.);
#529=ADVANCED_FACE('',(#27),#499,.T.);
#530=ADVANCED_FACE('',(#28),#500,.T.);
#531=ADVANCED_FACE('',(#29),#501,.F.);
#532=ADVANCED_FACE('',(#30),#502,.F.);
#533=ADVANCED_FACE('',(#31),#503,.F.);
#534=ADVANCED_FACE('',(#32),#504,.F.);
#535=ADVANCED_FACE('',(#33),#505,.F.);
#536=ADVANCED_FACE('',(#34),#506,.F.);
#537=ADVANCED_FACE('',(#35),#507,.F.);
#538=ADVANCED_FACE('',(#36),#508,.F.);
#539=ADVANCED_FACE('',(#37),#509,.F.);
#540=ADVANCED_FACE('',(#38),#510,.F.);
#541=ADVANCED_FACE('',(#39),#511,.F.);
#542=ADVANCED_FACE('',(#40),#512,.F.);
#543=ADVANCED_FACE('',(#41),#513,.F.);
#544=ADVANCED_FACE('',(#42),#514,.F.);
#545=ADVANCED_FACE('',(#43),#515,.F.);
#546=ADVANCED_FACE('',(#44),#516,.T.);
#547=ADVANCED_FACE('',(#45),#517,.T.);
#548=ADVANCED_FACE('',(#46),#518,.T.);
#549=ADVANCED_FACE('',(#47),#519,.T.);
#550=ADVANCED_FACE('',(#48),#520,.F.);
#551=CLOSED_SHELL('',(#521,#522,#523,#524,#525,#526,#527,#528,#529,#530,
#531,#532,#533,#534,#535,#536,#537,#538,#539,#540,#541,#542,#543,#544,#545,
#546,#547,#548,#549,#550));
#552=DERIVED_UNIT_ELEMENT(#554,1.);
#553=DERIVED_UNIT_ELEMENT(#885,-3.);
#554=(
MASS_UNIT()
NAMED_UNIT(*)
SI_UNIT(.KILO.,.GRAM.)
);
#555=DERIVED_UNIT((#552,#553));
#556=MEASURE_REPRESENTATION_ITEM('density measure',
POSITIVE_RATIO_MEASURE(7850.),#555);
#557=PROPERTY_DEFINITION_REPRESENTATION(#562,#559);
#558=PROPERTY_DEFINITION_REPRESENTATION(#563,#560);
#559=REPRESENTATION('material name',(#561),#882);
#560=REPRESENTATION('density',(#556),#882);
#561=DESCRIPTIVE_REPRESENTATION_ITEM('\X2\94A2\X0\','\X2\94A2\X0\');
#562=PROPERTY_DEFINITION('material property','material name',#892);
#563=PROPERTY_DEFINITION('material property','density of part',#892);
#564=AXIS2_PLACEMENT_3D('',#729,#595,#596);
#565=AXIS2_PLACEMENT_3D('',#730,#597,#598);
#566=AXIS2_PLACEMENT_3D('',#739,#603,#604);
#567=AXIS2_PLACEMENT_3D('',#745,#608,#609);
#568=AXIS2_PLACEMENT_3D('',#754,#614,#615);
#569=AXIS2_PLACEMENT_3D('',#757,#618,#619);
#570=AXIS2_PLACEMENT_3D('',#795,#639,#640);
#571=AXIS2_PLACEMENT_3D('',#801,#644,#645);
#572=AXIS2_PLACEMENT_3D('',#805,#648,#649);
#573=AXIS2_PLACEMENT_3D('',#809,#652,#653);
#574=AXIS2_PLACEMENT_3D('',#811,#655,#656);
#575=AXIS2_PLACEMENT_3D('',#812,#657,#658);
#576=AXIS2_PLACEMENT_3D('',#818,#662,#663);
#577=AXIS2_PLACEMENT_3D('',#822,#666,#667);
#578=AXIS2_PLACEMENT_3D('',#826,#670,#671);
#579=AXIS2_PLACEMENT_3D('',#828,#673,#674);
#580=AXIS2_PLACEMENT_3D('',#829,#675,#676);
#581=AXIS2_PLACEMENT_3D('',#835,#680,#681);
#582=AXIS2_PLACEMENT_3D('',#839,#684,#685);
#583=AXIS2_PLACEMENT_3D('',#843,#688,#689);
#584=AXIS2_PLACEMENT_3D('',#845,#691,#692);
#585=AXIS2_PLACEMENT_3D('',#846,#693,#694);
#586=AXIS2_PLACEMENT_3D('',#852,#698,#699);
#587=AXIS2_PLACEMENT_3D('',#856,#702,#703);
#588=AXIS2_PLACEMENT_3D('',#860,#706,#707);
#589=AXIS2_PLACEMENT_3D('',#862,#709,#710);
#590=AXIS2_PLACEMENT_3D('',#863,#711,#712);
#591=AXIS2_PLACEMENT_3D('',#869,#716,#717);
#592=AXIS2_PLACEMENT_3D('',#873,#720,#721);
#593=AXIS2_PLACEMENT_3D('',#877,#724,#725);
#594=AXIS2_PLACEMENT_3D('',#879,#727,#728);
#595=DIRECTION('axis',(0.,0.,1.));
#596=DIRECTION('refdir',(1.,0.,0.));
#597=DIRECTION('center_axis',(-1.,0.,0.));
#598=DIRECTION('ref_axis',(0.,-1.,0.));
#599=DIRECTION('',(0.,1.,0.));
#600=DIRECTION('',(0.,0.,1.));
#601=DIRECTION('',(0.,-1.,0.));
#602=DIRECTION('',(0.,0.,1.));
#603=DIRECTION('center_axis',(0.,0.,1.));
#604=DIRECTION('ref_axis',(1.,0.,0.));
#605=DIRECTION('',(1.,0.,0.));
#606=DIRECTION('',(0.,1.,0.));
#607=DIRECTION('',(-1.,0.,0.));
#608=DIRECTION('center_axis',(-1.,0.,0.));
#609=DIRECTION('ref_axis',(0.,-1.,0.));
#610=DIRECTION('',(0.,1.,0.));
#611=DIRECTION('',(0.,0.,1.));
#612=DIRECTION('',(0.,-1.,0.));
#613=DIRECTION('',(0.,0.,1.));
#614=DIRECTION('center_axis',(0.,0.,1.));
#615=DIRECTION('ref_axis',(1.,0.,0.));
#616=DIRECTION('',(1.,0.,0.));
#617=DIRECTION('',(-1.,0.,0.));
#618=DIRECTION('center_axis',(0.,0.,1.));
#619=DIRECTION('ref_axis',(1.,0.,0.));
#620=DIRECTION('',(-1.,0.,0.));
#621=DIRECTION('',(0.,-1.,0.));
#622=DIRECTION('',(1.,0.,0.));
#623=DIRECTION('',(0.,1.,0.));
#624=DIRECTION('',(1.,0.,0.));
#625=DIRECTION('',(-1.85037170770859E-16,-1.,0.));
#626=DIRECTION('',(-1.,0.,0.));
#627=DIRECTION('',(0.,-1.,0.));
#628=DIRECTION('',(-1.,0.,0.));
#629=DIRECTION('',(0.,1.,0.));
#630=DIRECTION('',(1.,0.,0.));
#631=DIRECTION('',(1.,0.,0.));
#632=DIRECTION('',(0.,-1.,0.));
#633=DIRECTION('',(-1.,0.,0.));
#634=DIRECTION('',(0.,1.,0.));
#635=DIRECTION('',(1.,0.,0.));
#636=DIRECTION('',(0.,-1.,0.));
#637=DIRECTION('',(-1.,0.,0.));
#638=DIRECTION('',(0.,1.,0.));
#639=DIRECTION('center_axis',(-1.,0.,0.));
#640=DIRECTION('ref_axis',(0.,-1.,0.));
#641=DIRECTION('',(0.,0.,1.));
#642=DIRECTION('',(0.,-1.,0.));
#643=DIRECTION('',(0.,0.,1.));
#644=DIRECTION('center_axis',(0.,1.,0.));
#645=DIRECTION('ref_axis',(-1.,0.,0.));
#646=DIRECTION('',(-1.,0.,0.));
#647=DIRECTION('',(0.,0.,1.));
#648=DIRECTION('center_axis',(1.,-1.85037170770859E-16,0.));
#649=DIRECTION('ref_axis',(1.85037170770859E-16,1.,0.));
#650=DIRECTION('',(1.85037170770859E-16,1.,0.));
#651=DIRECTION('',(0.,0.,1.));
#652=DIRECTION('center_axis',(0.,-1.,0.));
#653=DIRECTION('ref_axis',(1.,0.,0.));
#654=DIRECTION('',(1.,0.,0.));
#655=DIRECTION('center_axis',(0.,0.,1.));
#656=DIRECTION('ref_axis',(1.,0.,0.));
#657=DIRECTION('center_axis',(1.,0.,0.));
#658=DIRECTION('ref_axis',(0.,-1.,0.));
#659=DIRECTION('',(0.,0.,-1.));
#660=DIRECTION('',(0.,-1.,0.));
#661=DIRECTION('',(0.,0.,-1.));
#662=DIRECTION('center_axis',(0.,1.,0.));
#663=DIRECTION('ref_axis',(1.,0.,0.));
#664=DIRECTION('',(0.,0.,-1.));
#665=DIRECTION('',(1.,0.,0.));
#666=DIRECTION('center_axis',(-1.,0.,0.));
#667=DIRECTION('ref_axis',(0.,1.,0.));
#668=DIRECTION('',(0.,0.,-1.));
#669=DIRECTION('',(0.,1.,0.));
#670=DIRECTION('center_axis',(0.,-1.,0.));
#671=DIRECTION('ref_axis',(-1.,0.,0.));
#672=DIRECTION('',(-1.,0.,0.));
#673=DIRECTION('center_axis',(0.,0.,-1.));
#674=DIRECTION('ref_axis',(-1.,0.,0.));
#675=DIRECTION('center_axis',(0.,1.,0.));
#676=DIRECTION('ref_axis',(1.,0.,0.));
#677=DIRECTION('',(0.,0.,-1.));
#678=DIRECTION('',(1.,0.,0.));
#679=DIRECTION('',(0.,0.,-1.));
#680=DIRECTION('center_axis',(-1.,0.,0.));
#681=DIRECTION('ref_axis',(0.,1.,0.));
#682=DIRECTION('',(0.,0.,-1.));
#683=DIRECTION('',(0.,1.,0.));
#684=DIRECTION('center_axis',(0.,-1.,0.));
#685=DIRECTION('ref_axis',(-1.,0.,0.));
#686=DIRECTION('',(0.,0.,-1.));
#687=DIRECTION('',(-1.,0.,0.));
#688=DIRECTION('center_axis',(1.,0.,0.));
#689=DIRECTION('ref_axis',(0.,-1.,0.));
#690=DIRECTION('',(0.,-1.,0.));
#691=DIRECTION('center_axis',(0.,0.,-1.));
#692=DIRECTION('ref_axis',(-1.,0.,0.));
#693=DIRECTION('center_axis',(0.,1.,0.));
#694=DIRECTION('ref_axis',(1.,0.,0.));
#695=DIRECTION('',(0.,0.,-1.));
#696=DIRECTION('',(1.,0.,0.));
#697=DIRECTION('',(0.,0.,-1.));
#698=DIRECTION('center_axis',(-1.,0.,0.));
#699=DIRECTION('ref_axis',(0.,1.,0.));
#700=DIRECTION('',(0.,0.,-1.));
#701=DIRECTION('',(0.,1.,0.));
#702=DIRECTION('center_axis',(0.,-1.,0.));
#703=DIRECTION('ref_axis',(-1.,0.,0.));
#704=DIRECTION('',(0.,0.,-1.));
#705=DIRECTION('',(-1.,0.,0.));
#706=DIRECTION('center_axis',(1.,0.,0.));
#707=DIRECTION('ref_axis',(0.,-1.,0.));
#708=DIRECTION('',(0.,-1.,0.));
#709=DIRECTION('center_axis',(0.,0.,-1.));
#710=DIRECTION('ref_axis',(-1.,0.,0.));
#711=DIRECTION('center_axis',(-1.,0.,0.));
#712=DIRECTION('ref_axis',(0.,-1.,0.));
#713=DIRECTION('',(0.,1.,0.));
#714=DIRECTION('',(0.,0.,1.));
#715=DIRECTION('',(0.,0.,1.));
#716=DIRECTION('center_axis',(0.,1.,0.));
#717=DIRECTION('ref_axis',(-1.,0.,0.));
#718=DIRECTION('',(1.,0.,0.));
#719=DIRECTION('',(0.,0.,1.));
#720=DIRECTION('center_axis',(1.,0.,0.));
#721=DIRECTION('ref_axis',(0.,1.,0.));
#722=DIRECTION('',(0.,-1.,0.));
#723=DIRECTION('',(0.,0.,1.));
#724=DIRECTION('center_axis',(0.,-1.,0.));
#725=DIRECTION('ref_axis',(1.,0.,0.));
#726=DIRECTION('',(-1.,0.,0.));
#727=DIRECTION('center_axis',(0.,0.,1.));
#728=DIRECTION('ref_axis',(1.,0.,0.));
#729=CARTESIAN_POINT('',(0.,0.,0.));
#730=CARTESIAN_POINT('Origin',(4.4,4.45,2.));
#731=CARTESIAN_POINT('',(4.4,-4.45,2.1));
#732=CARTESIAN_POINT('',(4.4,4.45,2.1));
#733=CARTESIAN_POINT('',(4.4,4.45,2.1));
#734=CARTESIAN_POINT('',(4.4,-4.45,3.));
#735=CARTESIAN_POINT('',(4.4,-4.45,2.));
#736=CARTESIAN_POINT('',(4.4,4.45,3.));
#737=CARTESIAN_POINT('',(4.4,4.45,3.));
#738=CARTESIAN_POINT('',(4.4,4.45,2.));
#739=CARTESIAN_POINT('Origin',(6.65,0.,3.));
#740=CARTESIAN_POINT('',(8.9,-4.45,3.));
#741=CARTESIAN_POINT('',(-8.9,-4.45,3.));
#742=CARTESIAN_POINT('',(8.9,4.45,3.));
#743=CARTESIAN_POINT('',(8.9,-4.45,3.));
#744=CARTESIAN_POINT('',(8.9,4.45,3.));
#745=CARTESIAN_POINT('Origin',(0.500000000000002,4.45,2.));
#746=CARTESIAN_POINT('',(0.500000000000002,-4.45,2.));
#747=CARTESIAN_POINT('',(0.500000000000002,4.45,2.));
#748=CARTESIAN_POINT('',(0.500000000000002,2.225,2.));
#749=CARTESIAN_POINT('',(0.500000000000002,-4.45,2.1));
#750=CARTESIAN_POINT('',(0.500000000000002,-4.45,2.));
#751=CARTESIAN_POINT('',(0.500000000000002,4.45,2.1));
#752=CARTESIAN_POINT('',(0.500000000000002,4.45,2.1));
#753=CARTESIAN_POINT('',(0.500000000000002,4.45,2.));
#754=CARTESIAN_POINT('Origin',(2.45,0.,2.1));
#755=CARTESIAN_POINT('',(-8.9,-4.45,2.1));
#756=CARTESIAN_POINT('',(8.9,4.45,2.1));
#757=CARTESIAN_POINT('Origin',(0.,0.,2.));
#758=CARTESIAN_POINT('',(-8.9,4.45,2.));
#759=CARTESIAN_POINT('',(-8.9,4.45,2.));
#760=CARTESIAN_POINT('',(-8.9,-4.45,2.));
#761=CARTESIAN_POINT('',(-8.9,-4.45,2.));
#762=CARTESIAN_POINT('',(8.9,-4.45,2.));
#763=CARTESIAN_POINT('',(-5.1,-3.85,2.));
#764=CARTESIAN_POINT('',(-5.1,-0.850000000000001,2.));
#765=CARTESIAN_POINT('',(-5.1,-0.425,2.));
#766=CARTESIAN_POINT('',(-2.1,-0.850000000000001,2.));
#767=CARTESIAN_POINT('',(-1.05,-0.850000000000001,2.));
#768=CARTESIAN_POINT('',(-2.1,-3.85,2.));
#769=CARTESIAN_POINT('',(-2.1,-1.925,2.));
#770=CARTESIAN_POINT('',(-2.55,-3.85,2.));
#771=CARTESIAN_POINT('',(-6.3,4.35,2.));
#772=CARTESIAN_POINT('',(-6.3,2.35,2.));
#773=CARTESIAN_POINT('',(-6.3,2.175,2.));
#774=CARTESIAN_POINT('',(-7.9,2.35,2.));
#775=CARTESIAN_POINT('',(-3.15,2.35,2.));
#776=CARTESIAN_POINT('',(-7.9,4.35,2.));
#777=CARTESIAN_POINT('',(-7.9,1.175,2.));
#778=CARTESIAN_POINT('',(-3.95,4.35,2.));
#779=CARTESIAN_POINT('',(-6.1,4.35,2.));
#780=CARTESIAN_POINT('',(-4.5,4.35,2.));
#781=CARTESIAN_POINT('',(-3.05,4.35,2.));
#782=CARTESIAN_POINT('',(-4.5,2.35,2.));
#783=CARTESIAN_POINT('',(-4.5,2.175,2.));
#784=CARTESIAN_POINT('',(-6.1,2.35,2.));
#785=CARTESIAN_POINT('',(-2.25,2.35,2.));
#786=CARTESIAN_POINT('',(-6.1,1.175,2.));
#787=CARTESIAN_POINT('',(-4.3,4.35,2.));
#788=CARTESIAN_POINT('',(-2.7,4.35,2.));
#789=CARTESIAN_POINT('',(-2.15,4.35,2.));
#790=CARTESIAN_POINT('',(-2.7,2.35,2.));
#791=CARTESIAN_POINT('',(-2.7,2.175,2.));
#792=CARTESIAN_POINT('',(-4.3,2.35,2.));
#793=CARTESIAN_POINT('',(-1.35,2.35,2.));
#794=CARTESIAN_POINT('',(-4.3,1.175,2.));
#795=CARTESIAN_POINT('Origin',(-5.1,-0.850000000000001,2.));
#796=CARTESIAN_POINT('',(-5.1,-3.85,2.1));
#797=CARTESIAN_POINT('',(-5.1,-3.85,2.));
#798=CARTESIAN_POINT('',(-5.1,-0.850000000000001,2.1));
#799=CARTESIAN_POINT('',(-5.1,-3.85,2.1));
#800=CARTESIAN_POINT('',(-5.1,-0.850000000000001,2.));
#801=CARTESIAN_POINT('Origin',(-2.1,-0.850000000000001,2.));
#802=CARTESIAN_POINT('',(-2.1,-0.850000000000001,2.1));
#803=CARTESIAN_POINT('',(-5.1,-0.850000000000001,2.1));
#804=CARTESIAN_POINT('',(-2.1,-0.850000000000001,2.));
#805=CARTESIAN_POINT('Origin',(-2.1,-3.85,2.));
#806=CARTESIAN_POINT('',(-2.1,-3.85,2.1));
#807=CARTESIAN_POINT('',(-2.1,-0.850000000000001,2.1));
#808=CARTESIAN_POINT('',(-2.1,-3.85,2.));
#809=CARTESIAN_POINT('Origin',(-5.1,-3.85,2.));
#810=CARTESIAN_POINT('',(-2.1,-3.85,2.1));
#811=CARTESIAN_POINT('Origin',(-3.6,-2.35,2.1));
#812=CARTESIAN_POINT('Origin',(-6.3,4.35,2.));
#813=CARTESIAN_POINT('',(-6.3,4.35,1.9));
#814=CARTESIAN_POINT('',(-6.3,4.35,2.));
#815=CARTESIAN_POINT('',(-6.3,2.35,1.9));
#816=CARTESIAN_POINT('',(-6.3,4.35,1.9));
#817=CARTESIAN_POINT('',(-6.3,2.35,2.));
#818=CARTESIAN_POINT('Origin',(-7.9,4.35,2.));
#819=CARTESIAN_POINT('',(-7.9,4.35,1.9));
#820=CARTESIAN_POINT('',(-7.9,4.35,2.));
#821=CARTESIAN_POINT('',(-7.9,4.35,1.9));
#822=CARTESIAN_POINT('Origin',(-7.9,2.35,2.));
#823=CARTESIAN_POINT('',(-7.9,2.35,1.9));
#824=CARTESIAN_POINT('',(-7.9,2.35,2.));
#825=CARTESIAN_POINT('',(-7.9,2.35,1.9));
#826=CARTESIAN_POINT('Origin',(-6.3,2.35,2.));
#827=CARTESIAN_POINT('',(-6.3,2.35,1.9));
#828=CARTESIAN_POINT('Origin',(-7.1,3.35,1.9));
#829=CARTESIAN_POINT('Origin',(-6.1,4.35,2.));
#830=CARTESIAN_POINT('',(-6.1,4.35,1.9));
#831=CARTESIAN_POINT('',(-6.1,4.35,2.));
#832=CARTESIAN_POINT('',(-4.5,4.35,1.9));
#833=CARTESIAN_POINT('',(-6.1,4.35,1.9));
#834=CARTESIAN_POINT('',(-4.5,4.35,2.));
#835=CARTESIAN_POINT('Origin',(-6.1,2.35,2.));
#836=CARTESIAN_POINT('',(-6.1,2.35,1.9));
#837=CARTESIAN_POINT('',(-6.1,2.35,2.));
#838=CARTESIAN_POINT('',(-6.1,2.35,1.9));
#839=CARTESIAN_POINT('Origin',(-4.5,2.35,2.));
#840=CARTESIAN_POINT('',(-4.5,2.35,1.9));
#841=CARTESIAN_POINT('',(-4.5,2.35,2.));
#842=CARTESIAN_POINT('',(-4.5,2.35,1.9));
#843=CARTESIAN_POINT('Origin',(-4.5,4.35,2.));
#844=CARTESIAN_POINT('',(-4.5,4.35,1.9));
#845=CARTESIAN_POINT('Origin',(-5.3,3.35,1.9));
#846=CARTESIAN_POINT('Origin',(-4.3,4.35,2.));
#847=CARTESIAN_POINT('',(-4.3,4.35,1.9));
#848=CARTESIAN_POINT('',(-4.3,4.35,2.));
#849=CARTESIAN_POINT('',(-2.7,4.35,1.9));
#850=CARTESIAN_POINT('',(-4.3,4.35,1.9));
#851=CARTESIAN_POINT('',(-2.7,4.35,2.));
#852=CARTESIAN_POINT('Origin',(-4.3,2.35,2.));
#853=CARTESIAN_POINT('',(-4.3,2.35,1.9));
#854=CARTESIAN_POINT('',(-4.3,2.35,2.));
#855=CARTESIAN_POINT('',(-4.3,2.35,1.9));
#856=CARTESIAN_POINT('Origin',(-2.7,2.35,2.));
#857=CARTESIAN_POINT('',(-2.7,2.35,1.9));
#858=CARTESIAN_POINT('',(-2.7,2.35,2.));
#859=CARTESIAN_POINT('',(-2.7,2.35,1.9));
#860=CARTESIAN_POINT('Origin',(-2.7,4.35,2.));
#861=CARTESIAN_POINT('',(-2.7,4.35,1.9));
#862=CARTESIAN_POINT('Origin',(-3.5,3.35,1.9));
#863=CARTESIAN_POINT('Origin',(-8.9,4.45,0.));
#864=CARTESIAN_POINT('',(-8.9,-4.45,0.));
#865=CARTESIAN_POINT('',(-8.9,4.45,0.));
#866=CARTESIAN_POINT('',(-8.9,-4.45,0.));
#867=CARTESIAN_POINT('',(-8.9,-4.45,0.));
#868=CARTESIAN_POINT('',(-8.9,4.45,0.));
#869=CARTESIAN_POINT('Origin',(8.9,4.45,0.));
#870=CARTESIAN_POINT('',(8.9,4.45,0.));
#871=CARTESIAN_POINT('',(-8.9,4.45,0.));
#872=CARTESIAN_POINT('',(8.9,4.45,0.));
#873=CARTESIAN_POINT('Origin',(8.9,-4.45,0.));
#874=CARTESIAN_POINT('',(8.9,-4.45,0.));
#875=CARTESIAN_POINT('',(8.9,4.45,0.));
#876=CARTESIAN_POINT('',(8.9,-4.45,0.));
#877=CARTESIAN_POINT('Origin',(-8.9,-4.45,0.));
#878=CARTESIAN_POINT('',(8.9,-4.45,0.));
#879=CARTESIAN_POINT('Origin',(0.,0.,0.));
#880=UNCERTAINTY_MEASURE_WITH_UNIT(LENGTH_MEASURE(0.01),#884,
'DISTANCE_ACCURACY_VALUE',
'Maximum model space distance between geometric entities at asserted c
onnectivities');
#881=UNCERTAINTY_MEASURE_WITH_UNIT(LENGTH_MEASURE(0.01),#884,
'DISTANCE_ACCURACY_VALUE',
'Maximum model space distance between geometric entities at asserted c
onnectivities');
#882=(
GEOMETRIC_REPRESENTATION_CONTEXT(3)
GLOBAL_UNCERTAINTY_ASSIGNED_CONTEXT((#880))
GLOBAL_UNIT_ASSIGNED_CONTEXT((#884,#886,#887))
REPRESENTATION_CONTEXT('','3D')
);
#883=(
GEOMETRIC_REPRESENTATION_CONTEXT(3)
GLOBAL_UNCERTAINTY_ASSIGNED_CONTEXT((#881))
GLOBAL_UNIT_ASSIGNED_CONTEXT((#884,#886,#887))
REPRESENTATION_CONTEXT('','3D')
);
#884=(
LENGTH_UNIT()
NAMED_UNIT(*)
SI_UNIT(.MILLI.,.METRE.)
);
#885=(
LENGTH_UNIT()
NAMED_UNIT(*)
SI_UNIT($,.METRE.)
);
#886=(
NAMED_UNIT(*)
PLANE_ANGLE_UNIT()
SI_UNIT($,.RADIAN.)
);
#887=(
NAMED_UNIT(*)
SI_UNIT($,.STERADIAN.)
SOLID_ANGLE_UNIT()
);
#888=SHAPE_DEFINITION_REPRESENTATION(#889,#890);
#889=PRODUCT_DEFINITION_SHAPE('',$,#892);
#890=SHAPE_REPRESENTATION('',(#564),#882);
#891=PRODUCT_DEFINITION_CONTEXT('part definition',#896,'design');
#892=PRODUCT_DEFINITION('2026-04-30-05-51-39-774','\X2\7535538B8868\X0\',
#893,#891);
#893=PRODUCT_DEFINITION_FORMATION('',$,#898);
#894=PRODUCT_RELATED_PRODUCT_CATEGORY('\X2\7535538B8868\X0\',
'\X2\7535538B8868\X0\',(#898));
#895=APPLICATION_PROTOCOL_DEFINITION('international standard',
'automotive_design',2009,#896);
#896=APPLICATION_CONTEXT(
'Core Data for Automotive Mechanical Design Process');
#897=PRODUCT_CONTEXT('part definition',#896,'mechanical');
#898=PRODUCT('2026-04-30-05-51-39-774','\X2\7535538B8868\X0\',$,(#897));
#899=PRESENTATION_STYLE_ASSIGNMENT((#900));
#900=SURFACE_STYLE_USAGE(.BOTH.,#901);
#901=SURFACE_SIDE_STYLE('',(#902));
#902=SURFACE_STYLE_FILL_AREA(#903);
#903=FILL_AREA_STYLE('\X2\94A2\X0\ - \X2\7F0E5149\X0\',(#904));
#904=FILL_AREA_STYLE_COLOUR('\X2\94A2\X0\ - \X2\7F0E5149\X0\',#905);
#905=COLOUR_RGB('\X2\94A2\X0\ - \X2\7F0E5149\X0\',0.627450980392157,0.627450980392157,
0.627450980392157);
ENDSEC;
END-ISO-10303-21;
