ISO-10303-21;
HEADER;
/* Generated by software containing ST-Developer
 * from STEP Tools, Inc. (www.steptools.com) 
 */

FILE_DESCRIPTION(
/* description */ (''),
/* implementation_level */ '2;1');

FILE_NAME(
/* name */ '',
/* time_stamp */ '2026-08-11T12:15:44+09:00',
/* author */ (''),
/* organization */ (''),
/* preprocessor_version */ 'ST-DEVELOPER v20.1',
/* originating_system */ 'Autodesk Translation Framework v15.8.0.0',
/* authorisation */ '');

FILE_SCHEMA (('AUTOMOTIVE_DESIGN { 1 0 10303 214 3 1 1 }'));
ENDSEC;

DATA;
#10=MECHANICAL_DESIGN_GEOMETRIC_PRESENTATION_REPRESENTATION('',(#13),#721);
#11=SHAPE_REPRESENTATION_RELATIONSHIP('SRR','None',#728,#12);
#12=ADVANCED_BREP_SHAPE_REPRESENTATION('',(#14),#720);
#13=STYLED_ITEM('',(#737),#14);
#14=MANIFOLD_SOLID_BREP('\X2\5B9E4F53\X0\1',#429);
#15=FACE_BOUND('',#72,.T.);
#16=FACE_BOUND('',#75,.T.);
#17=FACE_BOUND('',#78,.T.);
#18=FACE_BOUND('',#80,.T.);
#19=FACE_BOUND('',#83,.T.);
#20=FACE_BOUND('',#97,.T.);
#21=FACE_BOUND('',#99,.T.);
#22=FACE_BOUND('',#102,.T.);
#23=PLANE('',#449);
#24=PLANE('',#453);
#25=PLANE('',#457);
#26=PLANE('',#459);
#27=PLANE('',#462);
#28=PLANE('',#463);
#29=PLANE('',#464);
#30=PLANE('',#465);
#31=PLANE('',#466);
#32=PLANE('',#467);
#33=PLANE('',#468);
#34=PLANE('',#469);
#35=PLANE('',#470);
#36=PLANE('',#471);
#37=PLANE('',#472);
#38=PLANE('',#473);
#39=PLANE('',#474);
#40=PLANE('',#475);
#41=PLANE('',#476);
#42=PLANE('',#480);
#43=FACE_OUTER_BOUND('',#69,.T.);
#44=FACE_OUTER_BOUND('',#70,.T.);
#45=FACE_OUTER_BOUND('',#71,.T.);
#46=FACE_OUTER_BOUND('',#73,.T.);
#47=FACE_OUTER_BOUND('',#74,.T.);
#48=FACE_OUTER_BOUND('',#76,.T.);
#49=FACE_OUTER_BOUND('',#77,.T.);
#50=FACE_OUTER_BOUND('',#79,.T.);
#51=FACE_OUTER_BOUND('',#81,.T.);
#52=FACE_OUTER_BOUND('',#82,.T.);
#53=FACE_OUTER_BOUND('',#84,.T.);
#54=FACE_OUTER_BOUND('',#85,.T.);
#55=FACE_OUTER_BOUND('',#86,.T.);
#56=FACE_OUTER_BOUND('',#87,.T.);
#57=FACE_OUTER_BOUND('',#88,.T.);
#58=FACE_OUTER_BOUND('',#89,.T.);
#59=FACE_OUTER_BOUND('',#90,.T.);
#60=FACE_OUTER_BOUND('',#91,.T.);
#61=FACE_OUTER_BOUND('',#92,.T.);
#62=FACE_OUTER_BOUND('',#93,.T.);
#63=FACE_OUTER_BOUND('',#94,.T.);
#64=FACE_OUTER_BOUND('',#95,.T.);
#65=FACE_OUTER_BOUND('',#96,.T.);
#66=FACE_OUTER_BOUND('',#98,.T.);
#67=FACE_OUTER_BOUND('',#100,.T.);
#68=FACE_OUTER_BOUND('',#101,.T.);
#69=EDGE_LOOP('',(#289,#290,#291,#292));
#70=EDGE_LOOP('',(#293,#294,#295,#296));
#71=EDGE_LOOP('',(#297));
#72=EDGE_LOOP('',(#298));
#73=EDGE_LOOP('',(#299,#300,#301,#302));
#74=EDGE_LOOP('',(#303));
#75=EDGE_LOOP('',(#304));
#76=EDGE_LOOP('',(#305,#306,#307,#308));
#77=EDGE_LOOP('',(#309));
#78=EDGE_LOOP('',(#310));
#79=EDGE_LOOP('',(#311));
#80=EDGE_LOOP('',(#312));
#81=EDGE_LOOP('',(#313,#314,#315,#316));
#82=EDGE_LOOP('',(#317,#318,#319,#320,#321,#322));
#83=EDGE_LOOP('',(#323));
#84=EDGE_LOOP('',(#324,#325,#326,#327));
#85=EDGE_LOOP('',(#328,#329,#330,#331));
#86=EDGE_LOOP('',(#332,#333,#334,#335));
#87=EDGE_LOOP('',(#336,#337,#338,#339));
#88=EDGE_LOOP('',(#340,#341,#342,#343));
#89=EDGE_LOOP('',(#344,#345,#346,#347));
#90=EDGE_LOOP('',(#348,#349,#350,#351));
#91=EDGE_LOOP('',(#352,#353,#354,#355));
#92=EDGE_LOOP('',(#356,#357,#358,#359));
#93=EDGE_LOOP('',(#360,#361,#362,#363));
#94=EDGE_LOOP('',(#364,#365,#366,#367));
#95=EDGE_LOOP('',(#368,#369,#370,#371));
#96=EDGE_LOOP('',(#372,#373,#374,#375,#376,#377));
#97=EDGE_LOOP('',(#378,#379,#380,#381,#382,#383));
#98=EDGE_LOOP('',(#384));
#99=EDGE_LOOP('',(#385,#386,#387,#388,#389,#390));
#100=EDGE_LOOP('',(#391,#392,#393,#394));
#101=EDGE_LOOP('',(#395));
#102=EDGE_LOOP('',(#396));
#103=LINE('',#606,#145);
#104=LINE('',#612,#146);
#105=LINE('',#620,#147);
#106=LINE('',#626,#148);
#107=LINE('',#635,#149);
#108=LINE('',#639,#150);
#109=LINE('',#641,#151);
#110=LINE('',#643,#152);
#111=LINE('',#645,#153);
#112=LINE('',#647,#154);
#113=LINE('',#648,#155);
#114=LINE('',#651,#156);
#115=LINE('',#653,#157);
#116=LINE('',#654,#158);
#117=LINE('',#657,#159);
#118=LINE('',#658,#160);
#119=LINE('',#661,#161);
#120=LINE('',#662,#162);
#121=LINE('',#666,#163);
#122=LINE('',#668,#164);
#123=LINE('',#670,#165);
#124=LINE('',#671,#166);
#125=LINE('',#674,#167);
#126=LINE('',#676,#168);
#127=LINE('',#677,#169);
#128=LINE('',#680,#170);
#129=LINE('',#682,#171);
#130=LINE('',#683,#172);
#131=LINE('',#686,#173);
#132=LINE('',#687,#174);
#133=LINE('',#690,#175);
#134=LINE('',#691,#176);
#135=LINE('',#693,#177);
#136=LINE('',#696,#178);
#137=LINE('',#698,#179);
#138=LINE('',#699,#180);
#139=LINE('',#702,#181);
#140=LINE('',#704,#182);
#141=LINE('',#705,#183);
#142=LINE('',#707,#184);
#143=LINE('',#708,#185);
#144=LINE('',#715,#186);
#145=VECTOR('',#487,21.);
#146=VECTOR('',#494,21.);
#147=VECTOR('',#505,29.4);
#148=VECTOR('',#512,5.);
#149=VECTOR('',#525,2.);
#150=VECTOR('',#528,10.);
#151=VECTOR('',#529,10.);
#152=VECTOR('',#530,10.);
#153=VECTOR('',#531,10.);
#154=VECTOR('',#532,10.);
#155=VECTOR('',#533,10.);
#156=VECTOR('',#536,10.);
#157=VECTOR('',#537,10.);
#158=VECTOR('',#538,10.);
#159=VECTOR('',#541,10.);
#160=VECTOR('',#542,10.);
#161=VECTOR('',#545,10.);
#162=VECTOR('',#546,10.);
#163=VECTOR('',#549,10.);
#164=VECTOR('',#550,10.);
#165=VECTOR('',#551,10.);
#166=VECTOR('',#552,10.);
#167=VECTOR('',#555,10.);
#168=VECTOR('',#556,10.);
#169=VECTOR('',#557,10.);
#170=VECTOR('',#560,10.);
#171=VECTOR('',#561,10.);
#172=VECTOR('',#562,10.);
#173=VECTOR('',#565,10.);
#174=VECTOR('',#566,10.);
#175=VECTOR('',#569,10.);
#176=VECTOR('',#570,10.);
#177=VECTOR('',#573,10.);
#178=VECTOR('',#576,10.);
#179=VECTOR('',#577,10.);
#180=VECTOR('',#578,10.);
#181=VECTOR('',#581,10.);
#182=VECTOR('',#582,10.);
#183=VECTOR('',#583,10.);
#184=VECTOR('',#586,10.);
#185=VECTOR('',#587,10.);
#186=VECTOR('',#596,21.);
#187=CIRCLE('',#444,21.);
#188=CIRCLE('',#445,21.);
#189=CIRCLE('',#447,21.);
#190=CIRCLE('',#448,21.);
#191=CIRCLE('',#450,29.4);
#192=CIRCLE('',#452,29.4);
#193=CIRCLE('',#455,5.);
#194=CIRCLE('',#456,5.);
#195=CIRCLE('',#458,2.);
#196=CIRCLE('',#461,2.);
#197=CIRCLE('',#477,18.5);
#198=CIRCLE('',#479,18.5);
#199=VERTEX_POINT('',#603);
#200=VERTEX_POINT('',#605);
#201=VERTEX_POINT('',#609);
#202=VERTEX_POINT('',#611);
#203=VERTEX_POINT('',#615);
#204=VERTEX_POINT('',#618);
#205=VERTEX_POINT('',#623);
#206=VERTEX_POINT('',#625);
#207=VERTEX_POINT('',#629);
#208=VERTEX_POINT('',#633);
#209=VERTEX_POINT('',#637);
#210=VERTEX_POINT('',#638);
#211=VERTEX_POINT('',#640);
#212=VERTEX_POINT('',#642);
#213=VERTEX_POINT('',#644);
#214=VERTEX_POINT('',#646);
#215=VERTEX_POINT('',#650);
#216=VERTEX_POINT('',#652);
#217=VERTEX_POINT('',#656);
#218=VERTEX_POINT('',#660);
#219=VERTEX_POINT('',#664);
#220=VERTEX_POINT('',#665);
#221=VERTEX_POINT('',#667);
#222=VERTEX_POINT('',#669);
#223=VERTEX_POINT('',#673);
#224=VERTEX_POINT('',#675);
#225=VERTEX_POINT('',#679);
#226=VERTEX_POINT('',#681);
#227=VERTEX_POINT('',#685);
#228=VERTEX_POINT('',#689);
#229=VERTEX_POINT('',#695);
#230=VERTEX_POINT('',#697);
#231=VERTEX_POINT('',#701);
#232=VERTEX_POINT('',#703);
#233=VERTEX_POINT('',#711);
#234=VERTEX_POINT('',#714);
#235=EDGE_CURVE('',#199,#199,#187,.T.);
#236=EDGE_CURVE('',#199,#200,#103,.T.);
#237=EDGE_CURVE('',#200,#200,#188,.T.);
#238=EDGE_CURVE('',#201,#201,#189,.T.);
#239=EDGE_CURVE('',#201,#202,#104,.T.);
#240=EDGE_CURVE('',#202,#202,#190,.T.);
#241=EDGE_CURVE('',#203,#203,#191,.T.);
#242=EDGE_CURVE('',#204,#204,#192,.T.);
#243=EDGE_CURVE('',#204,#203,#105,.T.);
#244=EDGE_CURVE('',#205,#205,#193,.T.);
#245=EDGE_CURVE('',#205,#206,#106,.T.);
#246=EDGE_CURVE('',#206,#206,#194,.T.);
#247=EDGE_CURVE('',#207,#207,#195,.T.);
#248=EDGE_CURVE('',#208,#208,#196,.T.);
#249=EDGE_CURVE('',#208,#207,#107,.T.);
#250=EDGE_CURVE('',#209,#210,#108,.T.);
#251=EDGE_CURVE('',#211,#209,#109,.T.);
#252=EDGE_CURVE('',#212,#211,#110,.T.);
#253=EDGE_CURVE('',#213,#212,#111,.T.);
#254=EDGE_CURVE('',#214,#213,#112,.T.);
#255=EDGE_CURVE('',#210,#214,#113,.T.);
#256=EDGE_CURVE('',#212,#215,#114,.T.);
#257=EDGE_CURVE('',#216,#215,#115,.T.);
#258=EDGE_CURVE('',#213,#216,#116,.T.);
#259=EDGE_CURVE('',#211,#217,#117,.T.);
#260=EDGE_CURVE('',#215,#217,#118,.T.);
#261=EDGE_CURVE('',#209,#218,#119,.T.);
#262=EDGE_CURVE('',#217,#218,#120,.T.);
#263=EDGE_CURVE('',#219,#220,#121,.T.);
#264=EDGE_CURVE('',#219,#221,#122,.T.);
#265=EDGE_CURVE('',#222,#221,#123,.T.);
#266=EDGE_CURVE('',#220,#222,#124,.T.);
#267=EDGE_CURVE('',#223,#219,#125,.T.);
#268=EDGE_CURVE('',#223,#224,#126,.T.);
#269=EDGE_CURVE('',#221,#224,#127,.T.);
#270=EDGE_CURVE('',#225,#223,#128,.T.);
#271=EDGE_CURVE('',#225,#226,#129,.T.);
#272=EDGE_CURVE('',#224,#226,#130,.T.);
#273=EDGE_CURVE('',#227,#216,#131,.T.);
#274=EDGE_CURVE('',#214,#227,#132,.T.);
#275=EDGE_CURVE('',#228,#227,#133,.T.);
#276=EDGE_CURVE('',#210,#228,#134,.T.);
#277=EDGE_CURVE('',#218,#228,#135,.T.);
#278=EDGE_CURVE('',#220,#229,#136,.T.);
#279=EDGE_CURVE('',#230,#222,#137,.T.);
#280=EDGE_CURVE('',#229,#230,#138,.T.);
#281=EDGE_CURVE('',#229,#231,#139,.T.);
#282=EDGE_CURVE('',#232,#230,#140,.T.);
#283=EDGE_CURVE('',#231,#232,#141,.T.);
#284=EDGE_CURVE('',#231,#225,#142,.T.);
#285=EDGE_CURVE('',#226,#232,#143,.T.);
#286=EDGE_CURVE('',#233,#233,#197,.F.);
#287=EDGE_CURVE('',#233,#234,#144,.T.);
#288=EDGE_CURVE('',#234,#234,#198,.T.);
#289=ORIENTED_EDGE('',*,*,#235,.F.);
#290=ORIENTED_EDGE('',*,*,#236,.T.);
#291=ORIENTED_EDGE('',*,*,#237,.F.);
#292=ORIENTED_EDGE('',*,*,#236,.F.);
#293=ORIENTED_EDGE('',*,*,#238,.T.);
#294=ORIENTED_EDGE('',*,*,#239,.T.);
#295=ORIENTED_EDGE('',*,*,#240,.F.);
#296=ORIENTED_EDGE('',*,*,#239,.F.);
#297=ORIENTED_EDGE('',*,*,#241,.T.);
#298=ORIENTED_EDGE('',*,*,#240,.T.);
#299=ORIENTED_EDGE('',*,*,#242,.F.);
#300=ORIENTED_EDGE('',*,*,#243,.T.);
#301=ORIENTED_EDGE('',*,*,#241,.F.);
#302=ORIENTED_EDGE('',*,*,#243,.F.);
#303=ORIENTED_EDGE('',*,*,#242,.T.);
#304=ORIENTED_EDGE('',*,*,#235,.T.);
#305=ORIENTED_EDGE('',*,*,#244,.F.);
#306=ORIENTED_EDGE('',*,*,#245,.T.);
#307=ORIENTED_EDGE('',*,*,#246,.T.);
#308=ORIENTED_EDGE('',*,*,#245,.F.);
#309=ORIENTED_EDGE('',*,*,#246,.F.);
#310=ORIENTED_EDGE('',*,*,#247,.T.);
#311=ORIENTED_EDGE('',*,*,#238,.F.);
#312=ORIENTED_EDGE('',*,*,#244,.T.);
#313=ORIENTED_EDGE('',*,*,#248,.F.);
#314=ORIENTED_EDGE('',*,*,#249,.T.);
#315=ORIENTED_EDGE('',*,*,#247,.F.);
#316=ORIENTED_EDGE('',*,*,#249,.F.);
#317=ORIENTED_EDGE('',*,*,#250,.F.);
#318=ORIENTED_EDGE('',*,*,#251,.F.);
#319=ORIENTED_EDGE('',*,*,#252,.F.);
#320=ORIENTED_EDGE('',*,*,#253,.F.);
#321=ORIENTED_EDGE('',*,*,#254,.F.);
#322=ORIENTED_EDGE('',*,*,#255,.F.);
#323=ORIENTED_EDGE('',*,*,#248,.T.);
#324=ORIENTED_EDGE('',*,*,#253,.T.);
#325=ORIENTED_EDGE('',*,*,#256,.T.);
#326=ORIENTED_EDGE('',*,*,#257,.F.);
#327=ORIENTED_EDGE('',*,*,#258,.F.);
#328=ORIENTED_EDGE('',*,*,#252,.T.);
#329=ORIENTED_EDGE('',*,*,#259,.T.);
#330=ORIENTED_EDGE('',*,*,#260,.F.);
#331=ORIENTED_EDGE('',*,*,#256,.F.);
#332=ORIENTED_EDGE('',*,*,#251,.T.);
#333=ORIENTED_EDGE('',*,*,#261,.T.);
#334=ORIENTED_EDGE('',*,*,#262,.F.);
#335=ORIENTED_EDGE('',*,*,#259,.F.);
#336=ORIENTED_EDGE('',*,*,#263,.F.);
#337=ORIENTED_EDGE('',*,*,#264,.T.);
#338=ORIENTED_EDGE('',*,*,#265,.F.);
#339=ORIENTED_EDGE('',*,*,#266,.F.);
#340=ORIENTED_EDGE('',*,*,#267,.F.);
#341=ORIENTED_EDGE('',*,*,#268,.T.);
#342=ORIENTED_EDGE('',*,*,#269,.F.);
#343=ORIENTED_EDGE('',*,*,#264,.F.);
#344=ORIENTED_EDGE('',*,*,#270,.F.);
#345=ORIENTED_EDGE('',*,*,#271,.T.);
#346=ORIENTED_EDGE('',*,*,#272,.F.);
#347=ORIENTED_EDGE('',*,*,#268,.F.);
#348=ORIENTED_EDGE('',*,*,#254,.T.);
#349=ORIENTED_EDGE('',*,*,#258,.T.);
#350=ORIENTED_EDGE('',*,*,#273,.F.);
#351=ORIENTED_EDGE('',*,*,#274,.F.);
#352=ORIENTED_EDGE('',*,*,#255,.T.);
#353=ORIENTED_EDGE('',*,*,#274,.T.);
#354=ORIENTED_EDGE('',*,*,#275,.F.);
#355=ORIENTED_EDGE('',*,*,#276,.F.);
#356=ORIENTED_EDGE('',*,*,#250,.T.);
#357=ORIENTED_EDGE('',*,*,#276,.T.);
#358=ORIENTED_EDGE('',*,*,#277,.F.);
#359=ORIENTED_EDGE('',*,*,#261,.F.);
#360=ORIENTED_EDGE('',*,*,#278,.F.);
#361=ORIENTED_EDGE('',*,*,#266,.T.);
#362=ORIENTED_EDGE('',*,*,#279,.F.);
#363=ORIENTED_EDGE('',*,*,#280,.F.);
#364=ORIENTED_EDGE('',*,*,#281,.F.);
#365=ORIENTED_EDGE('',*,*,#280,.T.);
#366=ORIENTED_EDGE('',*,*,#282,.F.);
#367=ORIENTED_EDGE('',*,*,#283,.F.);
#368=ORIENTED_EDGE('',*,*,#284,.F.);
#369=ORIENTED_EDGE('',*,*,#283,.T.);
#370=ORIENTED_EDGE('',*,*,#285,.F.);
#371=ORIENTED_EDGE('',*,*,#271,.F.);
#372=ORIENTED_EDGE('',*,*,#285,.T.);
#373=ORIENTED_EDGE('',*,*,#282,.T.);
#374=ORIENTED_EDGE('',*,*,#279,.T.);
#375=ORIENTED_EDGE('',*,*,#265,.T.);
#376=ORIENTED_EDGE('',*,*,#269,.T.);
#377=ORIENTED_EDGE('',*,*,#272,.T.);
#378=ORIENTED_EDGE('',*,*,#277,.T.);
#379=ORIENTED_EDGE('',*,*,#275,.T.);
#380=ORIENTED_EDGE('',*,*,#273,.T.);
#381=ORIENTED_EDGE('',*,*,#257,.T.);
#382=ORIENTED_EDGE('',*,*,#260,.T.);
#383=ORIENTED_EDGE('',*,*,#262,.T.);
#384=ORIENTED_EDGE('',*,*,#286,.T.);
#385=ORIENTED_EDGE('',*,*,#270,.T.);
#386=ORIENTED_EDGE('',*,*,#267,.T.);
#387=ORIENTED_EDGE('',*,*,#263,.T.);
#388=ORIENTED_EDGE('',*,*,#278,.T.);
#389=ORIENTED_EDGE('',*,*,#281,.T.);
#390=ORIENTED_EDGE('',*,*,#284,.T.);
#391=ORIENTED_EDGE('',*,*,#286,.F.);
#392=ORIENTED_EDGE('',*,*,#287,.T.);
#393=ORIENTED_EDGE('',*,*,#288,.F.);
#394=ORIENTED_EDGE('',*,*,#287,.F.);
#395=ORIENTED_EDGE('',*,*,#237,.T.);
#396=ORIENTED_EDGE('',*,*,#288,.T.);
#397=CYLINDRICAL_SURFACE('',#443,21.);
#398=CYLINDRICAL_SURFACE('',#446,21.);
#399=CYLINDRICAL_SURFACE('',#451,29.4);
#400=CYLINDRICAL_SURFACE('',#454,5.);
#401=CYLINDRICAL_SURFACE('',#460,2.);
#402=CYLINDRICAL_SURFACE('',#478,18.5);
#403=ADVANCED_FACE('',(#43),#397,.F.);
#404=ADVANCED_FACE('',(#44),#398,.F.);
#405=ADVANCED_FACE('',(#45,#15),#23,.F.);
#406=ADVANCED_FACE('',(#46),#399,.T.);
#407=ADVANCED_FACE('',(#47,#16),#24,.T.);
#408=ADVANCED_FACE('',(#48),#400,.F.);
#409=ADVANCED_FACE('',(#49,#17),#25,.F.);
#410=ADVANCED_FACE('',(#50,#18),#26,.F.);
#411=ADVANCED_FACE('',(#51),#401,.F.);
#412=ADVANCED_FACE('',(#52,#19),#27,.T.);
#413=ADVANCED_FACE('',(#53),#28,.T.);
#414=ADVANCED_FACE('',(#54),#29,.T.);
#415=ADVANCED_FACE('',(#55),#30,.T.);
#416=ADVANCED_FACE('',(#56),#31,.T.);
#417=ADVANCED_FACE('',(#57),#32,.T.);
#418=ADVANCED_FACE('',(#58),#33,.T.);
#419=ADVANCED_FACE('',(#59),#34,.T.);
#420=ADVANCED_FACE('',(#60),#35,.T.);
#421=ADVANCED_FACE('',(#61),#36,.T.);
#422=ADVANCED_FACE('',(#62),#37,.T.);
#423=ADVANCED_FACE('',(#63),#38,.T.);
#424=ADVANCED_FACE('',(#64),#39,.T.);
#425=ADVANCED_FACE('',(#65,#20),#40,.T.);
#426=ADVANCED_FACE('',(#66,#21),#41,.T.);
#427=ADVANCED_FACE('',(#67),#402,.F.);
#428=ADVANCED_FACE('',(#68,#22),#42,.T.);
#429=CLOSED_SHELL('',(#403,#404,#405,#406,#407,#408,#409,#410,#411,#412,
#413,#414,#415,#416,#417,#418,#419,#420,#421,#422,#423,#424,#425,#426,#427,
#428));
#430=DERIVED_UNIT_ELEMENT(#432,1.);
#431=DERIVED_UNIT_ELEMENT(#723,-3.);
#432=(
MASS_UNIT()
NAMED_UNIT(*)
SI_UNIT(.KILO.,.GRAM.)
);
#433=DERIVED_UNIT((#430,#431));
#434=MEASURE_REPRESENTATION_ITEM('density measure',
POSITIVE_RATIO_MEASURE(7850.),#433);
#435=PROPERTY_DEFINITION_REPRESENTATION(#440,#437);
#436=PROPERTY_DEFINITION_REPRESENTATION(#441,#438);
#437=REPRESENTATION('material name',(#439),#720);
#438=REPRESENTATION('density',(#434),#720);
#439=DESCRIPTIVE_REPRESENTATION_ITEM('\X2\94A2\X0\','\X2\94A2\X0\');
#440=PROPERTY_DEFINITION('material property','material name',#730);
#441=PROPERTY_DEFINITION('material property','density of part',#730);
#442=AXIS2_PLACEMENT_3D('',#601,#481,#482);
#443=AXIS2_PLACEMENT_3D('',#602,#483,#484);
#444=AXIS2_PLACEMENT_3D('',#604,#485,#486);
#445=AXIS2_PLACEMENT_3D('',#607,#488,#489);
#446=AXIS2_PLACEMENT_3D('',#608,#490,#491);
#447=AXIS2_PLACEMENT_3D('',#610,#492,#493);
#448=AXIS2_PLACEMENT_3D('',#613,#495,#496);
#449=AXIS2_PLACEMENT_3D('',#614,#497,#498);
#450=AXIS2_PLACEMENT_3D('',#616,#499,#500);
#451=AXIS2_PLACEMENT_3D('',#617,#501,#502);
#452=AXIS2_PLACEMENT_3D('',#619,#503,#504);
#453=AXIS2_PLACEMENT_3D('',#621,#506,#507);
#454=AXIS2_PLACEMENT_3D('',#622,#508,#509);
#455=AXIS2_PLACEMENT_3D('',#624,#510,#511);
#456=AXIS2_PLACEMENT_3D('',#627,#513,#514);
#457=AXIS2_PLACEMENT_3D('',#628,#515,#516);
#458=AXIS2_PLACEMENT_3D('',#630,#517,#518);
#459=AXIS2_PLACEMENT_3D('',#631,#519,#520);
#460=AXIS2_PLACEMENT_3D('',#632,#521,#522);
#461=AXIS2_PLACEMENT_3D('',#634,#523,#524);
#462=AXIS2_PLACEMENT_3D('',#636,#526,#527);
#463=AXIS2_PLACEMENT_3D('',#649,#534,#535);
#464=AXIS2_PLACEMENT_3D('',#655,#539,#540);
#465=AXIS2_PLACEMENT_3D('',#659,#543,#544);
#466=AXIS2_PLACEMENT_3D('',#663,#547,#548);
#467=AXIS2_PLACEMENT_3D('',#672,#553,#554);
#468=AXIS2_PLACEMENT_3D('',#678,#558,#559);
#469=AXIS2_PLACEMENT_3D('',#684,#563,#564);
#470=AXIS2_PLACEMENT_3D('',#688,#567,#568);
#471=AXIS2_PLACEMENT_3D('',#692,#571,#572);
#472=AXIS2_PLACEMENT_3D('',#694,#574,#575);
#473=AXIS2_PLACEMENT_3D('',#700,#579,#580);
#474=AXIS2_PLACEMENT_3D('',#706,#584,#585);
#475=AXIS2_PLACEMENT_3D('',#709,#588,#589);
#476=AXIS2_PLACEMENT_3D('',#710,#590,#591);
#477=AXIS2_PLACEMENT_3D('',#712,#592,#593);
#478=AXIS2_PLACEMENT_3D('',#713,#594,#595);
#479=AXIS2_PLACEMENT_3D('',#716,#597,#598);
#480=AXIS2_PLACEMENT_3D('',#717,#599,#600);
#481=DIRECTION('axis',(0.,0.,1.));
#482=DIRECTION('refdir',(1.,0.,0.));
#483=DIRECTION('center_axis',(0.,0.,1.));
#484=DIRECTION('ref_axis',(1.,0.,0.));
#485=DIRECTION('center_axis',(0.,0.,-1.));
#486=DIRECTION('ref_axis',(1.,0.,0.));
#487=DIRECTION('',(0.,0.,-1.));
#488=DIRECTION('center_axis',(0.,0.,1.));
#489=DIRECTION('ref_axis',(1.,0.,0.));
#490=DIRECTION('center_axis',(0.,0.,1.));
#491=DIRECTION('ref_axis',(1.,0.,0.));
#492=DIRECTION('center_axis',(0.,0.,1.));
#493=DIRECTION('ref_axis',(1.,0.,0.));
#494=DIRECTION('',(0.,0.,-1.));
#495=DIRECTION('center_axis',(0.,0.,1.));
#496=DIRECTION('ref_axis',(1.,0.,0.));
#497=DIRECTION('center_axis',(0.,0.,1.));
#498=DIRECTION('ref_axis',(1.,0.,0.));
#499=DIRECTION('center_axis',(0.,0.,-1.));
#500=DIRECTION('ref_axis',(1.,0.,0.));
#501=DIRECTION('center_axis',(0.,0.,1.));
#502=DIRECTION('ref_axis',(1.,0.,0.));
#503=DIRECTION('center_axis',(0.,0.,1.));
#504=DIRECTION('ref_axis',(1.,0.,0.));
#505=DIRECTION('',(0.,0.,-1.));
#506=DIRECTION('center_axis',(0.,0.,1.));
#507=DIRECTION('ref_axis',(1.,0.,0.));
#508=DIRECTION('center_axis',(0.,0.,1.));
#509=DIRECTION('ref_axis',(1.,0.,0.));
#510=DIRECTION('center_axis',(0.,0.,1.));
#511=DIRECTION('ref_axis',(1.,0.,0.));
#512=DIRECTION('',(0.,0.,1.));
#513=DIRECTION('center_axis',(0.,0.,1.));
#514=DIRECTION('ref_axis',(1.,0.,0.));
#515=DIRECTION('center_axis',(0.,0.,1.));
#516=DIRECTION('ref_axis',(1.,0.,0.));
#517=DIRECTION('center_axis',(0.,0.,1.));
#518=DIRECTION('ref_axis',(1.,0.,0.));
#519=DIRECTION('center_axis',(0.,0.,1.));
#520=DIRECTION('ref_axis',(1.,0.,0.));
#521=DIRECTION('center_axis',(0.,0.,1.));
#522=DIRECTION('ref_axis',(1.,0.,0.));
#523=DIRECTION('center_axis',(0.,0.,-1.));
#524=DIRECTION('ref_axis',(1.,0.,0.));
#525=DIRECTION('',(0.,0.,-1.));
#526=DIRECTION('center_axis',(0.,0.,1.));
#527=DIRECTION('ref_axis',(1.,0.,0.));
#528=DIRECTION('',(-0.5,-0.866025403784438,0.));
#529=DIRECTION('',(0.5,-0.866025403784439,0.));
#530=DIRECTION('',(1.,-2.46716227694479E-16,0.));
#531=DIRECTION('',(0.5,0.866025403784439,0.));
#532=DIRECTION('',(-0.5,0.866025403784439,0.));
#533=DIRECTION('',(-1.,1.11022302462516E-15,0.));
#534=DIRECTION('center_axis',(0.866025403784439,-0.5,0.));
#535=DIRECTION('ref_axis',(0.5,0.866025403784439,0.));
#536=DIRECTION('',(0.,0.,1.));
#537=DIRECTION('',(0.5,0.866025403784439,0.));
#538=DIRECTION('',(0.,0.,1.));
#539=DIRECTION('center_axis',(-2.46716227694479E-16,-1.,0.));
#540=DIRECTION('ref_axis',(1.,-2.46716227694479E-16,0.));
#541=DIRECTION('',(0.,0.,1.));
#542=DIRECTION('',(1.,-2.46716227694479E-16,0.));
#543=DIRECTION('center_axis',(-0.866025403784439,-0.5,0.));
#544=DIRECTION('ref_axis',(0.5,-0.866025403784439,0.));
#545=DIRECTION('',(0.,0.,1.));
#546=DIRECTION('',(0.5,-0.866025403784439,0.));
#547=DIRECTION('center_axis',(-0.866025403784439,0.5,0.));
#548=DIRECTION('ref_axis',(-0.5,-0.866025403784439,0.));
#549=DIRECTION('',(0.5,0.866025403784439,0.));
#550=DIRECTION('',(0.,0.,1.));
#551=DIRECTION('',(-0.5,-0.866025403784439,0.));
#552=DIRECTION('',(0.,0.,1.));
#553=DIRECTION('center_axis',(-0.866025403784439,-0.5,0.));
#554=DIRECTION('ref_axis',(0.5,-0.866025403784439,0.));
#555=DIRECTION('',(-0.5,0.866025403784439,0.));
#556=DIRECTION('',(0.,0.,1.));
#557=DIRECTION('',(0.5,-0.866025403784439,0.));
#558=DIRECTION('center_axis',(-3.41607084500048E-16,-1.,0.));
#559=DIRECTION('ref_axis',(1.,-3.41607084500048E-16,0.));
#560=DIRECTION('',(-1.,3.41607084500048E-16,0.));
#561=DIRECTION('',(0.,0.,1.));
#562=DIRECTION('',(1.,-3.41607084500048E-16,0.));
#563=DIRECTION('center_axis',(0.866025403784439,0.5,0.));
#564=DIRECTION('ref_axis',(-0.5,0.866025403784439,0.));
#565=DIRECTION('',(-0.5,0.866025403784439,0.));
#566=DIRECTION('',(0.,0.,1.));
#567=DIRECTION('center_axis',(1.11022302462516E-15,1.,0.));
#568=DIRECTION('ref_axis',(-1.,1.11022302462516E-15,0.));
#569=DIRECTION('',(-1.,1.11022302462516E-15,0.));
#570=DIRECTION('',(0.,0.,1.));
#571=DIRECTION('center_axis',(-0.866025403784438,0.5,0.));
#572=DIRECTION('ref_axis',(-0.5,-0.866025403784438,0.));
#573=DIRECTION('',(-0.5,-0.866025403784438,0.));
#574=DIRECTION('center_axis',(0.,1.,0.));
#575=DIRECTION('ref_axis',(-1.,0.,0.));
#576=DIRECTION('',(1.,0.,0.));
#577=DIRECTION('',(-1.,0.,0.));
#578=DIRECTION('',(0.,0.,1.));
#579=DIRECTION('center_axis',(0.866025403784439,0.5,0.));
#580=DIRECTION('ref_axis',(-0.5,0.866025403784439,0.));
#581=DIRECTION('',(0.5,-0.866025403784439,0.));
#582=DIRECTION('',(-0.5,0.866025403784439,0.));
#583=DIRECTION('',(0.,0.,1.));
#584=DIRECTION('center_axis',(0.866025403784439,-0.5,0.));
#585=DIRECTION('ref_axis',(0.5,0.866025403784439,0.));
#586=DIRECTION('',(-0.5,-0.866025403784439,0.));
#587=DIRECTION('',(0.5,0.866025403784439,0.));
#588=DIRECTION('center_axis',(0.,0.,1.));
#589=DIRECTION('ref_axis',(1.,0.,0.));
#590=DIRECTION('center_axis',(0.,0.,1.));
#591=DIRECTION('ref_axis',(1.,0.,0.));
#592=DIRECTION('center_axis',(0.,0.,-1.));
#593=DIRECTION('ref_axis',(1.,0.,0.));
#594=DIRECTION('center_axis',(0.,0.,1.));
#595=DIRECTION('ref_axis',(1.,0.,0.));
#596=DIRECTION('',(0.,0.,1.));
#597=DIRECTION('center_axis',(0.,0.,-1.));
#598=DIRECTION('ref_axis',(1.,0.,0.));
#599=DIRECTION('center_axis',(0.,0.,1.));
#600=DIRECTION('ref_axis',(1.,0.,0.));
#601=CARTESIAN_POINT('',(0.,0.,0.));
#602=CARTESIAN_POINT('Origin',(0.,0.,0.));
#603=CARTESIAN_POINT('',(-21.,-2.57175827820944E-15,19.2));
#604=CARTESIAN_POINT('Origin',(0.,0.,19.2));
#605=CARTESIAN_POINT('',(-21.,-2.57175827820944E-15,18.));
#606=CARTESIAN_POINT('',(-21.,-2.57175827820944E-15,0.));
#607=CARTESIAN_POINT('Origin',(0.,0.,18.));
#608=CARTESIAN_POINT('Origin',(0.,0.,0.));
#609=CARTESIAN_POINT('',(-21.,-2.57175827820944E-15,0.));
#610=CARTESIAN_POINT('Origin',(0.,0.,0.));
#611=CARTESIAN_POINT('',(-21.,-2.57175827820944E-15,-2.));
#612=CARTESIAN_POINT('',(-21.,-2.57175827820944E-15,0.));
#613=CARTESIAN_POINT('Origin',(0.,0.,-2.));
#614=CARTESIAN_POINT('Origin',(0.,0.,-2.));
#615=CARTESIAN_POINT('',(-29.4,-3.60046158949322E-15,-2.));
#616=CARTESIAN_POINT('Origin',(0.,0.,-2.));
#617=CARTESIAN_POINT('Origin',(0.,0.,0.));
#618=CARTESIAN_POINT('',(-29.4,-3.60046158949322E-15,19.2));
#619=CARTESIAN_POINT('Origin',(0.,0.,19.2));
#620=CARTESIAN_POINT('',(-29.4,-3.60046158949322E-15,0.));
#621=CARTESIAN_POINT('Origin',(0.,0.,19.2));
#622=CARTESIAN_POINT('Origin',(0.,0.,0.));
#623=CARTESIAN_POINT('',(-5.,-6.12323399573677E-16,0.));
#624=CARTESIAN_POINT('Origin',(0.,0.,0.));
#625=CARTESIAN_POINT('',(-5.,-6.12323399573677E-16,2.5));
#626=CARTESIAN_POINT('',(-5.,-6.12323399573677E-16,0.));
#627=CARTESIAN_POINT('Origin',(0.,0.,2.5));
#628=CARTESIAN_POINT('Origin',(0.,0.,2.5));
#629=CARTESIAN_POINT('',(-2.,-2.44929359829471E-16,2.5));
#630=CARTESIAN_POINT('Origin',(0.,0.,2.5));
#631=CARTESIAN_POINT('Origin',(0.,0.,0.));
#632=CARTESIAN_POINT('Origin',(0.,0.,0.));
#633=CARTESIAN_POINT('',(-2.,-2.44929359829471E-16,9.));
#634=CARTESIAN_POINT('Origin',(0.,0.,9.));
#635=CARTESIAN_POINT('',(-2.,-2.44929359829471E-16,0.));
#636=CARTESIAN_POINT('Origin',(0.,0.,9.));
#637=CARTESIAN_POINT('',(4.5,1.11022302462516E-15,9.));
#638=CARTESIAN_POINT('',(2.25,-3.89711431702998,9.));
#639=CARTESIAN_POINT('',(3.9375,-0.974278579257494,9.));
#640=CARTESIAN_POINT('',(2.25,3.89711431702997,9.));
#641=CARTESIAN_POINT('',(2.8125,2.92283573777248,9.));
#642=CARTESIAN_POINT('',(-2.25,3.89711431702998,9.));
#643=CARTESIAN_POINT('',(-1.125,3.89711431702998,9.));
#644=CARTESIAN_POINT('',(-4.5,1.2490009027033E-15,9.));
#645=CARTESIAN_POINT('',(-3.9375,0.974278579257495,9.));
#646=CARTESIAN_POINT('',(-2.25,-3.89711431702997,9.));
#647=CARTESIAN_POINT('',(-2.8125,-2.92283573777248,9.));
#648=CARTESIAN_POINT('',(1.125,-3.89711431702997,9.));
#649=CARTESIAN_POINT('Origin',(-4.5,1.11022302462516E-15,0.));
#650=CARTESIAN_POINT('',(-2.25,3.89711431702998,11.4));
#651=CARTESIAN_POINT('',(-2.25,3.89711431702998,0.));
#652=CARTESIAN_POINT('',(-4.5,1.2490009027033E-15,11.4));
#653=CARTESIAN_POINT('',(-2.25,3.89711431702998,11.4));
#654=CARTESIAN_POINT('',(-4.5,1.2490009027033E-15,0.));
#655=CARTESIAN_POINT('Origin',(-2.25,3.89711431702998,0.));
#656=CARTESIAN_POINT('',(2.25,3.89711431702997,11.4));
#657=CARTESIAN_POINT('',(2.25,3.89711431702997,0.));
#658=CARTESIAN_POINT('',(2.25,3.89711431702997,11.4));
#659=CARTESIAN_POINT('Origin',(2.25,3.89711431702997,0.));
#660=CARTESIAN_POINT('',(4.5,1.11022302462516E-15,11.4));
#661=CARTESIAN_POINT('',(4.5,1.11022302462516E-15,0.));
#662=CARTESIAN_POINT('',(4.5,1.11022302462516E-15,11.4));
#663=CARTESIAN_POINT('Origin',(-3.25,5.62916512459885,0.));
#664=CARTESIAN_POINT('',(-6.5,1.11022302462516E-15,2.5));
#665=CARTESIAN_POINT('',(-3.25,5.62916512459885,2.5));
#666=CARTESIAN_POINT('',(-4.0625,4.22187384344914,2.5));
#667=CARTESIAN_POINT('',(-6.5,1.11022302462516E-15,11.4));
#668=CARTESIAN_POINT('',(-6.5,1.11022302462516E-15,0.));
#669=CARTESIAN_POINT('',(-3.25,5.62916512459885,11.4));
#670=CARTESIAN_POINT('',(-3.25,5.62916512459885,11.4));
#671=CARTESIAN_POINT('',(-3.25,5.62916512459885,0.));
#672=CARTESIAN_POINT('Origin',(-6.5,1.11022302462516E-15,0.));
#673=CARTESIAN_POINT('',(-3.25,-5.62916512459885,2.5));
#674=CARTESIAN_POINT('',(-5.6875,-1.40729128114971,2.5));
#675=CARTESIAN_POINT('',(-3.25,-5.62916512459885,11.4));
#676=CARTESIAN_POINT('',(-3.25,-5.62916512459885,0.));
#677=CARTESIAN_POINT('',(-6.5,1.11022302462516E-15,11.4));
#678=CARTESIAN_POINT('Origin',(-3.25,-5.62916512459885,0.));
#679=CARTESIAN_POINT('',(3.25,-5.62916512459885,2.5));
#680=CARTESIAN_POINT('',(-1.625,-5.62916512459885,2.5));
#681=CARTESIAN_POINT('',(3.25,-5.62916512459885,11.4));
#682=CARTESIAN_POINT('',(3.25,-5.62916512459885,0.));
#683=CARTESIAN_POINT('',(-3.25,-5.62916512459885,11.4));
#684=CARTESIAN_POINT('Origin',(-2.25,-3.89711431702997,0.));
#685=CARTESIAN_POINT('',(-2.25,-3.89711431702997,11.4));
#686=CARTESIAN_POINT('',(-4.5,1.2490009027033E-15,11.4));
#687=CARTESIAN_POINT('',(-2.25,-3.89711431702997,0.));
#688=CARTESIAN_POINT('Origin',(2.25,-3.89711431702998,0.));
#689=CARTESIAN_POINT('',(2.25,-3.89711431702998,11.4));
#690=CARTESIAN_POINT('',(-2.25,-3.89711431702997,11.4));
#691=CARTESIAN_POINT('',(2.25,-3.89711431702998,0.));
#692=CARTESIAN_POINT('Origin',(4.5,5.55111512312578E-16,0.));
#693=CARTESIAN_POINT('',(2.25,-3.89711431702998,11.4));
#694=CARTESIAN_POINT('Origin',(3.25,5.62916512459885,0.));
#695=CARTESIAN_POINT('',(3.25,5.62916512459885,2.5));
#696=CARTESIAN_POINT('',(1.625,5.62916512459885,2.5));
#697=CARTESIAN_POINT('',(3.25,5.62916512459885,11.4));
#698=CARTESIAN_POINT('',(3.25,5.62916512459885,11.4));
#699=CARTESIAN_POINT('',(3.25,5.62916512459885,0.));
#700=CARTESIAN_POINT('Origin',(6.5,1.11022302462516E-15,0.));
#701=CARTESIAN_POINT('',(6.5,1.11022302462516E-15,2.5));
#702=CARTESIAN_POINT('',(5.6875,1.40729128114971,2.5));
#703=CARTESIAN_POINT('',(6.5,1.11022302462516E-15,11.4));
#704=CARTESIAN_POINT('',(6.5,1.11022302462516E-15,11.4));
#705=CARTESIAN_POINT('',(6.5,1.11022302462516E-15,0.));
#706=CARTESIAN_POINT('Origin',(3.25,-5.62916512459885,0.));
#707=CARTESIAN_POINT('',(4.0625,-4.22187384344914,2.5));
#708=CARTESIAN_POINT('',(3.25,-5.62916512459885,11.4));
#709=CARTESIAN_POINT('Origin',(0.,0.,11.4));
#710=CARTESIAN_POINT('Origin',(0.,0.,2.5));
#711=CARTESIAN_POINT('',(-18.5,2.2655965784226E-15,2.5));
#712=CARTESIAN_POINT('Origin',(0.,0.,2.5));
#713=CARTESIAN_POINT('Origin',(0.,0.,0.));
#714=CARTESIAN_POINT('',(-18.5,2.2655965784226E-15,18.));
#715=CARTESIAN_POINT('',(-18.5,-2.2655965784226E-15,0.));
#716=CARTESIAN_POINT('Origin',(0.,0.,18.));
#717=CARTESIAN_POINT('Origin',(0.,0.,18.));
#718=UNCERTAINTY_MEASURE_WITH_UNIT(LENGTH_MEASURE(0.01),#722,
'DISTANCE_ACCURACY_VALUE',
'Maximum model space distance between geometric entities at asserted c
onnectivities');
#719=UNCERTAINTY_MEASURE_WITH_UNIT(LENGTH_MEASURE(0.01),#722,
'DISTANCE_ACCURACY_VALUE',
'Maximum model space distance between geometric entities at asserted c
onnectivities');
#720=(
GEOMETRIC_REPRESENTATION_CONTEXT(3)
GLOBAL_UNCERTAINTY_ASSIGNED_CONTEXT((#718))
GLOBAL_UNIT_ASSIGNED_CONTEXT((#722,#724,#725))
REPRESENTATION_CONTEXT('','3D')
);
#721=(
GEOMETRIC_REPRESENTATION_CONTEXT(3)
GLOBAL_UNCERTAINTY_ASSIGNED_CONTEXT((#719))
GLOBAL_UNIT_ASSIGNED_CONTEXT((#722,#724,#725))
REPRESENTATION_CONTEXT('','3D')
);
#722=(
LENGTH_UNIT()
NAMED_UNIT(*)
SI_UNIT(.MILLI.,.METRE.)
);
#723=(
LENGTH_UNIT()
NAMED_UNIT(*)
SI_UNIT($,.METRE.)
);
#724=(
NAMED_UNIT(*)
PLANE_ANGLE_UNIT()
SI_UNIT($,.RADIAN.)
);
#725=(
NAMED_UNIT(*)
SI_UNIT($,.STERADIAN.)
SOLID_ANGLE_UNIT()
);
#726=SHAPE_DEFINITION_REPRESENTATION(#727,#728);
#727=PRODUCT_DEFINITION_SHAPE('',$,#730);
#728=SHAPE_REPRESENTATION('',(#442),#720);
#729=PRODUCT_DEFINITION_CONTEXT('part definition',#734,'design');
#730=PRODUCT_DEFINITION('2026-05-09-03-37-24-543','\X2\540E8F6EFF08\X0\L
OS\X2\FF09\X0\',#731,#729);
#731=PRODUCT_DEFINITION_FORMATION('',$,#736);
#732=PRODUCT_RELATED_PRODUCT_CATEGORY('\X2\540E8F6EFF08\X0\LOS\X2\FF09\X0\',
'\X2\540E8F6EFF08\X0\LOS\X2\FF09\X0\',(#736));
#733=APPLICATION_PROTOCOL_DEFINITION('international standard',
'automotive_design',2009,#734);
#734=APPLICATION_CONTEXT(
'Core Data for Automotive Mechanical Design Process');
#735=PRODUCT_CONTEXT('part definition',#734,'mechanical');
#736=PRODUCT('2026-05-09-03-37-24-543','\X2\540E8F6EFF08\X0\LOS\X2\FF09\X0\',
$,(#735));
#737=PRESENTATION_STYLE_ASSIGNMENT((#738));
#738=SURFACE_STYLE_USAGE(.BOTH.,#739);
#739=SURFACE_SIDE_STYLE('',(#740));
#740=SURFACE_STYLE_FILL_AREA(#741);
#741=FILL_AREA_STYLE('\X2\94A2\X0\ - \X2\7F0E5149\X0\',(#742));
#742=FILL_AREA_STYLE_COLOUR('\X2\94A2\X0\ - \X2\7F0E5149\X0\',#743);
#743=COLOUR_RGB('\X2\94A2\X0\ - \X2\7F0E5149\X0\',0.627450980392157,0.627450980392157,
0.627450980392157);
ENDSEC;
END-ISO-10303-21;
