ISO-10303-21;
HEADER;
/* Generated by software containing ST-Developer
 * from STEP Tools, Inc. (www.steptools.com) 
 */

FILE_DESCRIPTION(
/* description */ ('Open CASCADE Model'),
/* implementation_level */ '2;1');

FILE_NAME(
/* name */ '',
/* time_stamp */ '2026-08-11T12:37:46+09:00',
/* author */ (''),
/* organization */ (''),
/* preprocessor_version */ 'ST-DEVELOPER v20.1',
/* originating_system */ 'Autodesk Translation Framework v15.8.0.0',
/* authorisation */ '');

FILE_SCHEMA (('AUTOMOTIVE_DESIGN { 1 0 10303 214 3 1 1 }'));
ENDSEC;

DATA;
#10=MECHANICAL_DESIGN_GEOMETRIC_PRESENTATION_REPRESENTATION('',(#17,#18),
#980);
#11=ITEM_DEFINED_TRANSFORMATION($,$,#560,#617);
#12=(
REPRESENTATION_RELATIONSHIP($,$,#991,#990)
REPRESENTATION_RELATIONSHIP_WITH_TRANSFORMATION(#11)
SHAPE_REPRESENTATION_RELATIONSHIP()
);
#13=CONTEXT_DEPENDENT_SHAPE_REPRESENTATION(#12,#989);
#14=NEXT_ASSEMBLY_USAGE_OCCURRENCE('5.1 \X2\95F49699\X0\ 0.30:1',
'5.1 \X2\95F49699\X0\ 0.30:1','5.1 \X2\95F49699\X0\ 0.30:1',#993,#994,
'5.1 \X2\95F49699\X0\ 0.30:1');
#15=SHAPE_REPRESENTATION_RELATIONSHIP('SRR','None',#991,#16);
#16=ADVANCED_BREP_SHAPE_REPRESENTATION('',(#19,#20),#979);
#17=STYLED_ITEM('',(#1004),#19);
#18=STYLED_ITEM('',(#1004),#20);
#19=MANIFOLD_SOLID_BREP('\X2\5B9E4F53\X0\1',#545);
#20=MANIFOLD_SOLID_BREP('\X2\5B9E4F53\X0\2',#546);
#21=SPHERICAL_SURFACE('',#585,2.55);
#22=SPHERICAL_SURFACE('',#613,2.55);
#23=CONICAL_SURFACE('',#578,2.3,0.486899231811);
#24=CONICAL_SURFACE('',#606,2.3,0.486899231811);
#25=B_SPLINE_CURVE_WITH_KNOTS('',3,(#823,#824,#825,#826,#827,#828,#829,
#830,#831,#832),.UNSPECIFIED.,.F.,.F.,(4,3,3,4),(203.786145584951,212.089496920392,
220.84895190328,223.774709529845),.UNSPECIFIED.);
#26=B_SPLINE_CURVE_WITH_KNOTS('',3,(#842,#843,#844,#845,#846,#847,#848,
#849,#850,#851),.UNSPECIFIED.,.F.,.F.,(4,3,3,4),(203.786145584951,212.089496920392,
220.84895190328,223.774709529845),.UNSPECIFIED.);
#27=B_SPLINE_CURVE_WITH_KNOTS('',3,(#918,#919,#920,#921,#922,#923,#924,
#925,#926,#927),.UNSPECIFIED.,.F.,.F.,(4,3,3,4),(203.786145584951,212.089496920392,
220.84895190328,223.774709529845),.UNSPECIFIED.);
#28=B_SPLINE_CURVE_WITH_KNOTS('',3,(#935,#936,#937,#938,#939,#940,#941,
#942,#943,#944),.UNSPECIFIED.,.F.,.F.,(4,3,3,4),(203.786145584951,212.089496920392,
220.84895190328,223.774709529845),.UNSPECIFIED.);
#29=PLANE('',#564);
#30=PLANE('',#567);
#31=PLANE('',#568);
#32=PLANE('',#571);
#33=PLANE('',#573);
#34=PLANE('',#576);
#35=PLANE('',#580);
#36=PLANE('',#581);
#37=PLANE('',#582);
#38=PLANE('',#584);
#39=PLANE('',#586);
#40=PLANE('',#587);
#41=PLANE('',#588);
#42=PLANE('',#592);
#43=PLANE('',#595);
#44=PLANE('',#596);
#45=PLANE('',#599);
#46=PLANE('',#601);
#47=PLANE('',#604);
#48=PLANE('',#608);
#49=PLANE('',#609);
#50=PLANE('',#610);
#51=PLANE('',#612);
#52=PLANE('',#614);
#53=PLANE('',#615);
#54=PLANE('',#616);
#55=FACE_OUTER_BOUND('',#89,.T.);
#56=FACE_OUTER_BOUND('',#90,.T.);
#57=FACE_OUTER_BOUND('',#91,.T.);
#58=FACE_OUTER_BOUND('',#92,.T.);
#59=FACE_OUTER_BOUND('',#93,.T.);
#60=FACE_OUTER_BOUND('',#94,.T.);
#61=FACE_OUTER_BOUND('',#95,.T.);
#62=FACE_OUTER_BOUND('',#96,.T.);
#63=FACE_OUTER_BOUND('',#97,.T.);
#64=FACE_OUTER_BOUND('',#98,.T.);
#65=FACE_OUTER_BOUND('',#99,.T.);
#66=FACE_OUTER_BOUND('',#100,.T.);
#67=FACE_OUTER_BOUND('',#101,.T.);
#68=FACE_OUTER_BOUND('',#102,.T.);
#69=FACE_OUTER_BOUND('',#103,.T.);
#70=FACE_OUTER_BOUND('',#104,.T.);
#71=FACE_OUTER_BOUND('',#105,.T.);
#72=FACE_OUTER_BOUND('',#106,.T.);
#73=FACE_OUTER_BOUND('',#107,.T.);
#74=FACE_OUTER_BOUND('',#108,.T.);
#75=FACE_OUTER_BOUND('',#109,.T.);
#76=FACE_OUTER_BOUND('',#110,.T.);
#77=FACE_OUTER_BOUND('',#111,.T.);
#78=FACE_OUTER_BOUND('',#112,.T.);
#79=FACE_OUTER_BOUND('',#113,.T.);
#80=FACE_OUTER_BOUND('',#114,.T.);
#81=FACE_OUTER_BOUND('',#115,.T.);
#82=FACE_OUTER_BOUND('',#116,.T.);
#83=FACE_OUTER_BOUND('',#117,.T.);
#84=FACE_OUTER_BOUND('',#118,.T.);
#85=FACE_OUTER_BOUND('',#119,.T.);
#86=FACE_OUTER_BOUND('',#120,.T.);
#87=FACE_OUTER_BOUND('',#121,.T.);
#88=FACE_OUTER_BOUND('',#122,.T.);
#89=EDGE_LOOP('',(#359,#360,#361,#362));
#90=EDGE_LOOP('',(#363,#364,#365,#366,#367,#368));
#91=EDGE_LOOP('',(#369,#370,#371,#372));
#92=EDGE_LOOP('',(#373,#374,#375,#376,#377,#378));
#93=EDGE_LOOP('',(#379,#380,#381,#382,#383));
#94=EDGE_LOOP('',(#384,#385));
#95=EDGE_LOOP('',(#386,#387,#388,#389));
#96=EDGE_LOOP('',(#390,#391,#392,#393,#394));
#97=EDGE_LOOP('',(#395,#396,#397,#398));
#98=EDGE_LOOP('',(#399,#400,#401,#402,#403,#404));
#99=EDGE_LOOP('',(#405,#406,#407,#408));
#100=EDGE_LOOP('',(#409,#410,#411,#412,#413,#414));
#101=EDGE_LOOP('',(#415,#416));
#102=EDGE_LOOP('',(#417,#418,#419,#420));
#103=EDGE_LOOP('',(#421,#422,#423,#424));
#104=EDGE_LOOP('',(#425,#426,#427,#428));
#105=EDGE_LOOP('',(#429,#430,#431,#432));
#106=EDGE_LOOP('',(#433,#434,#435,#436));
#107=EDGE_LOOP('',(#437,#438,#439,#440,#441,#442));
#108=EDGE_LOOP('',(#443,#444,#445,#446));
#109=EDGE_LOOP('',(#447,#448,#449,#450,#451,#452));
#110=EDGE_LOOP('',(#453,#454,#455,#456,#457));
#111=EDGE_LOOP('',(#458,#459));
#112=EDGE_LOOP('',(#460,#461,#462,#463));
#113=EDGE_LOOP('',(#464,#465,#466,#467,#468));
#114=EDGE_LOOP('',(#469,#470,#471,#472));
#115=EDGE_LOOP('',(#473,#474,#475,#476,#477,#478));
#116=EDGE_LOOP('',(#479,#480,#481,#482));
#117=EDGE_LOOP('',(#483,#484,#485,#486,#487,#488));
#118=EDGE_LOOP('',(#489,#490));
#119=EDGE_LOOP('',(#491,#492,#493,#494));
#120=EDGE_LOOP('',(#495,#496,#497,#498));
#121=EDGE_LOOP('',(#499,#500,#501,#502));
#122=EDGE_LOOP('',(#503,#504,#505,#506));
#123=LINE('',#791,#171);
#124=LINE('',#794,#172);
#125=LINE('',#797,#173);
#126=LINE('',#801,#174);
#127=LINE('',#804,#175);
#128=LINE('',#807,#176);
#129=LINE('',#809,#177);
#130=LINE('',#810,#178);
#131=LINE('',#813,#179);
#132=LINE('',#815,#180);
#133=LINE('',#819,#181);
#134=LINE('',#837,#182);
#135=LINE('',#838,#183);
#136=LINE('',#856,#184);
#137=LINE('',#858,#185);
#138=LINE('',#860,#186);
#139=LINE('',#861,#187);
#140=LINE('',#864,#188);
#141=LINE('',#865,#189);
#142=LINE('',#868,#190);
#143=LINE('',#870,#191);
#144=LINE('',#871,#192);
#145=LINE('',#876,#193);
#146=LINE('',#878,#194);
#147=LINE('',#885,#195);
#148=LINE('',#888,#196);
#149=LINE('',#891,#197);
#150=LINE('',#893,#198);
#151=LINE('',#897,#199);
#152=LINE('',#901,#200);
#153=LINE('',#903,#201);
#154=LINE('',#904,#202);
#155=LINE('',#907,#203);
#156=LINE('',#911,#204);
#157=LINE('',#914,#205);
#158=LINE('',#931,#206);
#159=LINE('',#932,#207);
#160=LINE('',#950,#208);
#161=LINE('',#952,#209);
#162=LINE('',#954,#210);
#163=LINE('',#955,#211);
#164=LINE('',#958,#212);
#165=LINE('',#959,#213);
#166=LINE('',#962,#214);
#167=LINE('',#965,#215);
#168=LINE('',#966,#216);
#169=LINE('',#970,#217);
#170=LINE('',#972,#218);
#171=VECTOR('',#626,1.);
#172=VECTOR('',#629,1.);
#173=VECTOR('',#632,1.);
#174=VECTOR('',#635,1.);
#175=VECTOR('',#638,1.);
#176=VECTOR('',#641,1.);
#177=VECTOR('',#642,1.);
#178=VECTOR('',#643,1.);
#179=VECTOR('',#646,1.);
#180=VECTOR('',#647,1.);
#181=VECTOR('',#650,1.);
#182=VECTOR('',#663,1.);
#183=VECTOR('',#664,1.);
#184=VECTOR('',#675,1.);
#185=VECTOR('',#676,1.);
#186=VECTOR('',#677,1.);
#187=VECTOR('',#678,1.);
#188=VECTOR('',#681,1.);
#189=VECTOR('',#682,1.);
#190=VECTOR('',#685,1.);
#191=VECTOR('',#686,1.);
#192=VECTOR('',#687,1.);
#193=VECTOR('',#696,1.);
#194=VECTOR('',#699,1.);
#195=VECTOR('',#706,1.);
#196=VECTOR('',#709,1.);
#197=VECTOR('',#712,1.);
#198=VECTOR('',#713,1.);
#199=VECTOR('',#716,1.);
#200=VECTOR('',#721,1.);
#201=VECTOR('',#722,1.);
#202=VECTOR('',#723,1.);
#203=VECTOR('',#726,1.);
#204=VECTOR('',#729,1.);
#205=VECTOR('',#732,1.);
#206=VECTOR('',#743,1.);
#207=VECTOR('',#744,1.);
#208=VECTOR('',#755,1.);
#209=VECTOR('',#756,1.);
#210=VECTOR('',#757,1.);
#211=VECTOR('',#758,1.);
#212=VECTOR('',#761,1.);
#213=VECTOR('',#762,1.);
#214=VECTOR('',#765,1.);
#215=VECTOR('',#768,1.);
#216=VECTOR('',#769,1.);
#217=VECTOR('',#776,1.);
#218=VECTOR('',#779,1.);
#219=CIRCLE('',#562,4.5);
#220=CIRCLE('',#563,4.5);
#221=CIRCLE('',#565,4.5);
#222=CIRCLE('',#566,2.294705882353);
#223=CIRCLE('',#569,1.700735135169);
#224=CIRCLE('',#570,4.5);
#225=CIRCLE('',#572,2.509980079602);
#226=CIRCLE('',#574,4.5);
#227=CIRCLE('',#577,2.509980079602);
#228=CIRCLE('',#579,2.074144124376);
#229=CIRCLE('',#583,4.5);
#230=CIRCLE('',#590,4.5);
#231=CIRCLE('',#591,4.5);
#232=CIRCLE('',#593,2.294705882353);
#233=CIRCLE('',#594,4.5);
#234=CIRCLE('',#597,4.5);
#235=CIRCLE('',#598,1.700735135169);
#236=CIRCLE('',#600,2.509980079602);
#237=CIRCLE('',#602,4.5);
#238=CIRCLE('',#605,2.509980079602);
#239=CIRCLE('',#607,2.074144124376);
#240=CIRCLE('',#611,4.5);
#241=VERTEX_POINT('',#787);
#242=VERTEX_POINT('',#788);
#243=VERTEX_POINT('',#790);
#244=VERTEX_POINT('',#792);
#245=VERTEX_POINT('',#796);
#246=VERTEX_POINT('',#798);
#247=VERTEX_POINT('',#800);
#248=VERTEX_POINT('',#802);
#249=VERTEX_POINT('',#806);
#250=VERTEX_POINT('',#808);
#251=VERTEX_POINT('',#812);
#252=VERTEX_POINT('',#814);
#253=VERTEX_POINT('',#816);
#254=VERTEX_POINT('',#818);
#255=VERTEX_POINT('',#822);
#256=VERTEX_POINT('',#840);
#257=VERTEX_POINT('',#855);
#258=VERTEX_POINT('',#857);
#259=VERTEX_POINT('',#859);
#260=VERTEX_POINT('',#863);
#261=VERTEX_POINT('',#867);
#262=VERTEX_POINT('',#869);
#263=VERTEX_POINT('',#881);
#264=VERTEX_POINT('',#882);
#265=VERTEX_POINT('',#884);
#266=VERTEX_POINT('',#886);
#267=VERTEX_POINT('',#890);
#268=VERTEX_POINT('',#892);
#269=VERTEX_POINT('',#894);
#270=VERTEX_POINT('',#896);
#271=VERTEX_POINT('',#900);
#272=VERTEX_POINT('',#902);
#273=VERTEX_POINT('',#906);
#274=VERTEX_POINT('',#908);
#275=VERTEX_POINT('',#910);
#276=VERTEX_POINT('',#912);
#277=VERTEX_POINT('',#916);
#278=VERTEX_POINT('',#934);
#279=VERTEX_POINT('',#949);
#280=VERTEX_POINT('',#951);
#281=VERTEX_POINT('',#953);
#282=VERTEX_POINT('',#957);
#283=VERTEX_POINT('',#961);
#284=VERTEX_POINT('',#964);
#285=EDGE_CURVE('',#241,#242,#219,.T.);
#286=EDGE_CURVE('',#243,#241,#123,.T.);
#287=EDGE_CURVE('',#243,#244,#220,.T.);
#288=EDGE_CURVE('',#244,#242,#124,.T.);
#289=EDGE_CURVE('',#245,#243,#125,.T.);
#290=EDGE_CURVE('',#246,#245,#221,.T.);
#291=EDGE_CURVE('',#247,#246,#126,.T.);
#292=EDGE_CURVE('',#247,#248,#222,.T.);
#293=EDGE_CURVE('',#248,#244,#127,.T.);
#294=EDGE_CURVE('',#243,#249,#128,.T.);
#295=EDGE_CURVE('',#241,#250,#129,.T.);
#296=EDGE_CURVE('',#249,#250,#130,.T.);
#297=EDGE_CURVE('',#251,#241,#131,.T.);
#298=EDGE_CURVE('',#252,#242,#132,.T.);
#299=EDGE_CURVE('',#253,#252,#223,.T.);
#300=EDGE_CURVE('',#253,#254,#133,.T.);
#301=EDGE_CURVE('',#254,#251,#224,.T.);
#302=EDGE_CURVE('',#255,#248,#25,.F.);
#303=EDGE_CURVE('',#255,#252,#225,.T.);
#304=EDGE_CURVE('',#245,#243,#226,.T.);
#305=EDGE_CURVE('',#246,#254,#134,.T.);
#306=EDGE_CURVE('',#245,#251,#135,.T.);
#307=EDGE_CURVE('',#256,#253,#227,.T.);
#308=EDGE_CURVE('',#256,#247,#26,.F.);
#309=EDGE_CURVE('',#255,#256,#228,.T.);
#310=EDGE_CURVE('',#257,#245,#136,.T.);
#311=EDGE_CURVE('',#258,#249,#137,.T.);
#312=EDGE_CURVE('',#259,#258,#138,.T.);
#313=EDGE_CURVE('',#259,#257,#139,.T.);
#314=EDGE_CURVE('',#258,#260,#140,.T.);
#315=EDGE_CURVE('',#260,#250,#141,.T.);
#316=EDGE_CURVE('',#261,#251,#142,.T.);
#317=EDGE_CURVE('',#262,#261,#143,.T.);
#318=EDGE_CURVE('',#262,#260,#144,.T.);
#319=EDGE_CURVE('',#251,#241,#229,.T.);
#320=EDGE_CURVE('',#257,#261,#145,.T.);
#321=EDGE_CURVE('',#259,#262,#146,.T.);
#322=EDGE_CURVE('',#263,#264,#230,.T.);
#323=EDGE_CURVE('',#265,#264,#147,.T.);
#324=EDGE_CURVE('',#266,#265,#231,.T.);
#325=EDGE_CURVE('',#266,#263,#148,.T.);
#326=EDGE_CURVE('',#267,#266,#149,.T.);
#327=EDGE_CURVE('',#268,#265,#150,.T.);
#328=EDGE_CURVE('',#269,#268,#232,.T.);
#329=EDGE_CURVE('',#269,#270,#151,.T.);
#330=EDGE_CURVE('',#270,#267,#233,.T.);
#331=EDGE_CURVE('',#266,#271,#152,.T.);
#332=EDGE_CURVE('',#271,#272,#153,.T.);
#333=EDGE_CURVE('',#263,#272,#154,.T.);
#334=EDGE_CURVE('',#273,#263,#155,.T.);
#335=EDGE_CURVE('',#274,#273,#234,.T.);
#336=EDGE_CURVE('',#275,#274,#156,.T.);
#337=EDGE_CURVE('',#275,#276,#235,.T.);
#338=EDGE_CURVE('',#276,#264,#157,.T.);
#339=EDGE_CURVE('',#277,#276,#236,.T.);
#340=EDGE_CURVE('',#277,#268,#27,.F.);
#341=EDGE_CURVE('',#267,#266,#237,.T.);
#342=EDGE_CURVE('',#267,#273,#158,.T.);
#343=EDGE_CURVE('',#270,#274,#159,.T.);
#344=EDGE_CURVE('',#278,#269,#28,.F.);
#345=EDGE_CURVE('',#278,#275,#238,.T.);
#346=EDGE_CURVE('',#277,#278,#239,.T.);
#347=EDGE_CURVE('',#279,#267,#160,.T.);
#348=EDGE_CURVE('',#280,#279,#161,.T.);
#349=EDGE_CURVE('',#280,#281,#162,.T.);
#350=EDGE_CURVE('',#281,#271,#163,.T.);
#351=EDGE_CURVE('',#281,#282,#164,.T.);
#352=EDGE_CURVE('',#282,#272,#165,.T.);
#353=EDGE_CURVE('',#283,#273,#166,.T.);
#354=EDGE_CURVE('',#273,#263,#240,.T.);
#355=EDGE_CURVE('',#284,#282,#167,.T.);
#356=EDGE_CURVE('',#284,#283,#168,.T.);
#357=EDGE_CURVE('',#279,#283,#169,.T.);
#358=EDGE_CURVE('',#280,#284,#170,.T.);
#359=ORIENTED_EDGE('',*,*,#285,.F.);
#360=ORIENTED_EDGE('',*,*,#286,.F.);
#361=ORIENTED_EDGE('',*,*,#287,.T.);
#362=ORIENTED_EDGE('',*,*,#288,.T.);
#363=ORIENTED_EDGE('',*,*,#289,.F.);
#364=ORIENTED_EDGE('',*,*,#290,.F.);
#365=ORIENTED_EDGE('',*,*,#291,.F.);
#366=ORIENTED_EDGE('',*,*,#292,.T.);
#367=ORIENTED_EDGE('',*,*,#293,.T.);
#368=ORIENTED_EDGE('',*,*,#287,.F.);
#369=ORIENTED_EDGE('',*,*,#294,.F.);
#370=ORIENTED_EDGE('',*,*,#286,.T.);
#371=ORIENTED_EDGE('',*,*,#295,.T.);
#372=ORIENTED_EDGE('',*,*,#296,.F.);
#373=ORIENTED_EDGE('',*,*,#297,.T.);
#374=ORIENTED_EDGE('',*,*,#285,.T.);
#375=ORIENTED_EDGE('',*,*,#298,.F.);
#376=ORIENTED_EDGE('',*,*,#299,.F.);
#377=ORIENTED_EDGE('',*,*,#300,.T.);
#378=ORIENTED_EDGE('',*,*,#301,.T.);
#379=ORIENTED_EDGE('',*,*,#293,.F.);
#380=ORIENTED_EDGE('',*,*,#302,.F.);
#381=ORIENTED_EDGE('',*,*,#303,.T.);
#382=ORIENTED_EDGE('',*,*,#298,.T.);
#383=ORIENTED_EDGE('',*,*,#288,.F.);
#384=ORIENTED_EDGE('',*,*,#289,.T.);
#385=ORIENTED_EDGE('',*,*,#304,.F.);
#386=ORIENTED_EDGE('',*,*,#301,.F.);
#387=ORIENTED_EDGE('',*,*,#305,.F.);
#388=ORIENTED_EDGE('',*,*,#290,.T.);
#389=ORIENTED_EDGE('',*,*,#306,.T.);
#390=ORIENTED_EDGE('',*,*,#291,.T.);
#391=ORIENTED_EDGE('',*,*,#305,.T.);
#392=ORIENTED_EDGE('',*,*,#300,.F.);
#393=ORIENTED_EDGE('',*,*,#307,.F.);
#394=ORIENTED_EDGE('',*,*,#308,.T.);
#395=ORIENTED_EDGE('',*,*,#292,.F.);
#396=ORIENTED_EDGE('',*,*,#308,.F.);
#397=ORIENTED_EDGE('',*,*,#309,.F.);
#398=ORIENTED_EDGE('',*,*,#302,.T.);
#399=ORIENTED_EDGE('',*,*,#310,.T.);
#400=ORIENTED_EDGE('',*,*,#304,.T.);
#401=ORIENTED_EDGE('',*,*,#294,.T.);
#402=ORIENTED_EDGE('',*,*,#311,.F.);
#403=ORIENTED_EDGE('',*,*,#312,.F.);
#404=ORIENTED_EDGE('',*,*,#313,.T.);
#405=ORIENTED_EDGE('',*,*,#314,.F.);
#406=ORIENTED_EDGE('',*,*,#311,.T.);
#407=ORIENTED_EDGE('',*,*,#296,.T.);
#408=ORIENTED_EDGE('',*,*,#315,.F.);
#409=ORIENTED_EDGE('',*,*,#316,.F.);
#410=ORIENTED_EDGE('',*,*,#317,.F.);
#411=ORIENTED_EDGE('',*,*,#318,.T.);
#412=ORIENTED_EDGE('',*,*,#315,.T.);
#413=ORIENTED_EDGE('',*,*,#295,.F.);
#414=ORIENTED_EDGE('',*,*,#319,.F.);
#415=ORIENTED_EDGE('',*,*,#297,.F.);
#416=ORIENTED_EDGE('',*,*,#319,.T.);
#417=ORIENTED_EDGE('',*,*,#309,.T.);
#418=ORIENTED_EDGE('',*,*,#307,.T.);
#419=ORIENTED_EDGE('',*,*,#299,.T.);
#420=ORIENTED_EDGE('',*,*,#303,.F.);
#421=ORIENTED_EDGE('',*,*,#310,.F.);
#422=ORIENTED_EDGE('',*,*,#320,.T.);
#423=ORIENTED_EDGE('',*,*,#316,.T.);
#424=ORIENTED_EDGE('',*,*,#306,.F.);
#425=ORIENTED_EDGE('',*,*,#312,.T.);
#426=ORIENTED_EDGE('',*,*,#314,.T.);
#427=ORIENTED_EDGE('',*,*,#318,.F.);
#428=ORIENTED_EDGE('',*,*,#321,.F.);
#429=ORIENTED_EDGE('',*,*,#321,.T.);
#430=ORIENTED_EDGE('',*,*,#317,.T.);
#431=ORIENTED_EDGE('',*,*,#320,.F.);
#432=ORIENTED_EDGE('',*,*,#313,.F.);
#433=ORIENTED_EDGE('',*,*,#322,.T.);
#434=ORIENTED_EDGE('',*,*,#323,.F.);
#435=ORIENTED_EDGE('',*,*,#324,.F.);
#436=ORIENTED_EDGE('',*,*,#325,.T.);
#437=ORIENTED_EDGE('',*,*,#326,.T.);
#438=ORIENTED_EDGE('',*,*,#324,.T.);
#439=ORIENTED_EDGE('',*,*,#327,.F.);
#440=ORIENTED_EDGE('',*,*,#328,.F.);
#441=ORIENTED_EDGE('',*,*,#329,.T.);
#442=ORIENTED_EDGE('',*,*,#330,.T.);
#443=ORIENTED_EDGE('',*,*,#331,.T.);
#444=ORIENTED_EDGE('',*,*,#332,.T.);
#445=ORIENTED_EDGE('',*,*,#333,.F.);
#446=ORIENTED_EDGE('',*,*,#325,.F.);
#447=ORIENTED_EDGE('',*,*,#334,.F.);
#448=ORIENTED_EDGE('',*,*,#335,.F.);
#449=ORIENTED_EDGE('',*,*,#336,.F.);
#450=ORIENTED_EDGE('',*,*,#337,.T.);
#451=ORIENTED_EDGE('',*,*,#338,.T.);
#452=ORIENTED_EDGE('',*,*,#322,.F.);
#453=ORIENTED_EDGE('',*,*,#327,.T.);
#454=ORIENTED_EDGE('',*,*,#323,.T.);
#455=ORIENTED_EDGE('',*,*,#338,.F.);
#456=ORIENTED_EDGE('',*,*,#339,.F.);
#457=ORIENTED_EDGE('',*,*,#340,.T.);
#458=ORIENTED_EDGE('',*,*,#326,.F.);
#459=ORIENTED_EDGE('',*,*,#341,.T.);
#460=ORIENTED_EDGE('',*,*,#335,.T.);
#461=ORIENTED_EDGE('',*,*,#342,.F.);
#462=ORIENTED_EDGE('',*,*,#330,.F.);
#463=ORIENTED_EDGE('',*,*,#343,.T.);
#464=ORIENTED_EDGE('',*,*,#329,.F.);
#465=ORIENTED_EDGE('',*,*,#344,.F.);
#466=ORIENTED_EDGE('',*,*,#345,.T.);
#467=ORIENTED_EDGE('',*,*,#336,.T.);
#468=ORIENTED_EDGE('',*,*,#343,.F.);
#469=ORIENTED_EDGE('',*,*,#328,.T.);
#470=ORIENTED_EDGE('',*,*,#340,.F.);
#471=ORIENTED_EDGE('',*,*,#346,.T.);
#472=ORIENTED_EDGE('',*,*,#344,.T.);
#473=ORIENTED_EDGE('',*,*,#347,.F.);
#474=ORIENTED_EDGE('',*,*,#348,.F.);
#475=ORIENTED_EDGE('',*,*,#349,.T.);
#476=ORIENTED_EDGE('',*,*,#350,.T.);
#477=ORIENTED_EDGE('',*,*,#331,.F.);
#478=ORIENTED_EDGE('',*,*,#341,.F.);
#479=ORIENTED_EDGE('',*,*,#351,.T.);
#480=ORIENTED_EDGE('',*,*,#352,.T.);
#481=ORIENTED_EDGE('',*,*,#332,.F.);
#482=ORIENTED_EDGE('',*,*,#350,.F.);
#483=ORIENTED_EDGE('',*,*,#353,.T.);
#484=ORIENTED_EDGE('',*,*,#354,.T.);
#485=ORIENTED_EDGE('',*,*,#333,.T.);
#486=ORIENTED_EDGE('',*,*,#352,.F.);
#487=ORIENTED_EDGE('',*,*,#355,.F.);
#488=ORIENTED_EDGE('',*,*,#356,.T.);
#489=ORIENTED_EDGE('',*,*,#334,.T.);
#490=ORIENTED_EDGE('',*,*,#354,.F.);
#491=ORIENTED_EDGE('',*,*,#346,.F.);
#492=ORIENTED_EDGE('',*,*,#339,.T.);
#493=ORIENTED_EDGE('',*,*,#337,.F.);
#494=ORIENTED_EDGE('',*,*,#345,.F.);
#495=ORIENTED_EDGE('',*,*,#347,.T.);
#496=ORIENTED_EDGE('',*,*,#342,.T.);
#497=ORIENTED_EDGE('',*,*,#353,.F.);
#498=ORIENTED_EDGE('',*,*,#357,.F.);
#499=ORIENTED_EDGE('',*,*,#349,.F.);
#500=ORIENTED_EDGE('',*,*,#358,.T.);
#501=ORIENTED_EDGE('',*,*,#355,.T.);
#502=ORIENTED_EDGE('',*,*,#351,.F.);
#503=ORIENTED_EDGE('',*,*,#358,.F.);
#504=ORIENTED_EDGE('',*,*,#348,.T.);
#505=ORIENTED_EDGE('',*,*,#357,.T.);
#506=ORIENTED_EDGE('',*,*,#356,.F.);
#507=CYLINDRICAL_SURFACE('',#561,4.5);
#508=CYLINDRICAL_SURFACE('',#575,4.5);
#509=CYLINDRICAL_SURFACE('',#589,4.5);
#510=CYLINDRICAL_SURFACE('',#603,4.5);
#511=ADVANCED_FACE('',(#55),#507,.T.);
#512=ADVANCED_FACE('',(#56),#29,.F.);
#513=ADVANCED_FACE('',(#57),#30,.T.);
#514=ADVANCED_FACE('',(#58),#31,.T.);
#515=ADVANCED_FACE('',(#59),#32,.F.);
#516=ADVANCED_FACE('',(#60),#33,.F.);
#517=ADVANCED_FACE('',(#61),#508,.T.);
#518=ADVANCED_FACE('',(#62),#34,.T.);
#519=ADVANCED_FACE('',(#63),#23,.F.);
#520=ADVANCED_FACE('',(#64),#35,.F.);
#521=ADVANCED_FACE('',(#65),#36,.T.);
#522=ADVANCED_FACE('',(#66),#37,.T.);
#523=ADVANCED_FACE('',(#67),#38,.T.);
#524=ADVANCED_FACE('',(#68),#21,.F.);
#525=ADVANCED_FACE('',(#69),#39,.T.);
#526=ADVANCED_FACE('',(#70),#40,.F.);
#527=ADVANCED_FACE('',(#71),#41,.F.);
#528=ADVANCED_FACE('',(#72),#509,.T.);
#529=ADVANCED_FACE('',(#73),#42,.T.);
#530=ADVANCED_FACE('',(#74),#43,.F.);
#531=ADVANCED_FACE('',(#75),#44,.F.);
#532=ADVANCED_FACE('',(#76),#45,.T.);
#533=ADVANCED_FACE('',(#77),#46,.T.);
#534=ADVANCED_FACE('',(#78),#510,.T.);
#535=ADVANCED_FACE('',(#79),#47,.F.);
#536=ADVANCED_FACE('',(#80),#24,.F.);
#537=ADVANCED_FACE('',(#81),#48,.T.);
#538=ADVANCED_FACE('',(#82),#49,.F.);
#539=ADVANCED_FACE('',(#83),#50,.F.);
#540=ADVANCED_FACE('',(#84),#51,.F.);
#541=ADVANCED_FACE('',(#85),#22,.F.);
#542=ADVANCED_FACE('',(#86),#52,.F.);
#543=ADVANCED_FACE('',(#87),#53,.T.);
#544=ADVANCED_FACE('',(#88),#54,.T.);
#545=CLOSED_SHELL('',(#511,#512,#513,#514,#515,#516,#517,#518,#519,#520,
#521,#522,#523,#524,#525,#526,#527));
#546=CLOSED_SHELL('',(#528,#529,#530,#531,#532,#533,#534,#535,#536,#537,
#538,#539,#540,#541,#542,#543,#544));
#547=DERIVED_UNIT_ELEMENT(#549,1.);
#548=DERIVED_UNIT_ELEMENT(#982,-3.);
#549=(
MASS_UNIT()
NAMED_UNIT(*)
SI_UNIT(.KILO.,.GRAM.)
);
#550=DERIVED_UNIT((#547,#548));
#551=MEASURE_REPRESENTATION_ITEM('density measure',
POSITIVE_RATIO_MEASURE(7850.),#550);
#552=PROPERTY_DEFINITION_REPRESENTATION(#557,#554);
#553=PROPERTY_DEFINITION_REPRESENTATION(#558,#555);
#554=REPRESENTATION('material name',(#556),#979);
#555=REPRESENTATION('density',(#551),#979);
#556=DESCRIPTIVE_REPRESENTATION_ITEM('\X2\94A2\X0\','\X2\94A2\X0\');
#557=PROPERTY_DEFINITION('material property','material name',#994);
#558=PROPERTY_DEFINITION('material property','density of part',#994);
#559=AXIS2_PLACEMENT_3D('',#784,#618,#619);
#560=AXIS2_PLACEMENT_3D('',#785,#620,#621);
#561=AXIS2_PLACEMENT_3D('',#786,#622,#623);
#562=AXIS2_PLACEMENT_3D('',#789,#624,#625);
#563=AXIS2_PLACEMENT_3D('',#793,#627,#628);
#564=AXIS2_PLACEMENT_3D('',#795,#630,#631);
#565=AXIS2_PLACEMENT_3D('',#799,#633,#634);
#566=AXIS2_PLACEMENT_3D('',#803,#636,#637);
#567=AXIS2_PLACEMENT_3D('',#805,#639,#640);
#568=AXIS2_PLACEMENT_3D('',#811,#644,#645);
#569=AXIS2_PLACEMENT_3D('',#817,#648,#649);
#570=AXIS2_PLACEMENT_3D('',#820,#651,#652);
#571=AXIS2_PLACEMENT_3D('',#821,#653,#654);
#572=AXIS2_PLACEMENT_3D('',#833,#655,#656);
#573=AXIS2_PLACEMENT_3D('',#834,#657,#658);
#574=AXIS2_PLACEMENT_3D('',#835,#659,#660);
#575=AXIS2_PLACEMENT_3D('',#836,#661,#662);
#576=AXIS2_PLACEMENT_3D('',#839,#665,#666);
#577=AXIS2_PLACEMENT_3D('',#841,#667,#668);
#578=AXIS2_PLACEMENT_3D('',#852,#669,#670);
#579=AXIS2_PLACEMENT_3D('',#853,#671,#672);
#580=AXIS2_PLACEMENT_3D('',#854,#673,#674);
#581=AXIS2_PLACEMENT_3D('',#862,#679,#680);
#582=AXIS2_PLACEMENT_3D('',#866,#683,#684);
#583=AXIS2_PLACEMENT_3D('',#872,#688,#689);
#584=AXIS2_PLACEMENT_3D('',#873,#690,#691);
#585=AXIS2_PLACEMENT_3D('',#874,#692,#693);
#586=AXIS2_PLACEMENT_3D('',#875,#694,#695);
#587=AXIS2_PLACEMENT_3D('',#877,#697,#698);
#588=AXIS2_PLACEMENT_3D('',#879,#700,#701);
#589=AXIS2_PLACEMENT_3D('',#880,#702,#703);
#590=AXIS2_PLACEMENT_3D('',#883,#704,#705);
#591=AXIS2_PLACEMENT_3D('',#887,#707,#708);
#592=AXIS2_PLACEMENT_3D('',#889,#710,#711);
#593=AXIS2_PLACEMENT_3D('',#895,#714,#715);
#594=AXIS2_PLACEMENT_3D('',#898,#717,#718);
#595=AXIS2_PLACEMENT_3D('',#899,#719,#720);
#596=AXIS2_PLACEMENT_3D('',#905,#724,#725);
#597=AXIS2_PLACEMENT_3D('',#909,#727,#728);
#598=AXIS2_PLACEMENT_3D('',#913,#730,#731);
#599=AXIS2_PLACEMENT_3D('',#915,#733,#734);
#600=AXIS2_PLACEMENT_3D('',#917,#735,#736);
#601=AXIS2_PLACEMENT_3D('',#928,#737,#738);
#602=AXIS2_PLACEMENT_3D('',#929,#739,#740);
#603=AXIS2_PLACEMENT_3D('',#930,#741,#742);
#604=AXIS2_PLACEMENT_3D('',#933,#745,#746);
#605=AXIS2_PLACEMENT_3D('',#945,#747,#748);
#606=AXIS2_PLACEMENT_3D('',#946,#749,#750);
#607=AXIS2_PLACEMENT_3D('',#947,#751,#752);
#608=AXIS2_PLACEMENT_3D('',#948,#753,#754);
#609=AXIS2_PLACEMENT_3D('',#956,#759,#760);
#610=AXIS2_PLACEMENT_3D('',#960,#763,#764);
#611=AXIS2_PLACEMENT_3D('',#963,#766,#767);
#612=AXIS2_PLACEMENT_3D('',#967,#770,#771);
#613=AXIS2_PLACEMENT_3D('',#968,#772,#773);
#614=AXIS2_PLACEMENT_3D('',#969,#774,#775);
#615=AXIS2_PLACEMENT_3D('',#971,#777,#778);
#616=AXIS2_PLACEMENT_3D('',#973,#780,#781);
#617=AXIS2_PLACEMENT_3D('',#974,#782,#783);
#618=DIRECTION('axis',(0.,0.,1.));
#619=DIRECTION('refdir',(1.,0.,0.));
#620=DIRECTION('axis',(0.,0.,1.));
#621=DIRECTION('refdir',(1.,0.,0.));
#622=DIRECTION('center_axis',(-1.22464679914735E-16,0.,-1.));
#623=DIRECTION('ref_axis',(-1.,0.,1.22464679914735E-16));
#624=DIRECTION('center_axis',(-1.22464679914735E-16,0.,-1.));
#625=DIRECTION('ref_axis',(-1.,0.,1.22464679914735E-16));
#626=DIRECTION('',(-1.22464679914735E-16,0.,-1.));
#627=DIRECTION('center_axis',(-1.22464679914735E-16,0.,-1.));
#628=DIRECTION('ref_axis',(-1.,0.,1.22464679914735E-16));
#629=DIRECTION('',(-1.22464679914735E-16,0.,-1.));
#630=DIRECTION('center_axis',(-1.22464679914735E-16,0.,-1.));
#631=DIRECTION('ref_axis',(-1.,0.,1.22464679914735E-16));
#632=DIRECTION('',(-1.,0.,1.22464679914735E-16));
#633=DIRECTION('center_axis',(-1.22464679914735E-16,0.,-1.));
#634=DIRECTION('ref_axis',(-1.,0.,1.22464679914735E-16));
#635=DIRECTION('',(0.,1.,0.));
#636=DIRECTION('center_axis',(-1.22464679914735E-16,0.,-1.));
#637=DIRECTION('ref_axis',(-1.,0.,1.22464679914735E-16));
#638=DIRECTION('',(0.,1.,0.));
#639=DIRECTION('center_axis',(0.,1.,0.));
#640=DIRECTION('ref_axis',(-1.22464679914735E-16,0.,-1.));
#641=DIRECTION('',(-1.,0.,1.22464679914735E-16));
#642=DIRECTION('',(-1.,0.,1.22464679914735E-16));
#643=DIRECTION('',(-1.22464679914735E-16,0.,-1.));
#644=DIRECTION('center_axis',(-1.22464679914735E-16,0.,-1.));
#645=DIRECTION('ref_axis',(-1.,0.,1.22464679914735E-16));
#646=DIRECTION('',(-1.,0.,1.22464679914735E-16));
#647=DIRECTION('',(0.,1.,0.));
#648=DIRECTION('center_axis',(-1.22464679914735E-16,0.,-1.));
#649=DIRECTION('ref_axis',(-1.,0.,1.22464679914735E-16));
#650=DIRECTION('',(0.,1.,0.));
#651=DIRECTION('center_axis',(-1.22464679914735E-16,0.,-1.));
#652=DIRECTION('ref_axis',(-1.,0.,1.22464679914735E-16));
#653=DIRECTION('center_axis',(-1.,0.,1.22464679914735E-16));
#654=DIRECTION('ref_axis',(-1.22464679914735E-16,0.,-1.));
#655=DIRECTION('center_axis',(-1.,0.,1.22464679914735E-16));
#656=DIRECTION('ref_axis',(-1.22464679914735E-16,0.,-1.));
#657=DIRECTION('center_axis',(-1.22464679914735E-16,0.,-1.));
#658=DIRECTION('ref_axis',(-1.,0.,1.22464679914735E-16));
#659=DIRECTION('center_axis',(-1.22464679914735E-16,0.,-1.));
#660=DIRECTION('ref_axis',(-1.,0.,1.22464679914735E-16));
#661=DIRECTION('center_axis',(-1.22464679914735E-16,0.,-1.));
#662=DIRECTION('ref_axis',(0.982406627155267,0.186754434810559,-1.20310113140685E-16));
#663=DIRECTION('',(-1.22464679914735E-16,0.,-1.));
#664=DIRECTION('',(-1.22464679914735E-16,0.,-1.));
#665=DIRECTION('center_axis',(-1.,0.,1.22464679914735E-16));
#666=DIRECTION('ref_axis',(-1.22464679914735E-16,0.,-1.));
#667=DIRECTION('center_axis',(-1.,0.,1.22464679914735E-16));
#668=DIRECTION('ref_axis',(-1.22464679914735E-16,0.,-1.));
#669=DIRECTION('center_axis',(1.22464679914735E-16,0.,1.));
#670=DIRECTION('ref_axis',(1.04899068466779E-15,-1.,-1.33977735261721E-31));
#671=DIRECTION('center_axis',(1.22464679914735E-16,0.,1.));
#672=DIRECTION('ref_axis',(0.,1.,0.));
#673=DIRECTION('center_axis',(-1.22464679914735E-16,0.,-1.));
#674=DIRECTION('ref_axis',(-1.,0.,1.22464679914735E-16));
#675=DIRECTION('',(-1.,0.,1.22464679914735E-16));
#676=DIRECTION('',(0.,1.,0.));
#677=DIRECTION('',(-1.,0.,1.22464679914735E-16));
#678=DIRECTION('',(0.,1.,0.));
#679=DIRECTION('center_axis',(-1.,0.,1.22464679914735E-16));
#680=DIRECTION('ref_axis',(-1.22464679914735E-16,0.,-1.));
#681=DIRECTION('',(-1.22464679914735E-16,0.,-1.));
#682=DIRECTION('',(0.,1.,0.));
#683=DIRECTION('center_axis',(-1.22464679914735E-16,0.,-1.));
#684=DIRECTION('ref_axis',(-1.,0.,1.22464679914735E-16));
#685=DIRECTION('',(-1.,0.,1.22464679914735E-16));
#686=DIRECTION('',(0.,1.,0.));
#687=DIRECTION('',(-1.,0.,1.22464679914735E-16));
#688=DIRECTION('center_axis',(-1.22464679914735E-16,0.,-1.));
#689=DIRECTION('ref_axis',(-1.,0.,1.22464679914735E-16));
#690=DIRECTION('center_axis',(-1.22464679914735E-16,0.,-1.));
#691=DIRECTION('ref_axis',(-1.,0.,1.22464679914735E-16));
#692=DIRECTION('center_axis',(0.,-6.12320384678756E-17,-1.));
#693=DIRECTION('ref_axis',(0.00313805192304556,-0.999995076302943,0.));
#694=DIRECTION('center_axis',(0.,1.,0.));
#695=DIRECTION('ref_axis',(-1.22464679914735E-16,0.,-1.));
#696=DIRECTION('',(-1.22464679914735E-16,0.,-1.));
#697=DIRECTION('center_axis',(0.,1.,0.));
#698=DIRECTION('ref_axis',(-1.22464679914735E-16,0.,-1.));
#699=DIRECTION('',(-1.22464679914735E-16,0.,-1.));
#700=DIRECTION('center_axis',(-1.,0.,1.22464679914735E-16));
#701=DIRECTION('ref_axis',(-1.22464679914735E-16,0.,-1.));
#702=DIRECTION('center_axis',(1.22464679914735E-16,0.,1.));
#703=DIRECTION('ref_axis',(-1.,0.,1.22464679914735E-16));
#704=DIRECTION('center_axis',(1.22464679914735E-16,0.,1.));
#705=DIRECTION('ref_axis',(-1.,0.,1.22464679914735E-16));
#706=DIRECTION('',(-1.22464679914735E-16,0.,-1.));
#707=DIRECTION('center_axis',(1.22464679914735E-16,0.,1.));
#708=DIRECTION('ref_axis',(-1.,0.,1.22464679914735E-16));
#709=DIRECTION('',(-1.22464679914735E-16,0.,-1.));
#710=DIRECTION('center_axis',(1.22464679914735E-16,0.,1.));
#711=DIRECTION('ref_axis',(-1.,0.,1.22464679914735E-16));
#712=DIRECTION('',(-1.,0.,1.22464679914735E-16));
#713=DIRECTION('',(0.,-1.,0.));
#714=DIRECTION('center_axis',(1.22464679914735E-16,0.,1.));
#715=DIRECTION('ref_axis',(-1.,0.,1.22464679914735E-16));
#716=DIRECTION('',(0.,-1.,0.));
#717=DIRECTION('center_axis',(1.22464679914735E-16,0.,1.));
#718=DIRECTION('ref_axis',(-1.,0.,1.22464679914735E-16));
#719=DIRECTION('center_axis',(0.,1.,0.));
#720=DIRECTION('ref_axis',(-1.22464679914735E-16,0.,-1.));
#721=DIRECTION('',(-1.,0.,1.22464679914735E-16));
#722=DIRECTION('',(-1.22464679914735E-16,0.,-1.));
#723=DIRECTION('',(-1.,0.,1.22464679914735E-16));
#724=DIRECTION('center_axis',(1.22464679914735E-16,0.,1.));
#725=DIRECTION('ref_axis',(-1.,0.,1.22464679914735E-16));
#726=DIRECTION('',(-1.,0.,1.22464679914735E-16));
#727=DIRECTION('center_axis',(1.22464679914735E-16,0.,1.));
#728=DIRECTION('ref_axis',(-1.,0.,1.22464679914735E-16));
#729=DIRECTION('',(0.,-1.,0.));
#730=DIRECTION('center_axis',(1.22464679914735E-16,0.,1.));
#731=DIRECTION('ref_axis',(-1.,0.,1.22464679914735E-16));
#732=DIRECTION('',(0.,-1.,0.));
#733=DIRECTION('center_axis',(1.,0.,-1.22464679914735E-16));
#734=DIRECTION('ref_axis',(-1.22464679914735E-16,0.,-1.));
#735=DIRECTION('center_axis',(1.,0.,-1.22464679914735E-16));
#736=DIRECTION('ref_axis',(-1.22464679914735E-16,0.,-1.));
#737=DIRECTION('center_axis',(1.22464679914735E-16,0.,1.));
#738=DIRECTION('ref_axis',(-1.,0.,1.22464679914735E-16));
#739=DIRECTION('center_axis',(1.22464679914735E-16,0.,1.));
#740=DIRECTION('ref_axis',(-1.,0.,1.22464679914735E-16));
#741=DIRECTION('center_axis',(1.22464679914735E-16,0.,1.));
#742=DIRECTION('ref_axis',(0.982406627155267,-0.186754434810559,-1.20310113140685E-16));
#743=DIRECTION('',(-1.22464679914735E-16,0.,-1.));
#744=DIRECTION('',(-1.22464679914735E-16,0.,-1.));
#745=DIRECTION('center_axis',(1.,0.,-1.22464679914735E-16));
#746=DIRECTION('ref_axis',(-1.22464679914735E-16,0.,-1.));
#747=DIRECTION('center_axis',(1.,0.,-1.22464679914735E-16));
#748=DIRECTION('ref_axis',(-1.22464679914735E-16,0.,-1.));
#749=DIRECTION('center_axis',(1.22464679914735E-16,0.,1.));
#750=DIRECTION('ref_axis',(1.04899068466779E-15,1.,-1.33977735261721E-31));
#751=DIRECTION('center_axis',(-1.22464679914735E-16,0.,-1.));
#752=DIRECTION('ref_axis',(0.,-1.,0.));
#753=DIRECTION('center_axis',(1.22464679914735E-16,0.,1.));
#754=DIRECTION('ref_axis',(-1.,0.,1.22464679914735E-16));
#755=DIRECTION('',(-1.,0.,1.22464679914735E-16));
#756=DIRECTION('',(0.,-1.,0.));
#757=DIRECTION('',(-1.,0.,1.22464679914735E-16));
#758=DIRECTION('',(0.,-1.,0.));
#759=DIRECTION('center_axis',(1.,0.,-1.22464679914735E-16));
#760=DIRECTION('ref_axis',(-1.22464679914735E-16,0.,-1.));
#761=DIRECTION('',(-1.22464679914735E-16,0.,-1.));
#762=DIRECTION('',(0.,-1.,0.));
#763=DIRECTION('center_axis',(1.22464679914735E-16,0.,1.));
#764=DIRECTION('ref_axis',(-1.,0.,1.22464679914735E-16));
#765=DIRECTION('',(-1.,0.,1.22464679914735E-16));
#766=DIRECTION('center_axis',(1.22464679914735E-16,0.,1.));
#767=DIRECTION('ref_axis',(-1.,0.,1.22464679914735E-16));
#768=DIRECTION('',(-1.,0.,1.22464679914735E-16));
#769=DIRECTION('',(0.,-1.,0.));
#770=DIRECTION('center_axis',(1.22464679914735E-16,0.,1.));
#771=DIRECTION('ref_axis',(-1.,0.,1.22464679914735E-16));
#772=DIRECTION('center_axis',(0.,0.,-1.));
#773=DIRECTION('ref_axis',(-0.00313805192304138,-0.999995076302943,0.));
#774=DIRECTION('center_axis',(0.,1.,0.));
#775=DIRECTION('ref_axis',(-1.22464679914735E-16,0.,-1.));
#776=DIRECTION('',(-1.22464679914735E-16,0.,-1.));
#777=DIRECTION('center_axis',(0.,1.,0.));
#778=DIRECTION('ref_axis',(-1.22464679914735E-16,0.,-1.));
#779=DIRECTION('',(-1.22464679914735E-16,0.,-1.));
#780=DIRECTION('center_axis',(1.,0.,-1.22464679914735E-16));
#781=DIRECTION('ref_axis',(-1.22464679914735E-16,0.,-1.));
#782=DIRECTION('',(0.,0.,1.));
#783=DIRECTION('',(1.,0.,0.));
#784=CARTESIAN_POINT('',(0.,0.,0.));
#785=CARTESIAN_POINT('',(0.,0.,0.));
#786=CARTESIAN_POINT('Origin',(32.,0.,3.8));
#787=CARTESIAN_POINT('',(29.938447187191,-4.,5.55111512312578E-16));
#788=CARTESIAN_POINT('',(31.55,4.47744346698,0.));
#789=CARTESIAN_POINT('Origin',(32.,0.,0.));
#790=CARTESIAN_POINT('',(29.938447187191,-4.,3.8));
#791=CARTESIAN_POINT('',(29.938447187191,-4.,3.8));
#792=CARTESIAN_POINT('',(31.55,4.47744346698,3.8));
#793=CARTESIAN_POINT('Origin',(32.,0.,3.8));
#794=CARTESIAN_POINT('',(31.55,4.47744346698,3.8));
#795=CARTESIAN_POINT('Origin',(32.,0.,3.8));
#796=CARTESIAN_POINT('',(34.061552812809,-4.,3.8));
#797=CARTESIAN_POINT('',(34.5,-4.,3.8));
#798=CARTESIAN_POINT('',(32.45,4.47744346698,3.8));
#799=CARTESIAN_POINT('Origin',(32.,0.,3.8));
#800=CARTESIAN_POINT('',(32.45,2.250150014222,3.8));
#801=CARTESIAN_POINT('',(32.45,0.,3.8));
#802=CARTESIAN_POINT('',(31.55,2.250150014222,3.8));
#803=CARTESIAN_POINT('Origin',(32.,0.,3.8));
#804=CARTESIAN_POINT('',(31.55,0.,3.8));
#805=CARTESIAN_POINT('Origin',(34.5,-4.,3.8));
#806=CARTESIAN_POINT('',(29.5,-4.,3.8));
#807=CARTESIAN_POINT('',(34.5,-4.,3.8));
#808=CARTESIAN_POINT('',(29.5,-4.,5.55111512312578E-16));
#809=CARTESIAN_POINT('',(34.5,-4.,0.));
#810=CARTESIAN_POINT('',(29.5,-4.,3.8));
#811=CARTESIAN_POINT('Origin',(32.,0.,0.));
#812=CARTESIAN_POINT('',(34.061552812809,-4.,0.));
#813=CARTESIAN_POINT('',(34.5,-4.,0.));
#814=CARTESIAN_POINT('',(31.55,1.640121946686,0.));
#815=CARTESIAN_POINT('',(31.55,0.,0.));
#816=CARTESIAN_POINT('',(32.45,1.640121946686,0.));
#817=CARTESIAN_POINT('Origin',(32.,0.,0.));
#818=CARTESIAN_POINT('',(32.45,4.47744346698,0.));
#819=CARTESIAN_POINT('',(32.45,0.,0.));
#820=CARTESIAN_POINT('Origin',(32.,0.,0.));
#821=CARTESIAN_POINT('Origin',(31.55,0.,3.9));
#822=CARTESIAN_POINT('',(31.55,2.02474043983,3.383383346043));
#823=CARTESIAN_POINT('Ctrl Pts',(31.55,2.25015001422172,3.80000000000015));
#824=CARTESIAN_POINT('Ctrl Pts',(31.55,2.21591405764328,3.7365877266954));
#825=CARTESIAN_POINT('Ctrl Pts',(31.55,2.18305541021594,3.67578210055205));
#826=CARTESIAN_POINT('Ctrl Pts',(31.55,2.15141830075961,3.61728894886788));
#827=CARTESIAN_POINT('Ctrl Pts',(31.55,2.11804336275253,3.5555827644267));
#828=CARTESIAN_POINT('Ctrl Pts',(31.55,2.08602796522268,3.49645030432532));
#829=CARTESIAN_POINT('Ctrl Pts',(31.55,2.05521638356144,3.43959749579119));
#830=CARTESIAN_POINT('Ctrl Pts',(31.55,2.04492496472226,3.42060801088769));
#831=CARTESIAN_POINT('Ctrl Pts',(31.55,2.03476805446635,3.40187324228255));
#832=CARTESIAN_POINT('Ctrl Pts',(31.55,2.02474043982926,3.3833833460434));
#833=CARTESIAN_POINT('Origin',(31.55,0.,1.9));
#834=CARTESIAN_POINT('Origin',(32.,0.,3.8));
#835=CARTESIAN_POINT('Origin',(32.,0.,3.8));
#836=CARTESIAN_POINT('Origin',(32.,0.,3.8));
#837=CARTESIAN_POINT('',(32.45,4.47744346698,3.8));
#838=CARTESIAN_POINT('',(34.061552812809,-4.,3.8));
#839=CARTESIAN_POINT('Origin',(32.45,0.,3.9));
#840=CARTESIAN_POINT('',(32.45,2.02474043983,3.383383346043));
#841=CARTESIAN_POINT('Origin',(32.45,0.,1.9));
#842=CARTESIAN_POINT('Ctrl Pts',(32.45,2.25015001422172,3.80000000000015));
#843=CARTESIAN_POINT('Ctrl Pts',(32.45,2.21591405764328,3.7365877266954));
#844=CARTESIAN_POINT('Ctrl Pts',(32.45,2.18305541021594,3.67578210055205));
#845=CARTESIAN_POINT('Ctrl Pts',(32.45,2.15141830075961,3.61728894886788));
#846=CARTESIAN_POINT('Ctrl Pts',(32.45,2.11804336275253,3.5555827644267));
#847=CARTESIAN_POINT('Ctrl Pts',(32.45,2.08602796522268,3.49645030432532));
#848=CARTESIAN_POINT('Ctrl Pts',(32.45,2.05521638356144,3.43959749579119));
#849=CARTESIAN_POINT('Ctrl Pts',(32.45,2.04492496472226,3.42060801088769));
#850=CARTESIAN_POINT('Ctrl Pts',(32.45,2.03476805446635,3.40187324228255));
#851=CARTESIAN_POINT('Ctrl Pts',(32.45,2.02474043982926,3.3833833460434));
#852=CARTESIAN_POINT('Origin',(32.,0.,3.81));
#853=CARTESIAN_POINT('Origin',(32.,0.,3.383383346043));
#854=CARTESIAN_POINT('Origin',(34.5,-8.5,3.8));
#855=CARTESIAN_POINT('',(34.5,-4.,3.8));
#856=CARTESIAN_POINT('',(34.5,-4.,3.8));
#857=CARTESIAN_POINT('',(29.5,-8.5,3.8));
#858=CARTESIAN_POINT('',(29.5,-8.5,3.8));
#859=CARTESIAN_POINT('',(34.5,-8.5,3.8));
#860=CARTESIAN_POINT('',(34.5,-8.5,3.8));
#861=CARTESIAN_POINT('',(34.5,-8.5,3.8));
#862=CARTESIAN_POINT('Origin',(29.5,-8.5,3.8));
#863=CARTESIAN_POINT('',(29.5,-8.5,5.55111512312578E-16));
#864=CARTESIAN_POINT('',(29.5,-8.5,3.8));
#865=CARTESIAN_POINT('',(29.5,-8.5,5.55111512312578E-16));
#866=CARTESIAN_POINT('Origin',(34.5,-8.5,0.));
#867=CARTESIAN_POINT('',(34.5,-4.,0.));
#868=CARTESIAN_POINT('',(34.5,-4.,0.));
#869=CARTESIAN_POINT('',(34.5,-8.5,0.));
#870=CARTESIAN_POINT('',(34.5,-8.5,0.));
#871=CARTESIAN_POINT('',(34.5,-8.5,0.));
#872=CARTESIAN_POINT('Origin',(32.,0.,0.));
#873=CARTESIAN_POINT('Origin',(32.,0.,0.));
#874=CARTESIAN_POINT('Origin',(32.,0.,1.9));
#875=CARTESIAN_POINT('Origin',(34.5,-4.,3.8));
#876=CARTESIAN_POINT('',(34.5,-4.,3.8));
#877=CARTESIAN_POINT('Origin',(34.5,-8.5,3.8));
#878=CARTESIAN_POINT('',(34.5,-8.5,3.8));
#879=CARTESIAN_POINT('Origin',(34.5,-8.5,3.8));
#880=CARTESIAN_POINT('Origin',(32.,-17.,3.8));
#881=CARTESIAN_POINT('',(29.938447187191,-13.,5.55111512312578E-16));
#882=CARTESIAN_POINT('',(31.55,-21.47744346698,0.));
#883=CARTESIAN_POINT('Origin',(32.,-17.,0.));
#884=CARTESIAN_POINT('',(31.55,-21.47744346698,3.8));
#885=CARTESIAN_POINT('',(31.55,-21.47744346698,3.8));
#886=CARTESIAN_POINT('',(29.938447187191,-13.,3.8));
#887=CARTESIAN_POINT('Origin',(32.,-17.,3.8));
#888=CARTESIAN_POINT('',(29.938447187191,-13.,3.8));
#889=CARTESIAN_POINT('Origin',(32.,-17.,3.8));
#890=CARTESIAN_POINT('',(34.061552812809,-13.,3.8));
#891=CARTESIAN_POINT('',(34.5,-13.,3.8));
#892=CARTESIAN_POINT('',(31.55,-19.250150014222,3.8));
#893=CARTESIAN_POINT('',(31.55,-17.,3.8));
#894=CARTESIAN_POINT('',(32.45,-19.250150014222,3.8));
#895=CARTESIAN_POINT('Origin',(32.,-17.,3.8));
#896=CARTESIAN_POINT('',(32.45,-21.47744346698,3.8));
#897=CARTESIAN_POINT('',(32.45,-17.,3.8));
#898=CARTESIAN_POINT('Origin',(32.,-17.,3.8));
#899=CARTESIAN_POINT('Origin',(34.5,-13.,3.8));
#900=CARTESIAN_POINT('',(29.5,-13.,3.8));
#901=CARTESIAN_POINT('',(34.5,-13.,3.8));
#902=CARTESIAN_POINT('',(29.5,-13.,5.55111512312578E-16));
#903=CARTESIAN_POINT('',(29.5,-13.,3.8));
#904=CARTESIAN_POINT('',(34.5,-13.,0.));
#905=CARTESIAN_POINT('Origin',(32.,-17.,0.));
#906=CARTESIAN_POINT('',(34.061552812809,-13.,0.));
#907=CARTESIAN_POINT('',(34.5,-13.,0.));
#908=CARTESIAN_POINT('',(32.45,-21.47744346698,0.));
#909=CARTESIAN_POINT('Origin',(32.,-17.,0.));
#910=CARTESIAN_POINT('',(32.45,-18.640121946686,0.));
#911=CARTESIAN_POINT('',(32.45,-17.,0.));
#912=CARTESIAN_POINT('',(31.55,-18.640121946686,0.));
#913=CARTESIAN_POINT('Origin',(32.,-17.,0.));
#914=CARTESIAN_POINT('',(31.55,-17.,0.));
#915=CARTESIAN_POINT('Origin',(31.55,-17.,3.9));
#916=CARTESIAN_POINT('',(31.55,-19.02474043983,3.383383346043));
#917=CARTESIAN_POINT('Origin',(31.55,-17.,1.9));
#918=CARTESIAN_POINT('Ctrl Pts',(31.55,-19.2501500142217,3.80000000000015));
#919=CARTESIAN_POINT('Ctrl Pts',(31.55,-19.2159140576433,3.7365877266954));
#920=CARTESIAN_POINT('Ctrl Pts',(31.55,-19.1830554102159,3.67578210055205));
#921=CARTESIAN_POINT('Ctrl Pts',(31.55,-19.1514183007596,3.61728894886788));
#922=CARTESIAN_POINT('Ctrl Pts',(31.55,-19.1180433627525,3.5555827644267));
#923=CARTESIAN_POINT('Ctrl Pts',(31.55,-19.0860279652227,3.49645030432532));
#924=CARTESIAN_POINT('Ctrl Pts',(31.55,-19.0552163835614,3.43959749579119));
#925=CARTESIAN_POINT('Ctrl Pts',(31.55,-19.0449249647223,3.42060801088769));
#926=CARTESIAN_POINT('Ctrl Pts',(31.55,-19.0347680544663,3.40187324228255));
#927=CARTESIAN_POINT('Ctrl Pts',(31.55,-19.0247404398293,3.3833833460434));
#928=CARTESIAN_POINT('Origin',(32.,-17.,3.8));
#929=CARTESIAN_POINT('Origin',(32.,-17.,3.8));
#930=CARTESIAN_POINT('Origin',(32.,-17.,3.8));
#931=CARTESIAN_POINT('',(34.061552812809,-13.,3.8));
#932=CARTESIAN_POINT('',(32.45,-21.47744346698,3.8));
#933=CARTESIAN_POINT('Origin',(32.45,-17.,3.9));
#934=CARTESIAN_POINT('',(32.45,-19.02474043983,3.383383346043));
#935=CARTESIAN_POINT('Ctrl Pts',(32.45,-19.2501500142217,3.80000000000015));
#936=CARTESIAN_POINT('Ctrl Pts',(32.45,-19.2159140576433,3.7365877266954));
#937=CARTESIAN_POINT('Ctrl Pts',(32.45,-19.1830554102159,3.67578210055205));
#938=CARTESIAN_POINT('Ctrl Pts',(32.45,-19.1514183007596,3.61728894886788));
#939=CARTESIAN_POINT('Ctrl Pts',(32.45,-19.1180433627525,3.5555827644267));
#940=CARTESIAN_POINT('Ctrl Pts',(32.45,-19.0860279652227,3.49645030432532));
#941=CARTESIAN_POINT('Ctrl Pts',(32.45,-19.0552163835614,3.43959749579119));
#942=CARTESIAN_POINT('Ctrl Pts',(32.45,-19.0449249647223,3.42060801088769));
#943=CARTESIAN_POINT('Ctrl Pts',(32.45,-19.0347680544663,3.40187324228255));
#944=CARTESIAN_POINT('Ctrl Pts',(32.45,-19.0247404398293,3.3833833460434));
#945=CARTESIAN_POINT('Origin',(32.45,-17.,1.9));
#946=CARTESIAN_POINT('Origin',(32.,-17.,3.81));
#947=CARTESIAN_POINT('Origin',(32.,-17.,3.383383346043));
#948=CARTESIAN_POINT('Origin',(34.5,-8.5,3.8));
#949=CARTESIAN_POINT('',(34.5,-13.,3.8));
#950=CARTESIAN_POINT('',(34.5,-13.,3.8));
#951=CARTESIAN_POINT('',(34.5,-8.5,3.8));
#952=CARTESIAN_POINT('',(34.5,-8.5,3.8));
#953=CARTESIAN_POINT('',(29.5,-8.5,3.8));
#954=CARTESIAN_POINT('',(34.5,-8.5,3.8));
#955=CARTESIAN_POINT('',(29.5,-8.5,3.8));
#956=CARTESIAN_POINT('Origin',(29.5,-8.5,3.8));
#957=CARTESIAN_POINT('',(29.5,-8.5,5.55111512312578E-16));
#958=CARTESIAN_POINT('',(29.5,-8.5,3.8));
#959=CARTESIAN_POINT('',(29.5,-8.5,5.55111512312578E-16));
#960=CARTESIAN_POINT('Origin',(34.5,-8.5,0.));
#961=CARTESIAN_POINT('',(34.5,-13.,0.));
#962=CARTESIAN_POINT('',(34.5,-13.,0.));
#963=CARTESIAN_POINT('Origin',(32.,-17.,0.));
#964=CARTESIAN_POINT('',(34.5,-8.5,0.));
#965=CARTESIAN_POINT('',(34.5,-8.5,0.));
#966=CARTESIAN_POINT('',(34.5,-8.5,0.));
#967=CARTESIAN_POINT('Origin',(32.,-17.,0.));
#968=CARTESIAN_POINT('Origin',(32.,-17.,1.9));
#969=CARTESIAN_POINT('Origin',(34.5,-13.,3.8));
#970=CARTESIAN_POINT('',(34.5,-13.,3.8));
#971=CARTESIAN_POINT('Origin',(34.5,-8.5,3.8));
#972=CARTESIAN_POINT('',(34.5,-8.5,3.8));
#973=CARTESIAN_POINT('Origin',(34.5,-8.5,3.8));
#974=CARTESIAN_POINT('',(0.,0.,0.));
#975=UNCERTAINTY_MEASURE_WITH_UNIT(LENGTH_MEASURE(0.01),#981,
'DISTANCE_ACCURACY_VALUE',
'Maximum model space distance between geometric entities at asserted c
onnectivities');
#976=UNCERTAINTY_MEASURE_WITH_UNIT(LENGTH_MEASURE(0.01),#981,
'DISTANCE_ACCURACY_VALUE',
'Maximum model space distance between geometric entities at asserted c
onnectivities');
#977=UNCERTAINTY_MEASURE_WITH_UNIT(LENGTH_MEASURE(0.01),#981,
'DISTANCE_ACCURACY_VALUE',
'Maximum model space distance between geometric entities at asserted c
onnectivities');
#978=(
GEOMETRIC_REPRESENTATION_CONTEXT(3)
GLOBAL_UNCERTAINTY_ASSIGNED_CONTEXT((#975))
GLOBAL_UNIT_ASSIGNED_CONTEXT((#981,#983,#984))
REPRESENTATION_CONTEXT('','3D')
);
#979=(
GEOMETRIC_REPRESENTATION_CONTEXT(3)
GLOBAL_UNCERTAINTY_ASSIGNED_CONTEXT((#976))
GLOBAL_UNIT_ASSIGNED_CONTEXT((#981,#983,#984))
REPRESENTATION_CONTEXT('','3D')
);
#980=(
GEOMETRIC_REPRESENTATION_CONTEXT(3)
GLOBAL_UNCERTAINTY_ASSIGNED_CONTEXT((#977))
GLOBAL_UNIT_ASSIGNED_CONTEXT((#981,#983,#984))
REPRESENTATION_CONTEXT('','3D')
);
#981=(
LENGTH_UNIT()
NAMED_UNIT(*)
SI_UNIT(.MILLI.,.METRE.)
);
#982=(
LENGTH_UNIT()
NAMED_UNIT(*)
SI_UNIT($,.METRE.)
);
#983=(
NAMED_UNIT(*)
PLANE_ANGLE_UNIT()
SI_UNIT($,.RADIAN.)
);
#984=(
NAMED_UNIT(*)
SI_UNIT($,.STERADIAN.)
SOLID_ANGLE_UNIT()
);
#985=SHAPE_DEFINITION_REPRESENTATION(#987,#990);
#986=SHAPE_DEFINITION_REPRESENTATION(#988,#991);
#987=PRODUCT_DEFINITION_SHAPE('',$,#993);
#988=PRODUCT_DEFINITION_SHAPE('',$,#994);
#989=PRODUCT_DEFINITION_SHAPE($,$,#14);
#990=SHAPE_REPRESENTATION('',(#559,#617),#978);
#991=SHAPE_REPRESENTATION('',(#560),#979);
#992=PRODUCT_DEFINITION_CONTEXT('part definition',#1000,'design');
#993=PRODUCT_DEFINITION('2026-07-07-03-34-16-915',
'rod ends 5.1 \X2\95F49699\X0\(0.30)',#995,#992);
#994=PRODUCT_DEFINITION('2026-07-07-03-34-16-918','5.1 \X2\95F49699\X0\ 
0.30',#996,#992);
#995=PRODUCT_DEFINITION_FORMATION('',$,#1002);
#996=PRODUCT_DEFINITION_FORMATION('',$,#1003);
#997=PRODUCT_RELATED_PRODUCT_CATEGORY('rod ends 5.1 \X2\95F49699\X0\(0.
30)','rod ends 5.1 \X2\95F49699\X0\(0.30)',(#1002));
#998=PRODUCT_RELATED_PRODUCT_CATEGORY('5.1 \X2\95F49699\X0\ 0.30',
'5.1 \X2\95F49699\X0\ 0.30',(#1003));
#999=APPLICATION_PROTOCOL_DEFINITION('international standard',
'automotive_design',2009,#1000);
#1000=APPLICATION_CONTEXT(
'Core Data for Automotive Mechanical Design Process');
#1001=PRODUCT_CONTEXT('part definition',#1000,'mechanical');
#1002=PRODUCT('2026-07-07-03-34-16-915','rod ends 5.1 \X2\95F49699\X0\(
0.30)','Open CASCADE Model',(#1001));
#1003=PRODUCT('2026-07-07-03-34-16-918','5.1 \X2\95F49699\X0\ 0.30',$,(#1001));
#1004=PRESENTATION_STYLE_ASSIGNMENT((#1005));
#1005=SURFACE_STYLE_USAGE(.BOTH.,#1006);
#1006=SURFACE_SIDE_STYLE('',(#1007));
#1007=SURFACE_STYLE_FILL_AREA(#1008);
#1008=FILL_AREA_STYLE('\X2\94A2\X0\ - \X2\7F0E5149\X0\',(#1009));
#1009=FILL_AREA_STYLE_COLOUR('\X2\94A2\X0\ - \X2\7F0E5149\X0\',#1010);
#1010=COLOUR_RGB('\X2\94A2\X0\ - \X2\7F0E5149\X0\',0.627450980392157,0.627450980392157,
0.627450980392157);
ENDSEC;
END-ISO-10303-21;
