ISO-10303-21;
HEADER;
/* Generated by software containing ST-Developer
 * from STEP Tools, Inc. (www.steptools.com) 
 */

FILE_DESCRIPTION(
/* description */ (''),
/* implementation_level */ '2;1');

FILE_NAME(
/* name */ 'SAK-F78C.step',
/* time_stamp */ '2026-08-11T12:40:35+09:00',
/* author */ (''),
/* organization */ (''),
/* preprocessor_version */ 'ST-DEVELOPER v20.1',
/* originating_system */ 'Autodesk Translation Framework v15.8.0.0',
/* authorisation */ '');

FILE_SCHEMA (('AUTOMOTIVE_DESIGN { 1 0 10303 214 3 1 1 }'));
ENDSEC;

DATA;
#10=MECHANICAL_DESIGN_GEOMETRIC_PRESENTATION_REPRESENTATION('',(#13),#215);
#11=SHAPE_REPRESENTATION_RELATIONSHIP('SRR','None',#222,#12);
#12=ADVANCED_BREP_SHAPE_REPRESENTATION('',(#14),#214);
#13=STYLED_ITEM('',(#231),#14);
#14=MANIFOLD_SOLID_BREP('\X2\5B9E4F53\X0\1',#115);
#15=FACE_BOUND('',#34,.T.);
#16=FACE_BOUND('',#37,.T.);
#17=FACE_BOUND('',#40,.T.);
#18=FACE_BOUND('',#42,.T.);
#19=PLANE('',#135);
#20=PLANE('',#139);
#21=PLANE('',#143);
#22=PLANE('',#144);
#23=FACE_OUTER_BOUND('',#31,.T.);
#24=FACE_OUTER_BOUND('',#32,.T.);
#25=FACE_OUTER_BOUND('',#33,.T.);
#26=FACE_OUTER_BOUND('',#35,.T.);
#27=FACE_OUTER_BOUND('',#36,.T.);
#28=FACE_OUTER_BOUND('',#38,.T.);
#29=FACE_OUTER_BOUND('',#39,.T.);
#30=FACE_OUTER_BOUND('',#41,.T.);
#31=EDGE_LOOP('',(#79,#80,#81,#82));
#32=EDGE_LOOP('',(#83,#84,#85,#86));
#33=EDGE_LOOP('',(#87));
#34=EDGE_LOOP('',(#88));
#35=EDGE_LOOP('',(#89,#90,#91,#92));
#36=EDGE_LOOP('',(#93));
#37=EDGE_LOOP('',(#94));
#38=EDGE_LOOP('',(#95,#96,#97,#98));
#39=EDGE_LOOP('',(#99));
#40=EDGE_LOOP('',(#100));
#41=EDGE_LOOP('',(#101));
#42=EDGE_LOOP('',(#102));
#43=LINE('',#188,#47);
#44=LINE('',#194,#48);
#45=LINE('',#202,#49);
#46=LINE('',#209,#50);
#47=VECTOR('',#151,1.3);
#48=VECTOR('',#158,2.9);
#49=VECTOR('',#169,2.20000000000001);
#50=VECTOR('',#178,2.9);
#51=CIRCLE('',#130,1.3);
#52=CIRCLE('',#131,1.3);
#53=CIRCLE('',#133,2.9);
#54=CIRCLE('',#134,2.9);
#55=CIRCLE('',#136,2.2);
#56=CIRCLE('',#138,2.2);
#57=CIRCLE('',#140,2.9);
#58=CIRCLE('',#142,2.9);
#59=VERTEX_POINT('',#185);
#60=VERTEX_POINT('',#187);
#61=VERTEX_POINT('',#191);
#62=VERTEX_POINT('',#193);
#63=VERTEX_POINT('',#197);
#64=VERTEX_POINT('',#200);
#65=VERTEX_POINT('',#204);
#66=VERTEX_POINT('',#207);
#67=EDGE_CURVE('',#59,#59,#51,.T.);
#68=EDGE_CURVE('',#59,#60,#43,.T.);
#69=EDGE_CURVE('',#60,#60,#52,.T.);
#70=EDGE_CURVE('',#61,#61,#53,.T.);
#71=EDGE_CURVE('',#61,#62,#44,.T.);
#72=EDGE_CURVE('',#62,#62,#54,.T.);
#73=EDGE_CURVE('',#63,#63,#55,.T.);
#74=EDGE_CURVE('',#64,#64,#56,.T.);
#75=EDGE_CURVE('',#64,#63,#45,.T.);
#76=EDGE_CURVE('',#65,#65,#57,.T.);
#77=EDGE_CURVE('',#66,#66,#58,.T.);
#78=EDGE_CURVE('',#66,#65,#46,.T.);
#79=ORIENTED_EDGE('',*,*,#67,.F.);
#80=ORIENTED_EDGE('',*,*,#68,.T.);
#81=ORIENTED_EDGE('',*,*,#69,.F.);
#82=ORIENTED_EDGE('',*,*,#68,.F.);
#83=ORIENTED_EDGE('',*,*,#70,.F.);
#84=ORIENTED_EDGE('',*,*,#71,.T.);
#85=ORIENTED_EDGE('',*,*,#72,.T.);
#86=ORIENTED_EDGE('',*,*,#71,.F.);
#87=ORIENTED_EDGE('',*,*,#70,.T.);
#88=ORIENTED_EDGE('',*,*,#73,.F.);
#89=ORIENTED_EDGE('',*,*,#74,.F.);
#90=ORIENTED_EDGE('',*,*,#75,.T.);
#91=ORIENTED_EDGE('',*,*,#73,.T.);
#92=ORIENTED_EDGE('',*,*,#75,.F.);
#93=ORIENTED_EDGE('',*,*,#76,.F.);
#94=ORIENTED_EDGE('',*,*,#74,.T.);
#95=ORIENTED_EDGE('',*,*,#77,.F.);
#96=ORIENTED_EDGE('',*,*,#78,.T.);
#97=ORIENTED_EDGE('',*,*,#76,.T.);
#98=ORIENTED_EDGE('',*,*,#78,.F.);
#99=ORIENTED_EDGE('',*,*,#77,.T.);
#100=ORIENTED_EDGE('',*,*,#69,.T.);
#101=ORIENTED_EDGE('',*,*,#72,.F.);
#102=ORIENTED_EDGE('',*,*,#67,.T.);
#103=CYLINDRICAL_SURFACE('',#129,1.3);
#104=CYLINDRICAL_SURFACE('',#132,2.9);
#105=CYLINDRICAL_SURFACE('',#137,2.20000000000001);
#106=CYLINDRICAL_SURFACE('',#141,2.9);
#107=ADVANCED_FACE('',(#23),#103,.F.);
#108=ADVANCED_FACE('',(#24),#104,.T.);
#109=ADVANCED_FACE('',(#25,#15),#19,.T.);
#110=ADVANCED_FACE('',(#26),#105,.T.);
#111=ADVANCED_FACE('',(#27,#16),#20,.T.);
#112=ADVANCED_FACE('',(#28),#106,.T.);
#113=ADVANCED_FACE('',(#29,#17),#21,.T.);
#114=ADVANCED_FACE('',(#30,#18),#22,.T.);
#115=CLOSED_SHELL('',(#107,#108,#109,#110,#111,#112,#113,#114));
#116=DERIVED_UNIT_ELEMENT(#118,1.);
#117=DERIVED_UNIT_ELEMENT(#217,-3.);
#118=(
MASS_UNIT()
NAMED_UNIT(*)
SI_UNIT(.KILO.,.GRAM.)
);
#119=DERIVED_UNIT((#116,#117));
#120=MEASURE_REPRESENTATION_ITEM('density measure',
POSITIVE_RATIO_MEASURE(7850.),#119);
#121=PROPERTY_DEFINITION_REPRESENTATION(#126,#123);
#122=PROPERTY_DEFINITION_REPRESENTATION(#127,#124);
#123=REPRESENTATION('material name',(#125),#214);
#124=REPRESENTATION('density',(#120),#214);
#125=DESCRIPTIVE_REPRESENTATION_ITEM('\X2\94A2\X0\','\X2\94A2\X0\');
#126=PROPERTY_DEFINITION('material property','material name',#224);
#127=PROPERTY_DEFINITION('material property','density of part',#224);
#128=AXIS2_PLACEMENT_3D('',#183,#145,#146);
#129=AXIS2_PLACEMENT_3D('',#184,#147,#148);
#130=AXIS2_PLACEMENT_3D('',#186,#149,#150);
#131=AXIS2_PLACEMENT_3D('',#189,#152,#153);
#132=AXIS2_PLACEMENT_3D('',#190,#154,#155);
#133=AXIS2_PLACEMENT_3D('',#192,#156,#157);
#134=AXIS2_PLACEMENT_3D('',#195,#159,#160);
#135=AXIS2_PLACEMENT_3D('',#196,#161,#162);
#136=AXIS2_PLACEMENT_3D('',#198,#163,#164);
#137=AXIS2_PLACEMENT_3D('',#199,#165,#166);
#138=AXIS2_PLACEMENT_3D('',#201,#167,#168);
#139=AXIS2_PLACEMENT_3D('',#203,#170,#171);
#140=AXIS2_PLACEMENT_3D('',#205,#172,#173);
#141=AXIS2_PLACEMENT_3D('',#206,#174,#175);
#142=AXIS2_PLACEMENT_3D('',#208,#176,#177);
#143=AXIS2_PLACEMENT_3D('',#210,#179,#180);
#144=AXIS2_PLACEMENT_3D('',#211,#181,#182);
#145=DIRECTION('axis',(0.,0.,1.));
#146=DIRECTION('refdir',(1.,0.,0.));
#147=DIRECTION('center_axis',(0.,0.,-1.));
#148=DIRECTION('ref_axis',(-1.,0.,0.));
#149=DIRECTION('center_axis',(0.,-3.37297254519625E-17,-1.));
#150=DIRECTION('ref_axis',(-1.,0.,0.));
#151=DIRECTION('',(0.,0.,-1.));
#152=DIRECTION('center_axis',(0.,3.37297254519625E-17,1.));
#153=DIRECTION('ref_axis',(-1.,0.,0.));
#154=DIRECTION('center_axis',(0.,-3.37297254519625E-17,-1.));
#155=DIRECTION('ref_axis',(0.,1.,0.));
#156=DIRECTION('center_axis',(0.,-3.37297254519625E-17,-1.));
#157=DIRECTION('ref_axis',(1.,0.,0.));
#158=DIRECTION('',(0.,3.37297254519625E-17,1.));
#159=DIRECTION('center_axis',(0.,-3.37297254519625E-17,-1.));
#160=DIRECTION('ref_axis',(1.,0.,0.));
#161=DIRECTION('center_axis',(0.,-3.37297254519625E-17,-1.));
#162=DIRECTION('ref_axis',(-1.,0.,0.));
#163=DIRECTION('center_axis',(0.,-3.37297254519625E-17,-1.));
#164=DIRECTION('ref_axis',(1.,0.,0.));
#165=DIRECTION('center_axis',(0.,-3.37297254519625E-17,-1.));
#166=DIRECTION('ref_axis',(0.,1.,0.));
#167=DIRECTION('center_axis',(0.,-3.37297254519625E-17,-1.));
#168=DIRECTION('ref_axis',(1.,0.,0.));
#169=DIRECTION('',(0.,3.37297254519625E-17,1.));
#170=DIRECTION('center_axis',(0.,3.37297254519625E-17,1.));
#171=DIRECTION('ref_axis',(1.,0.,0.));
#172=DIRECTION('center_axis',(0.,-3.37297254519625E-17,-1.));
#173=DIRECTION('ref_axis',(1.,0.,0.));
#174=DIRECTION('center_axis',(0.,-3.37297254519625E-17,-1.));
#175=DIRECTION('ref_axis',(0.,1.,0.));
#176=DIRECTION('center_axis',(0.,-3.37297254519625E-17,-1.));
#177=DIRECTION('ref_axis',(1.,0.,0.));
#178=DIRECTION('',(0.,3.37297254519625E-17,1.));
#179=DIRECTION('center_axis',(0.,-3.37297254519625E-17,-1.));
#180=DIRECTION('ref_axis',(-1.,0.,0.));
#181=DIRECTION('center_axis',(0.,3.37297254519625E-17,1.));
#182=DIRECTION('ref_axis',(1.,0.,0.));
#183=CARTESIAN_POINT('',(0.,0.,0.));
#184=CARTESIAN_POINT('Origin',(0.,0.,11.5));
#185=CARTESIAN_POINT('',(1.3,1.59204083889156E-16,11.5));
#186=CARTESIAN_POINT('Origin',(0.,0.,11.5));
#187=CARTESIAN_POINT('',(1.3,1.59204083889156E-16,-11.5));
#188=CARTESIAN_POINT('',(1.3,-1.59204083889156E-16,11.5));
#189=CARTESIAN_POINT('Origin',(0.,0.,-11.5));
#190=CARTESIAN_POINT('Origin',(0.,3.56691846654504E-16,10.575));
#191=CARTESIAN_POINT('',(-3.55147571752732E-16,-2.9,9.65));
#192=CARTESIAN_POINT('Origin',(0.,3.25491850611438E-16,9.65));
#193=CARTESIAN_POINT('',(-3.55147571752732E-16,-2.9,11.5));
#194=CARTESIAN_POINT('',(-3.55147571752732E-16,-2.9,10.575));
#195=CARTESIAN_POINT('Origin',(0.,3.87891842697569E-16,11.5));
#196=CARTESIAN_POINT('Origin',(0.,2.2,9.65));
#197=CARTESIAN_POINT('',(-2.69422295812419E-16,-2.20000000000001,9.65));
#198=CARTESIAN_POINT('Origin',(0.,3.25491850611438E-16,9.65));
#199=CARTESIAN_POINT('Origin',(0.,1.23259516440783E-31,0.));
#200=CARTESIAN_POINT('',(-2.69422295812419E-16,-2.20000000000001,-9.65));
#201=CARTESIAN_POINT('Origin',(0.,-3.25491850611438E-16,-9.65));
#202=CARTESIAN_POINT('',(-2.69422295812419E-16,-2.20000000000001,0.));
#203=CARTESIAN_POINT('Origin',(0.,2.9,-9.65));
#204=CARTESIAN_POINT('',(-3.55147571752733E-16,-2.9,-9.65));
#205=CARTESIAN_POINT('Origin',(0.,-3.25491850611438E-16,-9.65));
#206=CARTESIAN_POINT('Origin',(0.,-3.56691846654503E-16,-10.575));
#207=CARTESIAN_POINT('',(-3.55147571752733E-16,-2.9,-11.5));
#208=CARTESIAN_POINT('Origin',(0.,-3.87891842697569E-16,-11.5));
#209=CARTESIAN_POINT('',(-3.55147571752733E-16,-2.9,-10.575));
#210=CARTESIAN_POINT('Origin',(0.,0.,-11.5));
#211=CARTESIAN_POINT('Origin',(0.,2.9,11.5));
#212=UNCERTAINTY_MEASURE_WITH_UNIT(LENGTH_MEASURE(0.01),#216,
'DISTANCE_ACCURACY_VALUE',
'Maximum model space distance between geometric entities at asserted c
onnectivities');
#213=UNCERTAINTY_MEASURE_WITH_UNIT(LENGTH_MEASURE(0.01),#216,
'DISTANCE_ACCURACY_VALUE',
'Maximum model space distance between geometric entities at asserted c
onnectivities');
#214=(
GEOMETRIC_REPRESENTATION_CONTEXT(3)
GLOBAL_UNCERTAINTY_ASSIGNED_CONTEXT((#212))
GLOBAL_UNIT_ASSIGNED_CONTEXT((#216,#218,#219))
REPRESENTATION_CONTEXT('','3D')
);
#215=(
GEOMETRIC_REPRESENTATION_CONTEXT(3)
GLOBAL_UNCERTAINTY_ASSIGNED_CONTEXT((#213))
GLOBAL_UNIT_ASSIGNED_CONTEXT((#216,#218,#219))
REPRESENTATION_CONTEXT('','3D')
);
#216=(
LENGTH_UNIT()
NAMED_UNIT(*)
SI_UNIT(.MILLI.,.METRE.)
);
#217=(
LENGTH_UNIT()
NAMED_UNIT(*)
SI_UNIT($,.METRE.)
);
#218=(
NAMED_UNIT(*)
PLANE_ANGLE_UNIT()
SI_UNIT($,.RADIAN.)
);
#219=(
NAMED_UNIT(*)
SI_UNIT($,.STERADIAN.)
SOLID_ANGLE_UNIT()
);
#220=SHAPE_DEFINITION_REPRESENTATION(#221,#222);
#221=PRODUCT_DEFINITION_SHAPE('',$,#224);
#222=SHAPE_REPRESENTATION('',(#128),#214);
#223=PRODUCT_DEFINITION_CONTEXT('part definition',#228,'design');
#224=PRODUCT_DEFINITION('2026-06-16-08-52-34-038','SAK-F78C',#225,#223);
#225=PRODUCT_DEFINITION_FORMATION('',$,#230);
#226=PRODUCT_RELATED_PRODUCT_CATEGORY('SAK-F78C','SAK-F78C',(#230));
#227=APPLICATION_PROTOCOL_DEFINITION('international standard',
'automotive_design',2009,#228);
#228=APPLICATION_CONTEXT(
'Core Data for Automotive Mechanical Design Process');
#229=PRODUCT_CONTEXT('part definition',#228,'mechanical');
#230=PRODUCT('2026-06-16-08-52-34-038','SAK-F78C',$,(#229));
#231=PRESENTATION_STYLE_ASSIGNMENT((#232));
#232=SURFACE_STYLE_USAGE(.BOTH.,#233);
#233=SURFACE_SIDE_STYLE('',(#234));
#234=SURFACE_STYLE_FILL_AREA(#235);
#235=FILL_AREA_STYLE('\X2\94A2\X0\ - \X2\7F0E5149\X0\',(#236));
#236=FILL_AREA_STYLE_COLOUR('\X2\94A2\X0\ - \X2\7F0E5149\X0\',#237);
#237=COLOUR_RGB('\X2\94A2\X0\ - \X2\7F0E5149\X0\',0.627450980392157,0.627450980392157,
0.627450980392157);
ENDSEC;
END-ISO-10303-21;
