ISO-10303-21;
HEADER;
/* Generated by software containing ST-Developer
 * from STEP Tools, Inc. (www.steptools.com) 
 */

FILE_DESCRIPTION(
/* description */ (''),
/* implementation_level */ '2;1');

FILE_NAME(
/* name */ 'SAK-D605.step',
/* time_stamp */ '2026-08-11T12:38:46+09:00',
/* author */ (''),
/* organization */ (''),
/* preprocessor_version */ 'ST-DEVELOPER v20.1',
/* originating_system */ 'Autodesk Translation Framework v15.8.0.0',
/* authorisation */ '');

FILE_SCHEMA (('AUTOMOTIVE_DESIGN { 1 0 10303 214 3 1 1 }'));
ENDSEC;

DATA;
#10=MECHANICAL_DESIGN_GEOMETRIC_PRESENTATION_REPRESENTATION('',(#13),#378);
#11=SHAPE_REPRESENTATION_RELATIONSHIP('SRR','None',#385,#12);
#12=ADVANCED_BREP_SHAPE_REPRESENTATION('',(#14),#377);
#13=STYLED_ITEM('',(#394),#14);
#14=MANIFOLD_SOLID_BREP('\X2\5B9E4F53\X0\1',#222);
#15=FACE_BOUND('',#44,.T.);
#16=FACE_BOUND('',#47,.T.);
#17=FACE_BOUND('',#56,.T.);
#18=FACE_BOUND('',#58,.T.);
#19=PLANE('',#239);
#20=PLANE('',#244);
#21=PLANE('',#247);
#22=PLANE('',#248);
#23=PLANE('',#249);
#24=PLANE('',#250);
#25=PLANE('',#251);
#26=PLANE('',#252);
#27=PLANE('',#253);
#28=PLANE('',#254);
#29=FACE_OUTER_BOUND('',#42,.T.);
#30=FACE_OUTER_BOUND('',#43,.T.);
#31=FACE_OUTER_BOUND('',#45,.T.);
#32=FACE_OUTER_BOUND('',#46,.T.);
#33=FACE_OUTER_BOUND('',#48,.T.);
#34=FACE_OUTER_BOUND('',#49,.T.);
#35=FACE_OUTER_BOUND('',#50,.T.);
#36=FACE_OUTER_BOUND('',#51,.T.);
#37=FACE_OUTER_BOUND('',#52,.T.);
#38=FACE_OUTER_BOUND('',#53,.T.);
#39=FACE_OUTER_BOUND('',#54,.T.);
#40=FACE_OUTER_BOUND('',#55,.T.);
#41=FACE_OUTER_BOUND('',#57,.T.);
#42=EDGE_LOOP('',(#152,#153,#154,#155));
#43=EDGE_LOOP('',(#156));
#44=EDGE_LOOP('',(#157));
#45=EDGE_LOOP('',(#158,#159,#160,#161));
#46=EDGE_LOOP('',(#162));
#47=EDGE_LOOP('',(#163));
#48=EDGE_LOOP('',(#164,#165,#166,#167));
#49=EDGE_LOOP('',(#168,#169,#170,#171));
#50=EDGE_LOOP('',(#172,#173,#174,#175));
#51=EDGE_LOOP('',(#176,#177,#178,#179));
#52=EDGE_LOOP('',(#180,#181,#182,#183));
#53=EDGE_LOOP('',(#184,#185,#186,#187));
#54=EDGE_LOOP('',(#188,#189,#190,#191));
#55=EDGE_LOOP('',(#192,#193,#194,#195,#196,#197));
#56=EDGE_LOOP('',(#198));
#57=EDGE_LOOP('',(#199,#200,#201,#202,#203,#204));
#58=EDGE_LOOP('',(#205));
#59=LINE('',#321,#80);
#60=LINE('',#330,#81);
#61=LINE('',#336,#82);
#62=LINE('',#340,#83);
#63=LINE('',#342,#84);
#64=LINE('',#344,#85);
#65=LINE('',#345,#86);
#66=LINE('',#348,#87);
#67=LINE('',#350,#88);
#68=LINE('',#351,#89);
#69=LINE('',#354,#90);
#70=LINE('',#356,#91);
#71=LINE('',#357,#92);
#72=LINE('',#360,#93);
#73=LINE('',#362,#94);
#74=LINE('',#363,#95);
#75=LINE('',#366,#96);
#76=LINE('',#368,#97);
#77=LINE('',#369,#98);
#78=LINE('',#371,#99);
#79=LINE('',#372,#100);
#80=VECTOR('',#261,2.45);
#81=VECTOR('',#272,2.95);
#82=VECTOR('',#281,1.3);
#83=VECTOR('',#284,10.);
#84=VECTOR('',#285,10.);
#85=VECTOR('',#286,10.);
#86=VECTOR('',#287,10.);
#87=VECTOR('',#290,10.);
#88=VECTOR('',#291,10.);
#89=VECTOR('',#292,10.);
#90=VECTOR('',#295,10.);
#91=VECTOR('',#296,10.);
#92=VECTOR('',#297,10.);
#93=VECTOR('',#300,10.);
#94=VECTOR('',#301,10.);
#95=VECTOR('',#302,10.);
#96=VECTOR('',#305,10.);
#97=VECTOR('',#306,10.);
#98=VECTOR('',#307,10.);
#99=VECTOR('',#310,10.);
#100=VECTOR('',#311,10.);
#101=CIRCLE('',#237,2.45);
#102=CIRCLE('',#238,2.45);
#103=CIRCLE('',#240,1.3);
#104=CIRCLE('',#242,2.95);
#105=CIRCLE('',#243,2.95);
#106=CIRCLE('',#246,1.3);
#107=VERTEX_POINT('',#318);
#108=VERTEX_POINT('',#320);
#109=VERTEX_POINT('',#324);
#110=VERTEX_POINT('',#327);
#111=VERTEX_POINT('',#329);
#112=VERTEX_POINT('',#334);
#113=VERTEX_POINT('',#338);
#114=VERTEX_POINT('',#339);
#115=VERTEX_POINT('',#341);
#116=VERTEX_POINT('',#343);
#117=VERTEX_POINT('',#347);
#118=VERTEX_POINT('',#349);
#119=VERTEX_POINT('',#353);
#120=VERTEX_POINT('',#355);
#121=VERTEX_POINT('',#359);
#122=VERTEX_POINT('',#361);
#123=VERTEX_POINT('',#365);
#124=VERTEX_POINT('',#367);
#125=EDGE_CURVE('',#107,#107,#101,.T.);
#126=EDGE_CURVE('',#107,#108,#59,.T.);
#127=EDGE_CURVE('',#108,#108,#102,.T.);
#128=EDGE_CURVE('',#109,#109,#103,.T.);
#129=EDGE_CURVE('',#110,#110,#104,.T.);
#130=EDGE_CURVE('',#110,#111,#60,.T.);
#131=EDGE_CURVE('',#111,#111,#105,.T.);
#132=EDGE_CURVE('',#112,#112,#106,.T.);
#133=EDGE_CURVE('',#112,#109,#61,.T.);
#134=EDGE_CURVE('',#113,#114,#62,.T.);
#135=EDGE_CURVE('',#113,#115,#63,.T.);
#136=EDGE_CURVE('',#116,#115,#64,.T.);
#137=EDGE_CURVE('',#114,#116,#65,.T.);
#138=EDGE_CURVE('',#114,#117,#66,.T.);
#139=EDGE_CURVE('',#118,#116,#67,.T.);
#140=EDGE_CURVE('',#117,#118,#68,.T.);
#141=EDGE_CURVE('',#117,#119,#69,.T.);
#142=EDGE_CURVE('',#120,#118,#70,.T.);
#143=EDGE_CURVE('',#119,#120,#71,.T.);
#144=EDGE_CURVE('',#119,#121,#72,.T.);
#145=EDGE_CURVE('',#122,#120,#73,.T.);
#146=EDGE_CURVE('',#121,#122,#74,.T.);
#147=EDGE_CURVE('',#121,#123,#75,.T.);
#148=EDGE_CURVE('',#124,#122,#76,.T.);
#149=EDGE_CURVE('',#123,#124,#77,.T.);
#150=EDGE_CURVE('',#123,#113,#78,.T.);
#151=EDGE_CURVE('',#115,#124,#79,.T.);
#152=ORIENTED_EDGE('',*,*,#125,.F.);
#153=ORIENTED_EDGE('',*,*,#126,.T.);
#154=ORIENTED_EDGE('',*,*,#127,.F.);
#155=ORIENTED_EDGE('',*,*,#126,.F.);
#156=ORIENTED_EDGE('',*,*,#125,.T.);
#157=ORIENTED_EDGE('',*,*,#128,.T.);
#158=ORIENTED_EDGE('',*,*,#129,.F.);
#159=ORIENTED_EDGE('',*,*,#130,.T.);
#160=ORIENTED_EDGE('',*,*,#131,.F.);
#161=ORIENTED_EDGE('',*,*,#130,.F.);
#162=ORIENTED_EDGE('',*,*,#129,.T.);
#163=ORIENTED_EDGE('',*,*,#127,.T.);
#164=ORIENTED_EDGE('',*,*,#132,.F.);
#165=ORIENTED_EDGE('',*,*,#133,.T.);
#166=ORIENTED_EDGE('',*,*,#128,.F.);
#167=ORIENTED_EDGE('',*,*,#133,.F.);
#168=ORIENTED_EDGE('',*,*,#134,.F.);
#169=ORIENTED_EDGE('',*,*,#135,.T.);
#170=ORIENTED_EDGE('',*,*,#136,.F.);
#171=ORIENTED_EDGE('',*,*,#137,.F.);
#172=ORIENTED_EDGE('',*,*,#138,.F.);
#173=ORIENTED_EDGE('',*,*,#137,.T.);
#174=ORIENTED_EDGE('',*,*,#139,.F.);
#175=ORIENTED_EDGE('',*,*,#140,.F.);
#176=ORIENTED_EDGE('',*,*,#141,.F.);
#177=ORIENTED_EDGE('',*,*,#140,.T.);
#178=ORIENTED_EDGE('',*,*,#142,.F.);
#179=ORIENTED_EDGE('',*,*,#143,.F.);
#180=ORIENTED_EDGE('',*,*,#144,.F.);
#181=ORIENTED_EDGE('',*,*,#143,.T.);
#182=ORIENTED_EDGE('',*,*,#145,.F.);
#183=ORIENTED_EDGE('',*,*,#146,.F.);
#184=ORIENTED_EDGE('',*,*,#147,.F.);
#185=ORIENTED_EDGE('',*,*,#146,.T.);
#186=ORIENTED_EDGE('',*,*,#148,.F.);
#187=ORIENTED_EDGE('',*,*,#149,.F.);
#188=ORIENTED_EDGE('',*,*,#150,.F.);
#189=ORIENTED_EDGE('',*,*,#149,.T.);
#190=ORIENTED_EDGE('',*,*,#151,.F.);
#191=ORIENTED_EDGE('',*,*,#135,.F.);
#192=ORIENTED_EDGE('',*,*,#150,.T.);
#193=ORIENTED_EDGE('',*,*,#134,.T.);
#194=ORIENTED_EDGE('',*,*,#138,.T.);
#195=ORIENTED_EDGE('',*,*,#141,.T.);
#196=ORIENTED_EDGE('',*,*,#144,.T.);
#197=ORIENTED_EDGE('',*,*,#147,.T.);
#198=ORIENTED_EDGE('',*,*,#131,.T.);
#199=ORIENTED_EDGE('',*,*,#151,.T.);
#200=ORIENTED_EDGE('',*,*,#148,.T.);
#201=ORIENTED_EDGE('',*,*,#145,.T.);
#202=ORIENTED_EDGE('',*,*,#142,.T.);
#203=ORIENTED_EDGE('',*,*,#139,.T.);
#204=ORIENTED_EDGE('',*,*,#136,.T.);
#205=ORIENTED_EDGE('',*,*,#132,.T.);
#206=CYLINDRICAL_SURFACE('',#236,2.45);
#207=CYLINDRICAL_SURFACE('',#241,2.95);
#208=CYLINDRICAL_SURFACE('',#245,1.3);
#209=ADVANCED_FACE('',(#29),#206,.T.);
#210=ADVANCED_FACE('',(#30,#15),#19,.T.);
#211=ADVANCED_FACE('',(#31),#207,.T.);
#212=ADVANCED_FACE('',(#32,#16),#20,.T.);
#213=ADVANCED_FACE('',(#33),#208,.F.);
#214=ADVANCED_FACE('',(#34),#21,.T.);
#215=ADVANCED_FACE('',(#35),#22,.T.);
#216=ADVANCED_FACE('',(#36),#23,.T.);
#217=ADVANCED_FACE('',(#37),#24,.T.);
#218=ADVANCED_FACE('',(#38),#25,.T.);
#219=ADVANCED_FACE('',(#39),#26,.T.);
#220=ADVANCED_FACE('',(#40,#17),#27,.T.);
#221=ADVANCED_FACE('',(#41,#18),#28,.F.);
#222=CLOSED_SHELL('',(#209,#210,#211,#212,#213,#214,#215,#216,#217,#218,
#219,#220,#221));
#223=DERIVED_UNIT_ELEMENT(#225,1.);
#224=DERIVED_UNIT_ELEMENT(#380,-3.);
#225=(
MASS_UNIT()
NAMED_UNIT(*)
SI_UNIT(.KILO.,.GRAM.)
);
#226=DERIVED_UNIT((#223,#224));
#227=MEASURE_REPRESENTATION_ITEM('density measure',
POSITIVE_RATIO_MEASURE(7850.),#226);
#228=PROPERTY_DEFINITION_REPRESENTATION(#233,#230);
#229=PROPERTY_DEFINITION_REPRESENTATION(#234,#231);
#230=REPRESENTATION('material name',(#232),#377);
#231=REPRESENTATION('density',(#227),#377);
#232=DESCRIPTIVE_REPRESENTATION_ITEM('\X2\94A2\X0\','\X2\94A2\X0\');
#233=PROPERTY_DEFINITION('material property','material name',#387);
#234=PROPERTY_DEFINITION('material property','density of part',#387);
#235=AXIS2_PLACEMENT_3D('',#316,#255,#256);
#236=AXIS2_PLACEMENT_3D('',#317,#257,#258);
#237=AXIS2_PLACEMENT_3D('',#319,#259,#260);
#238=AXIS2_PLACEMENT_3D('',#322,#262,#263);
#239=AXIS2_PLACEMENT_3D('',#323,#264,#265);
#240=AXIS2_PLACEMENT_3D('',#325,#266,#267);
#241=AXIS2_PLACEMENT_3D('',#326,#268,#269);
#242=AXIS2_PLACEMENT_3D('',#328,#270,#271);
#243=AXIS2_PLACEMENT_3D('',#331,#273,#274);
#244=AXIS2_PLACEMENT_3D('',#332,#275,#276);
#245=AXIS2_PLACEMENT_3D('',#333,#277,#278);
#246=AXIS2_PLACEMENT_3D('',#335,#279,#280);
#247=AXIS2_PLACEMENT_3D('',#337,#282,#283);
#248=AXIS2_PLACEMENT_3D('',#346,#288,#289);
#249=AXIS2_PLACEMENT_3D('',#352,#293,#294);
#250=AXIS2_PLACEMENT_3D('',#358,#298,#299);
#251=AXIS2_PLACEMENT_3D('',#364,#303,#304);
#252=AXIS2_PLACEMENT_3D('',#370,#308,#309);
#253=AXIS2_PLACEMENT_3D('',#373,#312,#313);
#254=AXIS2_PLACEMENT_3D('',#374,#314,#315);
#255=DIRECTION('axis',(0.,0.,1.));
#256=DIRECTION('refdir',(1.,0.,0.));
#257=DIRECTION('center_axis',(0.,0.,1.));
#258=DIRECTION('ref_axis',(1.,0.,0.));
#259=DIRECTION('center_axis',(0.,0.,1.));
#260=DIRECTION('ref_axis',(1.,0.,0.));
#261=DIRECTION('',(0.,0.,-1.));
#262=DIRECTION('center_axis',(0.,0.,-1.));
#263=DIRECTION('ref_axis',(1.,0.,0.));
#264=DIRECTION('center_axis',(0.,0.,1.));
#265=DIRECTION('ref_axis',(1.,0.,0.));
#266=DIRECTION('center_axis',(0.,0.,-1.));
#267=DIRECTION('ref_axis',(1.,0.,0.));
#268=DIRECTION('center_axis',(0.,0.,1.));
#269=DIRECTION('ref_axis',(1.,0.,0.));
#270=DIRECTION('center_axis',(0.,0.,1.));
#271=DIRECTION('ref_axis',(1.,0.,0.));
#272=DIRECTION('',(0.,0.,-1.));
#273=DIRECTION('center_axis',(0.,0.,-1.));
#274=DIRECTION('ref_axis',(1.,0.,0.));
#275=DIRECTION('center_axis',(0.,0.,1.));
#276=DIRECTION('ref_axis',(1.,0.,0.));
#277=DIRECTION('center_axis',(0.,0.,-1.));
#278=DIRECTION('ref_axis',(1.,0.,0.));
#279=DIRECTION('center_axis',(0.,0.,1.));
#280=DIRECTION('ref_axis',(1.,0.,0.));
#281=DIRECTION('',(0.,0.,1.));
#282=DIRECTION('center_axis',(-0.5,-0.866025403784439,0.));
#283=DIRECTION('ref_axis',(-0.866025403784439,0.5,0.));
#284=DIRECTION('',(0.866025403784439,-0.5,0.));
#285=DIRECTION('',(0.,0.,-1.));
#286=DIRECTION('',(-0.866025403784439,0.5,0.));
#287=DIRECTION('',(0.,0.,-1.));
#288=DIRECTION('center_axis',(0.5,-0.866025403784439,0.));
#289=DIRECTION('ref_axis',(-0.866025403784439,-0.5,0.));
#290=DIRECTION('',(0.866025403784439,0.5,0.));
#291=DIRECTION('',(-0.866025403784439,-0.5,0.));
#292=DIRECTION('',(0.,0.,-1.));
#293=DIRECTION('center_axis',(1.,4.24182945525786E-16,0.));
#294=DIRECTION('ref_axis',(4.24182945525786E-16,-1.,0.));
#295=DIRECTION('',(-4.24182945525786E-16,1.,0.));
#296=DIRECTION('',(4.24182945525786E-16,-1.,0.));
#297=DIRECTION('',(0.,0.,-1.));
#298=DIRECTION('center_axis',(0.500000000000001,0.866025403784438,0.));
#299=DIRECTION('ref_axis',(0.866025403784438,-0.500000000000001,0.));
#300=DIRECTION('',(-0.866025403784438,0.500000000000001,0.));
#301=DIRECTION('',(0.866025403784438,-0.500000000000001,0.));
#302=DIRECTION('',(0.,0.,-1.));
#303=DIRECTION('center_axis',(-0.499999999999999,0.866025403784439,0.));
#304=DIRECTION('ref_axis',(0.866025403784439,0.499999999999999,0.));
#305=DIRECTION('',(-0.866025403784439,-0.499999999999999,0.));
#306=DIRECTION('',(0.866025403784439,0.499999999999999,0.));
#307=DIRECTION('',(0.,0.,-1.));
#308=DIRECTION('center_axis',(-1.,-1.41394315175262E-16,0.));
#309=DIRECTION('ref_axis',(-1.41394315175262E-16,1.,0.));
#310=DIRECTION('',(1.41394315175262E-16,-1.,0.));
#311=DIRECTION('',(-1.41394315175262E-16,1.,0.));
#312=DIRECTION('center_axis',(0.,0.,1.));
#313=DIRECTION('ref_axis',(1.,0.,0.));
#314=DIRECTION('center_axis',(0.,0.,1.));
#315=DIRECTION('ref_axis',(1.,0.,0.));
#316=CARTESIAN_POINT('',(0.,0.,0.));
#317=CARTESIAN_POINT('Origin',(0.,0.,0.));
#318=CARTESIAN_POINT('',(-2.45,-3.00038465791102E-16,13.3));
#319=CARTESIAN_POINT('Origin',(0.,0.,13.3));
#320=CARTESIAN_POINT('',(-2.45,3.00038465791102E-16,5.5));
#321=CARTESIAN_POINT('',(-2.45,-3.00038465791102E-16,0.));
#322=CARTESIAN_POINT('Origin',(0.,0.,5.5));
#323=CARTESIAN_POINT('Origin',(0.,0.,13.3));
#324=CARTESIAN_POINT('',(-1.3,-1.59204083889156E-16,13.3));
#325=CARTESIAN_POINT('Origin',(0.,0.,13.3));
#326=CARTESIAN_POINT('Origin',(0.,0.,0.));
#327=CARTESIAN_POINT('',(-2.95,-3.61270805748469E-16,5.5));
#328=CARTESIAN_POINT('Origin',(0.,0.,5.5));
#329=CARTESIAN_POINT('',(-2.95,-3.61270805748469E-16,0.));
#330=CARTESIAN_POINT('',(-2.95,-3.61270805748469E-16,0.));
#331=CARTESIAN_POINT('Origin',(0.,0.,0.));
#332=CARTESIAN_POINT('Origin',(0.,0.,5.5));
#333=CARTESIAN_POINT('Origin',(0.,0.,0.));
#334=CARTESIAN_POINT('',(-1.3,-1.59204083889156E-16,-2.1));
#335=CARTESIAN_POINT('Origin',(0.,0.,-2.1));
#336=CARTESIAN_POINT('',(-1.3,1.59204083889156E-16,0.));
#337=CARTESIAN_POINT('Origin',(1.66533453693773E-15,-3.92598183048946,0.));
#338=CARTESIAN_POINT('',(-3.4,-1.96299091524473,0.));
#339=CARTESIAN_POINT('',(1.39645239816133E-15,-3.92598183048946,0.));
#340=CARTESIAN_POINT('',(-3.4,-1.96299091524473,0.));
#341=CARTESIAN_POINT('',(-3.4,-1.96299091524473,-2.1));
#342=CARTESIAN_POINT('',(-3.4,-1.96299091524473,0.));
#343=CARTESIAN_POINT('',(1.38777878078145E-15,-3.92598183048946,-2.1));
#344=CARTESIAN_POINT('',(-3.4,-1.96299091524473,-2.1));
#345=CARTESIAN_POINT('',(1.39645239816133E-15,-3.92598183048946,0.));
#346=CARTESIAN_POINT('Origin',(3.4,-1.96299091524473,0.));
#347=CARTESIAN_POINT('',(3.4,-1.96299091524473,0.));
#348=CARTESIAN_POINT('',(1.39645239816133E-15,-3.92598183048946,0.));
#349=CARTESIAN_POINT('',(3.4,-1.96299091524473,-2.1));
#350=CARTESIAN_POINT('',(1.39645239816133E-15,-3.92598183048946,-2.1));
#351=CARTESIAN_POINT('',(3.4,-1.96299091524473,0.));
#352=CARTESIAN_POINT('Origin',(3.4,1.96299091524473,0.));
#353=CARTESIAN_POINT('',(3.4,1.96299091524473,0.));
#354=CARTESIAN_POINT('',(3.4,-1.96299091524473,0.));
#355=CARTESIAN_POINT('',(3.4,1.96299091524473,-2.1));
#356=CARTESIAN_POINT('',(3.4,-1.96299091524473,-2.1));
#357=CARTESIAN_POINT('',(3.4,1.96299091524473,0.));
#358=CARTESIAN_POINT('Origin',(0.,3.92598183048946,0.));
#359=CARTESIAN_POINT('',(8.67361737988404E-18,3.92598183048946,0.));
#360=CARTESIAN_POINT('',(3.4,1.96299091524473,0.));
#361=CARTESIAN_POINT('',(0.,3.92598183048946,-2.1));
#362=CARTESIAN_POINT('',(3.4,1.96299091524473,-2.1));
#363=CARTESIAN_POINT('',(8.67361737988404E-18,3.92598183048946,0.));
#364=CARTESIAN_POINT('Origin',(-3.4,1.96299091524473,0.));
#365=CARTESIAN_POINT('',(-3.4,1.96299091524473,0.));
#366=CARTESIAN_POINT('',(8.67361737988404E-18,3.92598183048946,0.));
#367=CARTESIAN_POINT('',(-3.4,1.96299091524473,-2.1));
#368=CARTESIAN_POINT('',(8.67361737988404E-18,3.92598183048946,-2.1));
#369=CARTESIAN_POINT('',(-3.4,1.96299091524473,0.));
#370=CARTESIAN_POINT('Origin',(-3.4,-1.96299091524473,0.));
#371=CARTESIAN_POINT('',(-3.4,1.96299091524473,0.));
#372=CARTESIAN_POINT('',(-3.4,1.96299091524473,-2.1));
#373=CARTESIAN_POINT('Origin',(0.,0.,0.));
#374=CARTESIAN_POINT('Origin',(0.,0.,-2.1));
#375=UNCERTAINTY_MEASURE_WITH_UNIT(LENGTH_MEASURE(0.01),#379,
'DISTANCE_ACCURACY_VALUE',
'Maximum model space distance between geometric entities at asserted c
onnectivities');
#376=UNCERTAINTY_MEASURE_WITH_UNIT(LENGTH_MEASURE(0.01),#379,
'DISTANCE_ACCURACY_VALUE',
'Maximum model space distance between geometric entities at asserted c
onnectivities');
#377=(
GEOMETRIC_REPRESENTATION_CONTEXT(3)
GLOBAL_UNCERTAINTY_ASSIGNED_CONTEXT((#375))
GLOBAL_UNIT_ASSIGNED_CONTEXT((#379,#381,#382))
REPRESENTATION_CONTEXT('','3D')
);
#378=(
GEOMETRIC_REPRESENTATION_CONTEXT(3)
GLOBAL_UNCERTAINTY_ASSIGNED_CONTEXT((#376))
GLOBAL_UNIT_ASSIGNED_CONTEXT((#379,#381,#382))
REPRESENTATION_CONTEXT('','3D')
);
#379=(
LENGTH_UNIT()
NAMED_UNIT(*)
SI_UNIT(.MILLI.,.METRE.)
);
#380=(
LENGTH_UNIT()
NAMED_UNIT(*)
SI_UNIT($,.METRE.)
);
#381=(
NAMED_UNIT(*)
PLANE_ANGLE_UNIT()
SI_UNIT($,.RADIAN.)
);
#382=(
NAMED_UNIT(*)
SI_UNIT($,.STERADIAN.)
SOLID_ANGLE_UNIT()
);
#383=SHAPE_DEFINITION_REPRESENTATION(#384,#385);
#384=PRODUCT_DEFINITION_SHAPE('',$,#387);
#385=SHAPE_REPRESENTATION('',(#235),#377);
#386=PRODUCT_DEFINITION_CONTEXT('part definition',#391,'design');
#387=PRODUCT_DEFINITION('2026-06-16-08-52-25-776','SAK-D605',#388,#386);
#388=PRODUCT_DEFINITION_FORMATION('',$,#393);
#389=PRODUCT_RELATED_PRODUCT_CATEGORY('SAK-D605','SAK-D605',(#393));
#390=APPLICATION_PROTOCOL_DEFINITION('international standard',
'automotive_design',2009,#391);
#391=APPLICATION_CONTEXT(
'Core Data for Automotive Mechanical Design Process');
#392=PRODUCT_CONTEXT('part definition',#391,'mechanical');
#393=PRODUCT('2026-06-16-08-52-25-776','SAK-D605',$,(#392));
#394=PRESENTATION_STYLE_ASSIGNMENT((#395));
#395=SURFACE_STYLE_USAGE(.BOTH.,#396);
#396=SURFACE_SIDE_STYLE('',(#397));
#397=SURFACE_STYLE_FILL_AREA(#398);
#398=FILL_AREA_STYLE('\X2\94A2\X0\ - \X2\7F0E5149\X0\',(#399));
#399=FILL_AREA_STYLE_COLOUR('\X2\94A2\X0\ - \X2\7F0E5149\X0\',#400);
#400=COLOUR_RGB('\X2\94A2\X0\ - \X2\7F0E5149\X0\',0.627450980392157,0.627450980392157,
0.627450980392157);
ENDSEC;
END-ISO-10303-21;
