ISO-10303-21;
HEADER;
/* Generated by software containing ST-Developer
 * from STEP Tools, Inc. (www.steptools.com) 
 */

FILE_DESCRIPTION(
/* description */ (''),
/* implementation_level */ '2;1');

FILE_NAME(
/* name */ 'SAK-D639.step',
/* time_stamp */ '2026-08-11T12:40:12+09:00',
/* author */ (''),
/* organization */ (''),
/* preprocessor_version */ 'ST-DEVELOPER v20.1',
/* originating_system */ 'Autodesk Translation Framework v15.8.0.0',
/* authorisation */ '');

FILE_SCHEMA (('AUTOMOTIVE_DESIGN { 1 0 10303 214 3 1 1 }'));
ENDSEC;

DATA;
#10=MECHANICAL_DESIGN_GEOMETRIC_PRESENTATION_REPRESENTATION('',(#13,#14,
#15,#16,#17,#18),#1790);
#11=SHAPE_REPRESENTATION_RELATIONSHIP('SRR','None',#1797,#12);
#12=ADVANCED_BREP_SHAPE_REPRESENTATION('',(#19,#20,#21,#22,#23,#24),#1789);
#13=STYLED_ITEM('',(#1806),#19);
#14=STYLED_ITEM('',(#1806),#20);
#15=STYLED_ITEM('',(#1806),#21);
#16=STYLED_ITEM('',(#1806),#22);
#17=STYLED_ITEM('',(#1806),#23);
#18=STYLED_ITEM('',(#1806),#24);
#19=MANIFOLD_SOLID_BREP('\X2\5B9E4F53\X0\1',#1055);
#20=MANIFOLD_SOLID_BREP('\X2\5B9E4F53\X0\2',#1056);
#21=MANIFOLD_SOLID_BREP('\X2\5B9E4F53\X0\3',#1057);
#22=MANIFOLD_SOLID_BREP('\X2\5B9E4F53\X0\4',#1058);
#23=MANIFOLD_SOLID_BREP('\X2\5B9E4F53\X0\5',#1059);
#24=MANIFOLD_SOLID_BREP('\X2\5B9E4F53\X0\6',#1060);
#25=FACE_BOUND('',#145,.T.);
#26=FACE_BOUND('',#168,.T.);
#27=FACE_BOUND('',#172,.T.);
#28=FACE_BOUND('',#174,.T.);
#29=FACE_BOUND('',#178,.T.);
#30=FACE_BOUND('',#181,.T.);
#31=FACE_BOUND('',#204,.T.);
#32=FACE_BOUND('',#208,.T.);
#33=FACE_BOUND('',#210,.T.);
#34=FACE_BOUND('',#214,.T.);
#35=PLANE('',#1077);
#36=PLANE('',#1079);
#37=PLANE('',#1081);
#38=PLANE('',#1082);
#39=PLANE('',#1084);
#40=PLANE('',#1086);
#41=PLANE('',#1088);
#42=PLANE('',#1090);
#43=PLANE('',#1091);
#44=PLANE('',#1092);
#45=PLANE('',#1094);
#46=PLANE('',#1095);
#47=PLANE('',#1096);
#48=PLANE('',#1098);
#49=PLANE('',#1099);
#50=PLANE('',#1100);
#51=PLANE('',#1107);
#52=PLANE('',#1108);
#53=PLANE('',#1109);
#54=PLANE('',#1110);
#55=PLANE('',#1117);
#56=PLANE('',#1118);
#57=PLANE('',#1125);
#58=PLANE('',#1129);
#59=PLANE('',#1131);
#60=PLANE('',#1133);
#61=PLANE('',#1134);
#62=PLANE('',#1136);
#63=PLANE('',#1138);
#64=PLANE('',#1140);
#65=PLANE('',#1142);
#66=PLANE('',#1143);
#67=PLANE('',#1144);
#68=PLANE('',#1146);
#69=PLANE('',#1147);
#70=PLANE('',#1148);
#71=PLANE('',#1150);
#72=PLANE('',#1151);
#73=PLANE('',#1152);
#74=PLANE('',#1159);
#75=PLANE('',#1160);
#76=PLANE('',#1161);
#77=PLANE('',#1162);
#78=PLANE('',#1169);
#79=PLANE('',#1170);
#80=PLANE('',#1177);
#81=FACE_OUTER_BOUND('',#143,.T.);
#82=FACE_OUTER_BOUND('',#144,.T.);
#83=FACE_OUTER_BOUND('',#146,.T.);
#84=FACE_OUTER_BOUND('',#147,.T.);
#85=FACE_OUTER_BOUND('',#148,.T.);
#86=FACE_OUTER_BOUND('',#149,.T.);
#87=FACE_OUTER_BOUND('',#150,.T.);
#88=FACE_OUTER_BOUND('',#151,.T.);
#89=FACE_OUTER_BOUND('',#152,.T.);
#90=FACE_OUTER_BOUND('',#153,.T.);
#91=FACE_OUTER_BOUND('',#154,.T.);
#92=FACE_OUTER_BOUND('',#155,.T.);
#93=FACE_OUTER_BOUND('',#156,.T.);
#94=FACE_OUTER_BOUND('',#157,.T.);
#95=FACE_OUTER_BOUND('',#158,.T.);
#96=FACE_OUTER_BOUND('',#159,.T.);
#97=FACE_OUTER_BOUND('',#160,.T.);
#98=FACE_OUTER_BOUND('',#161,.T.);
#99=FACE_OUTER_BOUND('',#162,.T.);
#100=FACE_OUTER_BOUND('',#163,.T.);
#101=FACE_OUTER_BOUND('',#164,.T.);
#102=FACE_OUTER_BOUND('',#165,.T.);
#103=FACE_OUTER_BOUND('',#166,.T.);
#104=FACE_OUTER_BOUND('',#167,.T.);
#105=FACE_OUTER_BOUND('',#169,.T.);
#106=FACE_OUTER_BOUND('',#170,.T.);
#107=FACE_OUTER_BOUND('',#171,.T.);
#108=FACE_OUTER_BOUND('',#173,.T.);
#109=FACE_OUTER_BOUND('',#175,.T.);
#110=FACE_OUTER_BOUND('',#176,.T.);
#111=FACE_OUTER_BOUND('',#177,.T.);
#112=FACE_OUTER_BOUND('',#179,.T.);
#113=FACE_OUTER_BOUND('',#180,.T.);
#114=FACE_OUTER_BOUND('',#182,.T.);
#115=FACE_OUTER_BOUND('',#183,.T.);
#116=FACE_OUTER_BOUND('',#184,.T.);
#117=FACE_OUTER_BOUND('',#185,.T.);
#118=FACE_OUTER_BOUND('',#186,.T.);
#119=FACE_OUTER_BOUND('',#187,.T.);
#120=FACE_OUTER_BOUND('',#188,.T.);
#121=FACE_OUTER_BOUND('',#189,.T.);
#122=FACE_OUTER_BOUND('',#190,.T.);
#123=FACE_OUTER_BOUND('',#191,.T.);
#124=FACE_OUTER_BOUND('',#192,.T.);
#125=FACE_OUTER_BOUND('',#193,.T.);
#126=FACE_OUTER_BOUND('',#194,.T.);
#127=FACE_OUTER_BOUND('',#195,.T.);
#128=FACE_OUTER_BOUND('',#196,.T.);
#129=FACE_OUTER_BOUND('',#197,.T.);
#130=FACE_OUTER_BOUND('',#198,.T.);
#131=FACE_OUTER_BOUND('',#199,.T.);
#132=FACE_OUTER_BOUND('',#200,.T.);
#133=FACE_OUTER_BOUND('',#201,.T.);
#134=FACE_OUTER_BOUND('',#202,.T.);
#135=FACE_OUTER_BOUND('',#203,.T.);
#136=FACE_OUTER_BOUND('',#205,.T.);
#137=FACE_OUTER_BOUND('',#206,.T.);
#138=FACE_OUTER_BOUND('',#207,.T.);
#139=FACE_OUTER_BOUND('',#209,.T.);
#140=FACE_OUTER_BOUND('',#211,.T.);
#141=FACE_OUTER_BOUND('',#212,.T.);
#142=FACE_OUTER_BOUND('',#213,.T.);
#143=EDGE_LOOP('',(#693,#694,#695,#696));
#144=EDGE_LOOP('',(#697,#698));
#145=EDGE_LOOP('',(#699));
#146=EDGE_LOOP('',(#700,#701,#702));
#147=EDGE_LOOP('',(#703));
#148=EDGE_LOOP('',(#704,#705,#706,#707,#708,#709,#710,#711,#712,#713));
#149=EDGE_LOOP('',(#714,#715,#716,#717,#718,#719,#720,#721,#722,#723));
#150=EDGE_LOOP('',(#724,#725,#726,#727,#728,#729));
#151=EDGE_LOOP('',(#730,#731,#732,#733,#734,#735));
#152=EDGE_LOOP('',(#736,#737,#738,#739));
#153=EDGE_LOOP('',(#740,#741,#742,#743));
#154=EDGE_LOOP('',(#744,#745,#746,#747));
#155=EDGE_LOOP('',(#748,#749,#750,#751));
#156=EDGE_LOOP('',(#752,#753,#754,#755));
#157=EDGE_LOOP('',(#756,#757,#758,#759));
#158=EDGE_LOOP('',(#760,#761,#762,#763,#764));
#159=EDGE_LOOP('',(#765,#766,#767,#768));
#160=EDGE_LOOP('',(#769,#770,#771,#772));
#161=EDGE_LOOP('',(#773,#774,#775,#776));
#162=EDGE_LOOP('',(#777,#778,#779));
#163=EDGE_LOOP('',(#780,#781,#782,#783,#784,#785,#786,#787,#788,#789,#790,
#791,#792));
#164=EDGE_LOOP('',(#793,#794,#795,#796,#797,#798,#799,#800));
#165=EDGE_LOOP('',(#801,#802,#803,#804));
#166=EDGE_LOOP('',(#805,#806,#807,#808,#809,#810));
#167=EDGE_LOOP('',(#811));
#168=EDGE_LOOP('',(#812));
#169=EDGE_LOOP('',(#813,#814,#815,#816));
#170=EDGE_LOOP('',(#817,#818,#819,#820));
#171=EDGE_LOOP('',(#821));
#172=EDGE_LOOP('',(#822));
#173=EDGE_LOOP('',(#823));
#174=EDGE_LOOP('',(#824));
#175=EDGE_LOOP('',(#825,#826,#827,#828));
#176=EDGE_LOOP('',(#829,#830,#831,#832));
#177=EDGE_LOOP('',(#833));
#178=EDGE_LOOP('',(#834));
#179=EDGE_LOOP('',(#835,#836,#837,#838));
#180=EDGE_LOOP('',(#839,#840));
#181=EDGE_LOOP('',(#841));
#182=EDGE_LOOP('',(#842,#843,#844));
#183=EDGE_LOOP('',(#845));
#184=EDGE_LOOP('',(#846,#847,#848,#849,#850,#851,#852,#853,#854,#855));
#185=EDGE_LOOP('',(#856,#857,#858,#859,#860,#861,#862,#863,#864,#865));
#186=EDGE_LOOP('',(#866,#867,#868,#869,#870,#871));
#187=EDGE_LOOP('',(#872,#873,#874,#875,#876,#877));
#188=EDGE_LOOP('',(#878,#879,#880,#881));
#189=EDGE_LOOP('',(#882,#883,#884,#885));
#190=EDGE_LOOP('',(#886,#887,#888,#889));
#191=EDGE_LOOP('',(#890,#891,#892,#893));
#192=EDGE_LOOP('',(#894,#895,#896,#897));
#193=EDGE_LOOP('',(#898,#899,#900,#901));
#194=EDGE_LOOP('',(#902,#903,#904,#905,#906));
#195=EDGE_LOOP('',(#907,#908,#909,#910));
#196=EDGE_LOOP('',(#911,#912,#913,#914));
#197=EDGE_LOOP('',(#915,#916,#917,#918));
#198=EDGE_LOOP('',(#919,#920,#921));
#199=EDGE_LOOP('',(#922,#923,#924,#925,#926,#927,#928,#929,#930,#931,#932,
#933,#934));
#200=EDGE_LOOP('',(#935,#936,#937,#938,#939,#940,#941,#942));
#201=EDGE_LOOP('',(#943,#944,#945,#946));
#202=EDGE_LOOP('',(#947,#948,#949,#950,#951,#952));
#203=EDGE_LOOP('',(#953));
#204=EDGE_LOOP('',(#954));
#205=EDGE_LOOP('',(#955,#956,#957,#958));
#206=EDGE_LOOP('',(#959,#960,#961,#962));
#207=EDGE_LOOP('',(#963));
#208=EDGE_LOOP('',(#964));
#209=EDGE_LOOP('',(#965));
#210=EDGE_LOOP('',(#966));
#211=EDGE_LOOP('',(#967,#968,#969,#970));
#212=EDGE_LOOP('',(#971,#972,#973,#974));
#213=EDGE_LOOP('',(#975));
#214=EDGE_LOOP('',(#976));
#215=LINE('',#1493,#315);
#216=LINE('',#1499,#316);
#217=LINE('',#1503,#317);
#218=LINE('',#1506,#318);
#219=LINE('',#1511,#319);
#220=LINE('',#1513,#320);
#221=LINE('',#1515,#321);
#222=LINE('',#1517,#322);
#223=LINE('',#1519,#323);
#224=LINE('',#1521,#324);
#225=LINE('',#1525,#325);
#226=LINE('',#1527,#326);
#227=LINE('',#1528,#327);
#228=LINE('',#1532,#328);
#229=LINE('',#1534,#329);
#230=LINE('',#1536,#330);
#231=LINE('',#1538,#331);
#232=LINE('',#1542,#332);
#233=LINE('',#1544,#333);
#234=LINE('',#1546,#334);
#235=LINE('',#1548,#335);
#236=LINE('',#1549,#336);
#237=LINE('',#1552,#337);
#238=LINE('',#1554,#338);
#239=LINE('',#1556,#339);
#240=LINE('',#1559,#340);
#241=LINE('',#1563,#341);
#242=LINE('',#1567,#342);
#243=LINE('',#1569,#343);
#244=LINE('',#1571,#344);
#245=LINE('',#1572,#345);
#246=LINE('',#1574,#346);
#247=LINE('',#1575,#347);
#248=LINE('',#1577,#348);
#249=LINE('',#1579,#349);
#250=LINE('',#1581,#350);
#251=LINE('',#1583,#351);
#252=LINE('',#1585,#352);
#253=LINE('',#1587,#353);
#254=LINE('',#1588,#354);
#255=LINE('',#1590,#355);
#256=LINE('',#1592,#356);
#257=LINE('',#1594,#357);
#258=LINE('',#1601,#358);
#259=LINE('',#1603,#359);
#260=LINE('',#1608,#360);
#261=LINE('',#1618,#361);
#262=LINE('',#1622,#362);
#263=LINE('',#1632,#363);
#264=LINE('',#1636,#364);
#265=LINE('',#1642,#365);
#266=LINE('',#1648,#366);
#267=LINE('',#1652,#367);
#268=LINE('',#1654,#368);
#269=LINE('',#1660,#369);
#270=LINE('',#1662,#370);
#271=LINE('',#1664,#371);
#272=LINE('',#1666,#372);
#273=LINE('',#1670,#373);
#274=LINE('',#1672,#374);
#275=LINE('',#1674,#375);
#276=LINE('',#1676,#376);
#277=LINE('',#1677,#377);
#278=LINE('',#1681,#378);
#279=LINE('',#1683,#379);
#280=LINE('',#1685,#380);
#281=LINE('',#1687,#381);
#282=LINE('',#1689,#382);
#283=LINE('',#1691,#383);
#284=LINE('',#1695,#384);
#285=LINE('',#1697,#385);
#286=LINE('',#1698,#386);
#287=LINE('',#1701,#387);
#288=LINE('',#1705,#388);
#289=LINE('',#1707,#389);
#290=LINE('',#1708,#390);
#291=LINE('',#1712,#391);
#292=LINE('',#1714,#392);
#293=LINE('',#1716,#393);
#294=LINE('',#1718,#394);
#295=LINE('',#1720,#395);
#296=LINE('',#1723,#396);
#297=LINE('',#1724,#397);
#298=LINE('',#1726,#398);
#299=LINE('',#1728,#399);
#300=LINE('',#1730,#400);
#301=LINE('',#1732,#401);
#302=LINE('',#1734,#402);
#303=LINE('',#1736,#403);
#304=LINE('',#1737,#404);
#305=LINE('',#1739,#405);
#306=LINE('',#1741,#406);
#307=LINE('',#1743,#407);
#308=LINE('',#1750,#408);
#309=LINE('',#1752,#409);
#310=LINE('',#1757,#410);
#311=LINE('',#1767,#411);
#312=LINE('',#1771,#412);
#313=LINE('',#1781,#413);
#314=LINE('',#1785,#414);
#315=VECTOR('',#1184,1.35);
#316=VECTOR('',#1191,10.);
#317=VECTOR('',#1194,10.);
#318=VECTOR('',#1197,10.);
#319=VECTOR('',#1202,10.);
#320=VECTOR('',#1203,10.);
#321=VECTOR('',#1204,10.);
#322=VECTOR('',#1205,10.);
#323=VECTOR('',#1206,10.);
#324=VECTOR('',#1207,10.);
#325=VECTOR('',#1210,10.);
#326=VECTOR('',#1211,10.);
#327=VECTOR('',#1212,10.);
#328=VECTOR('',#1215,10.);
#329=VECTOR('',#1216,10.);
#330=VECTOR('',#1217,10.);
#331=VECTOR('',#1218,10.);
#332=VECTOR('',#1221,10.);
#333=VECTOR('',#1222,10.);
#334=VECTOR('',#1223,10.);
#335=VECTOR('',#1224,10.);
#336=VECTOR('',#1225,10.);
#337=VECTOR('',#1228,10.);
#338=VECTOR('',#1229,10.);
#339=VECTOR('',#1230,10.);
#340=VECTOR('',#1233,10.);
#341=VECTOR('',#1236,10.);
#342=VECTOR('',#1239,10.);
#343=VECTOR('',#1240,10.);
#344=VECTOR('',#1241,10.);
#345=VECTOR('',#1242,10.);
#346=VECTOR('',#1245,10.);
#347=VECTOR('',#1246,10.);
#348=VECTOR('',#1249,10.);
#349=VECTOR('',#1252,10.);
#350=VECTOR('',#1255,10.);
#351=VECTOR('',#1258,10.);
#352=VECTOR('',#1261,10.);
#353=VECTOR('',#1264,10.);
#354=VECTOR('',#1265,10.);
#355=VECTOR('',#1268,10.);
#356=VECTOR('',#1271,10.);
#357=VECTOR('',#1274,10.);
#358=VECTOR('',#1285,10.);
#359=VECTOR('',#1286,10.);
#360=VECTOR('',#1295,10.);
#361=VECTOR('',#1308,3.);
#362=VECTOR('',#1313,4.7);
#363=VECTOR('',#1326,3.);
#364=VECTOR('',#1331,4.7);
#365=VECTOR('',#1338,1.35);
#366=VECTOR('',#1345,10.);
#367=VECTOR('',#1348,10.);
#368=VECTOR('',#1349,10.);
#369=VECTOR('',#1356,10.);
#370=VECTOR('',#1357,10.);
#371=VECTOR('',#1358,10.);
#372=VECTOR('',#1359,10.);
#373=VECTOR('',#1362,10.);
#374=VECTOR('',#1363,10.);
#375=VECTOR('',#1364,10.);
#376=VECTOR('',#1365,10.);
#377=VECTOR('',#1366,10.);
#378=VECTOR('',#1369,10.);
#379=VECTOR('',#1370,10.);
#380=VECTOR('',#1371,10.);
#381=VECTOR('',#1372,10.);
#382=VECTOR('',#1373,10.);
#383=VECTOR('',#1374,10.);
#384=VECTOR('',#1377,10.);
#385=VECTOR('',#1378,10.);
#386=VECTOR('',#1379,10.);
#387=VECTOR('',#1382,10.);
#388=VECTOR('',#1385,10.);
#389=VECTOR('',#1386,10.);
#390=VECTOR('',#1387,10.);
#391=VECTOR('',#1390,10.);
#392=VECTOR('',#1391,10.);
#393=VECTOR('',#1392,10.);
#394=VECTOR('',#1393,10.);
#395=VECTOR('',#1394,10.);
#396=VECTOR('',#1399,10.);
#397=VECTOR('',#1400,10.);
#398=VECTOR('',#1403,10.);
#399=VECTOR('',#1406,10.);
#400=VECTOR('',#1409,10.);
#401=VECTOR('',#1412,10.);
#402=VECTOR('',#1415,10.);
#403=VECTOR('',#1418,10.);
#404=VECTOR('',#1419,10.);
#405=VECTOR('',#1422,10.);
#406=VECTOR('',#1425,10.);
#407=VECTOR('',#1428,10.);
#408=VECTOR('',#1439,10.);
#409=VECTOR('',#1440,10.);
#410=VECTOR('',#1449,10.);
#411=VECTOR('',#1462,3.);
#412=VECTOR('',#1467,4.7);
#413=VECTOR('',#1480,3.);
#414=VECTOR('',#1485,4.7);
#415=CIRCLE('',#1075,1.35);
#416=CIRCLE('',#1076,1.35);
#417=CIRCLE('',#1078,3.6);
#418=CIRCLE('',#1080,3.6);
#419=CIRCLE('',#1083,4.7);
#420=CIRCLE('',#1085,4.7);
#421=CIRCLE('',#1087,4.7);
#422=CIRCLE('',#1089,4.7);
#423=CIRCLE('',#1101,3.6);
#424=CIRCLE('',#1103,3.6);
#425=CIRCLE('',#1104,3.6);
#426=CIRCLE('',#1105,3.6);
#427=CIRCLE('',#1106,3.6);
#428=CIRCLE('',#1111,4.7);
#429=CIRCLE('',#1112,3.);
#430=CIRCLE('',#1114,3.);
#431=CIRCLE('',#1116,4.7);
#432=CIRCLE('',#1119,4.7);
#433=CIRCLE('',#1120,3.);
#434=CIRCLE('',#1122,3.);
#435=CIRCLE('',#1124,4.7);
#436=CIRCLE('',#1127,1.35);
#437=CIRCLE('',#1128,1.35);
#438=CIRCLE('',#1130,3.6);
#439=CIRCLE('',#1132,3.6);
#440=CIRCLE('',#1135,4.7);
#441=CIRCLE('',#1137,4.7);
#442=CIRCLE('',#1139,4.7);
#443=CIRCLE('',#1141,4.7);
#444=CIRCLE('',#1153,3.6);
#445=CIRCLE('',#1155,3.6);
#446=CIRCLE('',#1156,3.6);
#447=CIRCLE('',#1157,3.6);
#448=CIRCLE('',#1158,3.6);
#449=CIRCLE('',#1163,4.7);
#450=CIRCLE('',#1164,3.);
#451=CIRCLE('',#1166,3.);
#452=CIRCLE('',#1168,4.7);
#453=CIRCLE('',#1171,4.7);
#454=CIRCLE('',#1172,3.);
#455=CIRCLE('',#1174,3.);
#456=CIRCLE('',#1176,4.7);
#457=VERTEX_POINT('',#1490);
#458=VERTEX_POINT('',#1492);
#459=VERTEX_POINT('',#1496);
#460=VERTEX_POINT('',#1497);
#461=VERTEX_POINT('',#1501);
#462=VERTEX_POINT('',#1502);
#463=VERTEX_POINT('',#1504);
#464=VERTEX_POINT('',#1509);
#465=VERTEX_POINT('',#1510);
#466=VERTEX_POINT('',#1512);
#467=VERTEX_POINT('',#1514);
#468=VERTEX_POINT('',#1516);
#469=VERTEX_POINT('',#1518);
#470=VERTEX_POINT('',#1520);
#471=VERTEX_POINT('',#1522);
#472=VERTEX_POINT('',#1524);
#473=VERTEX_POINT('',#1526);
#474=VERTEX_POINT('',#1530);
#475=VERTEX_POINT('',#1531);
#476=VERTEX_POINT('',#1533);
#477=VERTEX_POINT('',#1535);
#478=VERTEX_POINT('',#1537);
#479=VERTEX_POINT('',#1539);
#480=VERTEX_POINT('',#1541);
#481=VERTEX_POINT('',#1543);
#482=VERTEX_POINT('',#1545);
#483=VERTEX_POINT('',#1547);
#484=VERTEX_POINT('',#1551);
#485=VERTEX_POINT('',#1553);
#486=VERTEX_POINT('',#1555);
#487=VERTEX_POINT('',#1557);
#488=VERTEX_POINT('',#1561);
#489=VERTEX_POINT('',#1562);
#490=VERTEX_POINT('',#1564);
#491=VERTEX_POINT('',#1566);
#492=VERTEX_POINT('',#1568);
#493=VERTEX_POINT('',#1570);
#494=VERTEX_POINT('',#1599);
#495=VERTEX_POINT('',#1602);
#496=VERTEX_POINT('',#1611);
#497=VERTEX_POINT('',#1613);
#498=VERTEX_POINT('',#1616);
#499=VERTEX_POINT('',#1620);
#500=VERTEX_POINT('',#1625);
#501=VERTEX_POINT('',#1627);
#502=VERTEX_POINT('',#1630);
#503=VERTEX_POINT('',#1634);
#504=VERTEX_POINT('',#1639);
#505=VERTEX_POINT('',#1641);
#506=VERTEX_POINT('',#1645);
#507=VERTEX_POINT('',#1646);
#508=VERTEX_POINT('',#1650);
#509=VERTEX_POINT('',#1651);
#510=VERTEX_POINT('',#1653);
#511=VERTEX_POINT('',#1658);
#512=VERTEX_POINT('',#1659);
#513=VERTEX_POINT('',#1661);
#514=VERTEX_POINT('',#1663);
#515=VERTEX_POINT('',#1665);
#516=VERTEX_POINT('',#1667);
#517=VERTEX_POINT('',#1669);
#518=VERTEX_POINT('',#1671);
#519=VERTEX_POINT('',#1673);
#520=VERTEX_POINT('',#1675);
#521=VERTEX_POINT('',#1679);
#522=VERTEX_POINT('',#1680);
#523=VERTEX_POINT('',#1682);
#524=VERTEX_POINT('',#1684);
#525=VERTEX_POINT('',#1686);
#526=VERTEX_POINT('',#1688);
#527=VERTEX_POINT('',#1690);
#528=VERTEX_POINT('',#1692);
#529=VERTEX_POINT('',#1694);
#530=VERTEX_POINT('',#1696);
#531=VERTEX_POINT('',#1700);
#532=VERTEX_POINT('',#1702);
#533=VERTEX_POINT('',#1704);
#534=VERTEX_POINT('',#1706);
#535=VERTEX_POINT('',#1710);
#536=VERTEX_POINT('',#1711);
#537=VERTEX_POINT('',#1713);
#538=VERTEX_POINT('',#1715);
#539=VERTEX_POINT('',#1717);
#540=VERTEX_POINT('',#1719);
#541=VERTEX_POINT('',#1748);
#542=VERTEX_POINT('',#1751);
#543=VERTEX_POINT('',#1760);
#544=VERTEX_POINT('',#1762);
#545=VERTEX_POINT('',#1765);
#546=VERTEX_POINT('',#1769);
#547=VERTEX_POINT('',#1774);
#548=VERTEX_POINT('',#1776);
#549=VERTEX_POINT('',#1779);
#550=VERTEX_POINT('',#1783);
#551=EDGE_CURVE('',#457,#457,#415,.T.);
#552=EDGE_CURVE('',#457,#458,#215,.T.);
#553=EDGE_CURVE('',#458,#458,#416,.T.);
#554=EDGE_CURVE('',#459,#460,#417,.T.);
#555=EDGE_CURVE('',#460,#459,#216,.T.);
#556=EDGE_CURVE('',#461,#462,#217,.T.);
#557=EDGE_CURVE('',#461,#463,#418,.T.);
#558=EDGE_CURVE('',#462,#463,#218,.T.);
#559=EDGE_CURVE('',#464,#465,#219,.T.);
#560=EDGE_CURVE('',#464,#466,#220,.T.);
#561=EDGE_CURVE('',#466,#467,#221,.T.);
#562=EDGE_CURVE('',#467,#468,#222,.T.);
#563=EDGE_CURVE('',#468,#469,#223,.T.);
#564=EDGE_CURVE('',#469,#470,#224,.T.);
#565=EDGE_CURVE('',#470,#471,#419,.T.);
#566=EDGE_CURVE('',#471,#472,#225,.T.);
#567=EDGE_CURVE('',#472,#473,#226,.T.);
#568=EDGE_CURVE('',#473,#465,#227,.T.);
#569=EDGE_CURVE('',#474,#475,#228,.T.);
#570=EDGE_CURVE('',#474,#476,#229,.T.);
#571=EDGE_CURVE('',#476,#477,#230,.T.);
#572=EDGE_CURVE('',#477,#478,#231,.T.);
#573=EDGE_CURVE('',#478,#479,#420,.T.);
#574=EDGE_CURVE('',#479,#480,#232,.T.);
#575=EDGE_CURVE('',#480,#481,#233,.T.);
#576=EDGE_CURVE('',#481,#482,#234,.T.);
#577=EDGE_CURVE('',#482,#483,#235,.T.);
#578=EDGE_CURVE('',#483,#475,#236,.T.);
#579=EDGE_CURVE('',#484,#463,#237,.T.);
#580=EDGE_CURVE('',#484,#485,#238,.T.);
#581=EDGE_CURVE('',#485,#486,#239,.T.);
#582=EDGE_CURVE('',#486,#487,#421,.T.);
#583=EDGE_CURVE('',#487,#462,#240,.T.);
#584=EDGE_CURVE('',#488,#489,#241,.T.);
#585=EDGE_CURVE('',#489,#490,#422,.T.);
#586=EDGE_CURVE('',#490,#491,#242,.T.);
#587=EDGE_CURVE('',#491,#492,#243,.T.);
#588=EDGE_CURVE('',#493,#492,#244,.T.);
#589=EDGE_CURVE('',#493,#488,#245,.F.);
#590=EDGE_CURVE('',#482,#467,#246,.T.);
#591=EDGE_CURVE('',#468,#481,#247,.T.);
#592=EDGE_CURVE('',#469,#480,#248,.T.);
#593=EDGE_CURVE('',#470,#479,#249,.T.);
#594=EDGE_CURVE('',#471,#478,#250,.T.);
#595=EDGE_CURVE('',#472,#477,#251,.T.);
#596=EDGE_CURVE('',#473,#476,#252,.T.);
#597=EDGE_CURVE('',#489,#487,#253,.T.);
#598=EDGE_CURVE('',#488,#461,#254,.T.);
#599=EDGE_CURVE('',#490,#486,#255,.T.);
#600=EDGE_CURVE('',#491,#485,#256,.T.);
#601=EDGE_CURVE('',#466,#483,#257,.T.);
#602=EDGE_CURVE('',#493,#461,#423,.T.);
#603=EDGE_CURVE('',#464,#492,#424,.T.);
#604=EDGE_CURVE('',#465,#494,#425,.T.);
#605=EDGE_CURVE('',#494,#460,#258,.T.);
#606=EDGE_CURVE('',#459,#495,#259,.T.);
#607=EDGE_CURVE('',#495,#474,#426,.T.);
#608=EDGE_CURVE('',#484,#475,#427,.T.);
#609=EDGE_CURVE('',#494,#495,#260,.T.);
#610=EDGE_CURVE('',#496,#496,#428,.T.);
#611=EDGE_CURVE('',#497,#497,#429,.T.);
#612=EDGE_CURVE('',#498,#498,#430,.T.);
#613=EDGE_CURVE('',#498,#497,#261,.T.);
#614=EDGE_CURVE('',#499,#499,#431,.T.);
#615=EDGE_CURVE('',#499,#496,#262,.T.);
#616=EDGE_CURVE('',#500,#500,#432,.T.);
#617=EDGE_CURVE('',#501,#501,#433,.T.);
#618=EDGE_CURVE('',#502,#502,#434,.T.);
#619=EDGE_CURVE('',#502,#501,#263,.T.);
#620=EDGE_CURVE('',#503,#503,#435,.T.);
#621=EDGE_CURVE('',#503,#500,#264,.T.);
#622=EDGE_CURVE('',#504,#504,#436,.T.);
#623=EDGE_CURVE('',#504,#505,#265,.T.);
#624=EDGE_CURVE('',#505,#505,#437,.T.);
#625=EDGE_CURVE('',#506,#507,#438,.T.);
#626=EDGE_CURVE('',#507,#506,#266,.T.);
#627=EDGE_CURVE('',#508,#509,#267,.T.);
#628=EDGE_CURVE('',#509,#510,#268,.T.);
#629=EDGE_CURVE('',#508,#510,#439,.T.);
#630=EDGE_CURVE('',#511,#512,#269,.T.);
#631=EDGE_CURVE('',#513,#512,#270,.T.);
#632=EDGE_CURVE('',#514,#513,#271,.T.);
#633=EDGE_CURVE('',#515,#514,#272,.T.);
#634=EDGE_CURVE('',#516,#515,#440,.T.);
#635=EDGE_CURVE('',#517,#516,#273,.T.);
#636=EDGE_CURVE('',#518,#517,#274,.T.);
#637=EDGE_CURVE('',#519,#518,#275,.T.);
#638=EDGE_CURVE('',#520,#519,#276,.T.);
#639=EDGE_CURVE('',#511,#520,#277,.T.);
#640=EDGE_CURVE('',#521,#522,#278,.T.);
#641=EDGE_CURVE('',#523,#522,#279,.T.);
#642=EDGE_CURVE('',#524,#523,#280,.T.);
#643=EDGE_CURVE('',#525,#524,#281,.T.);
#644=EDGE_CURVE('',#526,#525,#282,.T.);
#645=EDGE_CURVE('',#527,#526,#283,.T.);
#646=EDGE_CURVE('',#528,#527,#441,.T.);
#647=EDGE_CURVE('',#529,#528,#284,.T.);
#648=EDGE_CURVE('',#530,#529,#285,.T.);
#649=EDGE_CURVE('',#521,#530,#286,.T.);
#650=EDGE_CURVE('',#531,#509,#287,.T.);
#651=EDGE_CURVE('',#532,#531,#442,.T.);
#652=EDGE_CURVE('',#533,#532,#288,.T.);
#653=EDGE_CURVE('',#534,#533,#289,.T.);
#654=EDGE_CURVE('',#534,#510,#290,.T.);
#655=EDGE_CURVE('',#535,#536,#291,.T.);
#656=EDGE_CURVE('',#537,#535,#292,.F.);
#657=EDGE_CURVE('',#537,#538,#293,.T.);
#658=EDGE_CURVE('',#539,#538,#294,.T.);
#659=EDGE_CURVE('',#540,#539,#295,.T.);
#660=EDGE_CURVE('',#536,#540,#443,.T.);
#661=EDGE_CURVE('',#524,#519,#296,.T.);
#662=EDGE_CURVE('',#518,#525,#297,.T.);
#663=EDGE_CURVE('',#517,#526,#298,.T.);
#664=EDGE_CURVE('',#516,#527,#299,.T.);
#665=EDGE_CURVE('',#515,#528,#300,.T.);
#666=EDGE_CURVE('',#514,#529,#301,.T.);
#667=EDGE_CURVE('',#513,#530,#302,.T.);
#668=EDGE_CURVE('',#535,#508,#303,.T.);
#669=EDGE_CURVE('',#536,#531,#304,.T.);
#670=EDGE_CURVE('',#540,#532,#305,.T.);
#671=EDGE_CURVE('',#539,#533,#306,.T.);
#672=EDGE_CURVE('',#520,#523,#307,.T.);
#673=EDGE_CURVE('',#537,#508,#444,.T.);
#674=EDGE_CURVE('',#534,#522,#445,.T.);
#675=EDGE_CURVE('',#541,#521,#446,.T.);
#676=EDGE_CURVE('',#506,#541,#308,.T.);
#677=EDGE_CURVE('',#542,#507,#309,.T.);
#678=EDGE_CURVE('',#512,#542,#447,.T.);
#679=EDGE_CURVE('',#511,#538,#448,.T.);
#680=EDGE_CURVE('',#542,#541,#310,.T.);
#681=EDGE_CURVE('',#543,#543,#449,.T.);
#682=EDGE_CURVE('',#544,#544,#450,.T.);
#683=EDGE_CURVE('',#545,#545,#451,.T.);
#684=EDGE_CURVE('',#545,#544,#311,.T.);
#685=EDGE_CURVE('',#546,#546,#452,.T.);
#686=EDGE_CURVE('',#546,#543,#312,.T.);
#687=EDGE_CURVE('',#547,#547,#453,.T.);
#688=EDGE_CURVE('',#548,#548,#454,.T.);
#689=EDGE_CURVE('',#549,#549,#455,.T.);
#690=EDGE_CURVE('',#549,#548,#313,.T.);
#691=EDGE_CURVE('',#550,#550,#456,.T.);
#692=EDGE_CURVE('',#550,#547,#314,.T.);
#693=ORIENTED_EDGE('',*,*,#551,.F.);
#694=ORIENTED_EDGE('',*,*,#552,.T.);
#695=ORIENTED_EDGE('',*,*,#553,.F.);
#696=ORIENTED_EDGE('',*,*,#552,.F.);
#697=ORIENTED_EDGE('',*,*,#554,.T.);
#698=ORIENTED_EDGE('',*,*,#555,.T.);
#699=ORIENTED_EDGE('',*,*,#551,.T.);
#700=ORIENTED_EDGE('',*,*,#556,.F.);
#701=ORIENTED_EDGE('',*,*,#557,.T.);
#702=ORIENTED_EDGE('',*,*,#558,.F.);
#703=ORIENTED_EDGE('',*,*,#553,.T.);
#704=ORIENTED_EDGE('',*,*,#559,.F.);
#705=ORIENTED_EDGE('',*,*,#560,.T.);
#706=ORIENTED_EDGE('',*,*,#561,.T.);
#707=ORIENTED_EDGE('',*,*,#562,.T.);
#708=ORIENTED_EDGE('',*,*,#563,.T.);
#709=ORIENTED_EDGE('',*,*,#564,.T.);
#710=ORIENTED_EDGE('',*,*,#565,.T.);
#711=ORIENTED_EDGE('',*,*,#566,.T.);
#712=ORIENTED_EDGE('',*,*,#567,.T.);
#713=ORIENTED_EDGE('',*,*,#568,.T.);
#714=ORIENTED_EDGE('',*,*,#569,.F.);
#715=ORIENTED_EDGE('',*,*,#570,.T.);
#716=ORIENTED_EDGE('',*,*,#571,.T.);
#717=ORIENTED_EDGE('',*,*,#572,.T.);
#718=ORIENTED_EDGE('',*,*,#573,.T.);
#719=ORIENTED_EDGE('',*,*,#574,.T.);
#720=ORIENTED_EDGE('',*,*,#575,.T.);
#721=ORIENTED_EDGE('',*,*,#576,.T.);
#722=ORIENTED_EDGE('',*,*,#577,.T.);
#723=ORIENTED_EDGE('',*,*,#578,.T.);
#724=ORIENTED_EDGE('',*,*,#558,.T.);
#725=ORIENTED_EDGE('',*,*,#579,.F.);
#726=ORIENTED_EDGE('',*,*,#580,.T.);
#727=ORIENTED_EDGE('',*,*,#581,.T.);
#728=ORIENTED_EDGE('',*,*,#582,.T.);
#729=ORIENTED_EDGE('',*,*,#583,.T.);
#730=ORIENTED_EDGE('',*,*,#584,.T.);
#731=ORIENTED_EDGE('',*,*,#585,.T.);
#732=ORIENTED_EDGE('',*,*,#586,.T.);
#733=ORIENTED_EDGE('',*,*,#587,.T.);
#734=ORIENTED_EDGE('',*,*,#588,.F.);
#735=ORIENTED_EDGE('',*,*,#589,.T.);
#736=ORIENTED_EDGE('',*,*,#590,.F.);
#737=ORIENTED_EDGE('',*,*,#576,.F.);
#738=ORIENTED_EDGE('',*,*,#591,.F.);
#739=ORIENTED_EDGE('',*,*,#562,.F.);
#740=ORIENTED_EDGE('',*,*,#591,.T.);
#741=ORIENTED_EDGE('',*,*,#575,.F.);
#742=ORIENTED_EDGE('',*,*,#592,.F.);
#743=ORIENTED_EDGE('',*,*,#563,.F.);
#744=ORIENTED_EDGE('',*,*,#592,.T.);
#745=ORIENTED_EDGE('',*,*,#574,.F.);
#746=ORIENTED_EDGE('',*,*,#593,.F.);
#747=ORIENTED_EDGE('',*,*,#564,.F.);
#748=ORIENTED_EDGE('',*,*,#593,.T.);
#749=ORIENTED_EDGE('',*,*,#573,.F.);
#750=ORIENTED_EDGE('',*,*,#594,.F.);
#751=ORIENTED_EDGE('',*,*,#565,.F.);
#752=ORIENTED_EDGE('',*,*,#594,.T.);
#753=ORIENTED_EDGE('',*,*,#572,.F.);
#754=ORIENTED_EDGE('',*,*,#595,.F.);
#755=ORIENTED_EDGE('',*,*,#566,.F.);
#756=ORIENTED_EDGE('',*,*,#595,.T.);
#757=ORIENTED_EDGE('',*,*,#571,.F.);
#758=ORIENTED_EDGE('',*,*,#596,.F.);
#759=ORIENTED_EDGE('',*,*,#567,.F.);
#760=ORIENTED_EDGE('',*,*,#556,.T.);
#761=ORIENTED_EDGE('',*,*,#583,.F.);
#762=ORIENTED_EDGE('',*,*,#597,.F.);
#763=ORIENTED_EDGE('',*,*,#584,.F.);
#764=ORIENTED_EDGE('',*,*,#598,.T.);
#765=ORIENTED_EDGE('',*,*,#597,.T.);
#766=ORIENTED_EDGE('',*,*,#582,.F.);
#767=ORIENTED_EDGE('',*,*,#599,.F.);
#768=ORIENTED_EDGE('',*,*,#585,.F.);
#769=ORIENTED_EDGE('',*,*,#599,.T.);
#770=ORIENTED_EDGE('',*,*,#581,.F.);
#771=ORIENTED_EDGE('',*,*,#600,.F.);
#772=ORIENTED_EDGE('',*,*,#586,.F.);
#773=ORIENTED_EDGE('',*,*,#601,.T.);
#774=ORIENTED_EDGE('',*,*,#577,.F.);
#775=ORIENTED_EDGE('',*,*,#590,.T.);
#776=ORIENTED_EDGE('',*,*,#561,.F.);
#777=ORIENTED_EDGE('',*,*,#602,.T.);
#778=ORIENTED_EDGE('',*,*,#598,.F.);
#779=ORIENTED_EDGE('',*,*,#589,.F.);
#780=ORIENTED_EDGE('',*,*,#588,.T.);
#781=ORIENTED_EDGE('',*,*,#603,.F.);
#782=ORIENTED_EDGE('',*,*,#559,.T.);
#783=ORIENTED_EDGE('',*,*,#604,.T.);
#784=ORIENTED_EDGE('',*,*,#605,.T.);
#785=ORIENTED_EDGE('',*,*,#554,.F.);
#786=ORIENTED_EDGE('',*,*,#606,.T.);
#787=ORIENTED_EDGE('',*,*,#607,.T.);
#788=ORIENTED_EDGE('',*,*,#569,.T.);
#789=ORIENTED_EDGE('',*,*,#608,.F.);
#790=ORIENTED_EDGE('',*,*,#579,.T.);
#791=ORIENTED_EDGE('',*,*,#557,.F.);
#792=ORIENTED_EDGE('',*,*,#602,.F.);
#793=ORIENTED_EDGE('',*,*,#603,.T.);
#794=ORIENTED_EDGE('',*,*,#587,.F.);
#795=ORIENTED_EDGE('',*,*,#600,.T.);
#796=ORIENTED_EDGE('',*,*,#580,.F.);
#797=ORIENTED_EDGE('',*,*,#608,.T.);
#798=ORIENTED_EDGE('',*,*,#578,.F.);
#799=ORIENTED_EDGE('',*,*,#601,.F.);
#800=ORIENTED_EDGE('',*,*,#560,.F.);
#801=ORIENTED_EDGE('',*,*,#605,.F.);
#802=ORIENTED_EDGE('',*,*,#609,.T.);
#803=ORIENTED_EDGE('',*,*,#606,.F.);
#804=ORIENTED_EDGE('',*,*,#555,.F.);
#805=ORIENTED_EDGE('',*,*,#609,.F.);
#806=ORIENTED_EDGE('',*,*,#604,.F.);
#807=ORIENTED_EDGE('',*,*,#568,.F.);
#808=ORIENTED_EDGE('',*,*,#596,.T.);
#809=ORIENTED_EDGE('',*,*,#570,.F.);
#810=ORIENTED_EDGE('',*,*,#607,.F.);
#811=ORIENTED_EDGE('',*,*,#610,.T.);
#812=ORIENTED_EDGE('',*,*,#611,.T.);
#813=ORIENTED_EDGE('',*,*,#612,.F.);
#814=ORIENTED_EDGE('',*,*,#613,.T.);
#815=ORIENTED_EDGE('',*,*,#611,.F.);
#816=ORIENTED_EDGE('',*,*,#613,.F.);
#817=ORIENTED_EDGE('',*,*,#614,.F.);
#818=ORIENTED_EDGE('',*,*,#615,.T.);
#819=ORIENTED_EDGE('',*,*,#610,.F.);
#820=ORIENTED_EDGE('',*,*,#615,.F.);
#821=ORIENTED_EDGE('',*,*,#614,.T.);
#822=ORIENTED_EDGE('',*,*,#612,.T.);
#823=ORIENTED_EDGE('',*,*,#616,.T.);
#824=ORIENTED_EDGE('',*,*,#617,.T.);
#825=ORIENTED_EDGE('',*,*,#618,.F.);
#826=ORIENTED_EDGE('',*,*,#619,.T.);
#827=ORIENTED_EDGE('',*,*,#617,.F.);
#828=ORIENTED_EDGE('',*,*,#619,.F.);
#829=ORIENTED_EDGE('',*,*,#620,.F.);
#830=ORIENTED_EDGE('',*,*,#621,.T.);
#831=ORIENTED_EDGE('',*,*,#616,.F.);
#832=ORIENTED_EDGE('',*,*,#621,.F.);
#833=ORIENTED_EDGE('',*,*,#620,.T.);
#834=ORIENTED_EDGE('',*,*,#618,.T.);
#835=ORIENTED_EDGE('',*,*,#622,.T.);
#836=ORIENTED_EDGE('',*,*,#623,.T.);
#837=ORIENTED_EDGE('',*,*,#624,.T.);
#838=ORIENTED_EDGE('',*,*,#623,.F.);
#839=ORIENTED_EDGE('',*,*,#625,.F.);
#840=ORIENTED_EDGE('',*,*,#626,.F.);
#841=ORIENTED_EDGE('',*,*,#622,.F.);
#842=ORIENTED_EDGE('',*,*,#627,.T.);
#843=ORIENTED_EDGE('',*,*,#628,.T.);
#844=ORIENTED_EDGE('',*,*,#629,.F.);
#845=ORIENTED_EDGE('',*,*,#624,.F.);
#846=ORIENTED_EDGE('',*,*,#630,.T.);
#847=ORIENTED_EDGE('',*,*,#631,.F.);
#848=ORIENTED_EDGE('',*,*,#632,.F.);
#849=ORIENTED_EDGE('',*,*,#633,.F.);
#850=ORIENTED_EDGE('',*,*,#634,.F.);
#851=ORIENTED_EDGE('',*,*,#635,.F.);
#852=ORIENTED_EDGE('',*,*,#636,.F.);
#853=ORIENTED_EDGE('',*,*,#637,.F.);
#854=ORIENTED_EDGE('',*,*,#638,.F.);
#855=ORIENTED_EDGE('',*,*,#639,.F.);
#856=ORIENTED_EDGE('',*,*,#640,.T.);
#857=ORIENTED_EDGE('',*,*,#641,.F.);
#858=ORIENTED_EDGE('',*,*,#642,.F.);
#859=ORIENTED_EDGE('',*,*,#643,.F.);
#860=ORIENTED_EDGE('',*,*,#644,.F.);
#861=ORIENTED_EDGE('',*,*,#645,.F.);
#862=ORIENTED_EDGE('',*,*,#646,.F.);
#863=ORIENTED_EDGE('',*,*,#647,.F.);
#864=ORIENTED_EDGE('',*,*,#648,.F.);
#865=ORIENTED_EDGE('',*,*,#649,.F.);
#866=ORIENTED_EDGE('',*,*,#628,.F.);
#867=ORIENTED_EDGE('',*,*,#650,.F.);
#868=ORIENTED_EDGE('',*,*,#651,.F.);
#869=ORIENTED_EDGE('',*,*,#652,.F.);
#870=ORIENTED_EDGE('',*,*,#653,.F.);
#871=ORIENTED_EDGE('',*,*,#654,.T.);
#872=ORIENTED_EDGE('',*,*,#655,.F.);
#873=ORIENTED_EDGE('',*,*,#656,.F.);
#874=ORIENTED_EDGE('',*,*,#657,.T.);
#875=ORIENTED_EDGE('',*,*,#658,.F.);
#876=ORIENTED_EDGE('',*,*,#659,.F.);
#877=ORIENTED_EDGE('',*,*,#660,.F.);
#878=ORIENTED_EDGE('',*,*,#661,.T.);
#879=ORIENTED_EDGE('',*,*,#637,.T.);
#880=ORIENTED_EDGE('',*,*,#662,.T.);
#881=ORIENTED_EDGE('',*,*,#643,.T.);
#882=ORIENTED_EDGE('',*,*,#662,.F.);
#883=ORIENTED_EDGE('',*,*,#636,.T.);
#884=ORIENTED_EDGE('',*,*,#663,.T.);
#885=ORIENTED_EDGE('',*,*,#644,.T.);
#886=ORIENTED_EDGE('',*,*,#663,.F.);
#887=ORIENTED_EDGE('',*,*,#635,.T.);
#888=ORIENTED_EDGE('',*,*,#664,.T.);
#889=ORIENTED_EDGE('',*,*,#645,.T.);
#890=ORIENTED_EDGE('',*,*,#664,.F.);
#891=ORIENTED_EDGE('',*,*,#634,.T.);
#892=ORIENTED_EDGE('',*,*,#665,.T.);
#893=ORIENTED_EDGE('',*,*,#646,.T.);
#894=ORIENTED_EDGE('',*,*,#665,.F.);
#895=ORIENTED_EDGE('',*,*,#633,.T.);
#896=ORIENTED_EDGE('',*,*,#666,.T.);
#897=ORIENTED_EDGE('',*,*,#647,.T.);
#898=ORIENTED_EDGE('',*,*,#666,.F.);
#899=ORIENTED_EDGE('',*,*,#632,.T.);
#900=ORIENTED_EDGE('',*,*,#667,.T.);
#901=ORIENTED_EDGE('',*,*,#648,.T.);
#902=ORIENTED_EDGE('',*,*,#627,.F.);
#903=ORIENTED_EDGE('',*,*,#668,.F.);
#904=ORIENTED_EDGE('',*,*,#655,.T.);
#905=ORIENTED_EDGE('',*,*,#669,.T.);
#906=ORIENTED_EDGE('',*,*,#650,.T.);
#907=ORIENTED_EDGE('',*,*,#669,.F.);
#908=ORIENTED_EDGE('',*,*,#660,.T.);
#909=ORIENTED_EDGE('',*,*,#670,.T.);
#910=ORIENTED_EDGE('',*,*,#651,.T.);
#911=ORIENTED_EDGE('',*,*,#670,.F.);
#912=ORIENTED_EDGE('',*,*,#659,.T.);
#913=ORIENTED_EDGE('',*,*,#671,.T.);
#914=ORIENTED_EDGE('',*,*,#652,.T.);
#915=ORIENTED_EDGE('',*,*,#672,.F.);
#916=ORIENTED_EDGE('',*,*,#638,.T.);
#917=ORIENTED_EDGE('',*,*,#661,.F.);
#918=ORIENTED_EDGE('',*,*,#642,.T.);
#919=ORIENTED_EDGE('',*,*,#673,.F.);
#920=ORIENTED_EDGE('',*,*,#656,.T.);
#921=ORIENTED_EDGE('',*,*,#668,.T.);
#922=ORIENTED_EDGE('',*,*,#657,.F.);
#923=ORIENTED_EDGE('',*,*,#673,.T.);
#924=ORIENTED_EDGE('',*,*,#629,.T.);
#925=ORIENTED_EDGE('',*,*,#654,.F.);
#926=ORIENTED_EDGE('',*,*,#674,.T.);
#927=ORIENTED_EDGE('',*,*,#640,.F.);
#928=ORIENTED_EDGE('',*,*,#675,.F.);
#929=ORIENTED_EDGE('',*,*,#676,.F.);
#930=ORIENTED_EDGE('',*,*,#625,.T.);
#931=ORIENTED_EDGE('',*,*,#677,.F.);
#932=ORIENTED_EDGE('',*,*,#678,.F.);
#933=ORIENTED_EDGE('',*,*,#630,.F.);
#934=ORIENTED_EDGE('',*,*,#679,.T.);
#935=ORIENTED_EDGE('',*,*,#679,.F.);
#936=ORIENTED_EDGE('',*,*,#639,.T.);
#937=ORIENTED_EDGE('',*,*,#672,.T.);
#938=ORIENTED_EDGE('',*,*,#641,.T.);
#939=ORIENTED_EDGE('',*,*,#674,.F.);
#940=ORIENTED_EDGE('',*,*,#653,.T.);
#941=ORIENTED_EDGE('',*,*,#671,.F.);
#942=ORIENTED_EDGE('',*,*,#658,.T.);
#943=ORIENTED_EDGE('',*,*,#677,.T.);
#944=ORIENTED_EDGE('',*,*,#626,.T.);
#945=ORIENTED_EDGE('',*,*,#676,.T.);
#946=ORIENTED_EDGE('',*,*,#680,.F.);
#947=ORIENTED_EDGE('',*,*,#680,.T.);
#948=ORIENTED_EDGE('',*,*,#675,.T.);
#949=ORIENTED_EDGE('',*,*,#649,.T.);
#950=ORIENTED_EDGE('',*,*,#667,.F.);
#951=ORIENTED_EDGE('',*,*,#631,.T.);
#952=ORIENTED_EDGE('',*,*,#678,.T.);
#953=ORIENTED_EDGE('',*,*,#681,.F.);
#954=ORIENTED_EDGE('',*,*,#682,.F.);
#955=ORIENTED_EDGE('',*,*,#683,.T.);
#956=ORIENTED_EDGE('',*,*,#684,.T.);
#957=ORIENTED_EDGE('',*,*,#682,.T.);
#958=ORIENTED_EDGE('',*,*,#684,.F.);
#959=ORIENTED_EDGE('',*,*,#685,.T.);
#960=ORIENTED_EDGE('',*,*,#686,.T.);
#961=ORIENTED_EDGE('',*,*,#681,.T.);
#962=ORIENTED_EDGE('',*,*,#686,.F.);
#963=ORIENTED_EDGE('',*,*,#685,.F.);
#964=ORIENTED_EDGE('',*,*,#683,.F.);
#965=ORIENTED_EDGE('',*,*,#687,.F.);
#966=ORIENTED_EDGE('',*,*,#688,.F.);
#967=ORIENTED_EDGE('',*,*,#689,.T.);
#968=ORIENTED_EDGE('',*,*,#690,.T.);
#969=ORIENTED_EDGE('',*,*,#688,.T.);
#970=ORIENTED_EDGE('',*,*,#690,.F.);
#971=ORIENTED_EDGE('',*,*,#691,.T.);
#972=ORIENTED_EDGE('',*,*,#692,.T.);
#973=ORIENTED_EDGE('',*,*,#687,.T.);
#974=ORIENTED_EDGE('',*,*,#692,.F.);
#975=ORIENTED_EDGE('',*,*,#691,.F.);
#976=ORIENTED_EDGE('',*,*,#689,.F.);
#977=CYLINDRICAL_SURFACE('',#1074,1.35);
#978=CYLINDRICAL_SURFACE('',#1093,4.7);
#979=CYLINDRICAL_SURFACE('',#1097,4.7);
#980=CYLINDRICAL_SURFACE('',#1102,3.6);
#981=CYLINDRICAL_SURFACE('',#1113,3.);
#982=CYLINDRICAL_SURFACE('',#1115,4.7);
#983=CYLINDRICAL_SURFACE('',#1121,3.);
#984=CYLINDRICAL_SURFACE('',#1123,4.7);
#985=CYLINDRICAL_SURFACE('',#1126,1.35);
#986=CYLINDRICAL_SURFACE('',#1145,4.7);
#987=CYLINDRICAL_SURFACE('',#1149,4.7);
#988=CYLINDRICAL_SURFACE('',#1154,3.6);
#989=CYLINDRICAL_SURFACE('',#1165,3.);
#990=CYLINDRICAL_SURFACE('',#1167,4.7);
#991=CYLINDRICAL_SURFACE('',#1173,3.);
#992=CYLINDRICAL_SURFACE('',#1175,4.7);
#993=ADVANCED_FACE('',(#81),#977,.F.);
#994=ADVANCED_FACE('',(#82,#25),#35,.F.);
#995=ADVANCED_FACE('',(#83),#36,.F.);
#996=ADVANCED_FACE('',(#84),#37,.F.);
#997=ADVANCED_FACE('',(#85),#38,.F.);
#998=ADVANCED_FACE('',(#86),#39,.T.);
#999=ADVANCED_FACE('',(#87),#40,.T.);
#1000=ADVANCED_FACE('',(#88),#41,.F.);
#1001=ADVANCED_FACE('',(#89),#42,.T.);
#1002=ADVANCED_FACE('',(#90),#43,.T.);
#1003=ADVANCED_FACE('',(#91),#44,.T.);
#1004=ADVANCED_FACE('',(#92),#978,.F.);
#1005=ADVANCED_FACE('',(#93),#45,.T.);
#1006=ADVANCED_FACE('',(#94),#46,.T.);
#1007=ADVANCED_FACE('',(#95),#47,.T.);
#1008=ADVANCED_FACE('',(#96),#979,.F.);
#1009=ADVANCED_FACE('',(#97),#48,.T.);
#1010=ADVANCED_FACE('',(#98),#49,.T.);
#1011=ADVANCED_FACE('',(#99),#50,.F.);
#1012=ADVANCED_FACE('',(#100),#980,.T.);
#1013=ADVANCED_FACE('',(#101),#51,.T.);
#1014=ADVANCED_FACE('',(#102),#52,.F.);
#1015=ADVANCED_FACE('',(#103),#53,.F.);
#1016=ADVANCED_FACE('',(#104,#26),#54,.F.);
#1017=ADVANCED_FACE('',(#105),#981,.F.);
#1018=ADVANCED_FACE('',(#106),#982,.T.);
#1019=ADVANCED_FACE('',(#107,#27),#55,.T.);
#1020=ADVANCED_FACE('',(#108,#28),#56,.F.);
#1021=ADVANCED_FACE('',(#109),#983,.F.);
#1022=ADVANCED_FACE('',(#110),#984,.T.);
#1023=ADVANCED_FACE('',(#111,#29),#57,.T.);
#1024=ADVANCED_FACE('',(#112),#985,.F.);
#1025=ADVANCED_FACE('',(#113,#30),#58,.T.);
#1026=ADVANCED_FACE('',(#114),#59,.T.);
#1027=ADVANCED_FACE('',(#115),#60,.T.);
#1028=ADVANCED_FACE('',(#116),#61,.T.);
#1029=ADVANCED_FACE('',(#117),#62,.F.);
#1030=ADVANCED_FACE('',(#118),#63,.F.);
#1031=ADVANCED_FACE('',(#119),#64,.T.);
#1032=ADVANCED_FACE('',(#120),#65,.F.);
#1033=ADVANCED_FACE('',(#121),#66,.F.);
#1034=ADVANCED_FACE('',(#122),#67,.F.);
#1035=ADVANCED_FACE('',(#123),#986,.F.);
#1036=ADVANCED_FACE('',(#124),#68,.F.);
#1037=ADVANCED_FACE('',(#125),#69,.F.);
#1038=ADVANCED_FACE('',(#126),#70,.F.);
#1039=ADVANCED_FACE('',(#127),#987,.F.);
#1040=ADVANCED_FACE('',(#128),#71,.F.);
#1041=ADVANCED_FACE('',(#129),#72,.F.);
#1042=ADVANCED_FACE('',(#130),#73,.T.);
#1043=ADVANCED_FACE('',(#131),#988,.T.);
#1044=ADVANCED_FACE('',(#132),#74,.F.);
#1045=ADVANCED_FACE('',(#133),#75,.T.);
#1046=ADVANCED_FACE('',(#134),#76,.T.);
#1047=ADVANCED_FACE('',(#135,#31),#77,.T.);
#1048=ADVANCED_FACE('',(#136),#989,.F.);
#1049=ADVANCED_FACE('',(#137),#990,.T.);
#1050=ADVANCED_FACE('',(#138,#32),#78,.F.);
#1051=ADVANCED_FACE('',(#139,#33),#79,.T.);
#1052=ADVANCED_FACE('',(#140),#991,.F.);
#1053=ADVANCED_FACE('',(#141),#992,.T.);
#1054=ADVANCED_FACE('',(#142,#34),#80,.F.);
#1055=CLOSED_SHELL('',(#993,#994,#995,#996,#997,#998,#999,#1000,#1001,#1002,
#1003,#1004,#1005,#1006,#1007,#1008,#1009,#1010,#1011,#1012,#1013,#1014,
#1015));
#1056=CLOSED_SHELL('',(#1016,#1017,#1018,#1019));
#1057=CLOSED_SHELL('',(#1020,#1021,#1022,#1023));
#1058=CLOSED_SHELL('',(#1024,#1025,#1026,#1027,#1028,#1029,#1030,#1031,
#1032,#1033,#1034,#1035,#1036,#1037,#1038,#1039,#1040,#1041,#1042,#1043,
#1044,#1045,#1046));
#1059=CLOSED_SHELL('',(#1047,#1048,#1049,#1050));
#1060=CLOSED_SHELL('',(#1051,#1052,#1053,#1054));
#1061=DERIVED_UNIT_ELEMENT(#1063,1.);
#1062=DERIVED_UNIT_ELEMENT(#1792,-3.);
#1063=(
MASS_UNIT()
NAMED_UNIT(*)
SI_UNIT(.KILO.,.GRAM.)
);
#1064=DERIVED_UNIT((#1061,#1062));
#1065=MEASURE_REPRESENTATION_ITEM('density measure',
POSITIVE_RATIO_MEASURE(7850.),#1064);
#1066=PROPERTY_DEFINITION_REPRESENTATION(#1071,#1068);
#1067=PROPERTY_DEFINITION_REPRESENTATION(#1072,#1069);
#1068=REPRESENTATION('material name',(#1070),#1789);
#1069=REPRESENTATION('density',(#1065),#1789);
#1070=DESCRIPTIVE_REPRESENTATION_ITEM('\X2\94A2\X0\','\X2\94A2\X0\');
#1071=PROPERTY_DEFINITION('material property','material name',#1799);
#1072=PROPERTY_DEFINITION('material property','density of part',#1799);
#1073=AXIS2_PLACEMENT_3D('',#1488,#1178,#1179);
#1074=AXIS2_PLACEMENT_3D('',#1489,#1180,#1181);
#1075=AXIS2_PLACEMENT_3D('',#1491,#1182,#1183);
#1076=AXIS2_PLACEMENT_3D('',#1494,#1185,#1186);
#1077=AXIS2_PLACEMENT_3D('',#1495,#1187,#1188);
#1078=AXIS2_PLACEMENT_3D('',#1498,#1189,#1190);
#1079=AXIS2_PLACEMENT_3D('',#1500,#1192,#1193);
#1080=AXIS2_PLACEMENT_3D('',#1505,#1195,#1196);
#1081=AXIS2_PLACEMENT_3D('',#1507,#1198,#1199);
#1082=AXIS2_PLACEMENT_3D('',#1508,#1200,#1201);
#1083=AXIS2_PLACEMENT_3D('',#1523,#1208,#1209);
#1084=AXIS2_PLACEMENT_3D('',#1529,#1213,#1214);
#1085=AXIS2_PLACEMENT_3D('',#1540,#1219,#1220);
#1086=AXIS2_PLACEMENT_3D('',#1550,#1226,#1227);
#1087=AXIS2_PLACEMENT_3D('',#1558,#1231,#1232);
#1088=AXIS2_PLACEMENT_3D('',#1560,#1234,#1235);
#1089=AXIS2_PLACEMENT_3D('',#1565,#1237,#1238);
#1090=AXIS2_PLACEMENT_3D('',#1573,#1243,#1244);
#1091=AXIS2_PLACEMENT_3D('',#1576,#1247,#1248);
#1092=AXIS2_PLACEMENT_3D('',#1578,#1250,#1251);
#1093=AXIS2_PLACEMENT_3D('',#1580,#1253,#1254);
#1094=AXIS2_PLACEMENT_3D('',#1582,#1256,#1257);
#1095=AXIS2_PLACEMENT_3D('',#1584,#1259,#1260);
#1096=AXIS2_PLACEMENT_3D('',#1586,#1262,#1263);
#1097=AXIS2_PLACEMENT_3D('',#1589,#1266,#1267);
#1098=AXIS2_PLACEMENT_3D('',#1591,#1269,#1270);
#1099=AXIS2_PLACEMENT_3D('',#1593,#1272,#1273);
#1100=AXIS2_PLACEMENT_3D('',#1595,#1275,#1276);
#1101=AXIS2_PLACEMENT_3D('',#1596,#1277,#1278);
#1102=AXIS2_PLACEMENT_3D('',#1597,#1279,#1280);
#1103=AXIS2_PLACEMENT_3D('',#1598,#1281,#1282);
#1104=AXIS2_PLACEMENT_3D('',#1600,#1283,#1284);
#1105=AXIS2_PLACEMENT_3D('',#1604,#1287,#1288);
#1106=AXIS2_PLACEMENT_3D('',#1605,#1289,#1290);
#1107=AXIS2_PLACEMENT_3D('',#1606,#1291,#1292);
#1108=AXIS2_PLACEMENT_3D('',#1607,#1293,#1294);
#1109=AXIS2_PLACEMENT_3D('',#1609,#1296,#1297);
#1110=AXIS2_PLACEMENT_3D('',#1610,#1298,#1299);
#1111=AXIS2_PLACEMENT_3D('',#1612,#1300,#1301);
#1112=AXIS2_PLACEMENT_3D('',#1614,#1302,#1303);
#1113=AXIS2_PLACEMENT_3D('',#1615,#1304,#1305);
#1114=AXIS2_PLACEMENT_3D('',#1617,#1306,#1307);
#1115=AXIS2_PLACEMENT_3D('',#1619,#1309,#1310);
#1116=AXIS2_PLACEMENT_3D('',#1621,#1311,#1312);
#1117=AXIS2_PLACEMENT_3D('',#1623,#1314,#1315);
#1118=AXIS2_PLACEMENT_3D('',#1624,#1316,#1317);
#1119=AXIS2_PLACEMENT_3D('',#1626,#1318,#1319);
#1120=AXIS2_PLACEMENT_3D('',#1628,#1320,#1321);
#1121=AXIS2_PLACEMENT_3D('',#1629,#1322,#1323);
#1122=AXIS2_PLACEMENT_3D('',#1631,#1324,#1325);
#1123=AXIS2_PLACEMENT_3D('',#1633,#1327,#1328);
#1124=AXIS2_PLACEMENT_3D('',#1635,#1329,#1330);
#1125=AXIS2_PLACEMENT_3D('',#1637,#1332,#1333);
#1126=AXIS2_PLACEMENT_3D('',#1638,#1334,#1335);
#1127=AXIS2_PLACEMENT_3D('',#1640,#1336,#1337);
#1128=AXIS2_PLACEMENT_3D('',#1643,#1339,#1340);
#1129=AXIS2_PLACEMENT_3D('',#1644,#1341,#1342);
#1130=AXIS2_PLACEMENT_3D('',#1647,#1343,#1344);
#1131=AXIS2_PLACEMENT_3D('',#1649,#1346,#1347);
#1132=AXIS2_PLACEMENT_3D('',#1655,#1350,#1351);
#1133=AXIS2_PLACEMENT_3D('',#1656,#1352,#1353);
#1134=AXIS2_PLACEMENT_3D('',#1657,#1354,#1355);
#1135=AXIS2_PLACEMENT_3D('',#1668,#1360,#1361);
#1136=AXIS2_PLACEMENT_3D('',#1678,#1367,#1368);
#1137=AXIS2_PLACEMENT_3D('',#1693,#1375,#1376);
#1138=AXIS2_PLACEMENT_3D('',#1699,#1380,#1381);
#1139=AXIS2_PLACEMENT_3D('',#1703,#1383,#1384);
#1140=AXIS2_PLACEMENT_3D('',#1709,#1388,#1389);
#1141=AXIS2_PLACEMENT_3D('',#1721,#1395,#1396);
#1142=AXIS2_PLACEMENT_3D('',#1722,#1397,#1398);
#1143=AXIS2_PLACEMENT_3D('',#1725,#1401,#1402);
#1144=AXIS2_PLACEMENT_3D('',#1727,#1404,#1405);
#1145=AXIS2_PLACEMENT_3D('',#1729,#1407,#1408);
#1146=AXIS2_PLACEMENT_3D('',#1731,#1410,#1411);
#1147=AXIS2_PLACEMENT_3D('',#1733,#1413,#1414);
#1148=AXIS2_PLACEMENT_3D('',#1735,#1416,#1417);
#1149=AXIS2_PLACEMENT_3D('',#1738,#1420,#1421);
#1150=AXIS2_PLACEMENT_3D('',#1740,#1423,#1424);
#1151=AXIS2_PLACEMENT_3D('',#1742,#1426,#1427);
#1152=AXIS2_PLACEMENT_3D('',#1744,#1429,#1430);
#1153=AXIS2_PLACEMENT_3D('',#1745,#1431,#1432);
#1154=AXIS2_PLACEMENT_3D('',#1746,#1433,#1434);
#1155=AXIS2_PLACEMENT_3D('',#1747,#1435,#1436);
#1156=AXIS2_PLACEMENT_3D('',#1749,#1437,#1438);
#1157=AXIS2_PLACEMENT_3D('',#1753,#1441,#1442);
#1158=AXIS2_PLACEMENT_3D('',#1754,#1443,#1444);
#1159=AXIS2_PLACEMENT_3D('',#1755,#1445,#1446);
#1160=AXIS2_PLACEMENT_3D('',#1756,#1447,#1448);
#1161=AXIS2_PLACEMENT_3D('',#1758,#1450,#1451);
#1162=AXIS2_PLACEMENT_3D('',#1759,#1452,#1453);
#1163=AXIS2_PLACEMENT_3D('',#1761,#1454,#1455);
#1164=AXIS2_PLACEMENT_3D('',#1763,#1456,#1457);
#1165=AXIS2_PLACEMENT_3D('',#1764,#1458,#1459);
#1166=AXIS2_PLACEMENT_3D('',#1766,#1460,#1461);
#1167=AXIS2_PLACEMENT_3D('',#1768,#1463,#1464);
#1168=AXIS2_PLACEMENT_3D('',#1770,#1465,#1466);
#1169=AXIS2_PLACEMENT_3D('',#1772,#1468,#1469);
#1170=AXIS2_PLACEMENT_3D('',#1773,#1470,#1471);
#1171=AXIS2_PLACEMENT_3D('',#1775,#1472,#1473);
#1172=AXIS2_PLACEMENT_3D('',#1777,#1474,#1475);
#1173=AXIS2_PLACEMENT_3D('',#1778,#1476,#1477);
#1174=AXIS2_PLACEMENT_3D('',#1780,#1478,#1479);
#1175=AXIS2_PLACEMENT_3D('',#1782,#1481,#1482);
#1176=AXIS2_PLACEMENT_3D('',#1784,#1483,#1484);
#1177=AXIS2_PLACEMENT_3D('',#1786,#1486,#1487);
#1178=DIRECTION('axis',(0.,0.,1.));
#1179=DIRECTION('refdir',(1.,0.,0.));
#1180=DIRECTION('center_axis',(0.,-1.,0.));
#1181=DIRECTION('ref_axis',(1.,0.,0.));
#1182=DIRECTION('center_axis',(0.,1.,0.));
#1183=DIRECTION('ref_axis',(1.,0.,0.));
#1184=DIRECTION('',(0.,1.,0.));
#1185=DIRECTION('center_axis',(0.,-1.,0.));
#1186=DIRECTION('ref_axis',(1.,0.,0.));
#1187=DIRECTION('center_axis',(0.,1.,0.));
#1188=DIRECTION('ref_axis',(1.,0.,0.));
#1189=DIRECTION('center_axis',(0.,-1.,0.));
#1190=DIRECTION('ref_axis',(1.,0.,0.));
#1191=DIRECTION('',(1.,0.,0.));
#1192=DIRECTION('center_axis',(0.,1.,0.));
#1193=DIRECTION('ref_axis',(1.,0.,0.));
#1194=DIRECTION('',(1.,0.,0.));
#1195=DIRECTION('center_axis',(0.,1.,0.));
#1196=DIRECTION('ref_axis',(1.,0.,0.));
#1197=DIRECTION('',(0.,0.,-1.));
#1198=DIRECTION('center_axis',(0.,1.,0.));
#1199=DIRECTION('ref_axis',(1.,0.,0.));
#1200=DIRECTION('center_axis',(1.,0.,0.));
#1201=DIRECTION('ref_axis',(0.,1.,0.));
#1202=DIRECTION('',(0.,-1.,0.));
#1203=DIRECTION('',(0.,0.,-1.));
#1204=DIRECTION('',(0.,-0.818249154351273,-0.574863741597456));
#1205=DIRECTION('',(0.,0.418472457110325,-0.908229487871897));
#1206=DIRECTION('',(0.,0.952222007600525,-0.30540669318341));
#1207=DIRECTION('',(0.,1.13686837721616E-13,-1.));
#1208=DIRECTION('center_axis',(1.,0.,0.));
#1209=DIRECTION('ref_axis',(0.,1.,0.));
#1210=DIRECTION('',(0.,-0.60086203056441,0.799352750809062));
#1211=DIRECTION('',(0.,-1.,-2.64338815386942E-17));
#1212=DIRECTION('',(0.,0.,1.));
#1213=DIRECTION('center_axis',(1.,0.,0.));
#1214=DIRECTION('ref_axis',(0.,1.,0.));
#1215=DIRECTION('',(0.,1.,0.));
#1216=DIRECTION('',(0.,0.,-1.));
#1217=DIRECTION('',(0.,1.,2.64338815386942E-17));
#1218=DIRECTION('',(0.,0.60086203056441,-0.799352750809062));
#1219=DIRECTION('center_axis',(-1.,0.,0.));
#1220=DIRECTION('ref_axis',(0.,1.,0.));
#1221=DIRECTION('',(0.,-1.13686837721616E-13,1.));
#1222=DIRECTION('',(0.,-0.952222007600525,0.30540669318341));
#1223=DIRECTION('',(0.,-0.418472457110325,0.908229487871897));
#1224=DIRECTION('',(0.,0.818249154351273,0.574863741597456));
#1225=DIRECTION('',(0.,0.,1.));
#1226=DIRECTION('center_axis',(1.,0.,0.));
#1227=DIRECTION('ref_axis',(0.,1.,0.));
#1228=DIRECTION('',(0.,-1.,0.));
#1229=DIRECTION('',(0.,0.,1.));
#1230=DIRECTION('',(0.,0.687470496945197,0.726212307682763));
#1231=DIRECTION('center_axis',(-1.,0.,0.));
#1232=DIRECTION('ref_axis',(0.,1.,0.));
#1233=DIRECTION('',(0.,-0.85716730070111,-0.515038074911723));
#1234=DIRECTION('center_axis',(1.,0.,0.));
#1235=DIRECTION('ref_axis',(0.,1.,0.));
#1236=DIRECTION('',(0.,0.85716730070111,0.515038074911723));
#1237=DIRECTION('center_axis',(1.,0.,0.));
#1238=DIRECTION('ref_axis',(0.,1.,0.));
#1239=DIRECTION('',(0.,-0.687470496945197,-0.726212307682763));
#1240=DIRECTION('',(0.,0.,-1.));
#1241=DIRECTION('',(0.,1.,0.));
#1242=DIRECTION('',(0.,0.,-1.));
#1243=DIRECTION('center_axis',(0.,0.908229487871897,0.418472457110325));
#1244=DIRECTION('ref_axis',(0.,-0.418472457110325,0.908229487871897));
#1245=DIRECTION('',(-1.,0.,0.));
#1246=DIRECTION('',(1.,0.,0.));
#1247=DIRECTION('center_axis',(0.,0.30540669318341,0.952222007600525));
#1248=DIRECTION('ref_axis',(0.,-0.952222007600525,0.30540669318341));
#1249=DIRECTION('',(1.,0.,0.));
#1250=DIRECTION('center_axis',(0.,1.,1.13686837721616E-13));
#1251=DIRECTION('ref_axis',(0.,-1.13686837721616E-13,1.));
#1252=DIRECTION('',(1.,0.,0.));
#1253=DIRECTION('center_axis',(1.,0.,0.));
#1254=DIRECTION('ref_axis',(0.,1.,0.));
#1255=DIRECTION('',(1.,0.,0.));
#1256=DIRECTION('center_axis',(0.,-0.799352750809062,-0.60086203056441));
#1257=DIRECTION('ref_axis',(0.,0.60086203056441,-0.799352750809062));
#1258=DIRECTION('',(1.,0.,0.));
#1259=DIRECTION('center_axis',(0.,2.64338815386942E-17,-1.));
#1260=DIRECTION('ref_axis',(0.,1.,2.64338815386942E-17));
#1261=DIRECTION('',(1.,0.,0.));
#1262=DIRECTION('center_axis',(0.,-0.515038074911723,0.85716730070111));
#1263=DIRECTION('ref_axis',(0.,-0.85716730070111,-0.515038074911723));
#1264=DIRECTION('',(1.,0.,0.));
#1265=DIRECTION('',(1.,0.,0.));
#1266=DIRECTION('center_axis',(1.,0.,0.));
#1267=DIRECTION('ref_axis',(0.,-0.675505217028314,-0.737355207323805));
#1268=DIRECTION('',(1.,0.,0.));
#1269=DIRECTION('center_axis',(0.,0.726212307682763,-0.687470496945197));
#1270=DIRECTION('ref_axis',(0.,0.687470496945197,0.726212307682763));
#1271=DIRECTION('',(1.,0.,0.));
#1272=DIRECTION('center_axis',(0.,0.574863741597456,-0.818249154351273));
#1273=DIRECTION('ref_axis',(0.,0.818249154351273,0.574863741597456));
#1274=DIRECTION('',(1.,0.,0.));
#1275=DIRECTION('center_axis',(0.,1.,0.));
#1276=DIRECTION('ref_axis',(1.,0.,0.));
#1277=DIRECTION('center_axis',(0.,1.,0.));
#1278=DIRECTION('ref_axis',(1.,0.,0.));
#1279=DIRECTION('center_axis',(0.,1.,0.));
#1280=DIRECTION('ref_axis',(6.12323399573677E-17,0.,1.));
#1281=DIRECTION('center_axis',(0.,1.,0.));
#1282=DIRECTION('ref_axis',(1.,0.,0.));
#1283=DIRECTION('center_axis',(0.,1.,0.));
#1284=DIRECTION('ref_axis',(1.,0.,0.));
#1285=DIRECTION('',(0.,-1.,0.));
#1286=DIRECTION('',(0.,1.,0.));
#1287=DIRECTION('center_axis',(0.,1.,0.));
#1288=DIRECTION('ref_axis',(1.,0.,0.));
#1289=DIRECTION('center_axis',(0.,1.,0.));
#1290=DIRECTION('ref_axis',(1.,0.,0.));
#1291=DIRECTION('center_axis',(0.,1.,0.));
#1292=DIRECTION('ref_axis',(1.,0.,0.));
#1293=DIRECTION('center_axis',(0.,0.,1.));
#1294=DIRECTION('ref_axis',(1.,0.,0.));
#1295=DIRECTION('',(1.,0.,0.));
#1296=DIRECTION('center_axis',(0.,1.,0.));
#1297=DIRECTION('ref_axis',(1.,0.,0.));
#1298=DIRECTION('center_axis',(1.,0.,0.));
#1299=DIRECTION('ref_axis',(0.,1.,0.));
#1300=DIRECTION('center_axis',(-1.,0.,0.));
#1301=DIRECTION('ref_axis',(0.,1.,0.));
#1302=DIRECTION('center_axis',(1.,0.,0.));
#1303=DIRECTION('ref_axis',(0.,1.,0.));
#1304=DIRECTION('center_axis',(1.,0.,0.));
#1305=DIRECTION('ref_axis',(0.,1.,0.));
#1306=DIRECTION('center_axis',(-1.,0.,0.));
#1307=DIRECTION('ref_axis',(0.,1.,0.));
#1308=DIRECTION('',(-1.,0.,0.));
#1309=DIRECTION('center_axis',(1.,0.,0.));
#1310=DIRECTION('ref_axis',(0.,1.,0.));
#1311=DIRECTION('center_axis',(1.,0.,0.));
#1312=DIRECTION('ref_axis',(0.,1.,0.));
#1313=DIRECTION('',(-1.,0.,0.));
#1314=DIRECTION('center_axis',(1.,0.,0.));
#1315=DIRECTION('ref_axis',(0.,1.,0.));
#1316=DIRECTION('center_axis',(1.,0.,0.));
#1317=DIRECTION('ref_axis',(0.,1.,0.));
#1318=DIRECTION('center_axis',(-1.,0.,0.));
#1319=DIRECTION('ref_axis',(0.,1.,0.));
#1320=DIRECTION('center_axis',(1.,0.,0.));
#1321=DIRECTION('ref_axis',(0.,1.,0.));
#1322=DIRECTION('center_axis',(1.,0.,0.));
#1323=DIRECTION('ref_axis',(0.,1.,0.));
#1324=DIRECTION('center_axis',(-1.,0.,0.));
#1325=DIRECTION('ref_axis',(0.,1.,0.));
#1326=DIRECTION('',(-1.,0.,0.));
#1327=DIRECTION('center_axis',(1.,0.,0.));
#1328=DIRECTION('ref_axis',(0.,1.,0.));
#1329=DIRECTION('center_axis',(1.,0.,0.));
#1330=DIRECTION('ref_axis',(0.,1.,0.));
#1331=DIRECTION('',(-1.,0.,0.));
#1332=DIRECTION('center_axis',(1.,0.,0.));
#1333=DIRECTION('ref_axis',(0.,1.,0.));
#1334=DIRECTION('center_axis',(0.,-1.,0.));
#1335=DIRECTION('ref_axis',(1.,0.,0.));
#1336=DIRECTION('center_axis',(0.,1.,0.));
#1337=DIRECTION('ref_axis',(1.,0.,0.));
#1338=DIRECTION('',(0.,-1.,0.));
#1339=DIRECTION('center_axis',(0.,-1.,0.));
#1340=DIRECTION('ref_axis',(1.,0.,0.));
#1341=DIRECTION('center_axis',(0.,1.,0.));
#1342=DIRECTION('ref_axis',(1.,0.,0.));
#1343=DIRECTION('center_axis',(0.,-1.,0.));
#1344=DIRECTION('ref_axis',(1.,0.,0.));
#1345=DIRECTION('',(1.,0.,0.));
#1346=DIRECTION('center_axis',(0.,1.,0.));
#1347=DIRECTION('ref_axis',(1.,0.,0.));
#1348=DIRECTION('',(1.,0.,0.));
#1349=DIRECTION('',(0.,0.,-1.));
#1350=DIRECTION('center_axis',(0.,1.,0.));
#1351=DIRECTION('ref_axis',(1.,0.,0.));
#1352=DIRECTION('center_axis',(0.,1.,0.));
#1353=DIRECTION('ref_axis',(1.,0.,0.));
#1354=DIRECTION('center_axis',(-1.,0.,0.));
#1355=DIRECTION('ref_axis',(0.,-1.,0.));
#1356=DIRECTION('',(0.,1.,0.));
#1357=DIRECTION('',(0.,0.,1.));
#1358=DIRECTION('',(0.,1.,-2.64338815386942E-17));
#1359=DIRECTION('',(0.,0.60086203056441,0.799352750809062));
#1360=DIRECTION('center_axis',(-1.,0.,0.));
#1361=DIRECTION('ref_axis',(0.,-1.,0.));
#1362=DIRECTION('',(0.,-1.13686837721616E-13,-1.));
#1363=DIRECTION('',(0.,-0.952222007600525,-0.30540669318341));
#1364=DIRECTION('',(0.,-0.418472457110325,-0.908229487871897));
#1365=DIRECTION('',(0.,0.818249154351273,-0.574863741597456));
#1366=DIRECTION('',(0.,0.,-1.));
#1367=DIRECTION('center_axis',(-1.,0.,0.));
#1368=DIRECTION('ref_axis',(0.,-1.,0.));
#1369=DIRECTION('',(0.,-1.,0.));
#1370=DIRECTION('',(0.,0.,1.));
#1371=DIRECTION('',(0.,-0.818249154351273,0.574863741597456));
#1372=DIRECTION('',(0.,0.418472457110325,0.908229487871897));
#1373=DIRECTION('',(0.,0.952222007600525,0.30540669318341));
#1374=DIRECTION('',(0.,1.13686837721616E-13,1.));
#1375=DIRECTION('center_axis',(1.,0.,0.));
#1376=DIRECTION('ref_axis',(0.,-1.,0.));
#1377=DIRECTION('',(0.,-0.60086203056441,-0.799352750809062));
#1378=DIRECTION('',(0.,-1.,2.64338815386942E-17));
#1379=DIRECTION('',(0.,0.,-1.));
#1380=DIRECTION('center_axis',(-1.,0.,0.));
#1381=DIRECTION('ref_axis',(0.,-1.,0.));
#1382=DIRECTION('',(0.,0.85716730070111,-0.515038074911723));
#1383=DIRECTION('center_axis',(1.,0.,0.));
#1384=DIRECTION('ref_axis',(0.,-1.,0.));
#1385=DIRECTION('',(0.,-0.687470496945197,0.726212307682763));
#1386=DIRECTION('',(0.,0.,1.));
#1387=DIRECTION('',(0.,1.,0.));
#1388=DIRECTION('center_axis',(-1.,0.,0.));
#1389=DIRECTION('ref_axis',(0.,-1.,0.));
#1390=DIRECTION('',(0.,-0.85716730070111,0.515038074911723));
#1391=DIRECTION('',(0.,0.,-1.));
#1392=DIRECTION('',(0.,-1.,0.));
#1393=DIRECTION('',(0.,0.,-1.));
#1394=DIRECTION('',(0.,0.687470496945197,-0.726212307682763));
#1395=DIRECTION('center_axis',(-1.,0.,0.));
#1396=DIRECTION('ref_axis',(0.,-1.,0.));
#1397=DIRECTION('center_axis',(0.,0.908229487871897,-0.418472457110325));
#1398=DIRECTION('ref_axis',(0.,0.418472457110325,0.908229487871897));
#1399=DIRECTION('',(-1.,0.,0.));
#1400=DIRECTION('',(1.,0.,0.));
#1401=DIRECTION('center_axis',(0.,0.30540669318341,-0.952222007600525));
#1402=DIRECTION('ref_axis',(0.,0.952222007600525,0.30540669318341));
#1403=DIRECTION('',(1.,0.,0.));
#1404=DIRECTION('center_axis',(0.,1.,-1.13686837721616E-13));
#1405=DIRECTION('ref_axis',(0.,1.13686837721616E-13,1.));
#1406=DIRECTION('',(1.,0.,0.));
#1407=DIRECTION('center_axis',(-1.,0.,0.));
#1408=DIRECTION('ref_axis',(0.,-1.,0.));
#1409=DIRECTION('',(1.,0.,0.));
#1410=DIRECTION('center_axis',(0.,-0.799352750809062,0.60086203056441));
#1411=DIRECTION('ref_axis',(0.,-0.60086203056441,-0.799352750809062));
#1412=DIRECTION('',(1.,0.,0.));
#1413=DIRECTION('center_axis',(0.,2.64338815386942E-17,1.));
#1414=DIRECTION('ref_axis',(0.,-1.,2.64338815386942E-17));
#1415=DIRECTION('',(1.,0.,0.));
#1416=DIRECTION('center_axis',(0.,-0.515038074911723,-0.85716730070111));
#1417=DIRECTION('ref_axis',(0.,0.85716730070111,-0.515038074911723));
#1418=DIRECTION('',(1.,0.,0.));
#1419=DIRECTION('',(1.,0.,0.));
#1420=DIRECTION('center_axis',(-1.,0.,0.));
#1421=DIRECTION('ref_axis',(0.,0.675505217028314,-0.737355207323805));
#1422=DIRECTION('',(1.,0.,0.));
#1423=DIRECTION('center_axis',(0.,0.726212307682763,0.687470496945197));
#1424=DIRECTION('ref_axis',(0.,-0.687470496945197,0.726212307682763));
#1425=DIRECTION('',(1.,0.,0.));
#1426=DIRECTION('center_axis',(0.,0.574863741597456,0.818249154351273));
#1427=DIRECTION('ref_axis',(0.,-0.818249154351273,0.574863741597456));
#1428=DIRECTION('',(1.,0.,0.));
#1429=DIRECTION('center_axis',(0.,1.,0.));
#1430=DIRECTION('ref_axis',(1.,0.,0.));
#1431=DIRECTION('center_axis',(0.,1.,0.));
#1432=DIRECTION('ref_axis',(1.,0.,0.));
#1433=DIRECTION('center_axis',(0.,1.,0.));
#1434=DIRECTION('ref_axis',(6.12323399573677E-17,0.,1.));
#1435=DIRECTION('center_axis',(0.,1.,0.));
#1436=DIRECTION('ref_axis',(1.,0.,0.));
#1437=DIRECTION('center_axis',(0.,1.,0.));
#1438=DIRECTION('ref_axis',(1.,0.,0.));
#1439=DIRECTION('',(0.,-1.,0.));
#1440=DIRECTION('',(0.,1.,0.));
#1441=DIRECTION('center_axis',(0.,1.,0.));
#1442=DIRECTION('ref_axis',(1.,0.,0.));
#1443=DIRECTION('center_axis',(0.,1.,0.));
#1444=DIRECTION('ref_axis',(1.,0.,0.));
#1445=DIRECTION('center_axis',(0.,1.,0.));
#1446=DIRECTION('ref_axis',(1.,0.,0.));
#1447=DIRECTION('center_axis',(0.,0.,-1.));
#1448=DIRECTION('ref_axis',(1.,0.,0.));
#1449=DIRECTION('',(1.,0.,0.));
#1450=DIRECTION('center_axis',(0.,1.,0.));
#1451=DIRECTION('ref_axis',(1.,0.,0.));
#1452=DIRECTION('center_axis',(-1.,0.,0.));
#1453=DIRECTION('ref_axis',(0.,-1.,0.));
#1454=DIRECTION('center_axis',(1.,0.,0.));
#1455=DIRECTION('ref_axis',(0.,-1.,0.));
#1456=DIRECTION('center_axis',(-1.,0.,0.));
#1457=DIRECTION('ref_axis',(0.,-1.,0.));
#1458=DIRECTION('center_axis',(-1.,0.,0.));
#1459=DIRECTION('ref_axis',(0.,-1.,0.));
#1460=DIRECTION('center_axis',(1.,0.,0.));
#1461=DIRECTION('ref_axis',(0.,-1.,0.));
#1462=DIRECTION('',(-1.,0.,0.));
#1463=DIRECTION('center_axis',(-1.,0.,0.));
#1464=DIRECTION('ref_axis',(0.,-1.,0.));
#1465=DIRECTION('center_axis',(-1.,0.,0.));
#1466=DIRECTION('ref_axis',(0.,-1.,0.));
#1467=DIRECTION('',(-1.,0.,0.));
#1468=DIRECTION('center_axis',(-1.,0.,0.));
#1469=DIRECTION('ref_axis',(0.,-1.,0.));
#1470=DIRECTION('center_axis',(-1.,0.,0.));
#1471=DIRECTION('ref_axis',(0.,-1.,0.));
#1472=DIRECTION('center_axis',(1.,0.,0.));
#1473=DIRECTION('ref_axis',(0.,-1.,0.));
#1474=DIRECTION('center_axis',(-1.,0.,0.));
#1475=DIRECTION('ref_axis',(0.,-1.,0.));
#1476=DIRECTION('center_axis',(-1.,0.,0.));
#1477=DIRECTION('ref_axis',(0.,-1.,0.));
#1478=DIRECTION('center_axis',(1.,0.,0.));
#1479=DIRECTION('ref_axis',(0.,-1.,0.));
#1480=DIRECTION('',(-1.,0.,0.));
#1481=DIRECTION('center_axis',(-1.,0.,0.));
#1482=DIRECTION('ref_axis',(0.,-1.,0.));
#1483=DIRECTION('center_axis',(-1.,0.,0.));
#1484=DIRECTION('ref_axis',(0.,-1.,0.));
#1485=DIRECTION('',(-1.,0.,0.));
#1486=DIRECTION('center_axis',(-1.,0.,0.));
#1487=DIRECTION('ref_axis',(0.,-1.,0.));
#1488=CARTESIAN_POINT('',(0.,0.,0.));
#1489=CARTESIAN_POINT('Origin',(0.,14.1231428332509,0.732691279867461));
#1490=CARTESIAN_POINT('',(-1.35,13.1231428332509,0.732691279867461));
#1491=CARTESIAN_POINT('Origin',(0.,13.1231428332509,0.732691279867461));
#1492=CARTESIAN_POINT('',(-1.35,14.1231428332509,0.732691279867461));
#1493=CARTESIAN_POINT('',(-1.35,14.1231428332509,0.732691279867461));
#1494=CARTESIAN_POINT('Origin',(0.,14.1231428332509,0.732691279867461));
#1495=CARTESIAN_POINT('Origin',(0.,13.1231428332509,1.37106526431857));
#1496=CARTESIAN_POINT('',(2.75,13.1231428332509,-1.59056075123033));
#1497=CARTESIAN_POINT('',(-2.75,13.1231428332509,-1.59056075123033));
#1498=CARTESIAN_POINT('Origin',(0.,13.1231428332509,0.732691279867461));
#1499=CARTESIAN_POINT('',(-2.75,13.1231428332509,-1.59056075123033));
#1500=CARTESIAN_POINT('Origin',(0.,31.1231428332509,0.732691279867461));
#1501=CARTESIAN_POINT('',(0.,31.1231428332509,4.33269127986746));
#1502=CARTESIAN_POINT('',(2.5,31.1231428332509,4.33269127986746));
#1503=CARTESIAN_POINT('',(0.,31.1231428332509,4.33269127986746));
#1504=CARTESIAN_POINT('',(2.5,31.1231428332509,3.32305804926518));
#1505=CARTESIAN_POINT('Origin',(0.,31.1231428332509,0.732691279867461));
#1506=CARTESIAN_POINT('',(2.5,31.1231428332509,-3.20189309426655));
#1507=CARTESIAN_POINT('Origin',(0.,14.1231428332509,0.732691279867461));
#1508=CARTESIAN_POINT('Origin',(-2.5,33.3782173757007,-7.13647746840055));
#1509=CARTESIAN_POINT('',(-2.5,48.1231428332509,-1.85767548953026));
#1510=CARTESIAN_POINT('',(-2.5,27.1231428332509,-1.85767548953026));
#1511=CARTESIAN_POINT('',(-2.5,14.1231428332509,-1.85767548953026));
#1512=CARTESIAN_POINT('',(-2.5,48.1231428332509,-2.86730872013254));
#1513=CARTESIAN_POINT('',(-2.5,48.1231428332509,-2.86730872013254));
#1514=CARTESIAN_POINT('',(-2.5,43.0436886463784,-6.43589662958593));
#1515=CARTESIAN_POINT('',(-2.5,43.0436886463784,-6.43589662958593));
#1516=CARTESIAN_POINT('',(-2.5,47.0897795776912,-15.2173087201325));
#1517=CARTESIAN_POINT('',(-2.5,43.0436886463784,-6.43589662958593));
#1518=CARTESIAN_POINT('',(-2.5,52.6332919181496,-16.9952825109159));
#1519=CARTESIAN_POINT('',(-2.5,52.6332919181496,-16.9952825109159));
#1520=CARTESIAN_POINT('',(-2.5,52.6332919181505,-24.4952825109159));
#1521=CARTESIAN_POINT('',(-2.5,52.6332919181505,-24.4952825109159));
#1522=CARTESIAN_POINT('',(-2.5,47.0897795776912,-27.5673087201325));
#1523=CARTESIAN_POINT('Origin',(-2.5,51.5439910679552,-29.0673087201325));
#1524=CARTESIAN_POINT('',(-2.5,28.5231428332509,-2.86730872013254));
#1525=CARTESIAN_POINT('',(-2.5,28.5231428332509,-2.86730872013254));
#1526=CARTESIAN_POINT('',(-2.5,27.1231428332509,-2.86730872013254));
#1527=CARTESIAN_POINT('',(-2.5,48.1231428332509,-2.86730872013254));
#1528=CARTESIAN_POINT('',(-2.5,27.1231428332509,-1.59056075123033));
#1529=CARTESIAN_POINT('Origin',(2.5,33.3782173757007,-7.13647746840055));
#1530=CARTESIAN_POINT('',(2.5,27.1231428332509,-1.85767548953026));
#1531=CARTESIAN_POINT('',(2.5,48.1231428332509,-1.85767548953026));
#1532=CARTESIAN_POINT('',(2.5,14.1231428332509,-1.85767548953026));
#1533=CARTESIAN_POINT('',(2.5,27.1231428332509,-2.86730872013254));
#1534=CARTESIAN_POINT('',(2.5,27.1231428332509,-1.59056075123033));
#1535=CARTESIAN_POINT('',(2.5,28.5231428332509,-2.86730872013254));
#1536=CARTESIAN_POINT('',(2.5,48.1231428332509,-2.86730872013254));
#1537=CARTESIAN_POINT('',(2.5,47.0897795776912,-27.5673087201325));
#1538=CARTESIAN_POINT('',(2.5,28.5231428332509,-2.86730872013254));
#1539=CARTESIAN_POINT('',(2.5,52.6332919181505,-24.4952825109159));
#1540=CARTESIAN_POINT('Origin',(2.5,51.5439910679552,-29.0673087201325));
#1541=CARTESIAN_POINT('',(2.5,52.6332919181496,-16.9952825109159));
#1542=CARTESIAN_POINT('',(2.5,52.6332919181505,-24.4952825109159));
#1543=CARTESIAN_POINT('',(2.5,47.0897795776912,-15.2173087201325));
#1544=CARTESIAN_POINT('',(2.5,52.6332919181496,-16.9952825109159));
#1545=CARTESIAN_POINT('',(2.5,43.0436886463784,-6.43589662958593));
#1546=CARTESIAN_POINT('',(2.5,43.0436886463784,-6.43589662958593));
#1547=CARTESIAN_POINT('',(2.5,48.1231428332509,-2.86730872013254));
#1548=CARTESIAN_POINT('',(2.5,43.0436886463784,-6.43589662958593));
#1549=CARTESIAN_POINT('',(2.5,48.1231428332509,-2.86730872013254));
#1550=CARTESIAN_POINT('Origin',(2.5,33.3782173757007,-7.13647746840055));
#1551=CARTESIAN_POINT('',(2.5,48.1231428332509,3.32305804926518));
#1552=CARTESIAN_POINT('',(2.5,14.1231428332509,3.32305804926518));
#1553=CARTESIAN_POINT('',(2.5,48.1231428332509,4.33269127986746));
#1554=CARTESIAN_POINT('',(2.5,48.1231428332509,-2.86730872013254));
#1555=CARTESIAN_POINT('',(2.5,51.6979894173659,8.10899527981783));
#1556=CARTESIAN_POINT('',(2.5,48.1231428332509,4.33269127986746));
#1557=CARTESIAN_POINT('',(2.5,46.0378538654502,13.2943537833314));
#1558=CARTESIAN_POINT('Origin',(2.5,50.7003633227352,12.7018965606328));
#1559=CARTESIAN_POINT('',(2.5,46.0378538654502,13.2943537833314));
#1560=CARTESIAN_POINT('Origin',(-2.5,33.3782173757007,-7.13647746840055));
#1561=CARTESIAN_POINT('',(-2.5,31.1231428332509,4.33269127986746));
#1562=CARTESIAN_POINT('',(-2.5,46.0378538654502,13.2943537833314));
#1563=CARTESIAN_POINT('',(-2.5,46.0378538654502,13.2943537833314));
#1564=CARTESIAN_POINT('',(-2.5,51.6979894173659,8.10899527981783));
#1565=CARTESIAN_POINT('Origin',(-2.5,50.7003633227352,12.7018965606328));
#1566=CARTESIAN_POINT('',(-2.5,48.1231428332509,4.33269127986746));
#1567=CARTESIAN_POINT('',(-2.5,48.1231428332509,4.33269127986746));
#1568=CARTESIAN_POINT('',(-2.5,48.1231428332509,3.32305804926518));
#1569=CARTESIAN_POINT('',(-2.5,48.1231428332509,-2.86730872013254));
#1570=CARTESIAN_POINT('',(-2.5,31.1231428332509,3.32305804926518));
#1571=CARTESIAN_POINT('',(-2.5,14.1231428332509,3.32305804926518));
#1572=CARTESIAN_POINT('',(-2.5,31.1231428332509,-3.20189309426655));
#1573=CARTESIAN_POINT('Origin',(0.,47.0897795776912,-15.2173087201325));
#1574=CARTESIAN_POINT('',(0.,43.0436886463784,-6.43589662958593));
#1575=CARTESIAN_POINT('',(0.,47.0897795776912,-15.2173087201325));
#1576=CARTESIAN_POINT('Origin',(0.,52.6332919181496,-16.9952825109159));
#1577=CARTESIAN_POINT('',(0.,52.6332919181496,-16.9952825109159));
#1578=CARTESIAN_POINT('Origin',(0.,52.6332919181505,-24.4952825109159));
#1579=CARTESIAN_POINT('',(0.,52.6332919181505,-24.4952825109159));
#1580=CARTESIAN_POINT('Origin',(0.,51.5439910679552,-29.0673087201325));
#1581=CARTESIAN_POINT('',(0.,47.0897795776912,-27.5673087201325));
#1582=CARTESIAN_POINT('Origin',(0.,28.5231428332509,-2.86730872013254));
#1583=CARTESIAN_POINT('',(0.,28.5231428332509,-2.86730872013254));
#1584=CARTESIAN_POINT('Origin',(0.,27.1231428332509,-2.86730872013254));
#1585=CARTESIAN_POINT('',(0.,27.1231428332509,-2.86730872013254));
#1586=CARTESIAN_POINT('Origin',(0.,46.0378538654502,13.2943537833314));
#1587=CARTESIAN_POINT('',(0.,46.0378538654502,13.2943537833314));
#1588=CARTESIAN_POINT('',(0.,31.1231428332509,4.33269127986746));
#1589=CARTESIAN_POINT('Origin',(0.,50.7003633227352,12.7018965606328));
#1590=CARTESIAN_POINT('',(0.,51.6979894173659,8.10899527981783));
#1591=CARTESIAN_POINT('Origin',(0.,48.1231428332509,4.33269127986746));
#1592=CARTESIAN_POINT('',(0.,48.1231428332509,4.33269127986746));
#1593=CARTESIAN_POINT('Origin',(0.,43.0436886463784,-6.43589662958593));
#1594=CARTESIAN_POINT('',(0.,48.1231428332509,-2.86730872013254));
#1595=CARTESIAN_POINT('Origin',(0.,31.1231428332509,0.732691279867461));
#1596=CARTESIAN_POINT('Origin',(0.,31.1231428332509,0.732691279867461));
#1597=CARTESIAN_POINT('Origin',(0.,14.1231428332509,0.732691279867461));
#1598=CARTESIAN_POINT('Origin',(0.,48.1231428332509,0.732691279867461));
#1599=CARTESIAN_POINT('',(-2.75,27.1231428332509,-1.59056075123033));
#1600=CARTESIAN_POINT('Origin',(0.,27.1231428332509,0.732691279867461));
#1601=CARTESIAN_POINT('',(-2.75,14.1231428332509,-1.59056075123033));
#1602=CARTESIAN_POINT('',(2.75,27.1231428332509,-1.59056075123033));
#1603=CARTESIAN_POINT('',(2.75,14.1231428332509,-1.59056075123033));
#1604=CARTESIAN_POINT('Origin',(0.,27.1231428332509,0.732691279867461));
#1605=CARTESIAN_POINT('Origin',(0.,48.1231428332509,0.732691279867461));
#1606=CARTESIAN_POINT('Origin',(0.,48.1231428332509,0.732691279867461));
#1607=CARTESIAN_POINT('Origin',(-2.75,14.1231428332509,-1.59056075123033));
#1608=CARTESIAN_POINT('',(-2.75,27.1231428332509,-1.59056075123033));
#1609=CARTESIAN_POINT('Origin',(0.,27.1231428332509,-2.22893473568143));
#1610=CARTESIAN_POINT('Origin',(-3.,50.7003633227352,12.7018965606328));
#1611=CARTESIAN_POINT('',(-3.,46.0003633227352,12.7018965606328));
#1612=CARTESIAN_POINT('Origin',(-3.,50.7003633227352,12.7018965606328));
#1613=CARTESIAN_POINT('',(-3.,47.7003633227352,12.7018965606328));
#1614=CARTESIAN_POINT('Origin',(-3.,50.7003633227352,12.7018965606328));
#1615=CARTESIAN_POINT('Origin',(0.,50.7003633227352,12.7018965606328));
#1616=CARTESIAN_POINT('',(3.,47.7003633227352,12.7018965606328));
#1617=CARTESIAN_POINT('Origin',(3.,50.7003633227352,12.7018965606328));
#1618=CARTESIAN_POINT('',(0.,47.7003633227352,12.7018965606328));
#1619=CARTESIAN_POINT('Origin',(0.,50.7003633227352,12.7018965606328));
#1620=CARTESIAN_POINT('',(3.,46.0003633227352,12.7018965606328));
#1621=CARTESIAN_POINT('Origin',(3.,50.7003633227352,12.7018965606328));
#1622=CARTESIAN_POINT('',(0.,46.0003633227352,12.7018965606328));
#1623=CARTESIAN_POINT('Origin',(3.,50.7003633227352,12.7018965606328));
#1624=CARTESIAN_POINT('Origin',(-3.,51.5439910679552,-29.0673087201325));
#1625=CARTESIAN_POINT('',(-3.,46.8439910679552,-29.0673087201325));
#1626=CARTESIAN_POINT('Origin',(-3.,51.5439910679552,-29.0673087201325));
#1627=CARTESIAN_POINT('',(-3.,48.5439910679552,-29.0673087201325));
#1628=CARTESIAN_POINT('Origin',(-3.,51.5439910679552,-29.0673087201325));
#1629=CARTESIAN_POINT('Origin',(0.,51.5439910679552,-29.0673087201325));
#1630=CARTESIAN_POINT('',(3.,48.5439910679552,-29.0673087201325));
#1631=CARTESIAN_POINT('Origin',(3.,51.5439910679552,-29.0673087201325));
#1632=CARTESIAN_POINT('',(0.,48.5439910679552,-29.0673087201325));
#1633=CARTESIAN_POINT('Origin',(0.,51.5439910679552,-29.0673087201325));
#1634=CARTESIAN_POINT('',(3.,46.8439910679552,-29.0673087201325));
#1635=CARTESIAN_POINT('Origin',(3.,51.5439910679552,-29.0673087201325));
#1636=CARTESIAN_POINT('',(0.,46.8439910679552,-29.0673087201325));
#1637=CARTESIAN_POINT('Origin',(3.,51.5439910679552,-29.0673087201325));
#1638=CARTESIAN_POINT('Origin',(0.,-14.1231428332509,0.732691279867461));
#1639=CARTESIAN_POINT('',(-1.35,-13.1231428332509,0.732691279867461));
#1640=CARTESIAN_POINT('Origin',(0.,-13.1231428332509,0.732691279867461));
#1641=CARTESIAN_POINT('',(-1.35,-14.1231428332509,0.732691279867461));
#1642=CARTESIAN_POINT('',(-1.35,-14.1231428332509,0.732691279867461));
#1643=CARTESIAN_POINT('Origin',(0.,-14.1231428332509,0.732691279867461));
#1644=CARTESIAN_POINT('Origin',(0.,-13.1231428332509,1.37106526431857));
#1645=CARTESIAN_POINT('',(2.75,-13.1231428332509,-1.59056075123033));
#1646=CARTESIAN_POINT('',(-2.75,-13.1231428332509,-1.59056075123033));
#1647=CARTESIAN_POINT('Origin',(0.,-13.1231428332509,0.732691279867461));
#1648=CARTESIAN_POINT('',(-2.75,-13.1231428332509,-1.59056075123033));
#1649=CARTESIAN_POINT('Origin',(0.,-31.1231428332509,0.732691279867461));
#1650=CARTESIAN_POINT('',(0.,-31.1231428332509,4.33269127986746));
#1651=CARTESIAN_POINT('',(2.5,-31.1231428332509,4.33269127986746));
#1652=CARTESIAN_POINT('',(0.,-31.1231428332509,4.33269127986746));
#1653=CARTESIAN_POINT('',(2.5,-31.1231428332509,3.32305804926518));
#1654=CARTESIAN_POINT('',(2.5,-31.1231428332509,-3.20189309426655));
#1655=CARTESIAN_POINT('Origin',(0.,-31.1231428332509,0.732691279867461));
#1656=CARTESIAN_POINT('Origin',(0.,-14.1231428332509,0.732691279867461));
#1657=CARTESIAN_POINT('Origin',(-2.5,-33.3782173757007,-7.13647746840055));
#1658=CARTESIAN_POINT('',(-2.5,-48.1231428332509,-1.85767548953026));
#1659=CARTESIAN_POINT('',(-2.5,-27.1231428332509,-1.85767548953026));
#1660=CARTESIAN_POINT('',(-2.5,-14.1231428332509,-1.85767548953026));
#1661=CARTESIAN_POINT('',(-2.5,-27.1231428332509,-2.86730872013254));
#1662=CARTESIAN_POINT('',(-2.5,-27.1231428332509,-1.59056075123033));
#1663=CARTESIAN_POINT('',(-2.5,-28.5231428332509,-2.86730872013254));
#1664=CARTESIAN_POINT('',(-2.5,-48.1231428332509,-2.86730872013254));
#1665=CARTESIAN_POINT('',(-2.5,-47.0897795776912,-27.5673087201325));
#1666=CARTESIAN_POINT('',(-2.5,-28.5231428332509,-2.86730872013254));
#1667=CARTESIAN_POINT('',(-2.5,-52.6332919181505,-24.4952825109159));
#1668=CARTESIAN_POINT('Origin',(-2.5,-51.5439910679552,-29.0673087201325));
#1669=CARTESIAN_POINT('',(-2.5,-52.6332919181496,-16.9952825109159));
#1670=CARTESIAN_POINT('',(-2.5,-52.6332919181505,-24.4952825109159));
#1671=CARTESIAN_POINT('',(-2.5,-47.0897795776912,-15.2173087201325));
#1672=CARTESIAN_POINT('',(-2.5,-52.6332919181496,-16.9952825109159));
#1673=CARTESIAN_POINT('',(-2.5,-43.0436886463784,-6.43589662958593));
#1674=CARTESIAN_POINT('',(-2.5,-43.0436886463784,-6.43589662958593));
#1675=CARTESIAN_POINT('',(-2.5,-48.1231428332509,-2.86730872013254));
#1676=CARTESIAN_POINT('',(-2.5,-43.0436886463784,-6.43589662958593));
#1677=CARTESIAN_POINT('',(-2.5,-48.1231428332509,-2.86730872013254));
#1678=CARTESIAN_POINT('Origin',(2.5,-33.3782173757007,-7.13647746840055));
#1679=CARTESIAN_POINT('',(2.5,-27.1231428332509,-1.85767548953026));
#1680=CARTESIAN_POINT('',(2.5,-48.1231428332509,-1.85767548953026));
#1681=CARTESIAN_POINT('',(2.5,-14.1231428332509,-1.85767548953026));
#1682=CARTESIAN_POINT('',(2.5,-48.1231428332509,-2.86730872013254));
#1683=CARTESIAN_POINT('',(2.5,-48.1231428332509,-2.86730872013254));
#1684=CARTESIAN_POINT('',(2.5,-43.0436886463784,-6.43589662958593));
#1685=CARTESIAN_POINT('',(2.5,-43.0436886463784,-6.43589662958593));
#1686=CARTESIAN_POINT('',(2.5,-47.0897795776912,-15.2173087201325));
#1687=CARTESIAN_POINT('',(2.5,-43.0436886463784,-6.43589662958593));
#1688=CARTESIAN_POINT('',(2.5,-52.6332919181496,-16.9952825109159));
#1689=CARTESIAN_POINT('',(2.5,-52.6332919181496,-16.9952825109159));
#1690=CARTESIAN_POINT('',(2.5,-52.6332919181505,-24.4952825109159));
#1691=CARTESIAN_POINT('',(2.5,-52.6332919181505,-24.4952825109159));
#1692=CARTESIAN_POINT('',(2.5,-47.0897795776912,-27.5673087201325));
#1693=CARTESIAN_POINT('Origin',(2.5,-51.5439910679552,-29.0673087201325));
#1694=CARTESIAN_POINT('',(2.5,-28.5231428332509,-2.86730872013254));
#1695=CARTESIAN_POINT('',(2.5,-28.5231428332509,-2.86730872013254));
#1696=CARTESIAN_POINT('',(2.5,-27.1231428332509,-2.86730872013254));
#1697=CARTESIAN_POINT('',(2.5,-48.1231428332509,-2.86730872013254));
#1698=CARTESIAN_POINT('',(2.5,-27.1231428332509,-1.59056075123033));
#1699=CARTESIAN_POINT('Origin',(2.5,-33.3782173757007,-7.13647746840055));
#1700=CARTESIAN_POINT('',(2.5,-46.0378538654502,13.2943537833314));
#1701=CARTESIAN_POINT('',(2.5,-46.0378538654502,13.2943537833314));
#1702=CARTESIAN_POINT('',(2.5,-51.6979894173659,8.10899527981783));
#1703=CARTESIAN_POINT('Origin',(2.5,-50.7003633227352,12.7018965606328));
#1704=CARTESIAN_POINT('',(2.5,-48.1231428332509,4.33269127986746));
#1705=CARTESIAN_POINT('',(2.5,-48.1231428332509,4.33269127986746));
#1706=CARTESIAN_POINT('',(2.5,-48.1231428332509,3.32305804926518));
#1707=CARTESIAN_POINT('',(2.5,-48.1231428332509,-2.86730872013254));
#1708=CARTESIAN_POINT('',(2.5,-14.1231428332509,3.32305804926518));
#1709=CARTESIAN_POINT('Origin',(-2.5,-33.3782173757007,-7.13647746840055));
#1710=CARTESIAN_POINT('',(-2.5,-31.1231428332509,4.33269127986746));
#1711=CARTESIAN_POINT('',(-2.5,-46.0378538654502,13.2943537833314));
#1712=CARTESIAN_POINT('',(-2.5,-46.0378538654502,13.2943537833314));
#1713=CARTESIAN_POINT('',(-2.5,-31.1231428332509,3.32305804926518));
#1714=CARTESIAN_POINT('',(-2.5,-31.1231428332509,-3.20189309426655));
#1715=CARTESIAN_POINT('',(-2.5,-48.1231428332509,3.32305804926518));
#1716=CARTESIAN_POINT('',(-2.5,-14.1231428332509,3.32305804926518));
#1717=CARTESIAN_POINT('',(-2.5,-48.1231428332509,4.33269127986746));
#1718=CARTESIAN_POINT('',(-2.5,-48.1231428332509,-2.86730872013254));
#1719=CARTESIAN_POINT('',(-2.5,-51.6979894173659,8.10899527981783));
#1720=CARTESIAN_POINT('',(-2.5,-48.1231428332509,4.33269127986746));
#1721=CARTESIAN_POINT('Origin',(-2.5,-50.7003633227352,12.7018965606328));
#1722=CARTESIAN_POINT('Origin',(0.,-47.0897795776912,-15.2173087201325));
#1723=CARTESIAN_POINT('',(0.,-43.0436886463784,-6.43589662958593));
#1724=CARTESIAN_POINT('',(0.,-47.0897795776912,-15.2173087201325));
#1725=CARTESIAN_POINT('Origin',(0.,-52.6332919181496,-16.9952825109159));
#1726=CARTESIAN_POINT('',(0.,-52.6332919181496,-16.9952825109159));
#1727=CARTESIAN_POINT('Origin',(0.,-52.6332919181505,-24.4952825109159));
#1728=CARTESIAN_POINT('',(0.,-52.6332919181505,-24.4952825109159));
#1729=CARTESIAN_POINT('Origin',(0.,-51.5439910679552,-29.0673087201325));
#1730=CARTESIAN_POINT('',(0.,-47.0897795776912,-27.5673087201325));
#1731=CARTESIAN_POINT('Origin',(0.,-28.5231428332509,-2.86730872013254));
#1732=CARTESIAN_POINT('',(0.,-28.5231428332509,-2.86730872013254));
#1733=CARTESIAN_POINT('Origin',(0.,-27.1231428332509,-2.86730872013254));
#1734=CARTESIAN_POINT('',(0.,-27.1231428332509,-2.86730872013254));
#1735=CARTESIAN_POINT('Origin',(0.,-46.0378538654502,13.2943537833314));
#1736=CARTESIAN_POINT('',(0.,-31.1231428332509,4.33269127986746));
#1737=CARTESIAN_POINT('',(0.,-46.0378538654502,13.2943537833314));
#1738=CARTESIAN_POINT('Origin',(0.,-50.7003633227352,12.7018965606328));
#1739=CARTESIAN_POINT('',(0.,-51.6979894173659,8.10899527981783));
#1740=CARTESIAN_POINT('Origin',(0.,-48.1231428332509,4.33269127986746));
#1741=CARTESIAN_POINT('',(0.,-48.1231428332509,4.33269127986746));
#1742=CARTESIAN_POINT('Origin',(0.,-43.0436886463784,-6.43589662958593));
#1743=CARTESIAN_POINT('',(0.,-48.1231428332509,-2.86730872013254));
#1744=CARTESIAN_POINT('Origin',(0.,-31.1231428332509,0.732691279867461));
#1745=CARTESIAN_POINT('Origin',(0.,-31.1231428332509,0.732691279867461));
#1746=CARTESIAN_POINT('Origin',(0.,-14.1231428332509,0.732691279867461));
#1747=CARTESIAN_POINT('Origin',(0.,-48.1231428332509,0.732691279867461));
#1748=CARTESIAN_POINT('',(2.75,-27.1231428332509,-1.59056075123033));
#1749=CARTESIAN_POINT('Origin',(0.,-27.1231428332509,0.732691279867461));
#1750=CARTESIAN_POINT('',(2.75,-14.1231428332509,-1.59056075123033));
#1751=CARTESIAN_POINT('',(-2.75,-27.1231428332509,-1.59056075123033));
#1752=CARTESIAN_POINT('',(-2.75,-14.1231428332509,-1.59056075123033));
#1753=CARTESIAN_POINT('Origin',(0.,-27.1231428332509,0.732691279867461));
#1754=CARTESIAN_POINT('Origin',(0.,-48.1231428332509,0.732691279867461));
#1755=CARTESIAN_POINT('Origin',(0.,-48.1231428332509,0.732691279867461));
#1756=CARTESIAN_POINT('Origin',(-2.75,-14.1231428332509,-1.59056075123033));
#1757=CARTESIAN_POINT('',(-2.75,-27.1231428332509,-1.59056075123033));
#1758=CARTESIAN_POINT('Origin',(0.,-27.1231428332509,-2.22893473568143));
#1759=CARTESIAN_POINT('Origin',(-3.,-50.7003633227352,12.7018965606328));
#1760=CARTESIAN_POINT('',(-3.,-46.0003633227352,12.7018965606328));
#1761=CARTESIAN_POINT('Origin',(-3.,-50.7003633227352,12.7018965606328));
#1762=CARTESIAN_POINT('',(-3.,-47.7003633227352,12.7018965606328));
#1763=CARTESIAN_POINT('Origin',(-3.,-50.7003633227352,12.7018965606328));
#1764=CARTESIAN_POINT('Origin',(0.,-50.7003633227352,12.7018965606328));
#1765=CARTESIAN_POINT('',(3.,-47.7003633227352,12.7018965606328));
#1766=CARTESIAN_POINT('Origin',(3.,-50.7003633227352,12.7018965606328));
#1767=CARTESIAN_POINT('',(0.,-47.7003633227352,12.7018965606328));
#1768=CARTESIAN_POINT('Origin',(0.,-50.7003633227352,12.7018965606328));
#1769=CARTESIAN_POINT('',(3.,-46.0003633227352,12.7018965606328));
#1770=CARTESIAN_POINT('Origin',(3.,-50.7003633227352,12.7018965606328));
#1771=CARTESIAN_POINT('',(0.,-46.0003633227352,12.7018965606328));
#1772=CARTESIAN_POINT('Origin',(3.,-50.7003633227352,12.7018965606328));
#1773=CARTESIAN_POINT('Origin',(-3.,-51.5439910679552,-29.0673087201325));
#1774=CARTESIAN_POINT('',(-3.,-46.8439910679552,-29.0673087201325));
#1775=CARTESIAN_POINT('Origin',(-3.,-51.5439910679552,-29.0673087201325));
#1776=CARTESIAN_POINT('',(-3.,-48.5439910679552,-29.0673087201325));
#1777=CARTESIAN_POINT('Origin',(-3.,-51.5439910679552,-29.0673087201325));
#1778=CARTESIAN_POINT('Origin',(0.,-51.5439910679552,-29.0673087201325));
#1779=CARTESIAN_POINT('',(3.,-48.5439910679552,-29.0673087201325));
#1780=CARTESIAN_POINT('Origin',(3.,-51.5439910679552,-29.0673087201325));
#1781=CARTESIAN_POINT('',(0.,-48.5439910679552,-29.0673087201325));
#1782=CARTESIAN_POINT('Origin',(0.,-51.5439910679552,-29.0673087201325));
#1783=CARTESIAN_POINT('',(3.,-46.8439910679552,-29.0673087201325));
#1784=CARTESIAN_POINT('Origin',(3.,-51.5439910679552,-29.0673087201325));
#1785=CARTESIAN_POINT('',(0.,-46.8439910679552,-29.0673087201325));
#1786=CARTESIAN_POINT('Origin',(3.,-51.5439910679552,-29.0673087201325));
#1787=UNCERTAINTY_MEASURE_WITH_UNIT(LENGTH_MEASURE(0.01),#1791,
'DISTANCE_ACCURACY_VALUE',
'Maximum model space distance between geometric entities at asserted c
onnectivities');
#1788=UNCERTAINTY_MEASURE_WITH_UNIT(LENGTH_MEASURE(0.01),#1791,
'DISTANCE_ACCURACY_VALUE',
'Maximum model space distance between geometric entities at asserted c
onnectivities');
#1789=(
GEOMETRIC_REPRESENTATION_CONTEXT(3)
GLOBAL_UNCERTAINTY_ASSIGNED_CONTEXT((#1787))
GLOBAL_UNIT_ASSIGNED_CONTEXT((#1791,#1793,#1794))
REPRESENTATION_CONTEXT('','3D')
);
#1790=(
GEOMETRIC_REPRESENTATION_CONTEXT(3)
GLOBAL_UNCERTAINTY_ASSIGNED_CONTEXT((#1788))
GLOBAL_UNIT_ASSIGNED_CONTEXT((#1791,#1793,#1794))
REPRESENTATION_CONTEXT('','3D')
);
#1791=(
LENGTH_UNIT()
NAMED_UNIT(*)
SI_UNIT(.MILLI.,.METRE.)
);
#1792=(
LENGTH_UNIT()
NAMED_UNIT(*)
SI_UNIT($,.METRE.)
);
#1793=(
NAMED_UNIT(*)
PLANE_ANGLE_UNIT()
SI_UNIT($,.RADIAN.)
);
#1794=(
NAMED_UNIT(*)
SI_UNIT($,.STERADIAN.)
SOLID_ANGLE_UNIT()
);
#1795=SHAPE_DEFINITION_REPRESENTATION(#1796,#1797);
#1796=PRODUCT_DEFINITION_SHAPE('',$,#1799);
#1797=SHAPE_REPRESENTATION('',(#1073),#1789);
#1798=PRODUCT_DEFINITION_CONTEXT('part definition',#1803,'design');
#1799=PRODUCT_DEFINITION('2026-06-16-08-52-32-868','SAK-D639',#1800,#1798);
#1800=PRODUCT_DEFINITION_FORMATION('',$,#1805);
#1801=PRODUCT_RELATED_PRODUCT_CATEGORY('SAK-D639','SAK-D639',(#1805));
#1802=APPLICATION_PROTOCOL_DEFINITION('international standard',
'automotive_design',2009,#1803);
#1803=APPLICATION_CONTEXT(
'Core Data for Automotive Mechanical Design Process');
#1804=PRODUCT_CONTEXT('part definition',#1803,'mechanical');
#1805=PRODUCT('2026-06-16-08-52-32-868','SAK-D639',$,(#1804));
#1806=PRESENTATION_STYLE_ASSIGNMENT((#1807));
#1807=SURFACE_STYLE_USAGE(.BOTH.,#1808);
#1808=SURFACE_SIDE_STYLE('',(#1809));
#1809=SURFACE_STYLE_FILL_AREA(#1810);
#1810=FILL_AREA_STYLE('\X2\94A2\X0\ - \X2\7F0E5149\X0\',(#1811));
#1811=FILL_AREA_STYLE_COLOUR('\X2\94A2\X0\ - \X2\7F0E5149\X0\',#1812);
#1812=COLOUR_RGB('\X2\94A2\X0\ - \X2\7F0E5149\X0\',0.627450980392157,0.627450980392157,
0.627450980392157);
ENDSEC;
END-ISO-10303-21;
