ISO-10303-21;
HEADER;
/* Generated by software containing ST-Developer
 * from STEP Tools, Inc. (www.steptools.com) 
 */

FILE_DESCRIPTION(
/* description */ (''),
/* implementation_level */ '2;1');

FILE_NAME(
/* name */ '',
/* time_stamp */ '2026-08-11T12:41:24+09:00',
/* author */ (''),
/* organization */ (''),
/* preprocessor_version */ 'ST-DEVELOPER v20.1',
/* originating_system */ 'Autodesk Translation Framework v15.8.0.0',
/* authorisation */ '');

FILE_SCHEMA (('AUTOMOTIVE_DESIGN { 1 0 10303 214 3 1 1 }'));
ENDSEC;

DATA;
#10=MECHANICAL_DESIGN_GEOMETRIC_PRESENTATION_REPRESENTATION('',(#13,#14),
#1506);
#11=SHAPE_REPRESENTATION_RELATIONSHIP('SRR','None',#1513,#12);
#12=ADVANCED_BREP_SHAPE_REPRESENTATION('',(#15,#16),#1505);
#13=STYLED_ITEM('',(#1522),#15);
#14=STYLED_ITEM('',(#1522),#16);
#15=MANIFOLD_SOLID_BREP('\X2\5B9E4F53\X0\1',#900);
#16=MANIFOLD_SOLID_BREP('\X2\5B9E4F53\X0\3',#901);
#17=FACE_BOUND('',#119,.T.);
#18=FACE_BOUND('',#121,.T.);
#19=FACE_BOUND('',#123,.T.);
#20=FACE_BOUND('',#127,.T.);
#21=FACE_BOUND('',#129,.T.);
#22=FACE_BOUND('',#131,.T.);
#23=FACE_BOUND('',#133,.T.);
#24=FACE_BOUND('',#139,.T.);
#25=FACE_BOUND('',#142,.T.);
#26=FACE_BOUND('',#148,.T.);
#27=FACE_BOUND('',#152,.T.);
#28=FACE_BOUND('',#158,.T.);
#29=FACE_BOUND('',#160,.T.);
#30=FACE_BOUND('',#162,.T.);
#31=FACE_BOUND('',#166,.T.);
#32=FACE_BOUND('',#168,.T.);
#33=FACE_BOUND('',#170,.T.);
#34=FACE_BOUND('',#172,.T.);
#35=FACE_BOUND('',#178,.T.);
#36=FACE_BOUND('',#181,.T.);
#37=PLANE('',#921);
#38=PLANE('',#922);
#39=PLANE('',#923);
#40=PLANE('',#932);
#41=PLANE('',#933);
#42=PLANE('',#934);
#43=PLANE('',#935);
#44=PLANE('',#937);
#45=PLANE('',#942);
#46=PLANE('',#945);
#47=PLANE('',#946);
#48=PLANE('',#949);
#49=PLANE('',#956);
#50=PLANE('',#957);
#51=PLANE('',#958);
#52=PLANE('',#965);
#53=PLANE('',#966);
#54=PLANE('',#967);
#55=PLANE('',#968);
#56=PLANE('',#969);
#57=PLANE('',#970);
#58=PLANE('',#971);
#59=PLANE('',#980);
#60=PLANE('',#981);
#61=PLANE('',#982);
#62=PLANE('',#983);
#63=PLANE('',#985);
#64=PLANE('',#990);
#65=PLANE('',#993);
#66=PLANE('',#994);
#67=PLANE('',#997);
#68=FACE_OUTER_BOUND('',#115,.T.);
#69=FACE_OUTER_BOUND('',#116,.T.);
#70=FACE_OUTER_BOUND('',#117,.T.);
#71=FACE_OUTER_BOUND('',#118,.T.);
#72=FACE_OUTER_BOUND('',#120,.T.);
#73=FACE_OUTER_BOUND('',#122,.T.);
#74=FACE_OUTER_BOUND('',#124,.T.);
#75=FACE_OUTER_BOUND('',#125,.T.);
#76=FACE_OUTER_BOUND('',#126,.T.);
#77=FACE_OUTER_BOUND('',#128,.T.);
#78=FACE_OUTER_BOUND('',#130,.T.);
#79=FACE_OUTER_BOUND('',#132,.T.);
#80=FACE_OUTER_BOUND('',#134,.T.);
#81=FACE_OUTER_BOUND('',#135,.T.);
#82=FACE_OUTER_BOUND('',#136,.T.);
#83=FACE_OUTER_BOUND('',#137,.T.);
#84=FACE_OUTER_BOUND('',#138,.T.);
#85=FACE_OUTER_BOUND('',#140,.T.);
#86=FACE_OUTER_BOUND('',#141,.T.);
#87=FACE_OUTER_BOUND('',#143,.T.);
#88=FACE_OUTER_BOUND('',#144,.T.);
#89=FACE_OUTER_BOUND('',#145,.T.);
#90=FACE_OUTER_BOUND('',#146,.T.);
#91=FACE_OUTER_BOUND('',#147,.T.);
#92=FACE_OUTER_BOUND('',#149,.T.);
#93=FACE_OUTER_BOUND('',#150,.T.);
#94=FACE_OUTER_BOUND('',#151,.T.);
#95=FACE_OUTER_BOUND('',#153,.T.);
#96=FACE_OUTER_BOUND('',#154,.T.);
#97=FACE_OUTER_BOUND('',#155,.T.);
#98=FACE_OUTER_BOUND('',#156,.T.);
#99=FACE_OUTER_BOUND('',#157,.T.);
#100=FACE_OUTER_BOUND('',#159,.T.);
#101=FACE_OUTER_BOUND('',#161,.T.);
#102=FACE_OUTER_BOUND('',#163,.T.);
#103=FACE_OUTER_BOUND('',#164,.T.);
#104=FACE_OUTER_BOUND('',#165,.T.);
#105=FACE_OUTER_BOUND('',#167,.T.);
#106=FACE_OUTER_BOUND('',#169,.T.);
#107=FACE_OUTER_BOUND('',#171,.T.);
#108=FACE_OUTER_BOUND('',#173,.T.);
#109=FACE_OUTER_BOUND('',#174,.T.);
#110=FACE_OUTER_BOUND('',#175,.T.);
#111=FACE_OUTER_BOUND('',#176,.T.);
#112=FACE_OUTER_BOUND('',#177,.T.);
#113=FACE_OUTER_BOUND('',#179,.T.);
#114=FACE_OUTER_BOUND('',#180,.T.);
#115=EDGE_LOOP('',(#593,#594,#595,#596));
#116=EDGE_LOOP('',(#597,#598,#599,#600));
#117=EDGE_LOOP('',(#601,#602,#603,#604));
#118=EDGE_LOOP('',(#605,#606,#607,#608));
#119=EDGE_LOOP('',(#609));
#120=EDGE_LOOP('',(#610,#611,#612,#613));
#121=EDGE_LOOP('',(#614));
#122=EDGE_LOOP('',(#615,#616,#617,#618));
#123=EDGE_LOOP('',(#619,#620,#621,#622));
#124=EDGE_LOOP('',(#623,#624,#625,#626));
#125=EDGE_LOOP('',(#627,#628,#629,#630));
#126=EDGE_LOOP('',(#631,#632,#633,#634));
#127=EDGE_LOOP('',(#635));
#128=EDGE_LOOP('',(#636,#637,#638,#639));
#129=EDGE_LOOP('',(#640));
#130=EDGE_LOOP('',(#641,#642,#643,#644,#645,#646,#647,#648));
#131=EDGE_LOOP('',(#649));
#132=EDGE_LOOP('',(#650,#651,#652,#653));
#133=EDGE_LOOP('',(#654));
#134=EDGE_LOOP('',(#655,#656,#657,#658));
#135=EDGE_LOOP('',(#659,#660,#661,#662));
#136=EDGE_LOOP('',(#663,#664,#665,#666));
#137=EDGE_LOOP('',(#667,#668,#669,#670));
#138=EDGE_LOOP('',(#671,#672,#673,#674));
#139=EDGE_LOOP('',(#675));
#140=EDGE_LOOP('',(#676,#677,#678,#679));
#141=EDGE_LOOP('',(#680,#681,#682,#683,#684,#685,#686,#687));
#142=EDGE_LOOP('',(#688));
#143=EDGE_LOOP('',(#689,#690,#691,#692));
#144=EDGE_LOOP('',(#693,#694,#695,#696));
#145=EDGE_LOOP('',(#697,#698,#699,#700));
#146=EDGE_LOOP('',(#701,#702,#703,#704));
#147=EDGE_LOOP('',(#705,#706,#707,#708));
#148=EDGE_LOOP('',(#709));
#149=EDGE_LOOP('',(#710,#711,#712,#713));
#150=EDGE_LOOP('',(#714,#715,#716,#717));
#151=EDGE_LOOP('',(#718,#719,#720,#721));
#152=EDGE_LOOP('',(#722));
#153=EDGE_LOOP('',(#723,#724,#725,#726,#727,#728,#729,#730));
#154=EDGE_LOOP('',(#731,#732,#733,#734,#735,#736,#737,#738));
#155=EDGE_LOOP('',(#739,#740,#741,#742));
#156=EDGE_LOOP('',(#743,#744,#745,#746));
#157=EDGE_LOOP('',(#747,#748,#749,#750));
#158=EDGE_LOOP('',(#751));
#159=EDGE_LOOP('',(#752,#753,#754,#755));
#160=EDGE_LOOP('',(#756));
#161=EDGE_LOOP('',(#757,#758,#759,#760));
#162=EDGE_LOOP('',(#761,#762,#763,#764,#765));
#163=EDGE_LOOP('',(#766,#767,#768,#769));
#164=EDGE_LOOP('',(#770,#771,#772,#773));
#165=EDGE_LOOP('',(#774,#775,#776,#777));
#166=EDGE_LOOP('',(#778));
#167=EDGE_LOOP('',(#779,#780,#781,#782));
#168=EDGE_LOOP('',(#783));
#169=EDGE_LOOP('',(#784,#785,#786,#787,#788,#789,#790,#791));
#170=EDGE_LOOP('',(#792));
#171=EDGE_LOOP('',(#793,#794,#795,#796));
#172=EDGE_LOOP('',(#797));
#173=EDGE_LOOP('',(#798,#799,#800,#801));
#174=EDGE_LOOP('',(#802,#803,#804,#805,#806,#807));
#175=EDGE_LOOP('',(#808,#809,#810,#811));
#176=EDGE_LOOP('',(#812,#813,#814,#815));
#177=EDGE_LOOP('',(#816,#817,#818,#819,#820,#821,#822));
#178=EDGE_LOOP('',(#823));
#179=EDGE_LOOP('',(#824,#825,#826,#827));
#180=EDGE_LOOP('',(#828,#829,#830,#831,#832,#833,#834,#835));
#181=EDGE_LOOP('',(#836));
#182=LINE('',#1257,#268);
#183=LINE('',#1263,#269);
#184=LINE('',#1268,#270);
#185=LINE('',#1270,#271);
#186=LINE('',#1272,#272);
#187=LINE('',#1273,#273);
#188=LINE('',#1276,#274);
#189=LINE('',#1278,#275);
#190=LINE('',#1279,#276);
#191=LINE('',#1283,#277);
#192=LINE('',#1284,#278);
#193=LINE('',#1285,#279);
#194=LINE('',#1290,#280);
#195=LINE('',#1296,#281);
#196=LINE('',#1299,#282);
#197=LINE('',#1304,#283);
#198=LINE('',#1309,#284);
#199=LINE('',#1311,#285);
#200=LINE('',#1313,#286);
#201=LINE('',#1314,#287);
#202=LINE('',#1316,#288);
#203=LINE('',#1317,#289);
#204=LINE('',#1319,#290);
#205=LINE('',#1320,#291);
#206=LINE('',#1326,#292);
#207=LINE('',#1329,#293);
#208=LINE('',#1334,#294);
#209=LINE('',#1338,#295);
#210=LINE('',#1339,#296);
#211=LINE('',#1343,#297);
#212=LINE('',#1345,#298);
#213=LINE('',#1350,#299);
#214=LINE('',#1356,#300);
#215=LINE('',#1362,#301);
#216=LINE('',#1367,#302);
#217=LINE('',#1369,#303);
#218=LINE('',#1371,#304);
#219=LINE('',#1372,#305);
#220=LINE('',#1376,#306);
#221=LINE('',#1378,#307);
#222=LINE('',#1380,#308);
#223=LINE('',#1381,#309);
#224=LINE('',#1384,#310);
#225=LINE('',#1387,#311);
#226=LINE('',#1392,#312);
#227=LINE('',#1395,#313);
#228=LINE('',#1399,#314);
#229=LINE('',#1401,#315);
#230=LINE('',#1402,#316);
#231=LINE('',#1405,#317);
#232=LINE('',#1407,#318);
#233=LINE('',#1408,#319);
#234=LINE('',#1411,#320);
#235=LINE('',#1413,#321);
#236=LINE('',#1414,#322);
#237=LINE('',#1416,#323);
#238=LINE('',#1420,#324);
#239=LINE('',#1422,#325);
#240=LINE('',#1424,#326);
#241=LINE('',#1425,#327);
#242=LINE('',#1428,#328);
#243=LINE('',#1430,#329);
#244=LINE('',#1431,#330);
#245=LINE('',#1435,#331);
#246=LINE('',#1436,#332);
#247=LINE('',#1437,#333);
#248=LINE('',#1442,#334);
#249=LINE('',#1447,#335);
#250=LINE('',#1450,#336);
#251=LINE('',#1455,#337);
#252=LINE('',#1460,#338);
#253=LINE('',#1462,#339);
#254=LINE('',#1464,#340);
#255=LINE('',#1465,#341);
#256=LINE('',#1467,#342);
#257=LINE('',#1468,#343);
#258=LINE('',#1470,#344);
#259=LINE('',#1471,#345);
#260=LINE('',#1477,#346);
#261=LINE('',#1480,#347);
#262=LINE('',#1485,#348);
#263=LINE('',#1489,#349);
#264=LINE('',#1490,#350);
#265=LINE('',#1494,#351);
#266=LINE('',#1496,#352);
#267=LINE('',#1501,#353);
#268=VECTOR('',#1004,0.649999999999999);
#269=VECTOR('',#1011,0.649999999999999);
#270=VECTOR('',#1016,10.);
#271=VECTOR('',#1017,10.);
#272=VECTOR('',#1018,10.);
#273=VECTOR('',#1019,10.);
#274=VECTOR('',#1022,10.);
#275=VECTOR('',#1023,10.);
#276=VECTOR('',#1024,10.);
#277=VECTOR('',#1027,10.);
#278=VECTOR('',#1028,10.);
#279=VECTOR('',#1029,10.);
#280=VECTOR('',#1034,10.);
#281=VECTOR('',#1039,10.);
#282=VECTOR('',#1042,10.);
#283=VECTOR('',#1047,10.);
#284=VECTOR('',#1052,10.);
#285=VECTOR('',#1053,10.);
#286=VECTOR('',#1054,10.);
#287=VECTOR('',#1055,10.);
#288=VECTOR('',#1058,10.);
#289=VECTOR('',#1059,10.);
#290=VECTOR('',#1062,10.);
#291=VECTOR('',#1063,10.);
#292=VECTOR('',#1070,10.);
#293=VECTOR('',#1073,10.);
#294=VECTOR('',#1078,1.3);
#295=VECTOR('',#1083,10.);
#296=VECTOR('',#1084,10.);
#297=VECTOR('',#1089,10.);
#298=VECTOR('',#1092,10.);
#299=VECTOR('',#1099,3.3);
#300=VECTOR('',#1106,0.649999999999999);
#301=VECTOR('',#1113,0.649999999999999);
#302=VECTOR('',#1118,10.);
#303=VECTOR('',#1119,10.);
#304=VECTOR('',#1120,10.);
#305=VECTOR('',#1121,10.);
#306=VECTOR('',#1124,10.);
#307=VECTOR('',#1125,10.);
#308=VECTOR('',#1126,10.);
#309=VECTOR('',#1127,10.);
#310=VECTOR('',#1130,10.);
#311=VECTOR('',#1133,10.);
#312=VECTOR('',#1138,10.);
#313=VECTOR('',#1141,10.);
#314=VECTOR('',#1146,1.30000000000001);
#315=VECTOR('',#1149,10.);
#316=VECTOR('',#1150,10.);
#317=VECTOR('',#1153,10.);
#318=VECTOR('',#1154,10.);
#319=VECTOR('',#1155,10.);
#320=VECTOR('',#1158,10.);
#321=VECTOR('',#1159,10.);
#322=VECTOR('',#1160,10.);
#323=VECTOR('',#1163,10.);
#324=VECTOR('',#1166,10.);
#325=VECTOR('',#1167,10.);
#326=VECTOR('',#1168,10.);
#327=VECTOR('',#1169,10.);
#328=VECTOR('',#1172,10.);
#329=VECTOR('',#1173,10.);
#330=VECTOR('',#1174,10.);
#331=VECTOR('',#1177,10.);
#332=VECTOR('',#1178,10.);
#333=VECTOR('',#1179,10.);
#334=VECTOR('',#1184,10.);
#335=VECTOR('',#1189,10.);
#336=VECTOR('',#1192,10.);
#337=VECTOR('',#1197,10.);
#338=VECTOR('',#1202,10.);
#339=VECTOR('',#1203,10.);
#340=VECTOR('',#1204,10.);
#341=VECTOR('',#1205,10.);
#342=VECTOR('',#1208,10.);
#343=VECTOR('',#1209,10.);
#344=VECTOR('',#1212,10.);
#345=VECTOR('',#1213,10.);
#346=VECTOR('',#1220,10.);
#347=VECTOR('',#1223,10.);
#348=VECTOR('',#1228,1.3);
#349=VECTOR('',#1233,10.);
#350=VECTOR('',#1234,10.);
#351=VECTOR('',#1239,10.);
#352=VECTOR('',#1242,10.);
#353=VECTOR('',#1249,3.3);
#354=CIRCLE('',#916,0.649999999999999);
#355=CIRCLE('',#917,0.649999999999999);
#356=CIRCLE('',#919,0.649999999999999);
#357=CIRCLE('',#920,0.649999999999999);
#358=CIRCLE('',#925,4.05000000000001);
#359=CIRCLE('',#926,4.05000000000001);
#360=CIRCLE('',#927,4.05000000000001);
#361=CIRCLE('',#928,4.05000000000001);
#362=CIRCLE('',#930,4.05000000000001);
#363=CIRCLE('',#931,4.05000000000001);
#364=CIRCLE('',#936,3.3);
#365=CIRCLE('',#938,3.4);
#366=CIRCLE('',#939,1.3);
#367=CIRCLE('',#941,1.3);
#368=CIRCLE('',#944,3.4);
#369=CIRCLE('',#948,3.3);
#370=CIRCLE('',#951,0.649999999999999);
#371=CIRCLE('',#952,0.649999999999999);
#372=CIRCLE('',#954,0.649999999999999);
#373=CIRCLE('',#955,0.649999999999999);
#374=CIRCLE('',#959,3.40000000000001);
#375=CIRCLE('',#960,1.30000000000001);
#376=CIRCLE('',#962,3.40000000000001);
#377=CIRCLE('',#964,1.30000000000001);
#378=CIRCLE('',#973,4.05000000000001);
#379=CIRCLE('',#974,4.05000000000001);
#380=CIRCLE('',#975,4.05000000000001);
#381=CIRCLE('',#976,4.05000000000001);
#382=CIRCLE('',#978,4.05000000000001);
#383=CIRCLE('',#979,4.05000000000001);
#384=CIRCLE('',#984,3.3);
#385=CIRCLE('',#986,3.4);
#386=CIRCLE('',#987,1.3);
#387=CIRCLE('',#989,1.3);
#388=CIRCLE('',#992,3.4);
#389=CIRCLE('',#996,3.3);
#390=VERTEX_POINT('',#1254);
#391=VERTEX_POINT('',#1256);
#392=VERTEX_POINT('',#1260);
#393=VERTEX_POINT('',#1262);
#394=VERTEX_POINT('',#1266);
#395=VERTEX_POINT('',#1267);
#396=VERTEX_POINT('',#1269);
#397=VERTEX_POINT('',#1271);
#398=VERTEX_POINT('',#1275);
#399=VERTEX_POINT('',#1277);
#400=VERTEX_POINT('',#1281);
#401=VERTEX_POINT('',#1282);
#402=VERTEX_POINT('',#1287);
#403=VERTEX_POINT('',#1289);
#404=VERTEX_POINT('',#1292);
#405=VERTEX_POINT('',#1293);
#406=VERTEX_POINT('',#1295);
#407=VERTEX_POINT('',#1297);
#408=VERTEX_POINT('',#1301);
#409=VERTEX_POINT('',#1303);
#410=VERTEX_POINT('',#1307);
#411=VERTEX_POINT('',#1308);
#412=VERTEX_POINT('',#1310);
#413=VERTEX_POINT('',#1312);
#414=VERTEX_POINT('',#1322);
#415=VERTEX_POINT('',#1325);
#416=VERTEX_POINT('',#1327);
#417=VERTEX_POINT('',#1330);
#418=VERTEX_POINT('',#1333);
#419=VERTEX_POINT('',#1337);
#420=VERTEX_POINT('',#1341);
#421=VERTEX_POINT('',#1348);
#422=VERTEX_POINT('',#1353);
#423=VERTEX_POINT('',#1355);
#424=VERTEX_POINT('',#1359);
#425=VERTEX_POINT('',#1361);
#426=VERTEX_POINT('',#1365);
#427=VERTEX_POINT('',#1366);
#428=VERTEX_POINT('',#1368);
#429=VERTEX_POINT('',#1370);
#430=VERTEX_POINT('',#1374);
#431=VERTEX_POINT('',#1375);
#432=VERTEX_POINT('',#1377);
#433=VERTEX_POINT('',#1379);
#434=VERTEX_POINT('',#1383);
#435=VERTEX_POINT('',#1385);
#436=VERTEX_POINT('',#1388);
#437=VERTEX_POINT('',#1391);
#438=VERTEX_POINT('',#1393);
#439=VERTEX_POINT('',#1397);
#440=VERTEX_POINT('',#1404);
#441=VERTEX_POINT('',#1406);
#442=VERTEX_POINT('',#1410);
#443=VERTEX_POINT('',#1412);
#444=VERTEX_POINT('',#1418);
#445=VERTEX_POINT('',#1419);
#446=VERTEX_POINT('',#1421);
#447=VERTEX_POINT('',#1423);
#448=VERTEX_POINT('',#1427);
#449=VERTEX_POINT('',#1429);
#450=VERTEX_POINT('',#1433);
#451=VERTEX_POINT('',#1434);
#452=VERTEX_POINT('',#1439);
#453=VERTEX_POINT('',#1441);
#454=VERTEX_POINT('',#1444);
#455=VERTEX_POINT('',#1446);
#456=VERTEX_POINT('',#1448);
#457=VERTEX_POINT('',#1452);
#458=VERTEX_POINT('',#1454);
#459=VERTEX_POINT('',#1458);
#460=VERTEX_POINT('',#1459);
#461=VERTEX_POINT('',#1461);
#462=VERTEX_POINT('',#1463);
#463=VERTEX_POINT('',#1473);
#464=VERTEX_POINT('',#1476);
#465=VERTEX_POINT('',#1478);
#466=VERTEX_POINT('',#1481);
#467=VERTEX_POINT('',#1484);
#468=VERTEX_POINT('',#1488);
#469=VERTEX_POINT('',#1492);
#470=VERTEX_POINT('',#1499);
#471=EDGE_CURVE('',#390,#390,#354,.T.);
#472=EDGE_CURVE('',#390,#391,#182,.T.);
#473=EDGE_CURVE('',#391,#391,#355,.T.);
#474=EDGE_CURVE('',#392,#392,#356,.T.);
#475=EDGE_CURVE('',#392,#393,#183,.T.);
#476=EDGE_CURVE('',#393,#393,#357,.T.);
#477=EDGE_CURVE('',#394,#395,#184,.T.);
#478=EDGE_CURVE('',#396,#394,#185,.T.);
#479=EDGE_CURVE('',#397,#396,#186,.T.);
#480=EDGE_CURVE('',#395,#397,#187,.T.);
#481=EDGE_CURVE('',#398,#396,#188,.T.);
#482=EDGE_CURVE('',#399,#398,#189,.T.);
#483=EDGE_CURVE('',#397,#399,#190,.T.);
#484=EDGE_CURVE('',#400,#401,#191,.T.);
#485=EDGE_CURVE('',#394,#400,#192,.T.);
#486=EDGE_CURVE('',#401,#395,#193,.T.);
#487=EDGE_CURVE('',#402,#398,#358,.T.);
#488=EDGE_CURVE('',#402,#403,#194,.T.);
#489=EDGE_CURVE('',#399,#403,#359,.T.);
#490=EDGE_CURVE('',#404,#405,#360,.T.);
#491=EDGE_CURVE('',#405,#406,#195,.T.);
#492=EDGE_CURVE('',#407,#406,#361,.T.);
#493=EDGE_CURVE('',#404,#407,#196,.T.);
#494=EDGE_CURVE('',#408,#401,#362,.T.);
#495=EDGE_CURVE('',#408,#409,#197,.T.);
#496=EDGE_CURVE('',#400,#409,#363,.T.);
#497=EDGE_CURVE('',#410,#411,#198,.T.);
#498=EDGE_CURVE('',#412,#410,#199,.T.);
#499=EDGE_CURVE('',#413,#412,#200,.T.);
#500=EDGE_CURVE('',#411,#413,#201,.T.);
#501=EDGE_CURVE('',#409,#412,#202,.T.);
#502=EDGE_CURVE('',#413,#408,#203,.T.);
#503=EDGE_CURVE('',#410,#402,#204,.T.);
#504=EDGE_CURVE('',#403,#411,#205,.T.);
#505=EDGE_CURVE('',#414,#414,#364,.T.);
#506=EDGE_CURVE('',#406,#415,#206,.T.);
#507=EDGE_CURVE('',#415,#416,#365,.T.);
#508=EDGE_CURVE('',#416,#407,#207,.T.);
#509=EDGE_CURVE('',#417,#417,#366,.T.);
#510=EDGE_CURVE('',#417,#418,#208,.T.);
#511=EDGE_CURVE('',#418,#418,#367,.T.);
#512=EDGE_CURVE('',#419,#404,#209,.T.);
#513=EDGE_CURVE('',#419,#416,#210,.T.);
#514=EDGE_CURVE('',#419,#420,#368,.T.);
#515=EDGE_CURVE('',#420,#415,#211,.T.);
#516=EDGE_CURVE('',#420,#405,#212,.T.);
#517=EDGE_CURVE('',#421,#421,#369,.T.);
#518=EDGE_CURVE('',#421,#414,#213,.T.);
#519=EDGE_CURVE('',#422,#422,#370,.T.);
#520=EDGE_CURVE('',#422,#423,#214,.T.);
#521=EDGE_CURVE('',#423,#423,#371,.T.);
#522=EDGE_CURVE('',#424,#424,#372,.T.);
#523=EDGE_CURVE('',#424,#425,#215,.T.);
#524=EDGE_CURVE('',#425,#425,#373,.T.);
#525=EDGE_CURVE('',#426,#427,#216,.T.);
#526=EDGE_CURVE('',#426,#428,#217,.T.);
#527=EDGE_CURVE('',#429,#428,#218,.T.);
#528=EDGE_CURVE('',#427,#429,#219,.T.);
#529=EDGE_CURVE('',#430,#431,#220,.T.);
#530=EDGE_CURVE('',#430,#432,#221,.T.);
#531=EDGE_CURVE('',#432,#433,#222,.T.);
#532=EDGE_CURVE('',#431,#433,#223,.T.);
#533=EDGE_CURVE('',#434,#432,#224,.T.);
#534=EDGE_CURVE('',#435,#434,#374,.T.);
#535=EDGE_CURVE('',#433,#435,#225,.T.);
#536=EDGE_CURVE('',#436,#436,#375,.T.);
#537=EDGE_CURVE('',#434,#437,#226,.T.);
#538=EDGE_CURVE('',#438,#437,#376,.T.);
#539=EDGE_CURVE('',#435,#438,#227,.T.);
#540=EDGE_CURVE('',#439,#439,#377,.T.);
#541=EDGE_CURVE('',#439,#436,#228,.T.);
#542=EDGE_CURVE('',#437,#429,#229,.T.);
#543=EDGE_CURVE('',#428,#438,#230,.T.);
#544=EDGE_CURVE('',#431,#440,#231,.T.);
#545=EDGE_CURVE('',#441,#426,#232,.T.);
#546=EDGE_CURVE('',#440,#441,#233,.T.);
#547=EDGE_CURVE('',#430,#442,#234,.T.);
#548=EDGE_CURVE('',#443,#442,#235,.T.);
#549=EDGE_CURVE('',#427,#443,#236,.T.);
#550=EDGE_CURVE('',#441,#443,#237,.T.);
#551=EDGE_CURVE('',#444,#445,#238,.T.);
#552=EDGE_CURVE('',#445,#446,#239,.T.);
#553=EDGE_CURVE('',#446,#447,#240,.T.);
#554=EDGE_CURVE('',#447,#444,#241,.T.);
#555=EDGE_CURVE('',#446,#448,#242,.T.);
#556=EDGE_CURVE('',#448,#449,#243,.T.);
#557=EDGE_CURVE('',#449,#447,#244,.T.);
#558=EDGE_CURVE('',#450,#451,#245,.T.);
#559=EDGE_CURVE('',#451,#445,#246,.T.);
#560=EDGE_CURVE('',#444,#450,#247,.T.);
#561=EDGE_CURVE('',#448,#452,#378,.T.);
#562=EDGE_CURVE('',#453,#452,#248,.T.);
#563=EDGE_CURVE('',#453,#449,#379,.T.);
#564=EDGE_CURVE('',#440,#454,#380,.T.);
#565=EDGE_CURVE('',#441,#455,#249,.T.);
#566=EDGE_CURVE('',#455,#456,#381,.T.);
#567=EDGE_CURVE('',#454,#456,#250,.T.);
#568=EDGE_CURVE('',#450,#457,#382,.T.);
#569=EDGE_CURVE('',#458,#457,#251,.T.);
#570=EDGE_CURVE('',#458,#451,#383,.T.);
#571=EDGE_CURVE('',#459,#460,#252,.T.);
#572=EDGE_CURVE('',#460,#461,#253,.T.);
#573=EDGE_CURVE('',#461,#462,#254,.T.);
#574=EDGE_CURVE('',#462,#459,#255,.T.);
#575=EDGE_CURVE('',#461,#458,#256,.T.);
#576=EDGE_CURVE('',#457,#462,#257,.T.);
#577=EDGE_CURVE('',#452,#460,#258,.T.);
#578=EDGE_CURVE('',#459,#453,#259,.T.);
#579=EDGE_CURVE('',#463,#463,#384,.T.);
#580=EDGE_CURVE('',#464,#455,#260,.T.);
#581=EDGE_CURVE('',#465,#464,#385,.T.);
#582=EDGE_CURVE('',#456,#465,#261,.T.);
#583=EDGE_CURVE('',#466,#466,#386,.T.);
#584=EDGE_CURVE('',#466,#467,#262,.T.);
#585=EDGE_CURVE('',#467,#467,#387,.T.);
#586=EDGE_CURVE('',#468,#442,#263,.T.);
#587=EDGE_CURVE('',#468,#464,#264,.T.);
#588=EDGE_CURVE('',#468,#469,#388,.T.);
#589=EDGE_CURVE('',#469,#465,#265,.T.);
#590=EDGE_CURVE('',#469,#454,#266,.T.);
#591=EDGE_CURVE('',#470,#470,#389,.T.);
#592=EDGE_CURVE('',#470,#463,#267,.T.);
#593=ORIENTED_EDGE('',*,*,#471,.F.);
#594=ORIENTED_EDGE('',*,*,#472,.T.);
#595=ORIENTED_EDGE('',*,*,#473,.F.);
#596=ORIENTED_EDGE('',*,*,#472,.F.);
#597=ORIENTED_EDGE('',*,*,#474,.F.);
#598=ORIENTED_EDGE('',*,*,#475,.T.);
#599=ORIENTED_EDGE('',*,*,#476,.F.);
#600=ORIENTED_EDGE('',*,*,#475,.F.);
#601=ORIENTED_EDGE('',*,*,#477,.F.);
#602=ORIENTED_EDGE('',*,*,#478,.F.);
#603=ORIENTED_EDGE('',*,*,#479,.F.);
#604=ORIENTED_EDGE('',*,*,#480,.F.);
#605=ORIENTED_EDGE('',*,*,#479,.T.);
#606=ORIENTED_EDGE('',*,*,#481,.F.);
#607=ORIENTED_EDGE('',*,*,#482,.F.);
#608=ORIENTED_EDGE('',*,*,#483,.F.);
#609=ORIENTED_EDGE('',*,*,#474,.T.);
#610=ORIENTED_EDGE('',*,*,#484,.F.);
#611=ORIENTED_EDGE('',*,*,#485,.F.);
#612=ORIENTED_EDGE('',*,*,#477,.T.);
#613=ORIENTED_EDGE('',*,*,#486,.F.);
#614=ORIENTED_EDGE('',*,*,#476,.T.);
#615=ORIENTED_EDGE('',*,*,#482,.T.);
#616=ORIENTED_EDGE('',*,*,#487,.F.);
#617=ORIENTED_EDGE('',*,*,#488,.T.);
#618=ORIENTED_EDGE('',*,*,#489,.F.);
#619=ORIENTED_EDGE('',*,*,#490,.T.);
#620=ORIENTED_EDGE('',*,*,#491,.T.);
#621=ORIENTED_EDGE('',*,*,#492,.F.);
#622=ORIENTED_EDGE('',*,*,#493,.F.);
#623=ORIENTED_EDGE('',*,*,#484,.T.);
#624=ORIENTED_EDGE('',*,*,#494,.F.);
#625=ORIENTED_EDGE('',*,*,#495,.T.);
#626=ORIENTED_EDGE('',*,*,#496,.F.);
#627=ORIENTED_EDGE('',*,*,#497,.F.);
#628=ORIENTED_EDGE('',*,*,#498,.F.);
#629=ORIENTED_EDGE('',*,*,#499,.F.);
#630=ORIENTED_EDGE('',*,*,#500,.F.);
#631=ORIENTED_EDGE('',*,*,#499,.T.);
#632=ORIENTED_EDGE('',*,*,#501,.F.);
#633=ORIENTED_EDGE('',*,*,#495,.F.);
#634=ORIENTED_EDGE('',*,*,#502,.F.);
#635=ORIENTED_EDGE('',*,*,#471,.T.);
#636=ORIENTED_EDGE('',*,*,#488,.F.);
#637=ORIENTED_EDGE('',*,*,#503,.F.);
#638=ORIENTED_EDGE('',*,*,#497,.T.);
#639=ORIENTED_EDGE('',*,*,#504,.F.);
#640=ORIENTED_EDGE('',*,*,#473,.T.);
#641=ORIENTED_EDGE('',*,*,#494,.T.);
#642=ORIENTED_EDGE('',*,*,#486,.T.);
#643=ORIENTED_EDGE('',*,*,#480,.T.);
#644=ORIENTED_EDGE('',*,*,#483,.T.);
#645=ORIENTED_EDGE('',*,*,#489,.T.);
#646=ORIENTED_EDGE('',*,*,#504,.T.);
#647=ORIENTED_EDGE('',*,*,#500,.T.);
#648=ORIENTED_EDGE('',*,*,#502,.T.);
#649=ORIENTED_EDGE('',*,*,#505,.T.);
#650=ORIENTED_EDGE('',*,*,#492,.T.);
#651=ORIENTED_EDGE('',*,*,#506,.T.);
#652=ORIENTED_EDGE('',*,*,#507,.T.);
#653=ORIENTED_EDGE('',*,*,#508,.T.);
#654=ORIENTED_EDGE('',*,*,#509,.T.);
#655=ORIENTED_EDGE('',*,*,#509,.F.);
#656=ORIENTED_EDGE('',*,*,#510,.T.);
#657=ORIENTED_EDGE('',*,*,#511,.F.);
#658=ORIENTED_EDGE('',*,*,#510,.F.);
#659=ORIENTED_EDGE('',*,*,#512,.T.);
#660=ORIENTED_EDGE('',*,*,#493,.T.);
#661=ORIENTED_EDGE('',*,*,#508,.F.);
#662=ORIENTED_EDGE('',*,*,#513,.F.);
#663=ORIENTED_EDGE('',*,*,#514,.F.);
#664=ORIENTED_EDGE('',*,*,#513,.T.);
#665=ORIENTED_EDGE('',*,*,#507,.F.);
#666=ORIENTED_EDGE('',*,*,#515,.F.);
#667=ORIENTED_EDGE('',*,*,#516,.F.);
#668=ORIENTED_EDGE('',*,*,#515,.T.);
#669=ORIENTED_EDGE('',*,*,#506,.F.);
#670=ORIENTED_EDGE('',*,*,#491,.F.);
#671=ORIENTED_EDGE('',*,*,#516,.T.);
#672=ORIENTED_EDGE('',*,*,#490,.F.);
#673=ORIENTED_EDGE('',*,*,#512,.F.);
#674=ORIENTED_EDGE('',*,*,#514,.T.);
#675=ORIENTED_EDGE('',*,*,#511,.T.);
#676=ORIENTED_EDGE('',*,*,#517,.F.);
#677=ORIENTED_EDGE('',*,*,#518,.T.);
#678=ORIENTED_EDGE('',*,*,#505,.F.);
#679=ORIENTED_EDGE('',*,*,#518,.F.);
#680=ORIENTED_EDGE('',*,*,#487,.T.);
#681=ORIENTED_EDGE('',*,*,#481,.T.);
#682=ORIENTED_EDGE('',*,*,#478,.T.);
#683=ORIENTED_EDGE('',*,*,#485,.T.);
#684=ORIENTED_EDGE('',*,*,#496,.T.);
#685=ORIENTED_EDGE('',*,*,#501,.T.);
#686=ORIENTED_EDGE('',*,*,#498,.T.);
#687=ORIENTED_EDGE('',*,*,#503,.T.);
#688=ORIENTED_EDGE('',*,*,#517,.T.);
#689=ORIENTED_EDGE('',*,*,#519,.F.);
#690=ORIENTED_EDGE('',*,*,#520,.T.);
#691=ORIENTED_EDGE('',*,*,#521,.F.);
#692=ORIENTED_EDGE('',*,*,#520,.F.);
#693=ORIENTED_EDGE('',*,*,#522,.F.);
#694=ORIENTED_EDGE('',*,*,#523,.T.);
#695=ORIENTED_EDGE('',*,*,#524,.F.);
#696=ORIENTED_EDGE('',*,*,#523,.F.);
#697=ORIENTED_EDGE('',*,*,#525,.F.);
#698=ORIENTED_EDGE('',*,*,#526,.T.);
#699=ORIENTED_EDGE('',*,*,#527,.F.);
#700=ORIENTED_EDGE('',*,*,#528,.F.);
#701=ORIENTED_EDGE('',*,*,#529,.F.);
#702=ORIENTED_EDGE('',*,*,#530,.T.);
#703=ORIENTED_EDGE('',*,*,#531,.T.);
#704=ORIENTED_EDGE('',*,*,#532,.F.);
#705=ORIENTED_EDGE('',*,*,#533,.F.);
#706=ORIENTED_EDGE('',*,*,#534,.F.);
#707=ORIENTED_EDGE('',*,*,#535,.F.);
#708=ORIENTED_EDGE('',*,*,#531,.F.);
#709=ORIENTED_EDGE('',*,*,#536,.F.);
#710=ORIENTED_EDGE('',*,*,#534,.T.);
#711=ORIENTED_EDGE('',*,*,#537,.T.);
#712=ORIENTED_EDGE('',*,*,#538,.F.);
#713=ORIENTED_EDGE('',*,*,#539,.F.);
#714=ORIENTED_EDGE('',*,*,#540,.F.);
#715=ORIENTED_EDGE('',*,*,#541,.T.);
#716=ORIENTED_EDGE('',*,*,#536,.T.);
#717=ORIENTED_EDGE('',*,*,#541,.F.);
#718=ORIENTED_EDGE('',*,*,#542,.T.);
#719=ORIENTED_EDGE('',*,*,#527,.T.);
#720=ORIENTED_EDGE('',*,*,#543,.T.);
#721=ORIENTED_EDGE('',*,*,#538,.T.);
#722=ORIENTED_EDGE('',*,*,#540,.T.);
#723=ORIENTED_EDGE('',*,*,#544,.F.);
#724=ORIENTED_EDGE('',*,*,#532,.T.);
#725=ORIENTED_EDGE('',*,*,#535,.T.);
#726=ORIENTED_EDGE('',*,*,#539,.T.);
#727=ORIENTED_EDGE('',*,*,#543,.F.);
#728=ORIENTED_EDGE('',*,*,#526,.F.);
#729=ORIENTED_EDGE('',*,*,#545,.F.);
#730=ORIENTED_EDGE('',*,*,#546,.F.);
#731=ORIENTED_EDGE('',*,*,#547,.T.);
#732=ORIENTED_EDGE('',*,*,#548,.F.);
#733=ORIENTED_EDGE('',*,*,#549,.F.);
#734=ORIENTED_EDGE('',*,*,#528,.T.);
#735=ORIENTED_EDGE('',*,*,#542,.F.);
#736=ORIENTED_EDGE('',*,*,#537,.F.);
#737=ORIENTED_EDGE('',*,*,#533,.T.);
#738=ORIENTED_EDGE('',*,*,#530,.F.);
#739=ORIENTED_EDGE('',*,*,#549,.T.);
#740=ORIENTED_EDGE('',*,*,#550,.F.);
#741=ORIENTED_EDGE('',*,*,#545,.T.);
#742=ORIENTED_EDGE('',*,*,#525,.T.);
#743=ORIENTED_EDGE('',*,*,#551,.T.);
#744=ORIENTED_EDGE('',*,*,#552,.T.);
#745=ORIENTED_EDGE('',*,*,#553,.T.);
#746=ORIENTED_EDGE('',*,*,#554,.T.);
#747=ORIENTED_EDGE('',*,*,#553,.F.);
#748=ORIENTED_EDGE('',*,*,#555,.T.);
#749=ORIENTED_EDGE('',*,*,#556,.T.);
#750=ORIENTED_EDGE('',*,*,#557,.T.);
#751=ORIENTED_EDGE('',*,*,#522,.T.);
#752=ORIENTED_EDGE('',*,*,#558,.T.);
#753=ORIENTED_EDGE('',*,*,#559,.T.);
#754=ORIENTED_EDGE('',*,*,#551,.F.);
#755=ORIENTED_EDGE('',*,*,#560,.T.);
#756=ORIENTED_EDGE('',*,*,#524,.T.);
#757=ORIENTED_EDGE('',*,*,#556,.F.);
#758=ORIENTED_EDGE('',*,*,#561,.T.);
#759=ORIENTED_EDGE('',*,*,#562,.F.);
#760=ORIENTED_EDGE('',*,*,#563,.T.);
#761=ORIENTED_EDGE('',*,*,#564,.F.);
#762=ORIENTED_EDGE('',*,*,#546,.T.);
#763=ORIENTED_EDGE('',*,*,#565,.T.);
#764=ORIENTED_EDGE('',*,*,#566,.T.);
#765=ORIENTED_EDGE('',*,*,#567,.F.);
#766=ORIENTED_EDGE('',*,*,#558,.F.);
#767=ORIENTED_EDGE('',*,*,#568,.T.);
#768=ORIENTED_EDGE('',*,*,#569,.F.);
#769=ORIENTED_EDGE('',*,*,#570,.T.);
#770=ORIENTED_EDGE('',*,*,#571,.T.);
#771=ORIENTED_EDGE('',*,*,#572,.T.);
#772=ORIENTED_EDGE('',*,*,#573,.T.);
#773=ORIENTED_EDGE('',*,*,#574,.T.);
#774=ORIENTED_EDGE('',*,*,#573,.F.);
#775=ORIENTED_EDGE('',*,*,#575,.T.);
#776=ORIENTED_EDGE('',*,*,#569,.T.);
#777=ORIENTED_EDGE('',*,*,#576,.T.);
#778=ORIENTED_EDGE('',*,*,#519,.T.);
#779=ORIENTED_EDGE('',*,*,#562,.T.);
#780=ORIENTED_EDGE('',*,*,#577,.T.);
#781=ORIENTED_EDGE('',*,*,#571,.F.);
#782=ORIENTED_EDGE('',*,*,#578,.T.);
#783=ORIENTED_EDGE('',*,*,#521,.T.);
#784=ORIENTED_EDGE('',*,*,#570,.F.);
#785=ORIENTED_EDGE('',*,*,#575,.F.);
#786=ORIENTED_EDGE('',*,*,#572,.F.);
#787=ORIENTED_EDGE('',*,*,#577,.F.);
#788=ORIENTED_EDGE('',*,*,#561,.F.);
#789=ORIENTED_EDGE('',*,*,#555,.F.);
#790=ORIENTED_EDGE('',*,*,#552,.F.);
#791=ORIENTED_EDGE('',*,*,#559,.F.);
#792=ORIENTED_EDGE('',*,*,#579,.F.);
#793=ORIENTED_EDGE('',*,*,#566,.F.);
#794=ORIENTED_EDGE('',*,*,#580,.F.);
#795=ORIENTED_EDGE('',*,*,#581,.F.);
#796=ORIENTED_EDGE('',*,*,#582,.F.);
#797=ORIENTED_EDGE('',*,*,#583,.F.);
#798=ORIENTED_EDGE('',*,*,#583,.T.);
#799=ORIENTED_EDGE('',*,*,#584,.T.);
#800=ORIENTED_EDGE('',*,*,#585,.T.);
#801=ORIENTED_EDGE('',*,*,#584,.F.);
#802=ORIENTED_EDGE('',*,*,#548,.T.);
#803=ORIENTED_EDGE('',*,*,#586,.F.);
#804=ORIENTED_EDGE('',*,*,#587,.T.);
#805=ORIENTED_EDGE('',*,*,#580,.T.);
#806=ORIENTED_EDGE('',*,*,#565,.F.);
#807=ORIENTED_EDGE('',*,*,#550,.T.);
#808=ORIENTED_EDGE('',*,*,#588,.T.);
#809=ORIENTED_EDGE('',*,*,#589,.T.);
#810=ORIENTED_EDGE('',*,*,#581,.T.);
#811=ORIENTED_EDGE('',*,*,#587,.F.);
#812=ORIENTED_EDGE('',*,*,#590,.T.);
#813=ORIENTED_EDGE('',*,*,#567,.T.);
#814=ORIENTED_EDGE('',*,*,#582,.T.);
#815=ORIENTED_EDGE('',*,*,#589,.F.);
#816=ORIENTED_EDGE('',*,*,#590,.F.);
#817=ORIENTED_EDGE('',*,*,#588,.F.);
#818=ORIENTED_EDGE('',*,*,#586,.T.);
#819=ORIENTED_EDGE('',*,*,#547,.F.);
#820=ORIENTED_EDGE('',*,*,#529,.T.);
#821=ORIENTED_EDGE('',*,*,#544,.T.);
#822=ORIENTED_EDGE('',*,*,#564,.T.);
#823=ORIENTED_EDGE('',*,*,#585,.F.);
#824=ORIENTED_EDGE('',*,*,#591,.T.);
#825=ORIENTED_EDGE('',*,*,#592,.T.);
#826=ORIENTED_EDGE('',*,*,#579,.T.);
#827=ORIENTED_EDGE('',*,*,#592,.F.);
#828=ORIENTED_EDGE('',*,*,#563,.F.);
#829=ORIENTED_EDGE('',*,*,#578,.F.);
#830=ORIENTED_EDGE('',*,*,#574,.F.);
#831=ORIENTED_EDGE('',*,*,#576,.F.);
#832=ORIENTED_EDGE('',*,*,#568,.F.);
#833=ORIENTED_EDGE('',*,*,#560,.F.);
#834=ORIENTED_EDGE('',*,*,#554,.F.);
#835=ORIENTED_EDGE('',*,*,#557,.F.);
#836=ORIENTED_EDGE('',*,*,#591,.F.);
#837=CYLINDRICAL_SURFACE('',#915,0.649999999999999);
#838=CYLINDRICAL_SURFACE('',#918,0.649999999999999);
#839=CYLINDRICAL_SURFACE('',#924,4.05000000000001);
#840=CYLINDRICAL_SURFACE('',#929,4.05000000000001);
#841=CYLINDRICAL_SURFACE('',#940,1.3);
#842=CYLINDRICAL_SURFACE('',#943,3.4);
#843=CYLINDRICAL_SURFACE('',#947,3.3);
#844=CYLINDRICAL_SURFACE('',#950,0.649999999999999);
#845=CYLINDRICAL_SURFACE('',#953,0.649999999999999);
#846=CYLINDRICAL_SURFACE('',#961,3.40000000000001);
#847=CYLINDRICAL_SURFACE('',#963,1.30000000000001);
#848=CYLINDRICAL_SURFACE('',#972,4.05000000000001);
#849=CYLINDRICAL_SURFACE('',#977,4.05000000000001);
#850=CYLINDRICAL_SURFACE('',#988,1.3);
#851=CYLINDRICAL_SURFACE('',#991,3.4);
#852=CYLINDRICAL_SURFACE('',#995,3.3);
#853=ADVANCED_FACE('',(#68),#837,.F.);
#854=ADVANCED_FACE('',(#69),#838,.F.);
#855=ADVANCED_FACE('',(#70),#37,.T.);
#856=ADVANCED_FACE('',(#71,#17),#38,.T.);
#857=ADVANCED_FACE('',(#72,#18),#39,.T.);
#858=ADVANCED_FACE('',(#73,#19),#839,.T.);
#859=ADVANCED_FACE('',(#74),#840,.T.);
#860=ADVANCED_FACE('',(#75),#40,.T.);
#861=ADVANCED_FACE('',(#76,#20),#41,.T.);
#862=ADVANCED_FACE('',(#77,#21),#42,.T.);
#863=ADVANCED_FACE('',(#78,#22),#43,.F.);
#864=ADVANCED_FACE('',(#79,#23),#44,.F.);
#865=ADVANCED_FACE('',(#80),#841,.F.);
#866=ADVANCED_FACE('',(#81),#45,.T.);
#867=ADVANCED_FACE('',(#82),#842,.T.);
#868=ADVANCED_FACE('',(#83),#46,.T.);
#869=ADVANCED_FACE('',(#84,#24),#47,.T.);
#870=ADVANCED_FACE('',(#85),#843,.F.);
#871=ADVANCED_FACE('',(#86,#25),#48,.T.);
#872=ADVANCED_FACE('',(#87),#844,.F.);
#873=ADVANCED_FACE('',(#88),#845,.F.);
#874=ADVANCED_FACE('',(#89),#49,.F.);
#875=ADVANCED_FACE('',(#90),#50,.F.);
#876=ADVANCED_FACE('',(#91,#26),#51,.T.);
#877=ADVANCED_FACE('',(#92),#846,.T.);
#878=ADVANCED_FACE('',(#93),#847,.F.);
#879=ADVANCED_FACE('',(#94,#27),#52,.F.);
#880=ADVANCED_FACE('',(#95),#53,.T.);
#881=ADVANCED_FACE('',(#96),#54,.T.);
#882=ADVANCED_FACE('',(#97),#55,.T.);
#883=ADVANCED_FACE('',(#98),#56,.F.);
#884=ADVANCED_FACE('',(#99,#28),#57,.F.);
#885=ADVANCED_FACE('',(#100,#29),#58,.F.);
#886=ADVANCED_FACE('',(#101,#30),#848,.T.);
#887=ADVANCED_FACE('',(#102),#849,.T.);
#888=ADVANCED_FACE('',(#103),#59,.F.);
#889=ADVANCED_FACE('',(#104,#31),#60,.F.);
#890=ADVANCED_FACE('',(#105,#32),#61,.F.);
#891=ADVANCED_FACE('',(#106,#33),#62,.T.);
#892=ADVANCED_FACE('',(#107,#34),#63,.T.);
#893=ADVANCED_FACE('',(#108),#850,.F.);
#894=ADVANCED_FACE('',(#109),#64,.F.);
#895=ADVANCED_FACE('',(#110),#851,.T.);
#896=ADVANCED_FACE('',(#111),#65,.F.);
#897=ADVANCED_FACE('',(#112,#35),#66,.F.);
#898=ADVANCED_FACE('',(#113),#852,.F.);
#899=ADVANCED_FACE('',(#114,#36),#67,.F.);
#900=CLOSED_SHELL('',(#853,#854,#855,#856,#857,#858,#859,#860,#861,#862,
#863,#864,#865,#866,#867,#868,#869,#870,#871));
#901=CLOSED_SHELL('',(#872,#873,#874,#875,#876,#877,#878,#879,#880,#881,
#882,#883,#884,#885,#886,#887,#888,#889,#890,#891,#892,#893,#894,#895,#896,
#897,#898,#899));
#902=DERIVED_UNIT_ELEMENT(#904,1.);
#903=DERIVED_UNIT_ELEMENT(#1508,-3.);
#904=(
MASS_UNIT()
NAMED_UNIT(*)
SI_UNIT(.KILO.,.GRAM.)
);
#905=DERIVED_UNIT((#902,#903));
#906=MEASURE_REPRESENTATION_ITEM('density measure',
POSITIVE_RATIO_MEASURE(7850.),#905);
#907=PROPERTY_DEFINITION_REPRESENTATION(#912,#909);
#908=PROPERTY_DEFINITION_REPRESENTATION(#913,#910);
#909=REPRESENTATION('material name',(#911),#1505);
#910=REPRESENTATION('density',(#906),#1505);
#911=DESCRIPTIVE_REPRESENTATION_ITEM('\X2\94A2\X0\','\X2\94A2\X0\');
#912=PROPERTY_DEFINITION('material property','material name',#1515);
#913=PROPERTY_DEFINITION('material property','density of part',#1515);
#914=AXIS2_PLACEMENT_3D('',#1252,#998,#999);
#915=AXIS2_PLACEMENT_3D('',#1253,#1000,#1001);
#916=AXIS2_PLACEMENT_3D('',#1255,#1002,#1003);
#917=AXIS2_PLACEMENT_3D('',#1258,#1005,#1006);
#918=AXIS2_PLACEMENT_3D('',#1259,#1007,#1008);
#919=AXIS2_PLACEMENT_3D('',#1261,#1009,#1010);
#920=AXIS2_PLACEMENT_3D('',#1264,#1012,#1013);
#921=AXIS2_PLACEMENT_3D('',#1265,#1014,#1015);
#922=AXIS2_PLACEMENT_3D('',#1274,#1020,#1021);
#923=AXIS2_PLACEMENT_3D('',#1280,#1025,#1026);
#924=AXIS2_PLACEMENT_3D('',#1286,#1030,#1031);
#925=AXIS2_PLACEMENT_3D('',#1288,#1032,#1033);
#926=AXIS2_PLACEMENT_3D('',#1291,#1035,#1036);
#927=AXIS2_PLACEMENT_3D('',#1294,#1037,#1038);
#928=AXIS2_PLACEMENT_3D('',#1298,#1040,#1041);
#929=AXIS2_PLACEMENT_3D('',#1300,#1043,#1044);
#930=AXIS2_PLACEMENT_3D('',#1302,#1045,#1046);
#931=AXIS2_PLACEMENT_3D('',#1305,#1048,#1049);
#932=AXIS2_PLACEMENT_3D('',#1306,#1050,#1051);
#933=AXIS2_PLACEMENT_3D('',#1315,#1056,#1057);
#934=AXIS2_PLACEMENT_3D('',#1318,#1060,#1061);
#935=AXIS2_PLACEMENT_3D('',#1321,#1064,#1065);
#936=AXIS2_PLACEMENT_3D('',#1323,#1066,#1067);
#937=AXIS2_PLACEMENT_3D('',#1324,#1068,#1069);
#938=AXIS2_PLACEMENT_3D('',#1328,#1071,#1072);
#939=AXIS2_PLACEMENT_3D('',#1331,#1074,#1075);
#940=AXIS2_PLACEMENT_3D('',#1332,#1076,#1077);
#941=AXIS2_PLACEMENT_3D('',#1335,#1079,#1080);
#942=AXIS2_PLACEMENT_3D('',#1336,#1081,#1082);
#943=AXIS2_PLACEMENT_3D('',#1340,#1085,#1086);
#944=AXIS2_PLACEMENT_3D('',#1342,#1087,#1088);
#945=AXIS2_PLACEMENT_3D('',#1344,#1090,#1091);
#946=AXIS2_PLACEMENT_3D('',#1346,#1093,#1094);
#947=AXIS2_PLACEMENT_3D('',#1347,#1095,#1096);
#948=AXIS2_PLACEMENT_3D('',#1349,#1097,#1098);
#949=AXIS2_PLACEMENT_3D('',#1351,#1100,#1101);
#950=AXIS2_PLACEMENT_3D('',#1352,#1102,#1103);
#951=AXIS2_PLACEMENT_3D('',#1354,#1104,#1105);
#952=AXIS2_PLACEMENT_3D('',#1357,#1107,#1108);
#953=AXIS2_PLACEMENT_3D('',#1358,#1109,#1110);
#954=AXIS2_PLACEMENT_3D('',#1360,#1111,#1112);
#955=AXIS2_PLACEMENT_3D('',#1363,#1114,#1115);
#956=AXIS2_PLACEMENT_3D('',#1364,#1116,#1117);
#957=AXIS2_PLACEMENT_3D('',#1373,#1122,#1123);
#958=AXIS2_PLACEMENT_3D('',#1382,#1128,#1129);
#959=AXIS2_PLACEMENT_3D('',#1386,#1131,#1132);
#960=AXIS2_PLACEMENT_3D('',#1389,#1134,#1135);
#961=AXIS2_PLACEMENT_3D('',#1390,#1136,#1137);
#962=AXIS2_PLACEMENT_3D('',#1394,#1139,#1140);
#963=AXIS2_PLACEMENT_3D('',#1396,#1142,#1143);
#964=AXIS2_PLACEMENT_3D('',#1398,#1144,#1145);
#965=AXIS2_PLACEMENT_3D('',#1400,#1147,#1148);
#966=AXIS2_PLACEMENT_3D('',#1403,#1151,#1152);
#967=AXIS2_PLACEMENT_3D('',#1409,#1156,#1157);
#968=AXIS2_PLACEMENT_3D('',#1415,#1161,#1162);
#969=AXIS2_PLACEMENT_3D('',#1417,#1164,#1165);
#970=AXIS2_PLACEMENT_3D('',#1426,#1170,#1171);
#971=AXIS2_PLACEMENT_3D('',#1432,#1175,#1176);
#972=AXIS2_PLACEMENT_3D('',#1438,#1180,#1181);
#973=AXIS2_PLACEMENT_3D('',#1440,#1182,#1183);
#974=AXIS2_PLACEMENT_3D('',#1443,#1185,#1186);
#975=AXIS2_PLACEMENT_3D('',#1445,#1187,#1188);
#976=AXIS2_PLACEMENT_3D('',#1449,#1190,#1191);
#977=AXIS2_PLACEMENT_3D('',#1451,#1193,#1194);
#978=AXIS2_PLACEMENT_3D('',#1453,#1195,#1196);
#979=AXIS2_PLACEMENT_3D('',#1456,#1198,#1199);
#980=AXIS2_PLACEMENT_3D('',#1457,#1200,#1201);
#981=AXIS2_PLACEMENT_3D('',#1466,#1206,#1207);
#982=AXIS2_PLACEMENT_3D('',#1469,#1210,#1211);
#983=AXIS2_PLACEMENT_3D('',#1472,#1214,#1215);
#984=AXIS2_PLACEMENT_3D('',#1474,#1216,#1217);
#985=AXIS2_PLACEMENT_3D('',#1475,#1218,#1219);
#986=AXIS2_PLACEMENT_3D('',#1479,#1221,#1222);
#987=AXIS2_PLACEMENT_3D('',#1482,#1224,#1225);
#988=AXIS2_PLACEMENT_3D('',#1483,#1226,#1227);
#989=AXIS2_PLACEMENT_3D('',#1486,#1229,#1230);
#990=AXIS2_PLACEMENT_3D('',#1487,#1231,#1232);
#991=AXIS2_PLACEMENT_3D('',#1491,#1235,#1236);
#992=AXIS2_PLACEMENT_3D('',#1493,#1237,#1238);
#993=AXIS2_PLACEMENT_3D('',#1495,#1240,#1241);
#994=AXIS2_PLACEMENT_3D('',#1497,#1243,#1244);
#995=AXIS2_PLACEMENT_3D('',#1498,#1245,#1246);
#996=AXIS2_PLACEMENT_3D('',#1500,#1247,#1248);
#997=AXIS2_PLACEMENT_3D('',#1502,#1250,#1251);
#998=DIRECTION('axis',(0.,0.,1.));
#999=DIRECTION('refdir',(1.,0.,0.));
#1000=DIRECTION('center_axis',(0.884545273076329,0.466454349190059,0.));
#1001=DIRECTION('ref_axis',(0.466454349190059,-0.884545273076329,0.));
#1002=DIRECTION('center_axis',(0.884545273077339,0.466454349188144,0.));
#1003=DIRECTION('ref_axis',(0.466454349190059,-0.884545273076329,0.));
#1004=DIRECTION('',(0.884545273076329,0.466454349190059,0.));
#1005=DIRECTION('center_axis',(-0.884545273079795,-0.466454349183487,0.));
#1006=DIRECTION('ref_axis',(0.466454349190059,-0.884545273076329,0.));
#1007=DIRECTION('center_axis',(0.884545273076329,0.466454349190059,0.));
#1008=DIRECTION('ref_axis',(0.466454349190059,-0.884545273076329,0.));
#1009=DIRECTION('center_axis',(0.884545273076329,0.466454349190059,0.));
#1010=DIRECTION('ref_axis',(0.466454349190059,-0.884545273076329,0.));
#1011=DIRECTION('',(0.884545273076329,0.466454349190059,0.));
#1012=DIRECTION('center_axis',(-0.884545273096186,-0.466454349152405,0.));
#1013=DIRECTION('ref_axis',(0.466454349190059,-0.884545273076329,0.));
#1014=DIRECTION('center_axis',(0.466454349190056,-0.884545273076331,0.));
#1015=DIRECTION('ref_axis',(0.884545273076331,0.466454349190056,0.));
#1016=DIRECTION('',(0.,0.,-1.));
#1017=DIRECTION('',(0.884545273076331,0.466454349190056,0.));
#1018=DIRECTION('',(0.,0.,1.));
#1019=DIRECTION('',(-0.884545273076331,-0.466454349190056,0.));
#1020=DIRECTION('center_axis',(-0.884545273076329,-0.466454349190059,0.));
#1021=DIRECTION('ref_axis',(0.466454349190059,-0.884545273076329,0.));
#1022=DIRECTION('',(0.466454349190059,-0.884545273076329,0.));
#1023=DIRECTION('',(0.,0.,1.));
#1024=DIRECTION('',(-0.466454349190059,0.884545273076329,0.));
#1025=DIRECTION('center_axis',(0.884545273096186,0.466454349152405,0.));
#1026=DIRECTION('ref_axis',(-0.466454349152405,0.884545273096186,0.));
#1027=DIRECTION('',(0.,0.,-1.));
#1028=DIRECTION('',(-0.466454349152405,0.884545273096186,0.));
#1029=DIRECTION('',(0.466454349152405,-0.884545273096186,0.));
#1030=DIRECTION('center_axis',(0.,0.,1.));
#1031=DIRECTION('ref_axis',(-0.360349580576296,0.932817334625857,0.));
#1032=DIRECTION('center_axis',(0.,0.,1.));
#1033=DIRECTION('ref_axis',(1.,0.,0.));
#1034=DIRECTION('',(0.,0.,-1.));
#1035=DIRECTION('center_axis',(0.,0.,-1.));
#1036=DIRECTION('ref_axis',(1.,0.,0.));
#1037=DIRECTION('center_axis',(0.,0.,1.));
#1038=DIRECTION('ref_axis',(1.,0.,0.));
#1039=DIRECTION('',(0.,0.,-1.));
#1040=DIRECTION('center_axis',(0.,0.,1.));
#1041=DIRECTION('ref_axis',(1.,0.,0.));
#1042=DIRECTION('',(0.,0.,-1.));
#1043=DIRECTION('center_axis',(0.,0.,1.));
#1044=DIRECTION('ref_axis',(1.,0.,0.));
#1045=DIRECTION('center_axis',(0.,0.,-1.));
#1046=DIRECTION('ref_axis',(1.,0.,0.));
#1047=DIRECTION('',(0.,0.,1.));
#1048=DIRECTION('center_axis',(0.,0.,1.));
#1049=DIRECTION('ref_axis',(1.,0.,0.));
#1050=DIRECTION('center_axis',(0.466454349201509,-0.884545273070292,0.));
#1051=DIRECTION('ref_axis',(0.884545273070292,0.466454349201509,0.));
#1052=DIRECTION('',(0.,0.,-1.));
#1053=DIRECTION('',(0.884545273070292,0.466454349201509,0.));
#1054=DIRECTION('',(0.,0.,1.));
#1055=DIRECTION('',(-0.884545273070292,-0.466454349201509,0.));
#1056=DIRECTION('center_axis',(-0.884545273077339,-0.466454349188144,0.));
#1057=DIRECTION('ref_axis',(0.466454349188144,-0.884545273077339,0.));
#1058=DIRECTION('',(0.466454349188144,-0.884545273077339,0.));
#1059=DIRECTION('',(-0.466454349188144,0.884545273077339,0.));
#1060=DIRECTION('center_axis',(0.884545273079795,0.466454349183487,0.));
#1061=DIRECTION('ref_axis',(-0.466454349183487,0.884545273079795,0.));
#1062=DIRECTION('',(-0.466454349183487,0.884545273079795,0.));
#1063=DIRECTION('',(0.466454349183487,-0.884545273079795,0.));
#1064=DIRECTION('center_axis',(0.,0.,1.));
#1065=DIRECTION('ref_axis',(1.,0.,0.));
#1066=DIRECTION('center_axis',(0.,0.,1.));
#1067=DIRECTION('ref_axis',(1.,0.,0.));
#1068=DIRECTION('center_axis',(0.,0.,1.));
#1069=DIRECTION('ref_axis',(1.,0.,0.));
#1070=DIRECTION('',(0.0624559678458364,0.998047720342289,0.));
#1071=DIRECTION('center_axis',(0.,0.,-1.));
#1072=DIRECTION('ref_axis',(1.,0.,0.));
#1073=DIRECTION('',(0.0624559678458364,-0.998047720342289,0.));
#1074=DIRECTION('center_axis',(0.,0.,1.));
#1075=DIRECTION('ref_axis',(1.,0.,0.));
#1076=DIRECTION('center_axis',(0.,0.,-1.));
#1077=DIRECTION('ref_axis',(1.,0.,0.));
#1078=DIRECTION('',(0.,0.,1.));
#1079=DIRECTION('center_axis',(0.,0.,-1.));
#1080=DIRECTION('ref_axis',(1.,0.,0.));
#1081=DIRECTION('center_axis',(0.998047720342289,0.0624559678458364,0.));
#1082=DIRECTION('ref_axis',(0.0624559678458364,-0.998047720342289,0.));
#1083=DIRECTION('',(0.0624559678458364,-0.998047720342289,0.));
#1084=DIRECTION('',(0.,0.,-1.));
#1085=DIRECTION('center_axis',(0.,0.,-1.));
#1086=DIRECTION('ref_axis',(-1.83697019872103E-16,1.,0.));
#1087=DIRECTION('center_axis',(0.,0.,1.));
#1088=DIRECTION('ref_axis',(1.,0.,0.));
#1089=DIRECTION('',(0.,0.,-1.));
#1090=DIRECTION('center_axis',(-0.998047720342289,0.0624559678458364,0.));
#1091=DIRECTION('ref_axis',(0.0624559678458364,0.998047720342289,0.));
#1092=DIRECTION('',(-0.0624559678458364,-0.998047720342289,0.));
#1093=DIRECTION('center_axis',(0.,0.,1.));
#1094=DIRECTION('ref_axis',(1.,0.,0.));
#1095=DIRECTION('center_axis',(0.,0.,1.));
#1096=DIRECTION('ref_axis',(1.,0.,0.));
#1097=DIRECTION('center_axis',(0.,0.,-1.));
#1098=DIRECTION('ref_axis',(1.,0.,0.));
#1099=DIRECTION('',(0.,0.,-1.));
#1100=DIRECTION('center_axis',(0.,0.,1.));
#1101=DIRECTION('ref_axis',(1.,0.,0.));
#1102=DIRECTION('center_axis',(-0.884545273076329,0.466454349190059,0.));
#1103=DIRECTION('ref_axis',(0.466454349190059,0.884545273076329,0.));
#1104=DIRECTION('center_axis',(-0.884545273077339,0.466454349188144,0.));
#1105=DIRECTION('ref_axis',(0.466454349190059,0.884545273076329,0.));
#1106=DIRECTION('',(-0.884545273076329,0.466454349190059,0.));
#1107=DIRECTION('center_axis',(0.884545273079795,-0.466454349183487,0.));
#1108=DIRECTION('ref_axis',(0.466454349190059,0.884545273076329,0.));
#1109=DIRECTION('center_axis',(-0.884545273076329,0.466454349190059,0.));
#1110=DIRECTION('ref_axis',(0.466454349190059,0.884545273076329,0.));
#1111=DIRECTION('center_axis',(-0.884545273076329,0.466454349190059,0.));
#1112=DIRECTION('ref_axis',(0.466454349190059,0.884545273076329,0.));
#1113=DIRECTION('',(-0.884545273076329,0.466454349190059,0.));
#1114=DIRECTION('center_axis',(0.884545273096186,-0.466454349152405,0.));
#1115=DIRECTION('ref_axis',(0.466454349190059,0.884545273076329,0.));
#1116=DIRECTION('center_axis',(-0.447213595499958,3.32922114352641E-16,
0.894427190999916));
#1117=DIRECTION('ref_axis',(0.894427190999916,0.,0.447213595499958));
#1118=DIRECTION('',(0.,1.,0.));
#1119=DIRECTION('',(-0.862840444340539,0.263406453058344,-0.431420222170269));
#1120=DIRECTION('',(0.,-1.,0.));
#1121=DIRECTION('',(-0.862840444340538,0.263406453058346,-0.431420222170269));
#1122=DIRECTION('center_axis',(0.429056814568287,3.43996160328663E-16,-0.90327750435429));
#1123=DIRECTION('ref_axis',(-0.90327750435429,0.,-0.429056814568287));
#1124=DIRECTION('',(0.,-1.,0.));
#1125=DIRECTION('',(-0.87077763322374,0.265829504486558,-0.413619375781276));
#1126=DIRECTION('',(0.,-1.,0.));
#1127=DIRECTION('',(-0.870777633223741,0.265829504486556,-0.413619375781276));
#1128=DIRECTION('center_axis',(0.,0.,1.));
#1129=DIRECTION('ref_axis',(1.,0.,0.));
#1130=DIRECTION('',(0.956425650277388,-0.29197598444303,0.));
#1131=DIRECTION('center_axis',(0.,0.,-1.));
#1132=DIRECTION('ref_axis',(0.29197598444303,0.956425650277388,0.));
#1133=DIRECTION('',(-0.956425650277388,0.291975984443028,0.));
#1134=DIRECTION('center_axis',(0.,0.,1.));
#1135=DIRECTION('ref_axis',(1.,0.,0.));
#1136=DIRECTION('center_axis',(0.,0.,-1.));
#1137=DIRECTION('ref_axis',(-0.956425652452778,0.291975977317103,0.));
#1138=DIRECTION('',(0.,0.,-1.));
#1139=DIRECTION('center_axis',(0.,0.,-1.));
#1140=DIRECTION('ref_axis',(0.29197598444303,0.956425650277388,0.));
#1141=DIRECTION('',(0.,0.,-1.));
#1142=DIRECTION('center_axis',(0.,0.,-1.));
#1143=DIRECTION('ref_axis',(1.,0.,0.));
#1144=DIRECTION('center_axis',(0.,0.,1.));
#1145=DIRECTION('ref_axis',(1.,0.,0.));
#1146=DIRECTION('',(0.,0.,1.));
#1147=DIRECTION('center_axis',(0.,0.,1.));
#1148=DIRECTION('ref_axis',(1.,0.,0.));
#1149=DIRECTION('',(0.956425650277388,-0.29197598444303,0.));
#1150=DIRECTION('',(-0.956425650277388,0.291975984443028,0.));
#1151=DIRECTION('center_axis',(-0.291975984443028,-0.956425650277388,0.));
#1152=DIRECTION('ref_axis',(-0.956425650277388,0.291975984443028,0.));
#1153=DIRECTION('',(0.956425650277388,-0.291975984443028,0.));
#1154=DIRECTION('',(-0.956425650277388,0.291975984443028,0.));
#1155=DIRECTION('',(0.,0.,-1.));
#1156=DIRECTION('center_axis',(0.29197598444303,0.956425650277388,0.));
#1157=DIRECTION('ref_axis',(0.956425650277388,-0.29197598444303,0.));
#1158=DIRECTION('',(0.956425650277388,-0.29197598444303,0.));
#1159=DIRECTION('',(0.,0.,1.));
#1160=DIRECTION('',(0.956425650277388,-0.29197598444303,0.));
#1161=DIRECTION('center_axis',(0.,0.,-1.));
#1162=DIRECTION('ref_axis',(-1.,0.,0.));
#1163=DIRECTION('',(0.0624559678458364,0.998047720342289,0.));
#1164=DIRECTION('center_axis',(0.466454349190056,0.884545273076331,0.));
#1165=DIRECTION('ref_axis',(-0.884545273076331,0.466454349190056,0.));
#1166=DIRECTION('',(0.,0.,-1.));
#1167=DIRECTION('',(0.884545273076331,-0.466454349190056,0.));
#1168=DIRECTION('',(0.,0.,1.));
#1169=DIRECTION('',(-0.884545273076331,0.466454349190056,0.));
#1170=DIRECTION('center_axis',(-0.884545273076329,0.466454349190059,0.));
#1171=DIRECTION('ref_axis',(-0.466454349190059,-0.884545273076329,0.));
#1172=DIRECTION('',(0.466454349190059,0.884545273076329,0.));
#1173=DIRECTION('',(0.,0.,1.));
#1174=DIRECTION('',(-0.466454349190059,-0.884545273076329,0.));
#1175=DIRECTION('center_axis',(0.884545273096186,-0.466454349152405,0.));
#1176=DIRECTION('ref_axis',(0.466454349152405,0.884545273096186,0.));
#1177=DIRECTION('',(0.,0.,-1.));
#1178=DIRECTION('',(-0.466454349152405,-0.884545273096186,0.));
#1179=DIRECTION('',(0.466454349152405,0.884545273096186,0.));
#1180=DIRECTION('center_axis',(0.,0.,-1.));
#1181=DIRECTION('ref_axis',(0.360349580576297,0.932817334625856,0.));
#1182=DIRECTION('center_axis',(0.,0.,1.));
#1183=DIRECTION('ref_axis',(-1.,0.,0.));
#1184=DIRECTION('',(0.,0.,-1.));
#1185=DIRECTION('center_axis',(0.,0.,-1.));
#1186=DIRECTION('ref_axis',(-1.,0.,0.));
#1187=DIRECTION('center_axis',(0.,0.,-1.));
#1188=DIRECTION('ref_axis',(-1.,0.,0.));
#1189=DIRECTION('',(0.,0.,-1.));
#1190=DIRECTION('center_axis',(0.,0.,-1.));
#1191=DIRECTION('ref_axis',(-1.,0.,0.));
#1192=DIRECTION('',(0.,0.,-1.));
#1193=DIRECTION('center_axis',(0.,0.,-1.));
#1194=DIRECTION('ref_axis',(-1.,0.,0.));
#1195=DIRECTION('center_axis',(0.,0.,-1.));
#1196=DIRECTION('ref_axis',(-1.,0.,0.));
#1197=DIRECTION('',(0.,0.,1.));
#1198=DIRECTION('center_axis',(0.,0.,1.));
#1199=DIRECTION('ref_axis',(-1.,0.,0.));
#1200=DIRECTION('center_axis',(0.466454349201509,0.884545273070292,0.));
#1201=DIRECTION('ref_axis',(-0.884545273070292,0.466454349201509,0.));
#1202=DIRECTION('',(0.,0.,-1.));
#1203=DIRECTION('',(0.884545273070292,-0.466454349201509,0.));
#1204=DIRECTION('',(0.,0.,1.));
#1205=DIRECTION('',(-0.884545273070292,0.466454349201509,0.));
#1206=DIRECTION('center_axis',(-0.884545273077339,0.466454349188144,0.));
#1207=DIRECTION('ref_axis',(-0.466454349188144,-0.884545273077339,0.));
#1208=DIRECTION('',(0.466454349188144,0.884545273077339,0.));
#1209=DIRECTION('',(-0.466454349188144,-0.884545273077339,0.));
#1210=DIRECTION('center_axis',(0.884545273079795,-0.466454349183487,0.));
#1211=DIRECTION('ref_axis',(0.466454349183487,0.884545273079795,0.));
#1212=DIRECTION('',(-0.466454349183487,-0.884545273079795,0.));
#1213=DIRECTION('',(0.466454349183487,0.884545273079795,0.));
#1214=DIRECTION('center_axis',(0.,0.,-1.));
#1215=DIRECTION('ref_axis',(-1.,0.,0.));
#1216=DIRECTION('center_axis',(0.,0.,-1.));
#1217=DIRECTION('ref_axis',(-1.,0.,0.));
#1218=DIRECTION('center_axis',(0.,0.,-1.));
#1219=DIRECTION('ref_axis',(-1.,0.,0.));
#1220=DIRECTION('',(-0.0624559678458364,-0.998047720342289,0.));
#1221=DIRECTION('center_axis',(0.,0.,1.));
#1222=DIRECTION('ref_axis',(-1.,0.,0.));
#1223=DIRECTION('',(-0.0624559678458364,0.998047720342289,0.));
#1224=DIRECTION('center_axis',(0.,0.,-1.));
#1225=DIRECTION('ref_axis',(-1.,0.,0.));
#1226=DIRECTION('center_axis',(0.,0.,1.));
#1227=DIRECTION('ref_axis',(-1.,0.,0.));
#1228=DIRECTION('',(0.,0.,1.));
#1229=DIRECTION('center_axis',(0.,0.,1.));
#1230=DIRECTION('ref_axis',(-1.,0.,0.));
#1231=DIRECTION('center_axis',(0.998047720342289,-0.0624559678458364,0.));
#1232=DIRECTION('ref_axis',(-0.0624559678458364,-0.998047720342289,0.));
#1233=DIRECTION('',(-0.0624559678458364,-0.998047720342289,0.));
#1234=DIRECTION('',(0.,0.,-1.));
#1235=DIRECTION('center_axis',(0.,0.,1.));
#1236=DIRECTION('ref_axis',(1.83697019872103E-16,1.,0.));
#1237=DIRECTION('center_axis',(0.,0.,-1.));
#1238=DIRECTION('ref_axis',(-1.,0.,0.));
#1239=DIRECTION('',(0.,0.,-1.));
#1240=DIRECTION('center_axis',(-0.998047720342289,-0.0624559678458364,0.));
#1241=DIRECTION('ref_axis',(-0.0624559678458364,0.998047720342289,0.));
#1242=DIRECTION('',(0.0624559678458364,-0.998047720342289,0.));
#1243=DIRECTION('center_axis',(0.,0.,-1.));
#1244=DIRECTION('ref_axis',(-1.,0.,0.));
#1245=DIRECTION('center_axis',(0.,0.,-1.));
#1246=DIRECTION('ref_axis',(-1.,0.,0.));
#1247=DIRECTION('center_axis',(0.,0.,1.));
#1248=DIRECTION('ref_axis',(-1.,0.,0.));
#1249=DIRECTION('',(0.,0.,-1.));
#1250=DIRECTION('center_axis',(0.,0.,-1.));
#1251=DIRECTION('ref_axis',(-1.,0.,0.));
#1252=CARTESIAN_POINT('',(0.,0.,0.));
#1253=CARTESIAN_POINT('Origin',(12.8102068514472,33.7463309029224,-0.7));
#1254=CARTESIAN_POINT('',(15.9567380896413,36.1404572923529,-0.7));
#1255=CARTESIAN_POINT('Origin',(16.2599334166148,35.5655028648533,-0.7));
#1256=CARTESIAN_POINT('',(17.9706966623204,37.2024942099746,-0.7));
#1257=CARTESIAN_POINT('',(12.5070115244736,34.3212853304221,-0.7));
#1258=CARTESIAN_POINT('Origin',(18.2738919892939,36.6275397824749,-0.7));
#1259=CARTESIAN_POINT('Origin',(12.8102068514472,33.7463309029224,-0.7));
#1260=CARTESIAN_POINT('',(12.5070115244736,34.3212853304221,-0.7));
#1261=CARTESIAN_POINT('Origin',(12.8102068514471,33.7463309029224,-0.7));
#1262=CARTESIAN_POINT('',(14.5414656525492,35.3941303335592,-0.7));
#1263=CARTESIAN_POINT('',(12.5070115244736,34.3212853304221,-0.7));
#1264=CARTESIAN_POINT('Origin',(14.8446609795227,34.8191759060596,-0.7));
#1265=CARTESIAN_POINT('Origin',(14.350077343104,30.826248440598,0.));
#1266=CARTESIAN_POINT('',(16.3845314711796,31.8990934437352,3.));
#1267=CARTESIAN_POINT('',(16.3845314711796,31.8990934437352,-4.4));
#1268=CARTESIAN_POINT('',(16.3845314711796,31.8990934437352,0.));
#1269=CARTESIAN_POINT('',(14.350077343104,30.826248440598,3.));
#1270=CARTESIAN_POINT('',(16.3845314711796,31.8990934437352,3.));
#1271=CARTESIAN_POINT('',(14.350077343104,30.826248440598,-4.4));
#1272=CARTESIAN_POINT('',(14.350077343104,30.826248440598,0.));
#1273=CARTESIAN_POINT('',(16.3845314711796,31.8990934437352,-4.4));
#1274=CARTESIAN_POINT('Origin',(11.2703363597903,36.6664133652468,0.));
#1275=CARTESIAN_POINT('',(11.2703363597903,36.6664133652468,3.));
#1276=CARTESIAN_POINT('',(14.350077343104,30.826248440598,3.));
#1277=CARTESIAN_POINT('',(11.2703363597903,36.6664133652468,-4.4));
#1278=CARTESIAN_POINT('',(11.2703363597903,36.6664133652468,0.));
#1279=CARTESIAN_POINT('',(14.350077343104,30.826248440598,-4.4));
#1280=CARTESIAN_POINT('Origin',(16.3845314711796,31.8990934437352,0.));
#1281=CARTESIAN_POINT('',(14.0908116422988,36.2487131570688,3.));
#1282=CARTESIAN_POINT('',(14.0908116422988,36.2487131570688,-4.4));
#1283=CARTESIAN_POINT('',(14.0908116422993,36.2487131570678,0.));
#1284=CARTESIAN_POINT('',(14.0908116422988,36.2487131570688,3.));
#1285=CARTESIAN_POINT('',(14.0908116422988,36.2487131570688,-4.4));
#1286=CARTESIAN_POINT('Origin',(13.2359171160207,40.2074573201755,0.));
#1287=CARTESIAN_POINT('',(17.0716047988228,38.9074573201754,3.));
#1288=CARTESIAN_POINT('Origin',(13.2359171160207,40.2074573201755,3.));
#1289=CARTESIAN_POINT('',(17.0716047988228,38.9074573201754,-4.4));
#1290=CARTESIAN_POINT('',(17.0716047988228,38.9074573201754,0.));
#1291=CARTESIAN_POINT('Origin',(13.2359171160207,40.2074573201755,-4.4));
#1292=CARTESIAN_POINT('',(17.278010383407,40.4604039899511,0.));
#1293=CARTESIAN_POINT('',(9.19382384863443,40.4604039899511,0.));
#1294=CARTESIAN_POINT('Origin',(13.2359171160207,40.2074573201755,0.));
#1295=CARTESIAN_POINT('',(9.19382384863443,40.4604039899511,-3.4));
#1296=CARTESIAN_POINT('',(9.19382384863443,40.4604039899511,0.));
#1297=CARTESIAN_POINT('',(17.278010383407,40.4604039899511,-3.4));
#1298=CARTESIAN_POINT('Origin',(13.2359171160207,40.2074573201755,-3.4));
#1299=CARTESIAN_POINT('',(17.278010383407,40.4604039899511,0.));
#1300=CARTESIAN_POINT('Origin',(13.2359171160207,40.2074573201755,0.));
#1301=CARTESIAN_POINT('',(15.5608230321509,36.8912377133116,-4.4));
#1302=CARTESIAN_POINT('Origin',(13.2359171160207,40.2074573201755,-4.4));
#1303=CARTESIAN_POINT('',(15.5608230321509,36.8912377133116,3.));
#1304=CARTESIAN_POINT('',(15.5608230321622,36.8912377132902,0.));
#1305=CARTESIAN_POINT('Origin',(13.2359171160207,40.2074573201755,3.));
#1306=CARTESIAN_POINT('Origin',(17.7998039082632,32.6454204025229,0.));
#1307=CARTESIAN_POINT('',(19.8137624809377,33.7074573201755,3.));
#1308=CARTESIAN_POINT('',(19.8137624809377,33.7074573201755,-4.4));
#1309=CARTESIAN_POINT('',(19.8137624809377,33.7074573201755,0.));
#1310=CARTESIAN_POINT('',(17.7998039082632,32.6454204025229,3.));
#1311=CARTESIAN_POINT('',(19.8137624809377,33.7074573201755,3.));
#1312=CARTESIAN_POINT('',(17.7998039082632,32.6454204025229,-4.4));
#1313=CARTESIAN_POINT('',(17.7998039082632,32.6454204025229,0.));
#1314=CARTESIAN_POINT('',(19.8137624809377,33.7074573201755,-4.4));
#1315=CARTESIAN_POINT('Origin',(15.5608230321509,36.8912377133116,0.));
#1316=CARTESIAN_POINT('',(17.7998039082632,32.6454204025229,3.));
#1317=CARTESIAN_POINT('',(17.7998039082632,32.6454204025229,-4.4));
#1318=CARTESIAN_POINT('Origin',(19.8137624809377,33.7074573201755,0.));
#1319=CARTESIAN_POINT('',(17.0716047988228,38.9074573201754,3.));
#1320=CARTESIAN_POINT('',(17.0716047988228,38.9074573201754,-4.4));
#1321=CARTESIAN_POINT('Origin',(13.2359171160207,40.2074573201755,-4.4));
#1322=CARTESIAN_POINT('',(9.9359171160207,40.2074573201755,-4.4));
#1323=CARTESIAN_POINT('Origin',(13.2359171160207,40.2074573201755,-4.4));
#1324=CARTESIAN_POINT('Origin',(13.2359171160207,53.4839306550633,-3.4));
#1325=CARTESIAN_POINT('',(10.4859171160207,61.1080824178576,-3.4));
#1326=CARTESIAN_POINT('',(10.4859171160207,61.1080824178576,-3.4));
#1327=CARTESIAN_POINT('',(15.9859171160207,61.1080824178576,-3.4));
#1328=CARTESIAN_POINT('Origin',(13.2359171160207,63.1074573201754,-3.4));
#1329=CARTESIAN_POINT('',(15.9859171160207,61.1080824178576,-3.4));
#1330=CARTESIAN_POINT('',(11.9359171160207,63.1074573201754,-3.4));
#1331=CARTESIAN_POINT('Origin',(13.2359171160207,63.1074573201754,-3.4));
#1332=CARTESIAN_POINT('Origin',(13.2359171160207,63.1074573201754,0.));
#1333=CARTESIAN_POINT('',(11.9359171160207,63.1074573201754,0.));
#1334=CARTESIAN_POINT('',(11.9359171160207,63.1074573201754,0.));
#1335=CARTESIAN_POINT('Origin',(13.2359171160207,63.1074573201754,0.));
#1336=CARTESIAN_POINT('Origin',(15.9859171160207,61.1080824178576,0.));
#1337=CARTESIAN_POINT('',(15.9859171160207,61.1080824178576,0.));
#1338=CARTESIAN_POINT('',(15.9859171160207,61.1080824178576,0.));
#1339=CARTESIAN_POINT('',(15.9859171160207,61.1080824178576,0.));
#1340=CARTESIAN_POINT('Origin',(13.2359171160207,63.1074573201754,0.));
#1341=CARTESIAN_POINT('',(10.4859171160207,61.1080824178576,0.));
#1342=CARTESIAN_POINT('Origin',(13.2359171160207,63.1074573201754,0.));
#1343=CARTESIAN_POINT('',(10.4859171160207,61.1080824178576,0.));
#1344=CARTESIAN_POINT('Origin',(9.19382384863443,40.4604039899511,0.));
#1345=CARTESIAN_POINT('',(10.4859171160207,61.1080824178576,0.));
#1346=CARTESIAN_POINT('Origin',(13.2359171160207,53.4839306550633,0.));
#1347=CARTESIAN_POINT('Origin',(13.2359171160207,40.2074573201755,0.));
#1348=CARTESIAN_POINT('',(9.9359171160207,40.2074573201755,3.));
#1349=CARTESIAN_POINT('Origin',(13.2359171160207,40.2074573201755,3.));
#1350=CARTESIAN_POINT('',(9.9359171160207,40.2074573201755,0.));
#1351=CARTESIAN_POINT('Origin',(13.2359171160207,40.2074573201755,3.));
#1352=CARTESIAN_POINT('Origin',(-9.57428973542645,33.538873582747,-0.7));
#1353=CARTESIAN_POINT('',(-13.3272116275677,34.7830911171783,-0.7));
#1354=CARTESIAN_POINT('Origin',(-13.0240163005941,35.3580455446779,-0.7));
#1355=CARTESIAN_POINT('',(-15.3411702002468,35.8451280347999,-0.7));
#1356=CARTESIAN_POINT('',(-9.87748506239999,32.9639191552474,-0.7));
#1357=CARTESIAN_POINT('Origin',(-15.0379748732732,36.4200824622995,-0.7));
#1358=CARTESIAN_POINT('Origin',(-9.57428973542645,33.538873582747,-0.7));
#1359=CARTESIAN_POINT('',(-9.87748506239999,32.9639191552474,-0.7));
#1360=CARTESIAN_POINT('Origin',(-9.57428973542644,33.538873582747,-0.7));
#1361=CARTESIAN_POINT('',(-11.9119391904755,34.0367641583845,-0.7));
#1362=CARTESIAN_POINT('',(-9.87748506239999,32.9639191552474,-0.7));
#1363=CARTESIAN_POINT('Origin',(-11.608743863502,34.6117185858841,-0.7));
#1364=CARTESIAN_POINT('Origin',(-16.5986206240456,41.033398962643,-3.3));
#1365=CARTESIAN_POINT('',(-16.5986206240456,41.033398962643,-3.3));
#1366=CARTESIAN_POINT('',(-16.5986206240456,48.1432040980739,-3.3));
#1367=CARTESIAN_POINT('',(-16.5986206240456,48.1432040980739,-3.3));
#1368=CARTESIAN_POINT('',(-20.5986206240456,42.2545121118286,-5.3));
#1369=CARTESIAN_POINT('',(-16.5986206240456,41.033398962643,-3.3));
#1370=CARTESIAN_POINT('',(-20.5986206240456,49.3643172472595,-5.3));
#1371=CARTESIAN_POINT('',(-20.5986206240456,49.3643172472595,-5.3));
#1372=CARTESIAN_POINT('',(-16.5986206240456,48.1432040980739,-3.3));
#1373=CARTESIAN_POINT('Origin',(-16.5986206240456,48.1432040980739,0.));
#1374=CARTESIAN_POINT('',(-16.5986206240456,48.1432040980739,0.));
#1375=CARTESIAN_POINT('',(-16.5986206240456,41.033398962643,0.));
#1376=CARTESIAN_POINT('',(-16.5986206240456,48.1432040980739,0.));
#1377=CARTESIAN_POINT('',(-20.5986206240456,49.3643172472595,-1.9));
#1378=CARTESIAN_POINT('',(-16.5986206240456,48.1432040980739,0.));
#1379=CARTESIAN_POINT('',(-20.5986206240456,42.2545121118286,-1.9));
#1380=CARTESIAN_POINT('',(-20.5986206240456,47.8457866515869,-1.9));
#1381=CARTESIAN_POINT('',(-16.5986206240456,41.033398962643,0.));
#1382=CARTESIAN_POINT('Origin',(-24.2486206240456,46.3272560559143,-1.9));
#1383=CARTESIAN_POINT('',(-23.5059022769393,50.2518472109431,-1.9));
#1384=CARTESIAN_POINT('',(-23.2976255336633,50.1882648434722,-1.9));
#1385=CARTESIAN_POINT('',(-25.4913389226956,43.7481527742642,-1.9));
#1386=CARTESIAN_POINT('Origin',(-24.4986206240456,47.,-1.9));
#1387=CARTESIAN_POINT('',(-22.8367030543228,42.9377500829718,-1.9));
#1388=CARTESIAN_POINT('',(-25.7986206240456,47.,-1.9));
#1389=CARTESIAN_POINT('Origin',(-24.4986206240456,47.,-1.9));
#1390=CARTESIAN_POINT('Origin',(-24.4986206240456,47.,0.));
#1391=CARTESIAN_POINT('',(-23.5059022769393,50.2518472109431,-5.3));
#1392=CARTESIAN_POINT('',(-23.5059022769393,50.2518472109431,0.));
#1393=CARTESIAN_POINT('',(-25.4913389226956,43.7481527742642,-5.3));
#1394=CARTESIAN_POINT('Origin',(-24.4986206240456,47.,-5.3));
#1395=CARTESIAN_POINT('',(-25.4913389226956,43.7481527742642,0.));
#1396=CARTESIAN_POINT('Origin',(-24.4986206240456,47.,0.));
#1397=CARTESIAN_POINT('',(-25.7986206240456,47.,-5.3));
#1398=CARTESIAN_POINT('Origin',(-24.4986206240456,47.,-5.3));
#1399=CARTESIAN_POINT('',(-25.7986206240456,47.,0.));
#1400=CARTESIAN_POINT('Origin',(-24.2486206240456,46.3272560559143,-5.3));
#1401=CARTESIAN_POINT('',(-23.5059022769393,50.2518472109431,-5.3));
#1402=CARTESIAN_POINT('',(-25.4913389711519,43.7481527890569,-5.3));
#1403=CARTESIAN_POINT('Origin',(-14.0420932673863,40.2529466697756,0.));
#1404=CARTESIAN_POINT('',(-14.0420932673863,40.2529466697756,0.));
#1405=CARTESIAN_POINT('',(-25.4913389711519,43.7481527890569,0.));
#1406=CARTESIAN_POINT('',(-14.0420932673863,40.2529466697756,-3.3));
#1407=CARTESIAN_POINT('',(-25.4913389711519,43.7481527890569,-3.3));
#1408=CARTESIAN_POINT('',(-14.0420932673863,40.2529466697756,0.));
#1409=CARTESIAN_POINT('Origin',(-16.5986206240456,48.1432040980739,0.));
#1410=CARTESIAN_POINT('',(-13.6055151786273,47.229473993999,0.));
#1411=CARTESIAN_POINT('',(-23.5059022769393,50.2518472109431,0.));
#1412=CARTESIAN_POINT('',(-13.6055151786273,47.229473993999,-3.3));
#1413=CARTESIAN_POINT('',(-13.6055151786273,47.229473993999,0.));
#1414=CARTESIAN_POINT('',(-23.5059022769393,50.2518472109431,-3.3));
#1415=CARTESIAN_POINT('Origin',(-15.1020679013364,44.1980753839247,-3.3));
#1416=CARTESIAN_POINT('',(-13.2751560823195,52.5086195158205,-3.3));
#1417=CARTESIAN_POINT('Origin',(-11.1141602270833,30.6187911204226,0.));
#1418=CARTESIAN_POINT('',(-13.1486143551589,31.6916361235597,3.));
#1419=CARTESIAN_POINT('',(-13.1486143551589,31.6916361235597,-4.4));
#1420=CARTESIAN_POINT('',(-13.1486143551589,31.6916361235597,0.));
#1421=CARTESIAN_POINT('',(-11.1141602270833,30.6187911204226,-4.4));
#1422=CARTESIAN_POINT('',(-13.1486143551589,31.6916361235597,-4.4));
#1423=CARTESIAN_POINT('',(-11.1141602270833,30.6187911204226,3.));
#1424=CARTESIAN_POINT('',(-11.1141602270833,30.6187911204226,0.));
#1425=CARTESIAN_POINT('',(-13.1486143551589,31.6916361235597,3.));
#1426=CARTESIAN_POINT('Origin',(-8.03441924376955,36.4589560450714,0.));
#1427=CARTESIAN_POINT('',(-8.03441924376955,36.4589560450714,-4.4));
#1428=CARTESIAN_POINT('',(-11.1141602270833,30.6187911204226,-4.4));
#1429=CARTESIAN_POINT('',(-8.03441924376955,36.4589560450714,3.));
#1430=CARTESIAN_POINT('',(-8.03441924376956,36.4589560450714,0.));
#1431=CARTESIAN_POINT('',(-11.1141602270833,30.6187911204226,3.));
#1432=CARTESIAN_POINT('Origin',(-13.1486143551589,31.6916361235597,0.));
#1433=CARTESIAN_POINT('',(-10.8548945262781,36.0412558368933,3.));
#1434=CARTESIAN_POINT('',(-10.8548945262781,36.0412558368933,-4.4));
#1435=CARTESIAN_POINT('',(-10.8548945262786,36.0412558368923,0.));
#1436=CARTESIAN_POINT('',(-10.8548945262781,36.0412558368933,-4.4));
#1437=CARTESIAN_POINT('',(-10.8548945262781,36.0412558368933,3.));
#1438=CARTESIAN_POINT('Origin',(-10.,40.,0.));
#1439=CARTESIAN_POINT('',(-13.8356876828021,38.7,-4.4));
#1440=CARTESIAN_POINT('Origin',(-10.,40.,-4.4));
#1441=CARTESIAN_POINT('',(-13.8356876828021,38.7,3.));
#1442=CARTESIAN_POINT('',(-13.8356876828021,38.7,0.));
#1443=CARTESIAN_POINT('Origin',(-10.,40.,3.));
#1444=CARTESIAN_POINT('',(-5.95790673261372,40.2529466697756,0.));
#1445=CARTESIAN_POINT('Origin',(-10.,40.,0.));
#1446=CARTESIAN_POINT('',(-14.0420932673863,40.2529466697756,-3.4));
#1447=CARTESIAN_POINT('',(-14.0420932673863,40.2529466697756,0.));
#1448=CARTESIAN_POINT('',(-5.95790673261372,40.2529466697756,-3.4));
#1449=CARTESIAN_POINT('Origin',(-10.,40.,-3.4));
#1450=CARTESIAN_POINT('',(-5.95790673261372,40.2529466697756,0.));
#1451=CARTESIAN_POINT('Origin',(-10.,40.,0.));
#1452=CARTESIAN_POINT('',(-12.3249059161302,36.6837803931361,3.));
#1453=CARTESIAN_POINT('Origin',(-10.,40.,3.));
#1454=CARTESIAN_POINT('',(-12.3249059161302,36.6837803931361,-4.4));
#1455=CARTESIAN_POINT('',(-12.3249059161415,36.6837803931147,0.));
#1456=CARTESIAN_POINT('Origin',(-10.,40.,-4.4));
#1457=CARTESIAN_POINT('Origin',(-14.5638867922425,32.4379630823475,0.));
#1458=CARTESIAN_POINT('',(-16.577845364917,33.5,3.));
#1459=CARTESIAN_POINT('',(-16.577845364917,33.5,-4.4));
#1460=CARTESIAN_POINT('',(-16.577845364917,33.5,0.));
#1461=CARTESIAN_POINT('',(-14.5638867922425,32.4379630823475,-4.4));
#1462=CARTESIAN_POINT('',(-16.577845364917,33.5,-4.4));
#1463=CARTESIAN_POINT('',(-14.5638867922425,32.4379630823475,3.));
#1464=CARTESIAN_POINT('',(-14.5638867922425,32.4379630823475,0.));
#1465=CARTESIAN_POINT('',(-16.577845364917,33.5,3.));
#1466=CARTESIAN_POINT('Origin',(-12.3249059161302,36.6837803931361,0.));
#1467=CARTESIAN_POINT('',(-14.5638867922425,32.4379630823475,-4.4));
#1468=CARTESIAN_POINT('',(-14.5638867922425,32.4379630823475,3.));
#1469=CARTESIAN_POINT('Origin',(-16.577845364917,33.5,0.));
#1470=CARTESIAN_POINT('',(-13.8356876828021,38.7,-4.4));
#1471=CARTESIAN_POINT('',(-13.8356876828021,38.7,3.));
#1472=CARTESIAN_POINT('Origin',(-10.,40.,-4.4));
#1473=CARTESIAN_POINT('',(-6.7,40.,-4.4));
#1474=CARTESIAN_POINT('Origin',(-10.,40.,-4.4));
#1475=CARTESIAN_POINT('Origin',(-10.,53.2764733348878,-3.4));
#1476=CARTESIAN_POINT('',(-12.75,60.9006250976822,-3.4));
#1477=CARTESIAN_POINT('',(-12.75,60.9006250976822,-3.4));
#1478=CARTESIAN_POINT('',(-7.25000000000001,60.9006250976822,-3.4));
#1479=CARTESIAN_POINT('Origin',(-10.,62.9,-3.4));
#1480=CARTESIAN_POINT('',(-7.25000000000001,60.9006250976822,-3.4));
#1481=CARTESIAN_POINT('',(-8.7,62.9,-3.4));
#1482=CARTESIAN_POINT('Origin',(-10.,62.9,-3.4));
#1483=CARTESIAN_POINT('Origin',(-10.,62.9,0.));
#1484=CARTESIAN_POINT('',(-8.7,62.9,0.));
#1485=CARTESIAN_POINT('',(-8.7,62.9,0.));
#1486=CARTESIAN_POINT('Origin',(-10.,62.9,0.));
#1487=CARTESIAN_POINT('Origin',(-12.75,60.9006250976822,0.));
#1488=CARTESIAN_POINT('',(-12.75,60.9006250976822,0.));
#1489=CARTESIAN_POINT('',(-12.75,60.9006250976822,0.));
#1490=CARTESIAN_POINT('',(-12.75,60.9006250976822,0.));
#1491=CARTESIAN_POINT('Origin',(-10.,62.9,0.));
#1492=CARTESIAN_POINT('',(-7.25000000000001,60.9006250976822,0.));
#1493=CARTESIAN_POINT('Origin',(-10.,62.9,0.));
#1494=CARTESIAN_POINT('',(-7.25000000000001,60.9006250976822,0.));
#1495=CARTESIAN_POINT('Origin',(-5.95790673261372,40.2529466697756,0.));
#1496=CARTESIAN_POINT('',(-7.25000000000001,60.9006250976822,0.));
#1497=CARTESIAN_POINT('Origin',(-10.,53.2764733348878,0.));
#1498=CARTESIAN_POINT('Origin',(-10.,40.,0.));
#1499=CARTESIAN_POINT('',(-6.7,40.,3.));
#1500=CARTESIAN_POINT('Origin',(-10.,40.,3.));
#1501=CARTESIAN_POINT('',(-6.7,40.,0.));
#1502=CARTESIAN_POINT('Origin',(-10.,40.,3.));
#1503=UNCERTAINTY_MEASURE_WITH_UNIT(LENGTH_MEASURE(0.01),#1507,
'DISTANCE_ACCURACY_VALUE',
'Maximum model space distance between geometric entities at asserted c
onnectivities');
#1504=UNCERTAINTY_MEASURE_WITH_UNIT(LENGTH_MEASURE(0.01),#1507,
'DISTANCE_ACCURACY_VALUE',
'Maximum model space distance between geometric entities at asserted c
onnectivities');
#1505=(
GEOMETRIC_REPRESENTATION_CONTEXT(3)
GLOBAL_UNCERTAINTY_ASSIGNED_CONTEXT((#1503))
GLOBAL_UNIT_ASSIGNED_CONTEXT((#1507,#1509,#1510))
REPRESENTATION_CONTEXT('','3D')
);
#1506=(
GEOMETRIC_REPRESENTATION_CONTEXT(3)
GLOBAL_UNCERTAINTY_ASSIGNED_CONTEXT((#1504))
GLOBAL_UNIT_ASSIGNED_CONTEXT((#1507,#1509,#1510))
REPRESENTATION_CONTEXT('','3D')
);
#1507=(
LENGTH_UNIT()
NAMED_UNIT(*)
SI_UNIT(.MILLI.,.METRE.)
);
#1508=(
LENGTH_UNIT()
NAMED_UNIT(*)
SI_UNIT($,.METRE.)
);
#1509=(
NAMED_UNIT(*)
PLANE_ANGLE_UNIT()
SI_UNIT($,.RADIAN.)
);
#1510=(
NAMED_UNIT(*)
SI_UNIT($,.STERADIAN.)
SOLID_ANGLE_UNIT()
);
#1511=SHAPE_DEFINITION_REPRESENTATION(#1512,#1513);
#1512=PRODUCT_DEFINITION_SHAPE('',$,#1515);
#1513=SHAPE_REPRESENTATION('',(#914),#1505);
#1514=PRODUCT_DEFINITION_CONTEXT('part definition',#1519,'design');
#1515=PRODUCT_DEFINITION('2026-06-16-08-52-17-938',
'\X2\3010\X0\Dual Wiper Steering Set for D6\X2\3011\X0\ \X2\FF08\X0\2 
\X2\FF09\X0\',#1516,#1514);
#1516=PRODUCT_DEFINITION_FORMATION('',$,#1521);
#1517=PRODUCT_RELATED_PRODUCT_CATEGORY(
'\X2\3010\X0\Dual Wiper Steering Set for D6\X2\3011\X0\ \X2\FF08\X0\2 
\X2\FF09\X0\','\X2\3010\X0\Dual Wiper Steering Set for D6\X2\3011\X0\ 
\X2\FF08\X0\2 \X2\FF09\X0\',(#1521));
#1518=APPLICATION_PROTOCOL_DEFINITION('international standard',
'automotive_design',2009,#1519);
#1519=APPLICATION_CONTEXT(
'Core Data for Automotive Mechanical Design Process');
#1520=PRODUCT_CONTEXT('part definition',#1519,'mechanical');
#1521=PRODUCT('2026-06-16-08-52-17-938',
'\X2\3010\X0\Dual Wiper Steering Set for D6\X2\3011\X0\ \X2\FF08\X0\2 
\X2\FF09\X0\',$,(#1520));
#1522=PRESENTATION_STYLE_ASSIGNMENT((#1523));
#1523=SURFACE_STYLE_USAGE(.BOTH.,#1524);
#1524=SURFACE_SIDE_STYLE('',(#1525));
#1525=SURFACE_STYLE_FILL_AREA(#1526);
#1526=FILL_AREA_STYLE('\X2\94A2\X0\ - \X2\7F0E5149\X0\',(#1527));
#1527=FILL_AREA_STYLE_COLOUR('\X2\94A2\X0\ - \X2\7F0E5149\X0\',#1528);
#1528=COLOUR_RGB('\X2\94A2\X0\ - \X2\7F0E5149\X0\',0.627450980392157,0.627450980392157,
0.627450980392157);
ENDSEC;
END-ISO-10303-21;
