ISO-10303-21;
HEADER;
/* Generated by software containing ST-Developer
 * from STEP Tools, Inc. (www.steptools.com) 
 */

FILE_DESCRIPTION(
/* description */ (''),
/* implementation_level */ '2;1');

FILE_NAME(
/* name */ '',
/* time_stamp */ '2026-08-11T12:40:58+09:00',
/* author */ (''),
/* organization */ (''),
/* preprocessor_version */ 'ST-DEVELOPER v20.1',
/* originating_system */ 'Autodesk Translation Framework v15.8.0.0',
/* authorisation */ '');

FILE_SCHEMA (('AUTOMOTIVE_DESIGN { 1 0 10303 214 3 1 1 }'));
ENDSEC;

DATA;
#10=MECHANICAL_DESIGN_GEOMETRIC_PRESENTATION_REPRESENTATION('',(#13),#811);
#11=SHAPE_REPRESENTATION_RELATIONSHIP('SRR','None',#818,#12);
#12=ADVANCED_BREP_SHAPE_REPRESENTATION('',(#14),#810);
#13=STYLED_ITEM('',(#827),#14);
#14=MANIFOLD_SOLID_BREP('\X2\5B9E4F53\X0\1',#455);
#15=CYLINDRICAL_SURFACE('',#485,3.);
#16=CYLINDRICAL_SURFACE('',#489,3.);
#17=CYLINDRICAL_SURFACE('',#511,1.35);
#18=CYLINDRICAL_SURFACE('',#512,1.6);
#19=CYLINDRICAL_SURFACE('',#513,1.35);
#20=CYLINDRICAL_SURFACE('',#515,1.6);
#21=CYLINDRICAL_SURFACE('',#517,5.);
#22=CYLINDRICAL_SURFACE('',#519,57.8735014548569);
#23=CYLINDRICAL_SURFACE('',#520,5.);
#24=CYLINDRICAL_SURFACE('',#522,3.35);
#25=CYLINDRICAL_SURFACE('',#524,124.773501454852);
#26=CYLINDRICAL_SURFACE('',#526,3.35);
#27=LINE('',#695,#55);
#28=LINE('',#699,#56);
#29=LINE('',#705,#57);
#30=LINE('',#712,#58);
#31=LINE('',#719,#59);
#32=LINE('',#726,#60);
#33=LINE('',#758,#61);
#34=LINE('',#763,#62);
#35=LINE('',#767,#63);
#36=LINE('',#769,#64);
#37=LINE('',#773,#65);
#38=LINE('',#775,#66);
#39=LINE('',#778,#67);
#40=LINE('',#780,#68);
#41=LINE('',#781,#69);
#42=LINE('',#783,#70);
#43=LINE('',#784,#71);
#44=LINE('',#787,#72);
#45=LINE('',#789,#73);
#46=LINE('',#790,#74);
#47=LINE('',#792,#75);
#48=LINE('',#794,#76);
#49=LINE('',#795,#77);
#50=LINE('',#797,#78);
#51=LINE('',#799,#79);
#52=LINE('',#802,#80);
#53=LINE('',#803,#81);
#54=LINE('',#806,#82);
#55=VECTOR('',#547,10.);
#56=VECTOR('',#550,10.);
#57=VECTOR('',#555,10.);
#58=VECTOR('',#562,10.);
#59=VECTOR('',#569,3.);
#60=VECTOR('',#578,3.);
#61=VECTOR('',#615,10.);
#62=VECTOR('',#620,10.);
#63=VECTOR('',#625,1.35);
#64=VECTOR('',#628,1.6);
#65=VECTOR('',#633,1.35);
#66=VECTOR('',#636,1.6);
#67=VECTOR('',#639,10.);
#68=VECTOR('',#640,10.);
#69=VECTOR('',#641,10.);
#70=VECTOR('',#644,5.);
#71=VECTOR('',#645,10.);
#72=VECTOR('',#650,10.);
#73=VECTOR('',#653,5.);
#74=VECTOR('',#654,10.);
#75=VECTOR('',#657,10.);
#76=VECTOR('',#660,3.35);
#77=VECTOR('',#661,10.);
#78=VECTOR('',#664,10.);
#79=VECTOR('',#667,10.);
#80=VECTOR('',#670,10.);
#81=VECTOR('',#671,10.);
#82=VECTOR('',#676,3.35);
#83=FACE_BOUND('',#120,.T.);
#84=FACE_BOUND('',#122,.T.);
#85=FACE_BOUND('',#124,.T.);
#86=FACE_BOUND('',#125,.T.);
#87=FACE_BOUND('',#128,.T.);
#88=FACE_BOUND('',#131,.T.);
#89=FACE_BOUND('',#133,.T.);
#90=FACE_BOUND('',#136,.T.);
#91=FACE_BOUND('',#138,.T.);
#92=FACE_BOUND('',#154,.T.);
#93=FACE_OUTER_BOUND('',#119,.T.);
#94=FACE_OUTER_BOUND('',#121,.T.);
#95=FACE_OUTER_BOUND('',#123,.T.);
#96=FACE_OUTER_BOUND('',#126,.T.);
#97=FACE_OUTER_BOUND('',#127,.T.);
#98=FACE_OUTER_BOUND('',#129,.T.);
#99=FACE_OUTER_BOUND('',#130,.T.);
#100=FACE_OUTER_BOUND('',#132,.T.);
#101=FACE_OUTER_BOUND('',#134,.T.);
#102=FACE_OUTER_BOUND('',#135,.T.);
#103=FACE_OUTER_BOUND('',#137,.T.);
#104=FACE_OUTER_BOUND('',#139,.T.);
#105=FACE_OUTER_BOUND('',#140,.T.);
#106=FACE_OUTER_BOUND('',#141,.T.);
#107=FACE_OUTER_BOUND('',#142,.T.);
#108=FACE_OUTER_BOUND('',#143,.T.);
#109=FACE_OUTER_BOUND('',#144,.T.);
#110=FACE_OUTER_BOUND('',#145,.T.);
#111=FACE_OUTER_BOUND('',#146,.T.);
#112=FACE_OUTER_BOUND('',#147,.T.);
#113=FACE_OUTER_BOUND('',#148,.T.);
#114=FACE_OUTER_BOUND('',#149,.T.);
#115=FACE_OUTER_BOUND('',#150,.T.);
#116=FACE_OUTER_BOUND('',#151,.T.);
#117=FACE_OUTER_BOUND('',#152,.T.);
#118=FACE_OUTER_BOUND('',#153,.T.);
#119=EDGE_LOOP('',(#291));
#120=EDGE_LOOP('',(#292));
#121=EDGE_LOOP('',(#293));
#122=EDGE_LOOP('',(#294));
#123=EDGE_LOOP('',(#295,#296,#297,#298,#299,#300,#301,#302,#303,#304,#305));
#124=EDGE_LOOP('',(#306));
#125=EDGE_LOOP('',(#307));
#126=EDGE_LOOP('',(#308,#309,#310,#311));
#127=EDGE_LOOP('',(#312));
#128=EDGE_LOOP('',(#313));
#129=EDGE_LOOP('',(#314,#315,#316,#317));
#130=EDGE_LOOP('',(#318));
#131=EDGE_LOOP('',(#319));
#132=EDGE_LOOP('',(#320));
#133=EDGE_LOOP('',(#321));
#134=EDGE_LOOP('',(#322,#323,#324,#325,#326));
#135=EDGE_LOOP('',(#327));
#136=EDGE_LOOP('',(#328));
#137=EDGE_LOOP('',(#329,#330,#331,#332,#333,#334));
#138=EDGE_LOOP('',(#335));
#139=EDGE_LOOP('',(#336,#337,#338,#339));
#140=EDGE_LOOP('',(#340,#341,#342,#343));
#141=EDGE_LOOP('',(#344,#345,#346,#347));
#142=EDGE_LOOP('',(#348,#349,#350,#351));
#143=EDGE_LOOP('',(#352,#353,#354,#355));
#144=EDGE_LOOP('',(#356,#357,#358,#359,#360,#361,#362,#363,#364));
#145=EDGE_LOOP('',(#365,#366,#367,#368));
#146=EDGE_LOOP('',(#369,#370,#371,#372,#373,#374,#375,#376,#377));
#147=EDGE_LOOP('',(#378,#379,#380,#381));
#148=EDGE_LOOP('',(#382,#383,#384,#385,#386,#387,#388,#389));
#149=EDGE_LOOP('',(#390,#391,#392,#393));
#150=EDGE_LOOP('',(#394,#395,#396,#397));
#151=EDGE_LOOP('',(#398,#399,#400,#401));
#152=EDGE_LOOP('',(#402,#403,#404,#405,#406,#407,#408,#409));
#153=EDGE_LOOP('',(#410,#411,#412,#413));
#154=EDGE_LOOP('',(#414));
#155=CIRCLE('',#470,3.35);
#156=CIRCLE('',#471,1.35);
#157=CIRCLE('',#473,3.35);
#158=CIRCLE('',#474,1.35);
#159=CIRCLE('',#476,3.35);
#160=CIRCLE('',#477,124.773501454852);
#161=CIRCLE('',#478,3.35);
#162=CIRCLE('',#479,3.35);
#163=CIRCLE('',#480,5.);
#164=CIRCLE('',#481,57.8735014548569);
#165=CIRCLE('',#482,5.);
#166=CIRCLE('',#483,3.);
#167=CIRCLE('',#484,3.);
#168=CIRCLE('',#486,3.);
#169=CIRCLE('',#488,1.6);
#170=CIRCLE('',#490,3.);
#171=CIRCLE('',#492,1.6);
#172=CIRCLE('',#494,5.);
#173=CIRCLE('',#495,1.6);
#174=CIRCLE('',#497,5.);
#175=CIRCLE('',#498,5.);
#176=CIRCLE('',#499,124.773501454852);
#177=CIRCLE('',#500,5.);
#178=CIRCLE('',#501,57.8735014548569);
#179=CIRCLE('',#503,5.);
#180=CIRCLE('',#504,1.6);
#181=CIRCLE('',#506,5.);
#182=CIRCLE('',#507,5.);
#183=CIRCLE('',#508,3.35);
#184=CIRCLE('',#509,3.35);
#185=CIRCLE('',#510,1.35);
#186=CIRCLE('',#514,1.35);
#187=CIRCLE('',#518,5.);
#188=CIRCLE('',#527,3.35);
#189=VERTEX_POINT('',#681);
#190=VERTEX_POINT('',#683);
#191=VERTEX_POINT('',#686);
#192=VERTEX_POINT('',#688);
#193=VERTEX_POINT('',#691);
#194=VERTEX_POINT('',#692);
#195=VERTEX_POINT('',#694);
#196=VERTEX_POINT('',#696);
#197=VERTEX_POINT('',#698);
#198=VERTEX_POINT('',#700);
#199=VERTEX_POINT('',#702);
#200=VERTEX_POINT('',#704);
#201=VERTEX_POINT('',#706);
#202=VERTEX_POINT('',#708);
#203=VERTEX_POINT('',#710);
#204=VERTEX_POINT('',#713);
#205=VERTEX_POINT('',#715);
#206=VERTEX_POINT('',#718);
#207=VERTEX_POINT('',#722);
#208=VERTEX_POINT('',#725);
#209=VERTEX_POINT('',#729);
#210=VERTEX_POINT('',#732);
#211=VERTEX_POINT('',#734);
#212=VERTEX_POINT('',#737);
#213=VERTEX_POINT('',#738);
#214=VERTEX_POINT('',#740);
#215=VERTEX_POINT('',#742);
#216=VERTEX_POINT('',#744);
#217=VERTEX_POINT('',#748);
#218=VERTEX_POINT('',#750);
#219=VERTEX_POINT('',#753);
#220=VERTEX_POINT('',#754);
#221=VERTEX_POINT('',#757);
#222=VERTEX_POINT('',#759);
#223=VERTEX_POINT('',#761);
#224=VERTEX_POINT('',#764);
#225=VERTEX_POINT('',#771);
#226=VERTEX_POINT('',#777);
#227=VERTEX_POINT('',#779);
#228=VERTEX_POINT('',#801);
#229=EDGE_CURVE('',#189,#189,#155,.T.);
#230=EDGE_CURVE('',#190,#190,#156,.T.);
#231=EDGE_CURVE('',#191,#191,#157,.T.);
#232=EDGE_CURVE('',#192,#192,#158,.T.);
#233=EDGE_CURVE('',#193,#194,#159,.T.);
#234=EDGE_CURVE('',#194,#195,#27,.T.);
#235=EDGE_CURVE('',#196,#195,#160,.T.);
#236=EDGE_CURVE('',#197,#196,#28,.T.);
#237=EDGE_CURVE('',#197,#198,#161,.T.);
#238=EDGE_CURVE('',#198,#199,#162,.T.);
#239=EDGE_CURVE('',#199,#200,#29,.T.);
#240=EDGE_CURVE('',#201,#200,#163,.T.);
#241=EDGE_CURVE('',#201,#202,#164,.T.);
#242=EDGE_CURVE('',#203,#202,#165,.T.);
#243=EDGE_CURVE('',#193,#203,#30,.T.);
#244=EDGE_CURVE('',#204,#204,#166,.T.);
#245=EDGE_CURVE('',#205,#205,#167,.T.);
#246=EDGE_CURVE('',#205,#206,#31,.T.);
#247=EDGE_CURVE('',#206,#206,#168,.T.);
#248=EDGE_CURVE('',#207,#207,#169,.T.);
#249=EDGE_CURVE('',#204,#208,#32,.T.);
#250=EDGE_CURVE('',#208,#208,#170,.T.);
#251=EDGE_CURVE('',#209,#209,#171,.T.);
#252=EDGE_CURVE('',#210,#210,#172,.T.);
#253=EDGE_CURVE('',#211,#211,#173,.T.);
#254=EDGE_CURVE('',#212,#213,#174,.T.);
#255=EDGE_CURVE('',#213,#214,#175,.T.);
#256=EDGE_CURVE('',#214,#215,#176,.T.);
#257=EDGE_CURVE('',#215,#216,#177,.T.);
#258=EDGE_CURVE('',#216,#212,#178,.T.);
#259=EDGE_CURVE('',#217,#217,#179,.T.);
#260=EDGE_CURVE('',#218,#218,#180,.T.);
#261=EDGE_CURVE('',#219,#220,#181,.T.);
#262=EDGE_CURVE('',#220,#215,#182,.T.);
#263=EDGE_CURVE('',#215,#221,#33,.T.);
#264=EDGE_CURVE('',#221,#222,#183,.T.);
#265=EDGE_CURVE('',#222,#223,#184,.T.);
#266=EDGE_CURVE('',#223,#219,#34,.T.);
#267=EDGE_CURVE('',#224,#224,#185,.T.);
#268=EDGE_CURVE('',#224,#190,#35,.T.);
#269=EDGE_CURVE('',#211,#209,#36,.T.);
#270=EDGE_CURVE('',#225,#225,#186,.T.);
#271=EDGE_CURVE('',#225,#192,#37,.T.);
#272=EDGE_CURVE('',#218,#207,#38,.T.);
#273=EDGE_CURVE('',#199,#226,#39,.T.);
#274=EDGE_CURVE('',#227,#226,#40,.T.);
#275=EDGE_CURVE('',#200,#227,#41,.T.);
#276=EDGE_CURVE('',#210,#213,#42,.T.);
#277=EDGE_CURVE('',#201,#212,#43,.T.);
#278=EDGE_CURVE('',#214,#227,#187,.T.);
#279=EDGE_CURVE('',#202,#216,#44,.T.);
#280=EDGE_CURVE('',#217,#220,#45,.T.);
#281=EDGE_CURVE('',#203,#219,#46,.T.);
#282=EDGE_CURVE('',#193,#223,#47,.T.);
#283=EDGE_CURVE('',#222,#189,#48,.T.);
#284=EDGE_CURVE('',#194,#221,#49,.T.);
#285=EDGE_CURVE('',#195,#215,#50,.T.);
#286=EDGE_CURVE('',#196,#214,#51,.T.);
#287=EDGE_CURVE('',#228,#214,#52,.T.);
#288=EDGE_CURVE('',#197,#228,#53,.T.);
#289=EDGE_CURVE('',#226,#228,#188,.T.);
#290=EDGE_CURVE('',#198,#191,#54,.T.);
#291=ORIENTED_EDGE('',*,*,#229,.T.);
#292=ORIENTED_EDGE('',*,*,#230,.T.);
#293=ORIENTED_EDGE('',*,*,#231,.T.);
#294=ORIENTED_EDGE('',*,*,#232,.T.);
#295=ORIENTED_EDGE('',*,*,#233,.T.);
#296=ORIENTED_EDGE('',*,*,#234,.T.);
#297=ORIENTED_EDGE('',*,*,#235,.F.);
#298=ORIENTED_EDGE('',*,*,#236,.F.);
#299=ORIENTED_EDGE('',*,*,#237,.T.);
#300=ORIENTED_EDGE('',*,*,#238,.T.);
#301=ORIENTED_EDGE('',*,*,#239,.T.);
#302=ORIENTED_EDGE('',*,*,#240,.F.);
#303=ORIENTED_EDGE('',*,*,#241,.T.);
#304=ORIENTED_EDGE('',*,*,#242,.F.);
#305=ORIENTED_EDGE('',*,*,#243,.F.);
#306=ORIENTED_EDGE('',*,*,#244,.T.);
#307=ORIENTED_EDGE('',*,*,#245,.T.);
#308=ORIENTED_EDGE('',*,*,#245,.F.);
#309=ORIENTED_EDGE('',*,*,#246,.T.);
#310=ORIENTED_EDGE('',*,*,#247,.T.);
#311=ORIENTED_EDGE('',*,*,#246,.F.);
#312=ORIENTED_EDGE('',*,*,#247,.F.);
#313=ORIENTED_EDGE('',*,*,#248,.F.);
#314=ORIENTED_EDGE('',*,*,#244,.F.);
#315=ORIENTED_EDGE('',*,*,#249,.T.);
#316=ORIENTED_EDGE('',*,*,#250,.T.);
#317=ORIENTED_EDGE('',*,*,#249,.F.);
#318=ORIENTED_EDGE('',*,*,#250,.F.);
#319=ORIENTED_EDGE('',*,*,#251,.F.);
#320=ORIENTED_EDGE('',*,*,#252,.T.);
#321=ORIENTED_EDGE('',*,*,#253,.T.);
#322=ORIENTED_EDGE('',*,*,#254,.T.);
#323=ORIENTED_EDGE('',*,*,#255,.T.);
#324=ORIENTED_EDGE('',*,*,#256,.T.);
#325=ORIENTED_EDGE('',*,*,#257,.T.);
#326=ORIENTED_EDGE('',*,*,#258,.T.);
#327=ORIENTED_EDGE('',*,*,#259,.T.);
#328=ORIENTED_EDGE('',*,*,#260,.T.);
#329=ORIENTED_EDGE('',*,*,#261,.T.);
#330=ORIENTED_EDGE('',*,*,#262,.T.);
#331=ORIENTED_EDGE('',*,*,#263,.T.);
#332=ORIENTED_EDGE('',*,*,#264,.T.);
#333=ORIENTED_EDGE('',*,*,#265,.T.);
#334=ORIENTED_EDGE('',*,*,#266,.T.);
#335=ORIENTED_EDGE('',*,*,#267,.T.);
#336=ORIENTED_EDGE('',*,*,#267,.F.);
#337=ORIENTED_EDGE('',*,*,#268,.T.);
#338=ORIENTED_EDGE('',*,*,#230,.F.);
#339=ORIENTED_EDGE('',*,*,#268,.F.);
#340=ORIENTED_EDGE('',*,*,#253,.F.);
#341=ORIENTED_EDGE('',*,*,#269,.T.);
#342=ORIENTED_EDGE('',*,*,#251,.T.);
#343=ORIENTED_EDGE('',*,*,#269,.F.);
#344=ORIENTED_EDGE('',*,*,#270,.F.);
#345=ORIENTED_EDGE('',*,*,#271,.T.);
#346=ORIENTED_EDGE('',*,*,#232,.F.);
#347=ORIENTED_EDGE('',*,*,#271,.F.);
#348=ORIENTED_EDGE('',*,*,#260,.F.);
#349=ORIENTED_EDGE('',*,*,#272,.T.);
#350=ORIENTED_EDGE('',*,*,#248,.T.);
#351=ORIENTED_EDGE('',*,*,#272,.F.);
#352=ORIENTED_EDGE('',*,*,#239,.F.);
#353=ORIENTED_EDGE('',*,*,#273,.T.);
#354=ORIENTED_EDGE('',*,*,#274,.F.);
#355=ORIENTED_EDGE('',*,*,#275,.F.);
#356=ORIENTED_EDGE('',*,*,#252,.F.);
#357=ORIENTED_EDGE('',*,*,#276,.T.);
#358=ORIENTED_EDGE('',*,*,#254,.F.);
#359=ORIENTED_EDGE('',*,*,#277,.F.);
#360=ORIENTED_EDGE('',*,*,#240,.T.);
#361=ORIENTED_EDGE('',*,*,#275,.T.);
#362=ORIENTED_EDGE('',*,*,#278,.F.);
#363=ORIENTED_EDGE('',*,*,#255,.F.);
#364=ORIENTED_EDGE('',*,*,#276,.F.);
#365=ORIENTED_EDGE('',*,*,#241,.F.);
#366=ORIENTED_EDGE('',*,*,#277,.T.);
#367=ORIENTED_EDGE('',*,*,#258,.F.);
#368=ORIENTED_EDGE('',*,*,#279,.F.);
#369=ORIENTED_EDGE('',*,*,#259,.F.);
#370=ORIENTED_EDGE('',*,*,#280,.T.);
#371=ORIENTED_EDGE('',*,*,#261,.F.);
#372=ORIENTED_EDGE('',*,*,#281,.F.);
#373=ORIENTED_EDGE('',*,*,#242,.T.);
#374=ORIENTED_EDGE('',*,*,#279,.T.);
#375=ORIENTED_EDGE('',*,*,#257,.F.);
#376=ORIENTED_EDGE('',*,*,#262,.F.);
#377=ORIENTED_EDGE('',*,*,#280,.F.);
#378=ORIENTED_EDGE('',*,*,#243,.T.);
#379=ORIENTED_EDGE('',*,*,#281,.T.);
#380=ORIENTED_EDGE('',*,*,#266,.F.);
#381=ORIENTED_EDGE('',*,*,#282,.F.);
#382=ORIENTED_EDGE('',*,*,#233,.F.);
#383=ORIENTED_EDGE('',*,*,#282,.T.);
#384=ORIENTED_EDGE('',*,*,#265,.F.);
#385=ORIENTED_EDGE('',*,*,#283,.T.);
#386=ORIENTED_EDGE('',*,*,#229,.F.);
#387=ORIENTED_EDGE('',*,*,#283,.F.);
#388=ORIENTED_EDGE('',*,*,#264,.F.);
#389=ORIENTED_EDGE('',*,*,#284,.F.);
#390=ORIENTED_EDGE('',*,*,#234,.F.);
#391=ORIENTED_EDGE('',*,*,#284,.T.);
#392=ORIENTED_EDGE('',*,*,#263,.F.);
#393=ORIENTED_EDGE('',*,*,#285,.F.);
#394=ORIENTED_EDGE('',*,*,#235,.T.);
#395=ORIENTED_EDGE('',*,*,#285,.T.);
#396=ORIENTED_EDGE('',*,*,#256,.F.);
#397=ORIENTED_EDGE('',*,*,#286,.F.);
#398=ORIENTED_EDGE('',*,*,#236,.T.);
#399=ORIENTED_EDGE('',*,*,#286,.T.);
#400=ORIENTED_EDGE('',*,*,#287,.F.);
#401=ORIENTED_EDGE('',*,*,#288,.F.);
#402=ORIENTED_EDGE('',*,*,#288,.T.);
#403=ORIENTED_EDGE('',*,*,#289,.F.);
#404=ORIENTED_EDGE('',*,*,#273,.F.);
#405=ORIENTED_EDGE('',*,*,#238,.F.);
#406=ORIENTED_EDGE('',*,*,#290,.T.);
#407=ORIENTED_EDGE('',*,*,#231,.F.);
#408=ORIENTED_EDGE('',*,*,#290,.F.);
#409=ORIENTED_EDGE('',*,*,#237,.F.);
#410=ORIENTED_EDGE('',*,*,#278,.T.);
#411=ORIENTED_EDGE('',*,*,#274,.T.);
#412=ORIENTED_EDGE('',*,*,#289,.T.);
#413=ORIENTED_EDGE('',*,*,#287,.T.);
#414=ORIENTED_EDGE('',*,*,#270,.T.);
#415=PLANE('',#469);
#416=PLANE('',#472);
#417=PLANE('',#475);
#418=PLANE('',#487);
#419=PLANE('',#491);
#420=PLANE('',#493);
#421=PLANE('',#496);
#422=PLANE('',#502);
#423=PLANE('',#505);
#424=PLANE('',#516);
#425=PLANE('',#521);
#426=PLANE('',#523);
#427=PLANE('',#525);
#428=PLANE('',#528);
#429=ADVANCED_FACE('',(#93,#83),#415,.F.);
#430=ADVANCED_FACE('',(#94,#84),#416,.F.);
#431=ADVANCED_FACE('',(#95,#85,#86),#417,.F.);
#432=ADVANCED_FACE('',(#96),#15,.F.);
#433=ADVANCED_FACE('',(#97,#87),#418,.F.);
#434=ADVANCED_FACE('',(#98),#16,.F.);
#435=ADVANCED_FACE('',(#99,#88),#419,.F.);
#436=ADVANCED_FACE('',(#100,#89),#420,.T.);
#437=ADVANCED_FACE('',(#101),#421,.T.);
#438=ADVANCED_FACE('',(#102,#90),#422,.T.);
#439=ADVANCED_FACE('',(#103,#91),#423,.T.);
#440=ADVANCED_FACE('',(#104),#17,.F.);
#441=ADVANCED_FACE('',(#105),#18,.F.);
#442=ADVANCED_FACE('',(#106),#19,.F.);
#443=ADVANCED_FACE('',(#107),#20,.F.);
#444=ADVANCED_FACE('',(#108),#424,.T.);
#445=ADVANCED_FACE('',(#109),#21,.T.);
#446=ADVANCED_FACE('',(#110),#22,.F.);
#447=ADVANCED_FACE('',(#111),#23,.T.);
#448=ADVANCED_FACE('',(#112),#425,.T.);
#449=ADVANCED_FACE('',(#113),#24,.T.);
#450=ADVANCED_FACE('',(#114),#426,.T.);
#451=ADVANCED_FACE('',(#115),#25,.T.);
#452=ADVANCED_FACE('',(#116),#427,.T.);
#453=ADVANCED_FACE('',(#117),#26,.T.);
#454=ADVANCED_FACE('',(#118,#92),#428,.T.);
#455=CLOSED_SHELL('',(#429,#430,#431,#432,#433,#434,#435,#436,#437,#438,
#439,#440,#441,#442,#443,#444,#445,#446,#447,#448,#449,#450,#451,#452,#453,
#454));
#456=DERIVED_UNIT_ELEMENT(#458,1.);
#457=DERIVED_UNIT_ELEMENT(#813,-3.);
#458=(
MASS_UNIT()
NAMED_UNIT(*)
SI_UNIT(.KILO.,.GRAM.)
);
#459=DERIVED_UNIT((#456,#457));
#460=MEASURE_REPRESENTATION_ITEM('density measure',
POSITIVE_RATIO_MEASURE(7850.),#459);
#461=PROPERTY_DEFINITION_REPRESENTATION(#466,#463);
#462=PROPERTY_DEFINITION_REPRESENTATION(#467,#464);
#463=REPRESENTATION('material name',(#465),#810);
#464=REPRESENTATION('density',(#460),#810);
#465=DESCRIPTIVE_REPRESENTATION_ITEM('\X2\94A2\X0\','\X2\94A2\X0\');
#466=PROPERTY_DEFINITION('material property','material name',#820);
#467=PROPERTY_DEFINITION('material property','density of part',#820);
#468=AXIS2_PLACEMENT_3D('',#679,#529,#530);
#469=AXIS2_PLACEMENT_3D('',#680,#531,#532);
#470=AXIS2_PLACEMENT_3D('',#682,#533,#534);
#471=AXIS2_PLACEMENT_3D('',#684,#535,#536);
#472=AXIS2_PLACEMENT_3D('',#685,#537,#538);
#473=AXIS2_PLACEMENT_3D('',#687,#539,#540);
#474=AXIS2_PLACEMENT_3D('',#689,#541,#542);
#475=AXIS2_PLACEMENT_3D('',#690,#543,#544);
#476=AXIS2_PLACEMENT_3D('',#693,#545,#546);
#477=AXIS2_PLACEMENT_3D('',#697,#548,#549);
#478=AXIS2_PLACEMENT_3D('',#701,#551,#552);
#479=AXIS2_PLACEMENT_3D('',#703,#553,#554);
#480=AXIS2_PLACEMENT_3D('',#707,#556,#557);
#481=AXIS2_PLACEMENT_3D('',#709,#558,#559);
#482=AXIS2_PLACEMENT_3D('',#711,#560,#561);
#483=AXIS2_PLACEMENT_3D('',#714,#563,#564);
#484=AXIS2_PLACEMENT_3D('',#716,#565,#566);
#485=AXIS2_PLACEMENT_3D('',#717,#567,#568);
#486=AXIS2_PLACEMENT_3D('',#720,#570,#571);
#487=AXIS2_PLACEMENT_3D('',#721,#572,#573);
#488=AXIS2_PLACEMENT_3D('',#723,#574,#575);
#489=AXIS2_PLACEMENT_3D('',#724,#576,#577);
#490=AXIS2_PLACEMENT_3D('',#727,#579,#580);
#491=AXIS2_PLACEMENT_3D('',#728,#581,#582);
#492=AXIS2_PLACEMENT_3D('',#730,#583,#584);
#493=AXIS2_PLACEMENT_3D('',#731,#585,#586);
#494=AXIS2_PLACEMENT_3D('',#733,#587,#588);
#495=AXIS2_PLACEMENT_3D('',#735,#589,#590);
#496=AXIS2_PLACEMENT_3D('',#736,#591,#592);
#497=AXIS2_PLACEMENT_3D('',#739,#593,#594);
#498=AXIS2_PLACEMENT_3D('',#741,#595,#596);
#499=AXIS2_PLACEMENT_3D('',#743,#597,#598);
#500=AXIS2_PLACEMENT_3D('',#745,#599,#600);
#501=AXIS2_PLACEMENT_3D('',#746,#601,#602);
#502=AXIS2_PLACEMENT_3D('',#747,#603,#604);
#503=AXIS2_PLACEMENT_3D('',#749,#605,#606);
#504=AXIS2_PLACEMENT_3D('',#751,#607,#608);
#505=AXIS2_PLACEMENT_3D('',#752,#609,#610);
#506=AXIS2_PLACEMENT_3D('',#755,#611,#612);
#507=AXIS2_PLACEMENT_3D('',#756,#613,#614);
#508=AXIS2_PLACEMENT_3D('',#760,#616,#617);
#509=AXIS2_PLACEMENT_3D('',#762,#618,#619);
#510=AXIS2_PLACEMENT_3D('',#765,#621,#622);
#511=AXIS2_PLACEMENT_3D('',#766,#623,#624);
#512=AXIS2_PLACEMENT_3D('',#768,#626,#627);
#513=AXIS2_PLACEMENT_3D('',#770,#629,#630);
#514=AXIS2_PLACEMENT_3D('',#772,#631,#632);
#515=AXIS2_PLACEMENT_3D('',#774,#634,#635);
#516=AXIS2_PLACEMENT_3D('',#776,#637,#638);
#517=AXIS2_PLACEMENT_3D('',#782,#642,#643);
#518=AXIS2_PLACEMENT_3D('',#785,#646,#647);
#519=AXIS2_PLACEMENT_3D('',#786,#648,#649);
#520=AXIS2_PLACEMENT_3D('',#788,#651,#652);
#521=AXIS2_PLACEMENT_3D('',#791,#655,#656);
#522=AXIS2_PLACEMENT_3D('',#793,#658,#659);
#523=AXIS2_PLACEMENT_3D('',#796,#662,#663);
#524=AXIS2_PLACEMENT_3D('',#798,#665,#666);
#525=AXIS2_PLACEMENT_3D('',#800,#668,#669);
#526=AXIS2_PLACEMENT_3D('',#804,#672,#673);
#527=AXIS2_PLACEMENT_3D('',#805,#674,#675);
#528=AXIS2_PLACEMENT_3D('',#807,#677,#678);
#529=DIRECTION('axis',(0.,0.,1.));
#530=DIRECTION('refdir',(1.,0.,0.));
#531=DIRECTION('center_axis',(0.,0.,1.));
#532=DIRECTION('ref_axis',(1.,0.,0.));
#533=DIRECTION('center_axis',(0.,0.,-1.));
#534=DIRECTION('ref_axis',(1.,0.,0.));
#535=DIRECTION('center_axis',(0.,0.,1.));
#536=DIRECTION('ref_axis',(1.,0.,0.));
#537=DIRECTION('center_axis',(0.,0.,1.));
#538=DIRECTION('ref_axis',(1.,0.,0.));
#539=DIRECTION('center_axis',(0.,0.,-1.));
#540=DIRECTION('ref_axis',(1.,0.,0.));
#541=DIRECTION('center_axis',(0.,0.,1.));
#542=DIRECTION('ref_axis',(1.,0.,0.));
#543=DIRECTION('center_axis',(0.,0.,1.));
#544=DIRECTION('ref_axis',(1.,0.,0.));
#545=DIRECTION('center_axis',(0.,0.,1.));
#546=DIRECTION('ref_axis',(1.,0.,0.));
#547=DIRECTION('',(0.995773482609604,-0.0918431888140948,0.));
#548=DIRECTION('center_axis',(0.,0.,1.));
#549=DIRECTION('ref_axis',(0.15340423914332,0.98816351855999,0.));
#550=DIRECTION('',(-0.995773482609604,-0.0918431888140948,0.));
#551=DIRECTION('center_axis',(0.,0.,1.));
#552=DIRECTION('ref_axis',(1.,0.,0.));
#553=DIRECTION('center_axis',(0.,0.,1.));
#554=DIRECTION('ref_axis',(1.,0.,0.));
#555=DIRECTION('',(-0.883552945995897,-0.468331284052189,0.));
#556=DIRECTION('center_axis',(0.,0.,1.));
#557=DIRECTION('ref_axis',(1.,0.,0.));
#558=DIRECTION('center_axis',(0.,0.,1.));
#559=DIRECTION('ref_axis',(0.263790726007206,0.964579935968291,0.));
#560=DIRECTION('center_axis',(0.,0.,1.));
#561=DIRECTION('ref_axis',(1.,0.,0.));
#562=DIRECTION('',(0.883552945995897,-0.468331284052189,0.));
#563=DIRECTION('center_axis',(0.,0.,1.));
#564=DIRECTION('ref_axis',(1.,0.,0.));
#565=DIRECTION('center_axis',(0.,0.,1.));
#566=DIRECTION('ref_axis',(1.,0.,0.));
#567=DIRECTION('center_axis',(0.,0.,1.));
#568=DIRECTION('ref_axis',(1.,0.,0.));
#569=DIRECTION('',(0.,0.,1.));
#570=DIRECTION('center_axis',(0.,0.,1.));
#571=DIRECTION('ref_axis',(1.,0.,0.));
#572=DIRECTION('center_axis',(0.,0.,1.));
#573=DIRECTION('ref_axis',(1.,0.,0.));
#574=DIRECTION('center_axis',(0.,0.,-1.));
#575=DIRECTION('ref_axis',(1.,0.,0.));
#576=DIRECTION('center_axis',(0.,0.,1.));
#577=DIRECTION('ref_axis',(1.,0.,0.));
#578=DIRECTION('',(0.,0.,1.));
#579=DIRECTION('center_axis',(0.,0.,1.));
#580=DIRECTION('ref_axis',(1.,0.,0.));
#581=DIRECTION('center_axis',(0.,0.,1.));
#582=DIRECTION('ref_axis',(1.,0.,0.));
#583=DIRECTION('center_axis',(0.,0.,-1.));
#584=DIRECTION('ref_axis',(1.,0.,0.));
#585=DIRECTION('center_axis',(0.,0.,1.));
#586=DIRECTION('ref_axis',(1.,0.,0.));
#587=DIRECTION('center_axis',(0.,0.,1.));
#588=DIRECTION('ref_axis',(1.,0.,0.));
#589=DIRECTION('center_axis',(0.,0.,-1.));
#590=DIRECTION('ref_axis',(1.,0.,0.));
#591=DIRECTION('center_axis',(0.,0.,1.));
#592=DIRECTION('ref_axis',(1.,0.,0.));
#593=DIRECTION('center_axis',(0.,0.,-1.));
#594=DIRECTION('ref_axis',(1.,0.,0.));
#595=DIRECTION('center_axis',(0.,0.,-1.));
#596=DIRECTION('ref_axis',(1.,0.,0.));
#597=DIRECTION('center_axis',(0.,0.,1.));
#598=DIRECTION('ref_axis',(0.15340423914332,0.98816351855999,0.));
#599=DIRECTION('center_axis',(0.,0.,-1.));
#600=DIRECTION('ref_axis',(1.,0.,0.));
#601=DIRECTION('center_axis',(0.,0.,-1.));
#602=DIRECTION('ref_axis',(0.263790726007206,0.964579935968291,0.));
#603=DIRECTION('center_axis',(0.,0.,1.));
#604=DIRECTION('ref_axis',(1.,0.,0.));
#605=DIRECTION('center_axis',(0.,0.,1.));
#606=DIRECTION('ref_axis',(1.,0.,0.));
#607=DIRECTION('center_axis',(0.,0.,-1.));
#608=DIRECTION('ref_axis',(1.,0.,0.));
#609=DIRECTION('center_axis',(0.,0.,1.));
#610=DIRECTION('ref_axis',(1.,0.,0.));
#611=DIRECTION('center_axis',(0.,0.,-1.));
#612=DIRECTION('ref_axis',(1.,0.,0.));
#613=DIRECTION('center_axis',(0.,0.,-1.));
#614=DIRECTION('ref_axis',(1.,0.,0.));
#615=DIRECTION('',(-0.995773482609604,0.0918431888140948,0.));
#616=DIRECTION('center_axis',(0.,0.,1.));
#617=DIRECTION('ref_axis',(1.,0.,0.));
#618=DIRECTION('center_axis',(0.,0.,1.));
#619=DIRECTION('ref_axis',(1.,0.,0.));
#620=DIRECTION('',(0.883552945995897,-0.468331284052189,0.));
#621=DIRECTION('center_axis',(0.,0.,-1.));
#622=DIRECTION('ref_axis',(1.,0.,0.));
#623=DIRECTION('center_axis',(0.,0.,1.));
#624=DIRECTION('ref_axis',(1.,0.,0.));
#625=DIRECTION('',(0.,0.,-1.));
#626=DIRECTION('center_axis',(0.,0.,1.));
#627=DIRECTION('ref_axis',(1.,0.,0.));
#628=DIRECTION('',(0.,0.,-1.));
#629=DIRECTION('center_axis',(0.,0.,1.));
#630=DIRECTION('ref_axis',(1.,0.,0.));
#631=DIRECTION('center_axis',(0.,0.,-1.));
#632=DIRECTION('ref_axis',(1.,0.,0.));
#633=DIRECTION('',(0.,0.,-1.));
#634=DIRECTION('center_axis',(0.,0.,1.));
#635=DIRECTION('ref_axis',(1.,0.,0.));
#636=DIRECTION('',(0.,0.,-1.));
#637=DIRECTION('center_axis',(0.468331284052189,-0.883552945995897,0.));
#638=DIRECTION('ref_axis',(0.883552945995897,0.468331284052189,0.));
#639=DIRECTION('',(0.,0.,1.));
#640=DIRECTION('',(0.883552945995897,0.468331284052189,0.));
#641=DIRECTION('',(0.,0.,1.));
#642=DIRECTION('center_axis',(0.,0.,1.));
#643=DIRECTION('ref_axis',(1.,0.,0.));
#644=DIRECTION('',(0.,0.,-1.));
#645=DIRECTION('',(0.,0.,1.));
#646=DIRECTION('center_axis',(0.,0.,-1.));
#647=DIRECTION('ref_axis',(1.,0.,0.));
#648=DIRECTION('center_axis',(0.,0.,1.));
#649=DIRECTION('ref_axis',(0.263790726007206,0.964579935968291,0.));
#650=DIRECTION('',(0.,0.,1.));
#651=DIRECTION('center_axis',(0.,0.,1.));
#652=DIRECTION('ref_axis',(1.,0.,0.));
#653=DIRECTION('',(0.,0.,-1.));
#654=DIRECTION('',(0.,0.,1.));
#655=DIRECTION('center_axis',(-0.468331284052189,-0.883552945995897,0.));
#656=DIRECTION('ref_axis',(0.883552945995897,-0.468331284052189,0.));
#657=DIRECTION('',(0.,0.,1.));
#658=DIRECTION('center_axis',(0.,0.,1.));
#659=DIRECTION('ref_axis',(1.,0.,0.));
#660=DIRECTION('',(0.,0.,-1.));
#661=DIRECTION('',(0.,0.,1.));
#662=DIRECTION('center_axis',(0.0918431888140948,0.995773482609604,0.));
#663=DIRECTION('ref_axis',(-0.995773482609604,0.0918431888140948,0.));
#664=DIRECTION('',(0.,0.,1.));
#665=DIRECTION('center_axis',(0.,0.,1.));
#666=DIRECTION('ref_axis',(0.15340423914332,0.98816351855999,0.));
#667=DIRECTION('',(0.,0.,1.));
#668=DIRECTION('center_axis',(-0.0918431888140948,0.995773482609604,0.));
#669=DIRECTION('ref_axis',(-0.995773482609604,-0.0918431888140948,0.));
#670=DIRECTION('',(-0.995773482609604,-0.0918431888140948,0.));
#671=DIRECTION('',(0.,0.,1.));
#672=DIRECTION('center_axis',(0.,0.,1.));
#673=DIRECTION('ref_axis',(1.,0.,0.));
#674=DIRECTION('center_axis',(0.,0.,1.));
#675=DIRECTION('ref_axis',(1.,0.,0.));
#676=DIRECTION('',(0.,0.,-1.));
#677=DIRECTION('center_axis',(0.,0.,1.));
#678=DIRECTION('ref_axis',(1.,0.,0.));
#679=CARTESIAN_POINT('',(0.,0.,0.));
#680=CARTESIAN_POINT('Origin',(-27.65,2.39947911014036,-1.1));
#681=CARTESIAN_POINT('',(-31.,2.39947911014036,-1.1));
#682=CARTESIAN_POINT('Origin',(-27.65,2.39947911014036,-1.1));
#683=CARTESIAN_POINT('',(-29.,2.39947911014036,-1.1));
#684=CARTESIAN_POINT('Origin',(-27.65,2.39947911014036,-1.1));
#685=CARTESIAN_POINT('Origin',(27.65,2.39947911014036,-1.1));
#686=CARTESIAN_POINT('',(24.3,2.39947911014036,-1.1));
#687=CARTESIAN_POINT('Origin',(27.65,2.39947911014036,-1.1));
#688=CARTESIAN_POINT('',(26.3,2.39947911014036,-1.1));
#689=CARTESIAN_POINT('Origin',(27.65,2.39947911014036,-1.1));
#690=CARTESIAN_POINT('Origin',(0.,0.727873323611736,0.));
#691=CARTESIAN_POINT('',(-29.2189098015748,-0.560423258945892,0.));
#692=CARTESIAN_POINT('',(-27.3423253174728,5.73532027688253,0.));
#693=CARTESIAN_POINT('Origin',(-27.65,2.39947911014036,0.));
#694=CARTESIAN_POINT('',(-19.1407840559295,4.97886741304803,0.));
#695=CARTESIAN_POINT('',(-27.3423253174728,5.73532027688253,0.));
#696=CARTESIAN_POINT('',(19.1407840559295,4.97886741304802,0.));
#697=CARTESIAN_POINT('Origin',(6.38162200974072E-18,-118.317754807628,0.));
#698=CARTESIAN_POINT('',(27.3423253174728,5.73532027688253,0.));
#699=CARTESIAN_POINT('',(27.3423253174728,5.73532027688253,0.));
#700=CARTESIAN_POINT('',(24.3,2.39947911014036,0.));
#701=CARTESIAN_POINT('Origin',(27.65,2.39947911014036,0.));
#702=CARTESIAN_POINT('',(29.2189098015748,-0.560423258945892,0.));
#703=CARTESIAN_POINT('Origin',(27.65,2.39947911014036,0.));
#704=CARTESIAN_POINT('',(21.9416564202609,-4.41776472997947,0.));
#705=CARTESIAN_POINT('',(29.2189098015748,-0.560423258945892,0.));
#706=CARTESIAN_POINT('',(15.2664929653593,-2.4941364800416,0.));
#707=CARTESIAN_POINT('Origin',(19.6,0.,0.));
#708=CARTESIAN_POINT('',(-15.2664929653588,-2.49413648004337,0.));
#709=CARTESIAN_POINT('Origin',(3.49448364534847E-12,-58.3177548076283,0.));
#710=CARTESIAN_POINT('',(-21.9416564202609,-4.41776472997948,0.));
#711=CARTESIAN_POINT('Origin',(-19.6,0.,0.));
#712=CARTESIAN_POINT('',(-29.2189098015748,-0.560423258945892,0.));
#713=CARTESIAN_POINT('',(16.6,-3.67394039744206E-16,0.));
#714=CARTESIAN_POINT('Origin',(19.6,0.,0.));
#715=CARTESIAN_POINT('',(-22.6,-3.67394039744206E-16,0.));
#716=CARTESIAN_POINT('Origin',(-19.6,0.,0.));
#717=CARTESIAN_POINT('Origin',(-19.6,0.,0.));
#718=CARTESIAN_POINT('',(-22.6,-3.67394039744206E-16,2.6));
#719=CARTESIAN_POINT('',(-22.6,-3.67394039744206E-16,0.));
#720=CARTESIAN_POINT('Origin',(-19.6,0.,2.6));
#721=CARTESIAN_POINT('Origin',(-19.6,0.,2.6));
#722=CARTESIAN_POINT('',(-21.2,-1.95943487863576E-16,2.6));
#723=CARTESIAN_POINT('Origin',(-19.6,0.,2.6));
#724=CARTESIAN_POINT('Origin',(19.6,0.,0.));
#725=CARTESIAN_POINT('',(16.6,-3.67394039744206E-16,2.6));
#726=CARTESIAN_POINT('',(16.6,-3.67394039744206E-16,0.));
#727=CARTESIAN_POINT('Origin',(19.6,0.,2.6));
#728=CARTESIAN_POINT('Origin',(19.6,0.,2.6));
#729=CARTESIAN_POINT('',(18.,-1.95943487863576E-16,2.6));
#730=CARTESIAN_POINT('Origin',(19.6,0.,2.6));
#731=CARTESIAN_POINT('Origin',(19.6,0.,3.4));
#732=CARTESIAN_POINT('',(14.6,-6.12323399573677E-16,3.4));
#733=CARTESIAN_POINT('Origin',(19.6,0.,3.4));
#734=CARTESIAN_POINT('',(18.,-1.95943487863576E-16,3.4));
#735=CARTESIAN_POINT('Origin',(19.6,0.,3.4));
#736=CARTESIAN_POINT('Origin',(0.,0.727873323611736,2.8));
#737=CARTESIAN_POINT('',(15.2664929653593,-2.4941364800416,2.8));
#738=CARTESIAN_POINT('',(14.6,-6.12323399573677E-16,2.8));
#739=CARTESIAN_POINT('Origin',(19.6,0.,2.8));
#740=CARTESIAN_POINT('',(19.1407840559295,4.97886741304802,2.8));
#741=CARTESIAN_POINT('Origin',(19.6,0.,2.8));
#742=CARTESIAN_POINT('',(-19.1407840559295,4.97886741304803,2.8));
#743=CARTESIAN_POINT('Origin',(6.38162200974072E-18,-118.317754807628,2.8));
#744=CARTESIAN_POINT('',(-15.2664929653588,-2.49413648004337,2.8));
#745=CARTESIAN_POINT('Origin',(-19.6,0.,2.8));
#746=CARTESIAN_POINT('Origin',(3.49448364534847E-12,-58.3177548076283,2.8));
#747=CARTESIAN_POINT('Origin',(-19.6,0.,3.4));
#748=CARTESIAN_POINT('',(-24.6,-6.12323399573677E-16,3.4));
#749=CARTESIAN_POINT('Origin',(-19.6,0.,3.4));
#750=CARTESIAN_POINT('',(-21.2,-1.95943487863576E-16,3.4));
#751=CARTESIAN_POINT('Origin',(-19.6,0.,3.4));
#752=CARTESIAN_POINT('Origin',(0.,0.727873323611736,2.8));
#753=CARTESIAN_POINT('',(-21.9416564202609,-4.41776472997948,2.8));
#754=CARTESIAN_POINT('',(-24.6,-6.12323399573677E-16,2.8));
#755=CARTESIAN_POINT('Origin',(-19.6,0.,2.8));
#756=CARTESIAN_POINT('Origin',(-19.6,0.,2.8));
#757=CARTESIAN_POINT('',(-27.3423253174728,5.73532027688253,2.8));
#758=CARTESIAN_POINT('',(-27.3423253174728,5.73532027688253,2.8));
#759=CARTESIAN_POINT('',(-31.,2.39947911014036,2.8));
#760=CARTESIAN_POINT('Origin',(-27.65,2.39947911014036,2.8));
#761=CARTESIAN_POINT('',(-29.2189098015748,-0.560423258945892,2.8));
#762=CARTESIAN_POINT('Origin',(-27.65,2.39947911014036,2.8));
#763=CARTESIAN_POINT('',(-29.2189098015748,-0.560423258945892,2.8));
#764=CARTESIAN_POINT('',(-29.,2.39947911014036,2.8));
#765=CARTESIAN_POINT('Origin',(-27.65,2.39947911014036,2.8));
#766=CARTESIAN_POINT('Origin',(-27.65,2.39947911014036,0.));
#767=CARTESIAN_POINT('',(-29.,2.39947911014036,0.));
#768=CARTESIAN_POINT('Origin',(19.6,0.,0.));
#769=CARTESIAN_POINT('',(18.,-1.95943487863576E-16,0.));
#770=CARTESIAN_POINT('Origin',(27.65,2.39947911014036,0.));
#771=CARTESIAN_POINT('',(26.3,2.39947911014036,2.8));
#772=CARTESIAN_POINT('Origin',(27.65,2.39947911014036,2.8));
#773=CARTESIAN_POINT('',(26.3,2.39947911014036,0.));
#774=CARTESIAN_POINT('Origin',(-19.6,0.,0.));
#775=CARTESIAN_POINT('',(-21.2,-1.95943487863576E-16,0.));
#776=CARTESIAN_POINT('Origin',(21.9416564202609,-4.41776472997947,0.));
#777=CARTESIAN_POINT('',(29.2189098015748,-0.560423258945892,2.8));
#778=CARTESIAN_POINT('',(29.2189098015748,-0.560423258945892,0.));
#779=CARTESIAN_POINT('',(21.9416564202609,-4.41776472997947,2.8));
#780=CARTESIAN_POINT('',(29.2189098015748,-0.560423258945892,2.8));
#781=CARTESIAN_POINT('',(21.9416564202609,-4.41776472997947,0.));
#782=CARTESIAN_POINT('Origin',(19.6,0.,0.));
#783=CARTESIAN_POINT('',(14.6,-6.12323399573677E-16,0.));
#784=CARTESIAN_POINT('',(15.2664929653593,-2.4941364800416,0.));
#785=CARTESIAN_POINT('Origin',(19.6,0.,2.8));
#786=CARTESIAN_POINT('Origin',(3.49448364534847E-12,-58.3177548076283,0.));
#787=CARTESIAN_POINT('',(-15.2664929653588,-2.49413648004337,0.));
#788=CARTESIAN_POINT('Origin',(-19.6,0.,0.));
#789=CARTESIAN_POINT('',(-24.6,-6.12323399573677E-16,0.));
#790=CARTESIAN_POINT('',(-21.9416564202609,-4.41776472997948,0.));
#791=CARTESIAN_POINT('Origin',(-29.2189098015748,-0.560423258945892,0.));
#792=CARTESIAN_POINT('',(-29.2189098015748,-0.560423258945892,0.));
#793=CARTESIAN_POINT('Origin',(-27.65,2.39947911014036,0.));
#794=CARTESIAN_POINT('',(-31.,2.39947911014036,0.));
#795=CARTESIAN_POINT('',(-27.3423253174728,5.73532027688253,0.));
#796=CARTESIAN_POINT('Origin',(-19.1407840559295,4.97886741304801,0.));
#797=CARTESIAN_POINT('',(-19.1407840559295,4.97886741304803,0.));
#798=CARTESIAN_POINT('Origin',(6.38162200974072E-18,-118.317754807628,0.));
#799=CARTESIAN_POINT('',(19.1407840559295,4.97886741304802,0.));
#800=CARTESIAN_POINT('Origin',(27.3423253174728,5.73532027688253,0.));
#801=CARTESIAN_POINT('',(27.3423253174728,5.73532027688253,2.8));
#802=CARTESIAN_POINT('',(27.3423253174728,5.73532027688253,2.8));
#803=CARTESIAN_POINT('',(27.3423253174728,5.73532027688253,0.));
#804=CARTESIAN_POINT('Origin',(27.65,2.39947911014036,0.));
#805=CARTESIAN_POINT('Origin',(27.65,2.39947911014036,2.8));
#806=CARTESIAN_POINT('',(24.3,2.39947911014036,0.));
#807=CARTESIAN_POINT('Origin',(0.,0.727873323611736,2.8));
#808=UNCERTAINTY_MEASURE_WITH_UNIT(LENGTH_MEASURE(0.01),#812,
'DISTANCE_ACCURACY_VALUE',
'Maximum model space distance between geometric entities at asserted c
onnectivities');
#809=UNCERTAINTY_MEASURE_WITH_UNIT(LENGTH_MEASURE(0.01),#812,
'DISTANCE_ACCURACY_VALUE',
'Maximum model space distance between geometric entities at asserted c
onnectivities');
#810=(
GEOMETRIC_REPRESENTATION_CONTEXT(3)
GLOBAL_UNCERTAINTY_ASSIGNED_CONTEXT((#808))
GLOBAL_UNIT_ASSIGNED_CONTEXT((#812,#814,#815))
REPRESENTATION_CONTEXT('','3D')
);
#811=(
GEOMETRIC_REPRESENTATION_CONTEXT(3)
GLOBAL_UNCERTAINTY_ASSIGNED_CONTEXT((#809))
GLOBAL_UNIT_ASSIGNED_CONTEXT((#812,#814,#815))
REPRESENTATION_CONTEXT('','3D')
);
#812=(
LENGTH_UNIT()
NAMED_UNIT(*)
SI_UNIT(.MILLI.,.METRE.)
);
#813=(
LENGTH_UNIT()
NAMED_UNIT(*)
SI_UNIT($,.METRE.)
);
#814=(
NAMED_UNIT(*)
PLANE_ANGLE_UNIT()
SI_UNIT($,.RADIAN.)
);
#815=(
NAMED_UNIT(*)
SI_UNIT($,.STERADIAN.)
SOLID_ANGLE_UNIT()
);
#816=SHAPE_DEFINITION_REPRESENTATION(#817,#818);
#817=PRODUCT_DEFINITION_SHAPE('',$,#820);
#818=SHAPE_REPRESENTATION('',(#468),#810);
#819=PRODUCT_DEFINITION_CONTEXT('part definition',#824,'design');
#820=PRODUCT_DEFINITION('2026-06-16-08-52-14-253',
'\X2\3010\X0\Dual Wiper Steering Set for D6\X2\3011\X0\ \X2\FF08\X0\ 1
  \X2\FF09\X0\',#821,#819);
#821=PRODUCT_DEFINITION_FORMATION('',$,#826);
#822=PRODUCT_RELATED_PRODUCT_CATEGORY(
'\X2\3010\X0\Dual Wiper Steering Set for D6\X2\3011\X0\ \X2\FF08\X0\ 1
  \X2\FF09\X0\','\X2\3010\X0\Dual Wiper Steering Set for D6\X2\3011\X0\ 
\X2\FF08\X0\ 1  \X2\FF09\X0\',(#826));
#823=APPLICATION_PROTOCOL_DEFINITION('international standard',
'automotive_design',2009,#824);
#824=APPLICATION_CONTEXT(
'Core Data for Automotive Mechanical Design Process');
#825=PRODUCT_CONTEXT('part definition',#824,'mechanical');
#826=PRODUCT('2026-06-16-08-52-14-253',
'\X2\3010\X0\Dual Wiper Steering Set for D6\X2\3011\X0\ \X2\FF08\X0\ 1
  \X2\FF09\X0\',$,(#825));
#827=PRESENTATION_STYLE_ASSIGNMENT((#828));
#828=SURFACE_STYLE_USAGE(.BOTH.,#829);
#829=SURFACE_SIDE_STYLE('',(#830));
#830=SURFACE_STYLE_FILL_AREA(#831);
#831=FILL_AREA_STYLE('\X2\94A2\X0\ - \X2\7F0E5149\X0\',(#832));
#832=FILL_AREA_STYLE_COLOUR('\X2\94A2\X0\ - \X2\7F0E5149\X0\',#833);
#833=COLOUR_RGB('\X2\94A2\X0\ - \X2\7F0E5149\X0\',0.627450980392157,0.627450980392157,
0.627450980392157);
ENDSEC;
END-ISO-10303-21;
