ISO-10303-21;
HEADER;
/* Generated by software containing ST-Developer
 * from STEP Tools, Inc. (www.steptools.com) 
 */

FILE_DESCRIPTION(
/* description */ (''),
/* implementation_level */ '2;1');

FILE_NAME(
/* name */ '',
/* time_stamp */ '2026-08-11T12:42:21+09:00',
/* author */ (''),
/* organization */ (''),
/* preprocessor_version */ 'ST-DEVELOPER v20.1',
/* originating_system */ 'Autodesk Translation Framework v15.8.0.0',
/* authorisation */ '');

FILE_SCHEMA (('AUTOMOTIVE_DESIGN { 1 0 10303 214 3 1 1 }'));
ENDSEC;

DATA;
#10=MECHANICAL_DESIGN_GEOMETRIC_PRESENTATION_REPRESENTATION('',(#13),#447);
#11=SHAPE_REPRESENTATION_RELATIONSHIP('SRR','None',#454,#12);
#12=ADVANCED_BREP_SHAPE_REPRESENTATION('',(#14),#446);
#13=STYLED_ITEM('',(#463),#14);
#14=MANIFOLD_SOLID_BREP('\X2\5B9E4F53\X0\1',#221);
#15=FACE_BOUND('',#42,.T.);
#16=FACE_BOUND('',#44,.T.);
#17=FACE_BOUND('',#47,.T.);
#18=PLANE('',#241);
#19=PLANE('',#248);
#20=PLANE('',#251);
#21=PLANE('',#252);
#22=PLANE('',#256);
#23=FACE_OUTER_BOUND('',#35,.T.);
#24=FACE_OUTER_BOUND('',#36,.T.);
#25=FACE_OUTER_BOUND('',#37,.T.);
#26=FACE_OUTER_BOUND('',#38,.T.);
#27=FACE_OUTER_BOUND('',#39,.T.);
#28=FACE_OUTER_BOUND('',#40,.T.);
#29=FACE_OUTER_BOUND('',#41,.T.);
#30=FACE_OUTER_BOUND('',#43,.T.);
#31=FACE_OUTER_BOUND('',#45,.T.);
#32=FACE_OUTER_BOUND('',#46,.T.);
#33=FACE_OUTER_BOUND('',#48,.T.);
#34=FACE_OUTER_BOUND('',#49,.T.);
#35=EDGE_LOOP('',(#142,#143,#144,#145,#146,#147,#148,#149,#150,#151,#152,
#153,#154,#155));
#36=EDGE_LOOP('',(#156,#157));
#37=EDGE_LOOP('',(#158,#159,#160,#161,#162,#163,#164));
#38=EDGE_LOOP('',(#165,#166,#167,#168,#169,#170));
#39=EDGE_LOOP('',(#171,#172));
#40=EDGE_LOOP('',(#173,#174,#175,#176,#177,#178));
#41=EDGE_LOOP('',(#179));
#42=EDGE_LOOP('',(#180));
#43=EDGE_LOOP('',(#181,#182,#183,#184));
#44=EDGE_LOOP('',(#185));
#45=EDGE_LOOP('',(#186,#187));
#46=EDGE_LOOP('',(#188,#189,#190,#191));
#47=EDGE_LOOP('',(#192));
#48=EDGE_LOOP('',(#193,#194,#195,#196));
#49=EDGE_LOOP('',(#197,#198,#199,#200,#201));
#50=ELLIPSE('',#237,3.19979596499123,2.9);
#51=ELLIPSE('',#238,3.19979596499123,2.9);
#52=ELLIPSE('',#239,3.19979596499123,2.9);
#53=ELLIPSE('',#243,1.65506687844374,1.5);
#54=ELLIPSE('',#244,1.65506687844374,1.5);
#55=ELLIPSE('',#245,1.65506687844374,1.5);
#56=CIRCLE('',#236,2.9);
#57=CIRCLE('',#240,2.9);
#58=CIRCLE('',#247,1.5);
#59=CIRCLE('',#250,2.9);
#60=CIRCLE('',#253,4.35);
#61=CIRCLE('',#254,2.2);
#62=CIRCLE('',#257,4.35);
#63=CIRCLE('',#258,2.2);
#64=B_SPLINE_CURVE_WITH_KNOTS('',3,(#332,#333,#334,#335,#336,#337,#338,
#339,#340,#341,#342),.UNSPECIFIED.,.F.,.F.,(4,2,3,2,4),(-0.207076770521911,
-0.114412932070227,0.,0.114412932070226,0.207076770521911),
 .UNSPECIFIED.);
#65=B_SPLINE_CURVE_WITH_KNOTS('',3,(#350,#351,#352,#353,#354,#355),
 .UNSPECIFIED.,.F.,.F.,(4,2,4),(0.910268654022951,1.02468158609318,1.11734542454486),
 .UNSPECIFIED.);
#66=B_SPLINE_CURVE_WITH_KNOTS('',3,(#364,#365,#366,#367,#368,#369),
 .UNSPECIFIED.,.F.,.F.,(4,2,4),(0.70319188350104,0.795855721952725,0.910268654022951),
 .UNSPECIFIED.);
#67=B_SPLINE_CURVE_WITH_KNOTS('',3,(#382,#383,#384,#385,#386,#387,#388,
#389,#390,#391,#392,#393,#394,#395,#396,#397,#398,#399),.UNSPECIFIED.,.F.,
 .F.,(4,2,2,2,2,2,2,2,4),(0.,0.0570281794360681,0.114056358872136,0.171054006079569,
0.228051653287002,0.285049300494434,0.342046947701867,0.399075127137935,
0.456103306574003),.UNSPECIFIED.);
#68=B_SPLINE_CURVE_WITH_KNOTS('',3,(#400,#401,#402,#403,#404,#405,#406,
#407,#408,#409,#410,#411,#412,#413,#414,#415,#416,#417),.UNSPECIFIED.,.F.,
 .F.,(4,2,2,2,2,2,2,2,4),(0.456103306574003,0.513131486010071,0.570159665446139,
0.627157312653572,0.684154959861005,0.741152607068438,0.79815025427587,
0.855178433711939,0.912206613148007),.UNSPECIFIED.);
#69=LINE('',#330,#80);
#70=LINE('',#344,#81);
#71=LINE('',#348,#82);
#72=LINE('',#357,#83);
#73=LINE('',#371,#84);
#74=LINE('',#374,#85);
#75=LINE('',#380,#86);
#76=LINE('',#424,#87);
#77=LINE('',#426,#88);
#78=LINE('',#429,#89);
#79=LINE('',#442,#90);
#80=VECTOR('',#265,10.);
#81=VECTOR('',#266,10.);
#82=VECTOR('',#269,10.);
#83=VECTOR('',#270,2.9);
#84=VECTOR('',#277,10.);
#85=VECTOR('',#282,10.);
#86=VECTOR('',#287,1.5);
#87=VECTOR('',#296,1.5);
#88=VECTOR('',#299,10.);
#89=VECTOR('',#302,2.9);
#90=VECTOR('',#323,2.2);
#91=VERTEX_POINT('',#328);
#92=VERTEX_POINT('',#329);
#93=VERTEX_POINT('',#331);
#94=VERTEX_POINT('',#343);
#95=VERTEX_POINT('',#345);
#96=VERTEX_POINT('',#347);
#97=VERTEX_POINT('',#349);
#98=VERTEX_POINT('',#356);
#99=VERTEX_POINT('',#358);
#100=VERTEX_POINT('',#360);
#101=VERTEX_POINT('',#363);
#102=VERTEX_POINT('',#370);
#103=VERTEX_POINT('',#376);
#104=VERTEX_POINT('',#377);
#105=VERTEX_POINT('',#379);
#106=VERTEX_POINT('',#381);
#107=VERTEX_POINT('',#418);
#108=VERTEX_POINT('',#422);
#109=VERTEX_POINT('',#428);
#110=VERTEX_POINT('',#434);
#111=VERTEX_POINT('',#439);
#112=EDGE_CURVE('',#91,#92,#69,.T.);
#113=EDGE_CURVE('',#93,#91,#64,.T.);
#114=EDGE_CURVE('',#94,#93,#70,.T.);
#115=EDGE_CURVE('',#95,#94,#56,.T.);
#116=EDGE_CURVE('',#96,#95,#71,.T.);
#117=EDGE_CURVE('',#97,#96,#65,.T.);
#118=EDGE_CURVE('',#97,#98,#72,.T.);
#119=EDGE_CURVE('',#99,#98,#50,.T.);
#120=EDGE_CURVE('',#100,#99,#51,.T.);
#121=EDGE_CURVE('',#98,#100,#52,.T.);
#122=EDGE_CURVE('',#101,#97,#66,.T.);
#123=EDGE_CURVE('',#102,#101,#73,.T.);
#124=EDGE_CURVE('',#92,#102,#57,.T.);
#125=EDGE_CURVE('',#95,#94,#74,.T.);
#126=EDGE_CURVE('',#103,#104,#53,.T.);
#127=EDGE_CURVE('',#104,#105,#75,.T.);
#128=EDGE_CURVE('',#106,#105,#67,.T.);
#129=EDGE_CURVE('',#105,#106,#68,.T.);
#130=EDGE_CURVE('',#104,#107,#54,.T.);
#131=EDGE_CURVE('',#107,#103,#55,.T.);
#132=EDGE_CURVE('',#108,#108,#58,.T.);
#133=EDGE_CURVE('',#108,#104,#76,.T.);
#134=EDGE_CURVE('',#92,#102,#77,.T.);
#135=EDGE_CURVE('',#98,#109,#78,.T.);
#136=EDGE_CURVE('',#109,#109,#59,.T.);
#137=EDGE_CURVE('',#101,#91,#60,.T.);
#138=EDGE_CURVE('',#110,#110,#61,.T.);
#139=EDGE_CURVE('',#93,#96,#62,.T.);
#140=EDGE_CURVE('',#111,#111,#63,.T.);
#141=EDGE_CURVE('',#110,#111,#79,.T.);
#142=ORIENTED_EDGE('',*,*,#112,.F.);
#143=ORIENTED_EDGE('',*,*,#113,.F.);
#144=ORIENTED_EDGE('',*,*,#114,.F.);
#145=ORIENTED_EDGE('',*,*,#115,.F.);
#146=ORIENTED_EDGE('',*,*,#116,.F.);
#147=ORIENTED_EDGE('',*,*,#117,.F.);
#148=ORIENTED_EDGE('',*,*,#118,.T.);
#149=ORIENTED_EDGE('',*,*,#119,.F.);
#150=ORIENTED_EDGE('',*,*,#120,.F.);
#151=ORIENTED_EDGE('',*,*,#121,.F.);
#152=ORIENTED_EDGE('',*,*,#118,.F.);
#153=ORIENTED_EDGE('',*,*,#122,.F.);
#154=ORIENTED_EDGE('',*,*,#123,.F.);
#155=ORIENTED_EDGE('',*,*,#124,.F.);
#156=ORIENTED_EDGE('',*,*,#125,.F.);
#157=ORIENTED_EDGE('',*,*,#115,.T.);
#158=ORIENTED_EDGE('',*,*,#126,.T.);
#159=ORIENTED_EDGE('',*,*,#127,.T.);
#160=ORIENTED_EDGE('',*,*,#128,.F.);
#161=ORIENTED_EDGE('',*,*,#129,.F.);
#162=ORIENTED_EDGE('',*,*,#127,.F.);
#163=ORIENTED_EDGE('',*,*,#130,.T.);
#164=ORIENTED_EDGE('',*,*,#131,.T.);
#165=ORIENTED_EDGE('',*,*,#132,.F.);
#166=ORIENTED_EDGE('',*,*,#133,.T.);
#167=ORIENTED_EDGE('',*,*,#126,.F.);
#168=ORIENTED_EDGE('',*,*,#131,.F.);
#169=ORIENTED_EDGE('',*,*,#130,.F.);
#170=ORIENTED_EDGE('',*,*,#133,.F.);
#171=ORIENTED_EDGE('',*,*,#134,.F.);
#172=ORIENTED_EDGE('',*,*,#124,.T.);
#173=ORIENTED_EDGE('',*,*,#119,.T.);
#174=ORIENTED_EDGE('',*,*,#135,.T.);
#175=ORIENTED_EDGE('',*,*,#136,.T.);
#176=ORIENTED_EDGE('',*,*,#135,.F.);
#177=ORIENTED_EDGE('',*,*,#121,.T.);
#178=ORIENTED_EDGE('',*,*,#120,.T.);
#179=ORIENTED_EDGE('',*,*,#136,.F.);
#180=ORIENTED_EDGE('',*,*,#132,.T.);
#181=ORIENTED_EDGE('',*,*,#112,.T.);
#182=ORIENTED_EDGE('',*,*,#134,.T.);
#183=ORIENTED_EDGE('',*,*,#123,.T.);
#184=ORIENTED_EDGE('',*,*,#137,.T.);
#185=ORIENTED_EDGE('',*,*,#138,.T.);
#186=ORIENTED_EDGE('',*,*,#128,.T.);
#187=ORIENTED_EDGE('',*,*,#129,.T.);
#188=ORIENTED_EDGE('',*,*,#114,.T.);
#189=ORIENTED_EDGE('',*,*,#139,.T.);
#190=ORIENTED_EDGE('',*,*,#116,.T.);
#191=ORIENTED_EDGE('',*,*,#125,.T.);
#192=ORIENTED_EDGE('',*,*,#140,.T.);
#193=ORIENTED_EDGE('',*,*,#138,.F.);
#194=ORIENTED_EDGE('',*,*,#141,.T.);
#195=ORIENTED_EDGE('',*,*,#140,.F.);
#196=ORIENTED_EDGE('',*,*,#141,.F.);
#197=ORIENTED_EDGE('',*,*,#113,.T.);
#198=ORIENTED_EDGE('',*,*,#137,.F.);
#199=ORIENTED_EDGE('',*,*,#122,.T.);
#200=ORIENTED_EDGE('',*,*,#117,.T.);
#201=ORIENTED_EDGE('',*,*,#139,.F.);
#202=CYLINDRICAL_SURFACE('',#235,2.9);
#203=CYLINDRICAL_SURFACE('',#242,1.5);
#204=CYLINDRICAL_SURFACE('',#246,1.5);
#205=CYLINDRICAL_SURFACE('',#249,2.9);
#206=CYLINDRICAL_SURFACE('',#255,4.35);
#207=CYLINDRICAL_SURFACE('',#259,2.2);
#208=CYLINDRICAL_SURFACE('',#260,4.35);
#209=ADVANCED_FACE('',(#23),#202,.T.);
#210=ADVANCED_FACE('',(#24),#18,.T.);
#211=ADVANCED_FACE('',(#25),#203,.F.);
#212=ADVANCED_FACE('',(#26),#204,.F.);
#213=ADVANCED_FACE('',(#27),#19,.T.);
#214=ADVANCED_FACE('',(#28),#205,.T.);
#215=ADVANCED_FACE('',(#29,#15),#20,.F.);
#216=ADVANCED_FACE('',(#30,#16),#21,.T.);
#217=ADVANCED_FACE('',(#31),#206,.T.);
#218=ADVANCED_FACE('',(#32,#17),#22,.F.);
#219=ADVANCED_FACE('',(#33),#207,.F.);
#220=ADVANCED_FACE('',(#34),#208,.T.);
#221=CLOSED_SHELL('',(#209,#210,#211,#212,#213,#214,#215,#216,#217,#218,
#219,#220));
#222=DERIVED_UNIT_ELEMENT(#224,1.);
#223=DERIVED_UNIT_ELEMENT(#449,-3.);
#224=(
MASS_UNIT()
NAMED_UNIT(*)
SI_UNIT(.KILO.,.GRAM.)
);
#225=DERIVED_UNIT((#222,#223));
#226=MEASURE_REPRESENTATION_ITEM('density measure',
POSITIVE_RATIO_MEASURE(7850.),#225);
#227=PROPERTY_DEFINITION_REPRESENTATION(#232,#229);
#228=PROPERTY_DEFINITION_REPRESENTATION(#233,#230);
#229=REPRESENTATION('material name',(#231),#446);
#230=REPRESENTATION('density',(#226),#446);
#231=DESCRIPTIVE_REPRESENTATION_ITEM('\X2\94A2\X0\','\X2\94A2\X0\');
#232=PROPERTY_DEFINITION('material property','material name',#456);
#233=PROPERTY_DEFINITION('material property','density of part',#456);
#234=AXIS2_PLACEMENT_3D('',#326,#261,#262);
#235=AXIS2_PLACEMENT_3D('',#327,#263,#264);
#236=AXIS2_PLACEMENT_3D('',#346,#267,#268);
#237=AXIS2_PLACEMENT_3D('',#359,#271,#272);
#238=AXIS2_PLACEMENT_3D('',#361,#273,#274);
#239=AXIS2_PLACEMENT_3D('',#362,#275,#276);
#240=AXIS2_PLACEMENT_3D('',#372,#278,#279);
#241=AXIS2_PLACEMENT_3D('',#373,#280,#281);
#242=AXIS2_PLACEMENT_3D('',#375,#283,#284);
#243=AXIS2_PLACEMENT_3D('',#378,#285,#286);
#244=AXIS2_PLACEMENT_3D('',#419,#288,#289);
#245=AXIS2_PLACEMENT_3D('',#420,#290,#291);
#246=AXIS2_PLACEMENT_3D('',#421,#292,#293);
#247=AXIS2_PLACEMENT_3D('',#423,#294,#295);
#248=AXIS2_PLACEMENT_3D('',#425,#297,#298);
#249=AXIS2_PLACEMENT_3D('',#427,#300,#301);
#250=AXIS2_PLACEMENT_3D('',#430,#303,#304);
#251=AXIS2_PLACEMENT_3D('',#431,#305,#306);
#252=AXIS2_PLACEMENT_3D('',#432,#307,#308);
#253=AXIS2_PLACEMENT_3D('',#433,#309,#310);
#254=AXIS2_PLACEMENT_3D('',#435,#311,#312);
#255=AXIS2_PLACEMENT_3D('',#436,#313,#314);
#256=AXIS2_PLACEMENT_3D('',#437,#315,#316);
#257=AXIS2_PLACEMENT_3D('',#438,#317,#318);
#258=AXIS2_PLACEMENT_3D('',#440,#319,#320);
#259=AXIS2_PLACEMENT_3D('',#441,#321,#322);
#260=AXIS2_PLACEMENT_3D('',#443,#324,#325);
#261=DIRECTION('axis',(0.,0.,1.));
#262=DIRECTION('refdir',(1.,0.,0.));
#263=DIRECTION('center_axis',(0.64278760968654,0.766044443118978,0.));
#264=DIRECTION('ref_axis',(-0.766044443118978,0.64278760968654,0.));
#265=DIRECTION('',(0.64278760968654,0.766044443118978,0.));
#266=DIRECTION('',(-0.64278760968654,-0.766044443118978,0.));
#267=DIRECTION('center_axis',(0.64278760968654,0.766044443118978,0.));
#268=DIRECTION('ref_axis',(-0.766044443118978,0.64278760968654,0.));
#269=DIRECTION('',(0.642787609686539,0.766044443118978,0.));
#270=DIRECTION('',(-0.64278760968654,-0.766044443118978,0.));
#271=DIRECTION('center_axis',(-0.90630778703665,-0.422618261740699,0.));
#272=DIRECTION('ref_axis',(-0.422618261740699,0.90630778703665,0.));
#273=DIRECTION('center_axis',(-0.90630778703665,-0.4226182617407,0.));
#274=DIRECTION('ref_axis',(-0.4226182617407,0.90630778703665,0.));
#275=DIRECTION('center_axis',(-0.90630778703665,-0.422618261740699,0.));
#276=DIRECTION('ref_axis',(-0.422618261740699,0.90630778703665,0.));
#277=DIRECTION('',(-0.642787609686539,-0.766044443118978,0.));
#278=DIRECTION('center_axis',(0.64278760968654,0.766044443118978,0.));
#279=DIRECTION('ref_axis',(-0.766044443118978,0.64278760968654,0.));
#280=DIRECTION('center_axis',(0.64278760968654,0.766044443118978,0.));
#281=DIRECTION('ref_axis',(0.,0.,-1.));
#282=DIRECTION('',(-0.766044443118978,0.64278760968654,0.));
#283=DIRECTION('center_axis',(0.64278760968654,0.766044443118978,0.));
#284=DIRECTION('ref_axis',(-0.766044443118978,0.64278760968654,0.));
#285=DIRECTION('center_axis',(-0.90630778703665,-0.422618261740699,0.));
#286=DIRECTION('ref_axis',(-0.422618261740699,0.90630778703665,0.));
#287=DIRECTION('',(0.64278760968654,0.766044443118978,0.));
#288=DIRECTION('center_axis',(-0.90630778703665,-0.422618261740699,0.));
#289=DIRECTION('ref_axis',(-0.422618261740699,0.90630778703665,0.));
#290=DIRECTION('center_axis',(-0.90630778703665,-0.422618261740699,0.));
#291=DIRECTION('ref_axis',(-0.422618261740699,0.90630778703665,0.));
#292=DIRECTION('center_axis',(1.,1.70518874306901E-31,0.));
#293=DIRECTION('ref_axis',(-1.70518874306901E-31,1.,0.));
#294=DIRECTION('center_axis',(1.,0.,0.));
#295=DIRECTION('ref_axis',(-1.70518874306901E-31,1.,0.));
#296=DIRECTION('',(1.,1.70518874306901E-31,0.));
#297=DIRECTION('center_axis',(0.64278760968654,0.766044443118978,0.));
#298=DIRECTION('ref_axis',(0.,0.,-1.));
#299=DIRECTION('',(0.766044443118978,-0.64278760968654,0.));
#300=DIRECTION('center_axis',(1.,1.70518874306901E-31,0.));
#301=DIRECTION('ref_axis',(-1.70518874306901E-31,1.,0.));
#302=DIRECTION('',(-1.,-1.70518874306901E-31,0.));
#303=DIRECTION('center_axis',(1.,0.,0.));
#304=DIRECTION('ref_axis',(0.,1.,0.));
#305=DIRECTION('center_axis',(1.,0.,0.));
#306=DIRECTION('ref_axis',(0.,0.,-1.));
#307=DIRECTION('center_axis',(0.,0.,1.));
#308=DIRECTION('ref_axis',(1.,0.,0.));
#309=DIRECTION('center_axis',(0.,0.,1.));
#310=DIRECTION('ref_axis',(1.,0.,0.));
#311=DIRECTION('center_axis',(0.,0.,-1.));
#312=DIRECTION('ref_axis',(1.,0.,0.));
#313=DIRECTION('center_axis',(0.,0.,1.));
#314=DIRECTION('ref_axis',(1.,0.,0.));
#315=DIRECTION('center_axis',(0.,0.,1.));
#316=DIRECTION('ref_axis',(1.,0.,0.));
#317=DIRECTION('center_axis',(0.,0.,-1.));
#318=DIRECTION('ref_axis',(1.,0.,0.));
#319=DIRECTION('center_axis',(0.,0.,1.));
#320=DIRECTION('ref_axis',(1.,0.,0.));
#321=DIRECTION('center_axis',(0.,0.,1.));
#322=DIRECTION('ref_axis',(1.,0.,0.));
#323=DIRECTION('',(0.,0.,-1.));
#324=DIRECTION('center_axis',(0.,0.,1.));
#325=DIRECTION('ref_axis',(0.64278760968654,0.766044443118977,0.));
#326=CARTESIAN_POINT('',(0.,0.,0.));
#327=CARTESIAN_POINT('Origin',(13.,2.21674536598971E-30,0.));
#328=CARTESIAN_POINT('',(13.6305792812535,4.15991525672819,1.9));
#329=CARTESIAN_POINT('',(14.2887883201221,4.94433824347778,1.9));
#330=CARTESIAN_POINT('',(11.321680713809,1.40827709404058,1.9));
#331=CARTESIAN_POINT('',(13.6305792812535,4.15991525672819,-1.9));
#332=CARTESIAN_POINT('Ctrl Pts',(13.6305792812535,4.15991525672819,-1.9));
#333=CARTESIAN_POINT('Ctrl Pts',(13.5548094246424,4.37085884214588,-1.67671945729427));
#334=CARTESIAN_POINT('Ctrl Pts',(13.5032842721776,4.56863870086045,-1.4136765537416));
#335=CARTESIAN_POINT('Ctrl Pts',(13.4315151795716,4.90334362916917,-0.773311042300012));
#336=CARTESIAN_POINT('Ctrl Pts',(13.4188507001382,5.01076592454545,-0.381376440234088));
#337=CARTESIAN_POINT('Ctrl Pts',(13.4188507001382,5.01076592454545,0.));
#338=CARTESIAN_POINT('Ctrl Pts',(13.4188507001382,5.01076592454545,0.381376440234088));
#339=CARTESIAN_POINT('Ctrl Pts',(13.4315151795716,4.90334362916917,0.773311042300012));
#340=CARTESIAN_POINT('Ctrl Pts',(13.5032842721776,4.56863870086045,1.4136765537416));
#341=CARTESIAN_POINT('Ctrl Pts',(13.5548094246424,4.37085884214588,1.67671945729427));
#342=CARTESIAN_POINT('Ctrl Pts',(13.6305792812535,4.15991525672819,1.9));
#343=CARTESIAN_POINT('',(14.2887883201221,4.94433824347778,-1.9));
#344=CARTESIAN_POINT('',(11.321680713809,1.40827709404058,-1.9));
#345=CARTESIAN_POINT('',(17.6454268925041,2.12778405539663,-1.9));
#346=CARTESIAN_POINT('Origin',(15.9671076063131,3.5360611494372,0.));
#347=CARTESIAN_POINT('',(16.9872178536355,1.34336106864704,-1.9));
#348=CARTESIAN_POINT('',(14.678319286191,-1.40827709404058,-1.9));
#349=CARTESIAN_POINT('',(17.8619084702282,1.28259778836351,-4.10143827868561E-18));
#350=CARTESIAN_POINT('Ctrl Pts',(17.8619084702282,1.28259778836351,2.42861286636753E-16));
#351=CARTESIAN_POINT('Ctrl Pts',(17.8619084702282,1.28259778836351,-0.381376440234087));
#352=CARTESIAN_POINT('Ctrl Pts',(17.7539189971206,1.27641618006451,-0.773311042300011));
#353=CARTESIAN_POINT('Ctrl Pts',(17.4118364166069,1.28897403803261,-1.4136765537416));
#354=CARTESIAN_POINT('Ctrl Pts',(17.2081140295256,1.3053722956101,-1.67671945729427));
#355=CARTESIAN_POINT('Ctrl Pts',(16.9872178536355,1.34336106864704,-1.9));
#356=CARTESIAN_POINT('',(14.3522922086495,-2.9,-3.55147571752732E-16));
#357=CARTESIAN_POINT('',(15.221528885045,-1.86408406809097,-3.55147571752733E-16));
#358=CARTESIAN_POINT('',(13.,2.21674536598971E-30,-2.9));
#359=CARTESIAN_POINT('Origin',(13.,-1.70096035727369E-15,0.));
#360=CARTESIAN_POINT('',(13.,2.21674536598971E-30,2.9));
#361=CARTESIAN_POINT('Origin',(13.,1.42489645508824E-30,0.));
#362=CARTESIAN_POINT('Origin',(13.,-1.70096035727369E-15,0.));
#363=CARTESIAN_POINT('',(16.9872178536355,1.34336106864704,1.9));
#364=CARTESIAN_POINT('Ctrl Pts',(16.9872178536355,1.34336106864704,1.9));
#365=CARTESIAN_POINT('Ctrl Pts',(17.2081140295256,1.3053722956101,1.67671945729427));
#366=CARTESIAN_POINT('Ctrl Pts',(17.4118364166069,1.28897403803261,1.4136765537416));
#367=CARTESIAN_POINT('Ctrl Pts',(17.7539189971206,1.27641618006451,0.773311042300012));
#368=CARTESIAN_POINT('Ctrl Pts',(17.8619084702282,1.28259778836351,0.381376440234088));
#369=CARTESIAN_POINT('Ctrl Pts',(17.8619084702282,1.28259778836351,-3.46944695195361E-17));
#370=CARTESIAN_POINT('',(17.6454268925041,2.12778405539663,1.9));
#371=CARTESIAN_POINT('',(14.678319286191,-1.40827709404058,1.9));
#372=CARTESIAN_POINT('Origin',(15.9671076063131,3.5360611494372,0.));
#373=CARTESIAN_POINT('Origin',(15.9671076063131,3.5360611494372,0.));
#374=CARTESIAN_POINT('',(15.9671076063131,3.5360611494372,-1.9));
#375=CARTESIAN_POINT('Origin',(13.,2.21674536598971E-30,0.));
#376=CARTESIAN_POINT('',(13.,2.21674536598971E-30,-1.5));
#377=CARTESIAN_POINT('',(13.6994614872325,-1.5,-1.83697019872103E-16));
#378=CARTESIAN_POINT('Origin',(13.,1.42489645508824E-30,0.));
#379=CARTESIAN_POINT('',(16.2489269785414,1.53833465846234,-1.83697019872103E-16));
#380=CARTESIAN_POINT('',(14.1490666646785,-0.96418141452981,-1.83697019872103E-16));
#381=CARTESIAN_POINT('',(13.9507936491845,3.46669748752196,-6.93889390390723E-17));
#382=CARTESIAN_POINT('Ctrl Pts',(13.9507936491845,3.46669748752196,-6.93889390390723E-17));
#383=CARTESIAN_POINT('Ctrl Pts',(13.9507936491845,3.46669748752196,-0.19009393145356));
#384=CARTESIAN_POINT('Ctrl Pts',(13.9707115511217,3.43083271081584,-0.391671237223826));
#385=CARTESIAN_POINT('Ctrl Pts',(14.0551812314618,3.29264163517886,-0.760706638158782));
#386=CARTESIAN_POINT('Ctrl Pts',(14.120250631503,3.19104401375802,-0.928318560714976));
#387=CARTESIAN_POINT('Ctrl Pts',(14.2801918519929,2.96999077216412,-1.19293092867455));
#388=CARTESIAN_POINT('Ctrl Pts',(14.3860856091417,2.83538860801537,-1.30813709749289));
#389=CARTESIAN_POINT('Ctrl Pts',(14.6371551629518,2.56032166867243,-1.46171288489513));
#390=CARTESIAN_POINT('Ctrl Pts',(14.7828203926793,2.42025793404434,-1.5));
#391=CARTESIAN_POINT('Ctrl Pts',(15.07390526544,2.17600872466953,-1.5));
#392=CARTESIAN_POINT('Ctrl Pts',(15.2371356189092,2.05687828936499,-1.46171288489513));
#393=CARTESIAN_POINT('Ctrl Pts',(15.5516214438582,1.85738791898084,-1.30813709749289));
#394=CARTESIAN_POINT('Ctrl Pts',(15.7025669566393,1.77647634645957,-1.19293092867455));
#395=CARTESIAN_POINT('Ctrl Pts',(15.9480354042614,1.65735048506502,-0.928318560714977));
#396=CARTESIAN_POINT('Ctrl Pts',(16.0593887122632,1.61091187723562,-0.760706638158782));
#397=CARTESIAN_POINT('Ctrl Pts',(16.2101483610068,1.55172210959638,-0.391671237223827));
#398=CARTESIAN_POINT('Ctrl Pts',(16.2489269785414,1.53833465846234,-0.19009393145356));
#399=CARTESIAN_POINT('Ctrl Pts',(16.2489269785414,1.53833465846234,3.46944695195361E-17));
#400=CARTESIAN_POINT('Ctrl Pts',(16.2489269785414,1.53833465846234,1.38777878078145E-16));
#401=CARTESIAN_POINT('Ctrl Pts',(16.2489269785414,1.53833465846234,0.19009393145356));
#402=CARTESIAN_POINT('Ctrl Pts',(16.2101483610068,1.55172210959638,0.391671237223826));
#403=CARTESIAN_POINT('Ctrl Pts',(16.0593887122632,1.61091187723562,0.760706638158782));
#404=CARTESIAN_POINT('Ctrl Pts',(15.9480354042614,1.65735048506502,0.928318560714977));
#405=CARTESIAN_POINT('Ctrl Pts',(15.7025669566393,1.77647634645957,1.19293092867455));
#406=CARTESIAN_POINT('Ctrl Pts',(15.5516214438582,1.85738791898085,1.30813709749289));
#407=CARTESIAN_POINT('Ctrl Pts',(15.2371356189092,2.05687828936499,1.46171288489513));
#408=CARTESIAN_POINT('Ctrl Pts',(15.07390526544,2.17600872466953,1.5));
#409=CARTESIAN_POINT('Ctrl Pts',(14.7828203926793,2.42025793404434,1.5));
#410=CARTESIAN_POINT('Ctrl Pts',(14.6371551629518,2.56032166867243,1.46171288489513));
#411=CARTESIAN_POINT('Ctrl Pts',(14.3860856091417,2.83538860801537,1.30813709749289));
#412=CARTESIAN_POINT('Ctrl Pts',(14.2801918519929,2.96999077216412,1.19293092867455));
#413=CARTESIAN_POINT('Ctrl Pts',(14.120250631503,3.19104401375802,0.928318560714976));
#414=CARTESIAN_POINT('Ctrl Pts',(14.0551812314618,3.29264163517886,0.760706638158782));
#415=CARTESIAN_POINT('Ctrl Pts',(13.9707115511217,3.43083271081584,0.391671237223826));
#416=CARTESIAN_POINT('Ctrl Pts',(13.9507936491845,3.46669748752196,0.19009393145356));
#417=CARTESIAN_POINT('Ctrl Pts',(13.9507936491845,3.46669748752196,6.93889390390723E-17));
#418=CARTESIAN_POINT('',(13.,2.21674536598971E-30,1.5));
#419=CARTESIAN_POINT('Origin',(13.,1.42489645508824E-30,0.));
#420=CARTESIAN_POINT('Origin',(13.,1.42489645508824E-30,0.));
#421=CARTESIAN_POINT('Origin',(0.,0.,0.));
#422=CARTESIAN_POINT('',(0.,-1.5,-1.83697019872103E-16));
#423=CARTESIAN_POINT('Origin',(0.,0.,0.));
#424=CARTESIAN_POINT('',(2.55778311460351E-31,-1.5,-1.83697019872103E-16));
#425=CARTESIAN_POINT('Origin',(15.9671076063131,3.5360611494372,0.));
#426=CARTESIAN_POINT('',(15.9671076063131,3.5360611494372,1.9));
#427=CARTESIAN_POINT('Origin',(0.,0.,0.));
#428=CARTESIAN_POINT('',(0.,-2.9,-3.55147571752732E-16));
#429=CARTESIAN_POINT('',(4.94504735490012E-31,-2.9,-3.55147571752732E-16));
#430=CARTESIAN_POINT('Origin',(0.,0.,0.));
#431=CARTESIAN_POINT('Origin',(0.,0.,0.));
#432=CARTESIAN_POINT('Origin',(17.7244889311961,5.63042665692449,1.9));
#433=CARTESIAN_POINT('Origin',(17.7244889311961,5.63042665692449,1.9));
#434=CARTESIAN_POINT('',(15.5244889311961,5.63042665692449,1.9));
#435=CARTESIAN_POINT('Origin',(17.7244889311961,5.63042665692449,1.9));
#436=CARTESIAN_POINT('Origin',(17.7244889311961,5.63042665692449,0.));
#437=CARTESIAN_POINT('Origin',(17.7244889311961,5.63042665692449,-1.9));
#438=CARTESIAN_POINT('Origin',(17.7244889311961,5.63042665692449,-1.9));
#439=CARTESIAN_POINT('',(15.5244889311961,5.63042665692449,-1.9));
#440=CARTESIAN_POINT('Origin',(17.7244889311961,5.63042665692449,-1.9));
#441=CARTESIAN_POINT('Origin',(17.7244889311961,5.63042665692449,0.));
#442=CARTESIAN_POINT('',(15.5244889311961,5.63042665692449,0.));
#443=CARTESIAN_POINT('Origin',(17.7244889311961,5.63042665692449,0.));
#444=UNCERTAINTY_MEASURE_WITH_UNIT(LENGTH_MEASURE(0.01),#448,
'DISTANCE_ACCURACY_VALUE',
'Maximum model space distance between geometric entities at asserted c
onnectivities');
#445=UNCERTAINTY_MEASURE_WITH_UNIT(LENGTH_MEASURE(0.01),#448,
'DISTANCE_ACCURACY_VALUE',
'Maximum model space distance between geometric entities at asserted c
onnectivities');
#446=(
GEOMETRIC_REPRESENTATION_CONTEXT(3)
GLOBAL_UNCERTAINTY_ASSIGNED_CONTEXT((#444))
GLOBAL_UNIT_ASSIGNED_CONTEXT((#448,#450,#451))
REPRESENTATION_CONTEXT('','3D')
);
#447=(
GEOMETRIC_REPRESENTATION_CONTEXT(3)
GLOBAL_UNCERTAINTY_ASSIGNED_CONTEXT((#445))
GLOBAL_UNIT_ASSIGNED_CONTEXT((#448,#450,#451))
REPRESENTATION_CONTEXT('','3D')
);
#448=(
LENGTH_UNIT()
NAMED_UNIT(*)
SI_UNIT(.MILLI.,.METRE.)
);
#449=(
LENGTH_UNIT()
NAMED_UNIT(*)
SI_UNIT($,.METRE.)
);
#450=(
NAMED_UNIT(*)
PLANE_ANGLE_UNIT()
SI_UNIT($,.RADIAN.)
);
#451=(
NAMED_UNIT(*)
SI_UNIT($,.STERADIAN.)
SOLID_ANGLE_UNIT()
);
#452=SHAPE_DEFINITION_REPRESENTATION(#453,#454);
#453=PRODUCT_DEFINITION_SHAPE('',$,#456);
#454=SHAPE_REPRESENTATION('',(#234),#446);
#455=PRODUCT_DEFINITION_CONTEXT('part definition',#460,'design');
#456=PRODUCT_DEFINITION('2026-07-04-08-49-25-292','\X2\8F6C541174035934676F\X0\',
#457,#455);
#457=PRODUCT_DEFINITION_FORMATION('',$,#462);
#458=PRODUCT_RELATED_PRODUCT_CATEGORY('\X2\8F6C541174035934676F\X0\',
'\X2\8F6C541174035934676F\X0\',(#462));
#459=APPLICATION_PROTOCOL_DEFINITION('international standard',
'automotive_design',2009,#460);
#460=APPLICATION_CONTEXT(
'Core Data for Automotive Mechanical Design Process');
#461=PRODUCT_CONTEXT('part definition',#460,'mechanical');
#462=PRODUCT('2026-07-04-08-49-25-292','\X2\8F6C541174035934676F\X0\',$,
(#461));
#463=PRESENTATION_STYLE_ASSIGNMENT((#464));
#464=SURFACE_STYLE_USAGE(.BOTH.,#465);
#465=SURFACE_SIDE_STYLE('',(#466));
#466=SURFACE_STYLE_FILL_AREA(#467);
#467=FILL_AREA_STYLE('\X2\94A2\X0\ - \X2\7F0E5149\X0\',(#468));
#468=FILL_AREA_STYLE_COLOUR('\X2\94A2\X0\ - \X2\7F0E5149\X0\',#469);
#469=COLOUR_RGB('\X2\94A2\X0\ - \X2\7F0E5149\X0\',0.627450980392157,0.627450980392157,
0.627450980392157);
ENDSEC;
END-ISO-10303-21;
