ISO-10303-21;
HEADER;
/* Generated by software containing ST-Developer
 * from STEP Tools, Inc. (www.steptools.com) 
 */

FILE_DESCRIPTION(
/* description */ (''),
/* implementation_level */ '2;1');

FILE_NAME(
/* name */ '',
/* time_stamp */ '2026-08-11T12:27:43+09:00',
/* author */ (''),
/* organization */ (''),
/* preprocessor_version */ 'ST-DEVELOPER v20.1',
/* originating_system */ 'Autodesk Translation Framework v15.8.0.0',
/* authorisation */ '');

FILE_SCHEMA (('AUTOMOTIVE_DESIGN { 1 0 10303 214 3 1 1 }'));
ENDSEC;

DATA;
#10=MECHANICAL_DESIGN_GEOMETRIC_PRESENTATION_REPRESENTATION('',(#13),#2065);
#11=SHAPE_REPRESENTATION_RELATIONSHIP('SRR','None',#2072,#12);
#12=ADVANCED_BREP_SHAPE_REPRESENTATION('',(#14),#2064);
#13=STYLED_ITEM('',(#2081),#14);
#14=MANIFOLD_SOLID_BREP('\X2\5B9E4F53\X0\1',#1285);
#15=CIRCLE('',#1342,3.2);
#16=CIRCLE('',#1343,3.2);
#17=CIRCLE('',#1345,3.2);
#18=CIRCLE('',#1346,3.2);
#19=CIRCLE('',#1347,3.2);
#20=CIRCLE('',#1348,1.6);
#21=CIRCLE('',#1349,1.6);
#22=CIRCLE('',#1350,1.6);
#23=CIRCLE('',#1351,1.6);
#24=CIRCLE('',#1354,3.2);
#25=CIRCLE('',#1356,3.2);
#26=CIRCLE('',#1359,3.2);
#27=CIRCLE('',#1361,1.6);
#28=CIRCLE('',#1363,1.6);
#29=CIRCLE('',#1365,1.6);
#30=CIRCLE('',#1367,1.6);
#31=CYLINDRICAL_SURFACE('',#1341,3.2);
#32=CYLINDRICAL_SURFACE('',#1353,3.2);
#33=CYLINDRICAL_SURFACE('',#1355,3.2);
#34=CYLINDRICAL_SURFACE('',#1358,3.2);
#35=CYLINDRICAL_SURFACE('',#1360,1.6);
#36=CYLINDRICAL_SURFACE('',#1362,1.6);
#37=CYLINDRICAL_SURFACE('',#1364,1.6);
#38=CYLINDRICAL_SURFACE('',#1366,1.6);
#39=FACE_BOUND('',#153,.T.);
#40=FACE_BOUND('',#154,.T.);
#41=FACE_BOUND('',#155,.T.);
#42=FACE_BOUND('',#156,.T.);
#43=FACE_BOUND('',#169,.T.);
#44=FACE_BOUND('',#172,.T.);
#45=FACE_BOUND('',#173,.T.);
#46=FACE_BOUND('',#174,.T.);
#47=FACE_BOUND('',#175,.T.);
#48=FACE_BOUND('',#176,.T.);
#49=FACE_BOUND('',#196,.T.);
#50=FACE_BOUND('',#198,.T.);
#51=FACE_BOUND('',#199,.T.);
#52=FACE_BOUND('',#202,.T.);
#53=FACE_BOUND('',#203,.T.);
#54=FACE_BOUND('',#204,.T.);
#55=FACE_BOUND('',#205,.T.);
#56=FACE_BOUND('',#206,.T.);
#57=FACE_OUTER_BOUND('',#123,.T.);
#58=FACE_OUTER_BOUND('',#124,.T.);
#59=FACE_OUTER_BOUND('',#125,.T.);
#60=FACE_OUTER_BOUND('',#126,.T.);
#61=FACE_OUTER_BOUND('',#127,.T.);
#62=FACE_OUTER_BOUND('',#128,.T.);
#63=FACE_OUTER_BOUND('',#129,.T.);
#64=FACE_OUTER_BOUND('',#130,.T.);
#65=FACE_OUTER_BOUND('',#131,.T.);
#66=FACE_OUTER_BOUND('',#132,.T.);
#67=FACE_OUTER_BOUND('',#133,.T.);
#68=FACE_OUTER_BOUND('',#134,.T.);
#69=FACE_OUTER_BOUND('',#135,.T.);
#70=FACE_OUTER_BOUND('',#136,.T.);
#71=FACE_OUTER_BOUND('',#137,.T.);
#72=FACE_OUTER_BOUND('',#138,.T.);
#73=FACE_OUTER_BOUND('',#139,.T.);
#74=FACE_OUTER_BOUND('',#140,.T.);
#75=FACE_OUTER_BOUND('',#141,.T.);
#76=FACE_OUTER_BOUND('',#142,.T.);
#77=FACE_OUTER_BOUND('',#143,.T.);
#78=FACE_OUTER_BOUND('',#144,.T.);
#79=FACE_OUTER_BOUND('',#145,.T.);
#80=FACE_OUTER_BOUND('',#146,.T.);
#81=FACE_OUTER_BOUND('',#147,.T.);
#82=FACE_OUTER_BOUND('',#148,.T.);
#83=FACE_OUTER_BOUND('',#149,.T.);
#84=FACE_OUTER_BOUND('',#150,.T.);
#85=FACE_OUTER_BOUND('',#151,.T.);
#86=FACE_OUTER_BOUND('',#152,.T.);
#87=FACE_OUTER_BOUND('',#157,.T.);
#88=FACE_OUTER_BOUND('',#158,.T.);
#89=FACE_OUTER_BOUND('',#159,.T.);
#90=FACE_OUTER_BOUND('',#160,.T.);
#91=FACE_OUTER_BOUND('',#161,.T.);
#92=FACE_OUTER_BOUND('',#162,.T.);
#93=FACE_OUTER_BOUND('',#163,.T.);
#94=FACE_OUTER_BOUND('',#164,.T.);
#95=FACE_OUTER_BOUND('',#165,.T.);
#96=FACE_OUTER_BOUND('',#166,.T.);
#97=FACE_OUTER_BOUND('',#167,.T.);
#98=FACE_OUTER_BOUND('',#168,.T.);
#99=FACE_OUTER_BOUND('',#170,.T.);
#100=FACE_OUTER_BOUND('',#171,.T.);
#101=FACE_OUTER_BOUND('',#177,.T.);
#102=FACE_OUTER_BOUND('',#178,.T.);
#103=FACE_OUTER_BOUND('',#179,.T.);
#104=FACE_OUTER_BOUND('',#180,.T.);
#105=FACE_OUTER_BOUND('',#181,.T.);
#106=FACE_OUTER_BOUND('',#182,.T.);
#107=FACE_OUTER_BOUND('',#183,.T.);
#108=FACE_OUTER_BOUND('',#184,.T.);
#109=FACE_OUTER_BOUND('',#185,.T.);
#110=FACE_OUTER_BOUND('',#186,.T.);
#111=FACE_OUTER_BOUND('',#187,.T.);
#112=FACE_OUTER_BOUND('',#188,.T.);
#113=FACE_OUTER_BOUND('',#189,.T.);
#114=FACE_OUTER_BOUND('',#190,.T.);
#115=FACE_OUTER_BOUND('',#191,.T.);
#116=FACE_OUTER_BOUND('',#192,.T.);
#117=FACE_OUTER_BOUND('',#193,.T.);
#118=FACE_OUTER_BOUND('',#194,.T.);
#119=FACE_OUTER_BOUND('',#195,.T.);
#120=FACE_OUTER_BOUND('',#197,.T.);
#121=FACE_OUTER_BOUND('',#200,.T.);
#122=FACE_OUTER_BOUND('',#201,.T.);
#123=EDGE_LOOP('',(#813,#814,#815,#816));
#124=EDGE_LOOP('',(#817,#818,#819,#820));
#125=EDGE_LOOP('',(#821,#822,#823,#824));
#126=EDGE_LOOP('',(#825,#826,#827,#828));
#127=EDGE_LOOP('',(#829,#830,#831,#832));
#128=EDGE_LOOP('',(#833,#834,#835,#836));
#129=EDGE_LOOP('',(#837,#838,#839,#840));
#130=EDGE_LOOP('',(#841,#842,#843,#844));
#131=EDGE_LOOP('',(#845,#846,#847,#848));
#132=EDGE_LOOP('',(#849,#850,#851,#852));
#133=EDGE_LOOP('',(#853,#854,#855,#856));
#134=EDGE_LOOP('',(#857,#858,#859,#860));
#135=EDGE_LOOP('',(#861,#862,#863,#864));
#136=EDGE_LOOP('',(#865,#866,#867,#868));
#137=EDGE_LOOP('',(#869,#870,#871,#872));
#138=EDGE_LOOP('',(#873,#874,#875,#876));
#139=EDGE_LOOP('',(#877,#878,#879,#880));
#140=EDGE_LOOP('',(#881,#882,#883,#884));
#141=EDGE_LOOP('',(#885,#886,#887,#888));
#142=EDGE_LOOP('',(#889,#890,#891,#892));
#143=EDGE_LOOP('',(#893,#894,#895,#896));
#144=EDGE_LOOP('',(#897,#898,#899,#900));
#145=EDGE_LOOP('',(#901,#902,#903,#904));
#146=EDGE_LOOP('',(#905,#906,#907,#908));
#147=EDGE_LOOP('',(#909,#910,#911,#912));
#148=EDGE_LOOP('',(#913,#914,#915,#916,#917,#918));
#149=EDGE_LOOP('',(#919,#920,#921,#922,#923,#924,#925,#926));
#150=EDGE_LOOP('',(#927,#928,#929,#930,#931,#932));
#151=EDGE_LOOP('',(#933,#934,#935,#936));
#152=EDGE_LOOP('',(#937,#938,#939,#940,#941,#942,#943,#944,#945,#946,#947,
#948));
#153=EDGE_LOOP('',(#949,#950,#951,#952));
#154=EDGE_LOOP('',(#953,#954,#955,#956));
#155=EDGE_LOOP('',(#957,#958,#959,#960));
#156=EDGE_LOOP('',(#961,#962,#963,#964));
#157=EDGE_LOOP('',(#965,#966,#967,#968));
#158=EDGE_LOOP('',(#969,#970,#971,#972));
#159=EDGE_LOOP('',(#973,#974,#975,#976));
#160=EDGE_LOOP('',(#977,#978,#979,#980));
#161=EDGE_LOOP('',(#981,#982,#983,#984,#985,#986));
#162=EDGE_LOOP('',(#987,#988,#989,#990));
#163=EDGE_LOOP('',(#991,#992,#993,#994));
#164=EDGE_LOOP('',(#995,#996,#997,#998,#999,#1000));
#165=EDGE_LOOP('',(#1001,#1002,#1003,#1004));
#166=EDGE_LOOP('',(#1005,#1006,#1007,#1008));
#167=EDGE_LOOP('',(#1009,#1010,#1011,#1012));
#168=EDGE_LOOP('',(#1013,#1014,#1015,#1016));
#169=EDGE_LOOP('',(#1017,#1018,#1019,#1020));
#170=EDGE_LOOP('',(#1021,#1022,#1023,#1024));
#171=EDGE_LOOP('',(#1025,#1026,#1027,#1028,#1029,#1030,#1031,#1032,#1033,
#1034,#1035,#1036));
#172=EDGE_LOOP('',(#1037,#1038,#1039,#1040));
#173=EDGE_LOOP('',(#1041));
#174=EDGE_LOOP('',(#1042));
#175=EDGE_LOOP('',(#1043));
#176=EDGE_LOOP('',(#1044));
#177=EDGE_LOOP('',(#1045,#1046,#1047,#1048));
#178=EDGE_LOOP('',(#1049,#1050,#1051,#1052));
#179=EDGE_LOOP('',(#1053,#1054,#1055,#1056));
#180=EDGE_LOOP('',(#1057,#1058,#1059,#1060));
#181=EDGE_LOOP('',(#1061,#1062,#1063,#1064));
#182=EDGE_LOOP('',(#1065,#1066,#1067,#1068));
#183=EDGE_LOOP('',(#1069,#1070,#1071,#1072));
#184=EDGE_LOOP('',(#1073,#1074,#1075,#1076));
#185=EDGE_LOOP('',(#1077,#1078,#1079,#1080));
#186=EDGE_LOOP('',(#1081,#1082,#1083,#1084));
#187=EDGE_LOOP('',(#1085,#1086,#1087,#1088));
#188=EDGE_LOOP('',(#1089,#1090,#1091,#1092));
#189=EDGE_LOOP('',(#1093,#1094,#1095,#1096));
#190=EDGE_LOOP('',(#1097,#1098,#1099,#1100));
#191=EDGE_LOOP('',(#1101,#1102,#1103,#1104));
#192=EDGE_LOOP('',(#1105,#1106,#1107,#1108));
#193=EDGE_LOOP('',(#1109,#1110,#1111,#1112));
#194=EDGE_LOOP('',(#1113,#1114,#1115,#1116));
#195=EDGE_LOOP('',(#1117,#1118,#1119,#1120));
#196=EDGE_LOOP('',(#1121,#1122,#1123,#1124));
#197=EDGE_LOOP('',(#1125,#1126,#1127,#1128,#1129,#1130,#1131,#1132));
#198=EDGE_LOOP('',(#1133,#1134,#1135,#1136));
#199=EDGE_LOOP('',(#1137,#1138,#1139,#1140));
#200=EDGE_LOOP('',(#1141,#1142,#1143,#1144));
#201=EDGE_LOOP('',(#1145,#1146,#1147,#1148,#1149,#1150,#1151,#1152));
#202=EDGE_LOOP('',(#1153));
#203=EDGE_LOOP('',(#1154));
#204=EDGE_LOOP('',(#1155));
#205=EDGE_LOOP('',(#1156));
#206=EDGE_LOOP('',(#1157,#1158,#1159,#1160));
#207=LINE('',#1709,#365);
#208=LINE('',#1711,#366);
#209=LINE('',#1713,#367);
#210=LINE('',#1714,#368);
#211=LINE('',#1717,#369);
#212=LINE('',#1719,#370);
#213=LINE('',#1720,#371);
#214=LINE('',#1723,#372);
#215=LINE('',#1725,#373);
#216=LINE('',#1726,#374);
#217=LINE('',#1728,#375);
#218=LINE('',#1729,#376);
#219=LINE('',#1734,#377);
#220=LINE('',#1736,#378);
#221=LINE('',#1738,#379);
#222=LINE('',#1739,#380);
#223=LINE('',#1742,#381);
#224=LINE('',#1744,#382);
#225=LINE('',#1745,#383);
#226=LINE('',#1748,#384);
#227=LINE('',#1750,#385);
#228=LINE('',#1751,#386);
#229=LINE('',#1753,#387);
#230=LINE('',#1754,#388);
#231=LINE('',#1759,#389);
#232=LINE('',#1761,#390);
#233=LINE('',#1763,#391);
#234=LINE('',#1764,#392);
#235=LINE('',#1767,#393);
#236=LINE('',#1769,#394);
#237=LINE('',#1770,#395);
#238=LINE('',#1773,#396);
#239=LINE('',#1775,#397);
#240=LINE('',#1776,#398);
#241=LINE('',#1778,#399);
#242=LINE('',#1779,#400);
#243=LINE('',#1784,#401);
#244=LINE('',#1786,#402);
#245=LINE('',#1788,#403);
#246=LINE('',#1789,#404);
#247=LINE('',#1792,#405);
#248=LINE('',#1794,#406);
#249=LINE('',#1795,#407);
#250=LINE('',#1798,#408);
#251=LINE('',#1800,#409);
#252=LINE('',#1801,#410);
#253=LINE('',#1803,#411);
#254=LINE('',#1804,#412);
#255=LINE('',#1809,#413);
#256=LINE('',#1811,#414);
#257=LINE('',#1813,#415);
#258=LINE('',#1814,#416);
#259=LINE('',#1817,#417);
#260=LINE('',#1819,#418);
#261=LINE('',#1820,#419);
#262=LINE('',#1823,#420);
#263=LINE('',#1825,#421);
#264=LINE('',#1826,#422);
#265=LINE('',#1828,#423);
#266=LINE('',#1829,#424);
#267=LINE('',#1834,#425);
#268=LINE('',#1836,#426);
#269=LINE('',#1838,#427);
#270=LINE('',#1840,#428);
#271=LINE('',#1842,#429);
#272=LINE('',#1843,#430);
#273=LINE('',#1847,#431);
#274=LINE('',#1848,#432);
#275=LINE('',#1850,#433);
#276=LINE('',#1852,#434);
#277=LINE('',#1854,#435);
#278=LINE('',#1856,#436);
#279=LINE('',#1857,#437);
#280=LINE('',#1861,#438);
#281=LINE('',#1862,#439);
#282=LINE('',#1864,#440);
#283=LINE('',#1866,#441);
#284=LINE('',#1867,#442);
#285=LINE('',#1869,#443);
#286=LINE('',#1870,#444);
#287=LINE('',#1873,#445);
#288=LINE('',#1875,#446);
#289=LINE('',#1877,#447);
#290=LINE('',#1878,#448);
#291=LINE('',#1880,#449);
#292=LINE('',#1882,#450);
#293=LINE('',#1884,#451);
#294=LINE('',#1885,#452);
#295=LINE('',#1888,#453);
#296=LINE('',#1889,#454);
#297=LINE('',#1892,#455);
#298=LINE('',#1893,#456);
#299=LINE('',#1896,#457);
#300=LINE('',#1897,#458);
#301=LINE('',#1900,#459);
#302=LINE('',#1901,#460);
#303=LINE('',#1903,#461);
#304=LINE('',#1906,#462);
#305=LINE('',#1907,#463);
#306=LINE('',#1910,#464);
#307=LINE('',#1911,#465);
#308=LINE('',#1913,#466);
#309=LINE('',#1917,#467);
#310=LINE('',#1919,#468);
#311=LINE('',#1921,#469);
#312=LINE('',#1922,#470);
#313=LINE('',#1925,#471);
#314=LINE('',#1927,#472);
#315=LINE('',#1928,#473);
#316=LINE('',#1931,#474);
#317=LINE('',#1933,#475);
#318=LINE('',#1934,#476);
#319=LINE('',#1936,#477);
#320=LINE('',#1942,#478);
#321=LINE('',#1945,#479);
#322=LINE('',#1947,#480);
#323=LINE('',#1949,#481);
#324=LINE('',#1953,#482);
#325=LINE('',#1957,#483);
#326=LINE('',#1960,#484);
#327=LINE('',#1971,#485);
#328=LINE('',#1972,#486);
#329=LINE('',#1976,#487);
#330=LINE('',#1981,#488);
#331=LINE('',#1982,#489);
#332=LINE('',#1985,#490);
#333=LINE('',#1986,#491);
#334=LINE('',#1990,#492);
#335=LINE('',#1994,#493);
#336=LINE('',#1998,#494);
#337=LINE('',#2002,#495);
#338=LINE('',#2006,#496);
#339=LINE('',#2010,#497);
#340=LINE('',#2012,#498);
#341=LINE('',#2014,#499);
#342=LINE('',#2015,#500);
#343=LINE('',#2018,#501);
#344=LINE('',#2020,#502);
#345=LINE('',#2021,#503);
#346=LINE('',#2024,#504);
#347=LINE('',#2026,#505);
#348=LINE('',#2027,#506);
#349=LINE('',#2029,#507);
#350=LINE('',#2030,#508);
#351=LINE('',#2035,#509);
#352=LINE('',#2037,#510);
#353=LINE('',#2039,#511);
#354=LINE('',#2040,#512);
#355=LINE('',#2043,#513);
#356=LINE('',#2045,#514);
#357=LINE('',#2046,#515);
#358=LINE('',#2049,#516);
#359=LINE('',#2051,#517);
#360=LINE('',#2052,#518);
#361=LINE('',#2054,#519);
#362=LINE('',#2055,#520);
#363=LINE('',#2058,#521);
#364=LINE('',#2060,#522);
#365=VECTOR('',#1385,10.);
#366=VECTOR('',#1386,10.);
#367=VECTOR('',#1387,10.);
#368=VECTOR('',#1388,10.);
#369=VECTOR('',#1391,10.);
#370=VECTOR('',#1392,10.);
#371=VECTOR('',#1393,10.);
#372=VECTOR('',#1396,10.);
#373=VECTOR('',#1397,10.);
#374=VECTOR('',#1398,10.);
#375=VECTOR('',#1401,10.);
#376=VECTOR('',#1402,10.);
#377=VECTOR('',#1407,10.);
#378=VECTOR('',#1408,10.);
#379=VECTOR('',#1409,10.);
#380=VECTOR('',#1410,10.);
#381=VECTOR('',#1413,10.);
#382=VECTOR('',#1414,10.);
#383=VECTOR('',#1415,10.);
#384=VECTOR('',#1418,10.);
#385=VECTOR('',#1419,10.);
#386=VECTOR('',#1420,10.);
#387=VECTOR('',#1423,10.);
#388=VECTOR('',#1424,10.);
#389=VECTOR('',#1429,10.);
#390=VECTOR('',#1430,10.);
#391=VECTOR('',#1431,10.);
#392=VECTOR('',#1432,10.);
#393=VECTOR('',#1435,10.);
#394=VECTOR('',#1436,10.);
#395=VECTOR('',#1437,10.);
#396=VECTOR('',#1440,10.);
#397=VECTOR('',#1441,10.);
#398=VECTOR('',#1442,10.);
#399=VECTOR('',#1445,10.);
#400=VECTOR('',#1446,10.);
#401=VECTOR('',#1451,10.);
#402=VECTOR('',#1452,10.);
#403=VECTOR('',#1453,10.);
#404=VECTOR('',#1454,10.);
#405=VECTOR('',#1457,10.);
#406=VECTOR('',#1458,10.);
#407=VECTOR('',#1459,10.);
#408=VECTOR('',#1462,10.);
#409=VECTOR('',#1463,10.);
#410=VECTOR('',#1464,10.);
#411=VECTOR('',#1467,10.);
#412=VECTOR('',#1468,10.);
#413=VECTOR('',#1473,10.);
#414=VECTOR('',#1474,10.);
#415=VECTOR('',#1475,10.);
#416=VECTOR('',#1476,10.);
#417=VECTOR('',#1479,10.);
#418=VECTOR('',#1480,10.);
#419=VECTOR('',#1481,10.);
#420=VECTOR('',#1484,10.);
#421=VECTOR('',#1485,10.);
#422=VECTOR('',#1486,10.);
#423=VECTOR('',#1489,10.);
#424=VECTOR('',#1490,10.);
#425=VECTOR('',#1495,10.);
#426=VECTOR('',#1496,10.);
#427=VECTOR('',#1497,10.);
#428=VECTOR('',#1498,10.);
#429=VECTOR('',#1499,10.);
#430=VECTOR('',#1500,10.);
#431=VECTOR('',#1503,10.);
#432=VECTOR('',#1504,10.);
#433=VECTOR('',#1505,10.);
#434=VECTOR('',#1506,10.);
#435=VECTOR('',#1507,10.);
#436=VECTOR('',#1508,10.);
#437=VECTOR('',#1509,10.);
#438=VECTOR('',#1512,10.);
#439=VECTOR('',#1513,10.);
#440=VECTOR('',#1514,10.);
#441=VECTOR('',#1515,10.);
#442=VECTOR('',#1516,10.);
#443=VECTOR('',#1519,10.);
#444=VECTOR('',#1520,10.);
#445=VECTOR('',#1523,10.);
#446=VECTOR('',#1524,10.);
#447=VECTOR('',#1525,10.);
#448=VECTOR('',#1526,10.);
#449=VECTOR('',#1527,10.);
#450=VECTOR('',#1528,10.);
#451=VECTOR('',#1529,10.);
#452=VECTOR('',#1530,10.);
#453=VECTOR('',#1533,10.);
#454=VECTOR('',#1534,10.);
#455=VECTOR('',#1537,10.);
#456=VECTOR('',#1538,10.);
#457=VECTOR('',#1541,10.);
#458=VECTOR('',#1542,10.);
#459=VECTOR('',#1545,10.);
#460=VECTOR('',#1546,10.);
#461=VECTOR('',#1549,10.);
#462=VECTOR('',#1552,10.);
#463=VECTOR('',#1553,10.);
#464=VECTOR('',#1556,10.);
#465=VECTOR('',#1557,10.);
#466=VECTOR('',#1560,10.);
#467=VECTOR('',#1563,10.);
#468=VECTOR('',#1564,10.);
#469=VECTOR('',#1565,10.);
#470=VECTOR('',#1566,10.);
#471=VECTOR('',#1569,10.);
#472=VECTOR('',#1570,10.);
#473=VECTOR('',#1571,10.);
#474=VECTOR('',#1574,10.);
#475=VECTOR('',#1575,10.);
#476=VECTOR('',#1576,10.);
#477=VECTOR('',#1579,10.);
#478=VECTOR('',#1584,10.);
#479=VECTOR('',#1587,10.);
#480=VECTOR('',#1590,10.);
#481=VECTOR('',#1591,10.);
#482=VECTOR('',#1594,10.);
#483=VECTOR('',#1597,10.);
#484=VECTOR('',#1600,10.);
#485=VECTOR('',#1611,10.);
#486=VECTOR('',#1612,10.);
#487=VECTOR('',#1617,10.);
#488=VECTOR('',#1622,10.);
#489=VECTOR('',#1623,10.);
#490=VECTOR('',#1626,10.);
#491=VECTOR('',#1627,10.);
#492=VECTOR('',#1632,10.);
#493=VECTOR('',#1637,1.6);
#494=VECTOR('',#1642,1.6);
#495=VECTOR('',#1647,1.6);
#496=VECTOR('',#1652,1.6);
#497=VECTOR('',#1655,10.);
#498=VECTOR('',#1656,10.);
#499=VECTOR('',#1657,10.);
#500=VECTOR('',#1658,10.);
#501=VECTOR('',#1661,10.);
#502=VECTOR('',#1662,10.);
#503=VECTOR('',#1663,10.);
#504=VECTOR('',#1666,10.);
#505=VECTOR('',#1667,10.);
#506=VECTOR('',#1668,10.);
#507=VECTOR('',#1671,10.);
#508=VECTOR('',#1672,10.);
#509=VECTOR('',#1677,10.);
#510=VECTOR('',#1678,10.);
#511=VECTOR('',#1679,10.);
#512=VECTOR('',#1680,10.);
#513=VECTOR('',#1683,10.);
#514=VECTOR('',#1684,10.);
#515=VECTOR('',#1685,10.);
#516=VECTOR('',#1688,10.);
#517=VECTOR('',#1689,10.);
#518=VECTOR('',#1690,10.);
#519=VECTOR('',#1693,10.);
#520=VECTOR('',#1694,10.);
#521=VECTOR('',#1699,10.);
#522=VECTOR('',#1702,10.);
#523=VERTEX_POINT('',#1707);
#524=VERTEX_POINT('',#1708);
#525=VERTEX_POINT('',#1710);
#526=VERTEX_POINT('',#1712);
#527=VERTEX_POINT('',#1716);
#528=VERTEX_POINT('',#1718);
#529=VERTEX_POINT('',#1722);
#530=VERTEX_POINT('',#1724);
#531=VERTEX_POINT('',#1732);
#532=VERTEX_POINT('',#1733);
#533=VERTEX_POINT('',#1735);
#534=VERTEX_POINT('',#1737);
#535=VERTEX_POINT('',#1741);
#536=VERTEX_POINT('',#1743);
#537=VERTEX_POINT('',#1747);
#538=VERTEX_POINT('',#1749);
#539=VERTEX_POINT('',#1757);
#540=VERTEX_POINT('',#1758);
#541=VERTEX_POINT('',#1760);
#542=VERTEX_POINT('',#1762);
#543=VERTEX_POINT('',#1766);
#544=VERTEX_POINT('',#1768);
#545=VERTEX_POINT('',#1772);
#546=VERTEX_POINT('',#1774);
#547=VERTEX_POINT('',#1782);
#548=VERTEX_POINT('',#1783);
#549=VERTEX_POINT('',#1785);
#550=VERTEX_POINT('',#1787);
#551=VERTEX_POINT('',#1791);
#552=VERTEX_POINT('',#1793);
#553=VERTEX_POINT('',#1797);
#554=VERTEX_POINT('',#1799);
#555=VERTEX_POINT('',#1807);
#556=VERTEX_POINT('',#1808);
#557=VERTEX_POINT('',#1810);
#558=VERTEX_POINT('',#1812);
#559=VERTEX_POINT('',#1816);
#560=VERTEX_POINT('',#1818);
#561=VERTEX_POINT('',#1822);
#562=VERTEX_POINT('',#1824);
#563=VERTEX_POINT('',#1832);
#564=VERTEX_POINT('',#1833);
#565=VERTEX_POINT('',#1835);
#566=VERTEX_POINT('',#1837);
#567=VERTEX_POINT('',#1839);
#568=VERTEX_POINT('',#1841);
#569=VERTEX_POINT('',#1845);
#570=VERTEX_POINT('',#1846);
#571=VERTEX_POINT('',#1849);
#572=VERTEX_POINT('',#1851);
#573=VERTEX_POINT('',#1853);
#574=VERTEX_POINT('',#1855);
#575=VERTEX_POINT('',#1859);
#576=VERTEX_POINT('',#1860);
#577=VERTEX_POINT('',#1863);
#578=VERTEX_POINT('',#1865);
#579=VERTEX_POINT('',#1872);
#580=VERTEX_POINT('',#1874);
#581=VERTEX_POINT('',#1876);
#582=VERTEX_POINT('',#1879);
#583=VERTEX_POINT('',#1881);
#584=VERTEX_POINT('',#1883);
#585=VERTEX_POINT('',#1887);
#586=VERTEX_POINT('',#1891);
#587=VERTEX_POINT('',#1895);
#588=VERTEX_POINT('',#1899);
#589=VERTEX_POINT('',#1905);
#590=VERTEX_POINT('',#1909);
#591=VERTEX_POINT('',#1915);
#592=VERTEX_POINT('',#1916);
#593=VERTEX_POINT('',#1918);
#594=VERTEX_POINT('',#1920);
#595=VERTEX_POINT('',#1924);
#596=VERTEX_POINT('',#1926);
#597=VERTEX_POINT('',#1930);
#598=VERTEX_POINT('',#1932);
#599=VERTEX_POINT('',#1938);
#600=VERTEX_POINT('',#1939);
#601=VERTEX_POINT('',#1941);
#602=VERTEX_POINT('',#1943);
#603=VERTEX_POINT('',#1948);
#604=VERTEX_POINT('',#1950);
#605=VERTEX_POINT('',#1952);
#606=VERTEX_POINT('',#1954);
#607=VERTEX_POINT('',#1956);
#608=VERTEX_POINT('',#1958);
#609=VERTEX_POINT('',#1961);
#610=VERTEX_POINT('',#1963);
#611=VERTEX_POINT('',#1965);
#612=VERTEX_POINT('',#1967);
#613=VERTEX_POINT('',#1970);
#614=VERTEX_POINT('',#1974);
#615=VERTEX_POINT('',#1978);
#616=VERTEX_POINT('',#1979);
#617=VERTEX_POINT('',#1984);
#618=VERTEX_POINT('',#1988);
#619=VERTEX_POINT('',#1992);
#620=VERTEX_POINT('',#1996);
#621=VERTEX_POINT('',#2000);
#622=VERTEX_POINT('',#2004);
#623=VERTEX_POINT('',#2008);
#624=VERTEX_POINT('',#2009);
#625=VERTEX_POINT('',#2011);
#626=VERTEX_POINT('',#2013);
#627=VERTEX_POINT('',#2017);
#628=VERTEX_POINT('',#2019);
#629=VERTEX_POINT('',#2023);
#630=VERTEX_POINT('',#2025);
#631=VERTEX_POINT('',#2033);
#632=VERTEX_POINT('',#2034);
#633=VERTEX_POINT('',#2036);
#634=VERTEX_POINT('',#2038);
#635=VERTEX_POINT('',#2042);
#636=VERTEX_POINT('',#2044);
#637=VERTEX_POINT('',#2048);
#638=VERTEX_POINT('',#2050);
#639=EDGE_CURVE('',#523,#524,#207,.T.);
#640=EDGE_CURVE('',#523,#525,#208,.T.);
#641=EDGE_CURVE('',#526,#525,#209,.T.);
#642=EDGE_CURVE('',#524,#526,#210,.T.);
#643=EDGE_CURVE('',#524,#527,#211,.T.);
#644=EDGE_CURVE('',#528,#526,#212,.T.);
#645=EDGE_CURVE('',#527,#528,#213,.T.);
#646=EDGE_CURVE('',#527,#529,#214,.T.);
#647=EDGE_CURVE('',#530,#528,#215,.T.);
#648=EDGE_CURVE('',#529,#530,#216,.T.);
#649=EDGE_CURVE('',#529,#523,#217,.T.);
#650=EDGE_CURVE('',#525,#530,#218,.T.);
#651=EDGE_CURVE('',#531,#532,#219,.T.);
#652=EDGE_CURVE('',#531,#533,#220,.T.);
#653=EDGE_CURVE('',#534,#533,#221,.T.);
#654=EDGE_CURVE('',#532,#534,#222,.T.);
#655=EDGE_CURVE('',#532,#535,#223,.T.);
#656=EDGE_CURVE('',#536,#534,#224,.T.);
#657=EDGE_CURVE('',#535,#536,#225,.T.);
#658=EDGE_CURVE('',#535,#537,#226,.T.);
#659=EDGE_CURVE('',#538,#536,#227,.T.);
#660=EDGE_CURVE('',#537,#538,#228,.T.);
#661=EDGE_CURVE('',#537,#531,#229,.T.);
#662=EDGE_CURVE('',#533,#538,#230,.T.);
#663=EDGE_CURVE('',#539,#540,#231,.T.);
#664=EDGE_CURVE('',#539,#541,#232,.T.);
#665=EDGE_CURVE('',#542,#541,#233,.T.);
#666=EDGE_CURVE('',#540,#542,#234,.T.);
#667=EDGE_CURVE('',#540,#543,#235,.T.);
#668=EDGE_CURVE('',#544,#542,#236,.T.);
#669=EDGE_CURVE('',#543,#544,#237,.T.);
#670=EDGE_CURVE('',#543,#545,#238,.T.);
#671=EDGE_CURVE('',#546,#544,#239,.T.);
#672=EDGE_CURVE('',#545,#546,#240,.T.);
#673=EDGE_CURVE('',#545,#539,#241,.T.);
#674=EDGE_CURVE('',#541,#546,#242,.T.);
#675=EDGE_CURVE('',#547,#548,#243,.T.);
#676=EDGE_CURVE('',#547,#549,#244,.T.);
#677=EDGE_CURVE('',#550,#549,#245,.T.);
#678=EDGE_CURVE('',#548,#550,#246,.T.);
#679=EDGE_CURVE('',#548,#551,#247,.T.);
#680=EDGE_CURVE('',#552,#550,#248,.T.);
#681=EDGE_CURVE('',#551,#552,#249,.T.);
#682=EDGE_CURVE('',#551,#553,#250,.T.);
#683=EDGE_CURVE('',#554,#552,#251,.T.);
#684=EDGE_CURVE('',#553,#554,#252,.T.);
#685=EDGE_CURVE('',#553,#547,#253,.T.);
#686=EDGE_CURVE('',#549,#554,#254,.T.);
#687=EDGE_CURVE('',#555,#556,#255,.T.);
#688=EDGE_CURVE('',#555,#557,#256,.T.);
#689=EDGE_CURVE('',#558,#557,#257,.T.);
#690=EDGE_CURVE('',#556,#558,#258,.T.);
#691=EDGE_CURVE('',#556,#559,#259,.T.);
#692=EDGE_CURVE('',#560,#558,#260,.T.);
#693=EDGE_CURVE('',#559,#560,#261,.T.);
#694=EDGE_CURVE('',#559,#561,#262,.T.);
#695=EDGE_CURVE('',#562,#560,#263,.T.);
#696=EDGE_CURVE('',#561,#562,#264,.T.);
#697=EDGE_CURVE('',#561,#555,#265,.T.);
#698=EDGE_CURVE('',#557,#562,#266,.T.);
#699=EDGE_CURVE('',#563,#564,#267,.T.);
#700=EDGE_CURVE('',#563,#565,#268,.T.);
#701=EDGE_CURVE('',#566,#565,#269,.T.);
#702=EDGE_CURVE('',#567,#566,#270,.T.);
#703=EDGE_CURVE('',#567,#568,#271,.T.);
#704=EDGE_CURVE('',#564,#568,#272,.T.);
#705=EDGE_CURVE('',#569,#570,#273,.T.);
#706=EDGE_CURVE('',#568,#569,#274,.T.);
#707=EDGE_CURVE('',#571,#567,#275,.T.);
#708=EDGE_CURVE('',#571,#572,#276,.T.);
#709=EDGE_CURVE('',#573,#572,#277,.T.);
#710=EDGE_CURVE('',#574,#573,#278,.T.);
#711=EDGE_CURVE('',#574,#570,#279,.T.);
#712=EDGE_CURVE('',#575,#576,#280,.T.);
#713=EDGE_CURVE('',#572,#575,#281,.T.);
#714=EDGE_CURVE('',#577,#571,#282,.T.);
#715=EDGE_CURVE('',#577,#578,#283,.T.);
#716=EDGE_CURVE('',#578,#576,#284,.T.);
#717=EDGE_CURVE('',#566,#577,#285,.T.);
#718=EDGE_CURVE('',#565,#578,#286,.T.);
#719=EDGE_CURVE('',#579,#574,#287,.T.);
#720=EDGE_CURVE('',#580,#579,#288,.T.);
#721=EDGE_CURVE('',#580,#581,#289,.T.);
#722=EDGE_CURVE('',#581,#576,#290,.T.);
#723=EDGE_CURVE('',#563,#582,#291,.T.);
#724=EDGE_CURVE('',#583,#582,#292,.T.);
#725=EDGE_CURVE('',#584,#583,#293,.T.);
#726=EDGE_CURVE('',#584,#570,#294,.T.);
#727=EDGE_CURVE('',#585,#564,#295,.T.);
#728=EDGE_CURVE('',#582,#585,#296,.T.);
#729=EDGE_CURVE('',#586,#581,#297,.T.);
#730=EDGE_CURVE('',#575,#586,#298,.T.);
#731=EDGE_CURVE('',#583,#587,#299,.T.);
#732=EDGE_CURVE('',#587,#585,#300,.T.);
#733=EDGE_CURVE('',#588,#584,#301,.T.);
#734=EDGE_CURVE('',#588,#569,#302,.T.);
#735=EDGE_CURVE('',#587,#588,#303,.T.);
#736=EDGE_CURVE('',#589,#573,#304,.T.);
#737=EDGE_CURVE('',#579,#589,#305,.T.);
#738=EDGE_CURVE('',#590,#580,#306,.T.);
#739=EDGE_CURVE('',#590,#586,#307,.T.);
#740=EDGE_CURVE('',#589,#590,#308,.T.);
#741=EDGE_CURVE('',#591,#592,#309,.T.);
#742=EDGE_CURVE('',#591,#593,#310,.T.);
#743=EDGE_CURVE('',#594,#593,#311,.T.);
#744=EDGE_CURVE('',#592,#594,#312,.T.);
#745=EDGE_CURVE('',#592,#595,#313,.T.);
#746=EDGE_CURVE('',#596,#594,#314,.T.);
#747=EDGE_CURVE('',#595,#596,#315,.T.);
#748=EDGE_CURVE('',#595,#597,#316,.T.);
#749=EDGE_CURVE('',#598,#596,#317,.T.);
#750=EDGE_CURVE('',#597,#598,#318,.T.);
#751=EDGE_CURVE('',#593,#598,#319,.T.);
#752=EDGE_CURVE('',#599,#600,#15,.T.);
#753=EDGE_CURVE('',#600,#601,#320,.T.);
#754=EDGE_CURVE('',#601,#602,#16,.T.);
#755=EDGE_CURVE('',#602,#599,#321,.T.);
#756=EDGE_CURVE('',#597,#602,#322,.T.);
#757=EDGE_CURVE('',#601,#603,#323,.T.);
#758=EDGE_CURVE('',#604,#603,#17,.T.);
#759=EDGE_CURVE('',#604,#605,#324,.T.);
#760=EDGE_CURVE('',#606,#605,#18,.T.);
#761=EDGE_CURVE('',#606,#607,#325,.T.);
#762=EDGE_CURVE('',#608,#607,#19,.T.);
#763=EDGE_CURVE('',#608,#591,#326,.T.);
#764=EDGE_CURVE('',#609,#609,#20,.T.);
#765=EDGE_CURVE('',#610,#610,#21,.T.);
#766=EDGE_CURVE('',#611,#611,#22,.T.);
#767=EDGE_CURVE('',#612,#612,#23,.T.);
#768=EDGE_CURVE('',#613,#600,#327,.T.);
#769=EDGE_CURVE('',#603,#613,#328,.T.);
#770=EDGE_CURVE('',#613,#614,#24,.T.);
#771=EDGE_CURVE('',#614,#604,#329,.T.);
#772=EDGE_CURVE('',#615,#616,#25,.T.);
#773=EDGE_CURVE('',#616,#606,#330,.T.);
#774=EDGE_CURVE('',#605,#615,#331,.T.);
#775=EDGE_CURVE('',#617,#616,#332,.T.);
#776=EDGE_CURVE('',#607,#617,#333,.T.);
#777=EDGE_CURVE('',#617,#618,#26,.T.);
#778=EDGE_CURVE('',#618,#608,#334,.T.);
#779=EDGE_CURVE('',#619,#619,#27,.T.);
#780=EDGE_CURVE('',#619,#609,#335,.T.);
#781=EDGE_CURVE('',#620,#620,#28,.T.);
#782=EDGE_CURVE('',#620,#610,#336,.T.);
#783=EDGE_CURVE('',#621,#621,#29,.T.);
#784=EDGE_CURVE('',#621,#611,#337,.T.);
#785=EDGE_CURVE('',#622,#622,#30,.T.);
#786=EDGE_CURVE('',#622,#612,#338,.T.);
#787=EDGE_CURVE('',#623,#624,#339,.T.);
#788=EDGE_CURVE('',#623,#625,#340,.T.);
#789=EDGE_CURVE('',#625,#626,#341,.T.);
#790=EDGE_CURVE('',#624,#626,#342,.T.);
#791=EDGE_CURVE('',#627,#623,#343,.T.);
#792=EDGE_CURVE('',#627,#628,#344,.T.);
#793=EDGE_CURVE('',#628,#625,#345,.T.);
#794=EDGE_CURVE('',#629,#627,#346,.T.);
#795=EDGE_CURVE('',#629,#630,#347,.T.);
#796=EDGE_CURVE('',#630,#628,#348,.T.);
#797=EDGE_CURVE('',#624,#629,#349,.T.);
#798=EDGE_CURVE('',#626,#630,#350,.T.);
#799=EDGE_CURVE('',#631,#632,#351,.T.);
#800=EDGE_CURVE('',#631,#633,#352,.T.);
#801=EDGE_CURVE('',#634,#633,#353,.T.);
#802=EDGE_CURVE('',#632,#634,#354,.T.);
#803=EDGE_CURVE('',#632,#635,#355,.T.);
#804=EDGE_CURVE('',#636,#634,#356,.T.);
#805=EDGE_CURVE('',#635,#636,#357,.T.);
#806=EDGE_CURVE('',#635,#637,#358,.T.);
#807=EDGE_CURVE('',#638,#636,#359,.T.);
#808=EDGE_CURVE('',#637,#638,#360,.T.);
#809=EDGE_CURVE('',#637,#631,#361,.T.);
#810=EDGE_CURVE('',#633,#638,#362,.T.);
#811=EDGE_CURVE('',#599,#618,#363,.T.);
#812=EDGE_CURVE('',#615,#614,#364,.T.);
#813=ORIENTED_EDGE('',*,*,#639,.F.);
#814=ORIENTED_EDGE('',*,*,#640,.T.);
#815=ORIENTED_EDGE('',*,*,#641,.F.);
#816=ORIENTED_EDGE('',*,*,#642,.F.);
#817=ORIENTED_EDGE('',*,*,#643,.F.);
#818=ORIENTED_EDGE('',*,*,#642,.T.);
#819=ORIENTED_EDGE('',*,*,#644,.F.);
#820=ORIENTED_EDGE('',*,*,#645,.F.);
#821=ORIENTED_EDGE('',*,*,#646,.F.);
#822=ORIENTED_EDGE('',*,*,#645,.T.);
#823=ORIENTED_EDGE('',*,*,#647,.F.);
#824=ORIENTED_EDGE('',*,*,#648,.F.);
#825=ORIENTED_EDGE('',*,*,#649,.F.);
#826=ORIENTED_EDGE('',*,*,#648,.T.);
#827=ORIENTED_EDGE('',*,*,#650,.F.);
#828=ORIENTED_EDGE('',*,*,#640,.F.);
#829=ORIENTED_EDGE('',*,*,#650,.T.);
#830=ORIENTED_EDGE('',*,*,#647,.T.);
#831=ORIENTED_EDGE('',*,*,#644,.T.);
#832=ORIENTED_EDGE('',*,*,#641,.T.);
#833=ORIENTED_EDGE('',*,*,#651,.F.);
#834=ORIENTED_EDGE('',*,*,#652,.T.);
#835=ORIENTED_EDGE('',*,*,#653,.F.);
#836=ORIENTED_EDGE('',*,*,#654,.F.);
#837=ORIENTED_EDGE('',*,*,#655,.F.);
#838=ORIENTED_EDGE('',*,*,#654,.T.);
#839=ORIENTED_EDGE('',*,*,#656,.F.);
#840=ORIENTED_EDGE('',*,*,#657,.F.);
#841=ORIENTED_EDGE('',*,*,#658,.F.);
#842=ORIENTED_EDGE('',*,*,#657,.T.);
#843=ORIENTED_EDGE('',*,*,#659,.F.);
#844=ORIENTED_EDGE('',*,*,#660,.F.);
#845=ORIENTED_EDGE('',*,*,#661,.F.);
#846=ORIENTED_EDGE('',*,*,#660,.T.);
#847=ORIENTED_EDGE('',*,*,#662,.F.);
#848=ORIENTED_EDGE('',*,*,#652,.F.);
#849=ORIENTED_EDGE('',*,*,#662,.T.);
#850=ORIENTED_EDGE('',*,*,#659,.T.);
#851=ORIENTED_EDGE('',*,*,#656,.T.);
#852=ORIENTED_EDGE('',*,*,#653,.T.);
#853=ORIENTED_EDGE('',*,*,#663,.F.);
#854=ORIENTED_EDGE('',*,*,#664,.T.);
#855=ORIENTED_EDGE('',*,*,#665,.F.);
#856=ORIENTED_EDGE('',*,*,#666,.F.);
#857=ORIENTED_EDGE('',*,*,#667,.F.);
#858=ORIENTED_EDGE('',*,*,#666,.T.);
#859=ORIENTED_EDGE('',*,*,#668,.F.);
#860=ORIENTED_EDGE('',*,*,#669,.F.);
#861=ORIENTED_EDGE('',*,*,#670,.F.);
#862=ORIENTED_EDGE('',*,*,#669,.T.);
#863=ORIENTED_EDGE('',*,*,#671,.F.);
#864=ORIENTED_EDGE('',*,*,#672,.F.);
#865=ORIENTED_EDGE('',*,*,#673,.F.);
#866=ORIENTED_EDGE('',*,*,#672,.T.);
#867=ORIENTED_EDGE('',*,*,#674,.F.);
#868=ORIENTED_EDGE('',*,*,#664,.F.);
#869=ORIENTED_EDGE('',*,*,#674,.T.);
#870=ORIENTED_EDGE('',*,*,#671,.T.);
#871=ORIENTED_EDGE('',*,*,#668,.T.);
#872=ORIENTED_EDGE('',*,*,#665,.T.);
#873=ORIENTED_EDGE('',*,*,#675,.F.);
#874=ORIENTED_EDGE('',*,*,#676,.T.);
#875=ORIENTED_EDGE('',*,*,#677,.F.);
#876=ORIENTED_EDGE('',*,*,#678,.F.);
#877=ORIENTED_EDGE('',*,*,#679,.F.);
#878=ORIENTED_EDGE('',*,*,#678,.T.);
#879=ORIENTED_EDGE('',*,*,#680,.F.);
#880=ORIENTED_EDGE('',*,*,#681,.F.);
#881=ORIENTED_EDGE('',*,*,#682,.F.);
#882=ORIENTED_EDGE('',*,*,#681,.T.);
#883=ORIENTED_EDGE('',*,*,#683,.F.);
#884=ORIENTED_EDGE('',*,*,#684,.F.);
#885=ORIENTED_EDGE('',*,*,#685,.F.);
#886=ORIENTED_EDGE('',*,*,#684,.T.);
#887=ORIENTED_EDGE('',*,*,#686,.F.);
#888=ORIENTED_EDGE('',*,*,#676,.F.);
#889=ORIENTED_EDGE('',*,*,#686,.T.);
#890=ORIENTED_EDGE('',*,*,#683,.T.);
#891=ORIENTED_EDGE('',*,*,#680,.T.);
#892=ORIENTED_EDGE('',*,*,#677,.T.);
#893=ORIENTED_EDGE('',*,*,#687,.F.);
#894=ORIENTED_EDGE('',*,*,#688,.T.);
#895=ORIENTED_EDGE('',*,*,#689,.F.);
#896=ORIENTED_EDGE('',*,*,#690,.F.);
#897=ORIENTED_EDGE('',*,*,#691,.F.);
#898=ORIENTED_EDGE('',*,*,#690,.T.);
#899=ORIENTED_EDGE('',*,*,#692,.F.);
#900=ORIENTED_EDGE('',*,*,#693,.F.);
#901=ORIENTED_EDGE('',*,*,#694,.F.);
#902=ORIENTED_EDGE('',*,*,#693,.T.);
#903=ORIENTED_EDGE('',*,*,#695,.F.);
#904=ORIENTED_EDGE('',*,*,#696,.F.);
#905=ORIENTED_EDGE('',*,*,#697,.F.);
#906=ORIENTED_EDGE('',*,*,#696,.T.);
#907=ORIENTED_EDGE('',*,*,#698,.F.);
#908=ORIENTED_EDGE('',*,*,#688,.F.);
#909=ORIENTED_EDGE('',*,*,#698,.T.);
#910=ORIENTED_EDGE('',*,*,#695,.T.);
#911=ORIENTED_EDGE('',*,*,#692,.T.);
#912=ORIENTED_EDGE('',*,*,#689,.T.);
#913=ORIENTED_EDGE('',*,*,#699,.F.);
#914=ORIENTED_EDGE('',*,*,#700,.T.);
#915=ORIENTED_EDGE('',*,*,#701,.F.);
#916=ORIENTED_EDGE('',*,*,#702,.F.);
#917=ORIENTED_EDGE('',*,*,#703,.T.);
#918=ORIENTED_EDGE('',*,*,#704,.F.);
#919=ORIENTED_EDGE('',*,*,#705,.F.);
#920=ORIENTED_EDGE('',*,*,#706,.F.);
#921=ORIENTED_EDGE('',*,*,#703,.F.);
#922=ORIENTED_EDGE('',*,*,#707,.F.);
#923=ORIENTED_EDGE('',*,*,#708,.T.);
#924=ORIENTED_EDGE('',*,*,#709,.F.);
#925=ORIENTED_EDGE('',*,*,#710,.F.);
#926=ORIENTED_EDGE('',*,*,#711,.T.);
#927=ORIENTED_EDGE('',*,*,#712,.F.);
#928=ORIENTED_EDGE('',*,*,#713,.F.);
#929=ORIENTED_EDGE('',*,*,#708,.F.);
#930=ORIENTED_EDGE('',*,*,#714,.F.);
#931=ORIENTED_EDGE('',*,*,#715,.T.);
#932=ORIENTED_EDGE('',*,*,#716,.T.);
#933=ORIENTED_EDGE('',*,*,#717,.F.);
#934=ORIENTED_EDGE('',*,*,#701,.T.);
#935=ORIENTED_EDGE('',*,*,#718,.T.);
#936=ORIENTED_EDGE('',*,*,#715,.F.);
#937=ORIENTED_EDGE('',*,*,#711,.F.);
#938=ORIENTED_EDGE('',*,*,#719,.F.);
#939=ORIENTED_EDGE('',*,*,#720,.F.);
#940=ORIENTED_EDGE('',*,*,#721,.T.);
#941=ORIENTED_EDGE('',*,*,#722,.T.);
#942=ORIENTED_EDGE('',*,*,#716,.F.);
#943=ORIENTED_EDGE('',*,*,#718,.F.);
#944=ORIENTED_EDGE('',*,*,#700,.F.);
#945=ORIENTED_EDGE('',*,*,#723,.T.);
#946=ORIENTED_EDGE('',*,*,#724,.F.);
#947=ORIENTED_EDGE('',*,*,#725,.F.);
#948=ORIENTED_EDGE('',*,*,#726,.T.);
#949=ORIENTED_EDGE('',*,*,#651,.T.);
#950=ORIENTED_EDGE('',*,*,#655,.T.);
#951=ORIENTED_EDGE('',*,*,#658,.T.);
#952=ORIENTED_EDGE('',*,*,#661,.T.);
#953=ORIENTED_EDGE('',*,*,#663,.T.);
#954=ORIENTED_EDGE('',*,*,#667,.T.);
#955=ORIENTED_EDGE('',*,*,#670,.T.);
#956=ORIENTED_EDGE('',*,*,#673,.T.);
#957=ORIENTED_EDGE('',*,*,#675,.T.);
#958=ORIENTED_EDGE('',*,*,#679,.T.);
#959=ORIENTED_EDGE('',*,*,#682,.T.);
#960=ORIENTED_EDGE('',*,*,#685,.T.);
#961=ORIENTED_EDGE('',*,*,#687,.T.);
#962=ORIENTED_EDGE('',*,*,#691,.T.);
#963=ORIENTED_EDGE('',*,*,#694,.T.);
#964=ORIENTED_EDGE('',*,*,#697,.T.);
#965=ORIENTED_EDGE('',*,*,#699,.T.);
#966=ORIENTED_EDGE('',*,*,#727,.F.);
#967=ORIENTED_EDGE('',*,*,#728,.F.);
#968=ORIENTED_EDGE('',*,*,#723,.F.);
#969=ORIENTED_EDGE('',*,*,#712,.T.);
#970=ORIENTED_EDGE('',*,*,#722,.F.);
#971=ORIENTED_EDGE('',*,*,#729,.F.);
#972=ORIENTED_EDGE('',*,*,#730,.F.);
#973=ORIENTED_EDGE('',*,*,#731,.F.);
#974=ORIENTED_EDGE('',*,*,#724,.T.);
#975=ORIENTED_EDGE('',*,*,#728,.T.);
#976=ORIENTED_EDGE('',*,*,#732,.F.);
#977=ORIENTED_EDGE('',*,*,#705,.T.);
#978=ORIENTED_EDGE('',*,*,#726,.F.);
#979=ORIENTED_EDGE('',*,*,#733,.F.);
#980=ORIENTED_EDGE('',*,*,#734,.T.);
#981=ORIENTED_EDGE('',*,*,#706,.T.);
#982=ORIENTED_EDGE('',*,*,#734,.F.);
#983=ORIENTED_EDGE('',*,*,#735,.F.);
#984=ORIENTED_EDGE('',*,*,#732,.T.);
#985=ORIENTED_EDGE('',*,*,#727,.T.);
#986=ORIENTED_EDGE('',*,*,#704,.T.);
#987=ORIENTED_EDGE('',*,*,#710,.T.);
#988=ORIENTED_EDGE('',*,*,#736,.F.);
#989=ORIENTED_EDGE('',*,*,#737,.F.);
#990=ORIENTED_EDGE('',*,*,#719,.T.);
#991=ORIENTED_EDGE('',*,*,#738,.F.);
#992=ORIENTED_EDGE('',*,*,#739,.T.);
#993=ORIENTED_EDGE('',*,*,#729,.T.);
#994=ORIENTED_EDGE('',*,*,#721,.F.);
#995=ORIENTED_EDGE('',*,*,#713,.T.);
#996=ORIENTED_EDGE('',*,*,#730,.T.);
#997=ORIENTED_EDGE('',*,*,#739,.F.);
#998=ORIENTED_EDGE('',*,*,#740,.F.);
#999=ORIENTED_EDGE('',*,*,#736,.T.);
#1000=ORIENTED_EDGE('',*,*,#709,.T.);
#1001=ORIENTED_EDGE('',*,*,#741,.F.);
#1002=ORIENTED_EDGE('',*,*,#742,.T.);
#1003=ORIENTED_EDGE('',*,*,#743,.F.);
#1004=ORIENTED_EDGE('',*,*,#744,.F.);
#1005=ORIENTED_EDGE('',*,*,#745,.F.);
#1006=ORIENTED_EDGE('',*,*,#744,.T.);
#1007=ORIENTED_EDGE('',*,*,#746,.F.);
#1008=ORIENTED_EDGE('',*,*,#747,.F.);
#1009=ORIENTED_EDGE('',*,*,#748,.F.);
#1010=ORIENTED_EDGE('',*,*,#747,.T.);
#1011=ORIENTED_EDGE('',*,*,#749,.F.);
#1012=ORIENTED_EDGE('',*,*,#750,.F.);
#1013=ORIENTED_EDGE('',*,*,#751,.T.);
#1014=ORIENTED_EDGE('',*,*,#749,.T.);
#1015=ORIENTED_EDGE('',*,*,#746,.T.);
#1016=ORIENTED_EDGE('',*,*,#743,.T.);
#1017=ORIENTED_EDGE('',*,*,#702,.T.);
#1018=ORIENTED_EDGE('',*,*,#717,.T.);
#1019=ORIENTED_EDGE('',*,*,#714,.T.);
#1020=ORIENTED_EDGE('',*,*,#707,.T.);
#1021=ORIENTED_EDGE('',*,*,#752,.T.);
#1022=ORIENTED_EDGE('',*,*,#753,.T.);
#1023=ORIENTED_EDGE('',*,*,#754,.T.);
#1024=ORIENTED_EDGE('',*,*,#755,.T.);
#1025=ORIENTED_EDGE('',*,*,#748,.T.);
#1026=ORIENTED_EDGE('',*,*,#756,.T.);
#1027=ORIENTED_EDGE('',*,*,#754,.F.);
#1028=ORIENTED_EDGE('',*,*,#757,.T.);
#1029=ORIENTED_EDGE('',*,*,#758,.F.);
#1030=ORIENTED_EDGE('',*,*,#759,.T.);
#1031=ORIENTED_EDGE('',*,*,#760,.F.);
#1032=ORIENTED_EDGE('',*,*,#761,.T.);
#1033=ORIENTED_EDGE('',*,*,#762,.F.);
#1034=ORIENTED_EDGE('',*,*,#763,.T.);
#1035=ORIENTED_EDGE('',*,*,#741,.T.);
#1036=ORIENTED_EDGE('',*,*,#745,.T.);
#1037=ORIENTED_EDGE('',*,*,#639,.T.);
#1038=ORIENTED_EDGE('',*,*,#643,.T.);
#1039=ORIENTED_EDGE('',*,*,#646,.T.);
#1040=ORIENTED_EDGE('',*,*,#649,.T.);
#1041=ORIENTED_EDGE('',*,*,#764,.T.);
#1042=ORIENTED_EDGE('',*,*,#765,.T.);
#1043=ORIENTED_EDGE('',*,*,#766,.T.);
#1044=ORIENTED_EDGE('',*,*,#767,.T.);
#1045=ORIENTED_EDGE('',*,*,#753,.F.);
#1046=ORIENTED_EDGE('',*,*,#768,.F.);
#1047=ORIENTED_EDGE('',*,*,#769,.F.);
#1048=ORIENTED_EDGE('',*,*,#757,.F.);
#1049=ORIENTED_EDGE('',*,*,#770,.T.);
#1050=ORIENTED_EDGE('',*,*,#771,.T.);
#1051=ORIENTED_EDGE('',*,*,#758,.T.);
#1052=ORIENTED_EDGE('',*,*,#769,.T.);
#1053=ORIENTED_EDGE('',*,*,#772,.T.);
#1054=ORIENTED_EDGE('',*,*,#773,.T.);
#1055=ORIENTED_EDGE('',*,*,#760,.T.);
#1056=ORIENTED_EDGE('',*,*,#774,.T.);
#1057=ORIENTED_EDGE('',*,*,#773,.F.);
#1058=ORIENTED_EDGE('',*,*,#775,.F.);
#1059=ORIENTED_EDGE('',*,*,#776,.F.);
#1060=ORIENTED_EDGE('',*,*,#761,.F.);
#1061=ORIENTED_EDGE('',*,*,#762,.T.);
#1062=ORIENTED_EDGE('',*,*,#776,.T.);
#1063=ORIENTED_EDGE('',*,*,#777,.T.);
#1064=ORIENTED_EDGE('',*,*,#778,.T.);
#1065=ORIENTED_EDGE('',*,*,#779,.F.);
#1066=ORIENTED_EDGE('',*,*,#780,.T.);
#1067=ORIENTED_EDGE('',*,*,#764,.F.);
#1068=ORIENTED_EDGE('',*,*,#780,.F.);
#1069=ORIENTED_EDGE('',*,*,#781,.F.);
#1070=ORIENTED_EDGE('',*,*,#782,.T.);
#1071=ORIENTED_EDGE('',*,*,#765,.F.);
#1072=ORIENTED_EDGE('',*,*,#782,.F.);
#1073=ORIENTED_EDGE('',*,*,#783,.F.);
#1074=ORIENTED_EDGE('',*,*,#784,.T.);
#1075=ORIENTED_EDGE('',*,*,#766,.F.);
#1076=ORIENTED_EDGE('',*,*,#784,.F.);
#1077=ORIENTED_EDGE('',*,*,#785,.F.);
#1078=ORIENTED_EDGE('',*,*,#786,.T.);
#1079=ORIENTED_EDGE('',*,*,#767,.F.);
#1080=ORIENTED_EDGE('',*,*,#786,.F.);
#1081=ORIENTED_EDGE('',*,*,#787,.F.);
#1082=ORIENTED_EDGE('',*,*,#788,.T.);
#1083=ORIENTED_EDGE('',*,*,#789,.T.);
#1084=ORIENTED_EDGE('',*,*,#790,.F.);
#1085=ORIENTED_EDGE('',*,*,#791,.F.);
#1086=ORIENTED_EDGE('',*,*,#792,.T.);
#1087=ORIENTED_EDGE('',*,*,#793,.T.);
#1088=ORIENTED_EDGE('',*,*,#788,.F.);
#1089=ORIENTED_EDGE('',*,*,#794,.F.);
#1090=ORIENTED_EDGE('',*,*,#795,.T.);
#1091=ORIENTED_EDGE('',*,*,#796,.T.);
#1092=ORIENTED_EDGE('',*,*,#792,.F.);
#1093=ORIENTED_EDGE('',*,*,#797,.F.);
#1094=ORIENTED_EDGE('',*,*,#790,.T.);
#1095=ORIENTED_EDGE('',*,*,#798,.T.);
#1096=ORIENTED_EDGE('',*,*,#795,.F.);
#1097=ORIENTED_EDGE('',*,*,#798,.F.);
#1098=ORIENTED_EDGE('',*,*,#789,.F.);
#1099=ORIENTED_EDGE('',*,*,#793,.F.);
#1100=ORIENTED_EDGE('',*,*,#796,.F.);
#1101=ORIENTED_EDGE('',*,*,#799,.F.);
#1102=ORIENTED_EDGE('',*,*,#800,.T.);
#1103=ORIENTED_EDGE('',*,*,#801,.F.);
#1104=ORIENTED_EDGE('',*,*,#802,.F.);
#1105=ORIENTED_EDGE('',*,*,#803,.F.);
#1106=ORIENTED_EDGE('',*,*,#802,.T.);
#1107=ORIENTED_EDGE('',*,*,#804,.F.);
#1108=ORIENTED_EDGE('',*,*,#805,.F.);
#1109=ORIENTED_EDGE('',*,*,#806,.F.);
#1110=ORIENTED_EDGE('',*,*,#805,.T.);
#1111=ORIENTED_EDGE('',*,*,#807,.F.);
#1112=ORIENTED_EDGE('',*,*,#808,.F.);
#1113=ORIENTED_EDGE('',*,*,#809,.F.);
#1114=ORIENTED_EDGE('',*,*,#808,.T.);
#1115=ORIENTED_EDGE('',*,*,#810,.F.);
#1116=ORIENTED_EDGE('',*,*,#800,.F.);
#1117=ORIENTED_EDGE('',*,*,#810,.T.);
#1118=ORIENTED_EDGE('',*,*,#807,.T.);
#1119=ORIENTED_EDGE('',*,*,#804,.T.);
#1120=ORIENTED_EDGE('',*,*,#801,.T.);
#1121=ORIENTED_EDGE('',*,*,#787,.T.);
#1122=ORIENTED_EDGE('',*,*,#797,.T.);
#1123=ORIENTED_EDGE('',*,*,#794,.T.);
#1124=ORIENTED_EDGE('',*,*,#791,.T.);
#1125=ORIENTED_EDGE('',*,*,#755,.F.);
#1126=ORIENTED_EDGE('',*,*,#756,.F.);
#1127=ORIENTED_EDGE('',*,*,#750,.T.);
#1128=ORIENTED_EDGE('',*,*,#751,.F.);
#1129=ORIENTED_EDGE('',*,*,#742,.F.);
#1130=ORIENTED_EDGE('',*,*,#763,.F.);
#1131=ORIENTED_EDGE('',*,*,#778,.F.);
#1132=ORIENTED_EDGE('',*,*,#811,.F.);
#1133=ORIENTED_EDGE('',*,*,#731,.T.);
#1134=ORIENTED_EDGE('',*,*,#735,.T.);
#1135=ORIENTED_EDGE('',*,*,#733,.T.);
#1136=ORIENTED_EDGE('',*,*,#725,.T.);
#1137=ORIENTED_EDGE('',*,*,#737,.T.);
#1138=ORIENTED_EDGE('',*,*,#740,.T.);
#1139=ORIENTED_EDGE('',*,*,#738,.T.);
#1140=ORIENTED_EDGE('',*,*,#720,.T.);
#1141=ORIENTED_EDGE('',*,*,#771,.F.);
#1142=ORIENTED_EDGE('',*,*,#812,.F.);
#1143=ORIENTED_EDGE('',*,*,#774,.F.);
#1144=ORIENTED_EDGE('',*,*,#759,.F.);
#1145=ORIENTED_EDGE('',*,*,#752,.F.);
#1146=ORIENTED_EDGE('',*,*,#811,.T.);
#1147=ORIENTED_EDGE('',*,*,#777,.F.);
#1148=ORIENTED_EDGE('',*,*,#775,.T.);
#1149=ORIENTED_EDGE('',*,*,#772,.F.);
#1150=ORIENTED_EDGE('',*,*,#812,.T.);
#1151=ORIENTED_EDGE('',*,*,#770,.F.);
#1152=ORIENTED_EDGE('',*,*,#768,.T.);
#1153=ORIENTED_EDGE('',*,*,#779,.T.);
#1154=ORIENTED_EDGE('',*,*,#781,.T.);
#1155=ORIENTED_EDGE('',*,*,#783,.T.);
#1156=ORIENTED_EDGE('',*,*,#785,.T.);
#1157=ORIENTED_EDGE('',*,*,#799,.T.);
#1158=ORIENTED_EDGE('',*,*,#803,.T.);
#1159=ORIENTED_EDGE('',*,*,#806,.T.);
#1160=ORIENTED_EDGE('',*,*,#809,.T.);
#1161=PLANE('',#1299);
#1162=PLANE('',#1300);
#1163=PLANE('',#1301);
#1164=PLANE('',#1302);
#1165=PLANE('',#1303);
#1166=PLANE('',#1304);
#1167=PLANE('',#1305);
#1168=PLANE('',#1306);
#1169=PLANE('',#1307);
#1170=PLANE('',#1308);
#1171=PLANE('',#1309);
#1172=PLANE('',#1310);
#1173=PLANE('',#1311);
#1174=PLANE('',#1312);
#1175=PLANE('',#1313);
#1176=PLANE('',#1314);
#1177=PLANE('',#1315);
#1178=PLANE('',#1316);
#1179=PLANE('',#1317);
#1180=PLANE('',#1318);
#1181=PLANE('',#1319);
#1182=PLANE('',#1320);
#1183=PLANE('',#1321);
#1184=PLANE('',#1322);
#1185=PLANE('',#1323);
#1186=PLANE('',#1324);
#1187=PLANE('',#1325);
#1188=PLANE('',#1326);
#1189=PLANE('',#1327);
#1190=PLANE('',#1328);
#1191=PLANE('',#1329);
#1192=PLANE('',#1330);
#1193=PLANE('',#1331);
#1194=PLANE('',#1332);
#1195=PLANE('',#1333);
#1196=PLANE('',#1334);
#1197=PLANE('',#1335);
#1198=PLANE('',#1336);
#1199=PLANE('',#1337);
#1200=PLANE('',#1338);
#1201=PLANE('',#1339);
#1202=PLANE('',#1340);
#1203=PLANE('',#1344);
#1204=PLANE('',#1352);
#1205=PLANE('',#1357);
#1206=PLANE('',#1368);
#1207=PLANE('',#1369);
#1208=PLANE('',#1370);
#1209=PLANE('',#1371);
#1210=PLANE('',#1372);
#1211=PLANE('',#1373);
#1212=PLANE('',#1374);
#1213=PLANE('',#1375);
#1214=PLANE('',#1376);
#1215=PLANE('',#1377);
#1216=PLANE('',#1378);
#1217=PLANE('',#1379);
#1218=PLANE('',#1380);
#1219=ADVANCED_FACE('',(#57),#1161,.T.);
#1220=ADVANCED_FACE('',(#58),#1162,.T.);
#1221=ADVANCED_FACE('',(#59),#1163,.T.);
#1222=ADVANCED_FACE('',(#60),#1164,.T.);
#1223=ADVANCED_FACE('',(#61),#1165,.T.);
#1224=ADVANCED_FACE('',(#62),#1166,.T.);
#1225=ADVANCED_FACE('',(#63),#1167,.T.);
#1226=ADVANCED_FACE('',(#64),#1168,.T.);
#1227=ADVANCED_FACE('',(#65),#1169,.T.);
#1228=ADVANCED_FACE('',(#66),#1170,.T.);
#1229=ADVANCED_FACE('',(#67),#1171,.T.);
#1230=ADVANCED_FACE('',(#68),#1172,.T.);
#1231=ADVANCED_FACE('',(#69),#1173,.T.);
#1232=ADVANCED_FACE('',(#70),#1174,.T.);
#1233=ADVANCED_FACE('',(#71),#1175,.T.);
#1234=ADVANCED_FACE('',(#72),#1176,.T.);
#1235=ADVANCED_FACE('',(#73),#1177,.T.);
#1236=ADVANCED_FACE('',(#74),#1178,.T.);
#1237=ADVANCED_FACE('',(#75),#1179,.T.);
#1238=ADVANCED_FACE('',(#76),#1180,.T.);
#1239=ADVANCED_FACE('',(#77),#1181,.T.);
#1240=ADVANCED_FACE('',(#78),#1182,.T.);
#1241=ADVANCED_FACE('',(#79),#1183,.T.);
#1242=ADVANCED_FACE('',(#80),#1184,.T.);
#1243=ADVANCED_FACE('',(#81),#1185,.T.);
#1244=ADVANCED_FACE('',(#82),#1186,.F.);
#1245=ADVANCED_FACE('',(#83),#1187,.F.);
#1246=ADVANCED_FACE('',(#84),#1188,.F.);
#1247=ADVANCED_FACE('',(#85),#1189,.F.);
#1248=ADVANCED_FACE('',(#86,#39,#40,#41,#42),#1190,.F.);
#1249=ADVANCED_FACE('',(#87),#1191,.F.);
#1250=ADVANCED_FACE('',(#88),#1192,.F.);
#1251=ADVANCED_FACE('',(#89),#1193,.F.);
#1252=ADVANCED_FACE('',(#90),#1194,.F.);
#1253=ADVANCED_FACE('',(#91),#1195,.F.);
#1254=ADVANCED_FACE('',(#92),#1196,.F.);
#1255=ADVANCED_FACE('',(#93),#1197,.F.);
#1256=ADVANCED_FACE('',(#94),#1198,.F.);
#1257=ADVANCED_FACE('',(#95),#1199,.T.);
#1258=ADVANCED_FACE('',(#96),#1200,.T.);
#1259=ADVANCED_FACE('',(#97),#1201,.T.);
#1260=ADVANCED_FACE('',(#98,#43),#1202,.T.);
#1261=ADVANCED_FACE('',(#99),#31,.T.);
#1262=ADVANCED_FACE('',(#100,#44,#45,#46,#47,#48),#1203,.T.);
#1263=ADVANCED_FACE('',(#101),#1204,.T.);
#1264=ADVANCED_FACE('',(#102),#32,.T.);
#1265=ADVANCED_FACE('',(#103),#33,.T.);
#1266=ADVANCED_FACE('',(#104),#1205,.T.);
#1267=ADVANCED_FACE('',(#105),#34,.T.);
#1268=ADVANCED_FACE('',(#106),#35,.F.);
#1269=ADVANCED_FACE('',(#107),#36,.F.);
#1270=ADVANCED_FACE('',(#108),#37,.F.);
#1271=ADVANCED_FACE('',(#109),#38,.F.);
#1272=ADVANCED_FACE('',(#110),#1206,.F.);
#1273=ADVANCED_FACE('',(#111),#1207,.F.);
#1274=ADVANCED_FACE('',(#112),#1208,.F.);
#1275=ADVANCED_FACE('',(#113),#1209,.F.);
#1276=ADVANCED_FACE('',(#114),#1210,.F.);
#1277=ADVANCED_FACE('',(#115),#1211,.T.);
#1278=ADVANCED_FACE('',(#116),#1212,.T.);
#1279=ADVANCED_FACE('',(#117),#1213,.T.);
#1280=ADVANCED_FACE('',(#118),#1214,.T.);
#1281=ADVANCED_FACE('',(#119,#49),#1215,.T.);
#1282=ADVANCED_FACE('',(#120,#50,#51),#1216,.T.);
#1283=ADVANCED_FACE('',(#121),#1217,.T.);
#1284=ADVANCED_FACE('',(#122,#52,#53,#54,#55,#56),#1218,.T.);
#1285=CLOSED_SHELL('',(#1219,#1220,#1221,#1222,#1223,#1224,#1225,#1226,
#1227,#1228,#1229,#1230,#1231,#1232,#1233,#1234,#1235,#1236,#1237,#1238,
#1239,#1240,#1241,#1242,#1243,#1244,#1245,#1246,#1247,#1248,#1249,#1250,
#1251,#1252,#1253,#1254,#1255,#1256,#1257,#1258,#1259,#1260,#1261,#1262,
#1263,#1264,#1265,#1266,#1267,#1268,#1269,#1270,#1271,#1272,#1273,#1274,
#1275,#1276,#1277,#1278,#1279,#1280,#1281,#1282,#1283,#1284));
#1286=DERIVED_UNIT_ELEMENT(#1288,1.);
#1287=DERIVED_UNIT_ELEMENT(#2067,-3.);
#1288=(
MASS_UNIT()
NAMED_UNIT(*)
SI_UNIT(.KILO.,.GRAM.)
);
#1289=DERIVED_UNIT((#1286,#1287));
#1290=MEASURE_REPRESENTATION_ITEM('density measure',
POSITIVE_RATIO_MEASURE(7850.),#1289);
#1291=PROPERTY_DEFINITION_REPRESENTATION(#1296,#1293);
#1292=PROPERTY_DEFINITION_REPRESENTATION(#1297,#1294);
#1293=REPRESENTATION('material name',(#1295),#2064);
#1294=REPRESENTATION('density',(#1290),#2064);
#1295=DESCRIPTIVE_REPRESENTATION_ITEM('\X2\94A2\X0\','\X2\94A2\X0\');
#1296=PROPERTY_DEFINITION('material property','material name',#2074);
#1297=PROPERTY_DEFINITION('material property','density of part',#2074);
#1298=AXIS2_PLACEMENT_3D('',#1705,#1381,#1382);
#1299=AXIS2_PLACEMENT_3D('',#1706,#1383,#1384);
#1300=AXIS2_PLACEMENT_3D('',#1715,#1389,#1390);
#1301=AXIS2_PLACEMENT_3D('',#1721,#1394,#1395);
#1302=AXIS2_PLACEMENT_3D('',#1727,#1399,#1400);
#1303=AXIS2_PLACEMENT_3D('',#1730,#1403,#1404);
#1304=AXIS2_PLACEMENT_3D('',#1731,#1405,#1406);
#1305=AXIS2_PLACEMENT_3D('',#1740,#1411,#1412);
#1306=AXIS2_PLACEMENT_3D('',#1746,#1416,#1417);
#1307=AXIS2_PLACEMENT_3D('',#1752,#1421,#1422);
#1308=AXIS2_PLACEMENT_3D('',#1755,#1425,#1426);
#1309=AXIS2_PLACEMENT_3D('',#1756,#1427,#1428);
#1310=AXIS2_PLACEMENT_3D('',#1765,#1433,#1434);
#1311=AXIS2_PLACEMENT_3D('',#1771,#1438,#1439);
#1312=AXIS2_PLACEMENT_3D('',#1777,#1443,#1444);
#1313=AXIS2_PLACEMENT_3D('',#1780,#1447,#1448);
#1314=AXIS2_PLACEMENT_3D('',#1781,#1449,#1450);
#1315=AXIS2_PLACEMENT_3D('',#1790,#1455,#1456);
#1316=AXIS2_PLACEMENT_3D('',#1796,#1460,#1461);
#1317=AXIS2_PLACEMENT_3D('',#1802,#1465,#1466);
#1318=AXIS2_PLACEMENT_3D('',#1805,#1469,#1470);
#1319=AXIS2_PLACEMENT_3D('',#1806,#1471,#1472);
#1320=AXIS2_PLACEMENT_3D('',#1815,#1477,#1478);
#1321=AXIS2_PLACEMENT_3D('',#1821,#1482,#1483);
#1322=AXIS2_PLACEMENT_3D('',#1827,#1487,#1488);
#1323=AXIS2_PLACEMENT_3D('',#1830,#1491,#1492);
#1324=AXIS2_PLACEMENT_3D('',#1831,#1493,#1494);
#1325=AXIS2_PLACEMENT_3D('',#1844,#1501,#1502);
#1326=AXIS2_PLACEMENT_3D('',#1858,#1510,#1511);
#1327=AXIS2_PLACEMENT_3D('',#1868,#1517,#1518);
#1328=AXIS2_PLACEMENT_3D('',#1871,#1521,#1522);
#1329=AXIS2_PLACEMENT_3D('',#1886,#1531,#1532);
#1330=AXIS2_PLACEMENT_3D('',#1890,#1535,#1536);
#1331=AXIS2_PLACEMENT_3D('',#1894,#1539,#1540);
#1332=AXIS2_PLACEMENT_3D('',#1898,#1543,#1544);
#1333=AXIS2_PLACEMENT_3D('',#1902,#1547,#1548);
#1334=AXIS2_PLACEMENT_3D('',#1904,#1550,#1551);
#1335=AXIS2_PLACEMENT_3D('',#1908,#1554,#1555);
#1336=AXIS2_PLACEMENT_3D('',#1912,#1558,#1559);
#1337=AXIS2_PLACEMENT_3D('',#1914,#1561,#1562);
#1338=AXIS2_PLACEMENT_3D('',#1923,#1567,#1568);
#1339=AXIS2_PLACEMENT_3D('',#1929,#1572,#1573);
#1340=AXIS2_PLACEMENT_3D('',#1935,#1577,#1578);
#1341=AXIS2_PLACEMENT_3D('',#1937,#1580,#1581);
#1342=AXIS2_PLACEMENT_3D('',#1940,#1582,#1583);
#1343=AXIS2_PLACEMENT_3D('',#1944,#1585,#1586);
#1344=AXIS2_PLACEMENT_3D('',#1946,#1588,#1589);
#1345=AXIS2_PLACEMENT_3D('',#1951,#1592,#1593);
#1346=AXIS2_PLACEMENT_3D('',#1955,#1595,#1596);
#1347=AXIS2_PLACEMENT_3D('',#1959,#1598,#1599);
#1348=AXIS2_PLACEMENT_3D('',#1962,#1601,#1602);
#1349=AXIS2_PLACEMENT_3D('',#1964,#1603,#1604);
#1350=AXIS2_PLACEMENT_3D('',#1966,#1605,#1606);
#1351=AXIS2_PLACEMENT_3D('',#1968,#1607,#1608);
#1352=AXIS2_PLACEMENT_3D('',#1969,#1609,#1610);
#1353=AXIS2_PLACEMENT_3D('',#1973,#1613,#1614);
#1354=AXIS2_PLACEMENT_3D('',#1975,#1615,#1616);
#1355=AXIS2_PLACEMENT_3D('',#1977,#1618,#1619);
#1356=AXIS2_PLACEMENT_3D('',#1980,#1620,#1621);
#1357=AXIS2_PLACEMENT_3D('',#1983,#1624,#1625);
#1358=AXIS2_PLACEMENT_3D('',#1987,#1628,#1629);
#1359=AXIS2_PLACEMENT_3D('',#1989,#1630,#1631);
#1360=AXIS2_PLACEMENT_3D('',#1991,#1633,#1634);
#1361=AXIS2_PLACEMENT_3D('',#1993,#1635,#1636);
#1362=AXIS2_PLACEMENT_3D('',#1995,#1638,#1639);
#1363=AXIS2_PLACEMENT_3D('',#1997,#1640,#1641);
#1364=AXIS2_PLACEMENT_3D('',#1999,#1643,#1644);
#1365=AXIS2_PLACEMENT_3D('',#2001,#1645,#1646);
#1366=AXIS2_PLACEMENT_3D('',#2003,#1648,#1649);
#1367=AXIS2_PLACEMENT_3D('',#2005,#1650,#1651);
#1368=AXIS2_PLACEMENT_3D('',#2007,#1653,#1654);
#1369=AXIS2_PLACEMENT_3D('',#2016,#1659,#1660);
#1370=AXIS2_PLACEMENT_3D('',#2022,#1664,#1665);
#1371=AXIS2_PLACEMENT_3D('',#2028,#1669,#1670);
#1372=AXIS2_PLACEMENT_3D('',#2031,#1673,#1674);
#1373=AXIS2_PLACEMENT_3D('',#2032,#1675,#1676);
#1374=AXIS2_PLACEMENT_3D('',#2041,#1681,#1682);
#1375=AXIS2_PLACEMENT_3D('',#2047,#1686,#1687);
#1376=AXIS2_PLACEMENT_3D('',#2053,#1691,#1692);
#1377=AXIS2_PLACEMENT_3D('',#2056,#1695,#1696);
#1378=AXIS2_PLACEMENT_3D('',#2057,#1697,#1698);
#1379=AXIS2_PLACEMENT_3D('',#2059,#1700,#1701);
#1380=AXIS2_PLACEMENT_3D('',#2061,#1703,#1704);
#1381=DIRECTION('axis',(0.,0.,1.));
#1382=DIRECTION('refdir',(1.,0.,0.));
#1383=DIRECTION('center_axis',(-1.,0.,0.));
#1384=DIRECTION('ref_axis',(0.,1.,0.));
#1385=DIRECTION('',(0.,-1.,0.));
#1386=DIRECTION('',(0.,0.,-1.));
#1387=DIRECTION('',(0.,1.,0.));
#1388=DIRECTION('',(0.,0.,-1.));
#1389=DIRECTION('center_axis',(0.,-1.,0.));
#1390=DIRECTION('ref_axis',(-1.,0.,0.));
#1391=DIRECTION('',(1.,0.,0.));
#1392=DIRECTION('',(-1.,0.,0.));
#1393=DIRECTION('',(0.,0.,-1.));
#1394=DIRECTION('center_axis',(1.,0.,0.));
#1395=DIRECTION('ref_axis',(0.,-1.,0.));
#1396=DIRECTION('',(0.,1.,0.));
#1397=DIRECTION('',(0.,-1.,0.));
#1398=DIRECTION('',(0.,0.,-1.));
#1399=DIRECTION('center_axis',(0.,1.,0.));
#1400=DIRECTION('ref_axis',(1.,0.,0.));
#1401=DIRECTION('',(-1.,0.,0.));
#1402=DIRECTION('',(1.,0.,0.));
#1403=DIRECTION('center_axis',(0.,0.,-1.));
#1404=DIRECTION('ref_axis',(-1.,0.,0.));
#1405=DIRECTION('center_axis',(-1.,0.,0.));
#1406=DIRECTION('ref_axis',(0.,1.,0.));
#1407=DIRECTION('',(0.,-1.,0.));
#1408=DIRECTION('',(0.,0.,-1.));
#1409=DIRECTION('',(0.,1.,0.));
#1410=DIRECTION('',(0.,0.,-1.));
#1411=DIRECTION('center_axis',(0.,-1.,0.));
#1412=DIRECTION('ref_axis',(-1.,0.,0.));
#1413=DIRECTION('',(1.,0.,0.));
#1414=DIRECTION('',(-1.,0.,0.));
#1415=DIRECTION('',(0.,0.,-1.));
#1416=DIRECTION('center_axis',(1.,0.,0.));
#1417=DIRECTION('ref_axis',(0.,-1.,0.));
#1418=DIRECTION('',(0.,1.,0.));
#1419=DIRECTION('',(0.,-1.,0.));
#1420=DIRECTION('',(0.,0.,-1.));
#1421=DIRECTION('center_axis',(0.,1.,0.));
#1422=DIRECTION('ref_axis',(1.,0.,0.));
#1423=DIRECTION('',(-1.,0.,0.));
#1424=DIRECTION('',(1.,0.,0.));
#1425=DIRECTION('center_axis',(0.,0.,-1.));
#1426=DIRECTION('ref_axis',(-1.,0.,0.));
#1427=DIRECTION('center_axis',(-1.,0.,0.));
#1428=DIRECTION('ref_axis',(0.,1.,0.));
#1429=DIRECTION('',(0.,-1.,0.));
#1430=DIRECTION('',(0.,0.,-1.));
#1431=DIRECTION('',(0.,1.,0.));
#1432=DIRECTION('',(0.,0.,-1.));
#1433=DIRECTION('center_axis',(0.,-1.,0.));
#1434=DIRECTION('ref_axis',(-1.,0.,0.));
#1435=DIRECTION('',(1.,0.,0.));
#1436=DIRECTION('',(-1.,0.,0.));
#1437=DIRECTION('',(0.,0.,-1.));
#1438=DIRECTION('center_axis',(1.,0.,0.));
#1439=DIRECTION('ref_axis',(0.,-1.,0.));
#1440=DIRECTION('',(0.,1.,0.));
#1441=DIRECTION('',(0.,-1.,0.));
#1442=DIRECTION('',(0.,0.,-1.));
#1443=DIRECTION('center_axis',(0.,1.,0.));
#1444=DIRECTION('ref_axis',(1.,0.,0.));
#1445=DIRECTION('',(-1.,0.,0.));
#1446=DIRECTION('',(1.,0.,0.));
#1447=DIRECTION('center_axis',(0.,0.,-1.));
#1448=DIRECTION('ref_axis',(-1.,0.,0.));
#1449=DIRECTION('center_axis',(-1.,0.,0.));
#1450=DIRECTION('ref_axis',(0.,1.,0.));
#1451=DIRECTION('',(0.,-1.,0.));
#1452=DIRECTION('',(0.,0.,-1.));
#1453=DIRECTION('',(0.,1.,0.));
#1454=DIRECTION('',(0.,0.,-1.));
#1455=DIRECTION('center_axis',(0.,-1.,0.));
#1456=DIRECTION('ref_axis',(-1.,0.,0.));
#1457=DIRECTION('',(1.,0.,0.));
#1458=DIRECTION('',(-1.,0.,0.));
#1459=DIRECTION('',(0.,0.,-1.));
#1460=DIRECTION('center_axis',(1.,0.,0.));
#1461=DIRECTION('ref_axis',(0.,-1.,0.));
#1462=DIRECTION('',(0.,1.,0.));
#1463=DIRECTION('',(0.,-1.,0.));
#1464=DIRECTION('',(0.,0.,-1.));
#1465=DIRECTION('center_axis',(0.,1.,0.));
#1466=DIRECTION('ref_axis',(1.,0.,0.));
#1467=DIRECTION('',(-1.,0.,0.));
#1468=DIRECTION('',(1.,0.,0.));
#1469=DIRECTION('center_axis',(0.,0.,-1.));
#1470=DIRECTION('ref_axis',(-1.,0.,0.));
#1471=DIRECTION('center_axis',(-1.,0.,0.));
#1472=DIRECTION('ref_axis',(0.,1.,0.));
#1473=DIRECTION('',(0.,-1.,0.));
#1474=DIRECTION('',(0.,0.,-1.));
#1475=DIRECTION('',(0.,1.,0.));
#1476=DIRECTION('',(0.,0.,-1.));
#1477=DIRECTION('center_axis',(0.,-1.,0.));
#1478=DIRECTION('ref_axis',(-1.,0.,0.));
#1479=DIRECTION('',(1.,0.,0.));
#1480=DIRECTION('',(-1.,0.,0.));
#1481=DIRECTION('',(0.,0.,-1.));
#1482=DIRECTION('center_axis',(1.,0.,0.));
#1483=DIRECTION('ref_axis',(0.,-1.,0.));
#1484=DIRECTION('',(0.,1.,0.));
#1485=DIRECTION('',(0.,-1.,0.));
#1486=DIRECTION('',(0.,0.,-1.));
#1487=DIRECTION('center_axis',(0.,1.,0.));
#1488=DIRECTION('ref_axis',(1.,0.,0.));
#1489=DIRECTION('',(-1.,0.,0.));
#1490=DIRECTION('',(1.,0.,0.));
#1491=DIRECTION('center_axis',(0.,0.,-1.));
#1492=DIRECTION('ref_axis',(-1.,0.,0.));
#1493=DIRECTION('center_axis',(-1.,0.,0.));
#1494=DIRECTION('ref_axis',(0.,-1.,0.));
#1495=DIRECTION('',(0.,0.,-1.));
#1496=DIRECTION('',(0.,-1.,0.));
#1497=DIRECTION('',(0.,0.,1.));
#1498=DIRECTION('',(0.,-1.,0.));
#1499=DIRECTION('',(0.,0.,1.));
#1500=DIRECTION('',(0.,1.,0.));
#1501=DIRECTION('center_axis',(0.,1.,0.));
#1502=DIRECTION('ref_axis',(-1.,0.,0.));
#1503=DIRECTION('',(0.,0.,1.));
#1504=DIRECTION('',(1.,0.,0.));
#1505=DIRECTION('',(-1.,0.,0.));
#1506=DIRECTION('',(0.,0.,1.));
#1507=DIRECTION('',(1.,0.,0.));
#1508=DIRECTION('',(0.,0.,-1.));
#1509=DIRECTION('',(-1.,0.,0.));
#1510=DIRECTION('center_axis',(1.,0.,0.));
#1511=DIRECTION('ref_axis',(0.,1.,0.));
#1512=DIRECTION('',(0.,0.,1.));
#1513=DIRECTION('',(0.,-1.,0.));
#1514=DIRECTION('',(0.,1.,0.));
#1515=DIRECTION('',(0.,0.,1.));
#1516=DIRECTION('',(0.,1.,0.));
#1517=DIRECTION('center_axis',(0.,-1.,0.));
#1518=DIRECTION('ref_axis',(1.,0.,0.));
#1519=DIRECTION('',(1.,0.,0.));
#1520=DIRECTION('',(1.,0.,0.));
#1521=DIRECTION('center_axis',(0.,0.,1.));
#1522=DIRECTION('ref_axis',(-1.,0.,0.));
#1523=DIRECTION('',(0.,-1.,0.));
#1524=DIRECTION('',(-1.,0.,0.));
#1525=DIRECTION('',(0.,-1.,0.));
#1526=DIRECTION('',(-1.,0.,0.));
#1527=DIRECTION('',(-1.,0.,0.));
#1528=DIRECTION('',(0.,-1.,0.));
#1529=DIRECTION('',(-1.,0.,0.));
#1530=DIRECTION('',(0.,-1.,0.));
#1531=DIRECTION('center_axis',(0.,-1.,0.));
#1532=DIRECTION('ref_axis',(0.,0.,-1.));
#1533=DIRECTION('',(1.,0.,0.));
#1534=DIRECTION('',(0.,0.,-1.));
#1535=DIRECTION('center_axis',(0.,-1.,0.));
#1536=DIRECTION('ref_axis',(0.,0.,-1.));
#1537=DIRECTION('',(0.,0.,1.));
#1538=DIRECTION('',(1.,0.,0.));
#1539=DIRECTION('center_axis',(-1.,0.,0.));
#1540=DIRECTION('ref_axis',(0.,0.,-1.));
#1541=DIRECTION('',(0.,0.,-1.));
#1542=DIRECTION('',(0.,-1.,0.));
#1543=DIRECTION('center_axis',(1.,0.,0.));
#1544=DIRECTION('ref_axis',(0.,0.,1.));
#1545=DIRECTION('',(0.,0.,1.));
#1546=DIRECTION('',(0.,-1.,0.));
#1547=DIRECTION('center_axis',(0.,0.,-1.));
#1548=DIRECTION('ref_axis',(1.,0.,0.));
#1549=DIRECTION('',(1.,0.,0.));
#1550=DIRECTION('center_axis',(-1.,0.,0.));
#1551=DIRECTION('ref_axis',(0.,0.,-1.));
#1552=DIRECTION('',(0.,-1.,0.));
#1553=DIRECTION('',(0.,0.,-1.));
#1554=DIRECTION('center_axis',(1.,0.,0.));
#1555=DIRECTION('ref_axis',(0.,0.,1.));
#1556=DIRECTION('',(0.,0.,1.));
#1557=DIRECTION('',(0.,-1.,0.));
#1558=DIRECTION('center_axis',(0.,0.,-1.));
#1559=DIRECTION('ref_axis',(1.,0.,0.));
#1560=DIRECTION('',(1.,0.,0.));
#1561=DIRECTION('center_axis',(-1.,0.,0.));
#1562=DIRECTION('ref_axis',(0.,1.,0.));
#1563=DIRECTION('',(0.,-1.,0.));
#1564=DIRECTION('',(0.,0.,-1.));
#1565=DIRECTION('',(0.,1.,0.));
#1566=DIRECTION('',(0.,0.,-1.));
#1567=DIRECTION('center_axis',(0.,-1.,0.));
#1568=DIRECTION('ref_axis',(-1.,0.,0.));
#1569=DIRECTION('',(1.,0.,0.));
#1570=DIRECTION('',(-1.,0.,0.));
#1571=DIRECTION('',(0.,0.,-1.));
#1572=DIRECTION('center_axis',(1.,0.,0.));
#1573=DIRECTION('ref_axis',(0.,-1.,0.));
#1574=DIRECTION('',(0.,1.,0.));
#1575=DIRECTION('',(0.,-1.,0.));
#1576=DIRECTION('',(0.,0.,-1.));
#1577=DIRECTION('center_axis',(0.,0.,-1.));
#1578=DIRECTION('ref_axis',(-1.,0.,0.));
#1579=DIRECTION('',(1.,0.,0.));
#1580=DIRECTION('center_axis',(0.,0.,1.));
#1581=DIRECTION('ref_axis',(0.707106781186548,0.707106781186547,0.));
#1582=DIRECTION('center_axis',(0.,0.,-1.));
#1583=DIRECTION('ref_axis',(0.707106781186548,0.707106781186547,0.));
#1584=DIRECTION('',(0.,0.,-1.));
#1585=DIRECTION('center_axis',(0.,0.,1.));
#1586=DIRECTION('ref_axis',(0.707106781186548,0.707106781186547,0.));
#1587=DIRECTION('',(0.,0.,1.));
#1588=DIRECTION('center_axis',(0.,0.,-1.));
#1589=DIRECTION('ref_axis',(-1.,0.,0.));
#1590=DIRECTION('',(1.,0.,0.));
#1591=DIRECTION('',(0.,-1.,0.));
#1592=DIRECTION('center_axis',(0.,0.,1.));
#1593=DIRECTION('ref_axis',(0.707106781186548,-0.707106781186547,0.));
#1594=DIRECTION('',(-1.,0.,0.));
#1595=DIRECTION('center_axis',(0.,0.,1.));
#1596=DIRECTION('ref_axis',(-0.707106781186548,-0.707106781186547,0.));
#1597=DIRECTION('',(0.,1.,0.));
#1598=DIRECTION('center_axis',(0.,0.,1.));
#1599=DIRECTION('ref_axis',(-0.707106781186548,0.707106781186547,0.));
#1600=DIRECTION('',(1.,0.,0.));
#1601=DIRECTION('center_axis',(0.,0.,1.));
#1602=DIRECTION('ref_axis',(-1.,0.,0.));
#1603=DIRECTION('center_axis',(0.,0.,1.));
#1604=DIRECTION('ref_axis',(-1.,0.,0.));
#1605=DIRECTION('center_axis',(0.,0.,1.));
#1606=DIRECTION('ref_axis',(-1.,0.,0.));
#1607=DIRECTION('center_axis',(0.,0.,1.));
#1608=DIRECTION('ref_axis',(-1.,0.,0.));
#1609=DIRECTION('center_axis',(1.,0.,0.));
#1610=DIRECTION('ref_axis',(0.,1.,0.));
#1611=DIRECTION('',(0.,1.,0.));
#1612=DIRECTION('',(0.,0.,1.));
#1613=DIRECTION('center_axis',(0.,0.,1.));
#1614=DIRECTION('ref_axis',(0.707106781186548,-0.707106781186547,0.));
#1615=DIRECTION('center_axis',(0.,0.,-1.));
#1616=DIRECTION('ref_axis',(0.707106781186548,-0.707106781186547,0.));
#1617=DIRECTION('',(0.,0.,-1.));
#1618=DIRECTION('center_axis',(0.,0.,1.));
#1619=DIRECTION('ref_axis',(-0.707106781186548,-0.707106781186547,0.));
#1620=DIRECTION('center_axis',(0.,0.,-1.));
#1621=DIRECTION('ref_axis',(-0.707106781186548,-0.707106781186547,0.));
#1622=DIRECTION('',(0.,0.,-1.));
#1623=DIRECTION('',(0.,0.,1.));
#1624=DIRECTION('center_axis',(-1.,0.,0.));
#1625=DIRECTION('ref_axis',(0.,-1.,0.));
#1626=DIRECTION('',(0.,-1.,0.));
#1627=DIRECTION('',(0.,0.,1.));
#1628=DIRECTION('center_axis',(0.,0.,-1.));
#1629=DIRECTION('ref_axis',(-0.707106781186548,0.707106781186547,0.));
#1630=DIRECTION('center_axis',(0.,0.,-1.));
#1631=DIRECTION('ref_axis',(-0.707106781186548,0.707106781186547,0.));
#1632=DIRECTION('',(0.,0.,-1.));
#1633=DIRECTION('center_axis',(0.,0.,-1.));
#1634=DIRECTION('ref_axis',(-1.,0.,0.));
#1635=DIRECTION('center_axis',(0.,0.,-1.));
#1636=DIRECTION('ref_axis',(-1.,0.,0.));
#1637=DIRECTION('',(0.,0.,-1.));
#1638=DIRECTION('center_axis',(0.,0.,-1.));
#1639=DIRECTION('ref_axis',(-1.,0.,0.));
#1640=DIRECTION('center_axis',(0.,0.,-1.));
#1641=DIRECTION('ref_axis',(-1.,0.,0.));
#1642=DIRECTION('',(0.,0.,-1.));
#1643=DIRECTION('center_axis',(0.,0.,-1.));
#1644=DIRECTION('ref_axis',(-1.,0.,0.));
#1645=DIRECTION('center_axis',(0.,0.,-1.));
#1646=DIRECTION('ref_axis',(-1.,0.,0.));
#1647=DIRECTION('',(0.,0.,-1.));
#1648=DIRECTION('center_axis',(0.,0.,-1.));
#1649=DIRECTION('ref_axis',(-1.,0.,0.));
#1650=DIRECTION('center_axis',(0.,0.,-1.));
#1651=DIRECTION('ref_axis',(-1.,0.,0.));
#1652=DIRECTION('',(0.,0.,-1.));
#1653=DIRECTION('center_axis',(1.,0.,0.));
#1654=DIRECTION('ref_axis',(0.,-1.,0.));
#1655=DIRECTION('',(0.,-1.,0.));
#1656=DIRECTION('',(0.,0.,-1.));
#1657=DIRECTION('',(0.,-1.,0.));
#1658=DIRECTION('',(0.,0.,-1.));
#1659=DIRECTION('center_axis',(0.,1.,0.));
#1660=DIRECTION('ref_axis',(1.,0.,0.));
#1661=DIRECTION('',(1.,0.,0.));
#1662=DIRECTION('',(0.,0.,-1.));
#1663=DIRECTION('',(1.,0.,0.));
#1664=DIRECTION('center_axis',(-1.,0.,0.));
#1665=DIRECTION('ref_axis',(0.,1.,0.));
#1666=DIRECTION('',(0.,1.,0.));
#1667=DIRECTION('',(0.,0.,-1.));
#1668=DIRECTION('',(0.,1.,0.));
#1669=DIRECTION('center_axis',(0.,-1.,0.));
#1670=DIRECTION('ref_axis',(-1.,0.,0.));
#1671=DIRECTION('',(-1.,0.,0.));
#1672=DIRECTION('',(-1.,0.,0.));
#1673=DIRECTION('center_axis',(0.,0.,-1.));
#1674=DIRECTION('ref_axis',(-1.,0.,0.));
#1675=DIRECTION('center_axis',(-1.,0.,0.));
#1676=DIRECTION('ref_axis',(0.,-1.,0.));
#1677=DIRECTION('',(0.,1.,0.));
#1678=DIRECTION('',(0.,0.,1.));
#1679=DIRECTION('',(0.,-1.,0.));
#1680=DIRECTION('',(0.,0.,1.));
#1681=DIRECTION('center_axis',(0.,1.,0.));
#1682=DIRECTION('ref_axis',(-1.,0.,0.));
#1683=DIRECTION('',(1.,0.,0.));
#1684=DIRECTION('',(-1.,0.,0.));
#1685=DIRECTION('',(0.,0.,1.));
#1686=DIRECTION('center_axis',(1.,0.,0.));
#1687=DIRECTION('ref_axis',(0.,1.,0.));
#1688=DIRECTION('',(0.,-1.,0.));
#1689=DIRECTION('',(0.,1.,0.));
#1690=DIRECTION('',(0.,0.,1.));
#1691=DIRECTION('center_axis',(0.,-1.,0.));
#1692=DIRECTION('ref_axis',(1.,0.,0.));
#1693=DIRECTION('',(-1.,0.,0.));
#1694=DIRECTION('',(1.,0.,0.));
#1695=DIRECTION('center_axis',(0.,0.,1.));
#1696=DIRECTION('ref_axis',(1.,0.,0.));
#1697=DIRECTION('center_axis',(0.,1.,0.));
#1698=DIRECTION('ref_axis',(-1.,0.,0.));
#1699=DIRECTION('',(-1.,0.,0.));
#1700=DIRECTION('center_axis',(0.,-1.,0.));
#1701=DIRECTION('ref_axis',(1.,0.,0.));
#1702=DIRECTION('',(1.,0.,0.));
#1703=DIRECTION('center_axis',(0.,0.,1.));
#1704=DIRECTION('ref_axis',(1.,0.,0.));
#1705=CARTESIAN_POINT('',(0.,0.,0.));
#1706=CARTESIAN_POINT('Origin',(-11.,-4.55,-0.8));
#1707=CARTESIAN_POINT('',(-11.,3.65,-0.8));
#1708=CARTESIAN_POINT('',(-11.,-4.55,-0.8));
#1709=CARTESIAN_POINT('',(-11.,-2.275,-0.8));
#1710=CARTESIAN_POINT('',(-11.,3.65,-1.9));
#1711=CARTESIAN_POINT('',(-11.,3.65,-0.8));
#1712=CARTESIAN_POINT('',(-11.,-4.55,-1.9));
#1713=CARTESIAN_POINT('',(-11.,3.65,-1.9));
#1714=CARTESIAN_POINT('',(-11.,-4.55,-0.8));
#1715=CARTESIAN_POINT('Origin',(11.,-4.55,-0.8));
#1716=CARTESIAN_POINT('',(11.,-4.55,-0.8));
#1717=CARTESIAN_POINT('',(5.5,-4.55,-0.8));
#1718=CARTESIAN_POINT('',(11.,-4.55,-1.9));
#1719=CARTESIAN_POINT('',(-11.,-4.55,-1.9));
#1720=CARTESIAN_POINT('',(11.,-4.55,-0.8));
#1721=CARTESIAN_POINT('Origin',(11.,3.65,-0.8));
#1722=CARTESIAN_POINT('',(11.,3.65,-0.8));
#1723=CARTESIAN_POINT('',(11.,1.825,-0.8));
#1724=CARTESIAN_POINT('',(11.,3.65,-1.9));
#1725=CARTESIAN_POINT('',(11.,-4.55,-1.9));
#1726=CARTESIAN_POINT('',(11.,3.65,-0.8));
#1727=CARTESIAN_POINT('Origin',(-11.,3.65,-0.8));
#1728=CARTESIAN_POINT('',(-5.5,3.65,-0.8));
#1729=CARTESIAN_POINT('',(11.,3.65,-1.9));
#1730=CARTESIAN_POINT('Origin',(0.,-0.450000000000001,-1.9));
#1731=CARTESIAN_POINT('Origin',(3.04999992847443,10.4499997630715,-0.800000000000001));
#1732=CARTESIAN_POINT('',(3.04999992847443,10.7499997630715,-0.800000000000001));
#1733=CARTESIAN_POINT('',(3.04999992847443,10.4499997630715,-0.800000000000001));
#1734=CARTESIAN_POINT('',(3.04999992847443,11.7499998815358,-0.800000000000001));
#1735=CARTESIAN_POINT('',(3.04999992847443,10.7499997630715,-6.9));
#1736=CARTESIAN_POINT('',(3.04999992847443,10.7499997630715,-0.800000000000001));
#1737=CARTESIAN_POINT('',(3.04999992847443,10.4499997630715,-6.9));
#1738=CARTESIAN_POINT('',(3.04999992847443,10.4499997630715,-6.9));
#1739=CARTESIAN_POINT('',(3.04999992847443,10.4499997630715,-0.800000000000001));
#1740=CARTESIAN_POINT('Origin',(3.34999992847443,10.4499997630715,-0.800000000000001));
#1741=CARTESIAN_POINT('',(3.34999992847443,10.4499997630715,-0.800000000000001));
#1742=CARTESIAN_POINT('',(-0.0750000357627872,10.4499997630715,-0.800000000000001));
#1743=CARTESIAN_POINT('',(3.34999992847443,10.4499997630715,-6.9));
#1744=CARTESIAN_POINT('',(3.34999992847443,10.4499997630715,-6.9));
#1745=CARTESIAN_POINT('',(3.34999992847443,10.4499997630715,-0.800000000000001));
#1746=CARTESIAN_POINT('Origin',(3.34999992847443,10.7499997630715,-0.800000000000001));
#1747=CARTESIAN_POINT('',(3.34999992847443,10.7499997630715,-0.800000000000001));
#1748=CARTESIAN_POINT('',(3.34999992847443,11.8999998815358,-0.800000000000001));
#1749=CARTESIAN_POINT('',(3.34999992847443,10.7499997630715,-6.9));
#1750=CARTESIAN_POINT('',(3.34999992847443,10.7499997630715,-6.9));
#1751=CARTESIAN_POINT('',(3.34999992847443,10.7499997630715,-0.800000000000001));
#1752=CARTESIAN_POINT('Origin',(3.04999992847443,10.7499997630715,-0.800000000000001));
#1753=CARTESIAN_POINT('',(-0.225000035762787,10.7499997630715,-0.800000000000001));
#1754=CARTESIAN_POINT('',(3.04999992847443,10.7499997630715,-6.9));
#1755=CARTESIAN_POINT('Origin',(3.19999992847443,10.5999997630715,-6.9));
#1756=CARTESIAN_POINT('Origin',(-3.34999992847443,10.4499997630715,-0.800000000000001));
#1757=CARTESIAN_POINT('',(-3.34999992847443,10.7499997630715,-0.800000000000001));
#1758=CARTESIAN_POINT('',(-3.34999992847443,10.4499997630715,-0.800000000000001));
#1759=CARTESIAN_POINT('',(-3.34999992847443,11.7499998815358,-0.800000000000001));
#1760=CARTESIAN_POINT('',(-3.34999992847443,10.7499997630715,-6.9));
#1761=CARTESIAN_POINT('',(-3.34999992847443,10.7499997630715,-0.800000000000001));
#1762=CARTESIAN_POINT('',(-3.34999992847443,10.4499997630715,-6.9));
#1763=CARTESIAN_POINT('',(-3.34999992847443,10.7499997630715,-6.9));
#1764=CARTESIAN_POINT('',(-3.34999992847443,10.4499997630715,-0.800000000000001));
#1765=CARTESIAN_POINT('Origin',(-3.04999992847443,10.4499997630715,-0.800000000000001));
#1766=CARTESIAN_POINT('',(-3.04999992847443,10.4499997630715,-0.800000000000001));
#1767=CARTESIAN_POINT('',(-3.27499996423721,10.4499997630715,-0.800000000000001));
#1768=CARTESIAN_POINT('',(-3.04999992847443,10.4499997630715,-6.9));
#1769=CARTESIAN_POINT('',(-3.34999992847443,10.4499997630715,-6.9));
#1770=CARTESIAN_POINT('',(-3.04999992847443,10.4499997630715,-0.800000000000001));
#1771=CARTESIAN_POINT('Origin',(-3.04999992847443,10.7499997630715,-0.800000000000001));
#1772=CARTESIAN_POINT('',(-3.04999992847443,10.7499997630715,-0.800000000000001));
#1773=CARTESIAN_POINT('',(-3.04999992847443,11.8999998815358,-0.800000000000001));
#1774=CARTESIAN_POINT('',(-3.04999992847443,10.7499997630715,-6.9));
#1775=CARTESIAN_POINT('',(-3.04999992847443,10.4499997630715,-6.9));
#1776=CARTESIAN_POINT('',(-3.04999992847443,10.7499997630715,-0.800000000000001));
#1777=CARTESIAN_POINT('Origin',(-3.34999992847443,10.7499997630715,-0.800000000000001));
#1778=CARTESIAN_POINT('',(-3.42499996423721,10.7499997630715,-0.800000000000001));
#1779=CARTESIAN_POINT('',(-3.04999992847443,10.7499997630715,-6.9));
#1780=CARTESIAN_POINT('Origin',(-3.19999992847443,10.5999997630715,-6.9));
#1781=CARTESIAN_POINT('Origin',(1.44999996423721,10.4499997630715,-0.800000000000001));
#1782=CARTESIAN_POINT('',(1.44999996423721,10.7499997630715,-0.800000000000001));
#1783=CARTESIAN_POINT('',(1.44999996423721,10.4499997630715,-0.800000000000001));
#1784=CARTESIAN_POINT('',(1.44999996423721,11.7499998815358,-0.800000000000001));
#1785=CARTESIAN_POINT('',(1.44999996423721,10.7499997630715,-6.9));
#1786=CARTESIAN_POINT('',(1.44999996423721,10.7499997630715,-0.800000000000001));
#1787=CARTESIAN_POINT('',(1.44999996423721,10.4499997630715,-6.9));
#1788=CARTESIAN_POINT('',(1.44999996423721,10.4499997630715,-6.9));
#1789=CARTESIAN_POINT('',(1.44999996423721,10.4499997630715,-0.800000000000001));
#1790=CARTESIAN_POINT('Origin',(1.74999996423721,10.4499997630715,-0.800000000000001));
#1791=CARTESIAN_POINT('',(1.74999996423721,10.4499997630715,-0.800000000000001));
#1792=CARTESIAN_POINT('',(-0.875000017881394,10.4499997630715,-0.800000000000001));
#1793=CARTESIAN_POINT('',(1.74999996423721,10.4499997630715,-6.9));
#1794=CARTESIAN_POINT('',(1.74999996423721,10.4499997630715,-6.9));
#1795=CARTESIAN_POINT('',(1.74999996423721,10.4499997630715,-0.800000000000001));
#1796=CARTESIAN_POINT('Origin',(1.74999996423721,10.7499997630715,-0.800000000000001));
#1797=CARTESIAN_POINT('',(1.74999996423721,10.7499997630715,-0.800000000000001));
#1798=CARTESIAN_POINT('',(1.74999996423721,11.8999998815358,-0.800000000000001));
#1799=CARTESIAN_POINT('',(1.74999996423721,10.7499997630715,-6.9));
#1800=CARTESIAN_POINT('',(1.74999996423721,10.7499997630715,-6.9));
#1801=CARTESIAN_POINT('',(1.74999996423721,10.7499997630715,-0.800000000000001));
#1802=CARTESIAN_POINT('Origin',(1.44999996423721,10.7499997630715,-0.800000000000001));
#1803=CARTESIAN_POINT('',(-1.02500001788139,10.7499997630715,-0.800000000000001));
#1804=CARTESIAN_POINT('',(1.44999996423721,10.7499997630715,-6.9));
#1805=CARTESIAN_POINT('Origin',(1.59999996423721,10.5999997630715,-6.9));
#1806=CARTESIAN_POINT('Origin',(-1.74999996423721,10.4499997630715,-0.800000000000001));
#1807=CARTESIAN_POINT('',(-1.74999996423721,10.7499997630715,-0.800000000000001));
#1808=CARTESIAN_POINT('',(-1.74999996423721,10.4499997630715,-0.800000000000001));
#1809=CARTESIAN_POINT('',(-1.74999996423721,11.7499998815358,-0.800000000000001));
#1810=CARTESIAN_POINT('',(-1.74999996423721,10.7499997630715,-6.9));
#1811=CARTESIAN_POINT('',(-1.74999996423721,10.7499997630715,-0.800000000000001));
#1812=CARTESIAN_POINT('',(-1.74999996423721,10.4499997630715,-6.9));
#1813=CARTESIAN_POINT('',(-1.74999996423721,10.7499997630715,-6.9));
#1814=CARTESIAN_POINT('',(-1.74999996423721,10.4499997630715,-0.800000000000001));
#1815=CARTESIAN_POINT('Origin',(-1.44999996423721,10.4499997630715,-0.800000000000001));
#1816=CARTESIAN_POINT('',(-1.44999996423721,10.4499997630715,-0.800000000000001));
#1817=CARTESIAN_POINT('',(-2.47499998211861,10.4499997630715,-0.800000000000001));
#1818=CARTESIAN_POINT('',(-1.44999996423721,10.4499997630715,-6.9));
#1819=CARTESIAN_POINT('',(-1.74999996423721,10.4499997630715,-6.9));
#1820=CARTESIAN_POINT('',(-1.44999996423721,10.4499997630715,-0.800000000000001));
#1821=CARTESIAN_POINT('Origin',(-1.44999996423721,10.7499997630715,-0.800000000000001));
#1822=CARTESIAN_POINT('',(-1.44999996423721,10.7499997630715,-0.800000000000001));
#1823=CARTESIAN_POINT('',(-1.44999996423721,11.8999998815358,-0.800000000000001));
#1824=CARTESIAN_POINT('',(-1.44999996423721,10.7499997630715,-6.9));
#1825=CARTESIAN_POINT('',(-1.44999996423721,10.4499997630715,-6.9));
#1826=CARTESIAN_POINT('',(-1.44999996423721,10.7499997630715,-0.800000000000001));
#1827=CARTESIAN_POINT('Origin',(-1.74999996423721,10.7499997630715,-0.800000000000001));
#1828=CARTESIAN_POINT('',(-2.62499998211861,10.7499997630715,-0.800000000000001));
#1829=CARTESIAN_POINT('',(-1.44999996423721,10.7499997630715,-6.9));
#1830=CARTESIAN_POINT('Origin',(-1.59999996423721,10.5999997630715,-6.9));
#1831=CARTESIAN_POINT('Origin',(-4.4,12.2,-6.9));
#1832=CARTESIAN_POINT('',(-4.4,11.85,-0.800000000000001));
#1833=CARTESIAN_POINT('',(-4.4,11.85,-5.6));
#1834=CARTESIAN_POINT('',(-4.4,11.85,-5.05));
#1835=CARTESIAN_POINT('',(-4.4,8.4,-0.8));
#1836=CARTESIAN_POINT('',(-4.4,12.2,-0.8));
#1837=CARTESIAN_POINT('',(-4.4,8.4,-6.9));
#1838=CARTESIAN_POINT('',(-4.4,8.4,-6.9));
#1839=CARTESIAN_POINT('',(-4.4,12.2,-6.9));
#1840=CARTESIAN_POINT('',(-4.4,11.25,-6.9));
#1841=CARTESIAN_POINT('',(-4.4,12.2,-5.6));
#1842=CARTESIAN_POINT('',(-4.4,12.2,-6.9));
#1843=CARTESIAN_POINT('',(-4.4,12.625,-5.6));
#1844=CARTESIAN_POINT('Origin',(4.4,12.2,-6.9));
#1845=CARTESIAN_POINT('',(-3.5,12.2,-5.6));
#1846=CARTESIAN_POINT('',(-3.5,12.2,-0.800000000000001));
#1847=CARTESIAN_POINT('',(-3.5,12.2,-6.25));
#1848=CARTESIAN_POINT('',(-0.0499999999999998,12.2,-5.6));
#1849=CARTESIAN_POINT('',(4.4,12.2,-6.9));
#1850=CARTESIAN_POINT('',(2.2,12.2,-6.9));
#1851=CARTESIAN_POINT('',(4.4,12.2,-5.6));
#1852=CARTESIAN_POINT('',(4.4,12.2,-6.9));
#1853=CARTESIAN_POINT('',(3.5,12.2,-5.6));
#1854=CARTESIAN_POINT('',(3.95,12.2,-5.6));
#1855=CARTESIAN_POINT('',(3.5,12.2,-0.8));
#1856=CARTESIAN_POINT('',(3.5,12.2,-3.85));
#1857=CARTESIAN_POINT('',(4.4,12.2,-0.8));
#1858=CARTESIAN_POINT('Origin',(4.4,8.4,-6.9));
#1859=CARTESIAN_POINT('',(4.4,11.85,-5.6));
#1860=CARTESIAN_POINT('',(4.4,11.85,-0.8));
#1861=CARTESIAN_POINT('',(4.4,11.85,-5.05));
#1862=CARTESIAN_POINT('',(4.4,10.725,-5.6));
#1863=CARTESIAN_POINT('',(4.4,8.4,-6.9));
#1864=CARTESIAN_POINT('',(4.4,9.35,-6.9));
#1865=CARTESIAN_POINT('',(4.4,8.4,-0.8));
#1866=CARTESIAN_POINT('',(4.4,8.4,-6.9));
#1867=CARTESIAN_POINT('',(4.4,8.4,-0.8));
#1868=CARTESIAN_POINT('Origin',(-4.4,8.4,-6.9));
#1869=CARTESIAN_POINT('',(-2.2,8.4,-6.9));
#1870=CARTESIAN_POINT('',(-4.4,8.4,-0.8));
#1871=CARTESIAN_POINT('Origin',(-3.5,13.05,-0.800000000000001));
#1872=CARTESIAN_POINT('',(3.5,13.05,-0.8));
#1873=CARTESIAN_POINT('',(3.5,13.05,-0.8));
#1874=CARTESIAN_POINT('',(4.5,13.05,-0.8));
#1875=CARTESIAN_POINT('',(12.5,13.05,-0.8));
#1876=CARTESIAN_POINT('',(4.5,11.85,-0.8));
#1877=CARTESIAN_POINT('',(4.5,13.05,-0.8));
#1878=CARTESIAN_POINT('',(4.5,11.85,-0.8));
#1879=CARTESIAN_POINT('',(-4.5,11.85,-0.800000000000001));
#1880=CARTESIAN_POINT('',(-4.5,11.85,-0.800000000000001));
#1881=CARTESIAN_POINT('',(-4.5,13.05,-0.800000000000001));
#1882=CARTESIAN_POINT('',(-4.5,13.05,-0.800000000000001));
#1883=CARTESIAN_POINT('',(-3.5,13.05,-0.800000000000001));
#1884=CARTESIAN_POINT('',(8.5,13.05,-0.800000000000001));
#1885=CARTESIAN_POINT('',(-3.5,13.05,-0.800000000000001));
#1886=CARTESIAN_POINT('Origin',(-4.,11.85,-3.2));
#1887=CARTESIAN_POINT('',(-4.5,11.85,-5.6));
#1888=CARTESIAN_POINT('',(-3.5,11.85,-5.6));
#1889=CARTESIAN_POINT('',(-4.5,11.85,-5.6));
#1890=CARTESIAN_POINT('Origin',(4.,11.85,-3.2));
#1891=CARTESIAN_POINT('',(4.5,11.85,-5.6));
#1892=CARTESIAN_POINT('',(4.5,11.85,-5.6));
#1893=CARTESIAN_POINT('',(3.5,11.85,-5.6));
#1894=CARTESIAN_POINT('Origin',(-4.5,13.05,-0.800000000000001));
#1895=CARTESIAN_POINT('',(-4.5,13.05,-5.6));
#1896=CARTESIAN_POINT('',(-4.5,13.05,-0.4));
#1897=CARTESIAN_POINT('',(-4.5,13.05,-5.6));
#1898=CARTESIAN_POINT('Origin',(-3.5,13.05,-5.6));
#1899=CARTESIAN_POINT('',(-3.5,13.05,-5.6));
#1900=CARTESIAN_POINT('',(-3.5,13.05,-2.8));
#1901=CARTESIAN_POINT('',(-3.5,13.05,-5.6));
#1902=CARTESIAN_POINT('Origin',(-4.5,13.05,-5.6));
#1903=CARTESIAN_POINT('',(8.,13.05,-5.6));
#1904=CARTESIAN_POINT('Origin',(3.5,13.05,-0.8));
#1905=CARTESIAN_POINT('',(3.5,13.05,-5.6));
#1906=CARTESIAN_POINT('',(3.5,13.05,-5.6));
#1907=CARTESIAN_POINT('',(3.5,13.05,-0.4));
#1908=CARTESIAN_POINT('Origin',(4.5,13.05,-5.6));
#1909=CARTESIAN_POINT('',(4.5,13.05,-5.6));
#1910=CARTESIAN_POINT('',(4.5,13.05,-2.8));
#1911=CARTESIAN_POINT('',(4.5,13.05,-5.6));
#1912=CARTESIAN_POINT('Origin',(3.5,13.05,-5.6));
#1913=CARTESIAN_POINT('',(12.,13.05,-5.6));
#1914=CARTESIAN_POINT('Origin',(-6.,7.55,-0.8));
#1915=CARTESIAN_POINT('',(-6.,13.05,-0.8));
#1916=CARTESIAN_POINT('',(-6.,7.55,-0.8));
#1917=CARTESIAN_POINT('',(-6.,3.775,-0.8));
#1918=CARTESIAN_POINT('',(-6.,13.05,-6.9));
#1919=CARTESIAN_POINT('',(-6.,13.05,-0.8));
#1920=CARTESIAN_POINT('',(-6.,7.55,-6.9));
#1921=CARTESIAN_POINT('',(-6.,13.05,-6.9));
#1922=CARTESIAN_POINT('',(-6.,7.55,-0.8));
#1923=CARTESIAN_POINT('Origin',(6.,7.55,-0.8));
#1924=CARTESIAN_POINT('',(6.,7.55,-0.8));
#1925=CARTESIAN_POINT('',(3.,7.55,-0.8));
#1926=CARTESIAN_POINT('',(6.,7.55,-6.9));
#1927=CARTESIAN_POINT('',(-6.,7.55,-6.9));
#1928=CARTESIAN_POINT('',(6.,7.55,-0.8));
#1929=CARTESIAN_POINT('Origin',(6.,13.05,-0.8));
#1930=CARTESIAN_POINT('',(6.,13.05,-0.8));
#1931=CARTESIAN_POINT('',(6.,6.525,-0.8));
#1932=CARTESIAN_POINT('',(6.,13.05,-6.9));
#1933=CARTESIAN_POINT('',(6.,7.55,-6.9));
#1934=CARTESIAN_POINT('',(6.,13.05,-0.8));
#1935=CARTESIAN_POINT('Origin',(0.,10.3,-6.9));
#1936=CARTESIAN_POINT('',(6.,13.05,-6.9));
#1937=CARTESIAN_POINT('Origin',(17.3,9.85,0.));
#1938=CARTESIAN_POINT('',(17.3,13.05,0.8));
#1939=CARTESIAN_POINT('',(20.5,9.85,0.8));
#1940=CARTESIAN_POINT('Origin',(17.3,9.85,0.8));
#1941=CARTESIAN_POINT('',(20.5,9.85,-0.8));
#1942=CARTESIAN_POINT('',(20.5,9.85,0.));
#1943=CARTESIAN_POINT('',(17.3,13.05,-0.8));
#1944=CARTESIAN_POINT('Origin',(17.3,9.85,-0.8));
#1945=CARTESIAN_POINT('',(17.3,13.05,0.));
#1946=CARTESIAN_POINT('Origin',(0.,0.,-0.8));
#1947=CARTESIAN_POINT('',(20.5,13.05,-0.8));
#1948=CARTESIAN_POINT('',(20.5,-9.85,-0.8));
#1949=CARTESIAN_POINT('',(20.5,-13.05,-0.8));
#1950=CARTESIAN_POINT('',(17.3,-13.05,-0.8));
#1951=CARTESIAN_POINT('Origin',(17.3,-9.85,-0.8));
#1952=CARTESIAN_POINT('',(-17.3,-13.05,-0.8));
#1953=CARTESIAN_POINT('',(-20.5,-13.05,-0.8));
#1954=CARTESIAN_POINT('',(-20.5,-9.85,-0.8));
#1955=CARTESIAN_POINT('Origin',(-17.3,-9.85,-0.8));
#1956=CARTESIAN_POINT('',(-20.5,9.85,-0.8));
#1957=CARTESIAN_POINT('',(-20.5,13.05,-0.8));
#1958=CARTESIAN_POINT('',(-17.3,13.05,-0.8));
#1959=CARTESIAN_POINT('Origin',(-17.3,9.85,-0.8));
#1960=CARTESIAN_POINT('',(20.5,13.05,-0.8));
#1961=CARTESIAN_POINT('',(19.3,-10.15,-0.8));
#1962=CARTESIAN_POINT('Origin',(17.7,-10.15,-0.8));
#1963=CARTESIAN_POINT('',(19.3,9.85,-0.8));
#1964=CARTESIAN_POINT('Origin',(17.7,9.85,-0.8));
#1965=CARTESIAN_POINT('',(-15.7,-10.15,-0.8));
#1966=CARTESIAN_POINT('Origin',(-17.3,-10.15,-0.8));
#1967=CARTESIAN_POINT('',(-15.7,9.85,-0.8));
#1968=CARTESIAN_POINT('Origin',(-17.3,9.85,-0.8));
#1969=CARTESIAN_POINT('Origin',(20.5,-13.05,0.));
#1970=CARTESIAN_POINT('',(20.5,-9.85,0.8));
#1971=CARTESIAN_POINT('',(20.5,-13.05,0.8));
#1972=CARTESIAN_POINT('',(20.5,-9.85,0.));
#1973=CARTESIAN_POINT('Origin',(17.3,-9.85,0.));
#1974=CARTESIAN_POINT('',(17.3,-13.05,0.8));
#1975=CARTESIAN_POINT('Origin',(17.3,-9.85,0.8));
#1976=CARTESIAN_POINT('',(17.3,-13.05,0.));
#1977=CARTESIAN_POINT('Origin',(-17.3,-9.85,0.));
#1978=CARTESIAN_POINT('',(-17.3,-13.05,0.8));
#1979=CARTESIAN_POINT('',(-20.5,-9.85,0.8));
#1980=CARTESIAN_POINT('Origin',(-17.3,-9.85,0.8));
#1981=CARTESIAN_POINT('',(-20.5,-9.85,0.));
#1982=CARTESIAN_POINT('',(-17.3,-13.05,0.));
#1983=CARTESIAN_POINT('Origin',(-20.5,13.05,0.));
#1984=CARTESIAN_POINT('',(-20.5,9.85,0.8));
#1985=CARTESIAN_POINT('',(-20.5,13.05,0.8));
#1986=CARTESIAN_POINT('',(-20.5,9.85,0.));
#1987=CARTESIAN_POINT('Origin',(-17.3,9.85,0.));
#1988=CARTESIAN_POINT('',(-17.3,13.05,0.8));
#1989=CARTESIAN_POINT('Origin',(-17.3,9.85,0.8));
#1990=CARTESIAN_POINT('',(-17.3,13.05,0.));
#1991=CARTESIAN_POINT('Origin',(17.7,-10.15,0.8));
#1992=CARTESIAN_POINT('',(19.3,-10.15,0.8));
#1993=CARTESIAN_POINT('Origin',(17.7,-10.15,0.8));
#1994=CARTESIAN_POINT('',(19.3,-10.15,0.8));
#1995=CARTESIAN_POINT('Origin',(17.7,9.85,0.8));
#1996=CARTESIAN_POINT('',(19.3,9.85,0.8));
#1997=CARTESIAN_POINT('Origin',(17.7,9.85,0.8));
#1998=CARTESIAN_POINT('',(19.3,9.85,0.8));
#1999=CARTESIAN_POINT('Origin',(-17.3,-10.15,0.8));
#2000=CARTESIAN_POINT('',(-15.7,-10.15,0.8));
#2001=CARTESIAN_POINT('Origin',(-17.3,-10.15,0.8));
#2002=CARTESIAN_POINT('',(-15.7,-10.15,0.8));
#2003=CARTESIAN_POINT('Origin',(-17.3,9.85,0.8));
#2004=CARTESIAN_POINT('',(-15.7,9.85,0.8));
#2005=CARTESIAN_POINT('Origin',(-17.3,9.85,0.8));
#2006=CARTESIAN_POINT('',(-15.7,9.85,0.8));
#2007=CARTESIAN_POINT('Origin',(10.6,8.8,3.6));
#2008=CARTESIAN_POINT('',(10.6,8.8,3.6));
#2009=CARTESIAN_POINT('',(10.6,-4.5,3.6));
#2010=CARTESIAN_POINT('',(10.6,4.4,3.6));
#2011=CARTESIAN_POINT('',(10.6,8.8,2.9));
#2012=CARTESIAN_POINT('',(10.6,8.8,3.6));
#2013=CARTESIAN_POINT('',(10.6,-4.5,2.9));
#2014=CARTESIAN_POINT('',(10.6,8.8,2.9));
#2015=CARTESIAN_POINT('',(10.6,-4.5,3.6));
#2016=CARTESIAN_POINT('Origin',(-10.6,8.8,3.6));
#2017=CARTESIAN_POINT('',(-10.6,8.8,3.6));
#2018=CARTESIAN_POINT('',(-5.3,8.8,3.6));
#2019=CARTESIAN_POINT('',(-10.6,8.8,2.9));
#2020=CARTESIAN_POINT('',(-10.6,8.8,3.6));
#2021=CARTESIAN_POINT('',(-10.6,8.8,2.9));
#2022=CARTESIAN_POINT('Origin',(-10.6,-4.5,3.6));
#2023=CARTESIAN_POINT('',(-10.6,-4.5,3.6));
#2024=CARTESIAN_POINT('',(-10.6,-2.25,3.6));
#2025=CARTESIAN_POINT('',(-10.6,-4.5,2.9));
#2026=CARTESIAN_POINT('',(-10.6,-4.5,3.6));
#2027=CARTESIAN_POINT('',(-10.6,-4.5,2.9));
#2028=CARTESIAN_POINT('Origin',(10.6,-4.5,3.6));
#2029=CARTESIAN_POINT('',(5.3,-4.5,3.6));
#2030=CARTESIAN_POINT('',(10.6,-4.5,2.9));
#2031=CARTESIAN_POINT('Origin',(0.,2.15,2.9));
#2032=CARTESIAN_POINT('Origin',(-14.05,10.5,0.8));
#2033=CARTESIAN_POINT('',(-14.05,-10.5,0.8));
#2034=CARTESIAN_POINT('',(-14.05,10.5,0.8));
#2035=CARTESIAN_POINT('',(-14.05,5.25,0.8));
#2036=CARTESIAN_POINT('',(-14.05,-10.5,3.6));
#2037=CARTESIAN_POINT('',(-14.05,-10.5,0.8));
#2038=CARTESIAN_POINT('',(-14.05,10.5,3.6));
#2039=CARTESIAN_POINT('',(-14.05,-10.5,3.6));
#2040=CARTESIAN_POINT('',(-14.05,10.5,0.8));
#2041=CARTESIAN_POINT('Origin',(14.05,10.5,0.8));
#2042=CARTESIAN_POINT('',(14.05,10.5,0.8));
#2043=CARTESIAN_POINT('',(7.025,10.5,0.8));
#2044=CARTESIAN_POINT('',(14.05,10.5,3.6));
#2045=CARTESIAN_POINT('',(-14.05,10.5,3.6));
#2046=CARTESIAN_POINT('',(14.05,10.5,0.8));
#2047=CARTESIAN_POINT('Origin',(14.05,-10.5,0.8));
#2048=CARTESIAN_POINT('',(14.05,-10.5,0.8));
#2049=CARTESIAN_POINT('',(14.05,-5.25,0.8));
#2050=CARTESIAN_POINT('',(14.05,-10.5,3.6));
#2051=CARTESIAN_POINT('',(14.05,10.5,3.6));
#2052=CARTESIAN_POINT('',(14.05,-10.5,0.8));
#2053=CARTESIAN_POINT('Origin',(-14.05,-10.5,0.8));
#2054=CARTESIAN_POINT('',(-7.025,-10.5,0.8));
#2055=CARTESIAN_POINT('',(14.05,-10.5,3.6));
#2056=CARTESIAN_POINT('Origin',(0.,0.,3.6));
#2057=CARTESIAN_POINT('Origin',(20.5,13.05,0.));
#2058=CARTESIAN_POINT('',(20.5,13.05,0.8));
#2059=CARTESIAN_POINT('Origin',(-20.5,-13.05,0.));
#2060=CARTESIAN_POINT('',(-20.5,-13.05,0.8));
#2061=CARTESIAN_POINT('Origin',(0.,0.,0.8));
#2062=UNCERTAINTY_MEASURE_WITH_UNIT(LENGTH_MEASURE(0.01),#2066,
'DISTANCE_ACCURACY_VALUE',
'Maximum model space distance between geometric entities at asserted c
onnectivities');
#2063=UNCERTAINTY_MEASURE_WITH_UNIT(LENGTH_MEASURE(0.01),#2066,
'DISTANCE_ACCURACY_VALUE',
'Maximum model space distance between geometric entities at asserted c
onnectivities');
#2064=(
GEOMETRIC_REPRESENTATION_CONTEXT(3)
GLOBAL_UNCERTAINTY_ASSIGNED_CONTEXT((#2062))
GLOBAL_UNIT_ASSIGNED_CONTEXT((#2066,#2068,#2069))
REPRESENTATION_CONTEXT('','3D')
);
#2065=(
GEOMETRIC_REPRESENTATION_CONTEXT(3)
GLOBAL_UNCERTAINTY_ASSIGNED_CONTEXT((#2063))
GLOBAL_UNIT_ASSIGNED_CONTEXT((#2066,#2068,#2069))
REPRESENTATION_CONTEXT('','3D')
);
#2066=(
LENGTH_UNIT()
NAMED_UNIT(*)
SI_UNIT(.MILLI.,.METRE.)
);
#2067=(
LENGTH_UNIT()
NAMED_UNIT(*)
SI_UNIT($,.METRE.)
);
#2068=(
NAMED_UNIT(*)
PLANE_ANGLE_UNIT()
SI_UNIT($,.RADIAN.)
);
#2069=(
NAMED_UNIT(*)
SI_UNIT($,.STERADIAN.)
SOLID_ANGLE_UNIT()
);
#2070=SHAPE_DEFINITION_REPRESENTATION(#2071,#2072);
#2071=PRODUCT_DEFINITION_SHAPE('',$,#2074);
#2072=SHAPE_REPRESENTATION('',(#1298),#2064);
#2073=PRODUCT_DEFINITION_CONTEXT('part definition',#2078,'design');
#2074=PRODUCT_DEFINITION('2026-04-30-05-42-49-932',
'OLED \X2\663E793A5C4FFF08\X0\DFRobot Gravity I2C\X2\FF09\X0\',#2075,#2073);
#2075=PRODUCT_DEFINITION_FORMATION('',$,#2080);
#2076=PRODUCT_RELATED_PRODUCT_CATEGORY(
'OLED \X2\663E793A5C4FFF08\X0\DFRobot Gravity I2C\X2\FF09\X0\',
'OLED \X2\663E793A5C4FFF08\X0\DFRobot Gravity I2C\X2\FF09\X0\',(#2080));
#2077=APPLICATION_PROTOCOL_DEFINITION('international standard',
'automotive_design',2009,#2078);
#2078=APPLICATION_CONTEXT(
'Core Data for Automotive Mechanical Design Process');
#2079=PRODUCT_CONTEXT('part definition',#2078,'mechanical');
#2080=PRODUCT('2026-04-30-05-42-49-932',
'OLED \X2\663E793A5C4FFF08\X0\DFRobot Gravity I2C\X2\FF09\X0\',$,(#2079));
#2081=PRESENTATION_STYLE_ASSIGNMENT((#2082));
#2082=SURFACE_STYLE_USAGE(.BOTH.,#2083);
#2083=SURFACE_SIDE_STYLE('',(#2084));
#2084=SURFACE_STYLE_FILL_AREA(#2085);
#2085=FILL_AREA_STYLE('\X2\94A2\X0\ - \X2\7F0E5149\X0\',(#2086));
#2086=FILL_AREA_STYLE_COLOUR('\X2\94A2\X0\ - \X2\7F0E5149\X0\',#2087);
#2087=COLOUR_RGB('\X2\94A2\X0\ - \X2\7F0E5149\X0\',0.627450980392157,0.627450980392157,
0.627450980392157);
ENDSEC;
END-ISO-10303-21;
