ISO-10303-21;
HEADER;
/* Generated by software containing ST-Developer
 * from STEP Tools, Inc. (www.steptools.com) 
 */

FILE_DESCRIPTION(
/* description */ (''),
/* implementation_level */ '2;1');

FILE_NAME(
/* name */ '',
/* time_stamp */ '2026-08-11T12:18:43+09:00',
/* author */ (''),
/* organization */ (''),
/* preprocessor_version */ 'ST-DEVELOPER v20.1',
/* originating_system */ 'Autodesk Translation Framework v15.8.0.0',
/* authorisation */ '');

FILE_SCHEMA (('AUTOMOTIVE_DESIGN { 1 0 10303 214 3 1 1 }'));
ENDSEC;

DATA;
#10=MECHANICAL_DESIGN_GEOMETRIC_PRESENTATION_REPRESENTATION('',(#13),#959);
#11=SHAPE_REPRESENTATION_RELATIONSHIP('SRR','None',#966,#12);
#12=ADVANCED_BREP_SHAPE_REPRESENTATION('',(#14),#958);
#13=STYLED_ITEM('',(#975),#14);
#14=MANIFOLD_SOLID_BREP('\X2\5B9E4F53\X0\7',#567);
#15=FACE_BOUND('',#62,.T.);
#16=FACE_BOUND('',#68,.T.);
#17=FACE_BOUND('',#80,.T.);
#18=FACE_BOUND('',#84,.T.);
#19=FACE_BOUND('',#88,.T.);
#20=FACE_BOUND('',#89,.T.);
#21=CYLINDRICAL_SURFACE('',#585,1.5);
#22=CYLINDRICAL_SURFACE('',#595,3.5);
#23=CYLINDRICAL_SURFACE('',#599,1.5);
#24=CYLINDRICAL_SURFACE('',#609,1.5);
#25=CYLINDRICAL_SURFACE('',#616,3.5);
#26=CYLINDRICAL_SURFACE('',#623,3.5);
#27=CYLINDRICAL_SURFACE('',#627,1.5);
#28=CYLINDRICAL_SURFACE('',#629,1.5);
#29=FACE_OUTER_BOUND('',#57,.T.);
#30=FACE_OUTER_BOUND('',#58,.T.);
#31=FACE_OUTER_BOUND('',#59,.T.);
#32=FACE_OUTER_BOUND('',#60,.T.);
#33=FACE_OUTER_BOUND('',#61,.T.);
#34=FACE_OUTER_BOUND('',#63,.T.);
#35=FACE_OUTER_BOUND('',#64,.T.);
#36=FACE_OUTER_BOUND('',#65,.T.);
#37=FACE_OUTER_BOUND('',#66,.T.);
#38=FACE_OUTER_BOUND('',#67,.T.);
#39=FACE_OUTER_BOUND('',#69,.T.);
#40=FACE_OUTER_BOUND('',#70,.T.);
#41=FACE_OUTER_BOUND('',#71,.T.);
#42=FACE_OUTER_BOUND('',#72,.T.);
#43=FACE_OUTER_BOUND('',#73,.T.);
#44=FACE_OUTER_BOUND('',#74,.T.);
#45=FACE_OUTER_BOUND('',#75,.T.);
#46=FACE_OUTER_BOUND('',#76,.T.);
#47=FACE_OUTER_BOUND('',#77,.T.);
#48=FACE_OUTER_BOUND('',#78,.T.);
#49=FACE_OUTER_BOUND('',#79,.T.);
#50=FACE_OUTER_BOUND('',#81,.T.);
#51=FACE_OUTER_BOUND('',#82,.T.);
#52=FACE_OUTER_BOUND('',#83,.T.);
#53=FACE_OUTER_BOUND('',#85,.T.);
#54=FACE_OUTER_BOUND('',#86,.T.);
#55=FACE_OUTER_BOUND('',#87,.T.);
#56=FACE_OUTER_BOUND('',#90,.T.);
#57=EDGE_LOOP('',(#359,#360,#361,#362,#363,#364,#365));
#58=EDGE_LOOP('',(#366,#367,#368,#369,#370));
#59=EDGE_LOOP('',(#371,#372,#373,#374,#375));
#60=EDGE_LOOP('',(#376,#377,#378,#379,#380,#381));
#61=EDGE_LOOP('',(#382,#383,#384,#385,#386));
#62=EDGE_LOOP('',(#387));
#63=EDGE_LOOP('',(#388,#389,#390,#391));
#64=EDGE_LOOP('',(#392,#393,#394,#395,#396,#397,#398,#399,#400,#401,#402,
#403));
#65=EDGE_LOOP('',(#404,#405,#406,#407));
#66=EDGE_LOOP('',(#408,#409,#410,#411));
#67=EDGE_LOOP('',(#412,#413,#414,#415,#416));
#68=EDGE_LOOP('',(#417));
#69=EDGE_LOOP('',(#418));
#70=EDGE_LOOP('',(#419));
#71=EDGE_LOOP('',(#420,#421,#422,#423,#424,#425));
#72=EDGE_LOOP('',(#426,#427,#428,#429));
#73=EDGE_LOOP('',(#430,#431,#432,#433,#434));
#74=EDGE_LOOP('',(#435,#436,#437,#438,#439,#440,#441));
#75=EDGE_LOOP('',(#442,#443,#444,#445,#446));
#76=EDGE_LOOP('',(#447,#448,#449,#450,#451,#452,#453));
#77=EDGE_LOOP('',(#454,#455,#456,#457));
#78=EDGE_LOOP('',(#458,#459,#460,#461,#462,#463,#464,#465,#466,#467,#468,
#469,#470,#471,#472,#473));
#79=EDGE_LOOP('',(#474));
#80=EDGE_LOOP('',(#475));
#81=EDGE_LOOP('',(#476,#477,#478,#479,#480,#481,#482));
#82=EDGE_LOOP('',(#483,#484,#485,#486));
#83=EDGE_LOOP('',(#487));
#84=EDGE_LOOP('',(#488));
#85=EDGE_LOOP('',(#489,#490,#491,#492));
#86=EDGE_LOOP('',(#493,#494,#495,#496));
#87=EDGE_LOOP('',(#497,#498,#499,#500));
#88=EDGE_LOOP('',(#501));
#89=EDGE_LOOP('',(#502));
#90=EDGE_LOOP('',(#503,#504,#505,#506,#507,#508,#509,#510,#511,#512,#513,
#514,#515,#516,#517,#518));
#91=CIRCLE('',#582,3.5);
#92=CIRCLE('',#583,1.5);
#93=CIRCLE('',#584,1.5);
#94=CIRCLE('',#586,1.5);
#95=CIRCLE('',#589,3.5);
#96=CIRCLE('',#590,3.5);
#97=CIRCLE('',#592,3.5);
#98=CIRCLE('',#593,1.5);
#99=CIRCLE('',#596,3.5);
#100=CIRCLE('',#597,3.5);
#101=CIRCLE('',#598,3.5);
#102=CIRCLE('',#600,1.5);
#103=CIRCLE('',#604,1.5);
#104=CIRCLE('',#606,1.5);
#105=CIRCLE('',#610,1.5);
#106=CIRCLE('',#611,1.5);
#107=CIRCLE('',#612,1.5);
#108=CIRCLE('',#614,3.5);
#109=CIRCLE('',#617,3.5);
#110=CIRCLE('',#618,3.5);
#111=CIRCLE('',#622,3.5);
#112=CIRCLE('',#624,3.5);
#113=CIRCLE('',#628,1.5);
#114=CIRCLE('',#630,1.5);
#115=LINE('',#799,#171);
#116=LINE('',#801,#172);
#117=LINE('',#805,#173);
#118=LINE('',#806,#174);
#119=LINE('',#813,#175);
#120=LINE('',#816,#176);
#121=LINE('',#818,#177);
#122=LINE('',#819,#178);
#123=LINE('',#823,#179);
#124=LINE('',#825,#180);
#125=LINE('',#831,#181);
#126=LINE('',#832,#182);
#127=LINE('',#835,#183);
#128=LINE('',#839,#184);
#129=LINE('',#840,#185);
#130=LINE('',#846,#186);
#131=LINE('',#847,#187);
#132=LINE('',#848,#188);
#133=LINE('',#851,#189);
#134=LINE('',#854,#190);
#135=LINE('',#856,#191);
#136=LINE('',#859,#192);
#137=LINE('',#863,#193);
#138=LINE('',#867,#194);
#139=LINE('',#868,#195);
#140=LINE('',#872,#196);
#141=LINE('',#873,#197);
#142=LINE('',#874,#198);
#143=LINE('',#884,#199);
#144=LINE('',#885,#200);
#145=LINE('',#886,#201);
#146=LINE('',#888,#202);
#147=LINE('',#889,#203);
#148=LINE('',#894,#204);
#149=LINE('',#900,#205);
#150=LINE('',#902,#206);
#151=LINE('',#906,#207);
#152=LINE('',#907,#208);
#153=LINE('',#909,#209);
#154=LINE('',#910,#210);
#155=LINE('',#915,#211);
#156=LINE('',#916,#212);
#157=LINE('',#918,#213);
#158=LINE('',#922,#214);
#159=LINE('',#924,#215);
#160=LINE('',#925,#216);
#161=LINE('',#928,#217);
#162=LINE('',#930,#218);
#163=LINE('',#931,#219);
#164=LINE('',#937,#220);
#165=LINE('',#939,#221);
#166=LINE('',#942,#222);
#167=LINE('',#943,#223);
#168=LINE('',#948,#224);
#169=LINE('',#952,#225);
#170=LINE('',#954,#226);
#171=VECTOR('',#637,10.);
#172=VECTOR('',#638,10.);
#173=VECTOR('',#641,10.);
#174=VECTOR('',#642,10.);
#175=VECTOR('',#651,1.5);
#176=VECTOR('',#654,10.);
#177=VECTOR('',#655,10.);
#178=VECTOR('',#656,10.);
#179=VECTOR('',#659,10.);
#180=VECTOR('',#660,10.);
#181=VECTOR('',#665,10.);
#182=VECTOR('',#666,10.);
#183=VECTOR('',#669,10.);
#184=VECTOR('',#672,10.);
#185=VECTOR('',#673,10.);
#186=VECTOR('',#678,10.);
#187=VECTOR('',#679,10.);
#188=VECTOR('',#680,10.);
#189=VECTOR('',#683,10.);
#190=VECTOR('',#686,3.5);
#191=VECTOR('',#687,10.);
#192=VECTOR('',#690,10.);
#193=VECTOR('',#695,1.5);
#194=VECTOR('',#700,10.);
#195=VECTOR('',#701,10.);
#196=VECTOR('',#704,10.);
#197=VECTOR('',#705,10.);
#198=VECTOR('',#706,10.);
#199=VECTOR('',#717,10.);
#200=VECTOR('',#718,10.);
#201=VECTOR('',#719,10.);
#202=VECTOR('',#722,10.);
#203=VECTOR('',#723,10.);
#204=VECTOR('',#728,1.5);
#205=VECTOR('',#735,10.);
#206=VECTOR('',#736,10.);
#207=VECTOR('',#739,10.);
#208=VECTOR('',#740,10.);
#209=VECTOR('',#743,10.);
#210=VECTOR('',#744,10.);
#211=VECTOR('',#749,3.5);
#212=VECTOR('',#750,10.);
#213=VECTOR('',#751,10.);
#214=VECTOR('',#756,10.);
#215=VECTOR('',#757,10.);
#216=VECTOR('',#758,10.);
#217=VECTOR('',#761,10.);
#218=VECTOR('',#762,10.);
#219=VECTOR('',#763,10.);
#220=VECTOR('',#770,3.5);
#221=VECTOR('',#773,10.);
#222=VECTOR('',#776,10.);
#223=VECTOR('',#777,10.);
#224=VECTOR('',#784,1.5);
#225=VECTOR('',#789,1.5);
#226=VECTOR('',#792,10.);
#227=VERTEX_POINT('',#797);
#228=VERTEX_POINT('',#798);
#229=VERTEX_POINT('',#800);
#230=VERTEX_POINT('',#802);
#231=VERTEX_POINT('',#804);
#232=VERTEX_POINT('',#807);
#233=VERTEX_POINT('',#811);
#234=VERTEX_POINT('',#815);
#235=VERTEX_POINT('',#817);
#236=VERTEX_POINT('',#821);
#237=VERTEX_POINT('',#822);
#238=VERTEX_POINT('',#824);
#239=VERTEX_POINT('',#826);
#240=VERTEX_POINT('',#828);
#241=VERTEX_POINT('',#830);
#242=VERTEX_POINT('',#834);
#243=VERTEX_POINT('',#836);
#244=VERTEX_POINT('',#838);
#245=VERTEX_POINT('',#841);
#246=VERTEX_POINT('',#844);
#247=VERTEX_POINT('',#845);
#248=VERTEX_POINT('',#850);
#249=VERTEX_POINT('',#852);
#250=VERTEX_POINT('',#855);
#251=VERTEX_POINT('',#857);
#252=VERTEX_POINT('',#862);
#253=VERTEX_POINT('',#866);
#254=VERTEX_POINT('',#870);
#255=VERTEX_POINT('',#871);
#256=VERTEX_POINT('',#876);
#257=VERTEX_POINT('',#879);
#258=VERTEX_POINT('',#882);
#259=VERTEX_POINT('',#883);
#260=VERTEX_POINT('',#891);
#261=VERTEX_POINT('',#893);
#262=VERTEX_POINT('',#895);
#263=VERTEX_POINT('',#899);
#264=VERTEX_POINT('',#901);
#265=VERTEX_POINT('',#903);
#266=VERTEX_POINT('',#905);
#267=VERTEX_POINT('',#912);
#268=VERTEX_POINT('',#914);
#269=VERTEX_POINT('',#917);
#270=VERTEX_POINT('',#921);
#271=VERTEX_POINT('',#923);
#272=VERTEX_POINT('',#927);
#273=VERTEX_POINT('',#929);
#274=VERTEX_POINT('',#933);
#275=VERTEX_POINT('',#936);
#276=VERTEX_POINT('',#941);
#277=VERTEX_POINT('',#946);
#278=VERTEX_POINT('',#950);
#279=EDGE_CURVE('',#227,#228,#115,.T.);
#280=EDGE_CURVE('',#227,#229,#116,.T.);
#281=EDGE_CURVE('',#229,#230,#91,.T.);
#282=EDGE_CURVE('',#231,#230,#117,.T.);
#283=EDGE_CURVE('',#228,#231,#118,.T.);
#284=EDGE_CURVE('',#228,#232,#92,.T.);
#285=EDGE_CURVE('',#232,#228,#93,.T.);
#286=EDGE_CURVE('',#233,#233,#94,.T.);
#287=EDGE_CURVE('',#233,#232,#119,.T.);
#288=EDGE_CURVE('',#234,#231,#120,.T.);
#289=EDGE_CURVE('',#234,#235,#121,.T.);
#290=EDGE_CURVE('',#227,#235,#122,.T.);
#291=EDGE_CURVE('',#236,#237,#123,.T.);
#292=EDGE_CURVE('',#236,#238,#124,.T.);
#293=EDGE_CURVE('',#238,#239,#95,.T.);
#294=EDGE_CURVE('',#239,#240,#96,.T.);
#295=EDGE_CURVE('',#241,#240,#125,.T.);
#296=EDGE_CURVE('',#237,#241,#126,.T.);
#297=EDGE_CURVE('',#234,#242,#127,.T.);
#298=EDGE_CURVE('',#242,#243,#97,.T.);
#299=EDGE_CURVE('',#243,#244,#128,.T.);
#300=EDGE_CURVE('',#235,#244,#129,.T.);
#301=EDGE_CURVE('',#245,#245,#98,.T.);
#302=EDGE_CURVE('',#246,#247,#130,.T.);
#303=EDGE_CURVE('',#244,#246,#131,.T.);
#304=EDGE_CURVE('',#243,#247,#132,.T.);
#305=EDGE_CURVE('',#248,#242,#133,.T.);
#306=EDGE_CURVE('',#249,#248,#99,.T.);
#307=EDGE_CURVE('',#249,#239,#134,.T.);
#308=EDGE_CURVE('',#238,#250,#135,.T.);
#309=EDGE_CURVE('',#250,#251,#100,.T.);
#310=EDGE_CURVE('',#251,#240,#136,.T.);
#311=EDGE_CURVE('',#247,#249,#101,.T.);
#312=EDGE_CURVE('',#245,#252,#137,.T.);
#313=EDGE_CURVE('',#252,#252,#102,.T.);
#314=EDGE_CURVE('',#251,#253,#138,.T.);
#315=EDGE_CURVE('',#253,#241,#139,.T.);
#316=EDGE_CURVE('',#254,#255,#140,.T.);
#317=EDGE_CURVE('',#254,#253,#141,.T.);
#318=EDGE_CURVE('',#255,#250,#142,.T.);
#319=EDGE_CURVE('',#256,#256,#103,.T.);
#320=EDGE_CURVE('',#257,#257,#104,.T.);
#321=EDGE_CURVE('',#258,#259,#143,.T.);
#322=EDGE_CURVE('',#258,#246,#144,.T.);
#323=EDGE_CURVE('',#259,#248,#145,.T.);
#324=EDGE_CURVE('',#258,#237,#146,.T.);
#325=EDGE_CURVE('',#236,#259,#147,.T.);
#326=EDGE_CURVE('',#260,#260,#105,.T.);
#327=EDGE_CURVE('',#260,#261,#148,.T.);
#328=EDGE_CURVE('',#261,#262,#106,.T.);
#329=EDGE_CURVE('',#262,#261,#107,.T.);
#330=EDGE_CURVE('',#263,#262,#149,.T.);
#331=EDGE_CURVE('',#263,#264,#150,.T.);
#332=EDGE_CURVE('',#265,#264,#108,.T.);
#333=EDGE_CURVE('',#266,#265,#151,.T.);
#334=EDGE_CURVE('',#262,#266,#152,.T.);
#335=EDGE_CURVE('',#263,#255,#153,.T.);
#336=EDGE_CURVE('',#254,#266,#154,.T.);
#337=EDGE_CURVE('',#267,#267,#109,.T.);
#338=EDGE_CURVE('',#267,#268,#155,.T.);
#339=EDGE_CURVE('',#265,#268,#156,.T.);
#340=EDGE_CURVE('',#264,#269,#157,.T.);
#341=EDGE_CURVE('',#269,#268,#110,.T.);
#342=EDGE_CURVE('',#270,#269,#158,.T.);
#343=EDGE_CURVE('',#270,#271,#159,.T.);
#344=EDGE_CURVE('',#271,#268,#160,.T.);
#345=EDGE_CURVE('',#230,#272,#161,.T.);
#346=EDGE_CURVE('',#273,#272,#162,.T.);
#347=EDGE_CURVE('',#273,#270,#163,.T.);
#348=EDGE_CURVE('',#274,#274,#111,.T.);
#349=EDGE_CURVE('',#274,#275,#164,.T.);
#350=EDGE_CURVE('',#272,#275,#112,.T.);
#351=EDGE_CURVE('',#229,#275,#165,.T.);
#352=EDGE_CURVE('',#276,#275,#166,.T.);
#353=EDGE_CURVE('',#276,#273,#167,.T.);
#354=EDGE_CURVE('',#277,#277,#113,.T.);
#355=EDGE_CURVE('',#277,#257,#168,.T.);
#356=EDGE_CURVE('',#278,#278,#114,.T.);
#357=EDGE_CURVE('',#278,#256,#169,.T.);
#358=EDGE_CURVE('',#271,#276,#170,.T.);
#359=ORIENTED_EDGE('',*,*,#279,.F.);
#360=ORIENTED_EDGE('',*,*,#280,.T.);
#361=ORIENTED_EDGE('',*,*,#281,.T.);
#362=ORIENTED_EDGE('',*,*,#282,.F.);
#363=ORIENTED_EDGE('',*,*,#283,.F.);
#364=ORIENTED_EDGE('',*,*,#284,.T.);
#365=ORIENTED_EDGE('',*,*,#285,.T.);
#366=ORIENTED_EDGE('',*,*,#286,.T.);
#367=ORIENTED_EDGE('',*,*,#287,.T.);
#368=ORIENTED_EDGE('',*,*,#284,.F.);
#369=ORIENTED_EDGE('',*,*,#285,.F.);
#370=ORIENTED_EDGE('',*,*,#287,.F.);
#371=ORIENTED_EDGE('',*,*,#279,.T.);
#372=ORIENTED_EDGE('',*,*,#283,.T.);
#373=ORIENTED_EDGE('',*,*,#288,.F.);
#374=ORIENTED_EDGE('',*,*,#289,.T.);
#375=ORIENTED_EDGE('',*,*,#290,.F.);
#376=ORIENTED_EDGE('',*,*,#291,.F.);
#377=ORIENTED_EDGE('',*,*,#292,.T.);
#378=ORIENTED_EDGE('',*,*,#293,.T.);
#379=ORIENTED_EDGE('',*,*,#294,.T.);
#380=ORIENTED_EDGE('',*,*,#295,.F.);
#381=ORIENTED_EDGE('',*,*,#296,.F.);
#382=ORIENTED_EDGE('',*,*,#289,.F.);
#383=ORIENTED_EDGE('',*,*,#297,.T.);
#384=ORIENTED_EDGE('',*,*,#298,.T.);
#385=ORIENTED_EDGE('',*,*,#299,.T.);
#386=ORIENTED_EDGE('',*,*,#300,.F.);
#387=ORIENTED_EDGE('',*,*,#301,.T.);
#388=ORIENTED_EDGE('',*,*,#302,.F.);
#389=ORIENTED_EDGE('',*,*,#303,.F.);
#390=ORIENTED_EDGE('',*,*,#299,.F.);
#391=ORIENTED_EDGE('',*,*,#304,.T.);
#392=ORIENTED_EDGE('',*,*,#304,.F.);
#393=ORIENTED_EDGE('',*,*,#298,.F.);
#394=ORIENTED_EDGE('',*,*,#305,.F.);
#395=ORIENTED_EDGE('',*,*,#306,.F.);
#396=ORIENTED_EDGE('',*,*,#307,.T.);
#397=ORIENTED_EDGE('',*,*,#293,.F.);
#398=ORIENTED_EDGE('',*,*,#308,.T.);
#399=ORIENTED_EDGE('',*,*,#309,.T.);
#400=ORIENTED_EDGE('',*,*,#310,.T.);
#401=ORIENTED_EDGE('',*,*,#294,.F.);
#402=ORIENTED_EDGE('',*,*,#307,.F.);
#403=ORIENTED_EDGE('',*,*,#311,.F.);
#404=ORIENTED_EDGE('',*,*,#301,.F.);
#405=ORIENTED_EDGE('',*,*,#312,.T.);
#406=ORIENTED_EDGE('',*,*,#313,.T.);
#407=ORIENTED_EDGE('',*,*,#312,.F.);
#408=ORIENTED_EDGE('',*,*,#295,.T.);
#409=ORIENTED_EDGE('',*,*,#310,.F.);
#410=ORIENTED_EDGE('',*,*,#314,.T.);
#411=ORIENTED_EDGE('',*,*,#315,.T.);
#412=ORIENTED_EDGE('',*,*,#316,.F.);
#413=ORIENTED_EDGE('',*,*,#317,.T.);
#414=ORIENTED_EDGE('',*,*,#314,.F.);
#415=ORIENTED_EDGE('',*,*,#309,.F.);
#416=ORIENTED_EDGE('',*,*,#318,.F.);
#417=ORIENTED_EDGE('',*,*,#313,.F.);
#418=ORIENTED_EDGE('',*,*,#319,.F.);
#419=ORIENTED_EDGE('',*,*,#320,.F.);
#420=ORIENTED_EDGE('',*,*,#321,.F.);
#421=ORIENTED_EDGE('',*,*,#322,.T.);
#422=ORIENTED_EDGE('',*,*,#302,.T.);
#423=ORIENTED_EDGE('',*,*,#311,.T.);
#424=ORIENTED_EDGE('',*,*,#306,.T.);
#425=ORIENTED_EDGE('',*,*,#323,.F.);
#426=ORIENTED_EDGE('',*,*,#291,.T.);
#427=ORIENTED_EDGE('',*,*,#324,.F.);
#428=ORIENTED_EDGE('',*,*,#321,.T.);
#429=ORIENTED_EDGE('',*,*,#325,.F.);
#430=ORIENTED_EDGE('',*,*,#326,.T.);
#431=ORIENTED_EDGE('',*,*,#327,.T.);
#432=ORIENTED_EDGE('',*,*,#328,.T.);
#433=ORIENTED_EDGE('',*,*,#329,.T.);
#434=ORIENTED_EDGE('',*,*,#327,.F.);
#435=ORIENTED_EDGE('',*,*,#330,.F.);
#436=ORIENTED_EDGE('',*,*,#331,.T.);
#437=ORIENTED_EDGE('',*,*,#332,.F.);
#438=ORIENTED_EDGE('',*,*,#333,.F.);
#439=ORIENTED_EDGE('',*,*,#334,.F.);
#440=ORIENTED_EDGE('',*,*,#328,.F.);
#441=ORIENTED_EDGE('',*,*,#329,.F.);
#442=ORIENTED_EDGE('',*,*,#316,.T.);
#443=ORIENTED_EDGE('',*,*,#335,.F.);
#444=ORIENTED_EDGE('',*,*,#330,.T.);
#445=ORIENTED_EDGE('',*,*,#334,.T.);
#446=ORIENTED_EDGE('',*,*,#336,.F.);
#447=ORIENTED_EDGE('',*,*,#337,.T.);
#448=ORIENTED_EDGE('',*,*,#338,.T.);
#449=ORIENTED_EDGE('',*,*,#339,.F.);
#450=ORIENTED_EDGE('',*,*,#332,.T.);
#451=ORIENTED_EDGE('',*,*,#340,.T.);
#452=ORIENTED_EDGE('',*,*,#341,.T.);
#453=ORIENTED_EDGE('',*,*,#338,.F.);
#454=ORIENTED_EDGE('',*,*,#342,.F.);
#455=ORIENTED_EDGE('',*,*,#343,.T.);
#456=ORIENTED_EDGE('',*,*,#344,.T.);
#457=ORIENTED_EDGE('',*,*,#341,.F.);
#458=ORIENTED_EDGE('',*,*,#335,.T.);
#459=ORIENTED_EDGE('',*,*,#318,.T.);
#460=ORIENTED_EDGE('',*,*,#308,.F.);
#461=ORIENTED_EDGE('',*,*,#292,.F.);
#462=ORIENTED_EDGE('',*,*,#325,.T.);
#463=ORIENTED_EDGE('',*,*,#323,.T.);
#464=ORIENTED_EDGE('',*,*,#305,.T.);
#465=ORIENTED_EDGE('',*,*,#297,.F.);
#466=ORIENTED_EDGE('',*,*,#288,.T.);
#467=ORIENTED_EDGE('',*,*,#282,.T.);
#468=ORIENTED_EDGE('',*,*,#345,.T.);
#469=ORIENTED_EDGE('',*,*,#346,.F.);
#470=ORIENTED_EDGE('',*,*,#347,.T.);
#471=ORIENTED_EDGE('',*,*,#342,.T.);
#472=ORIENTED_EDGE('',*,*,#340,.F.);
#473=ORIENTED_EDGE('',*,*,#331,.F.);
#474=ORIENTED_EDGE('',*,*,#348,.F.);
#475=ORIENTED_EDGE('',*,*,#286,.F.);
#476=ORIENTED_EDGE('',*,*,#348,.T.);
#477=ORIENTED_EDGE('',*,*,#349,.T.);
#478=ORIENTED_EDGE('',*,*,#350,.F.);
#479=ORIENTED_EDGE('',*,*,#345,.F.);
#480=ORIENTED_EDGE('',*,*,#281,.F.);
#481=ORIENTED_EDGE('',*,*,#351,.T.);
#482=ORIENTED_EDGE('',*,*,#349,.F.);
#483=ORIENTED_EDGE('',*,*,#350,.T.);
#484=ORIENTED_EDGE('',*,*,#352,.F.);
#485=ORIENTED_EDGE('',*,*,#353,.T.);
#486=ORIENTED_EDGE('',*,*,#346,.T.);
#487=ORIENTED_EDGE('',*,*,#337,.F.);
#488=ORIENTED_EDGE('',*,*,#326,.F.);
#489=ORIENTED_EDGE('',*,*,#354,.F.);
#490=ORIENTED_EDGE('',*,*,#355,.T.);
#491=ORIENTED_EDGE('',*,*,#320,.T.);
#492=ORIENTED_EDGE('',*,*,#355,.F.);
#493=ORIENTED_EDGE('',*,*,#356,.F.);
#494=ORIENTED_EDGE('',*,*,#357,.T.);
#495=ORIENTED_EDGE('',*,*,#319,.T.);
#496=ORIENTED_EDGE('',*,*,#357,.F.);
#497=ORIENTED_EDGE('',*,*,#347,.F.);
#498=ORIENTED_EDGE('',*,*,#353,.F.);
#499=ORIENTED_EDGE('',*,*,#358,.F.);
#500=ORIENTED_EDGE('',*,*,#343,.F.);
#501=ORIENTED_EDGE('',*,*,#354,.T.);
#502=ORIENTED_EDGE('',*,*,#356,.T.);
#503=ORIENTED_EDGE('',*,*,#290,.T.);
#504=ORIENTED_EDGE('',*,*,#300,.T.);
#505=ORIENTED_EDGE('',*,*,#303,.T.);
#506=ORIENTED_EDGE('',*,*,#322,.F.);
#507=ORIENTED_EDGE('',*,*,#324,.T.);
#508=ORIENTED_EDGE('',*,*,#296,.T.);
#509=ORIENTED_EDGE('',*,*,#315,.F.);
#510=ORIENTED_EDGE('',*,*,#317,.F.);
#511=ORIENTED_EDGE('',*,*,#336,.T.);
#512=ORIENTED_EDGE('',*,*,#333,.T.);
#513=ORIENTED_EDGE('',*,*,#339,.T.);
#514=ORIENTED_EDGE('',*,*,#344,.F.);
#515=ORIENTED_EDGE('',*,*,#358,.T.);
#516=ORIENTED_EDGE('',*,*,#352,.T.);
#517=ORIENTED_EDGE('',*,*,#351,.F.);
#518=ORIENTED_EDGE('',*,*,#280,.F.);
#519=PLANE('',#581);
#520=PLANE('',#587);
#521=PLANE('',#588);
#522=PLANE('',#591);
#523=PLANE('',#594);
#524=PLANE('',#601);
#525=PLANE('',#602);
#526=PLANE('',#603);
#527=PLANE('',#605);
#528=PLANE('',#607);
#529=PLANE('',#608);
#530=PLANE('',#613);
#531=PLANE('',#615);
#532=PLANE('',#619);
#533=PLANE('',#620);
#534=PLANE('',#621);
#535=PLANE('',#625);
#536=PLANE('',#626);
#537=PLANE('',#631);
#538=PLANE('',#632);
#539=ADVANCED_FACE('',(#29),#519,.T.);
#540=ADVANCED_FACE('',(#30),#21,.F.);
#541=ADVANCED_FACE('',(#31),#520,.T.);
#542=ADVANCED_FACE('',(#32),#521,.F.);
#543=ADVANCED_FACE('',(#33,#15),#522,.T.);
#544=ADVANCED_FACE('',(#34),#523,.T.);
#545=ADVANCED_FACE('',(#35),#22,.T.);
#546=ADVANCED_FACE('',(#36),#23,.F.);
#547=ADVANCED_FACE('',(#37),#524,.F.);
#548=ADVANCED_FACE('',(#38,#16),#525,.F.);
#549=ADVANCED_FACE('',(#39),#526,.T.);
#550=ADVANCED_FACE('',(#40),#527,.T.);
#551=ADVANCED_FACE('',(#41),#528,.T.);
#552=ADVANCED_FACE('',(#42),#529,.T.);
#553=ADVANCED_FACE('',(#43),#24,.F.);
#554=ADVANCED_FACE('',(#44),#530,.F.);
#555=ADVANCED_FACE('',(#45),#531,.T.);
#556=ADVANCED_FACE('',(#46),#25,.T.);
#557=ADVANCED_FACE('',(#47),#532,.T.);
#558=ADVANCED_FACE('',(#48),#533,.T.);
#559=ADVANCED_FACE('',(#49,#17),#534,.T.);
#560=ADVANCED_FACE('',(#50),#26,.T.);
#561=ADVANCED_FACE('',(#51),#535,.T.);
#562=ADVANCED_FACE('',(#52,#18),#536,.F.);
#563=ADVANCED_FACE('',(#53),#27,.F.);
#564=ADVANCED_FACE('',(#54),#28,.F.);
#565=ADVANCED_FACE('',(#55,#19,#20),#537,.F.);
#566=ADVANCED_FACE('',(#56),#538,.T.);
#567=CLOSED_SHELL('',(#539,#540,#541,#542,#543,#544,#545,#546,#547,#548,
#549,#550,#551,#552,#553,#554,#555,#556,#557,#558,#559,#560,#561,#562,#563,
#564,#565,#566));
#568=DERIVED_UNIT_ELEMENT(#570,1.);
#569=DERIVED_UNIT_ELEMENT(#961,-3.);
#570=(
MASS_UNIT()
NAMED_UNIT(*)
SI_UNIT(.KILO.,.GRAM.)
);
#571=DERIVED_UNIT((#568,#569));
#572=MEASURE_REPRESENTATION_ITEM('density measure',
POSITIVE_RATIO_MEASURE(7850.),#571);
#573=PROPERTY_DEFINITION_REPRESENTATION(#578,#575);
#574=PROPERTY_DEFINITION_REPRESENTATION(#579,#576);
#575=REPRESENTATION('material name',(#577),#958);
#576=REPRESENTATION('density',(#572),#958);
#577=DESCRIPTIVE_REPRESENTATION_ITEM('\X2\94A2\X0\','\X2\94A2\X0\');
#578=PROPERTY_DEFINITION('material property','material name',#968);
#579=PROPERTY_DEFINITION('material property','density of part',#968);
#580=AXIS2_PLACEMENT_3D('',#795,#633,#634);
#581=AXIS2_PLACEMENT_3D('',#796,#635,#636);
#582=AXIS2_PLACEMENT_3D('',#803,#639,#640);
#583=AXIS2_PLACEMENT_3D('',#808,#643,#644);
#584=AXIS2_PLACEMENT_3D('',#809,#645,#646);
#585=AXIS2_PLACEMENT_3D('',#810,#647,#648);
#586=AXIS2_PLACEMENT_3D('',#812,#649,#650);
#587=AXIS2_PLACEMENT_3D('',#814,#652,#653);
#588=AXIS2_PLACEMENT_3D('',#820,#657,#658);
#589=AXIS2_PLACEMENT_3D('',#827,#661,#662);
#590=AXIS2_PLACEMENT_3D('',#829,#663,#664);
#591=AXIS2_PLACEMENT_3D('',#833,#667,#668);
#592=AXIS2_PLACEMENT_3D('',#837,#670,#671);
#593=AXIS2_PLACEMENT_3D('',#842,#674,#675);
#594=AXIS2_PLACEMENT_3D('',#843,#676,#677);
#595=AXIS2_PLACEMENT_3D('',#849,#681,#682);
#596=AXIS2_PLACEMENT_3D('',#853,#684,#685);
#597=AXIS2_PLACEMENT_3D('',#858,#688,#689);
#598=AXIS2_PLACEMENT_3D('',#860,#691,#692);
#599=AXIS2_PLACEMENT_3D('',#861,#693,#694);
#600=AXIS2_PLACEMENT_3D('',#864,#696,#697);
#601=AXIS2_PLACEMENT_3D('',#865,#698,#699);
#602=AXIS2_PLACEMENT_3D('',#869,#702,#703);
#603=AXIS2_PLACEMENT_3D('',#875,#707,#708);
#604=AXIS2_PLACEMENT_3D('',#877,#709,#710);
#605=AXIS2_PLACEMENT_3D('',#878,#711,#712);
#606=AXIS2_PLACEMENT_3D('',#880,#713,#714);
#607=AXIS2_PLACEMENT_3D('',#881,#715,#716);
#608=AXIS2_PLACEMENT_3D('',#887,#720,#721);
#609=AXIS2_PLACEMENT_3D('',#890,#724,#725);
#610=AXIS2_PLACEMENT_3D('',#892,#726,#727);
#611=AXIS2_PLACEMENT_3D('',#896,#729,#730);
#612=AXIS2_PLACEMENT_3D('',#897,#731,#732);
#613=AXIS2_PLACEMENT_3D('',#898,#733,#734);
#614=AXIS2_PLACEMENT_3D('',#904,#737,#738);
#615=AXIS2_PLACEMENT_3D('',#908,#741,#742);
#616=AXIS2_PLACEMENT_3D('',#911,#745,#746);
#617=AXIS2_PLACEMENT_3D('',#913,#747,#748);
#618=AXIS2_PLACEMENT_3D('',#919,#752,#753);
#619=AXIS2_PLACEMENT_3D('',#920,#754,#755);
#620=AXIS2_PLACEMENT_3D('',#926,#759,#760);
#621=AXIS2_PLACEMENT_3D('',#932,#764,#765);
#622=AXIS2_PLACEMENT_3D('',#934,#766,#767);
#623=AXIS2_PLACEMENT_3D('',#935,#768,#769);
#624=AXIS2_PLACEMENT_3D('',#938,#771,#772);
#625=AXIS2_PLACEMENT_3D('',#940,#774,#775);
#626=AXIS2_PLACEMENT_3D('',#944,#778,#779);
#627=AXIS2_PLACEMENT_3D('',#945,#780,#781);
#628=AXIS2_PLACEMENT_3D('',#947,#782,#783);
#629=AXIS2_PLACEMENT_3D('',#949,#785,#786);
#630=AXIS2_PLACEMENT_3D('',#951,#787,#788);
#631=AXIS2_PLACEMENT_3D('',#953,#790,#791);
#632=AXIS2_PLACEMENT_3D('',#955,#793,#794);
#633=DIRECTION('axis',(0.,0.,1.));
#634=DIRECTION('refdir',(1.,0.,0.));
#635=DIRECTION('center_axis',(-1.,0.,0.));
#636=DIRECTION('ref_axis',(0.,-1.,0.));
#637=DIRECTION('',(0.,1.,0.));
#638=DIRECTION('',(0.,0.,1.));
#639=DIRECTION('center_axis',(-1.,0.,0.));
#640=DIRECTION('ref_axis',(0.,1.,0.));
#641=DIRECTION('',(0.,0.,1.));
#642=DIRECTION('',(0.,1.,0.));
#643=DIRECTION('center_axis',(1.,0.,0.));
#644=DIRECTION('ref_axis',(0.,1.,0.));
#645=DIRECTION('center_axis',(1.,0.,0.));
#646=DIRECTION('ref_axis',(0.,1.,0.));
#647=DIRECTION('center_axis',(-1.,0.,0.));
#648=DIRECTION('ref_axis',(0.,1.,0.));
#649=DIRECTION('center_axis',(1.,0.,0.));
#650=DIRECTION('ref_axis',(0.,1.,0.));
#651=DIRECTION('',(-1.,0.,0.));
#652=DIRECTION('center_axis',(0.,0.,1.));
#653=DIRECTION('ref_axis',(0.,1.,0.));
#654=DIRECTION('',(1.,0.,-1.85037170770859E-16));
#655=DIRECTION('',(0.,-1.,0.));
#656=DIRECTION('',(-1.,0.,1.85037170770859E-16));
#657=DIRECTION('center_axis',(-1.,0.,0.));
#658=DIRECTION('ref_axis',(0.,-1.,0.));
#659=DIRECTION('',(0.,-1.,0.));
#660=DIRECTION('',(0.,0.,1.));
#661=DIRECTION('center_axis',(-1.,0.,0.));
#662=DIRECTION('ref_axis',(0.,1.,0.));
#663=DIRECTION('center_axis',(-1.,0.,0.));
#664=DIRECTION('ref_axis',(0.,1.,0.));
#665=DIRECTION('',(0.,0.492227979274611,0.870466321243523));
#666=DIRECTION('',(0.,0.,1.));
#667=DIRECTION('center_axis',(1.,0.,0.));
#668=DIRECTION('ref_axis',(0.,1.,0.));
#669=DIRECTION('',(0.,0.,1.));
#670=DIRECTION('center_axis',(1.,0.,0.));
#671=DIRECTION('ref_axis',(0.,1.,0.));
#672=DIRECTION('',(0.,-0.492227979274611,-0.870466321243523));
#673=DIRECTION('',(0.,0.,1.));
#674=DIRECTION('center_axis',(-1.,0.,0.));
#675=DIRECTION('ref_axis',(0.,1.,0.));
#676=DIRECTION('center_axis',(0.,-0.870466321243523,0.492227979274611));
#677=DIRECTION('ref_axis',(0.,0.492227979274611,0.870466321243523));
#678=DIRECTION('',(0.,0.492227979274611,0.870466321243523));
#679=DIRECTION('',(-1.,0.,0.));
#680=DIRECTION('',(-1.,0.,0.));
#681=DIRECTION('center_axis',(-1.,0.,0.));
#682=DIRECTION('ref_axis',(0.,1.,0.));
#683=DIRECTION('',(1.,0.,0.));
#684=DIRECTION('center_axis',(1.,0.,0.));
#685=DIRECTION('ref_axis',(0.,1.,0.));
#686=DIRECTION('',(-1.,0.,0.));
#687=DIRECTION('',(-1.,0.,0.));
#688=DIRECTION('center_axis',(1.,0.,0.));
#689=DIRECTION('ref_axis',(0.,1.,0.));
#690=DIRECTION('',(1.,0.,0.));
#691=DIRECTION('center_axis',(1.,0.,0.));
#692=DIRECTION('ref_axis',(0.,1.,0.));
#693=DIRECTION('center_axis',(-1.,0.,0.));
#694=DIRECTION('ref_axis',(0.,1.,0.));
#695=DIRECTION('',(-1.,0.,0.));
#696=DIRECTION('center_axis',(-1.,0.,0.));
#697=DIRECTION('ref_axis',(0.,1.,0.));
#698=DIRECTION('center_axis',(0.,0.870466321243523,-0.492227979274611));
#699=DIRECTION('ref_axis',(0.,0.492227979274611,0.870466321243523));
#700=DIRECTION('',(0.,-0.492227979274611,-0.870466321243523));
#701=DIRECTION('',(1.,0.,0.));
#702=DIRECTION('center_axis',(1.,0.,0.));
#703=DIRECTION('ref_axis',(0.,1.,0.));
#704=DIRECTION('',(0.,1.,0.));
#705=DIRECTION('',(0.,0.,1.));
#706=DIRECTION('',(0.,0.,1.));
#707=DIRECTION('center_axis',(0.,0.,-1.));
#708=DIRECTION('ref_axis',(1.,0.,0.));
#709=DIRECTION('center_axis',(0.,0.,1.));
#710=DIRECTION('ref_axis',(1.,0.,0.));
#711=DIRECTION('center_axis',(0.,0.,-1.));
#712=DIRECTION('ref_axis',(1.,0.,0.));
#713=DIRECTION('center_axis',(0.,0.,1.));
#714=DIRECTION('ref_axis',(1.,0.,0.));
#715=DIRECTION('center_axis',(-1.,0.,0.));
#716=DIRECTION('ref_axis',(0.,-1.,0.));
#717=DIRECTION('',(0.,1.,0.));
#718=DIRECTION('',(0.,0.,1.));
#719=DIRECTION('',(0.,0.,1.));
#720=DIRECTION('center_axis',(0.,0.,1.));
#721=DIRECTION('ref_axis',(0.,1.,0.));
#722=DIRECTION('',(-1.,0.,1.85037170770859E-16));
#723=DIRECTION('',(1.,0.,-1.85037170770859E-16));
#724=DIRECTION('center_axis',(-1.,0.,0.));
#725=DIRECTION('ref_axis',(0.,1.,0.));
#726=DIRECTION('center_axis',(-1.,0.,0.));
#727=DIRECTION('ref_axis',(0.,1.,0.));
#728=DIRECTION('',(1.,0.,0.));
#729=DIRECTION('center_axis',(1.,0.,0.));
#730=DIRECTION('ref_axis',(0.,1.,0.));
#731=DIRECTION('center_axis',(1.,0.,0.));
#732=DIRECTION('ref_axis',(0.,1.,0.));
#733=DIRECTION('center_axis',(-1.,0.,0.));
#734=DIRECTION('ref_axis',(0.,-1.,0.));
#735=DIRECTION('',(0.,-1.,0.));
#736=DIRECTION('',(0.,0.,1.));
#737=DIRECTION('center_axis',(-1.,0.,0.));
#738=DIRECTION('ref_axis',(0.,1.,0.));
#739=DIRECTION('',(0.,0.,1.));
#740=DIRECTION('',(0.,-1.,0.));
#741=DIRECTION('center_axis',(0.,0.,1.));
#742=DIRECTION('ref_axis',(0.,1.,0.));
#743=DIRECTION('',(1.,0.,-1.85037170770859E-16));
#744=DIRECTION('',(-1.,0.,1.85037170770859E-16));
#745=DIRECTION('center_axis',(-1.,0.,0.));
#746=DIRECTION('ref_axis',(0.,1.,0.));
#747=DIRECTION('center_axis',(1.,0.,0.));
#748=DIRECTION('ref_axis',(0.,1.,0.));
#749=DIRECTION('',(1.,0.,0.));
#750=DIRECTION('',(-1.,0.,0.));
#751=DIRECTION('',(-1.,0.,0.));
#752=DIRECTION('center_axis',(-1.,0.,0.));
#753=DIRECTION('ref_axis',(0.,1.,0.));
#754=DIRECTION('center_axis',(-1.,0.,0.));
#755=DIRECTION('ref_axis',(0.,-1.,0.));
#756=DIRECTION('',(0.,0.,1.));
#757=DIRECTION('',(0.,-1.,0.));
#758=DIRECTION('',(0.,0.,1.));
#759=DIRECTION('center_axis',(0.,1.,0.));
#760=DIRECTION('ref_axis',(-1.,0.,0.));
#761=DIRECTION('',(1.,0.,0.));
#762=DIRECTION('',(0.,0.,1.));
#763=DIRECTION('',(-1.,0.,0.));
#764=DIRECTION('center_axis',(1.,0.,0.));
#765=DIRECTION('ref_axis',(0.,1.,0.));
#766=DIRECTION('center_axis',(-1.,0.,0.));
#767=DIRECTION('ref_axis',(0.,1.,0.));
#768=DIRECTION('center_axis',(-1.,0.,0.));
#769=DIRECTION('ref_axis',(0.,1.,0.));
#770=DIRECTION('',(-1.,0.,0.));
#771=DIRECTION('center_axis',(-1.,0.,0.));
#772=DIRECTION('ref_axis',(0.,1.,0.));
#773=DIRECTION('',(1.,0.,0.));
#774=DIRECTION('center_axis',(1.,0.,0.));
#775=DIRECTION('ref_axis',(0.,1.,0.));
#776=DIRECTION('',(0.,0.,1.));
#777=DIRECTION('',(0.,1.,0.));
#778=DIRECTION('center_axis',(1.,0.,0.));
#779=DIRECTION('ref_axis',(0.,1.,0.));
#780=DIRECTION('center_axis',(0.,0.,1.));
#781=DIRECTION('ref_axis',(1.,0.,0.));
#782=DIRECTION('center_axis',(0.,0.,1.));
#783=DIRECTION('ref_axis',(1.,0.,0.));
#784=DIRECTION('',(0.,0.,1.));
#785=DIRECTION('center_axis',(0.,0.,1.));
#786=DIRECTION('ref_axis',(1.,0.,0.));
#787=DIRECTION('center_axis',(0.,0.,1.));
#788=DIRECTION('ref_axis',(1.,0.,0.));
#789=DIRECTION('',(0.,0.,1.));
#790=DIRECTION('center_axis',(0.,0.,1.));
#791=DIRECTION('ref_axis',(1.,0.,0.));
#792=DIRECTION('',(1.,0.,0.));
#793=DIRECTION('center_axis',(0.,-1.,0.));
#794=DIRECTION('ref_axis',(1.,0.,0.));
#795=CARTESIAN_POINT('',(0.,0.,0.));
#796=CARTESIAN_POINT('Origin',(14.,3.5,4.));
#797=CARTESIAN_POINT('',(14.,-3.5,9.));
#798=CARTESIAN_POINT('',(14.,0.,9.));
#799=CARTESIAN_POINT('',(14.,0.,9.));
#800=CARTESIAN_POINT('',(14.,-3.5,10.5));
#801=CARTESIAN_POINT('',(14.,-3.5,4.));
#802=CARTESIAN_POINT('',(14.,3.5,10.5));
#803=CARTESIAN_POINT('Origin',(14.,0.,10.5));
#804=CARTESIAN_POINT('',(14.,3.5,9.));
#805=CARTESIAN_POINT('',(14.,3.5,4.));
#806=CARTESIAN_POINT('',(14.,0.,9.));
#807=CARTESIAN_POINT('',(14.,-1.5,10.5));
#808=CARTESIAN_POINT('Origin',(14.,0.,10.5));
#809=CARTESIAN_POINT('Origin',(14.,0.,10.5));
#810=CARTESIAN_POINT('Origin',(21.,0.,10.5));
#811=CARTESIAN_POINT('',(24.75,-1.5,10.5));
#812=CARTESIAN_POINT('Origin',(24.75,0.,10.5));
#813=CARTESIAN_POINT('',(21.,-1.5,10.5));
#814=CARTESIAN_POINT('Origin',(14.,-3.5,9.));
#815=CARTESIAN_POINT('',(11.5,3.5,9.));
#816=CARTESIAN_POINT('',(10.5,3.5,9.));
#817=CARTESIAN_POINT('',(11.5,-3.5,9.));
#818=CARTESIAN_POINT('',(11.5,-3.5,9.));
#819=CARTESIAN_POINT('',(-10.5,-3.5,9.));
#820=CARTESIAN_POINT('Origin',(-5.5,3.5,3.5));
#821=CARTESIAN_POINT('',(-5.5,3.5,9.));
#822=CARTESIAN_POINT('',(-5.5,-3.5,9.));
#823=CARTESIAN_POINT('',(-5.5,0.,9.));
#824=CARTESIAN_POINT('',(-5.5,3.5,18.6458980337503));
#825=CARTESIAN_POINT('',(-5.5,3.5,3.5));
#826=CARTESIAN_POINT('',(-5.5,-1.,22.));
#827=CARTESIAN_POINT('Origin',(-5.5,2.5,22.));
#828=CARTESIAN_POINT('',(-5.5,-0.54663212435233,23.7227979274611));
#829=CARTESIAN_POINT('Origin',(-5.5,2.5,22.));
#830=CARTESIAN_POINT('',(-5.5,-3.5,18.5));
#831=CARTESIAN_POINT('',(-5.5,-5.72413069734055,14.5668004510188));
#832=CARTESIAN_POINT('',(-5.5,-3.5,3.5));
#833=CARTESIAN_POINT('Origin',(11.5,-3.5,3.5));
#834=CARTESIAN_POINT('',(11.5,3.5,18.6458980337503));
#835=CARTESIAN_POINT('',(11.5,3.5,3.5));
#836=CARTESIAN_POINT('',(11.5,-0.54663212435233,23.7227979274611));
#837=CARTESIAN_POINT('Origin',(11.5,2.5,22.));
#838=CARTESIAN_POINT('',(11.5,-3.5,18.5));
#839=CARTESIAN_POINT('',(11.5,-6.57214003987323,13.0671628768558));
#840=CARTESIAN_POINT('',(11.5,-3.5,3.5));
#841=CARTESIAN_POINT('',(11.5,1.,22.));
#842=CARTESIAN_POINT('Origin',(11.5,2.5,22.));
#843=CARTESIAN_POINT('Origin',(11.5,-3.2172619047619,19.));
#844=CARTESIAN_POINT('',(5.5,-3.5,18.5));
#845=CARTESIAN_POINT('',(5.5,-0.54663212435233,23.7227979274611));
#846=CARTESIAN_POINT('',(5.5,-5.72413069734055,14.5668004510188));
#847=CARTESIAN_POINT('',(-4.75,-3.5,18.5));
#848=CARTESIAN_POINT('',(11.5,-0.54663212435233,23.7227979274611));
#849=CARTESIAN_POINT('Origin',(-11.5,2.5,22.));
#850=CARTESIAN_POINT('',(5.5,3.5,18.6458980337503));
#851=CARTESIAN_POINT('',(11.5,3.5,18.6458980337503));
#852=CARTESIAN_POINT('',(5.5,-1.,22.));
#853=CARTESIAN_POINT('Origin',(5.5,2.5,22.));
#854=CARTESIAN_POINT('',(-11.5,-1.,22.));
#855=CARTESIAN_POINT('',(-11.5,3.5,18.6458980337503));
#856=CARTESIAN_POINT('',(-11.5,3.5,18.6458980337503));
#857=CARTESIAN_POINT('',(-11.5,-0.54663212435233,23.7227979274611));
#858=CARTESIAN_POINT('Origin',(-11.5,2.5,22.));
#859=CARTESIAN_POINT('',(-11.5,-0.54663212435233,23.7227979274611));
#860=CARTESIAN_POINT('Origin',(5.5,2.5,22.));
#861=CARTESIAN_POINT('Origin',(-11.5,2.5,22.));
#862=CARTESIAN_POINT('',(-11.5,1.,22.));
#863=CARTESIAN_POINT('',(-11.5,1.,22.));
#864=CARTESIAN_POINT('Origin',(-11.5,2.5,22.));
#865=CARTESIAN_POINT('Origin',(-11.5,-3.2172619047619,19.));
#866=CARTESIAN_POINT('',(-11.5,-3.5,18.5));
#867=CARTESIAN_POINT('',(-11.5,-6.57214003987323,13.0671628768558));
#868=CARTESIAN_POINT('',(4.75,-3.5,18.5));
#869=CARTESIAN_POINT('Origin',(-11.5,-3.5,3.5));
#870=CARTESIAN_POINT('',(-11.5,-3.5,9.));
#871=CARTESIAN_POINT('',(-11.5,3.5,9.));
#872=CARTESIAN_POINT('',(-11.5,-3.5,9.));
#873=CARTESIAN_POINT('',(-11.5,-3.5,3.5));
#874=CARTESIAN_POINT('',(-11.5,3.5,3.5));
#875=CARTESIAN_POINT('Origin',(8.5,0.,13.5));
#876=CARTESIAN_POINT('',(7.,1.83697019872103E-16,13.5));
#877=CARTESIAN_POINT('Origin',(8.5,0.,13.5));
#878=CARTESIAN_POINT('Origin',(-8.5,0.,13.5));
#879=CARTESIAN_POINT('',(-10.,1.83697019872103E-16,13.5));
#880=CARTESIAN_POINT('Origin',(-8.5,0.,13.5));
#881=CARTESIAN_POINT('Origin',(5.5,3.5,3.5));
#882=CARTESIAN_POINT('',(5.5,-3.5,9.));
#883=CARTESIAN_POINT('',(5.5,3.5,9.));
#884=CARTESIAN_POINT('',(5.5,0.,9.));
#885=CARTESIAN_POINT('',(5.5,-3.5,3.5));
#886=CARTESIAN_POINT('',(5.5,3.5,3.5));
#887=CARTESIAN_POINT('Origin',(14.,-3.5,9.));
#888=CARTESIAN_POINT('',(-10.5,-3.5,9.));
#889=CARTESIAN_POINT('',(10.5,3.5,9.));
#890=CARTESIAN_POINT('Origin',(-21.,0.,10.5));
#891=CARTESIAN_POINT('',(-24.75,-1.5,10.5));
#892=CARTESIAN_POINT('Origin',(-24.75,0.,10.5));
#893=CARTESIAN_POINT('',(-14.,-1.5,10.5));
#894=CARTESIAN_POINT('',(-21.,-1.5,10.5));
#895=CARTESIAN_POINT('',(-14.,0.,9.));
#896=CARTESIAN_POINT('Origin',(-14.,0.,10.5));
#897=CARTESIAN_POINT('Origin',(-14.,0.,10.5));
#898=CARTESIAN_POINT('Origin',(-14.,3.5,4.));
#899=CARTESIAN_POINT('',(-14.,3.5,9.));
#900=CARTESIAN_POINT('',(-14.,0.,9.));
#901=CARTESIAN_POINT('',(-14.,3.5,10.5));
#902=CARTESIAN_POINT('',(-14.,3.5,4.));
#903=CARTESIAN_POINT('',(-14.,-3.5,10.5));
#904=CARTESIAN_POINT('Origin',(-14.,0.,10.5));
#905=CARTESIAN_POINT('',(-14.,-3.5,9.));
#906=CARTESIAN_POINT('',(-14.,-3.5,4.));
#907=CARTESIAN_POINT('',(-14.,0.,9.));
#908=CARTESIAN_POINT('Origin',(14.,-3.5,9.));
#909=CARTESIAN_POINT('',(10.5,3.5,9.));
#910=CARTESIAN_POINT('',(-10.5,-3.5,9.));
#911=CARTESIAN_POINT('Origin',(-21.,0.,10.5));
#912=CARTESIAN_POINT('',(-24.75,-3.5,10.5));
#913=CARTESIAN_POINT('Origin',(-24.75,0.,10.5));
#914=CARTESIAN_POINT('',(-21.,-3.5,10.5));
#915=CARTESIAN_POINT('',(-21.,-3.5,10.5));
#916=CARTESIAN_POINT('',(-21.,-3.5,10.5));
#917=CARTESIAN_POINT('',(-21.,3.5,10.5));
#918=CARTESIAN_POINT('',(-21.,3.5,10.5));
#919=CARTESIAN_POINT('Origin',(-21.,0.,10.5));
#920=CARTESIAN_POINT('Origin',(-21.,3.5,0.));
#921=CARTESIAN_POINT('',(-21.,3.5,6.));
#922=CARTESIAN_POINT('',(-21.,3.5,0.));
#923=CARTESIAN_POINT('',(-21.,-3.5,6.));
#924=CARTESIAN_POINT('',(-21.,1.75,6.));
#925=CARTESIAN_POINT('',(-21.,-3.5,0.));
#926=CARTESIAN_POINT('Origin',(21.,3.5,0.));
#927=CARTESIAN_POINT('',(21.,3.5,10.5));
#928=CARTESIAN_POINT('',(21.,3.5,10.5));
#929=CARTESIAN_POINT('',(21.,3.5,6.));
#930=CARTESIAN_POINT('',(21.,3.5,0.));
#931=CARTESIAN_POINT('',(10.5,3.5,6.));
#932=CARTESIAN_POINT('Origin',(24.75,0.,10.5));
#933=CARTESIAN_POINT('',(24.75,-3.5,10.5));
#934=CARTESIAN_POINT('Origin',(24.75,0.,10.5));
#935=CARTESIAN_POINT('Origin',(21.,0.,10.5));
#936=CARTESIAN_POINT('',(21.,-3.5,10.5));
#937=CARTESIAN_POINT('',(21.,-3.5,10.5));
#938=CARTESIAN_POINT('Origin',(21.,0.,10.5));
#939=CARTESIAN_POINT('',(21.,-3.5,10.5));
#940=CARTESIAN_POINT('Origin',(21.,-3.5,0.));
#941=CARTESIAN_POINT('',(21.,-3.5,6.));
#942=CARTESIAN_POINT('',(21.,-3.5,0.));
#943=CARTESIAN_POINT('',(21.,-1.75,6.));
#944=CARTESIAN_POINT('Origin',(-24.75,0.,10.5));
#945=CARTESIAN_POINT('Origin',(-8.5,0.,6.));
#946=CARTESIAN_POINT('',(-10.,1.83697019872103E-16,6.));
#947=CARTESIAN_POINT('Origin',(-8.5,0.,6.));
#948=CARTESIAN_POINT('',(-10.,-1.83697019872103E-16,6.));
#949=CARTESIAN_POINT('Origin',(8.5,0.,6.));
#950=CARTESIAN_POINT('',(7.,1.83697019872103E-16,6.));
#951=CARTESIAN_POINT('Origin',(8.5,0.,6.));
#952=CARTESIAN_POINT('',(7.,-1.83697019872103E-16,6.));
#953=CARTESIAN_POINT('Origin',(0.,0.,6.));
#954=CARTESIAN_POINT('',(-10.5,-3.5,6.));
#955=CARTESIAN_POINT('Origin',(-21.,-3.5,0.));
#956=UNCERTAINTY_MEASURE_WITH_UNIT(LENGTH_MEASURE(0.01),#960,
'DISTANCE_ACCURACY_VALUE',
'Maximum model space distance between geometric entities at asserted c
onnectivities');
#957=UNCERTAINTY_MEASURE_WITH_UNIT(LENGTH_MEASURE(0.01),#960,
'DISTANCE_ACCURACY_VALUE',
'Maximum model space distance between geometric entities at asserted c
onnectivities');
#958=(
GEOMETRIC_REPRESENTATION_CONTEXT(3)
GLOBAL_UNCERTAINTY_ASSIGNED_CONTEXT((#956))
GLOBAL_UNIT_ASSIGNED_CONTEXT((#960,#962,#963))
REPRESENTATION_CONTEXT('','3D')
);
#959=(
GEOMETRIC_REPRESENTATION_CONTEXT(3)
GLOBAL_UNCERTAINTY_ASSIGNED_CONTEXT((#957))
GLOBAL_UNIT_ASSIGNED_CONTEXT((#960,#962,#963))
REPRESENTATION_CONTEXT('','3D')
);
#960=(
LENGTH_UNIT()
NAMED_UNIT(*)
SI_UNIT(.MILLI.,.METRE.)
);
#961=(
LENGTH_UNIT()
NAMED_UNIT(*)
SI_UNIT($,.METRE.)
);
#962=(
NAMED_UNIT(*)
PLANE_ANGLE_UNIT()
SI_UNIT($,.RADIAN.)
);
#963=(
NAMED_UNIT(*)
SI_UNIT($,.STERADIAN.)
SOLID_ANGLE_UNIT()
);
#964=SHAPE_DEFINITION_REPRESENTATION(#965,#966);
#965=PRODUCT_DEFINITION_SHAPE('',$,#968);
#966=SHAPE_REPRESENTATION('',(#580),#958);
#967=PRODUCT_DEFINITION_CONTEXT('part definition',#972,'design');
#968=PRODUCT_DEFINITION('2026-07-17-15-21-08-953',
'\X2\221A9A6C8FBE652F67B6FF08\X0\-0.5mm\X2\FF09\X0\',#969,#967);
#969=PRODUCT_DEFINITION_FORMATION('',$,#974);
#970=PRODUCT_RELATED_PRODUCT_CATEGORY('\X2\221A9A6C8FBE652F67B6FF08\X0\-
0.5mm\X2\FF09\X0\','\X2\221A9A6C8FBE652F67B6FF08\X0\-0.5mm\X2\FF09\X0\',
(#974));
#971=APPLICATION_PROTOCOL_DEFINITION('international standard',
'automotive_design',2009,#972);
#972=APPLICATION_CONTEXT(
'Core Data for Automotive Mechanical Design Process');
#973=PRODUCT_CONTEXT('part definition',#972,'mechanical');
#974=PRODUCT('2026-07-17-15-21-08-953','\X2\221A9A6C8FBE652F67B6FF08\X0\-
0.5mm\X2\FF09\X0\',$,(#973));
#975=PRESENTATION_STYLE_ASSIGNMENT((#976));
#976=SURFACE_STYLE_USAGE(.BOTH.,#977);
#977=SURFACE_SIDE_STYLE('',(#978));
#978=SURFACE_STYLE_FILL_AREA(#979);
#979=FILL_AREA_STYLE('\X2\94A2\X0\ - \X2\7F0E5149\X0\',(#980));
#980=FILL_AREA_STYLE_COLOUR('\X2\94A2\X0\ - \X2\7F0E5149\X0\',#981);
#981=COLOUR_RGB('\X2\94A2\X0\ - \X2\7F0E5149\X0\',0.627450980392157,0.627450980392157,
0.627450980392157);
ENDSEC;
END-ISO-10303-21;
