ISO-10303-21;
HEADER;
/* Generated by software containing ST-Developer
 * from STEP Tools, Inc. (www.steptools.com) 
 */

FILE_DESCRIPTION(
/* description */ (''),
/* implementation_level */ '2;1');

FILE_NAME(
/* name */ '',
/* time_stamp */ '2026-08-11T12:17:14+09:00',
/* author */ (''),
/* organization */ (''),
/* preprocessor_version */ 'ST-DEVELOPER v20.1',
/* originating_system */ 'Autodesk Translation Framework v15.8.0.0',
/* authorisation */ '');

FILE_SCHEMA (('AUTOMOTIVE_DESIGN { 1 0 10303 214 3 1 1 }'));
ENDSEC;

DATA;
#10=MECHANICAL_DESIGN_GEOMETRIC_PRESENTATION_REPRESENTATION('',(#13),#660);
#11=SHAPE_REPRESENTATION_RELATIONSHIP('SRR','None',#667,#12);
#12=ADVANCED_BREP_SHAPE_REPRESENTATION('',(#14),#659);
#13=STYLED_ITEM('',(#676),#14);
#14=MANIFOLD_SOLID_BREP('\X2\5B9E4F53\X0\1',#304);
#15=FACE_BOUND('',#62,.T.);
#16=FACE_BOUND('',#63,.T.);
#17=CONICAL_SURFACE('',#333,4.5,0.489957326253728);
#18=CONICAL_SURFACE('',#338,2.75,0.785398163397449);
#19=CONICAL_SURFACE('',#342,4.5,0.096917627794363);
#20=CONICAL_SURFACE('',#344,4.5,0.489957326253728);
#21=(
BOUNDED_CURVE()
B_SPLINE_CURVE(2,(#510,#511,#512),.UNSPECIFIED.,.F.,.F.)
B_SPLINE_CURVE_WITH_KNOTS((3,3),(0.,0.343126390323055),.UNSPECIFIED.)
CURVE()
GEOMETRIC_REPRESENTATION_ITEM()
RATIONAL_B_SPLINE_CURVE((1.,1.02632753955923,1.))
REPRESENTATION_ITEM('')
);
#22=(
BOUNDED_CURVE()
B_SPLINE_CURVE(2,(#519,#520,#521),.UNSPECIFIED.,.F.,.F.)
B_SPLINE_CURVE_WITH_KNOTS((3,3),(0.,0.343126390323055),.UNSPECIFIED.)
CURVE()
GEOMETRIC_REPRESENTATION_ITEM()
RATIONAL_B_SPLINE_CURVE((1.,1.02632753955923,1.))
REPRESENTATION_ITEM('')
);
#23=(
BOUNDED_CURVE()
B_SPLINE_CURVE(2,(#548,#549,#550),.UNSPECIFIED.,.F.,.F.)
B_SPLINE_CURVE_WITH_KNOTS((3,3),(0.,0.343126390323055),.UNSPECIFIED.)
CURVE()
GEOMETRIC_REPRESENTATION_ITEM()
RATIONAL_B_SPLINE_CURVE((1.,1.02632753955923,1.))
REPRESENTATION_ITEM('')
);
#24=(
BOUNDED_CURVE()
B_SPLINE_CURVE(2,(#555,#556,#557),.UNSPECIFIED.,.F.,.F.)
B_SPLINE_CURVE_WITH_KNOTS((3,3),(0.,0.343126390323055),.UNSPECIFIED.)
CURVE()
GEOMETRIC_REPRESENTATION_ITEM()
RATIONAL_B_SPLINE_CURVE((1.,1.02632753955923,1.))
REPRESENTATION_ITEM('')
);
#25=PLANE('',#324);
#26=PLANE('',#325);
#27=PLANE('',#327);
#28=PLANE('',#328);
#29=PLANE('',#336);
#30=PLANE('',#345);
#31=FACE_OUTER_BOUND('',#48,.T.);
#32=FACE_OUTER_BOUND('',#49,.T.);
#33=FACE_OUTER_BOUND('',#50,.T.);
#34=FACE_OUTER_BOUND('',#51,.T.);
#35=FACE_OUTER_BOUND('',#52,.T.);
#36=FACE_OUTER_BOUND('',#53,.T.);
#37=FACE_OUTER_BOUND('',#54,.T.);
#38=FACE_OUTER_BOUND('',#55,.T.);
#39=FACE_OUTER_BOUND('',#56,.T.);
#40=FACE_OUTER_BOUND('',#57,.T.);
#41=FACE_OUTER_BOUND('',#58,.T.);
#42=FACE_OUTER_BOUND('',#59,.T.);
#43=FACE_OUTER_BOUND('',#60,.T.);
#44=FACE_OUTER_BOUND('',#61,.T.);
#45=FACE_OUTER_BOUND('',#64,.T.);
#46=FACE_OUTER_BOUND('',#65,.T.);
#47=FACE_OUTER_BOUND('',#66,.T.);
#48=EDGE_LOOP('',(#194,#195,#196,#197,#198));
#49=EDGE_LOOP('',(#199,#200,#201,#202,#203,#204));
#50=EDGE_LOOP('',(#205,#206,#207,#208,#209,#210));
#51=EDGE_LOOP('',(#211,#212,#213,#214));
#52=EDGE_LOOP('',(#215,#216,#217,#218));
#53=EDGE_LOOP('',(#219,#220,#221,#222,#223,#224));
#54=EDGE_LOOP('',(#225,#226,#227,#228));
#55=EDGE_LOOP('',(#229,#230,#231,#232));
#56=EDGE_LOOP('',(#233,#234,#235,#236,#237,#238,#239,#240,#241,#242,#243,
#244,#245));
#57=EDGE_LOOP('',(#246,#247,#248,#249));
#58=EDGE_LOOP('',(#250,#251,#252,#253,#254));
#59=EDGE_LOOP('',(#255));
#60=EDGE_LOOP('',(#256,#257,#258,#259));
#61=EDGE_LOOP('',(#260,#261,#262,#263));
#62=EDGE_LOOP('',(#264));
#63=EDGE_LOOP('',(#265,#266));
#64=EDGE_LOOP('',(#267,#268,#269,#270,#271,#272,#273,#274));
#65=EDGE_LOOP('',(#275,#276,#277,#278));
#66=EDGE_LOOP('',(#279));
#67=CIRCLE('',#319,4.5);
#68=CIRCLE('',#321,4.5);
#69=CIRCLE('',#322,4.5);
#70=CIRCLE('',#330,2.9);
#71=CIRCLE('',#331,2.9);
#72=CIRCLE('',#332,2.9);
#73=CIRCLE('',#334,4.5);
#74=CIRCLE('',#337,1.25);
#75=CIRCLE('',#339,2.75);
#76=CIRCLE('',#341,2.75);
#77=CIRCLE('',#343,4.5);
#78=LINE('',#436,#95);
#79=LINE('',#440,#96);
#80=LINE('',#465,#97);
#81=LINE('',#471,#98);
#82=LINE('',#484,#99);
#83=LINE('',#507,#100);
#84=LINE('',#513,#101);
#85=LINE('',#516,#102);
#86=LINE('',#518,#103);
#87=LINE('',#524,#104);
#88=LINE('',#551,#105);
#89=LINE('',#554,#106);
#90=LINE('',#561,#107);
#91=LINE('',#606,#108);
#92=LINE('',#646,#109);
#93=LINE('',#650,#110);
#94=LINE('',#653,#111);
#95=VECTOR('',#350,10.);
#96=VECTOR('',#353,10.);
#97=VECTOR('',#356,10.);
#98=VECTOR('',#361,10.);
#99=VECTOR('',#364,10.);
#100=VECTOR('',#365,10.);
#101=VECTOR('',#368,10.);
#102=VECTOR('',#371,10.);
#103=VECTOR('',#372,10.);
#104=VECTOR('',#375,10.);
#105=VECTOR('',#378,10.);
#106=VECTOR('',#381,10.);
#107=VECTOR('',#386,2.9);
#108=VECTOR('',#397,0.75);
#109=VECTOR('',#404,2.75);
#110=VECTOR('',#409,2.75);
#111=VECTOR('',#414,4.5);
#112=B_SPLINE_CURVE_WITH_KNOTS('',3,(#425,#426,#427,#428,#429,#430,#431,
#432,#433,#434),.UNSPECIFIED.,.F.,.F.,(4,2,2,2,4),(-0.302438867577181,-0.264632380018126,
-0.226825892459072,-0.189022663123831,-0.15121943378859),.UNSPECIFIED.);
#113=B_SPLINE_CURVE_WITH_KNOTS('',3,(#441,#442,#443,#444,#445,#446,#447,
#448,#449,#450),.UNSPECIFIED.,.F.,.F.,(4,2,2,2,4),(-0.15121943378859,-0.113416204453349,
-0.0756129751181086,-0.0378064875590544,0.),.UNSPECIFIED.);
#114=B_SPLINE_CURVE_WITH_KNOTS('',3,(#454,#455,#456,#457,#458,#459,#460,
#461,#462,#463),.UNSPECIFIED.,.F.,.F.,(4,2,2,2,4),(0.,0.0378064875590543,
0.0756129751181086,0.113416204453349,0.15121943378859),.UNSPECIFIED.);
#115=B_SPLINE_CURVE_WITH_KNOTS('',3,(#472,#473,#474,#475,#476,#477,#478,
#479,#480,#481),.UNSPECIFIED.,.F.,.F.,(4,2,2,2,4),(0.15121943378859,0.189022663123831,
0.226825892459072,0.264632380018126,0.302438867577181),.UNSPECIFIED.);
#116=B_SPLINE_CURVE_WITH_KNOTS('',3,(#486,#487,#488,#489,#490,#491,#492,
#493,#494,#495),.UNSPECIFIED.,.F.,.F.,(4,2,2,2,4),(0.,0.0380187862907121,
0.0760375725814241,0.114036004053046,0.152034435524668),.UNSPECIFIED.);
#117=B_SPLINE_CURVE_WITH_KNOTS('',3,(#497,#498,#499,#500,#501,#502,#503,
#504,#505,#506),.UNSPECIFIED.,.F.,.F.,(4,2,2,2,4),(0.152034435524668,0.19003286699629,
0.228031298467911,0.266050084758623,0.304068871049335),.UNSPECIFIED.);
#118=B_SPLINE_CURVE_WITH_KNOTS('',3,(#526,#527,#528,#529,#530,#531,#532,
#533,#534,#535),.UNSPECIFIED.,.F.,.F.,(4,2,2,2,4),(-0.304068871049336,-0.266050084758623,
-0.228031298467911,-0.19003286699629,-0.152034435524668),.UNSPECIFIED.);
#119=B_SPLINE_CURVE_WITH_KNOTS('',3,(#536,#537,#538,#539,#540,#541,#542,
#543,#544,#545),.UNSPECIFIED.,.F.,.F.,(4,2,2,2,4),(-0.152034435524668,-0.114036004053046,
-0.0760375725814242,-0.0380187862907121,0.),.UNSPECIFIED.);
#120=B_SPLINE_CURVE_WITH_KNOTS('',3,(#569,#570,#571,#572,#573,#574,#575,
#576,#577,#578,#579,#580,#581,#582,#583,#584,#585,#586),.UNSPECIFIED.,.F.,
 .F.,(4,2,2,2,2,2,2,2,4),(0.227258480128635,0.255668636070634,0.284078792012632,
0.312483256102792,0.340887720192953,0.369292184283113,0.397696648373273,
0.426106804315272,0.45451696025727),.UNSPECIFIED.);
#121=B_SPLINE_CURVE_WITH_KNOTS('',3,(#587,#588,#589,#590,#591,#592,#593,
#594,#595,#596,#597,#598,#599,#600,#601,#602,#603,#604),.UNSPECIFIED.,.F.,
 .F.,(4,2,2,2,2,2,2,2,4),(0.45451696025727,0.482927116199269,0.511337272141267,
0.539741736231428,0.568146200321588,0.596550664411748,0.624955128501909,
0.653365284443907,0.681775440385906),.UNSPECIFIED.);
#122=B_SPLINE_CURVE_WITH_KNOTS('',3,(#607,#608,#609,#610,#611,#612,#613,
#614,#615,#616,#617,#618,#619,#620,#621,#622,#623,#624,#625,#626,#627,#628,
#629,#630,#631,#632,#633,#634,#635,#636,#637,#638,#639,#640),
 .UNSPECIFIED.,.T.,.F.,(4,2,2,2,2,2,2,2,2,2,2,2,2,2,2,2,4),(0.,0.0284101559419985,
0.056820311883997,0.0852247759741573,0.113629240064318,0.142033704154478,
0.170438168244638,0.198848324186637,0.227258480128635,0.255668636070634,
0.284078792012632,0.312483256102793,0.340887720192953,0.369292184283113,
0.397696648373273,0.426106804315272,0.45451696025727),.UNSPECIFIED.);
#123=VERTEX_POINT('',#423);
#124=VERTEX_POINT('',#424);
#125=VERTEX_POINT('',#435);
#126=VERTEX_POINT('',#437);
#127=VERTEX_POINT('',#439);
#128=VERTEX_POINT('',#452);
#129=VERTEX_POINT('',#453);
#130=VERTEX_POINT('',#464);
#131=VERTEX_POINT('',#466);
#132=VERTEX_POINT('',#468);
#133=VERTEX_POINT('',#470);
#134=VERTEX_POINT('',#483);
#135=VERTEX_POINT('',#485);
#136=VERTEX_POINT('',#496);
#137=VERTEX_POINT('',#509);
#138=VERTEX_POINT('',#515);
#139=VERTEX_POINT('',#517);
#140=VERTEX_POINT('',#523);
#141=VERTEX_POINT('',#525);
#142=VERTEX_POINT('',#547);
#143=VERTEX_POINT('',#553);
#144=VERTEX_POINT('',#560);
#145=VERTEX_POINT('',#567);
#146=VERTEX_POINT('',#568);
#147=VERTEX_POINT('',#605);
#148=VERTEX_POINT('',#642);
#149=VERTEX_POINT('',#645);
#150=VERTEX_POINT('',#649);
#151=EDGE_CURVE('',#123,#124,#112,.T.);
#152=EDGE_CURVE('',#125,#123,#78,.T.);
#153=EDGE_CURVE('',#125,#126,#67,.T.);
#154=EDGE_CURVE('',#127,#126,#79,.T.);
#155=EDGE_CURVE('',#124,#127,#113,.T.);
#156=EDGE_CURVE('',#128,#129,#114,.T.);
#157=EDGE_CURVE('',#130,#128,#80,.T.);
#158=EDGE_CURVE('',#130,#131,#68,.T.);
#159=EDGE_CURVE('',#131,#132,#69,.T.);
#160=EDGE_CURVE('',#133,#132,#81,.T.);
#161=EDGE_CURVE('',#129,#133,#115,.T.);
#162=EDGE_CURVE('',#134,#133,#82,.T.);
#163=EDGE_CURVE('',#134,#135,#116,.T.);
#164=EDGE_CURVE('',#135,#136,#117,.T.);
#165=EDGE_CURVE('',#136,#128,#83,.T.);
#166=EDGE_CURVE('',#137,#132,#21,.T.);
#167=EDGE_CURVE('',#134,#137,#84,.T.);
#168=EDGE_CURVE('',#123,#138,#85,.T.);
#169=EDGE_CURVE('',#139,#138,#86,.T.);
#170=EDGE_CURVE('',#125,#139,#22,.T.);
#171=EDGE_CURVE('',#127,#140,#87,.T.);
#172=EDGE_CURVE('',#140,#141,#118,.T.);
#173=EDGE_CURVE('',#141,#138,#119,.T.);
#174=EDGE_CURVE('',#142,#126,#23,.T.);
#175=EDGE_CURVE('',#140,#142,#88,.T.);
#176=EDGE_CURVE('',#143,#136,#89,.T.);
#177=EDGE_CURVE('',#130,#143,#24,.T.);
#178=EDGE_CURVE('',#143,#142,#70,.T.);
#179=EDGE_CURVE('',#135,#144,#90,.T.);
#180=EDGE_CURVE('',#144,#144,#71,.T.);
#181=EDGE_CURVE('',#139,#137,#72,.T.);
#182=EDGE_CURVE('',#126,#130,#73,.T.);
#183=EDGE_CURVE('',#145,#146,#120,.T.);
#184=EDGE_CURVE('',#146,#145,#121,.T.);
#185=EDGE_CURVE('',#146,#147,#91,.T.);
#186=EDGE_CURVE('',#147,#147,#122,.T.);
#187=EDGE_CURVE('',#148,#148,#74,.T.);
#188=EDGE_CURVE('',#148,#149,#92,.T.);
#189=EDGE_CURVE('',#149,#149,#75,.T.);
#190=EDGE_CURVE('',#149,#150,#93,.T.);
#191=EDGE_CURVE('',#150,#150,#76,.T.);
#192=EDGE_CURVE('',#150,#131,#94,.T.);
#193=EDGE_CURVE('',#132,#125,#77,.T.);
#194=ORIENTED_EDGE('',*,*,#151,.F.);
#195=ORIENTED_EDGE('',*,*,#152,.F.);
#196=ORIENTED_EDGE('',*,*,#153,.T.);
#197=ORIENTED_EDGE('',*,*,#154,.F.);
#198=ORIENTED_EDGE('',*,*,#155,.F.);
#199=ORIENTED_EDGE('',*,*,#156,.F.);
#200=ORIENTED_EDGE('',*,*,#157,.F.);
#201=ORIENTED_EDGE('',*,*,#158,.T.);
#202=ORIENTED_EDGE('',*,*,#159,.T.);
#203=ORIENTED_EDGE('',*,*,#160,.F.);
#204=ORIENTED_EDGE('',*,*,#161,.F.);
#205=ORIENTED_EDGE('',*,*,#156,.T.);
#206=ORIENTED_EDGE('',*,*,#161,.T.);
#207=ORIENTED_EDGE('',*,*,#162,.F.);
#208=ORIENTED_EDGE('',*,*,#163,.T.);
#209=ORIENTED_EDGE('',*,*,#164,.T.);
#210=ORIENTED_EDGE('',*,*,#165,.T.);
#211=ORIENTED_EDGE('',*,*,#160,.T.);
#212=ORIENTED_EDGE('',*,*,#166,.F.);
#213=ORIENTED_EDGE('',*,*,#167,.F.);
#214=ORIENTED_EDGE('',*,*,#162,.T.);
#215=ORIENTED_EDGE('',*,*,#152,.T.);
#216=ORIENTED_EDGE('',*,*,#168,.T.);
#217=ORIENTED_EDGE('',*,*,#169,.F.);
#218=ORIENTED_EDGE('',*,*,#170,.F.);
#219=ORIENTED_EDGE('',*,*,#155,.T.);
#220=ORIENTED_EDGE('',*,*,#171,.T.);
#221=ORIENTED_EDGE('',*,*,#172,.T.);
#222=ORIENTED_EDGE('',*,*,#173,.T.);
#223=ORIENTED_EDGE('',*,*,#168,.F.);
#224=ORIENTED_EDGE('',*,*,#151,.T.);
#225=ORIENTED_EDGE('',*,*,#154,.T.);
#226=ORIENTED_EDGE('',*,*,#174,.F.);
#227=ORIENTED_EDGE('',*,*,#175,.F.);
#228=ORIENTED_EDGE('',*,*,#171,.F.);
#229=ORIENTED_EDGE('',*,*,#157,.T.);
#230=ORIENTED_EDGE('',*,*,#165,.F.);
#231=ORIENTED_EDGE('',*,*,#176,.F.);
#232=ORIENTED_EDGE('',*,*,#177,.F.);
#233=ORIENTED_EDGE('',*,*,#169,.T.);
#234=ORIENTED_EDGE('',*,*,#173,.F.);
#235=ORIENTED_EDGE('',*,*,#172,.F.);
#236=ORIENTED_EDGE('',*,*,#175,.T.);
#237=ORIENTED_EDGE('',*,*,#178,.F.);
#238=ORIENTED_EDGE('',*,*,#176,.T.);
#239=ORIENTED_EDGE('',*,*,#164,.F.);
#240=ORIENTED_EDGE('',*,*,#179,.T.);
#241=ORIENTED_EDGE('',*,*,#180,.T.);
#242=ORIENTED_EDGE('',*,*,#179,.F.);
#243=ORIENTED_EDGE('',*,*,#163,.F.);
#244=ORIENTED_EDGE('',*,*,#167,.T.);
#245=ORIENTED_EDGE('',*,*,#181,.F.);
#246=ORIENTED_EDGE('',*,*,#174,.T.);
#247=ORIENTED_EDGE('',*,*,#182,.T.);
#248=ORIENTED_EDGE('',*,*,#177,.T.);
#249=ORIENTED_EDGE('',*,*,#178,.T.);
#250=ORIENTED_EDGE('',*,*,#183,.F.);
#251=ORIENTED_EDGE('',*,*,#184,.F.);
#252=ORIENTED_EDGE('',*,*,#185,.T.);
#253=ORIENTED_EDGE('',*,*,#186,.F.);
#254=ORIENTED_EDGE('',*,*,#185,.F.);
#255=ORIENTED_EDGE('',*,*,#187,.F.);
#256=ORIENTED_EDGE('',*,*,#187,.T.);
#257=ORIENTED_EDGE('',*,*,#188,.T.);
#258=ORIENTED_EDGE('',*,*,#189,.T.);
#259=ORIENTED_EDGE('',*,*,#188,.F.);
#260=ORIENTED_EDGE('',*,*,#189,.F.);
#261=ORIENTED_EDGE('',*,*,#190,.T.);
#262=ORIENTED_EDGE('',*,*,#191,.F.);
#263=ORIENTED_EDGE('',*,*,#190,.F.);
#264=ORIENTED_EDGE('',*,*,#186,.T.);
#265=ORIENTED_EDGE('',*,*,#183,.T.);
#266=ORIENTED_EDGE('',*,*,#184,.T.);
#267=ORIENTED_EDGE('',*,*,#191,.T.);
#268=ORIENTED_EDGE('',*,*,#192,.T.);
#269=ORIENTED_EDGE('',*,*,#158,.F.);
#270=ORIENTED_EDGE('',*,*,#182,.F.);
#271=ORIENTED_EDGE('',*,*,#153,.F.);
#272=ORIENTED_EDGE('',*,*,#193,.F.);
#273=ORIENTED_EDGE('',*,*,#159,.F.);
#274=ORIENTED_EDGE('',*,*,#192,.F.);
#275=ORIENTED_EDGE('',*,*,#170,.T.);
#276=ORIENTED_EDGE('',*,*,#181,.T.);
#277=ORIENTED_EDGE('',*,*,#166,.T.);
#278=ORIENTED_EDGE('',*,*,#193,.T.);
#279=ORIENTED_EDGE('',*,*,#180,.F.);
#280=CYLINDRICAL_SURFACE('',#318,4.5);
#281=CYLINDRICAL_SURFACE('',#320,4.5);
#282=CYLINDRICAL_SURFACE('',#323,1.);
#283=CYLINDRICAL_SURFACE('',#326,1.);
#284=CYLINDRICAL_SURFACE('',#329,2.9);
#285=CYLINDRICAL_SURFACE('',#335,0.75);
#286=CYLINDRICAL_SURFACE('',#340,2.75);
#287=ADVANCED_FACE('',(#31),#280,.T.);
#288=ADVANCED_FACE('',(#32),#281,.T.);
#289=ADVANCED_FACE('',(#33),#282,.T.);
#290=ADVANCED_FACE('',(#34),#25,.T.);
#291=ADVANCED_FACE('',(#35),#26,.T.);
#292=ADVANCED_FACE('',(#36),#283,.T.);
#293=ADVANCED_FACE('',(#37),#27,.T.);
#294=ADVANCED_FACE('',(#38),#28,.T.);
#295=ADVANCED_FACE('',(#39),#284,.T.);
#296=ADVANCED_FACE('',(#40),#17,.T.);
#297=ADVANCED_FACE('',(#41),#285,.F.);
#298=ADVANCED_FACE('',(#42),#29,.F.);
#299=ADVANCED_FACE('',(#43),#18,.T.);
#300=ADVANCED_FACE('',(#44,#15,#16),#286,.T.);
#301=ADVANCED_FACE('',(#45),#19,.T.);
#302=ADVANCED_FACE('',(#46),#20,.T.);
#303=ADVANCED_FACE('',(#47),#30,.F.);
#304=CLOSED_SHELL('',(#287,#288,#289,#290,#291,#292,#293,#294,#295,#296,
#297,#298,#299,#300,#301,#302,#303));
#305=DERIVED_UNIT_ELEMENT(#307,1.);
#306=DERIVED_UNIT_ELEMENT(#662,-3.);
#307=(
MASS_UNIT()
NAMED_UNIT(*)
SI_UNIT(.KILO.,.GRAM.)
);
#308=DERIVED_UNIT((#305,#306));
#309=MEASURE_REPRESENTATION_ITEM('density measure',
POSITIVE_RATIO_MEASURE(7850.),#308);
#310=PROPERTY_DEFINITION_REPRESENTATION(#315,#312);
#311=PROPERTY_DEFINITION_REPRESENTATION(#316,#313);
#312=REPRESENTATION('material name',(#314),#659);
#313=REPRESENTATION('density',(#309),#659);
#314=DESCRIPTIVE_REPRESENTATION_ITEM('\X2\94A2\X0\','\X2\94A2\X0\');
#315=PROPERTY_DEFINITION('material property','material name',#669);
#316=PROPERTY_DEFINITION('material property','density of part',#669);
#317=AXIS2_PLACEMENT_3D('',#421,#346,#347);
#318=AXIS2_PLACEMENT_3D('',#422,#348,#349);
#319=AXIS2_PLACEMENT_3D('',#438,#351,#352);
#320=AXIS2_PLACEMENT_3D('',#451,#354,#355);
#321=AXIS2_PLACEMENT_3D('',#467,#357,#358);
#322=AXIS2_PLACEMENT_3D('',#469,#359,#360);
#323=AXIS2_PLACEMENT_3D('',#482,#362,#363);
#324=AXIS2_PLACEMENT_3D('',#508,#366,#367);
#325=AXIS2_PLACEMENT_3D('',#514,#369,#370);
#326=AXIS2_PLACEMENT_3D('',#522,#373,#374);
#327=AXIS2_PLACEMENT_3D('',#546,#376,#377);
#328=AXIS2_PLACEMENT_3D('',#552,#379,#380);
#329=AXIS2_PLACEMENT_3D('',#558,#382,#383);
#330=AXIS2_PLACEMENT_3D('',#559,#384,#385);
#331=AXIS2_PLACEMENT_3D('',#562,#387,#388);
#332=AXIS2_PLACEMENT_3D('',#563,#389,#390);
#333=AXIS2_PLACEMENT_3D('',#564,#391,#392);
#334=AXIS2_PLACEMENT_3D('',#565,#393,#394);
#335=AXIS2_PLACEMENT_3D('',#566,#395,#396);
#336=AXIS2_PLACEMENT_3D('',#641,#398,#399);
#337=AXIS2_PLACEMENT_3D('',#643,#400,#401);
#338=AXIS2_PLACEMENT_3D('',#644,#402,#403);
#339=AXIS2_PLACEMENT_3D('',#647,#405,#406);
#340=AXIS2_PLACEMENT_3D('',#648,#407,#408);
#341=AXIS2_PLACEMENT_3D('',#651,#410,#411);
#342=AXIS2_PLACEMENT_3D('',#652,#412,#413);
#343=AXIS2_PLACEMENT_3D('',#654,#415,#416);
#344=AXIS2_PLACEMENT_3D('',#655,#417,#418);
#345=AXIS2_PLACEMENT_3D('',#656,#419,#420);
#346=DIRECTION('axis',(0.,0.,1.));
#347=DIRECTION('refdir',(1.,0.,0.));
#348=DIRECTION('center_axis',(0.,0.,-1.));
#349=DIRECTION('ref_axis',(1.,0.,0.));
#350=DIRECTION('',(0.,0.,-1.));
#351=DIRECTION('center_axis',(0.,0.,-1.));
#352=DIRECTION('ref_axis',(1.,0.,0.));
#353=DIRECTION('',(0.,0.,1.));
#354=DIRECTION('center_axis',(0.,0.,-1.));
#355=DIRECTION('ref_axis',(-1.,-1.22464679914735E-16,0.));
#356=DIRECTION('',(0.,0.,-1.));
#357=DIRECTION('center_axis',(0.,0.,-1.));
#358=DIRECTION('ref_axis',(1.,0.,0.));
#359=DIRECTION('center_axis',(0.,0.,-1.));
#360=DIRECTION('ref_axis',(1.,0.,0.));
#361=DIRECTION('',(0.,0.,1.));
#362=DIRECTION('center_axis',(1.,0.,0.));
#363=DIRECTION('ref_axis',(0.,-1.,0.));
#364=DIRECTION('',(-1.,0.,0.));
#365=DIRECTION('',(-1.,0.,0.));
#366=DIRECTION('center_axis',(0.,1.,0.));
#367=DIRECTION('ref_axis',(0.,0.,1.));
#368=DIRECTION('',(0.,0.,1.));
#369=DIRECTION('center_axis',(0.,1.,0.));
#370=DIRECTION('ref_axis',(0.,0.,1.));
#371=DIRECTION('',(-1.,0.,0.));
#372=DIRECTION('',(0.,0.,-1.));
#373=DIRECTION('center_axis',(1.,0.,0.));
#374=DIRECTION('ref_axis',(0.,-1.,0.));
#375=DIRECTION('',(-1.,0.,0.));
#376=DIRECTION('center_axis',(0.,-1.,0.));
#377=DIRECTION('ref_axis',(0.,0.,-1.));
#378=DIRECTION('',(0.,0.,1.));
#379=DIRECTION('center_axis',(0.,-1.,0.));
#380=DIRECTION('ref_axis',(0.,0.,-1.));
#381=DIRECTION('',(0.,0.,-1.));
#382=DIRECTION('center_axis',(0.,0.,1.));
#383=DIRECTION('ref_axis',(1.,0.,0.));
#384=DIRECTION('center_axis',(0.,0.,1.));
#385=DIRECTION('ref_axis',(1.,0.,0.));
#386=DIRECTION('',(0.,0.,-1.));
#387=DIRECTION('center_axis',(0.,0.,1.));
#388=DIRECTION('ref_axis',(1.,0.,0.));
#389=DIRECTION('center_axis',(0.,0.,1.));
#390=DIRECTION('ref_axis',(1.,0.,0.));
#391=DIRECTION('center_axis',(0.,0.,1.));
#392=DIRECTION('ref_axis',(1.,0.,0.));
#393=DIRECTION('center_axis',(0.,0.,-1.));
#394=DIRECTION('ref_axis',(1.,0.,0.));
#395=DIRECTION('center_axis',(0.,1.,0.));
#396=DIRECTION('ref_axis',(1.,0.,0.));
#397=DIRECTION('',(0.,1.,0.));
#398=DIRECTION('center_axis',(0.,0.,-1.));
#399=DIRECTION('ref_axis',(-1.,0.,0.));
#400=DIRECTION('center_axis',(0.,0.,-1.));
#401=DIRECTION('ref_axis',(1.,0.,0.));
#402=DIRECTION('center_axis',(0.,0.,-1.));
#403=DIRECTION('ref_axis',(1.,0.,0.));
#404=DIRECTION('',(-0.707106781186548,-8.65956056235494E-17,-0.707106781186547));
#405=DIRECTION('center_axis',(0.,0.,1.));
#406=DIRECTION('ref_axis',(1.,0.,0.));
#407=DIRECTION('center_axis',(0.,0.,1.));
#408=DIRECTION('ref_axis',(1.,0.,0.));
#409=DIRECTION('',(0.,0.,-1.));
#410=DIRECTION('center_axis',(0.,0.,-1.));
#411=DIRECTION('ref_axis',(1.,0.,0.));
#412=DIRECTION('center_axis',(0.,0.,-1.));
#413=DIRECTION('ref_axis',(1.,0.,0.));
#414=DIRECTION('',(-0.0967659740606518,-1.18504140399753E-17,-0.995307161766705));
#415=DIRECTION('center_axis',(0.,0.,-1.));
#416=DIRECTION('ref_axis',(1.,0.,0.));
#417=DIRECTION('center_axis',(0.,0.,1.));
#418=DIRECTION('ref_axis',(1.,0.,0.));
#419=DIRECTION('center_axis',(0.,0.,1.));
#420=DIRECTION('ref_axis',(1.,0.,0.));
#421=CARTESIAN_POINT('',(0.,0.,0.));
#422=CARTESIAN_POINT('Origin',(0.,0.,12.));
#423=CARTESIAN_POINT('',(4.38748219369606,1.,2.7));
#424=CARTESIAN_POINT('',(4.5,0.,1.7));
#425=CARTESIAN_POINT('Ctrl Pts',(4.38748219369606,1.,2.7));
#426=CARTESIAN_POINT('Ctrl Pts',(4.38748219369606,1.,2.57397837480315));
#427=CARTESIAN_POINT('Ctrl Pts',(4.39347586137655,0.974728143324391,2.43985630072913));
#428=CARTESIAN_POINT('Ctrl Pts',(4.41490514048522,0.872546640252996,2.19360872031741));
#429=CARTESIAN_POINT('Ctrl Pts',(4.43000756262904,0.795658833370669,2.08144527099758));
#430=CARTESIAN_POINT('Ctrl Pts',(4.45818564041823,0.618562360560493,1.9043487981874));
#431=CARTESIAN_POINT('Ctrl Pts',(4.47312363278547,0.506395696469133,1.82745502419704));
#432=CARTESIAN_POINT('Ctrl Pts',(4.49417405699212,0.26013684876916,1.72526918234642));
#433=CARTESIAN_POINT('Ctrl Pts',(4.5,0.126010764450803,1.7));
#434=CARTESIAN_POINT('Ctrl Pts',(4.5,-6.93889390390723E-17,1.7));
#435=CARTESIAN_POINT('',(4.38748219369606,1.,12.));
#436=CARTESIAN_POINT('',(4.38748219369606,1.,12.));
#437=CARTESIAN_POINT('',(4.38748219369606,-1.,12.));
#438=CARTESIAN_POINT('Origin',(0.,0.,12.));
#439=CARTESIAN_POINT('',(4.38748219369606,-1.,2.7));
#440=CARTESIAN_POINT('',(4.38748219369606,-1.,12.));
#441=CARTESIAN_POINT('Ctrl Pts',(4.5,-3.46944695195361E-17,1.7));
#442=CARTESIAN_POINT('Ctrl Pts',(4.5,-0.126010764450803,1.7));
#443=CARTESIAN_POINT('Ctrl Pts',(4.49417405699212,-0.26013684876916,1.72526918234642));
#444=CARTESIAN_POINT('Ctrl Pts',(4.47312363278547,-0.506395696469133,1.82745502419704));
#445=CARTESIAN_POINT('Ctrl Pts',(4.45818564041823,-0.618562360560493,1.9043487981874));
#446=CARTESIAN_POINT('Ctrl Pts',(4.43000756262904,-0.79565883337067,2.08144527099758));
#447=CARTESIAN_POINT('Ctrl Pts',(4.41490514048522,-0.872546640252996,2.19360872031741));
#448=CARTESIAN_POINT('Ctrl Pts',(4.39347586137655,-0.974728143324391,2.43985630072913));
#449=CARTESIAN_POINT('Ctrl Pts',(4.38748219369606,-1.,2.57397837480315));
#450=CARTESIAN_POINT('Ctrl Pts',(4.38748219369606,-1.,2.7));
#451=CARTESIAN_POINT('Origin',(0.,0.,12.));
#452=CARTESIAN_POINT('',(-4.38748219369606,-1.,2.7));
#453=CARTESIAN_POINT('',(-4.5,0.,1.7));
#454=CARTESIAN_POINT('Ctrl Pts',(-4.38748219369606,-1.,2.7));
#455=CARTESIAN_POINT('Ctrl Pts',(-4.38748219369606,-1.,2.57397837480315));
#456=CARTESIAN_POINT('Ctrl Pts',(-4.39347586137655,-0.974728143324391,2.43985630072913));
#457=CARTESIAN_POINT('Ctrl Pts',(-4.41490514048522,-0.872546640252996,2.19360872031741));
#458=CARTESIAN_POINT('Ctrl Pts',(-4.43000756262904,-0.79565883337067,2.08144527099758));
#459=CARTESIAN_POINT('Ctrl Pts',(-4.45818564041823,-0.618562360560493,1.9043487981874));
#460=CARTESIAN_POINT('Ctrl Pts',(-4.47312363278547,-0.506395696469133,1.82745502419704));
#461=CARTESIAN_POINT('Ctrl Pts',(-4.49417405699212,-0.26013684876916,1.72526918234642));
#462=CARTESIAN_POINT('Ctrl Pts',(-4.5,-0.126010764450803,1.7));
#463=CARTESIAN_POINT('Ctrl Pts',(-4.5,-6.93889390390723E-17,1.7));
#464=CARTESIAN_POINT('',(-4.38748219369606,-1.,12.));
#465=CARTESIAN_POINT('',(-4.38748219369606,-1.,12.));
#466=CARTESIAN_POINT('',(-4.5,-5.51091059616309E-16,12.));
#467=CARTESIAN_POINT('Origin',(0.,0.,12.));
#468=CARTESIAN_POINT('',(-4.38748219369606,1.,12.));
#469=CARTESIAN_POINT('Origin',(0.,0.,12.));
#470=CARTESIAN_POINT('',(-4.38748219369606,1.,2.7));
#471=CARTESIAN_POINT('',(-4.38748219369606,1.,12.));
#472=CARTESIAN_POINT('Ctrl Pts',(-4.5,3.46944695195361E-17,1.7));
#473=CARTESIAN_POINT('Ctrl Pts',(-4.5,0.126010764450803,1.7));
#474=CARTESIAN_POINT('Ctrl Pts',(-4.49417405699212,0.260136848769159,1.72526918234642));
#475=CARTESIAN_POINT('Ctrl Pts',(-4.47312363278547,0.506395696469133,1.82745502419704));
#476=CARTESIAN_POINT('Ctrl Pts',(-4.45818564041823,0.618562360560493,1.9043487981874));
#477=CARTESIAN_POINT('Ctrl Pts',(-4.43000756262904,0.79565883337067,2.08144527099758));
#478=CARTESIAN_POINT('Ctrl Pts',(-4.41490514048522,0.872546640252997,2.19360872031742));
#479=CARTESIAN_POINT('Ctrl Pts',(-4.39347586137655,0.974728143324392,2.43985630072913));
#480=CARTESIAN_POINT('Ctrl Pts',(-4.38748219369606,1.,2.57397837480315));
#481=CARTESIAN_POINT('Ctrl Pts',(-4.38748219369606,1.,2.7));
#482=CARTESIAN_POINT('Origin',(-4.5,0.,2.7));
#483=CARTESIAN_POINT('',(-2.72213151776324,1.,2.7));
#484=CARTESIAN_POINT('',(-4.5,1.,2.7));
#485=CARTESIAN_POINT('',(-2.9,1.83697019872103E-16,1.7));
#486=CARTESIAN_POINT('Ctrl Pts',(-2.72213151776324,1.,2.7));
#487=CARTESIAN_POINT('Ctrl Pts',(-2.72213151776324,1.,2.5732707123643));
#488=CARTESIAN_POINT('Ctrl Pts',(-2.73191220597874,0.974459045207704,2.43888584185078));
#489=CARTESIAN_POINT('Ctrl Pts',(-2.76628850042108,0.872102351590829,2.19286224122748));
#490=CARTESIAN_POINT('Ctrl Pts',(-2.79029015989263,0.795334521896444,2.08112095952335));
#491=CARTESIAN_POINT('Ctrl Pts',(-2.83464240825755,0.61892627659006,1.90471271421697));
#492=CARTESIAN_POINT('Ctrl Pts',(-2.85800510481724,0.507166324872303,1.82790860167141));
#493=CARTESIAN_POINT('Ctrl Pts',(-2.89089117282442,0.261072953554569,1.72552474340325));
#494=CARTESIAN_POINT('Ctrl Pts',(-2.9,0.126661438238739,1.7));
#495=CARTESIAN_POINT('Ctrl Pts',(-2.9,-1.04083408558608E-16,1.7));
#496=CARTESIAN_POINT('',(-2.72213151776324,-1.,2.7));
#497=CARTESIAN_POINT('Ctrl Pts',(-2.9,-6.93889390390723E-17,1.7));
#498=CARTESIAN_POINT('Ctrl Pts',(-2.9,-0.126661438238739,1.7));
#499=CARTESIAN_POINT('Ctrl Pts',(-2.89089117282442,-0.261072953554569,1.72552474340325));
#500=CARTESIAN_POINT('Ctrl Pts',(-2.85800510481724,-0.507166324872303,1.82790860167141));
#501=CARTESIAN_POINT('Ctrl Pts',(-2.83464240825755,-0.61892627659006,1.90471271421697));
#502=CARTESIAN_POINT('Ctrl Pts',(-2.79029015989263,-0.795334521896444,2.08112095952335));
#503=CARTESIAN_POINT('Ctrl Pts',(-2.76628850042108,-0.872102351590829,2.19286224122748));
#504=CARTESIAN_POINT('Ctrl Pts',(-2.73191220597874,-0.974459045207704,2.43888584185078));
#505=CARTESIAN_POINT('Ctrl Pts',(-2.72213151776324,-1.,2.5732707123643));
#506=CARTESIAN_POINT('Ctrl Pts',(-2.72213151776324,-1.,2.7));
#507=CARTESIAN_POINT('',(-4.5,-1.,2.7));
#508=CARTESIAN_POINT('Origin',(0.,1.,6.85));
#509=CARTESIAN_POINT('',(-2.72213151776324,1.,9.));
#510=CARTESIAN_POINT('Ctrl Pts',(-2.72213151776324,1.,9.));
#511=CARTESIAN_POINT('Ctrl Pts',(-3.37476894481774,1.,10.148641105511));
#512=CARTESIAN_POINT('Ctrl Pts',(-4.38748219369606,1.,12.));
#513=CARTESIAN_POINT('',(-2.72213151776324,1.,0.));
#514=CARTESIAN_POINT('Origin',(0.,1.,6.85));
#515=CARTESIAN_POINT('',(2.72213151776324,1.,2.7));
#516=CARTESIAN_POINT('',(-4.5,1.,2.7));
#517=CARTESIAN_POINT('',(2.72213151776324,1.,9.));
#518=CARTESIAN_POINT('',(2.72213151776324,1.,0.));
#519=CARTESIAN_POINT('Ctrl Pts',(4.38748219369606,1.,12.));
#520=CARTESIAN_POINT('Ctrl Pts',(3.37476894481774,1.,10.148641105511));
#521=CARTESIAN_POINT('Ctrl Pts',(2.72213151776324,1.,9.));
#522=CARTESIAN_POINT('Origin',(-4.5,0.,2.7));
#523=CARTESIAN_POINT('',(2.72213151776324,-1.,2.7));
#524=CARTESIAN_POINT('',(-4.5,-1.,2.7));
#525=CARTESIAN_POINT('',(2.9,1.83697019872103E-16,1.7));
#526=CARTESIAN_POINT('Ctrl Pts',(2.72213151776324,-1.,2.7));
#527=CARTESIAN_POINT('Ctrl Pts',(2.72213151776324,-1.,2.5732707123643));
#528=CARTESIAN_POINT('Ctrl Pts',(2.73191220597874,-0.974459045207704,2.43888584185078));
#529=CARTESIAN_POINT('Ctrl Pts',(2.76628850042108,-0.872102351590829,2.19286224122748));
#530=CARTESIAN_POINT('Ctrl Pts',(2.79029015989263,-0.795334521896444,2.08112095952335));
#531=CARTESIAN_POINT('Ctrl Pts',(2.83464240825755,-0.61892627659006,1.90471271421697));
#532=CARTESIAN_POINT('Ctrl Pts',(2.85800510481724,-0.507166324872303,1.82790860167141));
#533=CARTESIAN_POINT('Ctrl Pts',(2.89089117282442,-0.261072953554569,1.72552474340325));
#534=CARTESIAN_POINT('Ctrl Pts',(2.9,-0.12666143823874,1.7));
#535=CARTESIAN_POINT('Ctrl Pts',(2.9,-6.93889390390723E-17,1.7));
#536=CARTESIAN_POINT('Ctrl Pts',(2.9,-6.93889390390723E-17,1.7));
#537=CARTESIAN_POINT('Ctrl Pts',(2.9,0.126661438238739,1.7));
#538=CARTESIAN_POINT('Ctrl Pts',(2.89089117282442,0.261072953554569,1.72552474340325));
#539=CARTESIAN_POINT('Ctrl Pts',(2.85800510481724,0.507166324872303,1.82790860167141));
#540=CARTESIAN_POINT('Ctrl Pts',(2.83464240825755,0.61892627659006,1.90471271421697));
#541=CARTESIAN_POINT('Ctrl Pts',(2.79029015989263,0.795334521896444,2.08112095952335));
#542=CARTESIAN_POINT('Ctrl Pts',(2.76628850042108,0.872102351590829,2.19286224122748));
#543=CARTESIAN_POINT('Ctrl Pts',(2.73191220597874,0.974459045207704,2.43888584185078));
#544=CARTESIAN_POINT('Ctrl Pts',(2.72213151776324,1.,2.5732707123643));
#545=CARTESIAN_POINT('Ctrl Pts',(2.72213151776324,1.,2.7));
#546=CARTESIAN_POINT('Origin',(0.,-1.,6.85));
#547=CARTESIAN_POINT('',(2.72213151776324,-1.,9.));
#548=CARTESIAN_POINT('Ctrl Pts',(2.72213151776324,-1.,9.));
#549=CARTESIAN_POINT('Ctrl Pts',(3.37476894481774,-1.,10.148641105511));
#550=CARTESIAN_POINT('Ctrl Pts',(4.38748219369606,-1.,12.));
#551=CARTESIAN_POINT('',(2.72213151776324,-1.,0.));
#552=CARTESIAN_POINT('Origin',(0.,-1.,6.85));
#553=CARTESIAN_POINT('',(-2.72213151776324,-1.,9.));
#554=CARTESIAN_POINT('',(-2.72213151776324,-1.,0.));
#555=CARTESIAN_POINT('Ctrl Pts',(-4.38748219369606,-1.,12.));
#556=CARTESIAN_POINT('Ctrl Pts',(-3.37476894481774,-1.,10.148641105511));
#557=CARTESIAN_POINT('Ctrl Pts',(-2.72213151776324,-1.,9.));
#558=CARTESIAN_POINT('Origin',(0.,0.,0.));
#559=CARTESIAN_POINT('Origin',(0.,0.,9.));
#560=CARTESIAN_POINT('',(-2.9,-3.55147571752732E-16,0.));
#561=CARTESIAN_POINT('',(-2.9,-3.55147571752732E-16,0.));
#562=CARTESIAN_POINT('Origin',(0.,0.,0.));
#563=CARTESIAN_POINT('Origin',(0.,0.,9.));
#564=CARTESIAN_POINT('Origin',(0.,0.,12.));
#565=CARTESIAN_POINT('Origin',(0.,0.,12.));
#566=CARTESIAN_POINT('Origin',(0.,0.,32.05));
#567=CARTESIAN_POINT('',(0.75,-2.64575131106459,32.05));
#568=CARTESIAN_POINT('',(-0.75,-2.64575131106459,32.05));
#569=CARTESIAN_POINT('Ctrl Pts',(0.75,-2.64575131106459,32.05));
#570=CARTESIAN_POINT('Ctrl Pts',(0.75,-2.64575131106459,31.9552994801933));
#571=CARTESIAN_POINT('Ctrl Pts',(0.730975451306694,-2.65136655305438,31.8546362985395));
#572=CARTESIAN_POINT('Ctrl Pts',(0.654291484242039,-2.67132407455829,31.6700068406554));
#573=CARTESIAN_POINT('Ctrl Pts',(0.59665604189881,-2.68534366956574,31.585995870119));
#574=CARTESIAN_POINT('Ctrl Pts',(0.464017417999365,-2.71141200506425,31.4533572462195));
#575=CARTESIAN_POINT('Ctrl Pts',(0.380000970884822,-2.72520043174167,31.3957114726914));
#576=CARTESIAN_POINT('Ctrl Pts',(0.195351886383025,-2.7446230653772,31.3190199289373));
#577=CARTESIAN_POINT('Ctrl Pts',(0.0946815469672012,-2.75,31.3));
#578=CARTESIAN_POINT('Ctrl Pts',(-0.0946815469672007,-2.75,31.3));
#579=CARTESIAN_POINT('Ctrl Pts',(-0.195351886383025,-2.7446230653772,31.3190199289373));
#580=CARTESIAN_POINT('Ctrl Pts',(-0.380000970884821,-2.72520043174167,31.3957114726914));
#581=CARTESIAN_POINT('Ctrl Pts',(-0.464017417999365,-2.71141200506425,31.4533572462195));
#582=CARTESIAN_POINT('Ctrl Pts',(-0.59665604189881,-2.68534366956574,31.585995870119));
#583=CARTESIAN_POINT('Ctrl Pts',(-0.654291484242041,-2.67132407455829,31.6700068406554));
#584=CARTESIAN_POINT('Ctrl Pts',(-0.730975451306695,-2.65136655305438,31.8546362985395));
#585=CARTESIAN_POINT('Ctrl Pts',(-0.75,-2.64575131106459,31.9552994801933));
#586=CARTESIAN_POINT('Ctrl Pts',(-0.75,-2.64575131106459,32.05));
#587=CARTESIAN_POINT('Ctrl Pts',(-0.75,-2.64575131106459,32.05));
#588=CARTESIAN_POINT('Ctrl Pts',(-0.75,-2.64575131106459,32.1447005198067));
#589=CARTESIAN_POINT('Ctrl Pts',(-0.730975451306695,-2.65136655305438,32.2453637014605));
#590=CARTESIAN_POINT('Ctrl Pts',(-0.654291484242041,-2.67132407455829,32.4299931593446));
#591=CARTESIAN_POINT('Ctrl Pts',(-0.59665604189881,-2.68534366956574,32.514004129881));
#592=CARTESIAN_POINT('Ctrl Pts',(-0.464017417999365,-2.71141200506425,32.6466427537805));
#593=CARTESIAN_POINT('Ctrl Pts',(-0.380000970884822,-2.72520043174167,32.7042885273086));
#594=CARTESIAN_POINT('Ctrl Pts',(-0.195351886383025,-2.7446230653772,32.7809800710627));
#595=CARTESIAN_POINT('Ctrl Pts',(-0.0946815469672011,-2.75,32.8));
#596=CARTESIAN_POINT('Ctrl Pts',(0.0946815469672009,-2.75,32.8));
#597=CARTESIAN_POINT('Ctrl Pts',(0.195351886383025,-2.7446230653772,32.7809800710627));
#598=CARTESIAN_POINT('Ctrl Pts',(0.380000970884822,-2.72520043174167,32.7042885273086));
#599=CARTESIAN_POINT('Ctrl Pts',(0.464017417999365,-2.71141200506425,32.6466427537805));
#600=CARTESIAN_POINT('Ctrl Pts',(0.59665604189881,-2.68534366956574,32.514004129881));
#601=CARTESIAN_POINT('Ctrl Pts',(0.654291484242041,-2.67132407455829,32.4299931593446));
#602=CARTESIAN_POINT('Ctrl Pts',(0.730975451306695,-2.65136655305438,32.2453637014605));
#603=CARTESIAN_POINT('Ctrl Pts',(0.75,-2.64575131106459,32.1447005198067));
#604=CARTESIAN_POINT('Ctrl Pts',(0.75,-2.64575131106459,32.05));
#605=CARTESIAN_POINT('',(-0.75,2.64575131106459,32.05));
#606=CARTESIAN_POINT('',(-0.75,0.,32.05));
#607=CARTESIAN_POINT('Ctrl Pts',(-0.75,2.64575131106459,32.05));
#608=CARTESIAN_POINT('Ctrl Pts',(-0.75,2.64575131106459,31.9552994801933));
#609=CARTESIAN_POINT('Ctrl Pts',(-0.730975451306695,2.65136655305438,31.8546362985395));
#610=CARTESIAN_POINT('Ctrl Pts',(-0.654291484242041,2.67132407455829,31.6700068406554));
#611=CARTESIAN_POINT('Ctrl Pts',(-0.59665604189881,2.68534366956574,31.585995870119));
#612=CARTESIAN_POINT('Ctrl Pts',(-0.464017417999365,2.71141200506425,31.4533572462195));
#613=CARTESIAN_POINT('Ctrl Pts',(-0.380000970884821,2.72520043174167,31.3957114726914));
#614=CARTESIAN_POINT('Ctrl Pts',(-0.195351886383025,2.7446230653772,31.3190199289373));
#615=CARTESIAN_POINT('Ctrl Pts',(-0.0946815469672007,2.75,31.3));
#616=CARTESIAN_POINT('Ctrl Pts',(0.0946815469672012,2.75,31.3));
#617=CARTESIAN_POINT('Ctrl Pts',(0.195351886383025,2.7446230653772,31.3190199289373));
#618=CARTESIAN_POINT('Ctrl Pts',(0.380000970884822,2.72520043174167,31.3957114726914));
#619=CARTESIAN_POINT('Ctrl Pts',(0.464017417999365,2.71141200506425,31.4533572462195));
#620=CARTESIAN_POINT('Ctrl Pts',(0.59665604189881,2.68534366956574,31.585995870119));
#621=CARTESIAN_POINT('Ctrl Pts',(0.654291484242041,2.67132407455829,31.6700068406554));
#622=CARTESIAN_POINT('Ctrl Pts',(0.730975451306695,2.65136655305438,31.8546362985395));
#623=CARTESIAN_POINT('Ctrl Pts',(0.75,2.64575131106459,31.9552994801933));
#624=CARTESIAN_POINT('Ctrl Pts',(0.75,2.64575131106459,32.1447005198067));
#625=CARTESIAN_POINT('Ctrl Pts',(0.730975451306695,2.65136655305438,32.2453637014605));
#626=CARTESIAN_POINT('Ctrl Pts',(0.654291484242041,2.67132407455829,32.4299931593446));
#627=CARTESIAN_POINT('Ctrl Pts',(0.59665604189881,2.68534366956574,32.514004129881));
#628=CARTESIAN_POINT('Ctrl Pts',(0.464017417999365,2.71141200506425,32.6466427537805));
#629=CARTESIAN_POINT('Ctrl Pts',(0.380000970884822,2.72520043174167,32.7042885273086));
#630=CARTESIAN_POINT('Ctrl Pts',(0.195351886383025,2.7446230653772,32.7809800710627));
#631=CARTESIAN_POINT('Ctrl Pts',(0.0946815469672008,2.75,32.8));
#632=CARTESIAN_POINT('Ctrl Pts',(-0.0946815469672011,2.75,32.8));
#633=CARTESIAN_POINT('Ctrl Pts',(-0.195351886383025,2.7446230653772,32.7809800710627));
#634=CARTESIAN_POINT('Ctrl Pts',(-0.380000970884822,2.72520043174167,32.7042885273086));
#635=CARTESIAN_POINT('Ctrl Pts',(-0.464017417999365,2.71141200506425,32.6466427537805));
#636=CARTESIAN_POINT('Ctrl Pts',(-0.59665604189881,2.68534366956574,32.514004129881));
#637=CARTESIAN_POINT('Ctrl Pts',(-0.654291484242043,2.67132407455829,32.4299931593446));
#638=CARTESIAN_POINT('Ctrl Pts',(-0.730975451306696,2.65136655305438,32.2453637014605));
#639=CARTESIAN_POINT('Ctrl Pts',(-0.75,2.64575131106459,32.1447005198067));
#640=CARTESIAN_POINT('Ctrl Pts',(-0.75,2.64575131106459,32.05));
#641=CARTESIAN_POINT('Origin',(0.,0.,35.));
#642=CARTESIAN_POINT('',(-1.25,-1.53080849893419E-16,35.));
#643=CARTESIAN_POINT('Origin',(0.,0.,35.));
#644=CARTESIAN_POINT('Origin',(0.,0.,33.5));
#645=CARTESIAN_POINT('',(-2.75,-3.36777869765522E-16,33.5));
#646=CARTESIAN_POINT('',(-2.75,-3.36777869765522E-16,33.5));
#647=CARTESIAN_POINT('Origin',(0.,0.,33.5));
#648=CARTESIAN_POINT('Origin',(0.,0.,30.));
#649=CARTESIAN_POINT('',(-2.75,-3.36777869765522E-16,30.));
#650=CARTESIAN_POINT('',(-2.75,-3.36777869765522E-16,30.));
#651=CARTESIAN_POINT('Origin',(0.,0.,30.));
#652=CARTESIAN_POINT('Origin',(0.,0.,12.));
#653=CARTESIAN_POINT('',(-4.5,-5.51091059616309E-16,12.));
#654=CARTESIAN_POINT('Origin',(0.,0.,12.));
#655=CARTESIAN_POINT('Origin',(0.,0.,12.));
#656=CARTESIAN_POINT('Origin',(0.,0.,0.));
#657=UNCERTAINTY_MEASURE_WITH_UNIT(LENGTH_MEASURE(0.01),#661,
'DISTANCE_ACCURACY_VALUE',
'Maximum model space distance between geometric entities at asserted c
onnectivities');
#658=UNCERTAINTY_MEASURE_WITH_UNIT(LENGTH_MEASURE(0.01),#661,
'DISTANCE_ACCURACY_VALUE',
'Maximum model space distance between geometric entities at asserted c
onnectivities');
#659=(
GEOMETRIC_REPRESENTATION_CONTEXT(3)
GLOBAL_UNCERTAINTY_ASSIGNED_CONTEXT((#657))
GLOBAL_UNIT_ASSIGNED_CONTEXT((#661,#663,#664))
REPRESENTATION_CONTEXT('','3D')
);
#660=(
GEOMETRIC_REPRESENTATION_CONTEXT(3)
GLOBAL_UNCERTAINTY_ASSIGNED_CONTEXT((#658))
GLOBAL_UNIT_ASSIGNED_CONTEXT((#661,#663,#664))
REPRESENTATION_CONTEXT('','3D')
);
#661=(
LENGTH_UNIT()
NAMED_UNIT(*)
SI_UNIT(.MILLI.,.METRE.)
);
#662=(
LENGTH_UNIT()
NAMED_UNIT(*)
SI_UNIT($,.METRE.)
);
#663=(
NAMED_UNIT(*)
PLANE_ANGLE_UNIT()
SI_UNIT($,.RADIAN.)
);
#664=(
NAMED_UNIT(*)
SI_UNIT($,.STERADIAN.)
SOLID_ANGLE_UNIT()
);
#665=SHAPE_DEFINITION_REPRESENTATION(#666,#667);
#666=PRODUCT_DEFINITION_SHAPE('',$,#669);
#667=SHAPE_REPRESENTATION('',(#317),#659);
#668=PRODUCT_DEFINITION_CONTEXT('part definition',#673,'design');
#669=PRODUCT_DEFINITION('2026-07-03-15-44-46-671',
'beta2\X2\540E8F6E8F74FF085EF6957F\X0\15mm\X2\FF09\X0\',#670,#668);
#670=PRODUCT_DEFINITION_FORMATION('',$,#675);
#671=PRODUCT_RELATED_PRODUCT_CATEGORY('beta2\X2\540E8F6E8F74FF085EF6957F\X0\1
5mm\X2\FF09\X0\','beta2\X2\540E8F6E8F74FF085EF6957F\X0\15mm\X2\FF09\X0\',
(#675));
#672=APPLICATION_PROTOCOL_DEFINITION('international standard',
'automotive_design',2009,#673);
#673=APPLICATION_CONTEXT(
'Core Data for Automotive Mechanical Design Process');
#674=PRODUCT_CONTEXT('part definition',#673,'mechanical');
#675=PRODUCT('2026-07-03-15-44-46-671','beta2\X2\540E8F6E8F74FF085EF6957F\X0\1
5mm\X2\FF09\X0\',$,(#674));
#676=PRESENTATION_STYLE_ASSIGNMENT((#677));
#677=SURFACE_STYLE_USAGE(.BOTH.,#678);
#678=SURFACE_SIDE_STYLE('',(#679));
#679=SURFACE_STYLE_FILL_AREA(#680);
#680=FILL_AREA_STYLE('\X2\94A2\X0\ - \X2\7F0E5149\X0\',(#681));
#681=FILL_AREA_STYLE_COLOUR('\X2\94A2\X0\ - \X2\7F0E5149\X0\',#682);
#682=COLOUR_RGB('\X2\94A2\X0\ - \X2\7F0E5149\X0\',0.627450980392157,0.627450980392157,
0.627450980392157);
ENDSEC;
END-ISO-10303-21;
