ISO-10303-21;
HEADER;
/* Generated by software containing ST-Developer
 * from STEP Tools, Inc. (www.steptools.com) 
 */

FILE_DESCRIPTION(
/* description */ (''),
/* implementation_level */ '2;1');

FILE_NAME(
/* name */ '',
/* time_stamp */ '2026-08-11T12:55:11+09:00',
/* author */ (''),
/* organization */ (''),
/* preprocessor_version */ 'ST-DEVELOPER v20.1',
/* originating_system */ 'Autodesk Translation Framework v15.8.0.0',
/* authorisation */ '');

FILE_SCHEMA (('AUTOMOTIVE_DESIGN { 1 0 10303 214 3 1 1 }'));
ENDSEC;

DATA;
#10=MECHANICAL_DESIGN_GEOMETRIC_PRESENTATION_REPRESENTATION('',(#13),#1539);
#11=SHAPE_REPRESENTATION_RELATIONSHIP('SRR','None',#1546,#12);
#12=ADVANCED_BREP_SHAPE_REPRESENTATION('',(#14),#1538);
#13=STYLED_ITEM('',(#1556),#14);
#14=MANIFOLD_SOLID_BREP('\X2\663E793A5C4F56FA5B9A8F6667B6\X0\ (1)',#935);
#15=CYLINDRICAL_SURFACE('',#956,1.49999999999999);
#16=CYLINDRICAL_SURFACE('',#958,1.49999999999999);
#17=CYLINDRICAL_SURFACE('',#1012,1.5);
#18=CYLINDRICAL_SURFACE('',#1013,2.85);
#19=CYLINDRICAL_SURFACE('',#1014,1.5);
#20=CYLINDRICAL_SURFACE('',#1015,2.85);
#21=CYLINDRICAL_SURFACE('',#1016,1.5);
#22=CYLINDRICAL_SURFACE('',#1017,2.85);
#23=CYLINDRICAL_SURFACE('',#1018,1.5);
#24=CYLINDRICAL_SURFACE('',#1019,2.85);
#25=FACE_BOUND('',#111,.T.);
#26=FACE_BOUND('',#113,.T.);
#27=FACE_BOUND('',#120,.T.);
#28=FACE_BOUND('',#125,.T.);
#29=FACE_BOUND('',#136,.T.);
#30=FACE_BOUND('',#137,.T.);
#31=FACE_BOUND('',#138,.T.);
#32=FACE_BOUND('',#139,.T.);
#33=FACE_BOUND('',#147,.T.);
#34=FACE_BOUND('',#149,.T.);
#35=FACE_BOUND('',#151,.T.);
#36=FACE_BOUND('',#153,.T.);
#37=CIRCLE('',#951,1.49999999999999);
#38=CIRCLE('',#953,1.49999999999999);
#39=CIRCLE('',#957,1.49999999999999);
#40=CIRCLE('',#959,1.49999999999999);
#41=CIRCLE('',#976,2.85);
#42=CIRCLE('',#977,2.85);
#43=CIRCLE('',#978,2.85);
#44=CIRCLE('',#979,2.85);
#45=CIRCLE('',#980,2.85);
#46=CIRCLE('',#981,2.85);
#47=CIRCLE('',#982,2.85);
#48=CIRCLE('',#983,1.5);
#49=CIRCLE('',#984,1.5);
#50=CIRCLE('',#985,1.5);
#51=CIRCLE('',#986,1.5);
#52=CIRCLE('',#989,2.85);
#53=CIRCLE('',#990,2.85);
#54=CIRCLE('',#991,2.85);
#55=CIRCLE('',#992,2.85);
#56=CIRCLE('',#993,2.85);
#57=CIRCLE('',#999,2.85);
#58=CIRCLE('',#1000,1.5);
#59=CIRCLE('',#1002,2.85);
#60=CIRCLE('',#1003,1.5);
#61=CIRCLE('',#1005,2.85);
#62=CIRCLE('',#1006,1.5);
#63=CIRCLE('',#1008,2.85);
#64=CIRCLE('',#1009,1.5);
#65=FACE_OUTER_BOUND('',#109,.T.);
#66=FACE_OUTER_BOUND('',#110,.T.);
#67=FACE_OUTER_BOUND('',#112,.T.);
#68=FACE_OUTER_BOUND('',#114,.T.);
#69=FACE_OUTER_BOUND('',#115,.T.);
#70=FACE_OUTER_BOUND('',#116,.T.);
#71=FACE_OUTER_BOUND('',#117,.T.);
#72=FACE_OUTER_BOUND('',#118,.T.);
#73=FACE_OUTER_BOUND('',#119,.T.);
#74=FACE_OUTER_BOUND('',#121,.T.);
#75=FACE_OUTER_BOUND('',#122,.T.);
#76=FACE_OUTER_BOUND('',#123,.T.);
#77=FACE_OUTER_BOUND('',#124,.T.);
#78=FACE_OUTER_BOUND('',#126,.T.);
#79=FACE_OUTER_BOUND('',#127,.T.);
#80=FACE_OUTER_BOUND('',#128,.T.);
#81=FACE_OUTER_BOUND('',#129,.T.);
#82=FACE_OUTER_BOUND('',#130,.T.);
#83=FACE_OUTER_BOUND('',#131,.T.);
#84=FACE_OUTER_BOUND('',#132,.T.);
#85=FACE_OUTER_BOUND('',#133,.T.);
#86=FACE_OUTER_BOUND('',#134,.T.);
#87=FACE_OUTER_BOUND('',#135,.T.);
#88=FACE_OUTER_BOUND('',#140,.T.);
#89=FACE_OUTER_BOUND('',#141,.T.);
#90=FACE_OUTER_BOUND('',#142,.T.);
#91=FACE_OUTER_BOUND('',#143,.T.);
#92=FACE_OUTER_BOUND('',#144,.T.);
#93=FACE_OUTER_BOUND('',#145,.T.);
#94=FACE_OUTER_BOUND('',#146,.T.);
#95=FACE_OUTER_BOUND('',#148,.T.);
#96=FACE_OUTER_BOUND('',#150,.T.);
#97=FACE_OUTER_BOUND('',#152,.T.);
#98=FACE_OUTER_BOUND('',#154,.T.);
#99=FACE_OUTER_BOUND('',#155,.T.);
#100=FACE_OUTER_BOUND('',#156,.T.);
#101=FACE_OUTER_BOUND('',#157,.T.);
#102=FACE_OUTER_BOUND('',#158,.T.);
#103=FACE_OUTER_BOUND('',#159,.T.);
#104=FACE_OUTER_BOUND('',#160,.T.);
#105=FACE_OUTER_BOUND('',#161,.T.);
#106=FACE_OUTER_BOUND('',#162,.T.);
#107=FACE_OUTER_BOUND('',#163,.T.);
#108=FACE_OUTER_BOUND('',#164,.T.);
#109=EDGE_LOOP('',(#593,#594,#595,#596));
#110=EDGE_LOOP('',(#597,#598,#599,#600));
#111=EDGE_LOOP('',(#601));
#112=EDGE_LOOP('',(#602,#603,#604,#605));
#113=EDGE_LOOP('',(#606));
#114=EDGE_LOOP('',(#607,#608,#609,#610));
#115=EDGE_LOOP('',(#611,#612,#613,#614));
#116=EDGE_LOOP('',(#615,#616,#617,#618));
#117=EDGE_LOOP('',(#619,#620,#621,#622));
#118=EDGE_LOOP('',(#623,#624,#625,#626));
#119=EDGE_LOOP('',(#627,#628,#629,#630));
#120=EDGE_LOOP('',(#631));
#121=EDGE_LOOP('',(#632,#633,#634,#635));
#122=EDGE_LOOP('',(#636,#637,#638,#639));
#123=EDGE_LOOP('',(#640,#641,#642,#643));
#124=EDGE_LOOP('',(#644,#645,#646,#647));
#125=EDGE_LOOP('',(#648));
#126=EDGE_LOOP('',(#649,#650,#651,#652));
#127=EDGE_LOOP('',(#653,#654,#655,#656));
#128=EDGE_LOOP('',(#657,#658,#659,#660));
#129=EDGE_LOOP('',(#661,#662,#663,#664));
#130=EDGE_LOOP('',(#665,#666,#667,#668,#669,#670,#671,#672,#673,#674,#675,
#676,#677,#678,#679,#680,#681,#682,#683,#684));
#131=EDGE_LOOP('',(#685,#686,#687,#688,#689,#690,#691,#692));
#132=EDGE_LOOP('',(#693,#694,#695,#696));
#133=EDGE_LOOP('',(#697,#698,#699,#700,#701,#702,#703,#704));
#134=EDGE_LOOP('',(#705,#706,#707,#708,#709,#710,#711,#712,#713,#714,#715,
#716,#717,#718,#719,#720,#721,#722,#723,#724));
#135=EDGE_LOOP('',(#725,#726,#727,#728,#729,#730,#731,#732,#733,#734,#735,
#736,#737,#738,#739,#740,#741,#742,#743,#744,#745,#746,#747,#748,#749));
#136=EDGE_LOOP('',(#750));
#137=EDGE_LOOP('',(#751));
#138=EDGE_LOOP('',(#752));
#139=EDGE_LOOP('',(#753));
#140=EDGE_LOOP('',(#754,#755,#756,#757));
#141=EDGE_LOOP('',(#758,#759,#760,#761,#762,#763,#764,#765,#766,#767,#768,
#769,#770,#771,#772));
#142=EDGE_LOOP('',(#773,#774,#775,#776));
#143=EDGE_LOOP('',(#777,#778,#779,#780));
#144=EDGE_LOOP('',(#781,#782,#783,#784));
#145=EDGE_LOOP('',(#785,#786,#787,#788));
#146=EDGE_LOOP('',(#789));
#147=EDGE_LOOP('',(#790));
#148=EDGE_LOOP('',(#791));
#149=EDGE_LOOP('',(#792));
#150=EDGE_LOOP('',(#793));
#151=EDGE_LOOP('',(#794));
#152=EDGE_LOOP('',(#795));
#153=EDGE_LOOP('',(#796));
#154=EDGE_LOOP('',(#797,#798,#799,#800));
#155=EDGE_LOOP('',(#801,#802,#803,#804));
#156=EDGE_LOOP('',(#805,#806,#807,#808));
#157=EDGE_LOOP('',(#809,#810,#811,#812,#813,#814,#815,#816));
#158=EDGE_LOOP('',(#817,#818,#819,#820));
#159=EDGE_LOOP('',(#821,#822,#823,#824,#825,#826,#827,#828));
#160=EDGE_LOOP('',(#829,#830,#831,#832));
#161=EDGE_LOOP('',(#833,#834,#835,#836,#837,#838,#839,#840));
#162=EDGE_LOOP('',(#841,#842,#843,#844));
#163=EDGE_LOOP('',(#845,#846,#847,#848,#849,#850,#851,#852));
#164=EDGE_LOOP('',(#853,#854,#855,#856));
#165=LINE('',#1275,#269);
#166=LINE('',#1277,#270);
#167=LINE('',#1279,#271);
#168=LINE('',#1280,#272);
#169=LINE('',#1283,#273);
#170=LINE('',#1285,#274);
#171=LINE('',#1286,#275);
#172=LINE('',#1291,#276);
#173=LINE('',#1293,#277);
#174=LINE('',#1294,#278);
#175=LINE('',#1299,#279);
#176=LINE('',#1301,#280);
#177=LINE('',#1302,#281);
#178=LINE('',#1305,#282);
#179=LINE('',#1307,#283);
#180=LINE('',#1308,#284);
#181=LINE('',#1312,#285);
#182=LINE('',#1315,#286);
#183=LINE('',#1320,#287);
#184=LINE('',#1322,#288);
#185=LINE('',#1324,#289);
#186=LINE('',#1325,#290);
#187=LINE('',#1329,#291);
#188=LINE('',#1330,#292);
#189=LINE('',#1331,#293);
#190=LINE('',#1335,#294);
#191=LINE('',#1337,#295);
#192=LINE('',#1339,#296);
#193=LINE('',#1340,#297);
#194=LINE('',#1343,#298);
#195=LINE('',#1345,#299);
#196=LINE('',#1346,#300);
#197=LINE('',#1348,#301);
#198=LINE('',#1349,#302);
#199=LINE('',#1353,#303);
#200=LINE('',#1354,#304);
#201=LINE('',#1355,#305);
#202=LINE('',#1359,#306);
#203=LINE('',#1361,#307);
#204=LINE('',#1363,#308);
#205=LINE('',#1364,#309);
#206=LINE('',#1367,#310);
#207=LINE('',#1369,#311);
#208=LINE('',#1370,#312);
#209=LINE('',#1372,#313);
#210=LINE('',#1373,#314);
#211=LINE('',#1376,#315);
#212=LINE('',#1378,#316);
#213=LINE('',#1379,#317);
#214=LINE('',#1382,#318);
#215=LINE('',#1383,#319);
#216=LINE('',#1385,#320);
#217=LINE('',#1387,#321);
#218=LINE('',#1388,#322);
#219=LINE('',#1391,#323);
#220=LINE('',#1393,#324);
#221=LINE('',#1395,#325);
#222=LINE('',#1397,#326);
#223=LINE('',#1399,#327);
#224=LINE('',#1400,#328);
#225=LINE('',#1403,#329);
#226=LINE('',#1404,#330);
#227=LINE('',#1407,#331);
#228=LINE('',#1409,#332);
#229=LINE('',#1411,#333);
#230=LINE('',#1413,#334);
#231=LINE('',#1415,#335);
#232=LINE('',#1416,#336);
#233=LINE('',#1418,#337);
#234=LINE('',#1419,#338);
#235=LINE('',#1422,#339);
#236=LINE('',#1428,#340);
#237=LINE('',#1434,#341);
#238=LINE('',#1436,#342);
#239=LINE('',#1438,#343);
#240=LINE('',#1442,#344);
#241=LINE('',#1447,#345);
#242=LINE('',#1448,#346);
#243=LINE('',#1458,#347);
#244=LINE('',#1461,#348);
#245=LINE('',#1465,#349);
#246=LINE('',#1471,#350);
#247=LINE('',#1473,#351);
#248=LINE('',#1475,#352);
#249=LINE('',#1479,#353);
#250=LINE('',#1482,#354);
#251=LINE('',#1484,#355);
#252=LINE('',#1486,#356);
#253=LINE('',#1487,#357);
#254=LINE('',#1489,#358);
#255=LINE('',#1490,#359);
#256=LINE('',#1492,#360);
#257=LINE('',#1514,#361);
#258=LINE('',#1516,#362);
#259=LINE('',#1518,#363);
#260=LINE('',#1520,#364);
#261=LINE('',#1522,#365);
#262=LINE('',#1524,#366);
#263=LINE('',#1525,#367);
#264=LINE('',#1527,#368);
#265=LINE('',#1529,#369);
#266=LINE('',#1531,#370);
#267=LINE('',#1533,#371);
#268=LINE('',#1534,#372);
#269=VECTOR('',#1025,10.);
#270=VECTOR('',#1026,10.);
#271=VECTOR('',#1027,10.);
#272=VECTOR('',#1028,10.);
#273=VECTOR('',#1031,10.);
#274=VECTOR('',#1032,10.);
#275=VECTOR('',#1033,10.);
#276=VECTOR('',#1038,10.);
#277=VECTOR('',#1039,10.);
#278=VECTOR('',#1040,10.);
#279=VECTOR('',#1045,10.);
#280=VECTOR('',#1046,10.);
#281=VECTOR('',#1047,10.);
#282=VECTOR('',#1050,10.);
#283=VECTOR('',#1051,10.);
#284=VECTOR('',#1052,10.);
#285=VECTOR('',#1057,1.49999999999999);
#286=VECTOR('',#1060,1.49999999999999);
#287=VECTOR('',#1065,10.);
#288=VECTOR('',#1066,10.);
#289=VECTOR('',#1067,10.);
#290=VECTOR('',#1068,10.);
#291=VECTOR('',#1071,10.);
#292=VECTOR('',#1072,10.);
#293=VECTOR('',#1073,10.);
#294=VECTOR('',#1076,10.);
#295=VECTOR('',#1077,10.);
#296=VECTOR('',#1078,10.);
#297=VECTOR('',#1079,10.);
#298=VECTOR('',#1082,10.);
#299=VECTOR('',#1083,10.);
#300=VECTOR('',#1084,10.);
#301=VECTOR('',#1087,10.);
#302=VECTOR('',#1088,10.);
#303=VECTOR('',#1091,10.);
#304=VECTOR('',#1092,10.);
#305=VECTOR('',#1093,10.);
#306=VECTOR('',#1096,10.);
#307=VECTOR('',#1097,10.);
#308=VECTOR('',#1098,10.);
#309=VECTOR('',#1099,10.);
#310=VECTOR('',#1102,10.);
#311=VECTOR('',#1103,10.);
#312=VECTOR('',#1104,10.);
#313=VECTOR('',#1107,10.);
#314=VECTOR('',#1108,10.);
#315=VECTOR('',#1111,10.);
#316=VECTOR('',#1112,10.);
#317=VECTOR('',#1113,10.);
#318=VECTOR('',#1116,10.);
#319=VECTOR('',#1117,10.);
#320=VECTOR('',#1118,10.);
#321=VECTOR('',#1119,10.);
#322=VECTOR('',#1120,10.);
#323=VECTOR('',#1123,10.);
#324=VECTOR('',#1124,10.);
#325=VECTOR('',#1125,10.);
#326=VECTOR('',#1126,10.);
#327=VECTOR('',#1127,10.);
#328=VECTOR('',#1128,10.);
#329=VECTOR('',#1131,10.);
#330=VECTOR('',#1132,10.);
#331=VECTOR('',#1135,10.);
#332=VECTOR('',#1136,10.);
#333=VECTOR('',#1137,10.);
#334=VECTOR('',#1138,10.);
#335=VECTOR('',#1139,10.);
#336=VECTOR('',#1140,10.);
#337=VECTOR('',#1143,10.);
#338=VECTOR('',#1144,10.);
#339=VECTOR('',#1147,10.);
#340=VECTOR('',#1152,10.);
#341=VECTOR('',#1157,10.);
#342=VECTOR('',#1158,10.);
#343=VECTOR('',#1159,10.);
#344=VECTOR('',#1162,10.);
#345=VECTOR('',#1167,10.);
#346=VECTOR('',#1168,10.);
#347=VECTOR('',#1179,10.);
#348=VECTOR('',#1182,10.);
#349=VECTOR('',#1185,10.);
#350=VECTOR('',#1190,10.);
#351=VECTOR('',#1191,10.);
#352=VECTOR('',#1192,10.);
#353=VECTOR('',#1195,10.);
#354=VECTOR('',#1198,10.);
#355=VECTOR('',#1201,10.);
#356=VECTOR('',#1204,10.);
#357=VECTOR('',#1205,10.);
#358=VECTOR('',#1208,10.);
#359=VECTOR('',#1209,10.);
#360=VECTOR('',#1212,10.);
#361=VECTOR('',#1239,10.);
#362=VECTOR('',#1242,10.);
#363=VECTOR('',#1245,1.5);
#364=VECTOR('',#1248,2.85);
#365=VECTOR('',#1251,1.5);
#366=VECTOR('',#1254,2.85);
#367=VECTOR('',#1255,10.);
#368=VECTOR('',#1258,1.5);
#369=VECTOR('',#1261,2.85);
#370=VECTOR('',#1264,1.5);
#371=VECTOR('',#1267,10.);
#372=VECTOR('',#1268,2.85);
#373=VERTEX_POINT('',#1273);
#374=VERTEX_POINT('',#1274);
#375=VERTEX_POINT('',#1276);
#376=VERTEX_POINT('',#1278);
#377=VERTEX_POINT('',#1282);
#378=VERTEX_POINT('',#1284);
#379=VERTEX_POINT('',#1287);
#380=VERTEX_POINT('',#1290);
#381=VERTEX_POINT('',#1292);
#382=VERTEX_POINT('',#1295);
#383=VERTEX_POINT('',#1298);
#384=VERTEX_POINT('',#1300);
#385=VERTEX_POINT('',#1304);
#386=VERTEX_POINT('',#1306);
#387=VERTEX_POINT('',#1310);
#388=VERTEX_POINT('',#1314);
#389=VERTEX_POINT('',#1318);
#390=VERTEX_POINT('',#1319);
#391=VERTEX_POINT('',#1321);
#392=VERTEX_POINT('',#1323);
#393=VERTEX_POINT('',#1327);
#394=VERTEX_POINT('',#1328);
#395=VERTEX_POINT('',#1333);
#396=VERTEX_POINT('',#1334);
#397=VERTEX_POINT('',#1336);
#398=VERTEX_POINT('',#1338);
#399=VERTEX_POINT('',#1342);
#400=VERTEX_POINT('',#1344);
#401=VERTEX_POINT('',#1351);
#402=VERTEX_POINT('',#1352);
#403=VERTEX_POINT('',#1357);
#404=VERTEX_POINT('',#1358);
#405=VERTEX_POINT('',#1360);
#406=VERTEX_POINT('',#1362);
#407=VERTEX_POINT('',#1366);
#408=VERTEX_POINT('',#1368);
#409=VERTEX_POINT('',#1375);
#410=VERTEX_POINT('',#1377);
#411=VERTEX_POINT('',#1381);
#412=VERTEX_POINT('',#1384);
#413=VERTEX_POINT('',#1386);
#414=VERTEX_POINT('',#1390);
#415=VERTEX_POINT('',#1392);
#416=VERTEX_POINT('',#1394);
#417=VERTEX_POINT('',#1396);
#418=VERTEX_POINT('',#1398);
#419=VERTEX_POINT('',#1402);
#420=VERTEX_POINT('',#1406);
#421=VERTEX_POINT('',#1408);
#422=VERTEX_POINT('',#1410);
#423=VERTEX_POINT('',#1412);
#424=VERTEX_POINT('',#1414);
#425=VERTEX_POINT('',#1421);
#426=VERTEX_POINT('',#1423);
#427=VERTEX_POINT('',#1425);
#428=VERTEX_POINT('',#1427);
#429=VERTEX_POINT('',#1429);
#430=VERTEX_POINT('',#1431);
#431=VERTEX_POINT('',#1433);
#432=VERTEX_POINT('',#1435);
#433=VERTEX_POINT('',#1437);
#434=VERTEX_POINT('',#1439);
#435=VERTEX_POINT('',#1441);
#436=VERTEX_POINT('',#1443);
#437=VERTEX_POINT('',#1445);
#438=VERTEX_POINT('',#1449);
#439=VERTEX_POINT('',#1451);
#440=VERTEX_POINT('',#1453);
#441=VERTEX_POINT('',#1455);
#442=VERTEX_POINT('',#1460);
#443=VERTEX_POINT('',#1462);
#444=VERTEX_POINT('',#1464);
#445=VERTEX_POINT('',#1466);
#446=VERTEX_POINT('',#1468);
#447=VERTEX_POINT('',#1470);
#448=VERTEX_POINT('',#1472);
#449=VERTEX_POINT('',#1474);
#450=VERTEX_POINT('',#1476);
#451=VERTEX_POINT('',#1478);
#452=VERTEX_POINT('',#1480);
#453=VERTEX_POINT('',#1494);
#454=VERTEX_POINT('',#1496);
#455=VERTEX_POINT('',#1499);
#456=VERTEX_POINT('',#1501);
#457=VERTEX_POINT('',#1504);
#458=VERTEX_POINT('',#1506);
#459=VERTEX_POINT('',#1509);
#460=VERTEX_POINT('',#1511);
#461=EDGE_CURVE('',#373,#374,#165,.T.);
#462=EDGE_CURVE('',#373,#375,#166,.T.);
#463=EDGE_CURVE('',#376,#375,#167,.T.);
#464=EDGE_CURVE('',#374,#376,#168,.T.);
#465=EDGE_CURVE('',#377,#374,#169,.T.);
#466=EDGE_CURVE('',#378,#377,#170,.T.);
#467=EDGE_CURVE('',#373,#378,#171,.T.);
#468=EDGE_CURVE('',#379,#379,#37,.T.);
#469=EDGE_CURVE('',#380,#375,#172,.T.);
#470=EDGE_CURVE('',#381,#380,#173,.T.);
#471=EDGE_CURVE('',#376,#381,#174,.T.);
#472=EDGE_CURVE('',#382,#382,#38,.T.);
#473=EDGE_CURVE('',#383,#377,#175,.T.);
#474=EDGE_CURVE('',#383,#384,#176,.T.);
#475=EDGE_CURVE('',#384,#378,#177,.T.);
#476=EDGE_CURVE('',#380,#385,#178,.T.);
#477=EDGE_CURVE('',#385,#386,#179,.T.);
#478=EDGE_CURVE('',#381,#386,#180,.T.);
#479=EDGE_CURVE('',#387,#387,#39,.T.);
#480=EDGE_CURVE('',#387,#382,#181,.T.);
#481=EDGE_CURVE('',#379,#388,#182,.T.);
#482=EDGE_CURVE('',#388,#388,#40,.T.);
#483=EDGE_CURVE('',#389,#390,#183,.T.);
#484=EDGE_CURVE('',#390,#391,#184,.T.);
#485=EDGE_CURVE('',#391,#392,#185,.T.);
#486=EDGE_CURVE('',#392,#389,#186,.T.);
#487=EDGE_CURVE('',#393,#394,#187,.T.);
#488=EDGE_CURVE('',#384,#394,#188,.T.);
#489=EDGE_CURVE('',#393,#383,#189,.T.);
#490=EDGE_CURVE('',#395,#396,#190,.T.);
#491=EDGE_CURVE('',#395,#397,#191,.T.);
#492=EDGE_CURVE('',#397,#398,#192,.T.);
#493=EDGE_CURVE('',#398,#396,#193,.T.);
#494=EDGE_CURVE('',#399,#398,#194,.T.);
#495=EDGE_CURVE('',#400,#397,#195,.T.);
#496=EDGE_CURVE('',#400,#399,#196,.T.);
#497=EDGE_CURVE('',#393,#399,#197,.T.);
#498=EDGE_CURVE('',#400,#394,#198,.T.);
#499=EDGE_CURVE('',#401,#402,#199,.T.);
#500=EDGE_CURVE('',#386,#402,#200,.T.);
#501=EDGE_CURVE('',#385,#401,#201,.T.);
#502=EDGE_CURVE('',#403,#404,#202,.T.);
#503=EDGE_CURVE('',#403,#405,#203,.T.);
#504=EDGE_CURVE('',#406,#405,#204,.T.);
#505=EDGE_CURVE('',#406,#404,#205,.T.);
#506=EDGE_CURVE('',#407,#402,#206,.T.);
#507=EDGE_CURVE('',#408,#401,#207,.T.);
#508=EDGE_CURVE('',#408,#407,#208,.T.);
#509=EDGE_CURVE('',#405,#407,#209,.T.);
#510=EDGE_CURVE('',#408,#406,#210,.T.);
#511=EDGE_CURVE('',#404,#409,#211,.T.);
#512=EDGE_CURVE('',#410,#409,#212,.T.);
#513=EDGE_CURVE('',#403,#410,#213,.T.);
#514=EDGE_CURVE('',#390,#411,#214,.T.);
#515=EDGE_CURVE('',#409,#411,#215,.T.);
#516=EDGE_CURVE('',#395,#412,#216,.T.);
#517=EDGE_CURVE('',#413,#412,#217,.T.);
#518=EDGE_CURVE('',#413,#391,#218,.T.);
#519=EDGE_CURVE('',#414,#389,#219,.T.);
#520=EDGE_CURVE('',#415,#414,#220,.T.);
#521=EDGE_CURVE('',#416,#415,#221,.T.);
#522=EDGE_CURVE('',#417,#416,#222,.T.);
#523=EDGE_CURVE('',#418,#417,#223,.T.);
#524=EDGE_CURVE('',#411,#418,#224,.T.);
#525=EDGE_CURVE('',#419,#396,#225,.T.);
#526=EDGE_CURVE('',#412,#419,#226,.T.);
#527=EDGE_CURVE('',#420,#413,#227,.T.);
#528=EDGE_CURVE('',#420,#421,#228,.T.);
#529=EDGE_CURVE('',#422,#421,#229,.T.);
#530=EDGE_CURVE('',#423,#422,#230,.T.);
#531=EDGE_CURVE('',#424,#423,#231,.T.);
#532=EDGE_CURVE('',#392,#424,#232,.T.);
#533=EDGE_CURVE('',#414,#410,#233,.T.);
#534=EDGE_CURVE('',#419,#424,#234,.T.);
#535=EDGE_CURVE('',#425,#423,#235,.T.);
#536=EDGE_CURVE('',#425,#426,#41,.T.);
#537=EDGE_CURVE('',#426,#427,#42,.T.);
#538=EDGE_CURVE('',#428,#427,#236,.T.);
#539=EDGE_CURVE('',#428,#429,#43,.T.);
#540=EDGE_CURVE('',#429,#430,#44,.T.);
#541=EDGE_CURVE('',#431,#430,#237,.T.);
#542=EDGE_CURVE('',#432,#431,#238,.T.);
#543=EDGE_CURVE('',#433,#432,#239,.T.);
#544=EDGE_CURVE('',#433,#434,#45,.T.);
#545=EDGE_CURVE('',#435,#434,#240,.T.);
#546=EDGE_CURVE('',#435,#436,#46,.T.);
#547=EDGE_CURVE('',#436,#437,#47,.T.);
#548=EDGE_CURVE('',#415,#437,#241,.T.);
#549=EDGE_CURVE('',#418,#420,#242,.T.);
#550=EDGE_CURVE('',#438,#438,#48,.T.);
#551=EDGE_CURVE('',#439,#439,#49,.T.);
#552=EDGE_CURVE('',#440,#440,#50,.T.);
#553=EDGE_CURVE('',#441,#441,#51,.T.);
#554=EDGE_CURVE('',#421,#417,#243,.T.);
#555=EDGE_CURVE('',#442,#416,#244,.T.);
#556=EDGE_CURVE('',#443,#442,#52,.T.);
#557=EDGE_CURVE('',#444,#443,#245,.T.);
#558=EDGE_CURVE('',#445,#444,#53,.T.);
#559=EDGE_CURVE('',#446,#445,#54,.T.);
#560=EDGE_CURVE('',#447,#446,#246,.T.);
#561=EDGE_CURVE('',#448,#447,#247,.T.);
#562=EDGE_CURVE('',#449,#448,#248,.T.);
#563=EDGE_CURVE('',#450,#449,#55,.T.);
#564=EDGE_CURVE('',#451,#450,#249,.T.);
#565=EDGE_CURVE('',#452,#451,#56,.T.);
#566=EDGE_CURVE('',#422,#452,#250,.T.);
#567=EDGE_CURVE('',#437,#442,#251,.T.);
#568=EDGE_CURVE('',#446,#433,#252,.T.);
#569=EDGE_CURVE('',#447,#432,#253,.T.);
#570=EDGE_CURVE('',#443,#435,#254,.T.);
#571=EDGE_CURVE('',#434,#444,#255,.T.);
#572=EDGE_CURVE('',#452,#425,#256,.T.);
#573=EDGE_CURVE('',#453,#453,#57,.T.);
#574=EDGE_CURVE('',#454,#454,#58,.T.);
#575=EDGE_CURVE('',#455,#455,#59,.T.);
#576=EDGE_CURVE('',#456,#456,#60,.T.);
#577=EDGE_CURVE('',#457,#457,#61,.T.);
#578=EDGE_CURVE('',#458,#458,#62,.T.);
#579=EDGE_CURVE('',#459,#459,#63,.T.);
#580=EDGE_CURVE('',#460,#460,#64,.T.);
#581=EDGE_CURVE('',#448,#431,#257,.T.);
#582=EDGE_CURVE('',#430,#449,#258,.T.);
#583=EDGE_CURVE('',#440,#460,#259,.T.);
#584=EDGE_CURVE('',#445,#459,#260,.T.);
#585=EDGE_CURVE('',#441,#458,#261,.T.);
#586=EDGE_CURVE('',#429,#457,#262,.T.);
#587=EDGE_CURVE('',#450,#428,#263,.T.);
#588=EDGE_CURVE('',#438,#454,#264,.T.);
#589=EDGE_CURVE('',#436,#453,#265,.T.);
#590=EDGE_CURVE('',#439,#456,#266,.T.);
#591=EDGE_CURVE('',#427,#451,#267,.T.);
#592=EDGE_CURVE('',#426,#455,#268,.T.);
#593=ORIENTED_EDGE('',*,*,#461,.F.);
#594=ORIENTED_EDGE('',*,*,#462,.T.);
#595=ORIENTED_EDGE('',*,*,#463,.F.);
#596=ORIENTED_EDGE('',*,*,#464,.F.);
#597=ORIENTED_EDGE('',*,*,#461,.T.);
#598=ORIENTED_EDGE('',*,*,#465,.F.);
#599=ORIENTED_EDGE('',*,*,#466,.F.);
#600=ORIENTED_EDGE('',*,*,#467,.F.);
#601=ORIENTED_EDGE('',*,*,#468,.F.);
#602=ORIENTED_EDGE('',*,*,#463,.T.);
#603=ORIENTED_EDGE('',*,*,#469,.F.);
#604=ORIENTED_EDGE('',*,*,#470,.F.);
#605=ORIENTED_EDGE('',*,*,#471,.F.);
#606=ORIENTED_EDGE('',*,*,#472,.F.);
#607=ORIENTED_EDGE('',*,*,#466,.T.);
#608=ORIENTED_EDGE('',*,*,#473,.F.);
#609=ORIENTED_EDGE('',*,*,#474,.T.);
#610=ORIENTED_EDGE('',*,*,#475,.T.);
#611=ORIENTED_EDGE('',*,*,#470,.T.);
#612=ORIENTED_EDGE('',*,*,#476,.T.);
#613=ORIENTED_EDGE('',*,*,#477,.T.);
#614=ORIENTED_EDGE('',*,*,#478,.F.);
#615=ORIENTED_EDGE('',*,*,#479,.T.);
#616=ORIENTED_EDGE('',*,*,#480,.T.);
#617=ORIENTED_EDGE('',*,*,#472,.T.);
#618=ORIENTED_EDGE('',*,*,#480,.F.);
#619=ORIENTED_EDGE('',*,*,#468,.T.);
#620=ORIENTED_EDGE('',*,*,#481,.T.);
#621=ORIENTED_EDGE('',*,*,#482,.T.);
#622=ORIENTED_EDGE('',*,*,#481,.F.);
#623=ORIENTED_EDGE('',*,*,#483,.T.);
#624=ORIENTED_EDGE('',*,*,#484,.T.);
#625=ORIENTED_EDGE('',*,*,#485,.T.);
#626=ORIENTED_EDGE('',*,*,#486,.T.);
#627=ORIENTED_EDGE('',*,*,#487,.T.);
#628=ORIENTED_EDGE('',*,*,#488,.F.);
#629=ORIENTED_EDGE('',*,*,#474,.F.);
#630=ORIENTED_EDGE('',*,*,#489,.F.);
#631=ORIENTED_EDGE('',*,*,#482,.F.);
#632=ORIENTED_EDGE('',*,*,#490,.F.);
#633=ORIENTED_EDGE('',*,*,#491,.T.);
#634=ORIENTED_EDGE('',*,*,#492,.T.);
#635=ORIENTED_EDGE('',*,*,#493,.T.);
#636=ORIENTED_EDGE('',*,*,#494,.T.);
#637=ORIENTED_EDGE('',*,*,#492,.F.);
#638=ORIENTED_EDGE('',*,*,#495,.F.);
#639=ORIENTED_EDGE('',*,*,#496,.T.);
#640=ORIENTED_EDGE('',*,*,#497,.T.);
#641=ORIENTED_EDGE('',*,*,#496,.F.);
#642=ORIENTED_EDGE('',*,*,#498,.T.);
#643=ORIENTED_EDGE('',*,*,#487,.F.);
#644=ORIENTED_EDGE('',*,*,#499,.T.);
#645=ORIENTED_EDGE('',*,*,#500,.F.);
#646=ORIENTED_EDGE('',*,*,#477,.F.);
#647=ORIENTED_EDGE('',*,*,#501,.T.);
#648=ORIENTED_EDGE('',*,*,#479,.F.);
#649=ORIENTED_EDGE('',*,*,#502,.F.);
#650=ORIENTED_EDGE('',*,*,#503,.T.);
#651=ORIENTED_EDGE('',*,*,#504,.F.);
#652=ORIENTED_EDGE('',*,*,#505,.T.);
#653=ORIENTED_EDGE('',*,*,#506,.T.);
#654=ORIENTED_EDGE('',*,*,#499,.F.);
#655=ORIENTED_EDGE('',*,*,#507,.F.);
#656=ORIENTED_EDGE('',*,*,#508,.T.);
#657=ORIENTED_EDGE('',*,*,#509,.T.);
#658=ORIENTED_EDGE('',*,*,#508,.F.);
#659=ORIENTED_EDGE('',*,*,#510,.T.);
#660=ORIENTED_EDGE('',*,*,#504,.T.);
#661=ORIENTED_EDGE('',*,*,#502,.T.);
#662=ORIENTED_EDGE('',*,*,#511,.T.);
#663=ORIENTED_EDGE('',*,*,#512,.F.);
#664=ORIENTED_EDGE('',*,*,#513,.F.);
#665=ORIENTED_EDGE('',*,*,#514,.T.);
#666=ORIENTED_EDGE('',*,*,#515,.F.);
#667=ORIENTED_EDGE('',*,*,#511,.F.);
#668=ORIENTED_EDGE('',*,*,#505,.F.);
#669=ORIENTED_EDGE('',*,*,#510,.F.);
#670=ORIENTED_EDGE('',*,*,#507,.T.);
#671=ORIENTED_EDGE('',*,*,#501,.F.);
#672=ORIENTED_EDGE('',*,*,#476,.F.);
#673=ORIENTED_EDGE('',*,*,#469,.T.);
#674=ORIENTED_EDGE('',*,*,#462,.F.);
#675=ORIENTED_EDGE('',*,*,#467,.T.);
#676=ORIENTED_EDGE('',*,*,#475,.F.);
#677=ORIENTED_EDGE('',*,*,#488,.T.);
#678=ORIENTED_EDGE('',*,*,#498,.F.);
#679=ORIENTED_EDGE('',*,*,#495,.T.);
#680=ORIENTED_EDGE('',*,*,#491,.F.);
#681=ORIENTED_EDGE('',*,*,#516,.T.);
#682=ORIENTED_EDGE('',*,*,#517,.F.);
#683=ORIENTED_EDGE('',*,*,#518,.T.);
#684=ORIENTED_EDGE('',*,*,#484,.F.);
#685=ORIENTED_EDGE('',*,*,#519,.F.);
#686=ORIENTED_EDGE('',*,*,#520,.F.);
#687=ORIENTED_EDGE('',*,*,#521,.F.);
#688=ORIENTED_EDGE('',*,*,#522,.F.);
#689=ORIENTED_EDGE('',*,*,#523,.F.);
#690=ORIENTED_EDGE('',*,*,#524,.F.);
#691=ORIENTED_EDGE('',*,*,#514,.F.);
#692=ORIENTED_EDGE('',*,*,#483,.F.);
#693=ORIENTED_EDGE('',*,*,#490,.T.);
#694=ORIENTED_EDGE('',*,*,#525,.F.);
#695=ORIENTED_EDGE('',*,*,#526,.F.);
#696=ORIENTED_EDGE('',*,*,#516,.F.);
#697=ORIENTED_EDGE('',*,*,#518,.F.);
#698=ORIENTED_EDGE('',*,*,#527,.F.);
#699=ORIENTED_EDGE('',*,*,#528,.T.);
#700=ORIENTED_EDGE('',*,*,#529,.F.);
#701=ORIENTED_EDGE('',*,*,#530,.F.);
#702=ORIENTED_EDGE('',*,*,#531,.F.);
#703=ORIENTED_EDGE('',*,*,#532,.F.);
#704=ORIENTED_EDGE('',*,*,#485,.F.);
#705=ORIENTED_EDGE('',*,*,#513,.T.);
#706=ORIENTED_EDGE('',*,*,#533,.F.);
#707=ORIENTED_EDGE('',*,*,#519,.T.);
#708=ORIENTED_EDGE('',*,*,#486,.F.);
#709=ORIENTED_EDGE('',*,*,#532,.T.);
#710=ORIENTED_EDGE('',*,*,#534,.F.);
#711=ORIENTED_EDGE('',*,*,#525,.T.);
#712=ORIENTED_EDGE('',*,*,#493,.F.);
#713=ORIENTED_EDGE('',*,*,#494,.F.);
#714=ORIENTED_EDGE('',*,*,#497,.F.);
#715=ORIENTED_EDGE('',*,*,#489,.T.);
#716=ORIENTED_EDGE('',*,*,#473,.T.);
#717=ORIENTED_EDGE('',*,*,#465,.T.);
#718=ORIENTED_EDGE('',*,*,#464,.T.);
#719=ORIENTED_EDGE('',*,*,#471,.T.);
#720=ORIENTED_EDGE('',*,*,#478,.T.);
#721=ORIENTED_EDGE('',*,*,#500,.T.);
#722=ORIENTED_EDGE('',*,*,#506,.F.);
#723=ORIENTED_EDGE('',*,*,#509,.F.);
#724=ORIENTED_EDGE('',*,*,#503,.F.);
#725=ORIENTED_EDGE('',*,*,#527,.T.);
#726=ORIENTED_EDGE('',*,*,#517,.T.);
#727=ORIENTED_EDGE('',*,*,#526,.T.);
#728=ORIENTED_EDGE('',*,*,#534,.T.);
#729=ORIENTED_EDGE('',*,*,#531,.T.);
#730=ORIENTED_EDGE('',*,*,#535,.F.);
#731=ORIENTED_EDGE('',*,*,#536,.T.);
#732=ORIENTED_EDGE('',*,*,#537,.T.);
#733=ORIENTED_EDGE('',*,*,#538,.F.);
#734=ORIENTED_EDGE('',*,*,#539,.T.);
#735=ORIENTED_EDGE('',*,*,#540,.T.);
#736=ORIENTED_EDGE('',*,*,#541,.F.);
#737=ORIENTED_EDGE('',*,*,#542,.F.);
#738=ORIENTED_EDGE('',*,*,#543,.F.);
#739=ORIENTED_EDGE('',*,*,#544,.T.);
#740=ORIENTED_EDGE('',*,*,#545,.F.);
#741=ORIENTED_EDGE('',*,*,#546,.T.);
#742=ORIENTED_EDGE('',*,*,#547,.T.);
#743=ORIENTED_EDGE('',*,*,#548,.F.);
#744=ORIENTED_EDGE('',*,*,#520,.T.);
#745=ORIENTED_EDGE('',*,*,#533,.T.);
#746=ORIENTED_EDGE('',*,*,#512,.T.);
#747=ORIENTED_EDGE('',*,*,#515,.T.);
#748=ORIENTED_EDGE('',*,*,#524,.T.);
#749=ORIENTED_EDGE('',*,*,#549,.T.);
#750=ORIENTED_EDGE('',*,*,#550,.T.);
#751=ORIENTED_EDGE('',*,*,#551,.T.);
#752=ORIENTED_EDGE('',*,*,#552,.T.);
#753=ORIENTED_EDGE('',*,*,#553,.T.);
#754=ORIENTED_EDGE('',*,*,#554,.F.);
#755=ORIENTED_EDGE('',*,*,#528,.F.);
#756=ORIENTED_EDGE('',*,*,#549,.F.);
#757=ORIENTED_EDGE('',*,*,#523,.T.);
#758=ORIENTED_EDGE('',*,*,#529,.T.);
#759=ORIENTED_EDGE('',*,*,#554,.T.);
#760=ORIENTED_EDGE('',*,*,#522,.T.);
#761=ORIENTED_EDGE('',*,*,#555,.F.);
#762=ORIENTED_EDGE('',*,*,#556,.F.);
#763=ORIENTED_EDGE('',*,*,#557,.F.);
#764=ORIENTED_EDGE('',*,*,#558,.F.);
#765=ORIENTED_EDGE('',*,*,#559,.F.);
#766=ORIENTED_EDGE('',*,*,#560,.F.);
#767=ORIENTED_EDGE('',*,*,#561,.F.);
#768=ORIENTED_EDGE('',*,*,#562,.F.);
#769=ORIENTED_EDGE('',*,*,#563,.F.);
#770=ORIENTED_EDGE('',*,*,#564,.F.);
#771=ORIENTED_EDGE('',*,*,#565,.F.);
#772=ORIENTED_EDGE('',*,*,#566,.F.);
#773=ORIENTED_EDGE('',*,*,#521,.T.);
#774=ORIENTED_EDGE('',*,*,#548,.T.);
#775=ORIENTED_EDGE('',*,*,#567,.T.);
#776=ORIENTED_EDGE('',*,*,#555,.T.);
#777=ORIENTED_EDGE('',*,*,#560,.T.);
#778=ORIENTED_EDGE('',*,*,#568,.T.);
#779=ORIENTED_EDGE('',*,*,#543,.T.);
#780=ORIENTED_EDGE('',*,*,#569,.F.);
#781=ORIENTED_EDGE('',*,*,#557,.T.);
#782=ORIENTED_EDGE('',*,*,#570,.T.);
#783=ORIENTED_EDGE('',*,*,#545,.T.);
#784=ORIENTED_EDGE('',*,*,#571,.T.);
#785=ORIENTED_EDGE('',*,*,#530,.T.);
#786=ORIENTED_EDGE('',*,*,#566,.T.);
#787=ORIENTED_EDGE('',*,*,#572,.T.);
#788=ORIENTED_EDGE('',*,*,#535,.T.);
#789=ORIENTED_EDGE('',*,*,#573,.T.);
#790=ORIENTED_EDGE('',*,*,#574,.T.);
#791=ORIENTED_EDGE('',*,*,#575,.T.);
#792=ORIENTED_EDGE('',*,*,#576,.T.);
#793=ORIENTED_EDGE('',*,*,#577,.T.);
#794=ORIENTED_EDGE('',*,*,#578,.F.);
#795=ORIENTED_EDGE('',*,*,#579,.T.);
#796=ORIENTED_EDGE('',*,*,#580,.F.);
#797=ORIENTED_EDGE('',*,*,#561,.T.);
#798=ORIENTED_EDGE('',*,*,#569,.T.);
#799=ORIENTED_EDGE('',*,*,#542,.T.);
#800=ORIENTED_EDGE('',*,*,#581,.F.);
#801=ORIENTED_EDGE('',*,*,#562,.T.);
#802=ORIENTED_EDGE('',*,*,#581,.T.);
#803=ORIENTED_EDGE('',*,*,#541,.T.);
#804=ORIENTED_EDGE('',*,*,#582,.T.);
#805=ORIENTED_EDGE('',*,*,#552,.F.);
#806=ORIENTED_EDGE('',*,*,#583,.T.);
#807=ORIENTED_EDGE('',*,*,#580,.T.);
#808=ORIENTED_EDGE('',*,*,#583,.F.);
#809=ORIENTED_EDGE('',*,*,#559,.T.);
#810=ORIENTED_EDGE('',*,*,#584,.T.);
#811=ORIENTED_EDGE('',*,*,#579,.F.);
#812=ORIENTED_EDGE('',*,*,#584,.F.);
#813=ORIENTED_EDGE('',*,*,#558,.T.);
#814=ORIENTED_EDGE('',*,*,#571,.F.);
#815=ORIENTED_EDGE('',*,*,#544,.F.);
#816=ORIENTED_EDGE('',*,*,#568,.F.);
#817=ORIENTED_EDGE('',*,*,#553,.F.);
#818=ORIENTED_EDGE('',*,*,#585,.T.);
#819=ORIENTED_EDGE('',*,*,#578,.T.);
#820=ORIENTED_EDGE('',*,*,#585,.F.);
#821=ORIENTED_EDGE('',*,*,#582,.F.);
#822=ORIENTED_EDGE('',*,*,#540,.F.);
#823=ORIENTED_EDGE('',*,*,#586,.T.);
#824=ORIENTED_EDGE('',*,*,#577,.F.);
#825=ORIENTED_EDGE('',*,*,#586,.F.);
#826=ORIENTED_EDGE('',*,*,#539,.F.);
#827=ORIENTED_EDGE('',*,*,#587,.F.);
#828=ORIENTED_EDGE('',*,*,#563,.T.);
#829=ORIENTED_EDGE('',*,*,#550,.F.);
#830=ORIENTED_EDGE('',*,*,#588,.T.);
#831=ORIENTED_EDGE('',*,*,#574,.F.);
#832=ORIENTED_EDGE('',*,*,#588,.F.);
#833=ORIENTED_EDGE('',*,*,#556,.T.);
#834=ORIENTED_EDGE('',*,*,#567,.F.);
#835=ORIENTED_EDGE('',*,*,#547,.F.);
#836=ORIENTED_EDGE('',*,*,#589,.T.);
#837=ORIENTED_EDGE('',*,*,#573,.F.);
#838=ORIENTED_EDGE('',*,*,#589,.F.);
#839=ORIENTED_EDGE('',*,*,#546,.F.);
#840=ORIENTED_EDGE('',*,*,#570,.F.);
#841=ORIENTED_EDGE('',*,*,#551,.F.);
#842=ORIENTED_EDGE('',*,*,#590,.T.);
#843=ORIENTED_EDGE('',*,*,#576,.F.);
#844=ORIENTED_EDGE('',*,*,#590,.F.);
#845=ORIENTED_EDGE('',*,*,#591,.F.);
#846=ORIENTED_EDGE('',*,*,#537,.F.);
#847=ORIENTED_EDGE('',*,*,#592,.T.);
#848=ORIENTED_EDGE('',*,*,#575,.F.);
#849=ORIENTED_EDGE('',*,*,#592,.F.);
#850=ORIENTED_EDGE('',*,*,#536,.F.);
#851=ORIENTED_EDGE('',*,*,#572,.F.);
#852=ORIENTED_EDGE('',*,*,#565,.T.);
#853=ORIENTED_EDGE('',*,*,#564,.T.);
#854=ORIENTED_EDGE('',*,*,#587,.T.);
#855=ORIENTED_EDGE('',*,*,#538,.T.);
#856=ORIENTED_EDGE('',*,*,#591,.T.);
#857=PLANE('',#949);
#858=PLANE('',#950);
#859=PLANE('',#952);
#860=PLANE('',#954);
#861=PLANE('',#955);
#862=PLANE('',#960);
#863=PLANE('',#961);
#864=PLANE('',#962);
#865=PLANE('',#963);
#866=PLANE('',#964);
#867=PLANE('',#965);
#868=PLANE('',#966);
#869=PLANE('',#967);
#870=PLANE('',#968);
#871=PLANE('',#969);
#872=PLANE('',#970);
#873=PLANE('',#971);
#874=PLANE('',#972);
#875=PLANE('',#973);
#876=PLANE('',#974);
#877=PLANE('',#975);
#878=PLANE('',#987);
#879=PLANE('',#988);
#880=PLANE('',#994);
#881=PLANE('',#995);
#882=PLANE('',#996);
#883=PLANE('',#997);
#884=PLANE('',#998);
#885=PLANE('',#1001);
#886=PLANE('',#1004);
#887=PLANE('',#1007);
#888=PLANE('',#1010);
#889=PLANE('',#1011);
#890=PLANE('',#1020);
#891=ADVANCED_FACE('',(#65),#857,.T.);
#892=ADVANCED_FACE('',(#66,#25),#858,.F.);
#893=ADVANCED_FACE('',(#67,#26),#859,.F.);
#894=ADVANCED_FACE('',(#68),#860,.T.);
#895=ADVANCED_FACE('',(#69),#861,.T.);
#896=ADVANCED_FACE('',(#70),#15,.F.);
#897=ADVANCED_FACE('',(#71),#16,.F.);
#898=ADVANCED_FACE('',(#72),#862,.T.);
#899=ADVANCED_FACE('',(#73,#27),#863,.F.);
#900=ADVANCED_FACE('',(#74),#864,.T.);
#901=ADVANCED_FACE('',(#75),#865,.T.);
#902=ADVANCED_FACE('',(#76),#866,.T.);
#903=ADVANCED_FACE('',(#77,#28),#867,.T.);
#904=ADVANCED_FACE('',(#78),#868,.T.);
#905=ADVANCED_FACE('',(#79),#869,.T.);
#906=ADVANCED_FACE('',(#80),#870,.T.);
#907=ADVANCED_FACE('',(#81),#871,.T.);
#908=ADVANCED_FACE('',(#82),#872,.T.);
#909=ADVANCED_FACE('',(#83),#873,.F.);
#910=ADVANCED_FACE('',(#84),#874,.F.);
#911=ADVANCED_FACE('',(#85),#875,.F.);
#912=ADVANCED_FACE('',(#86),#876,.T.);
#913=ADVANCED_FACE('',(#87,#29,#30,#31,#32),#877,.F.);
#914=ADVANCED_FACE('',(#88),#878,.F.);
#915=ADVANCED_FACE('',(#89),#879,.T.);
#916=ADVANCED_FACE('',(#90),#880,.T.);
#917=ADVANCED_FACE('',(#91),#881,.T.);
#918=ADVANCED_FACE('',(#92),#882,.T.);
#919=ADVANCED_FACE('',(#93),#883,.T.);
#920=ADVANCED_FACE('',(#94,#33),#884,.T.);
#921=ADVANCED_FACE('',(#95,#34),#885,.T.);
#922=ADVANCED_FACE('',(#96,#35),#886,.T.);
#923=ADVANCED_FACE('',(#97,#36),#887,.T.);
#924=ADVANCED_FACE('',(#98),#888,.T.);
#925=ADVANCED_FACE('',(#99),#889,.T.);
#926=ADVANCED_FACE('',(#100),#17,.F.);
#927=ADVANCED_FACE('',(#101),#18,.T.);
#928=ADVANCED_FACE('',(#102),#19,.F.);
#929=ADVANCED_FACE('',(#103),#20,.T.);
#930=ADVANCED_FACE('',(#104),#21,.F.);
#931=ADVANCED_FACE('',(#105),#22,.T.);
#932=ADVANCED_FACE('',(#106),#23,.F.);
#933=ADVANCED_FACE('',(#107),#24,.T.);
#934=ADVANCED_FACE('',(#108),#890,.T.);
#935=CLOSED_SHELL('',(#891,#892,#893,#894,#895,#896,#897,#898,#899,#900,
#901,#902,#903,#904,#905,#906,#907,#908,#909,#910,#911,#912,#913,#914,#915,
#916,#917,#918,#919,#920,#921,#922,#923,#924,#925,#926,#927,#928,#929,#930,
#931,#932,#933,#934));
#936=DERIVED_UNIT_ELEMENT(#938,1.);
#937=DERIVED_UNIT_ELEMENT(#1541,-3.);
#938=(
MASS_UNIT()
NAMED_UNIT(*)
SI_UNIT(.KILO.,.GRAM.)
);
#939=DERIVED_UNIT((#936,#937));
#940=MEASURE_REPRESENTATION_ITEM('density measure',
POSITIVE_RATIO_MEASURE(7850.),#939);
#941=PROPERTY_DEFINITION_REPRESENTATION(#946,#943);
#942=PROPERTY_DEFINITION_REPRESENTATION(#947,#944);
#943=REPRESENTATION('material name',(#945),#1538);
#944=REPRESENTATION('density',(#940),#1538);
#945=DESCRIPTIVE_REPRESENTATION_ITEM('\X2\94A2\X0\','\X2\94A2\X0\');
#946=PROPERTY_DEFINITION('material property','material name',#1548);
#947=PROPERTY_DEFINITION('material property','density of part',#1548);
#948=AXIS2_PLACEMENT_3D('',#1271,#1021,#1022);
#949=AXIS2_PLACEMENT_3D('',#1272,#1023,#1024);
#950=AXIS2_PLACEMENT_3D('',#1281,#1029,#1030);
#951=AXIS2_PLACEMENT_3D('',#1288,#1034,#1035);
#952=AXIS2_PLACEMENT_3D('',#1289,#1036,#1037);
#953=AXIS2_PLACEMENT_3D('',#1296,#1041,#1042);
#954=AXIS2_PLACEMENT_3D('',#1297,#1043,#1044);
#955=AXIS2_PLACEMENT_3D('',#1303,#1048,#1049);
#956=AXIS2_PLACEMENT_3D('',#1309,#1053,#1054);
#957=AXIS2_PLACEMENT_3D('',#1311,#1055,#1056);
#958=AXIS2_PLACEMENT_3D('',#1313,#1058,#1059);
#959=AXIS2_PLACEMENT_3D('',#1316,#1061,#1062);
#960=AXIS2_PLACEMENT_3D('',#1317,#1063,#1064);
#961=AXIS2_PLACEMENT_3D('',#1326,#1069,#1070);
#962=AXIS2_PLACEMENT_3D('',#1332,#1074,#1075);
#963=AXIS2_PLACEMENT_3D('',#1341,#1080,#1081);
#964=AXIS2_PLACEMENT_3D('',#1347,#1085,#1086);
#965=AXIS2_PLACEMENT_3D('',#1350,#1089,#1090);
#966=AXIS2_PLACEMENT_3D('',#1356,#1094,#1095);
#967=AXIS2_PLACEMENT_3D('',#1365,#1100,#1101);
#968=AXIS2_PLACEMENT_3D('',#1371,#1105,#1106);
#969=AXIS2_PLACEMENT_3D('',#1374,#1109,#1110);
#970=AXIS2_PLACEMENT_3D('',#1380,#1114,#1115);
#971=AXIS2_PLACEMENT_3D('',#1389,#1121,#1122);
#972=AXIS2_PLACEMENT_3D('',#1401,#1129,#1130);
#973=AXIS2_PLACEMENT_3D('',#1405,#1133,#1134);
#974=AXIS2_PLACEMENT_3D('',#1417,#1141,#1142);
#975=AXIS2_PLACEMENT_3D('',#1420,#1145,#1146);
#976=AXIS2_PLACEMENT_3D('',#1424,#1148,#1149);
#977=AXIS2_PLACEMENT_3D('',#1426,#1150,#1151);
#978=AXIS2_PLACEMENT_3D('',#1430,#1153,#1154);
#979=AXIS2_PLACEMENT_3D('',#1432,#1155,#1156);
#980=AXIS2_PLACEMENT_3D('',#1440,#1160,#1161);
#981=AXIS2_PLACEMENT_3D('',#1444,#1163,#1164);
#982=AXIS2_PLACEMENT_3D('',#1446,#1165,#1166);
#983=AXIS2_PLACEMENT_3D('',#1450,#1169,#1170);
#984=AXIS2_PLACEMENT_3D('',#1452,#1171,#1172);
#985=AXIS2_PLACEMENT_3D('',#1454,#1173,#1174);
#986=AXIS2_PLACEMENT_3D('',#1456,#1175,#1176);
#987=AXIS2_PLACEMENT_3D('',#1457,#1177,#1178);
#988=AXIS2_PLACEMENT_3D('',#1459,#1180,#1181);
#989=AXIS2_PLACEMENT_3D('',#1463,#1183,#1184);
#990=AXIS2_PLACEMENT_3D('',#1467,#1186,#1187);
#991=AXIS2_PLACEMENT_3D('',#1469,#1188,#1189);
#992=AXIS2_PLACEMENT_3D('',#1477,#1193,#1194);
#993=AXIS2_PLACEMENT_3D('',#1481,#1196,#1197);
#994=AXIS2_PLACEMENT_3D('',#1483,#1199,#1200);
#995=AXIS2_PLACEMENT_3D('',#1485,#1202,#1203);
#996=AXIS2_PLACEMENT_3D('',#1488,#1206,#1207);
#997=AXIS2_PLACEMENT_3D('',#1491,#1210,#1211);
#998=AXIS2_PLACEMENT_3D('',#1493,#1213,#1214);
#999=AXIS2_PLACEMENT_3D('',#1495,#1215,#1216);
#1000=AXIS2_PLACEMENT_3D('',#1497,#1217,#1218);
#1001=AXIS2_PLACEMENT_3D('',#1498,#1219,#1220);
#1002=AXIS2_PLACEMENT_3D('',#1500,#1221,#1222);
#1003=AXIS2_PLACEMENT_3D('',#1502,#1223,#1224);
#1004=AXIS2_PLACEMENT_3D('',#1503,#1225,#1226);
#1005=AXIS2_PLACEMENT_3D('',#1505,#1227,#1228);
#1006=AXIS2_PLACEMENT_3D('',#1507,#1229,#1230);
#1007=AXIS2_PLACEMENT_3D('',#1508,#1231,#1232);
#1008=AXIS2_PLACEMENT_3D('',#1510,#1233,#1234);
#1009=AXIS2_PLACEMENT_3D('',#1512,#1235,#1236);
#1010=AXIS2_PLACEMENT_3D('',#1513,#1237,#1238);
#1011=AXIS2_PLACEMENT_3D('',#1515,#1240,#1241);
#1012=AXIS2_PLACEMENT_3D('',#1517,#1243,#1244);
#1013=AXIS2_PLACEMENT_3D('',#1519,#1246,#1247);
#1014=AXIS2_PLACEMENT_3D('',#1521,#1249,#1250);
#1015=AXIS2_PLACEMENT_3D('',#1523,#1252,#1253);
#1016=AXIS2_PLACEMENT_3D('',#1526,#1256,#1257);
#1017=AXIS2_PLACEMENT_3D('',#1528,#1259,#1260);
#1018=AXIS2_PLACEMENT_3D('',#1530,#1262,#1263);
#1019=AXIS2_PLACEMENT_3D('',#1532,#1265,#1266);
#1020=AXIS2_PLACEMENT_3D('',#1535,#1269,#1270);
#1021=DIRECTION('axis',(0.,0.,1.));
#1022=DIRECTION('refdir',(1.,0.,0.));
#1023=DIRECTION('center_axis',(1.,0.,0.));
#1024=DIRECTION('ref_axis',(0.,0.,1.));
#1025=DIRECTION('',(0.,0.,-1.));
#1026=DIRECTION('',(0.,-1.,0.));
#1027=DIRECTION('',(0.,0.,1.));
#1028=DIRECTION('',(0.,-1.,0.));
#1029=DIRECTION('center_axis',(0.,1.,0.));
#1030=DIRECTION('ref_axis',(1.,0.,0.));
#1031=DIRECTION('',(-1.,0.,0.));
#1032=DIRECTION('',(0.,0.,-1.));
#1033=DIRECTION('',(1.,0.,0.));
#1034=DIRECTION('center_axis',(0.,-1.,0.));
#1035=DIRECTION('ref_axis',(-1.,0.,0.));
#1036=DIRECTION('center_axis',(0.,-1.,0.));
#1037=DIRECTION('ref_axis',(0.,0.,1.));
#1038=DIRECTION('',(-1.,0.,0.));
#1039=DIRECTION('',(0.,-2.05596856412066E-16,1.));
#1040=DIRECTION('',(1.,0.,0.));
#1041=DIRECTION('center_axis',(0.,1.,0.));
#1042=DIRECTION('ref_axis',(-1.,0.,0.));
#1043=DIRECTION('center_axis',(1.,0.,0.));
#1044=DIRECTION('ref_axis',(0.,0.,1.));
#1045=DIRECTION('',(0.,-1.,0.));
#1046=DIRECTION('',(0.,0.,1.));
#1047=DIRECTION('',(0.,-1.,0.));
#1048=DIRECTION('center_axis',(1.,0.,0.));
#1049=DIRECTION('ref_axis',(0.,0.,1.));
#1050=DIRECTION('',(0.,-1.,0.));
#1051=DIRECTION('',(0.,0.,-1.));
#1052=DIRECTION('',(0.,-1.,0.));
#1053=DIRECTION('center_axis',(0.,-1.,0.));
#1054=DIRECTION('ref_axis',(-1.,0.,0.));
#1055=DIRECTION('center_axis',(0.,-1.,0.));
#1056=DIRECTION('ref_axis',(-1.,0.,0.));
#1057=DIRECTION('',(0.,1.,0.));
#1058=DIRECTION('center_axis',(0.,-1.,0.));
#1059=DIRECTION('ref_axis',(-1.,0.,0.));
#1060=DIRECTION('',(0.,1.,0.));
#1061=DIRECTION('center_axis',(0.,1.,0.));
#1062=DIRECTION('ref_axis',(-1.,0.,0.));
#1063=DIRECTION('center_axis',(-1.,0.,0.));
#1064=DIRECTION('ref_axis',(0.,0.,-1.));
#1065=DIRECTION('',(0.,0.,1.));
#1066=DIRECTION('',(0.,1.,0.));
#1067=DIRECTION('',(0.,0.,-1.));
#1068=DIRECTION('',(0.,-1.,0.));
#1069=DIRECTION('center_axis',(0.,-1.,0.));
#1070=DIRECTION('ref_axis',(-1.,0.,0.));
#1071=DIRECTION('',(0.,0.,1.));
#1072=DIRECTION('',(-1.,0.,0.));
#1073=DIRECTION('',(1.,0.,0.));
#1074=DIRECTION('center_axis',(-1.,0.,0.));
#1075=DIRECTION('ref_axis',(0.,1.,0.));
#1076=DIRECTION('',(0.,0.,-1.));
#1077=DIRECTION('',(0.,1.,0.));
#1078=DIRECTION('',(0.,0.,-1.));
#1079=DIRECTION('',(0.,-1.,0.));
#1080=DIRECTION('center_axis',(0.,1.,0.));
#1081=DIRECTION('ref_axis',(1.,0.,0.));
#1082=DIRECTION('',(-1.,0.,-2.48102096246229E-16));
#1083=DIRECTION('',(-1.,0.,0.));
#1084=DIRECTION('',(0.,0.,-1.));
#1085=DIRECTION('center_axis',(1.,0.,0.));
#1086=DIRECTION('ref_axis',(0.,-1.,0.));
#1087=DIRECTION('',(0.,1.,0.));
#1088=DIRECTION('',(0.,-1.,0.));
#1089=DIRECTION('center_axis',(0.,-1.,0.));
#1090=DIRECTION('ref_axis',(-1.,0.,0.));
#1091=DIRECTION('',(0.,0.,-1.));
#1092=DIRECTION('',(-1.,0.,-2.48102096246229E-16));
#1093=DIRECTION('',(-1.,0.,0.));
#1094=DIRECTION('center_axis',(-1.,0.,0.));
#1095=DIRECTION('ref_axis',(0.,1.,0.));
#1096=DIRECTION('',(0.,0.,1.));
#1097=DIRECTION('',(0.,-1.,0.));
#1098=DIRECTION('',(0.,0.,-1.));
#1099=DIRECTION('',(0.,1.,0.));
#1100=DIRECTION('center_axis',(1.,0.,0.));
#1101=DIRECTION('ref_axis',(0.,-1.,0.));
#1102=DIRECTION('',(0.,1.,0.));
#1103=DIRECTION('',(0.,1.,0.));
#1104=DIRECTION('',(0.,0.,-1.));
#1105=DIRECTION('center_axis',(0.,-1.,0.));
#1106=DIRECTION('ref_axis',(-1.,0.,0.));
#1107=DIRECTION('',(1.,0.,2.48102096246229E-16));
#1108=DIRECTION('',(-1.,0.,0.));
#1109=DIRECTION('center_axis',(0.,-1.,0.));
#1110=DIRECTION('ref_axis',(-1.,0.,0.));
#1111=DIRECTION('',(-1.,0.,0.));
#1112=DIRECTION('',(0.,0.,1.));
#1113=DIRECTION('',(-1.,0.,-2.48102096246229E-16));
#1114=DIRECTION('center_axis',(0.,0.,1.));
#1115=DIRECTION('ref_axis',(-1.,0.,0.));
#1116=DIRECTION('',(-1.,0.,0.));
#1117=DIRECTION('',(0.,1.,0.));
#1118=DIRECTION('',(-1.,0.,0.));
#1119=DIRECTION('',(0.,1.,0.));
#1120=DIRECTION('',(1.,0.,0.));
#1121=DIRECTION('center_axis',(0.,-1.,0.));
#1122=DIRECTION('ref_axis',(0.,0.,1.));
#1123=DIRECTION('',(1.,0.,0.));
#1124=DIRECTION('',(0.,0.,1.));
#1125=DIRECTION('',(1.,0.,0.));
#1126=DIRECTION('',(0.,0.,-1.));
#1127=DIRECTION('',(-1.,0.,0.));
#1128=DIRECTION('',(0.,0.,-1.));
#1129=DIRECTION('center_axis',(0.,-1.,0.));
#1130=DIRECTION('ref_axis',(-1.,0.,0.));
#1131=DIRECTION('',(1.,0.,0.));
#1132=DIRECTION('',(0.,0.,-1.));
#1133=DIRECTION('center_axis',(0.,1.,0.));
#1134=DIRECTION('ref_axis',(1.,0.,0.));
#1135=DIRECTION('',(0.,0.,1.));
#1136=DIRECTION('',(-1.,0.,0.));
#1137=DIRECTION('',(0.,0.,1.));
#1138=DIRECTION('',(-1.,0.,0.));
#1139=DIRECTION('',(0.,0.,-1.));
#1140=DIRECTION('',(-1.,0.,0.));
#1141=DIRECTION('center_axis',(2.48102096246229E-16,0.,-1.));
#1142=DIRECTION('ref_axis',(1.,0.,2.48102096246229E-16));
#1143=DIRECTION('',(0.,-1.,0.));
#1144=DIRECTION('',(0.,-1.,0.));
#1145=DIRECTION('center_axis',(-1.,0.,0.));
#1146=DIRECTION('ref_axis',(0.,-1.,0.));
#1147=DIRECTION('',(0.,-1.,0.));
#1148=DIRECTION('center_axis',(1.,0.,0.));
#1149=DIRECTION('ref_axis',(0.,-1.,0.));
#1150=DIRECTION('center_axis',(1.,0.,0.));
#1151=DIRECTION('ref_axis',(0.,-1.,0.));
#1152=DIRECTION('',(0.,0.,-1.));
#1153=DIRECTION('center_axis',(1.,0.,0.));
#1154=DIRECTION('ref_axis',(0.,-1.,0.));
#1155=DIRECTION('center_axis',(1.,0.,0.));
#1156=DIRECTION('ref_axis',(0.,-1.,0.));
#1157=DIRECTION('',(0.,0.,-1.));
#1158=DIRECTION('',(0.,1.,0.));
#1159=DIRECTION('',(0.,0.,1.));
#1160=DIRECTION('center_axis',(1.,0.,0.));
#1161=DIRECTION('ref_axis',(0.,-1.,0.));
#1162=DIRECTION('',(0.,0.,1.));
#1163=DIRECTION('center_axis',(1.,0.,0.));
#1164=DIRECTION('ref_axis',(0.,-1.,0.));
#1165=DIRECTION('center_axis',(1.,0.,0.));
#1166=DIRECTION('ref_axis',(0.,-1.,0.));
#1167=DIRECTION('',(0.,-1.,0.));
#1168=DIRECTION('',(0.,1.,0.));
#1169=DIRECTION('center_axis',(-1.,0.,0.));
#1170=DIRECTION('ref_axis',(0.,-1.,0.));
#1171=DIRECTION('center_axis',(-1.,0.,0.));
#1172=DIRECTION('ref_axis',(0.,-1.,0.));
#1173=DIRECTION('center_axis',(-1.,0.,0.));
#1174=DIRECTION('ref_axis',(0.,-1.,0.));
#1175=DIRECTION('center_axis',(-1.,0.,0.));
#1176=DIRECTION('ref_axis',(0.,-1.,0.));
#1177=DIRECTION('center_axis',(0.,0.,1.));
#1178=DIRECTION('ref_axis',(0.,1.,0.));
#1179=DIRECTION('',(0.,-1.,0.));
#1180=DIRECTION('center_axis',(-1.,0.,0.));
#1181=DIRECTION('ref_axis',(0.,-1.,0.));
#1182=DIRECTION('',(0.,1.,0.));
#1183=DIRECTION('center_axis',(-1.,0.,0.));
#1184=DIRECTION('ref_axis',(0.,-1.,0.));
#1185=DIRECTION('',(0.,0.,-1.));
#1186=DIRECTION('center_axis',(-1.,0.,0.));
#1187=DIRECTION('ref_axis',(0.,-1.,0.));
#1188=DIRECTION('center_axis',(-1.,0.,0.));
#1189=DIRECTION('ref_axis',(0.,-1.,0.));
#1190=DIRECTION('',(0.,0.,-1.));
#1191=DIRECTION('',(0.,-1.,0.));
#1192=DIRECTION('',(0.,0.,1.));
#1193=DIRECTION('center_axis',(-1.,0.,0.));
#1194=DIRECTION('ref_axis',(0.,-1.,0.));
#1195=DIRECTION('',(0.,0.,1.));
#1196=DIRECTION('center_axis',(-1.,0.,0.));
#1197=DIRECTION('ref_axis',(0.,-1.,0.));
#1198=DIRECTION('',(0.,1.,0.));
#1199=DIRECTION('center_axis',(0.,0.,-1.));
#1200=DIRECTION('ref_axis',(-1.,0.,0.));
#1201=DIRECTION('',(-1.,0.,0.));
#1202=DIRECTION('center_axis',(-4.45025226375383E-15,-1.,0.));
#1203=DIRECTION('ref_axis',(1.,-4.45025226375383E-15,0.));
#1204=DIRECTION('',(1.,0.,0.));
#1205=DIRECTION('',(1.,0.,0.));
#1206=DIRECTION('center_axis',(-4.45025226375383E-15,-1.,0.));
#1207=DIRECTION('ref_axis',(1.,-4.45025226375383E-15,0.));
#1208=DIRECTION('',(1.,0.,0.));
#1209=DIRECTION('',(-1.,0.,0.));
#1210=DIRECTION('center_axis',(0.,0.,-1.));
#1211=DIRECTION('ref_axis',(-1.,0.,0.));
#1212=DIRECTION('',(1.,0.,0.));
#1213=DIRECTION('center_axis',(-1.,0.,0.));
#1214=DIRECTION('ref_axis',(0.,0.,1.));
#1215=DIRECTION('center_axis',(-1.,0.,0.));
#1216=DIRECTION('ref_axis',(0.,-1.,0.));
#1217=DIRECTION('center_axis',(1.,0.,0.));
#1218=DIRECTION('ref_axis',(0.,-1.,0.));
#1219=DIRECTION('center_axis',(-1.,0.,0.));
#1220=DIRECTION('ref_axis',(0.,0.,1.));
#1221=DIRECTION('center_axis',(-1.,0.,0.));
#1222=DIRECTION('ref_axis',(0.,-1.,0.));
#1223=DIRECTION('center_axis',(1.,0.,0.));
#1224=DIRECTION('ref_axis',(0.,-1.,0.));
#1225=DIRECTION('center_axis',(-1.,0.,0.));
#1226=DIRECTION('ref_axis',(0.,0.,1.));
#1227=DIRECTION('center_axis',(-1.,0.,0.));
#1228=DIRECTION('ref_axis',(0.,-1.,0.));
#1229=DIRECTION('center_axis',(-1.,0.,0.));
#1230=DIRECTION('ref_axis',(0.,-1.,0.));
#1231=DIRECTION('center_axis',(-1.,0.,0.));
#1232=DIRECTION('ref_axis',(0.,0.,1.));
#1233=DIRECTION('center_axis',(-1.,0.,0.));
#1234=DIRECTION('ref_axis',(0.,-1.,0.));
#1235=DIRECTION('center_axis',(-1.,0.,0.));
#1236=DIRECTION('ref_axis',(0.,-1.,0.));
#1237=DIRECTION('center_axis',(0.,0.,1.));
#1238=DIRECTION('ref_axis',(1.,0.,0.));
#1239=DIRECTION('',(1.,0.,0.));
#1240=DIRECTION('center_axis',(5.9305496299207E-15,1.,0.));
#1241=DIRECTION('ref_axis',(-1.,5.9305496299207E-15,0.));
#1242=DIRECTION('',(-1.,0.,0.));
#1243=DIRECTION('center_axis',(1.,0.,0.));
#1244=DIRECTION('ref_axis',(0.,-1.,0.));
#1245=DIRECTION('',(-1.,0.,0.));
#1246=DIRECTION('center_axis',(1.,0.,0.));
#1247=DIRECTION('ref_axis',(0.,-1.,0.));
#1248=DIRECTION('',(-1.,0.,0.));
#1249=DIRECTION('center_axis',(1.,0.,0.));
#1250=DIRECTION('ref_axis',(0.,-1.,0.));
#1251=DIRECTION('',(-1.,0.,0.));
#1252=DIRECTION('center_axis',(1.,0.,0.));
#1253=DIRECTION('ref_axis',(0.,-1.,0.));
#1254=DIRECTION('',(-1.,0.,0.));
#1255=DIRECTION('',(1.,0.,0.));
#1256=DIRECTION('center_axis',(1.,0.,0.));
#1257=DIRECTION('ref_axis',(0.,-1.,0.));
#1258=DIRECTION('',(-1.,0.,0.));
#1259=DIRECTION('center_axis',(1.,0.,0.));
#1260=DIRECTION('ref_axis',(0.,-1.,0.));
#1261=DIRECTION('',(-1.,0.,0.));
#1262=DIRECTION('center_axis',(1.,0.,0.));
#1263=DIRECTION('ref_axis',(0.,-1.,0.));
#1264=DIRECTION('',(-1.,0.,0.));
#1265=DIRECTION('center_axis',(1.,0.,0.));
#1266=DIRECTION('ref_axis',(0.,-1.,0.));
#1267=DIRECTION('',(-1.,0.,0.));
#1268=DIRECTION('',(-1.,0.,0.));
#1269=DIRECTION('center_axis',(5.9305496299207E-15,1.,0.));
#1270=DIRECTION('ref_axis',(-1.,5.9305496299207E-15,0.));
#1271=CARTESIAN_POINT('',(0.,0.,0.));
#1272=CARTESIAN_POINT('Origin',(-121.010295389397,10.3368424270267,16.4979929072316));
#1273=CARTESIAN_POINT('',(-121.010295389397,10.3368424270267,24.4979929072316));
#1274=CARTESIAN_POINT('',(-121.010295389397,10.3368424270267,16.4979929072316));
#1275=CARTESIAN_POINT('',(-121.010295389397,10.3368424270267,20.4979929072316));
#1276=CARTESIAN_POINT('',(-121.010295389397,-5.66315757297329,24.4979929072316));
#1277=CARTESIAN_POINT('',(-121.010295389397,10.3368424270267,24.4979929072316));
#1278=CARTESIAN_POINT('',(-121.010295389397,-5.66315757297329,16.4979929072316));
#1279=CARTESIAN_POINT('',(-121.010295389397,-5.6631576921738,14.5479929072316));
#1280=CARTESIAN_POINT('',(-121.010295389397,10.3368424270267,16.4979929072316));
#1281=CARTESIAN_POINT('Origin',(-120.010022468875,10.3368424270267,24.4979929072316));
#1282=CARTESIAN_POINT('',(-116.260295389397,10.3368425462262,16.4979929072316));
#1283=CARTESIAN_POINT('',(-130.010022468875,10.3368424270267,16.4979929072316));
#1284=CARTESIAN_POINT('',(-116.260295389397,10.3368424270267,24.4979929072316));
#1285=CARTESIAN_POINT('',(-116.260295389397,10.3368424270267,17.2479929072316));
#1286=CARTESIAN_POINT('',(-130.010022468875,10.3368424270267,24.4979929072316));
#1287=CARTESIAN_POINT('',(-117.010295389397,10.3368424270267,20.4979929072316));
#1288=CARTESIAN_POINT('Origin',(-118.510295389397,10.3368424270267,20.4979929072316));
#1289=CARTESIAN_POINT('Origin',(-130.010022468875,-5.6631576921738,12.5979929072316));
#1290=CARTESIAN_POINT('',(-116.260295389397,-5.66315757297329,24.4979929072316));
#1291=CARTESIAN_POINT('',(-124.010022468875,-5.6631576921738,24.4979929072316));
#1292=CARTESIAN_POINT('',(-116.260295389397,-5.6631576921738,16.4979929072316));
#1293=CARTESIAN_POINT('',(-116.260295389397,-5.6631576921738,17.2479929072316));
#1294=CARTESIAN_POINT('',(-139.010022468875,-5.66315757297329,16.4979929072316));
#1295=CARTESIAN_POINT('',(-117.010295389397,-5.6631576921738,20.4979929072316));
#1296=CARTESIAN_POINT('Origin',(-118.510295389397,-5.6631576921738,20.4979929072316));
#1297=CARTESIAN_POINT('Origin',(-116.260295389397,19.0508639679414,16.4979929072316));
#1298=CARTESIAN_POINT('',(-116.260295389397,14.0868424270267,16.4979929072316));
#1299=CARTESIAN_POINT('',(-116.260295389397,19.0508639679414,16.4979929072316));
#1300=CARTESIAN_POINT('',(-116.260295389397,14.0868424270267,24.4979929072316));
#1301=CARTESIAN_POINT('',(-116.260295389397,14.0868424270267,20.4979929072316));
#1302=CARTESIAN_POINT('',(-116.260295389397,19.0508639679414,24.4979929072316));
#1303=CARTESIAN_POINT('Origin',(-116.260295389397,19.0508639679414,16.4979929072316));
#1304=CARTESIAN_POINT('',(-116.260295389397,-9.4131575729733,24.4979929072316));
#1305=CARTESIAN_POINT('',(-116.260295389397,19.0508639679414,24.4979929072316));
#1306=CARTESIAN_POINT('',(-116.260295389397,-9.4131575729733,16.4979929072316));
#1307=CARTESIAN_POINT('',(-116.260295389397,-9.4131575729733,20.4979929072316));
#1308=CARTESIAN_POINT('',(-116.260295389397,19.0508639679414,16.4979929072316));
#1309=CARTESIAN_POINT('Origin',(-118.510295389397,19.0508639679414,20.4979929072316));
#1310=CARTESIAN_POINT('',(-117.010295389397,-9.4131575729733,20.4979929072316));
#1311=CARTESIAN_POINT('Origin',(-118.510295389397,-9.4131575729733,20.4979929072316));
#1312=CARTESIAN_POINT('',(-117.010295389397,19.0508639679414,20.4979929072316));
#1313=CARTESIAN_POINT('Origin',(-118.510295389397,19.0508639679414,20.4979929072316));
#1314=CARTESIAN_POINT('',(-117.010295389397,14.0868424270267,20.4979929072316));
#1315=CARTESIAN_POINT('',(-117.010295389397,19.0508639679414,20.4979929072316));
#1316=CARTESIAN_POINT('Origin',(-118.510295389397,14.0868424270267,20.4979929072316));
#1317=CARTESIAN_POINT('Origin',(-123.010295389397,10.3368424270267,24.4979929072316));
#1318=CARTESIAN_POINT('',(-123.010295389397,-5.66315757297329,16.4979929072316));
#1319=CARTESIAN_POINT('',(-123.010295389397,-5.66315757297329,24.4979929072316));
#1320=CARTESIAN_POINT('',(-123.010295389397,-5.66315757297329,24.4979929072316));
#1321=CARTESIAN_POINT('',(-123.010295389397,10.3368424270267,24.4979929072316));
#1322=CARTESIAN_POINT('',(-123.010295389397,-2.60065757297327,24.4979929072316));
#1323=CARTESIAN_POINT('',(-123.010295389397,10.3368424270267,16.4979929072316));
#1324=CARTESIAN_POINT('',(-123.010295389397,10.3368424270267,24.4979929072316));
#1325=CARTESIAN_POINT('',(-123.010295389397,10.6938531974841,16.4979929072316));
#1326=CARTESIAN_POINT('Origin',(-107.260295389397,14.0868424270267,24.4979929072316));
#1327=CARTESIAN_POINT('',(-123.010295389397,14.0868424270267,16.4979929072316));
#1328=CARTESIAN_POINT('',(-123.010295389397,14.0868424270267,24.4979929072316));
#1329=CARTESIAN_POINT('',(-123.010295389397,14.0868424270267,24.4979929072316));
#1330=CARTESIAN_POINT('',(-107.260295389397,14.0868424270267,24.4979929072316));
#1331=CARTESIAN_POINT('',(-132.010022468875,14.0868424270267,16.4979929072316));
#1332=CARTESIAN_POINT('Origin',(-125.010295389397,14.0868424270267,24.4979929072316));
#1333=CARTESIAN_POINT('',(-125.010295389397,14.0868424270267,24.4979929072316));
#1334=CARTESIAN_POINT('',(-125.010295389397,14.0868424270267,16.4979929072316));
#1335=CARTESIAN_POINT('',(-125.010295389397,14.0868424270267,24.4979929072316));
#1336=CARTESIAN_POINT('',(-125.010295389397,18.5868424270267,24.4979929072316));
#1337=CARTESIAN_POINT('',(-125.010295389397,-2.60065757297327,24.4979929072316));
#1338=CARTESIAN_POINT('',(-125.010295389397,18.5868424270267,16.4979929072316));
#1339=CARTESIAN_POINT('',(-125.010295389397,18.5868424270267,24.4979929072316));
#1340=CARTESIAN_POINT('',(-125.010295389397,10.6938531974841,16.4979929072316));
#1341=CARTESIAN_POINT('Origin',(-125.010295389397,18.5868424270267,24.4979929072316));
#1342=CARTESIAN_POINT('',(-123.010295389397,18.5868424270267,16.4979929072316));
#1343=CARTESIAN_POINT('',(-124.510295389397,18.5868424270267,16.4979929072316));
#1344=CARTESIAN_POINT('',(-123.010295389397,18.5868424270267,24.4979929072316));
#1345=CARTESIAN_POINT('',(-123.010295389397,18.5868424270267,24.4979929072316));
#1346=CARTESIAN_POINT('',(-123.010295389397,18.5868424270267,24.4979929072316));
#1347=CARTESIAN_POINT('Origin',(-123.010295389397,18.5868424270267,24.4979929072316));
#1348=CARTESIAN_POINT('',(-123.010295389397,10.4618424270267,16.4979929072316));
#1349=CARTESIAN_POINT('',(-123.010295389397,18.5868424270267,24.4979929072316));
#1350=CARTESIAN_POINT('Origin',(-120.010022468875,-9.4131575729733,24.4979929072316));
#1351=CARTESIAN_POINT('',(-123.010295389397,-9.41315757297327,24.4979929072316));
#1352=CARTESIAN_POINT('',(-123.010295389397,-9.41315757297327,16.4979929072316));
#1353=CARTESIAN_POINT('',(-123.010295389397,-9.4131575729733,24.4979929072316));
#1354=CARTESIAN_POINT('',(-118.110022468875,-9.4131575729733,16.4979929072316));
#1355=CARTESIAN_POINT('',(-123.010022468875,-9.4131575729733,24.4979929072316));
#1356=CARTESIAN_POINT('Origin',(-125.010295389397,-13.9131575729733,24.4979929072316));
#1357=CARTESIAN_POINT('',(-125.010295389397,-9.41315757297328,16.4979929072316));
#1358=CARTESIAN_POINT('',(-125.010295389397,-9.41315757297328,24.4979929072316));
#1359=CARTESIAN_POINT('',(-125.010295389397,-9.4131575729733,24.4979929072316));
#1360=CARTESIAN_POINT('',(-125.010295389397,-13.9131575729733,16.4979929072316));
#1361=CARTESIAN_POINT('',(-125.010295389397,10.6938531974841,16.4979929072316));
#1362=CARTESIAN_POINT('',(-125.010295389397,-13.9131575729733,24.4979929072316));
#1363=CARTESIAN_POINT('',(-125.010295389397,-13.9131575729733,24.4979929072316));
#1364=CARTESIAN_POINT('',(-125.010295389397,-2.60065757297327,24.4979929072316));
#1365=CARTESIAN_POINT('Origin',(-123.010295389397,-9.41315757297327,24.4979929072316));
#1366=CARTESIAN_POINT('',(-123.010295389397,-13.9131575729733,16.4979929072316));
#1367=CARTESIAN_POINT('',(-123.010295389397,-3.53815757297328,16.4979929072316));
#1368=CARTESIAN_POINT('',(-123.010295389397,-13.9131575729733,24.4979929072316));
#1369=CARTESIAN_POINT('',(-123.010295389397,-13.9131575729733,24.4979929072316));
#1370=CARTESIAN_POINT('',(-123.010295389397,-13.9131575729733,24.4979929072316));
#1371=CARTESIAN_POINT('Origin',(-123.010295389397,-13.9131575729733,24.4979929072316));
#1372=CARTESIAN_POINT('',(-123.510295389397,-13.9131575729733,16.4979929072316));
#1373=CARTESIAN_POINT('',(-123.010295389397,-13.9131575729733,24.4979929072316));
#1374=CARTESIAN_POINT('Origin',(-116.010022468875,-9.4131575729733,24.4979929072316));
#1375=CARTESIAN_POINT('',(-129.010022468875,-9.4131575729733,24.4979929072316));
#1376=CARTESIAN_POINT('',(-119.010022468875,-9.4131575729733,24.4979929072316));
#1377=CARTESIAN_POINT('',(-129.010022468875,-9.4131575729733,16.4979929072316));
#1378=CARTESIAN_POINT('',(-129.010022468875,-9.4131575729733,18.5229929072156));
#1379=CARTESIAN_POINT('',(-114.110022468875,-9.4131575729733,16.4979929072316));
#1380=CARTESIAN_POINT('Origin',(-121.010022468875,-7.53815757297329,24.4979929072316));
#1381=CARTESIAN_POINT('',(-129.010022468875,-5.66315757297329,24.4979929072316));
#1382=CARTESIAN_POINT('',(-123.010022468875,-5.6631576921738,24.4979929072316));
#1383=CARTESIAN_POINT('',(-129.010022468875,-11.4256575729731,24.4979929072316));
#1384=CARTESIAN_POINT('',(-129.010022468875,14.0868424270267,24.4979929072316));
#1385=CARTESIAN_POINT('',(-103.260295389397,14.0868424270267,24.4979929072316));
#1386=CARTESIAN_POINT('',(-129.010022468875,10.3368424270267,24.4979929072316));
#1387=CARTESIAN_POINT('',(-129.010022468875,-1.55065757297312,24.4979929072316));
#1388=CARTESIAN_POINT('',(-129.010022468875,10.3368424270267,24.4979929072316));
#1389=CARTESIAN_POINT('Origin',(-129.010022468875,-5.6631576921738,12.5979929072316));
#1390=CARTESIAN_POINT('',(-129.010022468875,-5.66315757297329,16.4979929072316));
#1391=CARTESIAN_POINT('',(-123.010295389397,-5.66315757297329,16.4979929072316));
#1392=CARTESIAN_POINT('',(-129.010022468875,-5.6631576921738,12.5979929072316));
#1393=CARTESIAN_POINT('',(-129.010022468875,-5.6631576921738,12.5729929072156));
#1394=CARTESIAN_POINT('',(-132.510022468875,-5.6631576921738,12.5979929072316));
#1395=CARTESIAN_POINT('',(-127.860022468875,-5.6631576921738,12.5979929072316));
#1396=CARTESIAN_POINT('',(-132.510022468875,-5.6631576921738,17.9979929072316));
#1397=CARTESIAN_POINT('',(-132.510022468875,-5.6631576921738,18.3979929072316));
#1398=CARTESIAN_POINT('',(-129.010022468875,-5.6631576921738,17.9979929072316));
#1399=CARTESIAN_POINT('',(-129.010022468875,-5.6631576921738,17.9979929072316));
#1400=CARTESIAN_POINT('',(-129.010022468875,-5.66315757297329,18.5229929072156));
#1401=CARTESIAN_POINT('Origin',(-103.260295389397,14.0868424270267,24.4979929072316));
#1402=CARTESIAN_POINT('',(-129.010022468875,14.0868424270267,16.4979929072316));
#1403=CARTESIAN_POINT('',(-128.010022468875,14.0868424270267,16.4979929072316));
#1404=CARTESIAN_POINT('',(-129.010022468875,14.0868424270267,18.5229929072156));
#1405=CARTESIAN_POINT('Origin',(-119.010022468875,10.3368424270267,24.4979929072316));
#1406=CARTESIAN_POINT('',(-129.010022468875,10.3368425462262,17.9979929072316));
#1407=CARTESIAN_POINT('',(-129.010022468875,10.3368424270267,18.5229929072156));
#1408=CARTESIAN_POINT('',(-132.510022468875,10.3368425462262,17.9979929072316));
#1409=CARTESIAN_POINT('',(-129.010022468875,10.3368425462262,17.9979929072316));
#1410=CARTESIAN_POINT('',(-132.510022468875,10.3368425462262,12.5979929072316));
#1411=CARTESIAN_POINT('',(-132.510022468875,10.3368425462262,21.0979929072316));
#1412=CARTESIAN_POINT('',(-129.010022468875,10.3368425462262,12.5979929072316));
#1413=CARTESIAN_POINT('',(-127.860022468875,10.3368425462262,12.5979929072316));
#1414=CARTESIAN_POINT('',(-129.010022468875,10.3368424270267,16.4979929072316));
#1415=CARTESIAN_POINT('',(-129.010022468875,10.3368425462262,15.2729929072156));
#1416=CARTESIAN_POINT('',(-129.010022468875,10.3368424270267,16.4979929072316));
#1417=CARTESIAN_POINT('Origin',(-112.210022468875,19.0508639679414,16.4979929072316));
#1418=CARTESIAN_POINT('',(-129.010022468875,-11.4256575729731,16.4979929072316));
#1419=CARTESIAN_POINT('',(-129.010022468875,-1.55065757297312,16.4979929072316));
#1420=CARTESIAN_POINT('Origin',(-129.010022468875,-15.3131575729729,12.5479929071997));
#1421=CARTESIAN_POINT('',(-129.010022468875,17.137281057272,12.5979929072316));
#1422=CARTESIAN_POINT('',(-129.010022468875,2.33684242702634,12.5979929072316));
#1423=CARTESIAN_POINT('',(-129.010022468875,22.8368424270265,12.5479929072007));
#1424=CARTESIAN_POINT('Origin',(-129.010022468875,19.9868424270264,12.5479929072007));
#1425=CARTESIAN_POINT('',(-129.010022468875,19.0508639679409,15.2399149573589));
#1426=CARTESIAN_POINT('Origin',(-129.010022468875,19.9868424270264,12.5479929072007));
#1427=CARTESIAN_POINT('',(-129.010022468875,19.0508639679409,30.2560708571042));
#1428=CARTESIAN_POINT('',(-129.010022468875,19.0508639679414,27.7979929072316));
#1429=CARTESIAN_POINT('',(-129.010022468875,22.8368424270265,32.9479929072624));
#1430=CARTESIAN_POINT('Origin',(-129.010022468875,19.9868424270264,32.9479929072624));
#1431=CARTESIAN_POINT('',(-129.010022468875,19.0508639679409,35.6399149574206));
#1432=CARTESIAN_POINT('Origin',(-129.010022468875,19.9868424270264,32.9479929072624));
#1433=CARTESIAN_POINT('',(-129.010022468875,19.0508639679409,35.7979929072316));
#1434=CARTESIAN_POINT('',(-129.010022468875,19.0508639679414,32.022992907247));
#1435=CARTESIAN_POINT('',(-129.010022468875,-14.3771791138885,35.7979929072316));
#1436=CARTESIAN_POINT('',(-129.010022468875,2.33684242702661,35.7979929072316));
#1437=CARTESIAN_POINT('',(-129.010022468875,-14.3771791138885,35.639914957422));
#1438=CARTESIAN_POINT('',(-129.010022468875,-14.377179113888,32.0229929072475));
#1439=CARTESIAN_POINT('',(-129.010022468875,-14.3771791138885,30.2560708571048));
#1440=CARTESIAN_POINT('Origin',(-129.010022468875,-15.3131575729729,32.9479929072634));
#1441=CARTESIAN_POINT('',(-129.010022468875,-14.3771791138885,15.2399149573583));
#1442=CARTESIAN_POINT('',(-129.010022468875,-14.377179113888,27.7979929072316));
#1443=CARTESIAN_POINT('',(-129.010022468875,-12.4631575729729,12.5479929071997));
#1444=CARTESIAN_POINT('Origin',(-129.010022468875,-15.3131575729729,12.5479929071997));
#1445=CARTESIAN_POINT('',(-129.010022468875,-12.4635962032185,12.5979929072316));
#1446=CARTESIAN_POINT('Origin',(-129.010022468875,-15.3131575729729,12.5479929071997));
#1447=CARTESIAN_POINT('',(-129.010022468875,2.33684242702634,12.5979929072316));
#1448=CARTESIAN_POINT('',(-129.010022468875,-10.4881576325734,17.9979929072316));
#1449=CARTESIAN_POINT('',(-129.010022468875,-13.8131575729729,12.5479929071997));
#1450=CARTESIAN_POINT('Origin',(-129.010022468875,-15.3131575729729,12.5479929071997));
#1451=CARTESIAN_POINT('',(-129.010022468875,21.4868424270264,12.5479929072007));
#1452=CARTESIAN_POINT('Origin',(-129.010022468875,19.9868424270264,12.5479929072007));
#1453=CARTESIAN_POINT('',(-129.010022468875,-13.8131575729729,32.9479929072634));
#1454=CARTESIAN_POINT('Origin',(-129.010022468875,-15.3131575729729,32.9479929072634));
#1455=CARTESIAN_POINT('',(-129.010022468875,21.4868424270264,32.9479929072624));
#1456=CARTESIAN_POINT('Origin',(-129.010022468875,19.9868424270264,32.9479929072624));
#1457=CARTESIAN_POINT('Origin',(-129.010022468875,-5.6631576921738,17.9979929072316));
#1458=CARTESIAN_POINT('',(-132.510022468875,-1.6631576325738,17.9979929072316));
#1459=CARTESIAN_POINT('Origin',(-132.510022468875,2.33684242702619,24.1979929072316));
#1460=CARTESIAN_POINT('',(-132.510022468875,-12.4635962032185,12.5979929072316));
#1461=CARTESIAN_POINT('',(-132.510022468875,2.3368424270262,12.5979929072316));
#1462=CARTESIAN_POINT('',(-132.510022468875,-14.3771791138885,15.2399149573583));
#1463=CARTESIAN_POINT('Origin',(-132.510022468875,-15.3131575729729,12.5479929071997));
#1464=CARTESIAN_POINT('',(-132.510022468875,-14.3771791138885,30.2560708571048));
#1465=CARTESIAN_POINT('',(-132.510022468875,-14.377179113888,27.6479929072316));
#1466=CARTESIAN_POINT('',(-132.510022468875,-12.4631575729729,32.9479929072634));
#1467=CARTESIAN_POINT('Origin',(-132.510022468875,-15.3131575729729,32.9479929072634));
#1468=CARTESIAN_POINT('',(-132.510022468875,-14.3771791138885,35.639914957422));
#1469=CARTESIAN_POINT('Origin',(-132.510022468875,-15.3131575729729,32.9479929072634));
#1470=CARTESIAN_POINT('',(-132.510022468875,-14.3771791138885,35.7979929072316));
#1471=CARTESIAN_POINT('',(-132.510022468875,-14.377179113888,27.6479929072316));
#1472=CARTESIAN_POINT('',(-132.510022468875,19.0508639679409,35.7979929072316));
#1473=CARTESIAN_POINT('',(-132.510022468875,2.33684242702647,35.7979929072316));
#1474=CARTESIAN_POINT('',(-132.510022468875,19.0508639679409,35.6399149574206));
#1475=CARTESIAN_POINT('',(-132.510022468875,19.0508639679415,27.6479929072316));
#1476=CARTESIAN_POINT('',(-132.510022468875,19.0508639679409,30.2560708571042));
#1477=CARTESIAN_POINT('Origin',(-132.510022468875,19.9868424270264,32.9479929072624));
#1478=CARTESIAN_POINT('',(-132.510022468875,19.0508639679409,15.2399149573589));
#1479=CARTESIAN_POINT('',(-132.510022468875,19.0508639679415,27.6479929072316));
#1480=CARTESIAN_POINT('',(-132.510022468875,17.137281057272,12.5979929072316));
#1481=CARTESIAN_POINT('Origin',(-132.510022468875,19.9868424270264,12.5479929072007));
#1482=CARTESIAN_POINT('',(-132.510022468875,2.3368424270262,12.5979929072316));
#1483=CARTESIAN_POINT('Origin',(-126.710022468875,2.3368424270262,12.5979929072316));
#1484=CARTESIAN_POINT('',(-134.010022468875,-12.4635962032185,12.5979929072316));
#1485=CARTESIAN_POINT('Origin',(-126.210022468875,-14.377179113888,31.0979929072316));
#1486=CARTESIAN_POINT('',(-134.010022468875,-14.377179113888,35.6399149574218));
#1487=CARTESIAN_POINT('',(-130.710022468875,-14.3771791138885,35.7979929072316));
#1488=CARTESIAN_POINT('Origin',(-126.125245719978,-14.377179113888,31.0979929072316));
#1489=CARTESIAN_POINT('',(-134.010022468875,-14.377179113888,15.2399149573581));
#1490=CARTESIAN_POINT('',(-134.010022468875,-14.377179113888,30.256070857105));
#1491=CARTESIAN_POINT('Origin',(-126.710022468875,2.3368424270262,12.5979929072316));
#1492=CARTESIAN_POINT('',(-134.010022468875,17.137281057272,12.5979929072316));
#1493=CARTESIAN_POINT('Origin',(-134.010022468875,-14.3771791138885,32.5979929072316));
#1494=CARTESIAN_POINT('',(-134.010022468875,-12.4631575729729,12.5479929071997));
#1495=CARTESIAN_POINT('Origin',(-134.010022468875,-15.3131575729729,12.5479929071997));
#1496=CARTESIAN_POINT('',(-134.010022468875,-13.8131575729729,12.5479929071997));
#1497=CARTESIAN_POINT('Origin',(-134.010022468875,-15.3131575729729,12.5479929071997));
#1498=CARTESIAN_POINT('Origin',(-134.010022468875,-14.3771791138885,32.5979929072316));
#1499=CARTESIAN_POINT('',(-134.010022468875,22.8368424270265,12.5479929072007));
#1500=CARTESIAN_POINT('Origin',(-134.010022468875,19.9868424270264,12.5479929072007));
#1501=CARTESIAN_POINT('',(-134.010022468875,21.4868424270264,12.5479929072007));
#1502=CARTESIAN_POINT('Origin',(-134.010022468875,19.9868424270264,12.5479929072007));
#1503=CARTESIAN_POINT('Origin',(-134.010022468875,-14.3771791138885,32.5979929072316));
#1504=CARTESIAN_POINT('',(-134.010022468875,22.8368424270265,32.9479929072624));
#1505=CARTESIAN_POINT('Origin',(-134.010022468875,19.9868424270264,32.9479929072624));
#1506=CARTESIAN_POINT('',(-134.010022468875,21.4868424270264,32.9479929072624));
#1507=CARTESIAN_POINT('Origin',(-134.010022468875,19.9868424270264,32.9479929072624));
#1508=CARTESIAN_POINT('Origin',(-134.010022468875,-14.3771791138885,32.5979929072316));
#1509=CARTESIAN_POINT('',(-134.010022468875,-12.4631575729729,32.9479929072634));
#1510=CARTESIAN_POINT('Origin',(-134.010022468875,-15.3131575729729,32.9479929072634));
#1511=CARTESIAN_POINT('',(-134.010022468875,-13.8131575729729,32.9479929072634));
#1512=CARTESIAN_POINT('Origin',(-134.010022468875,-15.3131575729729,32.9479929072634));
#1513=CARTESIAN_POINT('Origin',(-115.075270554687,2.33684242702675,35.7979929072316));
#1514=CARTESIAN_POINT('',(-130.710022468875,19.0508639679409,35.7979929072316));
#1515=CARTESIAN_POINT('Origin',(-123.210022468875,19.0508639679414,31.0979929072316));
#1516=CARTESIAN_POINT('',(-134.010022468875,19.0508639679415,35.6399149574208));
#1517=CARTESIAN_POINT('Origin',(-134.010022468875,-15.3131575729729,32.9479929072634));
#1518=CARTESIAN_POINT('',(-134.010022468875,-13.8131575729729,32.9479929072634));
#1519=CARTESIAN_POINT('Origin',(-134.010022468875,-15.3131575729729,32.9479929072634));
#1520=CARTESIAN_POINT('',(-134.010022468875,-12.4631575729729,32.9479929072634));
#1521=CARTESIAN_POINT('Origin',(-134.010022468875,19.9868424270264,32.9479929072624));
#1522=CARTESIAN_POINT('',(-134.010022468875,21.4868424270264,32.9479929072624));
#1523=CARTESIAN_POINT('Origin',(-134.010022468875,19.9868424270264,32.9479929072624));
#1524=CARTESIAN_POINT('',(-134.010022468875,22.8368424270265,32.9479929072624));
#1525=CARTESIAN_POINT('',(-134.010022468875,19.0508639679415,30.256070857104));
#1526=CARTESIAN_POINT('Origin',(-134.010022468875,-15.3131575729729,12.5479929071997));
#1527=CARTESIAN_POINT('',(-134.010022468875,-13.8131575729729,12.5479929071997));
#1528=CARTESIAN_POINT('Origin',(-134.010022468875,-15.3131575729729,12.5479929071997));
#1529=CARTESIAN_POINT('',(-134.010022468875,-12.4631575729729,12.5479929071997));
#1530=CARTESIAN_POINT('Origin',(-134.010022468875,19.9868424270264,12.5479929072007));
#1531=CARTESIAN_POINT('',(-134.010022468875,21.4868424270264,12.5479929072007));
#1532=CARTESIAN_POINT('Origin',(-134.010022468875,19.9868424270264,12.5479929072007));
#1533=CARTESIAN_POINT('',(-134.010022468875,19.0508639679415,15.2399149573591));
#1534=CARTESIAN_POINT('',(-134.010022468875,22.8368424270265,12.5479929072007));
#1535=CARTESIAN_POINT('Origin',(-123.125245719978,19.0508639679414,31.0979929072316));
#1536=UNCERTAINTY_MEASURE_WITH_UNIT(LENGTH_MEASURE(0.01),#1540,
'DISTANCE_ACCURACY_VALUE',
'Maximum model space distance between geometric entities at asserted c
onnectivities');
#1537=UNCERTAINTY_MEASURE_WITH_UNIT(LENGTH_MEASURE(0.01),#1540,
'DISTANCE_ACCURACY_VALUE',
'Maximum model space distance between geometric entities at asserted c
onnectivities');
#1538=(
GEOMETRIC_REPRESENTATION_CONTEXT(3)
GLOBAL_UNCERTAINTY_ASSIGNED_CONTEXT((#1536))
GLOBAL_UNIT_ASSIGNED_CONTEXT((#1540,#1542,#1543))
REPRESENTATION_CONTEXT('','3D')
);
#1539=(
GEOMETRIC_REPRESENTATION_CONTEXT(3)
GLOBAL_UNCERTAINTY_ASSIGNED_CONTEXT((#1537))
GLOBAL_UNIT_ASSIGNED_CONTEXT((#1540,#1542,#1543))
REPRESENTATION_CONTEXT('','3D')
);
#1540=(
LENGTH_UNIT()
NAMED_UNIT(*)
SI_UNIT(.MILLI.,.METRE.)
);
#1541=(
LENGTH_UNIT()
NAMED_UNIT(*)
SI_UNIT($,.METRE.)
);
#1542=(
NAMED_UNIT(*)
PLANE_ANGLE_UNIT()
SI_UNIT($,.RADIAN.)
);
#1543=(
NAMED_UNIT(*)
SI_UNIT($,.STERADIAN.)
SOLID_ANGLE_UNIT()
);
#1544=SHAPE_DEFINITION_REPRESENTATION(#1545,#1546);
#1545=PRODUCT_DEFINITION_SHAPE('',$,#1548);
#1546=SHAPE_REPRESENTATION('',(#948),#1538);
#1547=PRODUCT_DEFINITION_CONTEXT('part definition',#1552,'design');
#1548=PRODUCT_DEFINITION('2026-08-11-12-55-11-021',
'\X2\663E793A5C4F56FA5B9A8F6667B6\X0\ (1)',#1549,#1547);
#1549=PRODUCT_DEFINITION_FORMATION('',$,#1554);
#1550=PRODUCT_RELATED_PRODUCT_CATEGORY('\X2\663E793A5C4F56FA5B9A8F6667B6\X0\ 
(1)','\X2\663E793A5C4F56FA5B9A8F6667B6\X0\ (1)',(#1554));
#1551=APPLICATION_PROTOCOL_DEFINITION('international standard',
'automotive_design',2009,#1552);
#1552=APPLICATION_CONTEXT(
'Core Data for Automotive Mechanical Design Process');
#1553=PRODUCT_CONTEXT('part definition',#1552,'mechanical');
#1554=PRODUCT('2026-08-11-12-55-11-021','\X2\663E793A5C4F56FA5B9A8F6667B6\X0\ 
(1)',$,(#1553));
#1555=PRESENTATION_STYLE_ASSIGNMENT((#1557));
#1556=PRESENTATION_STYLE_ASSIGNMENT((#1558));
#1557=SURFACE_STYLE_USAGE(.BOTH.,#1559);
#1558=SURFACE_STYLE_USAGE(.BOTH.,#1560);
#1559=SURFACE_SIDE_STYLE('',(#1561));
#1560=SURFACE_SIDE_STYLE('',(#1562));
#1561=SURFACE_STYLE_FILL_AREA(#1563);
#1562=SURFACE_STYLE_FILL_AREA(#1564);
#1563=FILL_AREA_STYLE('\X2\94A2\X0\ - \X2\7F0E5149\X0\',(#1565));
#1564=FILL_AREA_STYLE('Opaque(160,160,160)',(#1566));
#1565=FILL_AREA_STYLE_COLOUR('\X2\94A2\X0\ - \X2\7F0E5149\X0\',#1567);
#1566=FILL_AREA_STYLE_COLOUR('Opaque(160,160,160)',#1568);
#1567=COLOUR_RGB('\X2\94A2\X0\ - \X2\7F0E5149\X0\',0.627450980392157,0.627450980392157,
0.627450980392157);
#1568=COLOUR_RGB('Opaque(160,160,160)',0.627450980392157,0.627450980392157,
0.627450980392157);
ENDSEC;
END-ISO-10303-21;
